<svg width="57" height="57" viewBox="0 0 57 57" fill="none" xmlns="http://www.w3.org/2000/svg">
<path d="M35 7.19413L35.547 6.37513L36.084 5.56713L37.293 3.75413C37.441 3.53113 37.381 3.23113 37.16 3.08213C36.935 2.93313 36.635 2.99313 36.486 3.21713L35.191 5.16113L34.646 5.97813L34.093 6.80613C32.341 6.12713 30.388 5.74613 28.325 5.74613C26.264 5.74613 24.311 6.12713 22.559 6.80613L22.009 5.97813L21.464 5.16113L20.167 3.21613C20.019 2.99313 19.718 2.93313 19.494 3.08113C19.272 3.22913 19.212 3.53013 19.36 3.75313L20.568 5.56613L21.107 6.37413L21.654 7.19313C17.539 9.10913 14.756 12.7391 14.756 16.8941H41.898C41.898 12.7401 39.115 9.11013 35 7.19413ZM22.511 13.0171C21.706 13.0171 21.056 12.3661 21.056 11.5631C21.056 10.7601 21.706 10.1101 22.511 10.1101C23.314 10.1101 23.964 10.7601 23.964 11.5631C23.964 12.3661 23.314 13.0171 22.511 13.0171ZM34.142 13.0171C33.339 13.0171 32.689 12.3661 32.689 11.5631C32.689 10.7601 33.339 10.1101 34.142 10.1101C34.947 10.1101 35.597 10.7601 35.597 11.5631C35.597 12.3661 34.947 13.0171 34.142 13.0171Z" fill="#6E60E7"/>
<path d="M14.965 18.8341H14.756V21.2521V23.2251V40.1611C14.756 41.8541 16.132 43.2311 17.825 43.2311H20.041C19.967 43.4871 19.925 43.7581 19.925 44.0381V44.2001V45.1691V50.1791C19.925 51.7841 21.228 53.0871 22.834 53.0871C24.44 53.0871 25.742 51.7841 25.742 50.1791V45.1691V44.2001V44.0381C25.742 43.7591 25.699 43.4871 25.627 43.2311H31.027C30.953 43.4871 30.912 43.7581 30.912 44.0381V44.2001V45.1691V50.1791C30.912 51.7841 32.215 53.0871 33.82 53.0871C35.425 53.0871 36.728 51.7841 36.728 50.1791V45.1691V44.2001V44.0381C36.728 43.7591 36.687 43.4871 36.613 43.2311H38.828C40.521 43.2311 41.898 41.8541 41.898 40.1611V23.2251V21.2521V18.8341H41.689H14.965V18.8341Z" fill="#6E60E7"/>
<path d="M9.908 18.8341C8.302 18.8341 7 20.1351 7 21.7431V34.1821C7 35.7871 8.302 37.0901 9.908 37.0901C11.513 37.0901 12.816 35.7871 12.816 34.1821V21.7421C12.816 20.1351 11.514 18.8341 9.908 18.8341Z" fill="#6E60E7"/>
<path d="M46.746 18.8341C45.139 18.8341 43.838 20.1351 43.838 21.7431V34.1821C43.838 35.7871 45.139 37.0901 46.746 37.0901C48.351 37.0901 49.652 35.7871 49.652 34.1821V21.7421C49.652 20.1351 48.351 18.8341 46.746 18.8341Z" fill="#6E60E7"/>
</svg>
