<svg width="57" height="57" viewBox="0 0 57 57" fill="none" xmlns="http://www.w3.org/2000/svg">
<path d="M41.4617 29.143C41.3997 22.911 46.5437 19.922 46.7737 19.771C43.8827 15.544 39.3787 14.964 37.7757 14.898C33.9457 14.509 30.2987 17.154 28.3557 17.154C26.4167 17.154 23.4147 14.955 20.2387 15.011C16.0607 15.073 12.2097 17.441 10.0597 21.181C5.72071 28.708 8.94971 39.863 13.1777 45.972C15.2447 48.958 17.7097 52.318 20.9437 52.195C24.0607 52.072 25.2367 50.179 29.0047 50.179C32.7727 50.179 33.8307 52.195 37.1277 52.132C40.4797 52.071 42.6047 49.089 44.6547 46.091C47.0277 42.622 48.0047 39.263 48.0627 39.093C47.9897 39.059 41.5287 36.584 41.4617 29.143Z" fill="#6E60E7"/>
<path d="M35.2667 10.855C36.9817 8.773 38.1437 5.88 37.8277 3C35.3527 3.1 32.3567 4.645 30.5797 6.725C28.9877 8.571 27.5957 11.51 27.9687 14.338C30.7297 14.552 33.5457 12.933 35.2667 10.855Z" fill="#6E60E7"/>
</svg>
