<svg id="SvgjsSvg1016" width="288" height="288" xmlns="http://www.w3.org/2000/svg" version="1.1" xmlns:xlink="http://www.w3.org/1999/xlink" xmlns:svgjs="http://svgjs.com/svgjs"><defs id="SvgjsDefs1017"></defs><g id="SvgjsG1018"><svg xmlns="http://www.w3.org/2000/svg" viewBox="0 0 64 64" width="288" height="288"><path fill="#061826" d="M54,9H10a5.0059,5.0059,0,0,0-5,5V50a1,1,0,0,0,1,1H58a1,1,0,0,0,1-1V14A5.0059,5.0059,0,0,0,54,9Z" class="colore6ecff svgShape"></path><path fill="#d0dbf7" d="M54,13H35a1,1,0,0,0-1,1,2,2,0,0,1-4,0,1,1,0,0,0-1-1H10a1,1,0,0,0-1,1V44a1,1,0,0,0,1,1H54a1,1,0,0,0,1-1V14A1,1,0,0,0,54,13Z" class="colord0dbf7 svgShape"></path><path fill="#061826" d="M63,49H1a1,1,0,0,0-1,1v4a5.0059,5.0059,0,0,0,5,5H59a5.0059,5.0059,0,0,0,5-5V50A1,1,0,0,0,63,49Z" class="color4294ff svgShape"></path><path fill="#6d60e9" d="M52,49H12v3a3,3,0,0,0,3,3H49a3,3,0,0,0,3-3Z" class="color376cfb svgShape"></path><circle cx="32" cy="14" r="1" fill="#061826" class="color4294ff svgShape"></circle><path fill="#6d60e9" d="M36,28H28a1,1,0,0,1-1-1V24a5,5,0,0,1,10,0v3A1,1,0,0,1,36,28Zm-7-2h6V24a3,3,0,0,0-6,0Z" class="color376cfb svgShape"></path><rect width="18" height="16" x="23" y="26" fill="#061826" rx="3" ry="3" class="color4294ff svgShape"></rect><circle cx="32" cy="33" r="3" fill="#6d60e9" class="color376cfb svgShape"></circle><path fill="#6d60e9" d="M32,38a1,1,0,0,1-1-1V35a1,1,0,0,1,2,0v2A1,1,0,0,1,32,38Z" class="color376cfb svgShape"></path></svg></g></svg>