<svg id="SvgjsSvg1029" width="288" height="288" xmlns="http://www.w3.org/2000/svg" version="1.1" xmlns:xlink="http://www.w3.org/1999/xlink" xmlns:svgjs="http://svgjs.com/svgjs"><defs id="SvgjsDefs1030"></defs><g id="SvgjsG1031"><svg xmlns="http://www.w3.org/2000/svg" viewBox="0 0 64 64" width="288" height="288"><g data-name="Web shieldvv" fill="#000000" class="color000 svgShape"><path fill="#e6ecff" d="M61,8H14V7a1,1,0,0,0-1-1H3A1,1,0,0,0,2,7V57a1,1,0,0,0,1,1H61a1,1,0,0,0,1-1V9A1,1,0,0,0,61,8Z" class="colore6ecff svgShape"></path><rect width="12" height="8" x="26" y="8" fill="#6d60e9" class="color376cfb svgShape"></rect><rect width="12" height="8" x="14" y="8" fill="#061826" class="color4294ff svgShape"></rect><path fill="#6d60e9" d="M61,8H50v8H62V9A1,1,0,0,0,61,8Z" class="color376cfb svgShape"></path><rect width="12" height="8" x="38" y="8" fill="#061826" class="color4294ff svgShape"></rect><path fill="#061826" d="M10,12H6a1,1,0,0,1,0-2h4a1,1,0,0,1,0,2Z" class="color4294ff svgShape"></path><path fill="#6d60e9" d="M22,13H18a1,1,0,0,1,0-2h4a1,1,0,0,1,0,2Z" class="color376cfb svgShape"></path><path fill="#8460e9" d="M34,13H30a1,1,0,0,1,0-2h4a1,1,0,0,1,0,2Z" class="color2946ed svgShape"></path><path fill="#6d60e9" d="M46,13H42a1,1,0,0,1,0-2h4a1,1,0,0,1,0,2Z" class="color376cfb svgShape"></path><path fill="#8460e9" d="M58,13H54a1,1,0,0,1,0-2h4a1,1,0,0,1,0,2Z" class="color2946ed svgShape"></path><path fill="#061826" d="M44.3848,26.0771l-12-5a.9926.9926,0,0,0-.77,0l-12,5A1,1,0,0,0,19,27v7A20.4443,20.4443,0,0,0,31.6152,52.9229a.9988.9988,0,0,0,.77,0A20.4443,20.4443,0,0,0,45,34V27A1,1,0,0,0,44.3848,26.0771Z" class="color4294ff svgShape"></path><path fill="#6d60e9" d="M41.3848,28.0771l-9-3.75a.9926.9926,0,0,0-.77,0l-9,3.75A1,1,0,0,0,22,29v5a17.4106,17.4106,0,0,0,9.5464,15.59,1.0032,1.0032,0,0,0,.9072,0A17.4106,17.4106,0,0,0,42,34V29A1,1,0,0,0,41.3848,28.0771Z" class="color376cfb svgShape"></path><path fill="#8460e9" d="M32.4536,49.59A17.4106,17.4106,0,0,0,42,34V29a1,1,0,0,0-.6152-.9229l-9-3.75A.9933.9933,0,0,0,32,24.25V49.6982A1.0016,1.0016,0,0,0,32.4536,49.59Z" class="color2946ed svgShape"></path></g></svg></g></svg>