<svg id="SvgjsSvg1126" width="288" height="288" xmlns="http://www.w3.org/2000/svg" version="1.1" xmlns:xlink="http://www.w3.org/1999/xlink" xmlns:svgjs="http://svgjs.com/svgjs"><defs id="SvgjsDefs1127"></defs><g id="SvgjsG1128"><svg xmlns="http://www.w3.org/2000/svg" viewBox="0 0 64 64" width="288" height="288"><g data-name="Encryption Chat" fill="#000000" class="color000 svgShape"><path fill="#6d60e9" d="M37,22H27a1,1,0,0,1-1-1V17a6,6,0,0,1,12,0v4A1,1,0,0,1,37,22Zm-9-2h8V17a4,4,0,0,0-8,0Z" class="color376cfb svgShape"></path><path fill="#e6ecff" d="M23 8H1A1 1 0 000 9V25a1 1 0 001 1H4v4a1 1 0 001.64.7686L11.3618 26H23a1 1 0 001-1V9A1 1 0 0023 8zM63 33H41a1 1 0 00-1 1V50a1 1 0 001 1H52.6382L58.36 55.7686A1 1 0 0060 55V51h3a1 1 0 001-1V34A1 1 0 0063 33z" class="colore6ecff svgShape"></path><rect width="22" height="19" x="21" y="20" fill="#061826" rx="2" ry="2" class="color4294ff svgShape"></rect><circle cx="32" cy="28" r="3" fill="#6d60e9" class="color376cfb svgShape"></circle><path fill="#6d60e9" d="M32,34a1,1,0,0,1-1-1V30a1,1,0,0,1,2,0v3A1,1,0,0,1,32,34Z" class="color376cfb svgShape"></path><path fill="#061826" d="M19 14H5a1 1 0 010-2H19a1 1 0 010 2zM19 18H5a1 1 0 010-2H19a1 1 0 010 2zM11 22H5a1 1 0 010-2h6a1 1 0 010 2zM59 39H46a1 1 0 010-2H59a1 1 0 010 2zM59 43H46a1 1 0 010-2H59a1 1 0 010 2zM59 47H53a1 1 0 010-2h6a1 1 0 010 2z" class="color4294ff svgShape"></path></g></svg></g></svg>