<svg id="SvgjsSvg1071" width="288" height="288" xmlns="http://www.w3.org/2000/svg" version="1.1" xmlns:xlink="http://www.w3.org/1999/xlink" xmlns:svgjs="http://svgjs.com/svgjs"><defs id="SvgjsDefs1072"></defs><g id="SvgjsG1073"><svg xmlns="http://www.w3.org/2000/svg" viewBox="0 0 64 64" width="288" height="288"><g data-name="Web Error" fill="#000000" class="color000 svgShape"><path fill="#e6ecff" d="M54,12H10a5.0059,5.0059,0,0,0-5,5V49a1,1,0,0,0,1,1H58a1,1,0,0,0,1-1V17A5.0059,5.0059,0,0,0,54,12Z" class="colore6ecff svgShape"></path><rect width="46" height="28" x="9" y="16" fill="#d0dbf7" rx="1" ry="1" class="colord0dbf7 svgShape"></rect><path fill="#607ae9" d="M63,48H1a1,1,0,0,0-1,1v4a5.0059,5.0059,0,0,0,5,5H59a5.0059,5.0059,0,0,0,5-5V49A1,1,0,0,0,63,48Z" class="color4294ff svgShape"></path><path fill="#6d60e9" d="M52,48H12v3a3,3,0,0,0,3,3H49a3,3,0,0,0,3-3Z" class="color376cfb svgShape"></path><path fill="#607ae9" d="M45,6H19a4,4,0,0,0-4,4V44H49V10A4,4,0,0,0,45,6Z" class="color4294ff svgShape"></path><path fill="#6d60e9" d="M45,6H19a4,4,0,0,0-4,4v4H49V10A4,4,0,0,0,45,6Z" class="color376cfb svgShape"></path><circle cx="19" cy="10" r="1" fill="#061826" class="color2946ed svgShape"></circle><circle cx="22" cy="10" r="1" fill="#061826" class="color2946ed svgShape"></circle><circle cx="25" cy="10" r="1" fill="#061826" class="color2946ed svgShape"></circle><path fill="#061826" d="M45,11H36a1,1,0,0,1,0-2h9a1,1,0,0,1,0,2Z" class="color2946ed svgShape"></path><path fill="#6d60e9" d="M42.8477,35.47l-10-16a1.0393,1.0393,0,0,0-1.6954,0l-10,16A1,1,0,0,0,22,37H42a1,1,0,0,0,.8477-1.53Z" class="color376cfb svgShape"></path><path fill="#061826" d="M32,31a1,1,0,0,1-1-1V26a1,1,0,0,1,2,0v4A1,1,0,0,1,32,31Z" class="color2946ed svgShape"></path><circle cx="32" cy="33" r="1" fill="#061826" class="color2946ed svgShape"></circle></g></svg></g></svg>