<svg id="SvgjsSvg1089" width="288" height="288" xmlns="http://www.w3.org/2000/svg" version="1.1" xmlns:xlink="http://www.w3.org/1999/xlink" xmlns:svgjs="http://svgjs.com/svgjs"><defs id="SvgjsDefs1090"></defs><g id="SvgjsG1091"><svg xmlns="http://www.w3.org/2000/svg" viewBox="0 0 64 64" width="288" height="288"><g data-name="Lock Website" fill="#000000" class="color000 svgShape"><circle cx="32" cy="32" r="32" fill="#e6ecff" class="colore6ecff svgShape"></circle><path fill="#d0dbf7" d="M63.98,33c.01-.33.02-.66.02-1s-.01-.67-.02-1H49.99A63.6655,63.6655,0,0,0,47.1,12.23a31.9577,31.9577,0,0,0,6.07-4.21c-.51-.45-1.03-.88-1.57-1.3a29.5493,29.5493,0,0,1-5.17,3.6c-.42-1.12-.88-2.17-1.36-3.17a26.0092,26.0092,0,0,0-3.7-5.75A32.2865,32.2865,0,0,0,37.43.46c2.86,1.96,5.36,5.76,7.21,10.76A29.86,29.86,0,0,1,33,13.98V.02C32.67.01,32.34,0,32,0s-.67.01-1,.02V13.98a29.7676,29.7676,0,0,1-11.64-2.76C21.21,6.21,23.72,2.4,26.59.46a30.8359,30.8359,0,0,0-3.96.94,29.1867,29.1867,0,0,0-5.06,8.91,30.51,30.51,0,0,1-5.18-3.59c-.53.42-1.05.85-1.55,1.29a31.68,31.68,0,0,0,6.05,4.21A63.7489,63.7489,0,0,0,14.01,31H.02c-.01.33-.02.66-.02,1s.01.67.02,1H14.01A63.5473,63.5473,0,0,0,16.9,51.8a32.0345,32.0345,0,0,0-6.05,4.19c.51.45,1.03.89,1.56,1.3a29.4394,29.4394,0,0,1,5.17-3.58,29.0577,29.0577,0,0,0,5.05,8.89,30.8359,30.8359,0,0,0,3.96.94c-2.87-1.94-5.37-5.74-7.22-10.74A29.8337,29.8337,0,0,1,31,50.01V63.98c.33.01.66.02,1,.02s.67-.01,1-.02V50.02a29.749,29.749,0,0,1,11.63,2.79c-1.85,4.99-4.35,8.78-7.21,10.73a32.0072,32.0072,0,0,0,3.95-.94,29.178,29.178,0,0,0,5.05-8.89,32.1078,32.1078,0,0,1,5.16,3.58h.01c.53-.41,1.05-.84,1.55-1.28a32.2281,32.2281,0,0,0-6.05-4.2A63.55,63.55,0,0,0,49.99,33ZM31,48.02A31.8452,31.8452,0,0,0,18.71,50.9,62.4828,62.4828,0,0,1,16.01,33H31ZM31,31H16.01a62.3945,62.3945,0,0,1,2.7-17.88A31.9311,31.9311,0,0,0,31,15.99ZM45.28,50.92A31.5534,31.5534,0,0,0,33,48.02V33H47.99A62.6121,62.6121,0,0,1,45.28,50.92ZM33,31V15.98a32.0153,32.0153,0,0,0,12.3-2.85A62.687,62.687,0,0,1,47.99,31Z" class="colord0dbf7 svgShape"></path><path fill="#6d60e9" d="M59,47H49a1,1,0,0,1-1-1V42a6,6,0,0,1,12,0v4A1,1,0,0,1,59,47Zm-9-2h8V42a4,4,0,0,0-8,0Z" class="color376cfb svgShape"></path><rect width="20" height="19" x="44" y="45" fill="#061826" rx="3" ry="3" class="color4294ff svgShape"></rect><circle cx="54" cy="53" r="3" fill="#6d60e9" class="color376cfb svgShape"></circle><path fill="#6d60e9" d="M54,59a1,1,0,0,1-1-1V55a1,1,0,0,1,2,0v3A1,1,0,0,1,54,59Z" class="color376cfb svgShape"></path></g></svg></g></svg>