<svg id="SvgjsSvg1047" width="288" height="288" xmlns="http://www.w3.org/2000/svg" version="1.1" xmlns:xlink="http://www.w3.org/1999/xlink" xmlns:svgjs="http://svgjs.com/svgjs"><defs id="SvgjsDefs1048"></defs><g id="SvgjsG1049"><svg xmlns="http://www.w3.org/2000/svg" viewBox="0 0 64 64" width="288" height="288"><g data-name="Router Lock" fill="#000000" class="color000 svgShape"><path fill="#6d60e9" d="M15 39H5a1 1 0 01-1-1V34a6 6 0 0112 0v4A1 1 0 0115 39zM6 37h8V34a4 4 0 00-8 0zM52 12a4.0042 4.0042 0 00-4 4V46a1 1 0 001 1h6a1 1 0 001-1V16A4.0042 4.0042 0 0052 12z" class="color376cfb svgShape"></path><rect width="12" height="7" x="46" y="45" fill="#061826" rx="1" ry="1" class="color4294ff svgShape"></rect><path fill="#e6ecff" d="M60,50H7a1,1,0,0,0-1,1v9a4.0042,4.0042,0,0,0,4,4H60a4.0042,4.0042,0,0,0,4-4V54A4.0042,4.0042,0,0,0,60,50Z" class="colore6ecff svgShape"></path><path fill="#061826" d="M45,17a1,1,0,0,1-1-1,8.0092,8.0092,0,0,1,8-8,1,1,0,0,1,0,2,6.0066,6.0066,0,0,0-6,6A1,1,0,0,1,45,17Z" class="color4294ff svgShape"></path><path fill="#061826" d="M41,17a1,1,0,0,1-1-1A12.0134,12.0134,0,0,1,52,4a1,1,0,0,1,0,2A10.0114,10.0114,0,0,0,42,16,1,1,0,0,1,41,17Z" class="color4294ff svgShape"></path><path fill="#061826" d="M37,17a1,1,0,0,1-1-1A16.0183,16.0183,0,0,1,52,0a1,1,0,0,1,0,2A14.0158,14.0158,0,0,0,38,16,1,1,0,0,1,37,17Z" class="color4294ff svgShape"></path><circle cx="57" cy="57" r="3" fill="#061826" class="color4294ff svgShape"></circle><circle cx="50" cy="57" r="3" fill="#061826" class="color4294ff svgShape"></circle><path fill="#061826" d="M45,58H32a1,1,0,0,1,0-2H45a1,1,0,0,1,0,2Z" class="color4294ff svgShape"></path><rect width="20" height="19" y="37" fill="#061826" rx="3" ry="3" class="color4294ff svgShape"></rect><circle cx="10" cy="45" r="3" fill="#6d60e9" class="color376cfb svgShape"></circle><path fill="#6d60e9" d="M10,51a1,1,0,0,1-1-1V47a1,1,0,0,1,2,0v3A1,1,0,0,1,10,51Z" class="color376cfb svgShape"></path></g></svg></g></svg>