<svg id="SvgjsSvg1001" width="288" height="288" xmlns="http://www.w3.org/2000/svg" version="1.1" xmlns:xlink="http://www.w3.org/1999/xlink" xmlns:svgjs="http://svgjs.com/svgjs"><defs id="SvgjsDefs1002"></defs><g id="SvgjsG1008"><svg xmlns="http://www.w3.org/2000/svg" viewBox="0 0 64 64" width="288" height="288"><g data-name="Smartphone Locked" fill="#000000" class="color000 svgShape"><rect width="40" height="64" x="12" fill="#061826" rx="5" ry="5" class="color4294ff svgShape"></rect><rect width="40" height="48" x="12" y="8" fill="#e6ecff" class="colore6ecff svgShape"></rect><path fill="#6d60e9" d="M47 5H46a1 1 0 010-2h1a1 1 0 010 2zM43 5H39a1 1 0 010-2h4a1 1 0 010 2zM34 61H30a1 1 0 010-2h4a1 1 0 010 2zM37 29H27a1 1 0 01-1-1V24a6 6 0 0112 0v4A1 1 0 0137 29zm-9-2h8V24a4 4 0 00-8 0z" class="color376cfb svgShape"></path><rect width="20" height="19" x="22" y="27" fill="#061826" rx="3" ry="3" class="color4294ff svgShape"></rect><path fill="#6d60e9" d="M32,32a2.9926,2.9926,0,0,0-1,5.8157V40a1,1,0,0,0,2,0V37.8157A2.9926,2.9926,0,0,0,32,32Z" class="color376cfb svgShape"></path></g></svg></g></svg>