<svg id="SvgjsSvg1111" width="288" height="288" xmlns="http://www.w3.org/2000/svg" version="1.1" xmlns:xlink="http://www.w3.org/1999/xlink" xmlns:svgjs="http://svgjs.com/svgjs"><defs id="SvgjsDefs1112"></defs><g id="SvgjsG1113"><svg xmlns="http://www.w3.org/2000/svg" viewBox="0 0 64 64" width="288" height="288"><g data-name="Phisimg Password" fill="#000000" class="color000 svgShape"><rect width="6" height="9" x="31" fill="#061826" rx="1" ry="1" class="color4294ff svgShape"></rect><rect width="6" height="9" x="31" y="17" fill="#061826" rx="1" ry="1" class="color4294ff svgShape"></rect><path fill="#e6ecff" d="M36.5,13a2.5,2.5,0,0,0,0-5h-5a2.5,2.5,0,0,0,0,5,2.5,2.5,0,0,0,0,5h5a2.5,2.5,0,0,0,0-5Z" class="colore6ecff svgShape"></path><rect width="10" height="5" x="29" y="13" fill="#d0dbf7" rx="2.5" ry="2.5" class="colord0dbf7 svgShape"></rect><path fill="#061826" d="M24.958,24.7129l-1.9311-6.4365A5.9632,5.9632,0,0,0,17.28,14H6a5.0059,5.0059,0,0,0-5,5v6a1,1,0,0,0,1,1H24a1,1,0,0,0,.958-1.2871Z" class="color4294ff svgShape"></path><path fill="#e6ecff" d="M58,24H1V59a5,5,0,0,0,5,5H58a5,5,0,0,0,5-5V29A5,5,0,0,0,58,24Z" class="colore6ecff svgShape"></path><path fill="#061826" d="M50,45H14a6,6,0,0,0,0,12H50a6,6,0,0,0,0-12Z" class="color4294ff svgShape"></path><path fill="#6d60e9" d="M34.707 48.293a.9994.9994 0 00-1.414 0L32 49.5859 30.707 48.293a1 1 0 00-1.414 1.414L30.5859 51 29.293 52.293a1 1 0 101.414 1.414L32 52.4141l1.293 1.2929a1 1 0 001.414-1.414L33.4141 51l1.2929-1.293A.9994.9994 0 0034.707 48.293zM42.707 48.293a.9994.9994 0 00-1.414 0L40 49.5859 38.707 48.293a1 1 0 00-1.414 1.414L38.5859 51 37.293 52.293a1 1 0 101.414 1.414L40 52.4141l1.293 1.2929a1 1 0 001.414-1.414L41.4141 51l1.2929-1.293A.9994.9994 0 0042.707 48.293zM49.4141 51l1.2929-1.293a1 1 0 00-1.414-1.414L48 49.5859 46.707 48.293a1 1 0 00-1.414 1.414L46.5859 51 45.293 52.293a1 1 0 101.414 1.414L48 52.4141l1.293 1.2929a1 1 0 001.414-1.414zM26.707 48.293a.9994.9994 0 00-1.414 0L24 49.5859 22.707 48.293a1 1 0 00-1.414 1.414L22.5859 51 21.293 52.293a1 1 0 101.414 1.414L24 52.4141l1.293 1.2929a1 1 0 001.414-1.414L25.4141 51l1.2929-1.293A.9994.9994 0 0026.707 48.293zM18.707 48.293a.9994.9994 0 00-1.414 0L16 49.5859 14.707 48.293a1 1 0 00-1.414 1.414L14.5859 51 13.293 52.293a1 1 0 101.414 1.414L16 52.4141l1.293 1.2929a1 1 0 001.414-1.414L17.4141 51l1.2929-1.293A.9994.9994 0 0018.707 48.293z" class="color376cfb svgShape"></path><path fill="#061826" d="M53,17a5.0059,5.0059,0,0,0-5,5v8H43a1,1,0,0,0-1,1v4a1,1,0,0,0,1,1h6a5.0059,5.0059,0,0,0,5-5V18A1,1,0,0,0,53,17Z" class="color4294ff svgShape"></path><path fill="#6d60e9" d="M43,38a1,1,0,0,1-1-1V29a1,1,0,0,1,2,0v8A1,1,0,0,1,43,38Z" class="color376cfb svgShape"></path></g></svg></g></svg>