<svg width="64" height="64" viewBox="0 0 64 64" fill="none" xmlns="http://www.w3.org/2000/svg">
<path d="M47.94 34.26H35.17C34.8036 36.5761 34.6031 38.9154 34.57 41.26H48.57C48.5267 38.9146 48.3162 36.5754 47.94 34.26V34.26Z" fill="#6E60E7"/>
<path d="M49.62 32.26H60C58.4485 29.402 56.2544 26.9433 53.5906 25.0778C50.9269 23.2123 47.8663 21.991 44.65 21.51C46.86 23.38 48.62 27.21 49.62 32.26Z" fill="#6E60E7"/>
<path d="M49.62 52.26C48.62 57.26 46.86 61.13 44.62 63C47.8407 62.5245 50.9067 61.3067 53.5759 59.4427C56.2451 57.5788 58.4443 55.1198 60 52.26H49.62Z" fill="#6E60E7"/>
<path d="M35.54 52.26C36.86 58.43 39.29 62.26 41.54 62.26C43.79 62.26 46.23 58.43 47.54 52.26H35.54Z" fill="#6E60E7"/>
<path d="M50.53 41.26H62.53C62.424 38.8553 61.903 36.4871 60.99 34.26H50C50.3338 36.5788 50.5108 38.9174 50.53 41.26V41.26Z" fill="#6E60E7"/>
<path d="M61 50.26C61.9107 48.0321 62.4316 45.6643 62.54 43.26H50.54C50.5101 45.6032 50.323 47.9418 49.98 50.26H61Z" fill="#6E60E7"/>
<path d="M48.53 43.26H34.53C34.564 45.6046 34.7645 47.9438 35.13 50.26H47.94C48.3019 47.9435 48.4991 45.6043 48.53 43.26V43.26Z" fill="#6E60E7"/>
<path d="M47.56 32.26C46.24 26.08 43.81 22.26 41.56 22.26C39.31 22.26 36.87 26.08 35.56 32.26H47.56Z" fill="#6E60E7"/>
<path d="M22.14 34.26C21.227 36.4871 20.706 38.8553 20.6 41.26H32.6C32.6291 38.9167 32.8162 36.5781 33.16 34.26H22.14Z" fill="#6E60E7"/>
<path d="M33.48 52.26H23.09C24.6437 55.1174 26.8399 57.5748 29.5054 59.4386C32.1709 61.3024 35.2329 62.5216 38.45 63C36.24 61.13 34.48 57.3 33.48 52.26Z" fill="#6E60E7"/>
<path d="M33.48 32.26C34.48 27.26 36.24 23.38 38.48 21.51C35.2566 21.9851 32.188 23.2038 29.5169 25.0696C26.8458 26.9353 24.6455 29.3971 23.09 32.26H33.48Z" fill="#6E60E7"/>
<path d="M32.57 43.26H20.57C20.6784 45.6643 21.1993 48.0321 22.11 50.26H33.11C32.7737 47.9414 32.5933 45.6028 32.57 43.26V43.26Z" fill="#6E60E7"/>
<path d="M40.5 1H4.5C3.70435 1 2.94129 1.31607 2.37868 1.87868C1.81607 2.44129 1.5 3.20435 1.5 4V40C1.5 40.7956 1.81607 41.5587 2.37868 42.1213C2.94129 42.6839 3.70435 43 4.5 43H40.5C41.2956 43 42.0587 42.6839 42.6213 42.1213C43.1839 41.5587 43.5 40.7956 43.5 40V4C43.5 3.20435 43.1839 2.44129 42.6213 1.87868C42.0587 1.31607 41.2956 1 40.5 1V1ZM41.5 4V7H18.12L16.12 3H40.5C40.7652 3 41.0196 3.10536 41.2071 3.29289C41.3946 3.48043 41.5 3.73478 41.5 4ZM4.5 3H13.88L15.88 7H3.5V4C3.5 3.73478 3.60536 3.48043 3.79289 3.29289C3.98043 3.10536 4.23478 3 4.5 3ZM40.5 41H4.5C4.23478 41 3.98043 40.8946 3.79289 40.7071C3.60536 40.5196 3.5 40.2652 3.5 40V9H41.5V40C41.5 40.2652 41.3946 40.5196 41.2071 40.7071C41.0196 40.8946 40.7652 41 40.5 41Z" fill="#151A6A"/>
<path d="M35.5 14H29.5C28.7044 14 27.9413 14.3161 27.3787 14.8787C26.8161 15.4413 26.5 16.2044 26.5 17V33C26.5 33.7956 26.8161 34.5587 27.3787 35.1213C27.9413 35.6839 28.7044 36 29.5 36H35.5C36.2956 36 37.0587 35.6839 37.6213 35.1213C38.1839 34.5587 38.5 33.7956 38.5 33V17C38.5 16.2044 38.1839 15.4413 37.6213 14.8787C37.0587 14.3161 36.2956 14 35.5 14ZM36.5 33C36.5 33.2652 36.3946 33.5196 36.2071 33.7071C36.0196 33.8946 35.7652 34 35.5 34H29.5C29.2348 34 28.9804 33.8946 28.7929 33.7071C28.6054 33.5196 28.5 33.2652 28.5 33V17C28.5 16.7348 28.6054 16.4804 28.7929 16.2929C28.9804 16.1054 29.2348 16 29.5 16H35.5C35.7652 16 36.0196 16.1054 36.2071 16.2929C36.3946 16.4804 36.5 16.7348 36.5 17V33Z" fill="#151A6A"/>
<path d="M22.5 15H7.5C7.23478 15 6.98043 15.1054 6.79289 15.2929C6.60536 15.4804 6.5 15.7348 6.5 16C6.5 16.2652 6.60536 16.5196 6.79289 16.7071C6.98043 16.8946 7.23478 17 7.5 17H22.5C22.7652 17 23.0196 16.8946 23.2071 16.7071C23.3946 16.5196 23.5 16.2652 23.5 16C23.5 15.7348 23.3946 15.4804 23.2071 15.2929C23.0196 15.1054 22.7652 15 22.5 15Z" fill="#151A6A"/>
<path d="M22.5 21H7.5C7.23478 21 6.98043 21.1054 6.79289 21.2929C6.60536 21.4804 6.5 21.7348 6.5 22C6.5 22.2652 6.60536 22.5196 6.79289 22.7071C6.98043 22.8946 7.23478 23 7.5 23H22.5C22.7652 23 23.0196 22.8946 23.2071 22.7071C23.3946 22.5196 23.5 22.2652 23.5 22C23.5 21.7348 23.3946 21.4804 23.2071 21.2929C23.0196 21.1054 22.7652 21 22.5 21Z" fill="#151A6A"/>
<path d="M22.5 27H7.5C7.23478 27 6.98043 27.1054 6.79289 27.2929C6.60536 27.4804 6.5 27.7348 6.5 28C6.5 28.2652 6.60536 28.5196 6.79289 28.7071C6.98043 28.8946 7.23478 29 7.5 29H22.5C22.7652 29 23.0196 28.8946 23.2071 28.7071C23.3946 28.5196 23.5 28.2652 23.5 28C23.5 27.7348 23.3946 27.4804 23.2071 27.2929C23.0196 27.1054 22.7652 27 22.5 27Z" fill="#151A6A"/>
<path d="M22.5 33H7.5C7.23478 33 6.98043 33.1054 6.79289 33.2929C6.60536 33.4804 6.5 33.7348 6.5 34C6.5 34.2652 6.60536 34.5196 6.79289 34.7071C6.98043 34.8946 7.23478 35 7.5 35H22.5C22.7652 35 23.0196 34.8946 23.2071 34.7071C23.3946 34.5196 23.5 34.2652 23.5 34C23.5 33.7348 23.3946 33.4804 23.2071 33.2929C23.0196 33.1054 22.7652 33 22.5 33Z" fill="#151A6A"/>
</svg>
