<svg id="SvgjsSvg1137" width="288" height="288" xmlns="http://www.w3.org/2000/svg" version="1.1" xmlns:xlink="http://www.w3.org/1999/xlink" xmlns:svgjs="http://svgjs.com/svgjs"><defs id="SvgjsDefs1138"></defs><g id="SvgjsG1139"><svg xmlns="http://www.w3.org/2000/svg" viewBox="0 0 32 32" width="288" height="288"><g data-name="Layer 61" fill="#000000" class="color000 svgShape"><path fill="#ffffff" d="M10,20a1,1,0,0,1-1-.8L6.66,7.41A3,3,0,0,0,3.72,5H2A1,1,0,0,1,2,3H3.72a5,5,0,0,1,4.9,4L11,18.8A1,1,0,0,1,10.2,20Z" class="color101820 svgShape"></path><path fill="#ffffff" d="M11 27H9.14a4.14 4.14 0 01-.38-8.26l18.41-1.67L28.78 9H8A1 1 0 018 7H30a1 1 0 01.77.37A1 1 0 0131 8.2l-2 10a1 1 0 01-.89.8L8.94 20.74A2.13 2.13 0 009.14 25H11a1 1 0 010 2zM26 30a4 4 0 114-4A4 4 0 0126 30zm0-6a2 2 0 102 2A2 2 0 0026 24z" class="color101820 svgShape"></path><path fill="#ffffff" d="M14,30a4,4,0,1,1,4-4A4,4,0,0,1,14,30Zm0-6a2,2,0,1,0,2,2A2,2,0,0,0,14,24Z" class="color101820 svgShape"></path><path fill="#ffffff" d="M23,27H17a1,1,0,0,1,0-2h6a1,1,0,0,1,0,2Z" class="color101820 svgShape"></path></g></svg></g></svg>