<svg width="30" height="28" viewBox="0 0 30 28" fill="none" xmlns="http://www.w3.org/2000/svg">
<path d="M9.375 17.5C9.15567 17.5041 8.94174 17.4363 8.77045 17.3084C8.59915 17.1805 8.48133 17.0006 8.4375 16.8L6.24375 6.48375C6.11598 5.88922 5.77162 5.35431 5.26917 4.9699C4.76673 4.58549 4.13718 4.37529 3.4875 4.375H1.875C1.62636 4.375 1.3879 4.28281 1.21209 4.11872C1.03627 3.95462 0.9375 3.73206 0.9375 3.5C0.9375 3.26794 1.03627 3.04538 1.21209 2.88128C1.3879 2.71719 1.62636 2.625 1.875 2.625H3.4875C4.56811 2.62479 5.61561 2.97306 6.45272 3.61086C7.28983 4.24865 7.86513 5.13681 8.08125 6.125L10.3125 16.45C10.3397 16.5651 10.3418 16.6841 10.3185 16.7999C10.2953 16.9158 10.2472 17.026 10.1771 17.1241C10.1071 17.2222 10.0165 17.306 9.91091 17.3706C9.8053 17.4352 9.68679 17.4792 9.5625 17.5H9.375Z" fill="white"/>
<path d="M10.3125 23.625H8.56876C7.57444 23.6193 6.62041 23.2575 5.90347 22.6145C5.18652 21.9715 4.76135 21.0961 4.71565 20.169C4.66996 19.242 5.00722 18.3339 5.65788 17.6321C6.30854 16.9304 7.22296 16.4884 8.21251 16.3975L25.4719 14.9362L26.9813 7.875H7.50001C7.25137 7.875 7.01291 7.78281 6.8371 7.61872C6.66128 7.45462 6.56251 7.23206 6.56251 7C6.56251 6.76794 6.66128 6.54538 6.8371 6.38128C7.01291 6.21719 7.25137 6.125 7.50001 6.125H28.125C28.2635 6.12585 28.4 6.15533 28.5248 6.21131C28.6497 6.26729 28.7596 6.34838 28.8469 6.44875C28.9385 6.54716 29.0054 6.66344 29.0428 6.7891C29.0801 6.91475 29.0868 7.0466 29.0625 7.175L27.1875 15.925C27.1479 16.1101 27.0453 16.2782 26.8949 16.4043C26.7445 16.5305 26.5545 16.6079 26.3531 16.625L8.38126 18.1475C7.85166 18.1707 7.35362 18.3893 6.99672 18.7553C6.63981 19.1212 6.45327 19.6045 6.47814 20.0987C6.503 20.593 6.73723 21.0579 7.1293 21.391C7.52137 21.7241 8.03916 21.8982 8.56876 21.875H10.3125C10.5611 21.875 10.7996 21.9672 10.9754 22.1313C11.1512 22.2954 11.25 22.5179 11.25 22.75C11.25 22.9821 11.1512 23.2046 10.9754 23.3687C10.7996 23.5328 10.5611 23.625 10.3125 23.625ZM24.375 26.25C23.6333 26.25 22.9083 26.0447 22.2916 25.6601C21.6749 25.2756 21.1943 24.7289 20.9105 24.0894C20.6266 23.4499 20.5524 22.7461 20.6971 22.0672C20.8418 21.3883 21.1989 20.7646 21.7234 20.2751C22.2478 19.7856 22.916 19.4523 23.6434 19.3173C24.3708 19.1822 25.1248 19.2515 25.8101 19.5164C26.4953 19.7813 27.081 20.2299 27.493 20.8055C27.9051 21.3811 28.125 22.0578 28.125 22.75C28.125 23.6783 27.7299 24.5685 27.0267 25.2249C26.3234 25.8813 25.3696 26.25 24.375 26.25ZM24.375 21C24.0042 21 23.6416 21.1026 23.3333 21.2949C23.025 21.4872 22.7846 21.7605 22.6427 22.0803C22.5008 22.4001 22.4637 22.7519 22.536 23.0914C22.6084 23.4309 22.787 23.7427 23.0492 23.9874C23.3114 24.2322 23.6455 24.3989 24.0092 24.4664C24.3729 24.5339 24.7499 24.4992 25.0925 24.3668C25.4351 24.2343 25.728 24.01 25.934 23.7222C26.14 23.4345 26.25 23.0961 26.25 22.75C26.25 22.2859 26.0525 21.8408 25.7008 21.5126C25.3492 21.1844 24.8723 21 24.375 21Z" fill="white"/>
<path d="M13.125 26.25C12.3833 26.25 11.6583 26.0447 11.0416 25.6601C10.4249 25.2756 9.94428 24.7289 9.66045 24.0894C9.37662 23.4499 9.30236 22.7461 9.44706 22.0672C9.59175 21.3883 9.9489 20.7646 10.4734 20.2751C10.9978 19.7856 11.666 19.4523 12.3934 19.3173C13.1208 19.1822 13.8748 19.2515 14.5601 19.5164C15.2453 19.7813 15.831 20.2299 16.243 20.8055C16.6551 21.3811 16.875 22.0578 16.875 22.75C16.875 23.6783 16.4799 24.5685 15.7767 25.2249C15.0734 25.8813 14.1196 26.25 13.125 26.25ZM13.125 21C12.7542 21 12.3917 21.1026 12.0833 21.2949C11.775 21.4872 11.5346 21.7605 11.3927 22.0803C11.2508 22.4001 11.2137 22.7519 11.286 23.0914C11.3584 23.4309 11.537 23.7427 11.7992 23.9874C12.0614 24.2322 12.3955 24.3989 12.7592 24.4664C13.1229 24.5339 13.4999 24.4992 13.8425 24.3668C14.1851 24.2343 14.478 24.01 14.684 23.7223C14.89 23.4345 15 23.0961 15 22.75C15 22.2859 14.8025 21.8408 14.4508 21.5126C14.0992 21.1844 13.6223 21 13.125 21Z" fill="white"/>
<path d="M21.5625 23.625H15.9375C15.6889 23.625 15.4504 23.5328 15.2746 23.3687C15.0988 23.2046 15 22.9821 15 22.75C15 22.5179 15.0988 22.2954 15.2746 22.1313C15.4504 21.9672 15.6889 21.875 15.9375 21.875H21.5625C21.8111 21.875 22.0496 21.9672 22.2254 22.1313C22.4012 22.2954 22.5 22.5179 22.5 22.75C22.5 22.9821 22.4012 23.2046 22.2254 23.3687C22.0496 23.5328 21.8111 23.625 21.5625 23.625Z" fill="white"/>
</svg>
