<svg width="57" height="57" viewBox="0 0 57 57" fill="none" xmlns="http://www.w3.org/2000/svg">
<path d="M17.8125 35.625C17.3958 35.6334 16.9893 35.4954 16.6638 35.235C16.3384 34.9747 16.1145 34.6084 16.0313 34.2L11.8631 13.1991C11.6204 11.9888 10.9661 10.8998 10.0114 10.1173C9.05678 9.33475 7.86065 8.90683 6.62625 8.90625H3.5625C3.09008 8.90625 2.63702 8.71858 2.30297 8.38453C1.96892 8.05048 1.78125 7.59742 1.78125 7.125C1.78125 6.65258 1.96892 6.19952 2.30297 5.86547C2.63702 5.53142 3.09008 5.34375 3.5625 5.34375H6.62625C8.67941 5.34333 10.6697 6.0523 12.2602 7.35067C13.8507 8.64905 14.9437 10.4571 15.3544 12.4687L19.5938 33.4875C19.6455 33.7218 19.6494 33.9641 19.6052 34.1999C19.561 34.4357 19.4696 34.6601 19.3365 34.8598C19.2034 35.0594 19.0314 35.2301 18.8307 35.3616C18.6301 35.4931 18.4049 35.5827 18.1688 35.625H17.8125Z" fill="#6E60E7"/>
<path d="M19.6418 47.625H16.3287C14.4395 47.6133 12.6268 46.877 11.2646 45.5679C9.90245 44.2588 9.09462 42.4769 9.0078 40.5897C8.92098 38.7024 9.56178 36.8538 10.798 35.4252C12.0343 33.9966 13.7717 33.097 15.6518 32.9119L48.4446 29.9372L51.3124 15.5625H14.2981C13.8257 15.5625 13.3726 15.3748 13.0385 15.0408C12.7045 14.7067 12.5168 14.2537 12.5168 13.7812C12.5168 13.3088 12.7045 12.8558 13.0385 12.5217C13.3726 12.1877 13.8257 12 14.2981 12H53.4856C53.7487 12.0017 54.0081 12.0617 54.2453 12.1757C54.4824 12.2897 54.6914 12.4547 54.8571 12.6591C55.0312 12.8594 55.1584 13.0961 55.2293 13.3519C55.3002 13.6077 55.313 13.8761 55.2668 14.1375L51.7043 31.95C51.6291 32.3267 51.434 32.669 51.1483 32.9258C50.8626 33.1826 50.5016 33.3402 50.119 33.375L15.9725 36.4744C14.9662 36.5216 14.0199 36.9667 13.3418 37.7116C12.6637 38.4565 12.3093 39.4403 12.3565 40.4466C12.4038 41.4528 12.8488 42.3991 13.5937 43.0772C14.3387 43.7553 15.3225 44.1097 16.3287 44.0625H19.6418C20.1142 44.0625 20.5673 44.2502 20.9014 44.5842C21.2354 44.9183 21.4231 45.3713 21.4231 45.8438C21.4231 46.3162 21.2354 46.7692 20.9014 47.1033C20.5673 47.4373 20.1142 47.625 19.6418 47.625ZM46.3606 52.9688C44.9514 52.9688 43.5738 52.5509 42.4021 51.768C41.2304 50.9851 40.3172 49.8723 39.7779 48.5704C39.2386 47.2684 39.0975 45.8358 39.3725 44.4537C39.6474 43.0716 40.326 41.8021 41.3224 40.8056C42.3189 39.8092 43.5884 39.1306 44.9705 38.8557C46.3527 38.5807 47.7853 38.7218 49.0872 39.2611C50.3891 39.8004 51.5019 40.7136 52.2848 41.8853C53.0677 43.057 53.4856 44.4346 53.4856 45.8438C53.4856 47.7334 52.7349 49.5457 51.3987 50.8819C50.0625 52.2181 48.2502 52.9688 46.3606 52.9688ZM46.3606 42.2812C45.656 42.2812 44.9672 42.4902 44.3813 42.8816C43.7955 43.2731 43.3389 43.8295 43.0692 44.4804C42.7996 45.1314 42.7291 45.8477 42.8665 46.5388C43.004 47.2298 43.3433 47.8646 43.8415 48.3628C44.3397 48.861 44.9745 49.2003 45.6656 49.3378C46.3566 49.4753 47.0729 49.4047 47.7239 49.1351C48.3748 48.8654 48.9312 48.4088 49.3227 47.823C49.7141 47.2371 49.9231 46.5483 49.9231 45.8438C49.9231 44.8989 49.5477 43.9928 48.8796 43.3247C48.2115 42.6566 47.3054 42.2812 46.3606 42.2812Z" fill="#6E60E7"/>
<path d="M24.9375 53.4375C23.5283 53.4375 22.1508 53.0196 20.9791 52.2367C19.8074 51.4538 18.8941 50.341 18.3549 49.0391C17.8156 47.7372 17.6745 46.3046 17.9494 44.9225C18.2243 43.5404 18.9029 42.2708 19.8994 41.2744C20.8958 40.2779 22.1654 39.5993 23.5475 39.3244C24.9296 39.0495 26.3622 39.1906 27.6641 39.7299C28.966 40.2691 30.0788 41.1824 30.8617 42.3541C31.6446 43.5258 32.0625 44.9033 32.0625 46.3125C32.0625 48.2022 31.3118 50.0144 29.9756 51.3506C28.6394 52.6868 26.8272 53.4375 24.9375 53.4375ZM24.9375 42.75C24.2329 42.75 23.5441 42.9589 22.9583 43.3504C22.3724 43.7418 21.9158 44.2982 21.6462 44.9492C21.3765 45.6002 21.306 46.3165 21.4435 47.0075C21.5809 47.6986 21.9202 48.3333 22.4184 48.8316C22.9167 49.3298 23.5514 49.6691 24.2425 49.8066C24.9336 49.944 25.6499 49.8735 26.3008 49.6038C26.9518 49.3342 27.5082 48.8776 27.8996 48.2917C28.2911 47.7059 28.5 47.0171 28.5 46.3125C28.5 45.3677 28.1247 44.4615 27.4566 43.7934C26.7885 43.1253 25.8823 42.75 24.9375 42.75Z" fill="#6E60E7"/>
<path d="M40.9688 48.0938H30.2812C29.8088 48.0938 29.3558 47.9061 29.0217 47.572C28.6877 47.238 28.5 46.7849 28.5 46.3125C28.5 45.8401 28.6877 45.387 29.0217 45.053C29.3558 44.7189 29.8088 44.5312 30.2812 44.5312H40.9688C41.4412 44.5312 41.8942 44.7189 42.2283 45.053C42.5623 45.387 42.75 45.8401 42.75 46.3125C42.75 46.7849 42.5623 47.238 42.2283 47.572C41.8942 47.9061 41.4412 48.0938 40.9688 48.0938Z" fill="#6E60E7"/>
<path d="M22.5 14L25.5 32" stroke="#6E60E7" stroke-width="14"/>
<path d="M33.2188 26L32 20.4138L45 20L43.7812 24.9655L33.2188 26Z" stroke="#6E60E7" stroke-width="14"/>
<path d="M20 17L30 32" stroke="#6E60E7" stroke-width="14"/>
<circle cx="25" cy="46" r="4" fill="#6E60E7"/>
<circle cx="45.5" cy="45.5" r="4.5" fill="#6E60E7"/>
</svg>
