<svg width="64" height="64" viewBox="0 0 64 64" fill="none" xmlns="http://www.w3.org/2000/svg">
<path d="M33.59 35.16C29.59 37.16 28.05 39.55 25.41 42C28.09 44.48 29.62 46.83 33.59 48.84C32.0125 46.9095 31.1508 44.493 31.1508 42C31.1508 39.5069 32.0125 37.0905 33.59 35.16V35.16Z" fill="#6E60E7"/>
<path d="M42 33.15C40.2496 33.15 38.5386 33.6691 37.0832 34.6415C35.6278 35.614 34.4935 36.9961 33.8237 38.6133C33.1538 40.2304 32.9786 42.0098 33.32 43.7266C33.6615 45.4433 34.5044 47.0202 35.7421 48.2579C36.9798 49.4956 38.5567 50.3385 40.2734 50.68C41.9902 51.0215 43.7696 50.8462 45.3867 50.1764C47.0039 49.5065 48.3861 48.3722 49.3585 46.9168C50.331 45.4614 50.85 43.7504 50.85 42C50.8473 39.6537 49.9141 37.4042 48.255 35.7451C46.5958 34.0859 44.3464 33.1527 42 33.15V33.15ZM42 47C41.0111 47 40.0444 46.7068 39.2221 46.1574C38.3999 45.608 37.759 44.8271 37.3806 43.9134C37.0022 42.9998 36.9031 41.9945 37.0961 41.0246C37.289 40.0547 37.7652 39.1638 38.4645 38.4645C39.1637 37.7652 40.0546 37.289 41.0245 37.0961C41.9945 36.9032 42.9998 37.0022 43.9134 37.3806C44.827 37.7591 45.6079 38.3999 46.1573 39.2222C46.7068 40.0444 47 41.0111 47 42C47 43.3261 46.4732 44.5979 45.5355 45.5356C44.5979 46.4732 43.3261 47 42 47Z" fill="#6E60E7"/>
<path d="M42 45.03C43.6734 45.03 45.03 43.6734 45.03 42C45.03 40.3265 43.6734 38.97 42 38.97C40.3266 38.97 38.97 40.3265 38.97 42C38.97 43.6734 40.3266 45.03 42 45.03Z" fill="#6E60E7"/>
<path d="M42 21C37.8466 21 33.7865 22.2316 30.333 24.5391C26.8796 26.8466 24.188 30.1264 22.5985 33.9636C21.0091 37.8009 20.5932 42.0233 21.4035 46.0969C22.2138 50.1705 24.2139 53.9123 27.1508 56.8492C30.0877 59.7861 33.8295 61.7862 37.9031 62.5965C41.9767 63.4068 46.1991 62.9909 50.0364 61.4015C53.8736 59.812 57.1533 57.1204 59.4609 53.667C61.7684 50.2135 63 46.1534 63 42C63 36.4305 60.7875 31.089 56.8492 27.1508C52.911 23.2125 47.5695 21 42 21ZM42 52.85C30.64 52.85 25.75 44.59 23.29 42.71C23.1963 42.617 23.1219 42.5064 23.0711 42.3846C23.0203 42.2627 22.9942 42.132 22.9942 42C22.9942 41.868 23.0203 41.7373 23.0711 41.6154C23.1219 41.4936 23.1963 41.383 23.29 41.29C25.78 39.38 30.75 31.15 42 31.15C53.25 31.15 58.25 39.41 60.71 41.29C60.8037 41.383 60.8781 41.4936 60.9289 41.6154C60.9797 41.7373 61.0058 41.868 61.0058 42C61.0058 42.132 60.9797 42.2627 60.9289 42.3846C60.8781 42.5064 60.8037 42.617 60.71 42.71C58.22 44.62 53.25 52.85 42 52.85Z" fill="#6E60E7"/>
<path d="M50.41 35.16C51.9875 37.0905 52.8492 39.5069 52.8492 42C52.8492 44.493 51.9875 46.9095 50.41 48.84C54.41 46.84 55.95 44.45 58.59 42C55.91 39.52 54.38 37.17 50.41 35.16Z" fill="#6E60E7"/>
<path d="M43 6C43 4.67392 42.4732 3.40215 41.5355 2.46447C40.5979 1.52679 39.3261 1 38 1H6C4.76005 0.998756 3.56387 1.45828 2.64367 2.28938C1.72347 3.12047 1.1449 4.26383 1.02029 5.49751C0.895675 6.73118 1.2339 7.96715 1.96931 8.96548C2.70472 9.9638 3.78485 10.6533 5 10.9V25C5 29.5087 6.79107 33.8327 9.97919 37.0208C13.1673 40.2089 17.4913 42 22 42C26.5087 42 30.8327 40.2089 34.0208 37.0208C37.2089 33.8327 39 29.5087 39 25V10.9C40.1294 10.6695 41.1444 10.0558 41.8733 9.16291C42.6022 8.26999 43.0002 7.15266 43 6V6ZM37 25C37 28.9782 35.4196 32.7936 32.6066 35.6066C29.7936 38.4197 25.9782 40 22 40C18.0218 40 14.2064 38.4197 11.3934 35.6066C8.58035 32.7936 7 28.9782 7 25V11H37V25ZM38 9H6C5.20435 9 4.44129 8.68393 3.87868 8.12132C3.31607 7.55871 3 6.79565 3 6C3 5.20435 3.31607 4.44129 3.87868 3.87868C4.44129 3.31607 5.20435 3 6 3H38C38.7956 3 39.5587 3.31607 40.1213 3.87868C40.6839 4.44129 41 5.20435 41 6C41 6.79565 40.6839 7.55871 40.1213 8.12132C39.5587 8.68393 38.7956 9 38 9Z" fill="#151A6A"/>
<path d="M22 35C23.9778 35 25.9112 34.4135 27.5557 33.3147C29.2002 32.2159 30.4819 30.6541 31.2388 28.8268C31.9957 26.9996 32.1937 24.9889 31.8079 23.0491C31.422 21.1093 30.4696 19.3275 29.0711 17.9289C27.6725 16.5304 25.8907 15.578 23.9509 15.1922C22.0111 14.8063 20.0004 15.0043 18.1732 15.7612C16.3459 16.5181 14.7841 17.7998 13.6853 19.4443C12.5865 21.0888 12 23.0222 12 25C12 27.6522 13.0536 30.1957 14.9289 32.0711C16.8043 33.9464 19.3478 35 22 35ZM22 17C23.5823 17 25.129 17.4692 26.4446 18.3482C27.7602 19.2273 28.7855 20.4767 29.391 21.9385C29.9965 23.4003 30.155 25.0089 29.8463 26.5607C29.5376 28.1126 28.7757 29.538 27.6569 30.6569C26.538 31.7757 25.1126 32.5376 23.5607 32.8463C22.0089 33.155 20.4003 32.9965 18.9385 32.391C17.4767 31.7855 16.2273 30.7602 15.3482 29.4446C14.4692 28.129 14 26.5823 14 25C14 22.8783 14.8429 20.8434 16.3431 19.3431C17.8434 17.8429 19.8783 17 22 17V17Z" fill="#151A6A"/>
<path d="M22 21.5C21.3078 21.5 20.6311 21.7053 20.0555 22.0899C19.4799 22.4744 19.0313 23.0211 18.7664 23.6606C18.5015 24.3001 18.4322 25.0039 18.5673 25.6828C18.7023 26.3617 19.0356 26.9854 19.5251 27.4749C20.0146 27.9644 20.6383 28.2977 21.3172 28.4327C21.9961 28.5678 22.6998 28.4985 23.3394 28.2336C23.9789 27.9687 24.5256 27.5201 24.9101 26.9445C25.2947 26.3689 25.5 25.6922 25.5 25C25.5 24.0717 25.1313 23.1815 24.4749 22.5251C23.8185 21.8687 22.9283 21.5 22 21.5V21.5ZM22 26.5C21.7033 26.5 21.4133 26.412 21.1666 26.2472C20.92 26.0824 20.7277 25.8481 20.6142 25.574C20.5006 25.2999 20.4709 24.9983 20.5288 24.7074C20.5867 24.4164 20.7296 24.1491 20.9393 23.9393C21.1491 23.7296 21.4164 23.5867 21.7074 23.5288C21.9983 23.4709 22.2999 23.5007 22.574 23.6142C22.8481 23.7277 23.0824 23.92 23.2472 24.1666C23.412 24.4133 23.5 24.7033 23.5 25C23.5 25.3978 23.342 25.7794 23.0607 26.0607C22.7794 26.342 22.3978 26.5 22 26.5V26.5Z" fill="#151A6A"/>
</svg>
