<svg version="1.2" xmlns="http://www.w3.org/2000/svg" viewBox="0 0 300 300" width="300" height="300">
	<title>Layer</title>
	<style>
		.s0 { fill: #c8cde2 } 
		.s1 { fill: #f2f7fa } 
		.s2 { fill: #005478 } 
		.s3 { fill: #ffffff } 
		.s4 { fill: #73ca74 } 
		.s5 { fill: #f85976 } 
		.s6 { fill: #023248 } 
		.s7 { fill: #1483b5 } 
		.s8 { fill: #ffb64d } 
		.s9 { fill: #ffde95 } 
		.s10 { fill: #fdabab } 
		.s11 { fill: #f95a75 } 
		.s12 { fill: #576dfc } 
	</style>
	<g id="Layer">
		<g id="Layer">
			<path id="Layer" class="s0" d="m255.3 183.5c0 1.2-0.8 2.4-2.3 3.3l-79.6 45.9c-3.1 1.7-8.1 1.7-11.2-0.1l-116.4-67.3c-1.5-0.9-2.3-2-2.3-3.2v-4.1c0 1.2 0.8 2.3 2.3 3.2l116.4 67.4c3.1 1.8 8.1 1.8 11.2 0l79.6-45.9c1.5-0.9 2.3-2.1 2.3-3.3z"/>
			<g id="Layer">
				<path id="Layer" class="s1" d="m253 182.7l-79.6 45.9c-3.1 1.8-8.2 1.8-11.2 0l-116.4-67.4c-3-1.8-3-4.7 0.1-6.5l79.6-45.8c3.1-1.8 8.1-1.8 11.2 0l116.3 67.3c3.1 1.8 3.1 4.7 0 6.5z"/>
			</g>
			<g id="Layer">
				<path id="Layer" class="s2" d="m245.4 176.1l-85 48.9c-0.5 0.3-1 0.3-1.4 0l-111.1-64.4c-0.9-0.5-0.9-1.8 0-2.4l85-48.9c0.5-0.3 1-0.3 1.4 0l111.1 64.3c0.9 0.6 0.9 1.9 0 2.5z"/>
				<path id="Layer" fill-rule="evenodd" class="s3" d="m159.7 225.7q-0.5 0-1-0.2l-111-64.4c-0.6-0.4-1-1-1-1.7 0-0.6 0.4-1.3 1-1.6l85-49c0.6-0.3 1.3-0.3 1.9 0l111 64.4c0.6 0.4 1 1 1 1.7 0 0.6-0.4 1.3-1 1.6l-85 49q-0.4 0.2-0.9 0.2zm-26.1-116.1q-0.2 0-0.4 0.1l-85 49c-0.3 0.1-0.5 0.4-0.5 0.7 0 0.4 0.2 0.6 0.5 0.8l111 64.4c0.3 0.2 0.7 0.2 0.9 0l85-49c0.3-0.1 0.5-0.4 0.5-0.7 0-0.4-0.2-0.7-0.5-0.8l-111-64.4q-0.2-0.1-0.5-0.1z"/>
			</g>
			<g id="Layer">
				<path id="Layer" class="s0" d="m194.3 193.4l-14.9 8.6c-0.3 0.2-0.8 0.2-1.2 0-0.3-0.2-0.3-0.5 0-0.6l14.9-8.6c0.4-0.2 0.9-0.2 1.2 0 0.3 0.2 0.3 0.4 0 0.6z"/>
				<path id="Layer" class="s0" d="m209.3 187.9l-14.9 8.6c-0.4 0.2-0.9 0.2-1.2 0-0.3-0.2-0.3-0.5 0-0.6l14.9-8.6c0.3-0.2 0.8-0.2 1.2 0 0.3 0.1 0.3 0.4 0 0.6z"/>
				<path id="Layer" class="s0" d="m171.8 204.8l4.4-2.5c0.3-0.2 0.8-0.2 1.1 0 0.3 0.2 0.3 0.5 0 0.7l-4.3 2.5c-0.3 0.1-0.9 0.1-1.2 0-0.3-0.2-0.3-0.5 0-0.7z"/>
				<path id="Layer" class="s0" d="m209.8 186.2l4.3-2.5c0.4-0.1 0.9-0.1 1.2 0 0.3 0.2 0.3 0.5 0 0.7l-4.4 2.5c-0.3 0.2-0.8 0.2-1.1 0-0.3-0.2-0.3-0.5 0-0.7z"/>
				<path id="Layer" class="s0" d="m195.3 191.6l16.3-9.4c0.3-0.2 0.8-0.2 1.1 0 0.4 0.2 0.4 0.5 0 0.7l-16.2 9.4c-0.4 0.2-0.9 0.2-1.2 0-0.3-0.2-0.3-0.5 0-0.7z"/>
				<path id="Layer" class="s0" d="m175.3 206.1l16.3-9.4c0.3-0.1 0.8-0.1 1.2 0 0.3 0.2 0.3 0.5 0 0.7l-16.3 9.4c-0.4 0.2-0.9 0.2-1.2 0-0.3-0.2-0.3-0.5 0-0.7z"/>
				<path id="Layer" class="s4" d="m192 181c-2-1.1-2-3 0-4.1l14.4-8.4c2-1.1 5.2-1.1 7.2 0 2 1.2 2 3 0 4.2l-14.4 8.3c-2 1.1-5.2 1.1-7.2 0z"/>
				<g id="Layer">
					<path id="Layer" class="s5" d="m149.8 204.4c-2-1.1-2-3 0-4.1l14.4-8.4c2-1.1 5.2-1.1 7.2 0.1 1.9 1.1 1.9 3 0 4.1l-14.5 8.3c-2 1.2-5.2 1.2-7.1 0z"/>
					<path id="Layer" fill-rule="evenodd" class="s3" d="m153.3 205.8c-1.3 0-2.7-0.3-3.8-0.9-1.1-0.7-1.7-1.6-1.7-2.6 0-0.9 0.6-1.8 1.7-2.5l14.4-8.3c2.2-1.2 5.6-1.2 7.7 0 1.1 0.7 1.7 1.6 1.7 2.5 0 1-0.6 1.9-1.7 2.5l-14.4 8.4q0 0 0 0c-1.1 0.6-2.5 0.9-3.9 0.9zm14.5-14.2c-1.2 0-2.5 0.3-3.4 0.8l-14.4 8.3c-0.8 0.5-1.2 1-1.2 1.6 0 0.6 0.4 1.2 1.2 1.7 1.8 1 4.8 1.1 6.7 0l14.4-8.3c0.8-0.5 1.2-1.1 1.2-1.7 0-0.6-0.4-1.2-1.2-1.6-0.9-0.5-2.1-0.8-3.3-0.8z"/>
				</g>
				<path id="Layer" class="s0" d="m195 188.3l4.4-2.5c0.3-0.2 0.8-0.2 1.1 0 0.3 0.2 0.3 0.5 0 0.7l-4.4 2.5c-0.3 0.2-0.8 0.2-1.1 0-0.3-0.2-0.3-0.5 0-0.7z"/>
				<path id="Layer" class="s0" d="m182.1 195.6l3.3-1.9c0.3-0.2 0.8-0.2 1.1 0 0.3 0.2 0.3 0.5 0 0.6l-3.3 1.9c-0.3 0.2-0.8 0.2-1.1 0-0.3-0.1-0.3-0.4 0-0.6z"/>
				<path id="Layer" class="s0" d="m188.1 192.2l4.3-2.5c0.4-0.1 0.9-0.1 1.2 0 0.3 0.2 0.3 0.5 0 0.7l-4.4 2.5c-0.3 0.2-0.8 0.2-1.1 0-0.3-0.2-0.3-0.5 0-0.7z"/>
				<path id="Layer" class="s0" d="m201.6 184.7l4.3-2.5c0.4-0.2 0.9-0.2 1.2 0 0.3 0.2 0.3 0.5 0 0.6l-4.4 2.5c-0.3 0.2-0.8 0.2-1.1 0-0.3-0.1-0.3-0.4 0-0.6z"/>
			</g>
		</g>
		<g id="Layer">
			<path id="Layer" class="s6" d="m146.6 179.2c20.4 0 37.1-8.5 38.2-19.2 0 0 0.1 2.1 0.1 2.5 0 11.2-17.1 20.4-38.3 20.4-21.1 0-38.2-9.2-38.2-20.4 0-0.4 0-3.6 0-3.6 0 11.2 17.1 20.3 38.2 20.3z"/>
			<path id="Layer" class="s7" d="m146.6 138.5c21.2 0 38.3 9.1 38.3 20.4 0 0.4-0.1 0.8-0.1 1.1-1.1 10.7-17.8 19.2-38.2 19.2-21.1 0-38.2-9.1-38.2-20.3 0-11.3 17.1-20.4 38.2-20.4z"/>
			<path id="Layer" class="s6" d="m146.6 155.7c6 0 10.8 1.9 10.8 4.2q0 0.1 0 0.2c-0.4 2.2-5 4-10.8 4-5.9 0-10.7-1.9-10.7-4.2 0-2.3 4.8-4.2 10.7-4.2z"/>
		</g>
		<g id="Layer">
			<g id="Layer">
				<path id="Layer" class="s8" d="m145.1 60.1c0 0-10.9 7-16.1 8.9-6.6 2.3-12.8-0.7-17.1-4.4q0-0.1 0-0.1l14.2-6.6c1 1.3 12.2 4.8 17.1 2.9q1-0.3 1.9-0.7z"/>
				<path id="Layer" fill-rule="evenodd" class="s3" d="m124.3 70.8c-5.7 0-10.4-3.2-13-5.4l-0.1-0.2c-0.3-0.2-0.4-0.5-0.3-0.9 0-0.3 0.2-0.6 0.5-0.7l14.3-6.6c0.4-0.2 0.9-0.1 1.2 0.3 1.1 1.1 11.6 4.2 16 2.6q0 0 0 0 0.9-0.3 1.8-0.7c0.5-0.3 1.1-0.1 1.3 0.4 0.3 0.4 0.1 1-0.3 1.3-0.5 0.3-11.1 7.1-16.4 9-1.7 0.6-3.4 0.9-5 0.9zm-10.6-6.1c3.3 2.5 8.8 5.5 15 3.3 2.8-1 7.3-3.6 10.8-5.7-5 0-11.3-1.8-13.5-3.2z"/>
			</g>
			<g id="Layer">
				<path id="Layer" class="s8" d="m166.4 131.8c-0.7 0.5-16.4 9.6-16.4 9.6 0.7-0.3 1.5-0.7 2.2-1.2 13.2-11.1 14.6-30.4 15.4-45.8q0-0.2 0-0.3l14.2-6.6q0 0.1 0.1 0.3c0 2.9-0.1 5.2-0.2 7.3-0.8 14.7-4.9 29.8-15.3 36.7z"/>
				<path id="Layer" fill-rule="evenodd" class="s3" d="m150 142.4c-0.4 0-0.7-0.2-0.9-0.5-0.3-0.5-0.1-1.1 0.4-1.3 0.6-0.4 1.4-0.9 2.2-1.4 13.2-11.2 14.2-31.5 14.9-44.9v-0.1c0-0.4 0.2-0.8 0.6-1l14.2-6.6c0.3-0.1 0.7-0.1 1 0.1 0.3 0.2 0.4 0.5 0.4 0.8l0.1 0.3c0 3-0.1 5.5-0.2 7.3-0.6 10.5-3.3 29.3-15.7 37.6-0.6 0.3-9.6 5.6-14.1 8.2q0 0-0.1 0c-0.7 0.6-1.4 1-2.2 1.3l-0.2 0.1q-0.2 0.1-0.4 0.1zm18.6-47.6c-0.6 12-1.6 29-10.8 40.9 4-2.3 7.8-4.5 8.1-4.7 11.6-7.7 14.2-25.9 14.8-36q0 0 0 0c0-1.5 0.2-3.5 0.2-5.9z"/>
			</g>
			<g id="Layer">
				<path id="Layer" class="s8" d="m167.6 94.1c-0.7 0-1.5-0.1-2.2-0.1-21.5-1.3-26.4-31.9-26.4-32l14.3-6.9c2.9 15.1 12.7 31.2 26.4 32.3q1 0.1 2.1 0.1z"/>
				<path id="Layer" fill-rule="evenodd" class="s3" d="m167.6 95.1q0 0 0 0-0.8 0-1.5-0.1-0.4 0-0.7 0c-21.9-1.4-27.1-31.5-27.4-32.8 0-0.4 0.2-0.9 0.6-1.1l14.3-6.9c0.3-0.1 0.6-0.1 0.9 0 0.3 0.2 0.5 0.4 0.5 0.8 2.9 14.8 12.5 30.4 25.5 31.4 0.7 0.1 1.4 0.1 2.1 0.1 0.4 0 0.8 0.4 0.9 0.8 0.1 0.5-0.1 0.9-0.5 1.1l-14.3 6.6q-0.2 0.1-0.4 0.1zm-27.4-32.5c0.9 4.8 6.6 29.2 25.3 30.4q0.4 0 0.8 0.1 0.5 0 1.1 0l10.6-4.9c-13.3-2.1-22.3-17.4-25.4-31.6z"/>
			</g>
			<g id="Layer">
				<g id="Layer">
					<path id="Layer" class="s9" d="m139 62c0.3 1.6 6.1 31.7 28.6 32.1 0 2.4 0.9 46.5-23.7 49-1.6-0.9-31.7-16.8-32-78.6 0.2 0.2 4.8 4.7 12 4.8 4.4 0 9.6-1.7 15.1-7.3z"/>
					<path id="Layer" fill-rule="evenodd" class="s3" d="m143.9 144.1q-0.2 0-0.5-0.2c-3.3-1.7-32.2-18.7-32.5-79.4-0.1-0.4 0.2-0.8 0.6-0.9 0.3-0.2 0.8-0.1 1 0.2 0.5 0.4 4.8 4.4 11.4 4.5q0.1 0 0.1 0c5 0 9.8-2.4 14.3-7 0.3-0.2 0.7-0.3 1-0.2 0.4 0.1 0.6 0.4 0.7 0.7 0.6 3.2 6.5 30.9 27.6 31.3 0.5 0 1 0.5 1 1 0.1 4.9 0.2 47.4-24.6 49.9q0 0.1-0.1 0.1zm-31-77.5c1 56.4 27 73.1 31.2 75.4 21.6-2.5 22.5-39.3 22.5-46.9-19.6-1.1-26.5-24-28.2-31.1-4.5 4.2-9.4 6.3-14.4 6.3q0 0-0.1 0c-5-0.1-8.9-2.2-11-3.7z"/>
				</g>
				<path id="Layer" class="s8" d="m159.8 118.7c-2.4 9-6.8 17.5-14.9 19.2-5.8-3.7-25.3-19.5-27.8-64.7q1.5 0.4 3.1 0.7c3 41.5 21 56.1 26.4 59.5 6.7-1.4 10.7-7.5 13.2-14.7z"/>
				<g id="Layer">
					<path id="Layer" fill-rule="evenodd" class="s3" d="m144.9 138.9q-0.3 0-0.5-0.2c-6-3.8-25.8-19.8-28.3-65.5 0-0.3 0.1-0.6 0.4-0.8 0.3-0.2 0.6-0.3 0.9-0.2q3.2 1 6.5 1.1h0.1c4 0 8-1.2 11.7-3.5 0.2-0.1 0.6-0.2 0.8-0.1 0.3 0.1 0.6 0.4 0.7 0.7 2.9 8.9 10.2 24.3 25.5 27.2 0.5 0.1 0.9 0.6 0.8 1-0.4 11.1-3 37-18.4 40.2q-0.1 0.1-0.2 0.1zm-26.7-64.4c2.7 42.8 20.8 58.3 26.9 62.3 13.3-3.3 15.9-26.5 16.4-37.4-15.1-3.3-22.5-18-25.8-27.3-3.8 2.1-7.7 3.2-11.7 3.2h-0.1q-2.9-0.1-5.7-0.8z"/>
				</g>
			</g>
			<g id="Layer">
				<path id="Layer" class="s7" d="m140.5 112.3c-0.4-0.2-0.6-0.6-0.7-1.1l-1-19.7c0-1.1 1.1-1.8 2.1-1.2l2 1.1c0.5 0.3 0.8 0.8 0.7 1.3l-1 18.5c0 1-1.2 1.6-2.1 1.1z"/>
				<path id="Layer" class="s7" d="m141.2 114.4c1.9 1 3.4 3.7 3.4 5.8 0 2.2-1.5 3-3.4 2-1.9-1.1-3.4-3.8-3.4-5.9 0-2.2 1.5-3 3.4-1.9z"/>
			</g>
		</g>
		<g id="Layer">
			<g id="Layer">
				<path id="Layer" class="s10" d="m97.2 104.4c0.5-0.2 3 2.4 4.1 1.1 1.2-1.4 2.8-3.7 3.2-3.5 0.5 0.4-1.1 3.4-2.3 4.7-1.1 1.3-1.9 2.2-1.7 2.3 0.4 0.4 2.8-1.1 2.9-0.8 0 1.2-2.6 3-4.7 2.9-2.2-0.2-8 11.4-10.6 13.2-3.2 2.3-6.3-3.4-5-4.3 3.6-2.9 10.1-8.7 10.8-10.5 0.5-1.1 1.1-4.2 3.3-5.1z"/>
				<path id="Layer" class="s3" d="m71.1 122.1c5.7-0.7 10.9-3 12.6-3.5 1.6-0.4 6 5.1 3.8 7-5.3 4.9-11.9 6.1-16.7 6.7-5.7 0.6-9.8 0.1-9.9-3.9-0.2-3.6 3.4-5.4 10.2-6.3z"/>
			</g>
			<g id="Layer">
				<g id="Layer">
					<g id="Layer">
						<path id="Layer" class="s9" d="m75.4 225.7c0.5 1.1-0.4 2.9-1.3 3.7-1.1 0.9-7.3 6.3-11.3 4.7-0.5-0.2-0.9-0.4-1.3-0.8-0.6-0.6 0.3-4.3 0.9-4.9 0.9-0.9 12.6-3.7 13-2.7z"/>
						<path id="Layer" class="s11" d="m68.3 225.2c2.8-1.1 6.5-1 7-0.1 0.5 1.1-1.1 3-2 3.9-2.7 2.3-8.1 4.8-10 4.1-0.5-0.1-1.4-0.5-1.8-0.9-0.6-0.6 0-2.9 0.7-3.6 0.7-0.7 4.6-2.9 6.1-3.4z"/>
					</g>
					<path id="Layer" class="s9" d="m66.9 231.6c-0.3 0-0.5-0.3-0.5-0.7 0-0.4 0.2-0.8 0.5-0.8 0.4 0 0.6 0.4 0.6 0.8 0 0.4-0.2 0.7-0.6 0.7z"/>
					<path id="Layer" class="s9" d="m63 227.8l1.2 1.5-0.3 0.5c-0.6 0.8-0.5 3.4-0.5 3.4-1.3 0-1.7-0.8-1.7-0.8-0.4-2.6 0.7-3.6 0.7-3.6z"/>
				</g>
				<path id="Layer" class="s10" d="m69.5 226.3c0.2 0.5-0.2 2-2.7 3-0.9 0.4-2 0.7-2.9 0.5 0.1-0.4-0.1-0.8-0.4-1-0.4-0.3-0.8-0.2-1.1 0 0.2-0.6 0.3-1.3 0.4-2 0.7 0.1 6-2.1 6.7-0.5z"/>
			</g>
			<path id="Layer" class="s6" d="m70.9 192.5c-0.1 6.9-1.9 33.5-1.9 33.5 0 0-2.6 2.4-7.5 0.5 0 0-1.4-20-1.8-25-0.5-4.9 0-9.1 0.4-10 1.1-2.5 11-6 10.8 1z"/>
			<path id="Layer" class="s6" d="m62.1 155.3c1.2-0.9 4.9-1.4 8.5 1.8 6.6 5.8 0.3 32.9 0.3 37.4 0 4.8-9.5 4.3-10.6-2-0.8-4.3-2.6-19-2.8-21.7-0.3-2.9-0.3-11.7 4.6-15.5z"/>
			<g id="Layer">
				<g id="Layer">
					<g id="Layer">
						<path id="Layer" class="s9" d="m86.3 231c0.5 1.1-0.5 2.9-1.4 3.7-1 0.9-7.2 6.3-11.2 4.7-0.5-0.2-1-0.4-1.3-0.8-0.6-0.6 0.2-4.3 0.9-4.9 0.9-0.9 12.5-3.6 13-2.7z"/>
						<path id="Layer" class="s11" d="m79.1 230.5c2.8-1.1 6.6-1 7-0.1 0.5 1.1-1 3.1-2 3.9-2.6 2.3-8 4.8-10 4.2-0.5-0.2-1.4-0.5-1.7-0.9-0.6-0.7-0.1-3 0.6-3.7 0.7-0.7 4.6-2.8 6.1-3.4z"/>
					</g>
					<path id="Layer" class="s9" d="m77.8 236.9c-0.3 0-0.6-0.3-0.6-0.7 0-0.4 0.3-0.7 0.6-0.7 0.3 0 0.6 0.3 0.6 0.7 0 0.4-0.3 0.7-0.6 0.7z"/>
					<path id="Layer" class="s9" d="m73.9 233.1l1.1 1.5-0.3 0.5c-0.5 0.8-0.4 3.5-0.4 3.5-1.3-0.1-1.8-0.9-1.8-0.9-0.3-2.6 0.7-3.6 0.7-3.6z"/>
				</g>
				<path id="Layer" class="s10" d="m80.3 231.6c0.3 0.6-0.2 2-2.7 3-0.8 0.4-1.9 0.7-2.9 0.5 0.2-0.3 0-0.8-0.4-1-0.3-0.2-0.7-0.2-1.1 0 0.2-0.6 0.3-1.3 0.4-2 0.7 0.1 6-2.1 6.7-0.5z"/>
			</g>
			<path id="Layer" class="s2" d="m81.5 198.2c-0.2 7-1.9 33.1-1.9 33.1 0 0-2.5 3.7-7.5 1.8 0 0-1.4-20.9-1.8-25.8-0.5-4.9-0.2-10 0.2-10.9 1.1-2.5 11.2-5.1 11 1.8z"/>
			<path id="Layer" class="s2" d="m70.9 161.4c1.2-0.9 5.7-3.5 9.5-0.4 5.1 4.2 1 34.7 1 39.3 0 4.7-9.5 4.2-10.6-2.1-0.7-4.2-3.5-22.6-3.7-25.3-0.3-2.9-1.1-7.8 3.8-11.5z"/>
			<path id="Layer" class="s6" d="m67.3 175.3c-0.1-1.1-0.2-2-0.2-2.4-0.3-2.9-1.1-7.8 3.8-11.5 1.2-0.9 5.7-3.5 9.5-0.4 1.4 1.1-2.1 9.9-13.1 14.3z"/>
			<path id="Layer" class="s12" d="m59 140.9c-1.1-7.3-0.7-17.2 7-17.2 3.9 0 16.5 3.2 16.5 11.4 0 7.2-1.2 23.1 0.8 31.7 0 0-20.6 4.5-26.3-2.1 0 0 3.1-16.6 2-23.8z"/>
			<path id="Layer" class="s10" d="m71.4 110.7c0.7-0.5 7.2-0.4 7.3 0.5 0.1 1-0.8 2.3-0.5 3.2 0.3 0.6 0.5 2 0 2.8-1.6 2.8-2.8 5.1-4.6 4.6-0.5 1.9 1.3 4.1 1.1 4.1-1.4-0.2-5.2-1.5-6.4-2.2 0.6-4.2-0.4-7.5 1.8-11.5 0.4-0.6 0.7-1.1 1.3-1.5z"/>
			<path id="Layer" class="s6" d="m69.4 106.1c0-3.3 5.9-2.6 5.8-0.1 2.7-1.5 6.3 2 3.9 6.6 0 0-0.5-1.5-1.5-1 0 2.4-1.6 1-2.2 3.8-0.3 1.6-0.9 3.4-2.3 4.4-1.3 0.9-4.6 0-4.6 0 0-2.3-4.2-6.1-2.9-8.5-1.3-3.2 1.4-5.6 3.8-5.2z"/>
			<path id="Layer" class="s3" d="m68.7 121.8c1.4 0.1 2.7 0.3 5.8 1.9 0.8 0.4 1.7 1.7 1.6 3l-9.4-3 0.8-1.3c0.3-0.4 0.7-0.6 1.2-0.6z"/>
			<g id="Layer">
				<path id="Layer" class="s10" d="m89.9 163.9c0.5 0.3 1.5 1.7 2.3 1.4 1.6-0.5 3.7-0.6 3.5 0.1-0.1 0.3-2 0.9-2.8 1.5-0.7 0.5 0.4 0.7 0.8 1.3 1 1.6 2.1 4.7 2.3 5.8 0.2 0.7-1.6-1-2.3-3-0.9-2.5-0.4 1.1-0.9 1.5-1 0.7-3.9-0.4-5-0.8-0.5-0.2-0.9-1.6-0.5-3 0.1-0.2 0.7-1.1-1.1-2.7-3.7-3.4-11.8-11.6-11.8-11.6l5.1-3.9c0 0 7.2 10.9 10.4 13.4z"/>
				<path id="Layer" class="s3" d="m78 129.1c3.4 0.8 4.1 4.6 3.1 11-0.8 5.6-0.6 9.3-0.6 11 0 1.6-5.7 5.8-6.9 3.3-3.1-6.2-2.5-12.6-1.7-17.2 0.9-5.4 2.4-9 6.1-8.1z"/>
			</g>
		</g>
	</g>
</svg>