<svg xmlns="http://www.w3.org/2000/svg" xmlns:xlink="http://www.w3.org/1999/xlink" viewBox="0 0 304.62 210.21"><defs><style>.cls-1{isolation:isolate;}.cls-2{fill:#42e8e0;}.cls-3{fill:#5cfff3;}.cls-4{fill:#35dbcf;}.cls-5{fill:#312a91;}.cls-11,.cls-13,.cls-17,.cls-18,.cls-21,.cls-22,.cls-25,.cls-6{opacity:0.5;}.cls-6{fill:url(#Áåçûìÿííûé_ãðàäèåíò_10);}.cls-7{fill:#fccc6b;}.cls-8{fill:#0b0244;opacity:0.3;}.cls-15,.cls-19,.cls-23,.cls-9{opacity:0.8;mix-blend-mode:lighten;}.cls-9{fill:url(#Áåçûìÿííûé_ãðàäèåíò_10-2);}.cls-10{fill:url(#Áåçûìÿííûé_ãðàäèåíò_59);}.cls-11{fill:url(#Áåçûìÿííûé_ãðàäèåíò_10-3);}.cls-12{fill:#e0aa4b;}.cls-13{fill:url(#Áåçûìÿííûé_ãðàäèåíò_10-4);}.cls-14{fill:#73fff5;}.cls-15{fill:url(#Áåçûìÿííûé_ãðàäèåíò_10-5);}.cls-16{fill:url(#Áåçûìÿííûé_ãðàäèåíò_59-2);}.cls-17{fill:url(#Áåçûìÿííûé_ãðàäèåíò_10-6);}.cls-18{fill:url(#Áåçûìÿííûé_ãðàäèåíò_10-7);}.cls-19{fill:url(#Áåçûìÿííûé_ãðàäèåíò_10-8);}.cls-20{fill:url(#Áåçûìÿííûé_ãðàäèåíò_59-3);}.cls-21{fill:url(#Áåçûìÿííûé_ãðàäèåíò_10-9);}.cls-22{fill:url(#Áåçûìÿííûé_ãðàäèåíò_10-10);}.cls-23{fill:url(#Áåçûìÿííûé_ãðàäèåíò_10-11);}.cls-24{fill:url(#Áåçûìÿííûé_ãðàäèåíò_59-4);}.cls-25{fill:url(#Áåçûìÿííûé_ãðàäèåíò_10-12);}</style><linearGradient id="Áåçûìÿííûé_ãðàäèåíò_10" x1="81.71" y1="10.25" x2="160.1" y2="40.15" gradientUnits="userSpaceOnUse"><stop offset="0" stop-color="#42e8e0"/><stop offset="0.1" stop-color="#3ccace"/><stop offset="0.34" stop-color="#2f87a5"/><stop offset="0.56" stop-color="#255385"/><stop offset="0.75" stop-color="#1e2d6e"/><stop offset="0.91" stop-color="#1a1660"/><stop offset="1" stop-color="#180d5b"/></linearGradient><linearGradient id="Áåçûìÿííûé_ãðàäèåíò_10-2" x1="82.96" y1="17.33" x2="150.42" y2="30.47" xlink:href="#Áåçûìÿííûé_ãðàäèåíò_10"/><linearGradient id="Áåçûìÿííûé_ãðàäèåíò_59" x1="60.25" y1="-141.92" x2="123.03" y2="-98.21" gradientTransform="matrix(0.87, -0.5, 0, 1.15, 63.22, 246.15)" gradientUnits="userSpaceOnUse"><stop offset="0" stop-color="#2b237c"/><stop offset="1" stop-color="#180d5b"/></linearGradient><linearGradient id="Áåçûìÿííûé_ãðàäèåíò_10-3" x1="59.22" y1="37.5" x2="138.19" y2="60.22" xlink:href="#Áåçûìÿííûé_ãðàäèåíò_10"/><linearGradient id="Áåçûìÿííûé_ãðàäèåíò_10-4" x1="15.02" y1="48.86" x2="93.41" y2="78.76" xlink:href="#Áåçûìÿííûé_ãðàäèåíò_10"/><linearGradient id="Áåçûìÿííûé_ãðàäèåíò_10-5" x1="16.27" y1="55.94" x2="83.73" y2="69.08" xlink:href="#Áåçûìÿííûé_ãðàäèåíò_10"/><linearGradient id="Áåçûìÿííûé_ãðàäèåíò_59-2" x1="-16.76" y1="-141.83" x2="46.02" y2="-98.12" xlink:href="#Áåçûìÿííûé_ãðàäèåíò_59"/><linearGradient id="Áåçûìÿííûé_ãðàäèåíò_10-6" x1="-7.47" y1="76.11" x2="71.5" y2="98.83" xlink:href="#Áåçûìÿííûé_ãðàäèåíò_10"/><linearGradient id="Áåçûìÿííûé_ãðàäèåíò_10-7" x1="148.51" y1="49.31" x2="226.9" y2="79.21" xlink:href="#Áåçûìÿííûé_ãðàäèåíò_10"/><linearGradient id="Áåçûìÿííûé_ãðàäèåíò_10-8" x1="149.76" y1="56.39" x2="217.22" y2="69.53" xlink:href="#Áåçûìÿííûé_ãðàäèåíò_10"/><linearGradient id="Áåçûìÿííûé_ãðàäèåíò_59-3" x1="137.38" y1="-74.69" x2="200.17" y2="-30.99" xlink:href="#Áåçûìÿííûé_ãðàäèåíò_59"/><linearGradient id="Áåçûìÿííûé_ãðàäèåíò_10-9" x1="126.02" y1="76.56" x2="204.99" y2="99.28" xlink:href="#Áåçûìÿííûé_ãðàäèåíò_10"/><linearGradient id="Áåçûìÿííûé_ãðàäèåíò_10-10" x1="81.82" y1="87.92" x2="160.21" y2="117.82" xlink:href="#Áåçûìÿííûé_ãðàäèåíò_10"/><linearGradient id="Áåçûìÿííûé_ãðàäèåíò_10-11" x1="83.07" y1="95" x2="150.53" y2="108.14" xlink:href="#Áåçûìÿííûé_ãðàäèåíò_10"/><linearGradient id="Áåçûìÿííûé_ãðàäèåíò_59-4" x1="60.37" y1="-74.6" x2="123.16" y2="-30.9" xlink:href="#Áåçûìÿííûé_ãðàäèåíò_59"/><linearGradient id="Áåçûìÿííûé_ãðàäèåíò_10-12" x1="59.33" y1="115.17" x2="138.3" y2="137.89" xlink:href="#Áåçûìÿííûé_ãðàäèåíò_10"/></defs><title>cubos</title><g class="cls-1"><g id="Capa_2" data-name="Capa 2"><g id="Ñëîé_1" data-name="Ñëîé 1"><polygon class="cls-2" points="218.39 33.68 218.39 13.38 200.81 3.23 183.23 13.38 183.23 33.68 200.81 43.83 218.39 33.68"/><polygon class="cls-3" points="200.81 23.53 183.23 13.38 200.81 3.23 218.39 13.38 200.81 23.53"/><polygon class="cls-4" points="218.39 33.68 200.81 43.83 200.81 23.53 218.39 13.38 218.39 33.68"/><polygon class="cls-2" points="200.81 43.83 183.23 33.68 183.23 13.38 200.81 23.53 200.81 43.83"/><polygon class="cls-2" points="33.97 32.2 33.97 20.34 23.7 14.42 13.44 20.34 13.44 32.2 23.7 38.12 33.97 32.2"/><polygon class="cls-3" points="23.7 26.27 13.44 20.34 23.7 14.42 33.96 20.34 23.7 26.27"/><polygon class="cls-4" points="33.97 32.2 23.7 38.12 23.7 26.27 33.97 20.34 33.97 32.2"/><polygon class="cls-2" points="23.7 38.12 13.44 32.2 13.44 20.34 23.7 26.27 23.7 38.12"/><polygon class="cls-2" points="281.42 141.41 281.42 129.56 271.15 123.63 260.89 129.56 260.89 141.41 271.15 147.33 281.42 141.41"/><polygon class="cls-3" points="271.15 135.48 260.89 129.56 271.15 123.63 281.42 129.56 271.15 135.48"/><polygon class="cls-4" points="281.42 141.41 271.15 147.33 271.15 135.48 281.42 129.56 281.42 141.41"/><polygon class="cls-2" points="271.15 147.33 260.89 141.41 260.89 129.56 271.15 135.48 271.15 147.33"/><polygon class="cls-2" points="304.62 124.56 304.62 116.37 297.52 112.27 290.43 116.37 290.43 124.56 297.52 128.66 304.62 124.56"/><polygon class="cls-3" points="297.52 120.47 290.43 116.37 297.52 112.27 304.62 116.37 297.52 120.47"/><polygon class="cls-4" points="304.62 124.56 297.52 128.66 297.52 120.47 304.62 116.37 304.62 124.56"/><polygon class="cls-2" points="297.52 128.66 290.43 124.56 290.43 116.37 297.52 120.47 297.52 128.66"/><polygon class="cls-2" points="11.06 29.46 11.06 23.08 5.53 19.89 0 23.08 0 29.46 5.53 32.65 11.06 29.46"/><polygon class="cls-3" points="5.53 26.27 0 23.08 5.53 19.89 11.06 23.08 5.53 26.27"/><polygon class="cls-4" points="11.06 29.46 5.53 32.65 5.53 26.27 11.06 23.08 11.06 29.46"/><polygon class="cls-2" points="5.53 32.65 0 29.46 0 23.08 5.53 26.27 5.53 32.65"/><polygon class="cls-5" points="118.33 48.44 76.39 24.22 118.33 0 160.28 24.22 118.33 48.44"/><polygon class="cls-6" points="118.33 48.44 76.39 24.22 118.33 0 160.28 24.22 118.33 48.44"/><path class="cls-7" d="M118.33,127.62a.58.58,0,0,1-.28-.07L76.1,103.33a.58.58,0,0,1-.28-.49.59.59,0,0,1,.28-.5l42-24.21a.58.58,0,0,1,.57,0l41.95,24.22a.57.57,0,0,1,0,1l-41.95,24.22A.59.59,0,0,1,118.33,127.62ZM77.52,102.84l40.81,23.56,40.82-23.56L118.33,79.28Z"/><polygon class="cls-8" points="118.33 118.45 91.29 102.84 118.33 87.22 145.38 102.84 118.33 118.45"/><polygon class="cls-9" points="78.08 24.22 119.18 0.49 118.33 0 76.39 24.22 118.33 48.44 119.18 47.95 78.08 24.22"/><polygon class="cls-3" points="118.33 42.17 87.24 24.22 118.33 6.27 149.43 24.22 118.33 42.17"/><polygon class="cls-2" points="118.33 10.37 145.87 26.27 149.43 24.22 118.33 6.27 87.24 24.22 90.8 26.27 118.33 10.37"/><polygon class="cls-5" points="118.33 96.87 76.39 72.65 76.39 24.22 118.33 48.44 118.33 96.87"/><polygon class="cls-10" points="160.28 72.65 118.33 96.87 118.33 48.44 160.28 24.22 160.28 72.65"/><polygon class="cls-11" points="118.33 48.44 76.39 24.22 76.39 72.65 118.33 96.87 160.28 72.65 160.28 24.22 118.33 48.44"/><path class="cls-3" d="M80.42,31.2V70.33l33.89,19.56V50.76Zm30.63,53.05L83.68,68.45V36.84l27.37,15.8Z"/><polygon class="cls-2" points="82 69.6 82 32.11 80.42 31.2 80.42 70.33 114.31 89.89 114.31 88.25 82 69.6"/><polygon class="cls-2" points="112.63 83.52 112.63 51.92 85.26 36.12 85.26 37.76 111.05 52.64 111.05 82.61 112.63 83.52"/><polygon class="cls-2" points="85.26 36.12 83.67 36.84 86.74 38.61 85.26 36.12"/><polygon class="cls-12" points="111.05 84.25 112.63 83.52 111.05 81.34 111.05 84.25"/><path class="cls-3" d="M122.36,50.76V89.89l33.89-19.56V31.2Zm3.26,1.88L153,36.84V68.45l-27.37,15.8Z"/><polygon class="cls-2" points="154.67 69.6 154.67 32.11 156.25 31.2 156.25 70.33 122.36 89.89 122.36 88.25 154.67 69.6"/><polygon class="cls-2" points="124.04 83.52 124.04 51.92 151.41 36.12 151.41 37.76 125.62 52.64 125.62 82.61 124.04 83.52"/><polygon class="cls-12" points="125.62 84.25 124.04 83.52 125.62 81.34 125.62 84.25"/><polygon class="cls-2" points="151.41 36.12 152.99 36.84 149.93 38.61 151.41 36.12"/><polygon class="cls-5" points="51.64 87.05 9.69 62.83 51.64 38.61 93.59 62.83 51.64 87.05"/><polygon class="cls-13" points="51.64 87.05 9.69 62.83 51.64 38.61 93.59 62.83 51.64 87.05"/><path class="cls-14" d="M51.64,166.12a.46.46,0,0,1-.23-.06L9.47,141.84a.43.43,0,0,1-.23-.39.44.44,0,0,1,.23-.4l41.94-24.22a.47.47,0,0,1,.46,0l41.95,24.22a.45.45,0,0,1,0,.79L51.87,166.06A.46.46,0,0,1,51.64,166.12Zm-41-24.67,41,23.69,41-23.69-41-23.69Z"/><polygon class="cls-8" points="51.64 157.06 24.6 141.45 51.64 125.83 78.69 141.45 51.64 157.06"/><polygon class="cls-15" points="11.38 62.83 52.48 39.1 51.64 38.61 9.69 62.83 51.64 87.05 52.49 86.56 11.38 62.83"/><polygon class="cls-3" points="51.64 80.78 20.55 62.83 51.64 44.88 82.73 62.83 51.64 80.78"/><polygon class="cls-2" points="51.64 48.98 79.18 64.88 82.73 62.83 51.64 44.88 20.55 62.83 24.1 64.88 51.64 48.98"/><polygon class="cls-5" points="51.64 135.48 9.69 111.26 9.69 62.83 51.64 87.05 51.64 135.48"/><polygon class="cls-16" points="93.59 111.26 51.64 135.48 51.64 87.05 93.59 62.83 93.59 111.26"/><polygon class="cls-17" points="51.64 87.05 9.69 62.83 9.69 111.26 51.64 135.48 93.59 111.26 93.59 62.83 51.64 87.05"/><path class="cls-3" d="M13.72,69.81v39.13L47.61,128.5V89.37Zm30.63,53.05L17,107.06V75.45l27.37,15.8Z"/><polygon class="cls-2" points="15.31 108.21 15.31 70.72 13.72 69.81 13.72 108.94 47.61 128.5 47.61 126.86 15.31 108.21"/><polygon class="cls-2" points="45.94 122.14 45.94 90.53 18.57 74.73 18.57 76.37 44.35 91.25 44.35 121.22 45.94 122.14"/><polygon class="cls-2" points="18.57 74.73 16.98 75.45 20.05 77.22 18.57 74.73"/><polygon class="cls-2" points="44.35 122.86 45.94 122.14 44.35 119.95 44.35 122.86"/><path class="cls-3" d="M55.67,89.37V128.5l33.89-19.56V69.81Zm3.26,1.88L86.3,75.45v31.61l-27.37,15.8Z"/><polygon class="cls-2" points="87.97 108.21 87.97 70.72 89.56 69.81 89.56 108.94 55.67 128.5 55.67 126.86 87.97 108.21"/><polygon class="cls-2" points="57.34 122.14 57.34 90.53 84.72 74.73 84.72 76.37 58.93 91.25 58.93 121.22 57.34 122.14"/><polygon class="cls-2" points="58.93 122.86 57.34 122.14 58.93 119.95 58.93 122.86"/><polygon class="cls-2" points="84.72 74.73 86.3 75.45 83.24 77.22 84.72 74.73"/><polygon class="cls-5" points="185.13 87.5 143.19 63.28 185.13 39.06 227.08 63.28 185.13 87.5"/><polygon class="cls-18" points="185.13 87.5 143.19 63.28 185.13 39.06 227.08 63.28 185.13 87.5"/><path class="cls-14" d="M185.13,166.57a.46.46,0,0,1-.22-.06L143,142.29a.45.45,0,0,1,0-.79l41.94-24.22a.47.47,0,0,1,.46,0l41.95,24.22a.45.45,0,0,1,0,.79l-41.95,24.22A.46.46,0,0,1,185.13,166.57Zm-41-24.67,41,23.69,41-23.69-41-23.69Z"/><polygon class="cls-8" points="185.13 157.51 158.09 141.9 185.13 126.28 212.18 141.9 185.13 157.51"/><polygon class="cls-19" points="144.88 63.28 185.98 39.55 185.13 39.06 143.19 63.28 185.13 87.5 185.98 87.01 144.88 63.28"/><polygon class="cls-3" points="185.13 81.23 154.04 63.28 185.13 45.33 216.23 63.28 185.13 81.23"/><polygon class="cls-2" points="185.13 49.43 212.67 65.33 216.23 63.28 185.13 45.33 154.04 63.28 157.59 65.33 185.13 49.43"/><polygon class="cls-5" points="185.13 135.93 143.19 111.71 143.19 63.28 185.13 87.5 185.13 135.93"/><polygon class="cls-20" points="227.08 111.71 185.13 135.93 185.13 87.5 227.08 63.28 227.08 111.71"/><polygon class="cls-21" points="185.13 87.5 143.19 63.28 143.19 111.71 185.13 135.93 227.08 111.71 227.08 63.28 185.13 87.5"/><path class="cls-3" d="M147.22,70.26v39.13L181.1,129V89.82Zm30.63,53.05-27.38-15.8V75.9l27.38,15.8Z"/><polygon class="cls-2" points="148.8 108.66 148.8 71.17 147.22 70.26 147.22 109.39 181.1 128.95 181.1 127.31 148.8 108.66"/><polygon class="cls-2" points="179.43 122.58 179.43 90.98 152.06 75.18 152.06 76.82 177.84 91.7 177.84 121.67 179.43 122.58"/><polygon class="cls-2" points="152.06 75.18 150.47 75.9 153.54 77.67 152.06 75.18"/><polygon class="cls-2" points="177.84 123.31 179.43 122.58 177.84 120.4 177.84 123.31"/><path class="cls-3" d="M189.16,89.82V129l33.89-19.56V70.26Zm3.26,1.88,27.37-15.8v31.61l-27.37,15.8Z"/><polygon class="cls-2" points="221.47 108.66 221.47 71.17 223.05 70.26 223.05 109.39 189.16 128.95 189.16 127.31 221.47 108.66"/><polygon class="cls-2" points="190.84 122.58 190.84 90.98 218.21 75.18 218.21 76.82 192.42 91.7 192.42 121.67 190.84 122.58"/><polygon class="cls-2" points="192.42 123.31 190.84 122.58 192.42 120.4 192.42 123.31"/><polygon class="cls-2" points="218.21 75.18 219.79 75.9 216.73 77.67 218.21 75.18"/><polygon class="cls-5" points="118.44 126.11 76.49 101.89 118.44 77.67 160.39 101.89 118.44 126.11"/><polygon class="cls-22" points="118.44 126.11 76.49 101.89 118.44 77.67 160.39 101.89 118.44 126.11"/><path class="cls-14" d="M118.44,205.18a.46.46,0,0,1-.23-.06L76.26,180.9a.45.45,0,0,1,0-.79l41.95-24.22a.47.47,0,0,1,.46,0l42,24.22a.45.45,0,0,1,0,.79l-41.95,24.22A.46.46,0,0,1,118.44,205.18Zm-41-24.67,41,23.69,41-23.69-41-23.69Z"/><polygon class="cls-8" points="118.44 196.12 91.4 180.51 118.44 164.89 145.49 180.51 118.44 196.12"/><polygon class="cls-23" points="78.18 101.89 119.28 78.16 118.44 77.67 76.49 101.89 118.44 126.11 119.29 125.62 78.18 101.89"/><polygon class="cls-3" points="118.44 119.84 87.35 101.89 118.44 83.94 149.53 101.89 118.44 119.84"/><polygon class="cls-2" points="118.44 88.04 145.98 103.94 149.53 101.89 118.44 83.94 87.35 101.89 90.9 103.94 118.44 88.04"/><polygon class="cls-5" points="118.44 174.54 76.49 150.32 76.49 101.89 118.44 126.11 118.44 174.54"/><polygon class="cls-24" points="160.39 150.32 118.44 174.54 118.44 126.11 160.39 101.89 160.39 150.32"/><polygon class="cls-25" points="118.44 126.11 76.49 101.89 76.49 150.32 118.44 174.54 160.39 150.32 160.39 101.89 118.44 126.11"/><path class="cls-3" d="M80.52,108.87V148l33.89,19.56V128.43Zm30.63,53-27.37-15.8V114.51l27.37,15.8Z"/><polygon class="cls-2" points="82.11 147.27 82.11 109.78 80.52 108.87 80.52 148 114.41 167.56 114.41 165.92 82.11 147.27"/><polygon class="cls-2" points="112.74 161.19 112.74 129.59 85.37 113.79 85.37 115.43 111.15 130.31 111.15 160.28 112.74 161.19"/><polygon class="cls-2" points="85.37 113.79 83.78 114.51 86.84 116.28 85.37 113.79"/><polygon class="cls-2" points="111.15 161.92 112.74 161.19 111.15 159.01 111.15 161.92"/><path class="cls-3" d="M122.47,128.43v39.13L156.36,148V108.87Zm3.26,1.88,27.37-15.8v31.61l-27.37,15.8Z"/><polygon class="cls-2" points="154.77 147.27 154.77 109.78 156.36 108.87 156.36 148 122.47 167.56 122.47 165.92 154.77 147.27"/><polygon class="cls-2" points="124.14 161.19 124.14 129.59 151.51 113.79 151.51 115.43 125.73 130.31 125.73 160.28 124.14 161.19"/><polygon class="cls-2" points="125.73 161.92 124.14 161.19 125.73 159.01 125.73 161.92"/><polygon class="cls-2" points="151.51 113.79 153.1 114.51 150.04 116.28 151.51 113.79"/><polygon class="cls-2" points="231.45 199.09 231.45 176.84 212.18 165.71 192.91 176.84 192.91 199.09 212.18 210.21 231.45 199.09"/><polygon class="cls-3" points="212.18 187.96 192.91 176.84 212.18 165.71 231.45 176.84 212.18 187.96"/><polygon class="cls-4" points="231.45 199.09 212.18 210.21 212.18 187.96 231.45 176.84 231.45 199.09"/><polygon class="cls-2" points="212.18 210.21 192.91 199.09 192.91 176.84 212.18 187.96 212.18 210.21"/><polygon class="cls-2" points="45.98 190.49 45.98 178.64 35.72 172.72 25.46 178.64 25.46 190.49 35.72 196.42 45.98 190.49"/><polygon class="cls-3" points="35.72 184.57 25.46 178.64 35.72 172.72 45.98 178.64 35.72 184.57"/><polygon class="cls-4" points="45.98 190.49 35.72 196.42 35.72 184.57 45.98 178.64 45.98 190.49"/><polygon class="cls-2" points="35.72 196.42 25.46 190.49 25.46 178.64 35.72 184.57 35.72 196.42"/></g></g></g></svg>