<svg width="64" height="64" viewBox="0 0 64 64" fill="none" xmlns="http://www.w3.org/2000/svg">
<path d="M60 12H32C31.2044 12 30.4413 12.3161 29.8787 12.8787C29.3161 13.4413 29 14.2044 29 15V18H47.17C47.9654 18.0007 48.7279 18.3172 49.29 18.88L56.12 25.71C56.6828 26.2721 56.9993 27.0346 57 27.83V54H60C60.7956 54 61.5587 53.6839 62.1213 53.1213C62.6839 52.5587 63 51.7956 63 51V15C63 14.2044 62.6839 13.4413 62.1213 12.8787C61.5587 12.3161 60.7956 12 60 12Z" fill="#6E60E7"/>
<path d="M48 27H54.59L48 20.41V27Z" fill="#6E60E7"/>
<path d="M46 28V20H24C23.2044 20 22.4413 20.3161 21.8787 20.8787C21.3161 21.4413 21 22.2044 21 23V59C21 59.7956 21.3161 60.5587 21.8787 61.1213C22.4413 61.6839 23.2044 62 24 62H52C52.7956 62 53.5587 61.6839 54.1213 61.1213C54.6839 60.5587 55 59.7956 55 59V29H47C46.7348 29 46.4804 28.8946 46.2929 28.7071C46.1054 28.5196 46 28.2652 46 28ZM48 50H28C27.7348 50 27.4804 49.8946 27.2929 49.7071C27.1054 49.5196 27 49.2652 27 49C27 48.7348 27.1054 48.4804 27.2929 48.2929C27.4804 48.1054 27.7348 48 28 48H48C48.2652 48 48.5196 48.1054 48.7071 48.2929C48.8946 48.4804 49 48.7348 49 49C49 49.2652 48.8946 49.5196 48.7071 49.7071C48.5196 49.8946 48.2652 50 48 50ZM48 42H28C27.7348 42 27.4804 41.8946 27.2929 41.7071C27.1054 41.5196 27 41.2652 27 41C27 40.7348 27.1054 40.4804 27.2929 40.2929C27.4804 40.1054 27.7348 40 28 40H48C48.2652 40 48.5196 40.1054 48.7071 40.2929C48.8946 40.4804 49 40.7348 49 41C49 41.2652 48.8946 41.5196 48.7071 41.7071C48.5196 41.8946 48.2652 42 48 42ZM49 33C49 33.2652 48.8946 33.5196 48.7071 33.7071C48.5196 33.8946 48.2652 34 48 34H28C27.7348 34 27.4804 33.8946 27.2929 33.7071C27.1054 33.5196 27 33.2652 27 33C27 32.7348 27.1054 32.4804 27.2929 32.2929C27.4804 32.1054 27.7348 32 28 32H48C48.2652 32 48.5196 32.1054 48.7071 32.2929C48.8946 32.4804 49 32.7348 49 33Z" fill="#6E60E7"/>
<path d="M40 7H29.41L27.41 3.52C27.1508 3.06286 26.776 2.68184 26.3232 2.41508C25.8704 2.14832 25.3555 2.00519 24.83 2H4C3.20435 2 2.44129 2.31607 1.87868 2.87868C1.31607 3.44129 1 4.20435 1 5V33C1 33.7956 1.31607 34.5587 1.87868 35.1213C2.44129 35.6839 3.20435 36 4 36H40C40.7956 36 41.5587 35.6839 42.1213 35.1213C42.6839 34.5587 43 33.7956 43 33V10C43 9.20435 42.6839 8.44129 42.1213 7.87868C41.5587 7.31607 40.7956 7 40 7ZM25.7 4.51L27.11 7H18.11C17.9365 6.99997 17.7659 6.95478 17.6151 6.86886C17.4643 6.78295 17.3385 6.65928 17.25 6.51L15.77 4H24.83C25.0072 4.00031 25.1811 4.04769 25.334 4.1373C25.4869 4.22691 25.6132 4.35553 25.7 4.51V4.51ZM41 33C41 33.2652 40.8946 33.5196 40.7071 33.7071C40.5196 33.8946 40.2652 34 40 34H4C3.73478 34 3.48043 33.8946 3.29289 33.7071C3.10536 33.5196 3 33.2652 3 33V5C3 4.73478 3.10536 4.48043 3.29289 4.29289C3.48043 4.10536 3.73478 4 4 4H13.43L15.56 7.54C15.8259 7.98452 16.2023 8.35262 16.6527 8.60847C17.1031 8.86432 17.612 8.99921 18.13 9H40C40.2652 9 40.5196 9.10536 40.7071 9.29289C40.8946 9.48043 41 9.73478 41 10V33Z" fill="#151A6A"/>
<path d="M38 26H6C5.73478 26 5.48043 26.1054 5.29289 26.2929C5.10536 26.4804 5 26.7348 5 27C5 27.2652 5.10536 27.5196 5.29289 27.7071C5.48043 27.8946 5.73478 28 6 28H38C38.2652 28 38.5196 27.8946 38.7071 27.7071C38.8946 27.5196 39 27.2652 39 27C39 26.7348 38.8946 26.4804 38.7071 26.2929C38.5196 26.1054 38.2652 26 38 26Z" fill="#151A6A"/>
</svg>
