<svg width="64" height="64" viewBox="0 0 64 64" fill="none" xmlns="http://www.w3.org/2000/svg">
<path d="M26.5 47.24L40.5 56.09V33H26.5V47.24Z" fill="#6E60E7"/>
<path d="M42.5 56.09L56.5 47.24V33H42.5V56.09Z" fill="#6E60E7"/>
<path d="M26.5 31H40.5V19C35.602 19.2468 30.8201 20.5789 26.5 22.9V31Z" fill="#6E60E7"/>
<path d="M42.5 31H56.5V22.93C52.1799 20.6089 47.398 19.2768 42.5 19.03V31Z" fill="#6E60E7"/>
<path d="M62 19.14C48.4 11 34.6 11 21 19.14C20.8507 19.2285 20.7271 19.3543 20.6411 19.5051C20.5552 19.6559 20.51 19.8265 20.51 20V48.9C20.5113 49.4055 20.6403 49.9025 20.8851 50.3448C21.1298 50.7871 21.4824 51.1604 21.91 51.43L39.12 62.31C39.832 62.7607 40.6573 62.9999 41.5 62.9999C42.3427 62.9999 43.168 62.7607 43.88 62.31L61.1 51.43C61.5276 51.1604 61.8802 50.7871 62.1249 50.3448C62.3697 49.9025 62.4987 49.4055 62.5 48.9V20C62.4989 19.8255 62.4522 19.6543 62.3645 19.5034C62.2768 19.3525 62.1511 19.2273 62 19.14V19.14ZM58.5 47.8C58.4987 47.9683 58.4549 48.1334 58.3727 48.2803C58.2906 48.4271 58.1727 48.5508 58.03 48.64L42.29 58.58C42.1965 58.7004 42.0768 58.7979 41.9398 58.865C41.8029 58.932 41.6525 58.9669 41.5 58.9669C41.3475 58.9669 41.1971 58.932 41.0602 58.865C40.9233 58.7979 40.8035 58.7004 40.71 58.58L25 48.64C24.8573 48.5508 24.7394 48.4271 24.6573 48.2803C24.5751 48.1334 24.5314 47.9683 24.53 47.8V22.33C24.5305 22.1491 24.58 21.9717 24.6734 21.8167C24.7667 21.6618 24.9003 21.535 25.06 21.45C30.0868 18.6279 35.736 17.0987 41.5 17C47.2844 17.0888 52.9554 18.6183 58 21.45C58.1597 21.535 58.2933 21.6618 58.3866 21.8167C58.48 21.9717 58.5295 22.1491 58.53 22.33L58.5 47.8Z" fill="#6E60E7"/>
<path d="M48.5 1H4.5C3.70435 1 2.94129 1.31607 2.37868 1.87868C1.81607 2.44129 1.5 3.20435 1.5 4V32C1.5 32.7956 1.81607 33.5587 2.37868 34.1213C2.94129 34.6839 3.70435 35 4.5 35H48.5C49.2956 35 50.0587 34.6839 50.6213 34.1213C51.1839 33.5587 51.5 32.7956 51.5 32V4C51.5 3.20435 51.1839 2.44129 50.6213 1.87868C50.0587 1.31607 49.2956 1 48.5 1V1ZM4.5 3H48.5C48.7652 3 49.0196 3.10536 49.2071 3.29289C49.3946 3.48043 49.5 3.73478 49.5 4V6H3.5V4C3.5 3.73478 3.60536 3.48043 3.79289 3.29289C3.98043 3.10536 4.23478 3 4.5 3ZM49.5 12H3.5V8H49.5V12ZM48.5 33H4.5C4.23478 33 3.98043 32.8946 3.79289 32.7071C3.60536 32.5196 3.5 32.2652 3.5 32V14H49.5V32C49.5 32.2652 49.3946 32.5196 49.2071 32.7071C49.0196 32.8946 48.7652 33 48.5 33Z" fill="#151A6A"/>
<path d="M21.5 17H6.5C6.23478 17 5.98043 17.1054 5.79289 17.2929C5.60536 17.4804 5.5 17.7348 5.5 18C5.5 18.2652 5.60536 18.5196 5.79289 18.7071C5.98043 18.8946 6.23478 19 6.5 19H21.5C21.7652 19 22.0196 18.8946 22.2071 18.7071C22.3946 18.5196 22.5 18.2652 22.5 18C22.5 17.7348 22.3946 17.4804 22.2071 17.2929C22.0196 17.1054 21.7652 17 21.5 17Z" fill="#151A6A"/>
<path d="M42.21 20.05C42.117 19.9563 42.0064 19.8819 41.8846 19.8311C41.7627 19.7803 41.632 19.7542 41.5 19.7542C41.368 19.7542 41.2373 19.7803 41.1154 19.8311C40.9936 19.8819 40.883 19.9563 40.79 20.05L36.55 24.29C36.4563 24.383 36.3819 24.4936 36.3311 24.6154C36.2803 24.7373 36.2542 24.868 36.2542 25C36.2542 25.132 36.2803 25.2627 36.3311 25.3846C36.3819 25.5064 36.4563 25.617 36.55 25.71L40.79 30C40.883 30.0937 40.9936 30.1681 41.1154 30.2189C41.2373 30.2697 41.368 30.2958 41.5 30.2958C41.632 30.2958 41.7627 30.2697 41.8846 30.2189C42.0064 30.1681 42.117 30.0937 42.21 30L46.45 25.76C46.5437 25.667 46.6181 25.5564 46.6689 25.4346C46.7197 25.3127 46.7458 25.182 46.7458 25.05C46.7458 24.918 46.7197 24.7873 46.6689 24.6654C46.6181 24.5436 46.5437 24.433 46.45 24.34L42.21 20.05ZM41.5 27.83L38.67 25L41.5 22.17L44.33 25L41.5 27.83Z" fill="#151A6A"/>
</svg>
