<svg xmlns="http://www.w3.org/2000/svg" xmlns:xlink="http://www.w3.org/1999/xlink" viewBox="0 0 81.53 116.07"><defs><style>.cls-1{fill:none;}.cls-2{isolation:isolate;}.cls-3{fill:#03d4ea;}.cls-4{fill:#137399;}.cls-5{fill:#77f2ff;}.cls-10,.cls-6{fill:#063b5b;}.cls-7{fill:#029fb0;}.cls-8{clip-path:url(#clip-path);}.cls-9{fill:#5ff7ff;}.cls-10,.cls-15{mix-blend-mode:multiply;}.cls-11{fill:#f6a72e;}.cls-12{fill:#ffd527;}.cls-13{fill:#ffe67d;}.cls-14{fill:#ea8500;}.cls-15{fill:url(#linear-gradient);}</style><clipPath id="clip-path" transform="translate(-23.95 -7.33)"><path class="cls-1" d="M88.61,71.74c.77-2,1.48-4.07,2.16-6.1a163.62,163.62,0,0,0,4.92-18q1.26-5.92,2-11.76a133.76,133.76,0,0,0,1.07-16.14,44.44,44.44,0,0,1-24.44.63c-1.07-.23-2.14-.7-3.24-1s-1.94-.78-3-1.19c-.8,1.28-1.79,2.84-2.58,4q-2.55,3.88-5,7.3c-.82,1.14-1.63,2.24-2.44,3.31-1.6,2.13-3.17,4.12-4.69,6-.76.92-1.51,1.81-2.24,2.67-3,3.41-5.68,6.28-8.12,8.67a98,98,0,0,1-7.66,6.79c.09,29.67,10.31,48.93,31.14,58.75A261.23,261.23,0,0,0,83.52,84.09Q86.33,77.85,88.61,71.74Z"/></clipPath><linearGradient id="linear-gradient" x1="54.32" y1="83.08" x2="77.4" y2="43.1" gradientUnits="userSpaceOnUse"><stop offset="0" stop-color="#fff"/><stop offset="0.01" stop-color="#fef1de"/><stop offset="0.01" stop-color="#fcddaf"/><stop offset="0.02" stop-color="#facd88"/><stop offset="0.03" stop-color="#f8bf67"/><stop offset="0.04" stop-color="#f7b44e"/><stop offset="0.05" stop-color="#f7ad3c"/><stop offset="0.06" stop-color="#f6a831"/><stop offset="0.07" stop-color="#f6a72e"/><stop offset="0.13" stop-color="#f7b44e"/><stop offset="0.24" stop-color="#facb83"/><stop offset="0.34" stop-color="#fcdeb0"/><stop offset="0.44" stop-color="#fdecd2"/><stop offset="0.54" stop-color="#fef7eb"/><stop offset="0.63" stop-color="#fffdfa"/><stop offset="0.7" stop-color="#fff"/><stop offset="0.75" stop-color="#fffefc"/><stop offset="0.78" stop-color="#fef9f2"/><stop offset="0.82" stop-color="#fef2e0"/><stop offset="0.85" stop-color="#fde8c8"/><stop offset="0.89" stop-color="#fbdba9"/><stop offset="0.92" stop-color="#facb83"/><stop offset="0.93" stop-color="#f9c473"/><stop offset="0.96" stop-color="#f9c575"/><stop offset="0.97" stop-color="#f9c87c"/><stop offset="0.98" stop-color="#facd87"/><stop offset="0.98" stop-color="#fbd498"/><stop offset="0.99" stop-color="#fcddae"/><stop offset="0.99" stop-color="#fde8ca"/><stop offset="1" stop-color="#fef6e9"/><stop offset="1" stop-color="#fff"/></linearGradient></defs><title>escu</title><g class="cls-2"><g id="Capa_1" data-name="Capa 1"><path class="cls-3" d="M97.81,48.13a162.61,162.61,0,0,1-4.92,18A162.61,162.61,0,0,0,97.81,48.13Z" transform="translate(-23.95 -7.33)"/><path class="cls-3" d="M90.74,72.2q-2.28,6.12-5.09,12.35Q88.45,78.33,90.74,72.2Z" transform="translate(-23.95 -7.33)"/><path class="cls-3" d="M99.81,36.36q-.74,5.85-2,11.77Q99.07,42.21,99.81,36.36Z" transform="translate(-23.95 -7.33)"/><path class="cls-4" d="M64.83,16.29h0l.12-.18h0Z" transform="translate(-23.95 -7.33)"/><path class="cls-5" d="M96.4,15.06c.75-.17,1.47-.36,2.14-.55,1-.28,1.93-.59,2.74-.88s1.51-.58,2.1-.84c1.17-.51,1.88-.91,2.05-1l-6.82-4a40,40,0,0,1-36.82-.47l6.82,4A40.48,40.48,0,0,0,96.4,15.06Z" transform="translate(-23.95 -7.33)"/><polygon class="cls-5" points="44.66 4 37.84 0 37.84 0 37.84 0 37.84 0 37.27 0.33 44.09 4.32 44.66 4"/><polygon class="cls-5" points="44.09 4.32 37.27 0.33 36.7 0.66 43.52 4.65 44.09 4.32"/><path class="cls-4" d="M74.34,20.35c-.38-.1-.77-.19-1.16-.31a41.91,41.91,0,0,1-5.12-1.87l-.17.27c1.07.41,2.14.79,3.19,1.1S73.27,20.13,74.34,20.35Z" transform="translate(-23.95 -7.33)"/><path class="cls-6" d="M98.79,19.72a135.72,135.72,0,0,1-1.08,16.14q-.75,5.85-2,11.76a161.42,161.42,0,0,1-4.92,18q-1,3-2.15,6.1-2.3,6.12-5.09,12.35a263.41,263.41,0,0,1-17.1,31.61c.63.3,1.25.57,1.89.85a262.59,262.59,0,0,0,17.31-32q2.8-6.22,5.09-12.35,1.14-3.06,2.15-6.09a162.61,162.61,0,0,0,4.92-18q1.26-5.93,2-11.77A132.3,132.3,0,0,0,100.9,19C100.26,19.25,99.55,19.49,98.79,19.72Z" transform="translate(-23.95 -7.33)"/><path class="cls-4" d="M98.79,19.72c0-.4,0-.8,0-1.21a44.92,44.92,0,0,1-24.46,1.84A44.38,44.38,0,0,0,98.79,19.72Z" transform="translate(-23.95 -7.33)"/><path class="cls-4" d="M35.33,56.88A100.6,100.6,0,0,0,43,50.08c2.44-2.39,5.18-5.26,8.12-8.67.73-.86,1.48-1.74,2.24-2.67q2.28-2.76,4.7-6c.8-1.06,1.61-2.17,2.43-3.31q2.46-3.42,5-7.3c.79-1.2,1.59-2.45,2.39-3.73-.64-.24-1.29-.49-1.93-.77-.86,1.37-1.72,2.71-2.57,4-1.69,2.59-3.37,5-5,7.3-.82,1.14-1.64,2.24-2.44,3.31q-2.41,3.19-4.69,6c-.76.93-1.51,1.81-2.25,2.67-2.94,3.41-5.67,6.28-8.11,8.67a97.8,97.8,0,0,1-7.67,6.79c.1,30.56,10.91,50.11,33,59.64.08-.13.15-.26.23-.38C45.65,105.81,35.42,86.54,35.33,56.88Z" transform="translate(-23.95 -7.33)"/><path class="cls-4" d="M88.64,71.7q1.14-3.06,2.15-6.1a161.42,161.42,0,0,0,4.92-18q1.26-5.91,2-11.76a135.72,135.72,0,0,0,1.08-16.14,44.38,44.38,0,0,1-24.45.63c-1.07-.22-2.16-.48-3.26-.81s-2.12-.69-3.19-1.1c-.8,1.28-1.6,2.53-2.39,3.73q-2.55,3.88-5,7.3c-.82,1.14-1.63,2.25-2.43,3.31q-2.41,3.19-4.7,6c-.76.93-1.51,1.81-2.24,2.67-2.94,3.41-5.68,6.28-8.12,8.67a100.6,100.6,0,0,1-7.66,6.8c.09,29.66,10.32,48.93,31.14,58.75A263.63,263.63,0,0,0,83.55,84.05Q86.36,77.83,88.64,71.7Z" transform="translate(-23.95 -7.33)"/><path class="cls-4" d="M50.54,36.25c-1.53,1.85-3,3.53-4.4,5.06C47.54,39.78,49,38.1,50.54,36.25Z" transform="translate(-23.95 -7.33)"/><path class="cls-4" d="M60.36,23.15c-2.89,4.23-5.66,8-8.27,11.21C54.7,31.1,57.47,27.38,60.36,23.15Z" transform="translate(-23.95 -7.33)"/><path class="cls-4" d="M62.1,20.55c.9-1.36,1.81-2.79,2.73-4.26h0C63.91,17.76,63,19.19,62.1,20.55Z" transform="translate(-23.95 -7.33)"/><path class="cls-3" d="M105.43,11.79c-.17.09-.88.49-2.05,1-.59.26-1.29.55-2.1.84s-1.73.6-2.74.88c-.67.19-1.39.38-2.14.55a40.48,40.48,0,0,1-27.79-3.73l-.57.33-.57.33c-.85,1.42-1.69,2.78-2.52,4.12l-.12.18c-.92,1.47-1.83,2.9-2.73,4.26-.58.89-1.17,1.76-1.74,2.6-2.89,4.23-5.66,8-8.27,11.21-.53.65-1,1.28-1.55,1.89-1.53,1.85-3,3.53-4.4,5.06C37.29,51,31.3,54.58,30.79,54.89l0,1.31v3.28c0,1.72,0,3.39.12,5l0,.81c.08,1.56.19,3.08.32,4.58,0,.29.05.58.08.86.15,1.51.32,3,.52,4.42,0,.16.06.32.08.49.21,1.39.44,2.75.7,4.08l.09.47c.27,1.36.58,2.67.92,4,.06.25.12.49.19.74.33,1.26.7,2.49,1.09,3.7l.21.61c.41,1.24.85,2.46,1.33,3.64h0c.47,1.18,1,2.32,1.52,3.43l.26.54c.52,1.06,1.07,2.09,1.64,3.08l.34.58c.59,1,1.2,2,1.84,2.92l.23.32c.64.92,1.29,1.8,2,2.66l.24.3c.7.87,1.44,1.71,2.19,2.53l.44.47c.75.79,1.53,1.56,2.33,2.3l.42.38c.85.77,1.71,1.51,2.61,2.22h0c.89.71,1.82,1.38,2.77,2,.15.11.3.22.46.32.92.62,1.86,1.21,2.82,1.78a64.36,64.36,0,0,0,9.79,4.64c23.59-36.23,37.2-71.71,37.1-107l0-3.29ZM99.81,36.36q-.74,5.85-2,11.77a162.61,162.61,0,0,1-4.92,18q-1,3-2.15,6.09-2.28,6.12-5.09,12.35a262.59,262.59,0,0,1-17.31,32c-22.11-9.53-32.91-29.08-33-59.63A100.6,100.6,0,0,0,43,50.08c2.44-2.39,5.18-5.26,8.12-8.67.73-.86,1.48-1.74,2.24-2.67q2.28-2.76,4.7-6c.8-1.06,1.61-2.17,2.43-3.31q2.46-3.42,5-7.3c.85-1.29,1.7-2.63,2.56-4A41.91,41.91,0,0,0,73.18,20a44.55,44.55,0,0,0,27.72-1A132.3,132.3,0,0,1,99.81,36.36Z" transform="translate(-23.95 -7.33)"/><path class="cls-7" d="M58.57,118.76c-1-.57-1.9-1.16-2.82-1.78-.16-.1-.31-.21-.46-.32-.95-.65-1.88-1.32-2.77-2h0c-.9-.71-1.76-1.45-2.61-2.22l-.42-.38c-.8-.74-1.58-1.51-2.33-2.3l-.44-.47c-.75-.82-1.49-1.66-2.19-2.53l-.24-.3c-.68-.86-1.33-1.74-2-2.66l-.23-.32c-.64-.94-1.25-1.92-1.84-2.92l-.34-.58c-.57-1-1.12-2-1.64-3.08L38,96.32c-.53-1.11-1.05-2.25-1.52-3.43h0c-.48-1.18-.92-2.4-1.33-3.64l-.21-.61c-.39-1.21-.76-2.44-1.09-3.7-.07-.25-.13-.49-.19-.74-.34-1.3-.65-2.61-.92-4l-.09-.47c-.26-1.33-.49-2.69-.7-4.08,0-.17-.05-.33-.08-.49-.2-1.44-.37-2.91-.52-4.42,0-.28,0-.57-.08-.86-.13-1.5-.24-3-.32-4.58l0-.81c-.07-1.64-.12-3.31-.12-5V56.2l0-1.31-6.82-4,0,1.32v3.27c.09,30.29,10.21,49.07,28,59.44l6.82,4A2.07,2.07,0,0,0,58.57,118.76Z" transform="translate(-23.95 -7.33)"/><path class="cls-5" d="M46.14,41.31c1.4-1.53,2.87-3.21,4.4-5.06.51-.61,1-1.24,1.55-1.89,2.61-3.26,5.38-7,8.27-11.21.57-.84,1.16-1.71,1.74-2.6.9-1.36,1.81-2.79,2.73-4.26l.12-.18c.83-1.34,1.67-2.7,2.52-4.12L60.65,8C41.25,40.54,24.83,50.37,24,50.89l6.82,4C31.3,54.58,37.29,51,46.14,41.31Z" transform="translate(-23.95 -7.33)"/><g class="cls-8"><polygon class="cls-3" points="63.15 72.71 63.16 75.13 64.29 75.78 64.28 73.37 63.15 72.71"/><polygon class="cls-3" points="64.27 67.65 63.13 66.99 63.15 72.71 64.28 73.37 64.27 67.65"/><path class="cls-3" d="M88.16,74.39a.85.85,0,0,0-.06-.17,1.5,1.5,0,0,0-.1-.32c0-.06-.07-.11-.1-.16a1.21,1.21,0,0,0-.15-.22,1.49,1.49,0,0,0-.14-.12,1.32,1.32,0,0,0-.84-.32,2.49,2.49,0,0,1,.32,1.24l1.13.66A3.57,3.57,0,0,0,88.16,74.39Z" transform="translate(-23.95 -7.33)"/><path class="cls-3" d="M67.26,101.44,67.32,122l1.13.66-.06-21.24A2.53,2.53,0,0,1,67.26,101.44Z" transform="translate(-23.95 -7.33)"/><path class="cls-3" d="M88.2,70.19l-1.13-.66a4.1,4.1,0,0,0-2.71.63l1.13.66A4,4,0,0,1,88.2,70.19Z" transform="translate(-23.95 -7.33)"/><path class="cls-3" d="M68.39,97.71a1.85,1.85,0,0,1-.57.22,1.05,1.05,0,0,0,.43.57l.14,0,.12,0h.18a.56.56,0,0,0,.13,0,.87.87,0,0,0,.22,0l.12,0a2.39,2.39,0,0,0,.37-.17,4,4,0,0,0,1.78-3.11,1.7,1.7,0,0,0-.14-.71h0a1,1,0,0,0-.38-.43,1,1,0,0,0-.72-.09,1.65,1.65,0,0,1,.11.57A3.91,3.91,0,0,1,68.39,97.71Z" transform="translate(-23.95 -7.33)"/><path class="cls-3" d="M66,100.69a2.74,2.74,0,0,1-.41-.84l-.56.33a2,2,0,0,0,.45.41l1.13.66a2.37,2.37,0,0,1-.41-.37C66.18,100.81,66.1,100.77,66,100.69Z" transform="translate(-23.95 -7.33)"/><path class="cls-3" d="M88.17,59.2A10.72,10.72,0,0,1,87,60l0,9.56,1.13.66Z" transform="translate(-23.95 -7.33)"/><path class="cls-3" d="M69.51,91.62a4.6,4.6,0,0,1,.82-.38c.09,0,.17,0,.25,0a2.69,2.69,0,0,1,.52-.11,2.44,2.44,0,0,1,.27,0,1.94,1.94,0,0,1,.42,0,2.77,2.77,0,0,1,.26.1,1.71,1.71,0,0,1,.34.13h0l-1.13-.66a2.87,2.87,0,0,0-2.89.28,9.07,9.07,0,0,0-3.89,5.62l1.13.66A9,9,0,0,1,69.51,91.62Z" transform="translate(-23.95 -7.33)"/><polygon class="cls-3" points="32.67 99.53 32.7 108.07 33.83 108.73 33.8 100.19 32.67 99.53"/><polygon class="cls-3" points="41.67 89.9 40.54 89.25 37.64 90.92 38.77 91.58 41.67 89.9"/><path class="cls-3" d="M88.16,56.52,87,55.87A9.93,9.93,0,0,1,85.54,57l1.13.65A8.71,8.71,0,0,0,88.16,56.52Z" transform="translate(-23.95 -7.33)"/><path class="cls-3" d="M92.86,46.88l-1.13-.66a12,12,0,0,1-1.3,5.1V54A13,13,0,0,0,92.86,46.88Z" transform="translate(-23.95 -7.33)"/><path class="cls-3" d="M59.59,102a2.42,2.42,0,0,1-.6-.35c.07,0,.12.12.19.16l-.74-.43a10.52,10.52,0,0,0-1.82,5.46l1.14.65A10.39,10.39,0,0,1,59.59,102Z" transform="translate(-23.95 -7.33)"/><path class="cls-3" d="M85.49,70.82l-1.13-.66L72.81,76.83a2.63,2.63,0,0,1,.55,1Z" transform="translate(-23.95 -7.33)"/><path class="cls-3" d="M60.8,99.1a1.57,1.57,0,0,0,.23.09l.17.07h.46A2.49,2.49,0,0,0,62,99.2a.9.9,0,0,0,.16,0,3.87,3.87,0,0,0,.55-.26l-1.13-.65a2.42,2.42,0,0,1-1.27.35A1.41,1.41,0,0,0,60.8,99.1Z" transform="translate(-23.95 -7.33)"/><path class="cls-3" d="M71.13,79.62a1,1,0,0,0-.37-.42h0a.94.94,0,0,0-.71-.08,1.61,1.61,0,0,1,.11.57,4,4,0,0,1-1.79,3.1l1.13.66a3.93,3.93,0,0,0,1.79-3.1,1.66,1.66,0,0,0-.14-.71Z" transform="translate(-23.95 -7.33)"/><path class="cls-3" d="M67.77,83a1,1,0,0,0,.43.58l.15.05.12,0a1.2,1.2,0,0,0,.19,0h.12l.23-.05.11,0a2.92,2.92,0,0,0,.36-.17l-1.13-.66A1.64,1.64,0,0,1,67.77,83Z" transform="translate(-23.95 -7.33)"/><polygon class="cls-3" points="64.19 41.39 63.06 40.74 63.08 48.53 64.21 49.19 64.19 41.39"/><path class="cls-3" d="M59,101.68a1.71,1.71,0,0,1-.26-.21,2.25,2.25,0,0,1-.34-.41c-.06-.1-.14-.19-.19-.29a3.8,3.8,0,0,1-.24-.62,3,3,0,0,1-.1-.32,5.12,5.12,0,0,1-.13-1.15L56.6,98a3.44,3.44,0,0,0,1.45,3.17l.39.22.74.43C59.11,101.8,59.06,101.73,59,101.68Z" transform="translate(-23.95 -7.33)"/><path class="cls-3" d="M86.67,57.61,85.54,57l-7.33,4.23a2.45,2.45,0,0,1,.53,1Z" transform="translate(-23.95 -7.33)"/><path class="cls-3" d="M71,76.17h.16c.1,0,.21,0,.32,0a1,1,0,0,1,.17,0l.27,0,.17.07.22.1h0l-1.13-.65a2.11,2.11,0,0,0-.87-.27,5.68,5.68,0,0,1,.15.76A5.09,5.09,0,0,1,71,76.17Z" transform="translate(-23.95 -7.33)"/><path class="cls-3" d="M88.09,48.14,88,48a3,3,0,0,0-.1-.32l-.1-.15a1.3,1.3,0,0,0-.15-.23.88.88,0,0,0-.15-.12,1.39,1.39,0,0,0-.19-.15h0a1.28,1.28,0,0,0-.65-.16A2.25,2.25,0,0,1,87,48.07l1.13.66A3.51,3.51,0,0,0,88.09,48.14Z" transform="translate(-23.95 -7.33)"/><path class="cls-3" d="M76.52,64a.92.92,0,0,0-.38-.42h0a1,1,0,0,0-.72-.08,1.66,1.66,0,0,1,.12.58,3.91,3.91,0,0,1-1.79,3.09l1.13.66a3.94,3.94,0,0,0,1.79-3.1,1.66,1.66,0,0,0-.14-.71Z" transform="translate(-23.95 -7.33)"/><path class="cls-3" d="M73.17,67.37a1,1,0,0,0,.43.57l.15.06.11,0h.19a.48.48,0,0,0,.12,0,1.06,1.06,0,0,0,.23,0l.11,0a2.31,2.31,0,0,0,.36-.17l-1.13-.66A1.85,1.85,0,0,1,73.17,67.37Z" transform="translate(-23.95 -7.33)"/><path class="cls-3" d="M66.1,85.94a2,2,0,0,1-.22-.34c0-.08-.11-.15-.16-.24a3.26,3.26,0,0,1-.16-.5,1.68,1.68,0,0,1-.07-.24,4.13,4.13,0,0,1-.09-.89,9,9,0,0,1,2.82-6.07L67.08,77a9,9,0,0,0-2.81,6.07,2.86,2.86,0,0,0,1.19,2.62l1.13.66a1.94,1.94,0,0,1-.27-.23A1.32,1.32,0,0,1,66.1,85.94Z" transform="translate(-23.95 -7.33)"/><path class="cls-3" d="M68,77l0-.09a1.37,1.37,0,0,0-.42-.41,1.43,1.43,0,0,0-.68-.21,2,2,0,0,1,.26.73h0l1.14.66A2.09,2.09,0,0,0,68,77Z" transform="translate(-23.95 -7.33)"/><path class="cls-3" d="M57.71,92.52a2.41,2.41,0,0,1-1.12-.12V98l1.13.66Z" transform="translate(-23.95 -7.33)"/><path class="cls-3" d="M86.43,44.1l.3-.06a3.77,3.77,0,0,1,.63-.14c.13,0,.24,0,.36,0a3.79,3.79,0,0,1,.49,0,1.85,1.85,0,0,1,.33.12,2.5,2.5,0,0,1,.41.16h0l-1.13-.66a3.52,3.52,0,0,0-3.54.35l1.13.66A5.36,5.36,0,0,1,86.43,44.1Z" transform="translate(-23.95 -7.33)"/><path class="cls-3" d="M58.58,88.32l1.14.66A4,4,0,0,0,61,86.28l-1.13-.66A4,4,0,0,1,58.58,88.32Z" transform="translate(-23.95 -7.33)"/><polygon class="cls-3" points="33.58 81.6 34.71 82.26 35.77 81.65 34.63 80.99 33.58 81.6"/><path class="cls-3" d="M83.54,45.65l1.88-1.08-1.13-.66L83,44.68A2.39,2.39,0,0,1,83.54,45.65Z" transform="translate(-23.95 -7.33)"/><path class="cls-3" d="M60.84,85.56a1,1,0,0,0-.37-.42,1,1,0,0,0-.74-.09,1.45,1.45,0,0,1,.12.57l1.13.66a1.66,1.66,0,0,0-.14-.71Z" transform="translate(-23.95 -7.33)"/><path class="cls-3" d="M57.48,88.94a.92.92,0,0,0,.59.61.28.28,0,0,0,.13,0,1,1,0,0,0,.46,0l-1.13-.66Z" transform="translate(-23.95 -7.33)"/><path class="cls-3" d="M71.49,70.31a1.66,1.66,0,0,1-.22-.34,1.43,1.43,0,0,1-.16-.24,3,3,0,0,1-.16-.48c0-.09-.06-.16-.08-.25a6.09,6.09,0,0,1-.09-.9,9,9,0,0,1,4.07-7,4.64,4.64,0,0,1,.76-.35l.23-.06a2.77,2.77,0,0,1,.48-.11h.24a1.94,1.94,0,0,1,.42,0l.22,0a2,2,0,0,1,.4.16l.12,0-1.13-.65a2.85,2.85,0,0,0-2.87.27,9,9,0,0,0-4.07,7.05,2.86,2.86,0,0,0,1.2,2.61l1.13.66a3.11,3.11,0,0,1-.28-.23A1.81,1.81,0,0,1,71.49,70.31Z" transform="translate(-23.95 -7.33)"/><path class="cls-3" d="M66.51,73.57c.1,0,.2,0,.3-.08a4.62,4.62,0,0,1,.6-.13c.12,0,.22,0,.33,0a2.74,2.74,0,0,1,.5,0,2.8,2.8,0,0,1,.31.09,2.9,2.9,0,0,1,.41.16l.1,0L67.93,73a3.47,3.47,0,0,0-3.53.34l1.13.65A5.94,5.94,0,0,1,66.51,73.57Z" transform="translate(-23.95 -7.33)"/><path class="cls-3" d="M81.35,47.56a.92.92,0,0,0-.38-.42,1,1,0,0,0-.73-.1,1.66,1.66,0,0,1,.12.58,4,4,0,0,1-1.79,3.11l1.13.65a4,4,0,0,0,1.79-3.1,1.66,1.66,0,0,0-.14-.71Z" transform="translate(-23.95 -7.33)"/><path class="cls-3" d="M78,50.94a1,1,0,0,0,.43.57.67.67,0,0,0,.15.06l.12,0H79l.21-.05a.5.5,0,0,0,.13,0,1.66,1.66,0,0,0,.36-.17l-1.13-.65A1.86,1.86,0,0,1,78,50.94Z" transform="translate(-23.95 -7.33)"/><path class="cls-3" d="M61.16,82.12l.18,0a2.06,2.06,0,0,1,.7.23h0l-1.14-.66a1.94,1.94,0,0,0-.63-.2v.66A2.8,2.8,0,0,1,61.16,82.12Z" transform="translate(-23.95 -7.33)"/><path class="cls-3" d="M55.82,91.88a1,1,0,0,1-.08-.11,2.11,2.11,0,0,1-.26-.4,1.76,1.76,0,0,1-.09-.2,3.37,3.37,0,0,1-.15-.48,1.6,1.6,0,0,1-.05-.21,4.12,4.12,0,0,1-.08-.81A9,9,0,0,1,58,83.5l-1.13-.65A9,9,0,0,0,54,89a2.82,2.82,0,0,0,1.18,2.6l1.13.66,0,0A1.78,1.78,0,0,1,55.82,91.88Z" transform="translate(-23.95 -7.33)"/><polygon class="cls-3" points="68.84 12.16 67.71 11.51 67.78 38.89 68.91 39.54 68.84 12.16"/><polygon class="cls-3" points="71.11 10.85 69.98 10.19 67.71 11.51 68.84 12.16 71.11 10.85"/><polygon class="cls-3" points="34.07 73.64 32.94 74.29 32.95 75.51 34.08 76.17 34.07 73.64"/><polygon class="cls-3" points="41.58 66.68 40.45 66.02 36.34 68.39 36.35 69.7 41.58 66.68"/><path class="cls-3" d="M88.09,29,87,28.38a5.9,5.9,0,0,1-2.69,4.67l1.13.66A6,6,0,0,0,88.09,29Z" transform="translate(-23.95 -7.33)"/><path class="cls-3" d="M76.31,53.88a3,3,0,0,1-.22-.35,1.82,1.82,0,0,1-.15-.23,3.52,3.52,0,0,1-.16-.49c0-.09-.06-.16-.08-.25a4.91,4.91,0,0,1-.08-.89,9,9,0,0,1,4.06-7,6.06,6.06,0,0,1,.75-.34l.23-.06a3,3,0,0,1,.48-.11l.24,0a3,3,0,0,1,.43,0l.2,0a3,3,0,0,1,.5.19l0,0-1.13-.66a2.85,2.85,0,0,0-2.87.28,9,9,0,0,0-4.07,7,2.88,2.88,0,0,0,1.19,2.62l1.13.65a2.83,2.83,0,0,1-.28-.23C76.46,54,76.38,54,76.31,53.88Z" transform="translate(-23.95 -7.33)"/><path class="cls-3" d="M60.94,69.56l1.14.66A13.11,13.11,0,0,0,67,64.68a12.87,12.87,0,0,0,1.27-4.27,2.46,2.46,0,0,1-1.24,0A13.81,13.81,0,0,1,60.94,69.56Z" transform="translate(-23.95 -7.33)"/><path class="cls-3" d="M80.49,36.54l4.9-2.83-1.13-.66-4.4,2.54A2.33,2.33,0,0,1,80.49,36.54Z" transform="translate(-23.95 -7.33)"/><polygon class="cls-3" points="34.05 67.86 32.93 68.51 32.93 70.37 34.06 71.02 34.05 67.86"/><polygon class="cls-3" points="36.33 62.61 36.33 63.92 38.12 62.88 36.99 62.23 36.33 62.61"/><path class="cls-3" d="M68.4,57.55h.31l.21,0,.12,0a2,2,0,0,0,.37-.16,4,4,0,0,0,1.79-3.11,1.66,1.66,0,0,0-.14-.71h0a.82.82,0,0,0-.38-.42A1,1,0,0,0,70,53a1.66,1.66,0,0,1,.12.58,4,4,0,0,1-1.79,3.11,1.64,1.64,0,0,1-.58.21,1,1,0,0,0,.43.57l.15.06Z" transform="translate(-23.95 -7.33)"/><polygon class="cls-3" points="64.11 13.56 62.98 12.91 63 21.05 64.14 21.7 64.11 13.56"/><polygon class="cls-3" points="66.39 12.25 65.26 11.59 62.98 12.91 64.11 13.56 66.39 12.25"/><path class="cls-3" d="M75,41.93a1.1,1.1,0,0,0,.43.57l.16.06.11,0H76a.65.65,0,0,0,.18,0,.8.8,0,0,0,.15,0,2.39,2.39,0,0,0,.37-.17l-1.13-.66A1.9,1.9,0,0,1,75,41.93Z" transform="translate(-23.95 -7.33)"/><path class="cls-3" d="M78.33,38.55a1,1,0,0,0-.38-.43,1,1,0,0,0-.72-.09,1.66,1.66,0,0,1,.11.58,3.94,3.94,0,0,1-1.79,3.1l1.13.66a4,4,0,0,0,1.8-3.1,1.74,1.74,0,0,0-.15-.72Z" transform="translate(-23.95 -7.33)"/><polygon class="cls-3" points="34.06 71.02 32.93 70.37 27.37 73.57 28.51 74.23 34.06 71.02"/><path class="cls-3" d="M71.38,50.07h.18a2.06,2.06,0,0,1,.7.23h0l-1.13-.66a1.94,1.94,0,0,0-.63-.2v.67A2.8,2.8,0,0,1,71.38,50.07Z" transform="translate(-23.95 -7.33)"/><path class="cls-3" d="M64.19,57a2.86,2.86,0,0,0,1.19,2.6l1.13.65a.39.39,0,0,1-.1-.08,1.4,1.4,0,0,1-.33-.27l-.14-.16a2.56,2.56,0,0,1-.22-.35,1.51,1.51,0,0,1-.11-.22,3.1,3.1,0,0,1-.15-.46l-.06-.23a6.91,6.91,0,0,1-.08-.82,9.1,9.1,0,0,1,2.92-6.16l-1.13-.66a9.22,9.22,0,0,0-1.38,1.64,9.81,9.81,0,0,1-1.17,2.39A7.07,7.07,0,0,0,64.19,57Z" transform="translate(-23.95 -7.33)"/><path class="cls-3" d="M58,67.57c-.36.38-.74.72-1.12,1.06v3.29l1.14.65Z" transform="translate(-23.95 -7.33)"/><path class="cls-9" d="M78.81,35.11a2.37,2.37,0,0,0-.47,0l-.22,0a3,3,0,0,0-.49.1l-.22.07a4.87,4.87,0,0,0-.75.34,9,9,0,0,0-4.06,7,4.13,4.13,0,0,0,.09.89,2.41,2.41,0,0,0,.08.25,2.56,2.56,0,0,0,.16.49,1.82,1.82,0,0,0,.15.23,3,3,0,0,0,.22.35,1.84,1.84,0,0,0,.22.17,2.67,2.67,0,0,0,3.17,0,9.17,9.17,0,0,0,4-5.92l4.76-2.75a10.93,10.93,0,0,0,5-8.6l0-8.14L88.06,20.9l0,8.14a6,6,0,0,1-2.7,4.67l-4.9,2.83a2.33,2.33,0,0,0-.63-.95,1.7,1.7,0,0,0-.34-.26,2,2,0,0,0-.55-.2Zm-2.13,7.26a2.39,2.39,0,0,1-.37.17.8.8,0,0,1-.15,0,.65.65,0,0,1-.18,0h-.31l-.11,0-.16-.06a1.1,1.1,0,0,1-.43-.57,2,2,0,0,1-.09-.58,3.92,3.92,0,0,1,1.78-3.11,1.59,1.59,0,0,1,.57-.21,1,1,0,0,1,.72.09,1,1,0,0,1,.38.43h0a1.74,1.74,0,0,1,.15.72A4,4,0,0,1,76.68,42.37Z" transform="translate(-23.95 -7.33)"/><path class="cls-3" d="M72.66,44.61l1.13.66a1.94,1.94,0,0,1-.27-.23,1.84,1.84,0,0,1-.22-.17,3,3,0,0,1-.22-.35,1.82,1.82,0,0,1-.15-.23,2.56,2.56,0,0,1-.16-.49,2.41,2.41,0,0,1-.08-.25,4.13,4.13,0,0,1-.09-.89,9,9,0,0,1,4.06-7,4.87,4.87,0,0,1,.75-.34l.22-.07a3,3,0,0,1,.49-.1l.22,0a2.37,2.37,0,0,1,.47,0l.16,0a2,2,0,0,1,.55.2s0,0,0,0l-1.14-.66a2.86,2.86,0,0,0-2.87.29,8.94,8.94,0,0,0-4.06,7A2.86,2.86,0,0,0,72.66,44.61Z" transform="translate(-23.95 -7.33)"/><polygon class="cls-3" points="28.51 74.23 27.37 73.57 20.64 77.46 21.77 78.12 28.51 74.23"/><polygon class="cls-3" points="34.02 57 32.89 56.34 32.89 56.63 34.02 57.29 34.02 57"/><path class="cls-3" d="M59.94,61.25a12.76,12.76,0,0,0,.91-3.46,2.62,2.62,0,0,1-1.25,0A12.26,12.26,0,0,1,59,60,2.94,2.94,0,0,1,59.94,61.25Z" transform="translate(-23.95 -7.33)"/><path class="cls-3" d="M58,64.62,56.84,64a11.51,11.51,0,0,1-3.28,3l1.14.65A11.63,11.63,0,0,0,58,64.62Z" transform="translate(-23.95 -7.33)"/><path class="cls-3" d="M57.92,63.74c0-.07,0-.11-.06-.17a3.18,3.18,0,0,0-.1-.33l-.1-.14a1.2,1.2,0,0,0-.15-.24l-.14-.11a1.33,1.33,0,0,0-.85-.32,2.27,2.27,0,0,1,.32,1.24l1.13.66A3.61,3.61,0,0,0,57.92,63.74Z" transform="translate(-23.95 -7.33)"/><path class="cls-3" d="M45.72,85.45l-1.13-.66a11,11,0,0,0-5,8.62l1.14.66A11,11,0,0,1,45.72,85.45Z" transform="translate(-23.95 -7.33)"/><path class="cls-3" d="M61,54.94h.31l.22-.05.12,0a2.31,2.31,0,0,0,.36-.17,3.94,3.94,0,0,0,1.79-3.1,1.66,1.66,0,0,0-.14-.71h0a1,1,0,0,0-.38-.43h0a.94.94,0,0,0-.71-.08,1.92,1.92,0,0,1,.11.57,3.94,3.94,0,0,1-1.79,3.1,1.59,1.59,0,0,1-.57.21,1,1,0,0,0,.43.58l.14,0Z" transform="translate(-23.95 -7.33)"/><path class="cls-3" d="M68.22,41.52a2.61,2.61,0,0,1-1.14,0l0,9.23,1.13.66Z" transform="translate(-23.95 -7.33)"/><path class="cls-3" d="M68.35,38.68h.3l.22-.05.12,0a2.39,2.39,0,0,0,.37-.17,4,4,0,0,0,1.78-3.11,1.66,1.66,0,0,0-.14-.71h0a1,1,0,0,0-.38-.43h0a1,1,0,0,0-.71-.08,1.65,1.65,0,0,1,.11.57,4,4,0,0,1-1.78,3.11,2,2,0,0,1-.58.22,1,1,0,0,0,.43.56.59.59,0,0,0,.14.06S68.3,38.68,68.35,38.68Z" transform="translate(-23.95 -7.33)"/><path class="cls-3" d="M56.16,59.74a1.62,1.62,0,0,1,.27-.08,3.51,3.51,0,0,1,.61-.13,1.24,1.24,0,0,1,.27,0,2.66,2.66,0,0,1,.57,0l.19,0a2.46,2.46,0,0,1,.67.26h0l-1.13-.66a3.5,3.5,0,0,0-3.52.34l1.13.66A5.22,5.22,0,0,1,56.16,59.74Z" transform="translate(-23.95 -7.33)"/><path class="cls-3" d="M71.33,31.19l.17,0a1.86,1.86,0,0,1,.7.23h0l-1.13-.66a2.19,2.19,0,0,0-.64-.21v.67A2.77,2.77,0,0,1,71.33,31.19Z" transform="translate(-23.95 -7.33)"/><path class="cls-3" d="M58.7,57.23l-.14-.16a2.07,2.07,0,0,1-.22-.35,2.12,2.12,0,0,1-.11-.21,3.23,3.23,0,0,1-.15-.47L58,55.82a5.18,5.18,0,0,1-.08-.82A9,9,0,0,1,62,48a4.94,4.94,0,0,1,.82-.38l.27-.06a3.16,3.16,0,0,1,.5-.1,2.53,2.53,0,0,1,.28,0,1.94,1.94,0,0,1,.42,0,2.5,2.5,0,0,1,.25.09,2.09,2.09,0,0,1,.35.13L63.78,47a2.88,2.88,0,0,0-2.9.28,9,9,0,0,0-4.06,7.05A2.83,2.83,0,0,0,58,56.93l1.14.65a.87.87,0,0,1-.1-.08A1.7,1.7,0,0,1,58.7,57.23Z" transform="translate(-23.95 -7.33)"/><polygon class="cls-3" points="40.96 40.35 40.95 40.34 40.95 40.34 40.96 40.35"/><polygon class="cls-3" points="12.4 76.42 12.41 79.04 13.54 79.7 13.54 77.08 12.4 76.42"/><polygon class="cls-3" points="34.04 65.24 32.91 64.58 12.4 76.42 13.54 77.08 34.04 65.24"/><path class="cls-3" d="M66,41a1.14,1.14,0,0,1-.15-.17,2.07,2.07,0,0,1-.22-.35,2.12,2.12,0,0,1-.11-.21,3.23,3.23,0,0,1-.15-.47l-.06-.23a4.15,4.15,0,0,1-.08-.82A8.77,8.77,0,0,1,67,33.89a9.93,9.93,0,0,1,1.17-1.32l-1.13-.65a9.1,9.1,0,0,0-2.92,6.16,2.85,2.85,0,0,0,1.18,2.6l1.13.65a.87.87,0,0,1-.11-.09A1.73,1.73,0,0,1,66,41Z" transform="translate(-23.95 -7.33)"/><path class="cls-3" d="M54.31,51.49a13.87,13.87,0,0,0,4.89-9.82L58.07,41a13.82,13.82,0,0,1-4.47,9.43A2.31,2.31,0,0,1,54.31,51.49Z" transform="translate(-23.95 -7.33)"/><path class="cls-3" d="M48.77,56.81a1,1,0,0,0,.43.57.67.67,0,0,0,.15.06l.11,0h.31l.15,0,.19,0a2.68,2.68,0,0,0,.36-.16l-1.13-.66A1.81,1.81,0,0,1,48.77,56.81Z" transform="translate(-23.95 -7.33)"/><path class="cls-3" d="M49.34,56.6l1.13.66a4,4,0,0,0,1.79-3.11,1.59,1.59,0,0,0-.15-.72h0a1,1,0,0,0-.38-.43,1,1,0,0,0-.72-.09,1.66,1.66,0,0,1,.11.58A4,4,0,0,1,49.34,56.6Z" transform="translate(-23.95 -7.33)"/><polygon class="cls-3" points="30.75 60.27 29.61 59.61 10.68 70.54 11.81 71.2 30.75 60.27"/><polygon class="cls-3" points="10.68 70.54 10.69 73.17 11.82 73.82 11.81 71.2 10.68 70.54"/><path class="cls-3" d="M47.05,59.63a1.71,1.71,0,0,1-.11-.14,2.76,2.76,0,0,1-.37-.75l-.56.32a1.87,1.87,0,0,0,.47.42l1.13.66a0,0,0,0,1,0,0A1.8,1.8,0,0,1,47.05,59.63Z" transform="translate(-23.95 -7.33)"/><polygon class="cls-3" points="46.48 9.55 45.35 8.89 43.07 10.21 44.2 10.87 46.48 9.55"/><polygon class="cls-3" points="44.2 10.87 43.07 10.21 43.1 24.58 44.24 25.24 44.2 10.87"/><path class="cls-3" d="M50.45,50.51a5,5,0,0,1,.75-.35l.22-.06a3.38,3.38,0,0,1,.49-.11l.23,0a2.2,2.2,0,0,1,.45,0,1,1,0,0,1,.18,0,1.8,1.8,0,0,1,.56.21h0l-1.13-.66a2.85,2.85,0,0,0-2.88.28,9.07,9.07,0,0,0-3.89,5.62l1.13.65A9.08,9.08,0,0,1,50.45,50.51Z" transform="translate(-23.95 -7.33)"/><polygon class="cls-3" points="37.51 19.72 36.38 19.06 34.09 20.38 35.22 21.04 37.51 19.72"/><polygon class="cls-3" points="35.22 21.04 34.09 20.38 34.12 33.67 35.25 34.33 35.22 21.04"/><polygon class="cls-3" points="10.28 63.65 10.29 66.27 11.42 66.93 11.41 64.3 10.28 63.65"/><polygon class="cls-3" points="31.3 52.82 30.17 52.16 10.28 63.65 11.41 64.3 31.3 52.82"/><path class="cls-9" d="M90.49,73.67l0-16.66a18.59,18.59,0,0,0,4.7-11.45l-.07-27.38L92.79,19.5l.07,27.38A13,13,0,0,1,90.43,54V47.42A3.49,3.49,0,0,0,89,44.22a2.5,2.5,0,0,0-.41-.16,1.85,1.85,0,0,0-.33-.12,3.79,3.79,0,0,0-.49,0c-.12,0-.23,0-.36,0a3.77,3.77,0,0,0-.63.14l-.3.06a5.36,5.36,0,0,0-1,.47l-1.88,1.08a2.39,2.39,0,0,0-.58-1,2.05,2.05,0,0,0-.45-.34,3,3,0,0,0-.5-.19l-.2,0a3,3,0,0,0-.43,0l-.24,0a3,3,0,0,0-.48.11l-.23.06a6.06,6.06,0,0,0-.75.34,9,9,0,0,0-4.06,7,4.91,4.91,0,0,0,.08.89c0,.09.06.16.08.25a3.52,3.52,0,0,0,.16.49,1.82,1.82,0,0,0,.15.23,3,3,0,0,0,.22.35c.07.07.15.11.21.17.75.65,1.89.7,3.19,0a9.08,9.08,0,0,0,3.91-5.78l1.81-1a2.32,2.32,0,0,1,1.26-.35,1.28,1.28,0,0,1,.65.16h0a1.39,1.39,0,0,1,.19.15.88.88,0,0,1,.15.12,1.3,1.3,0,0,1,.15.23l.1.15A3,3,0,0,1,88,48l.06.18a3.51,3.51,0,0,1,0,.59l0,7.79a8.71,8.71,0,0,1-1.49,1.09l-7.93,4.58a2.45,2.45,0,0,0-.53-1,2,2,0,0,0-.61-.45,2,2,0,0,0-.4-.16l-.22,0a1.94,1.94,0,0,0-.42,0h-.24a2.77,2.77,0,0,0-.48.11l-.23.06a4.64,4.64,0,0,0-.76.35,9,9,0,0,0-4.07,7,6.09,6.09,0,0,0,.09.9c0,.09.06.16.08.25a3,3,0,0,0,.16.48,1.43,1.43,0,0,0,.16.24,1.66,1.66,0,0,0,.22.34,1.81,1.81,0,0,0,.21.18,2.68,2.68,0,0,0,3.18,0,9.08,9.08,0,0,0,3.88-5.64l7.92-4.57L87,60a10.72,10.72,0,0,0,1.13-.77l0,11a4,4,0,0,0-2.71.63l-12.13,7a2.63,2.63,0,0,0-.55-1,2.19,2.19,0,0,0-.5-.41l-.22-.1-.17-.07-.27,0a1,1,0,0,0-.17,0c-.11,0-.22,0-.32,0H71a5.09,5.09,0,0,0-.51.1,5.68,5.68,0,0,0-.15-.76,2.54,2.54,0,0,0-1.79-2,2.8,2.8,0,0,0-.31-.09,2.74,2.74,0,0,0-.5,0c-.11,0-.21,0-.33,0a4.62,4.62,0,0,0-.6.13c-.1,0-.2,0-.3.08a5.94,5.94,0,0,0-1,.44L60.3,77V73.87l1.79-1c4.42-2.55,8-8.53,8.43-13.72a9,9,0,0,0,3-6.21,2.77,2.77,0,0,0-1.21-2.59,2.06,2.06,0,0,0-.7-.23h-.18a2.8,2.8,0,0,0-.85.06v-.67l0-9.26A9,9,0,0,0,73.42,34a2.78,2.78,0,0,0-1.22-2.6,1.86,1.86,0,0,0-.7-.23l-.17,0a2.77,2.77,0,0,0-.85.06v-.67l0-13.7L68.15,18.2l0,14.37A9.93,9.93,0,0,0,67,33.89a8.77,8.77,0,0,0-1.75,4.85,4.15,4.15,0,0,0,.08.82l.06.23a3.23,3.23,0,0,0,.15.47,2.12,2.12,0,0,0,.11.21,2.07,2.07,0,0,0,.22.35A1.14,1.14,0,0,0,66,41a1.73,1.73,0,0,0,.3.25,2,2,0,0,0,.74.32,2.61,2.61,0,0,0,1.14,0l0,9.93a9.1,9.1,0,0,0-2.92,6.16,6.91,6.91,0,0,0,.08.82l.06.23a3.1,3.1,0,0,0,.15.46,1.51,1.51,0,0,0,.11.22,2.56,2.56,0,0,0,.22.35l.14.16a1.4,1.4,0,0,0,.33.27,1.87,1.87,0,0,0,.57.27,2.46,2.46,0,0,0,1.24,0h0A12.87,12.87,0,0,1,67,64.68a13.11,13.11,0,0,1-4.87,5.54l-1.8,1V70l0-5.34a18.19,18.19,0,0,0,2.88-8.11,8.89,8.89,0,0,0,1.42-1.68,9.81,9.81,0,0,0,1.17-2.39,6.85,6.85,0,0,0,.38-2.14,2.85,2.85,0,0,0-1.21-2.61h0a2.09,2.09,0,0,0-.35-.13,2.5,2.5,0,0,0-.25-.09,1.94,1.94,0,0,0-.42,0,2.53,2.53,0,0,0-.28,0,3.16,3.16,0,0,0-.5.1l-.27.06A4.94,4.94,0,0,0,62,48a9,9,0,0,0-4.07,7,5.18,5.18,0,0,0,.08.82l.06.22a3.23,3.23,0,0,0,.15.47,2.12,2.12,0,0,0,.11.21,2.07,2.07,0,0,0,.22.35l.14.16a1.7,1.7,0,0,0,.33.27,1.87,1.87,0,0,0,.57.27,2.62,2.62,0,0,0,1.25,0,12.76,12.76,0,0,1-.91,3.46A2.94,2.94,0,0,0,59,60a1.65,1.65,0,0,0-.27-.19,2.46,2.46,0,0,0-.67-.26l-.19,0a2.66,2.66,0,0,0-.57,0,1.24,1.24,0,0,0-.27,0,3.51,3.51,0,0,0-.61.13,2,2,0,0,0-.27.08,5.22,5.22,0,0,0-.91.42L35.37,71.64v2.62L55.26,62.78a2.42,2.42,0,0,1,1.26-.35,1.33,1.33,0,0,1,.85.32l.14.11a1.2,1.2,0,0,1,.15.24l.1.14a3.18,3.18,0,0,1,.1.33c0,.06,0,.1.06.17a3.61,3.61,0,0,1,0,.59v.29a11.63,11.63,0,0,1-3.28,3L35.77,78.53v2.63L54.71,70.23a13.93,13.93,0,0,0,2.15-1.6c.38-.34.76-.68,1.12-1.06l0,5L37.49,84.42V87L56.88,75.84,58,75.19v3.17l-5.55,3.2-6.74,3.89a11,11,0,0,0-5,8.62l2.33.52,0-1.84a6,6,0,0,1,2.7-4.68l6.73-3.89,4.43-2.56L58,81V83.5a9,9,0,0,0-2.92,6.17,4.12,4.12,0,0,0,.08.81,1.6,1.6,0,0,0,.05.21,3.37,3.37,0,0,0,.15.48,1.76,1.76,0,0,0,.09.2,2.11,2.11,0,0,0,.26.4,1,1,0,0,0,.08.11,1.78,1.78,0,0,0,.45.37,2.37,2.37,0,0,0,.32.15,2.41,2.41,0,0,0,1.12.12l0,6.16a5.12,5.12,0,0,0,.13,1.15,3,3,0,0,0,.1.32,3.8,3.8,0,0,0,.24.62c0,.1.13.19.19.29a2.25,2.25,0,0,0,.34.41,1.71,1.71,0,0,0,.26.21,2.42,2.42,0,0,0,.6.35,10.39,10.39,0,0,0-1.83,5.49l0,8.54,2.28-1.31,0-8.54a6,6,0,0,1,2.7-4.68l2.34-1.35.56-.33a2.74,2.74,0,0,0,.41.84c.06.08.14.12.2.19a2,2,0,0,0,1,.56,2.53,2.53,0,0,0,1.13,0l.06,21.24,2.28-1.32-.06-21.24A9,9,0,0,0,73.59,94a2.81,2.81,0,0,0-1.2-2.61,1.71,1.71,0,0,0-.34-.13,2.77,2.77,0,0,0-.26-.1,1.94,1.94,0,0,0-.42,0,2.44,2.44,0,0,0-.27,0,2.69,2.69,0,0,0-.52.11c-.08,0-.16,0-.25,0a4.6,4.6,0,0,0-.82.38,9,9,0,0,0-3.89,5.62l-2.9,1.67a3.87,3.87,0,0,1-.55.26.9.9,0,0,1-.16,0,2.49,2.49,0,0,1-.35.08H61.2L61,99.19a1.57,1.57,0,0,1-.23-.09,1.41,1.41,0,0,1-.48-.49A2.39,2.39,0,0,1,60,97.37l0-5.92A9.12,9.12,0,0,0,63.26,85,2.8,2.8,0,0,0,62,82.37a2.06,2.06,0,0,0-.7-.23l-.18,0a2.8,2.8,0,0,0-.85.06V79.65l5.23-3a2.34,2.34,0,0,1,1.28-.36,1.43,1.43,0,0,1,.68.21,1.37,1.37,0,0,1,.42.41L68,77a2.09,2.09,0,0,1,.25.68,9,9,0,0,0-2.82,6.07,4.13,4.13,0,0,0,.09.89,1.68,1.68,0,0,0,.07.24,3.26,3.26,0,0,0,.16.5c0,.09.11.16.16.24a2,2,0,0,0,.22.34,1.32,1.32,0,0,0,.22.18c.75.64,1.88.69,3.17-.06a9,9,0,0,0,3.88-5.62l12.13-7a2.45,2.45,0,0,1,1.27-.35,1.32,1.32,0,0,1,.84.32,1.49,1.49,0,0,1,.14.12,1.21,1.21,0,0,1,.15.22c0,.05.07.1.1.16a1.5,1.5,0,0,1,.1.32.85.85,0,0,1,.06.17,3.57,3.57,0,0,1,.06.59v8.14l2.28-1.31V79.39ZM79.7,51.38a1.66,1.66,0,0,1-.36.17.5.5,0,0,1-.13,0l-.21.05h-.31l-.12,0-.15-.06a1,1,0,0,1-.43-.57,1.73,1.73,0,0,1-.1-.59,4,4,0,0,1,1.8-3.1,2,2,0,0,1,.55-.21,1,1,0,0,1,.73.1.92.92,0,0,1,.38.42h0a1.66,1.66,0,0,1,.14.71A4,4,0,0,1,79.7,51.38ZM74.87,67.81a2.31,2.31,0,0,1-.36.17l-.11,0a1.06,1.06,0,0,1-.23,0,.48.48,0,0,1-.12,0h-.19l-.11,0-.15-.06a1,1,0,0,1-.43-.57,1.73,1.73,0,0,1-.1-.59,3.91,3.91,0,0,1,1.79-3.09,1.72,1.72,0,0,1,.55-.21,1,1,0,0,1,.72.08h0a.92.92,0,0,1,.38.42h0a1.66,1.66,0,0,1,.14.71A3.94,3.94,0,0,1,74.87,67.81ZM68.08,38.58a1,1,0,0,1-.43-.56,1.82,1.82,0,0,1-.1-.59,4,4,0,0,1,1.79-3.11,1.73,1.73,0,0,1,.56-.2,1,1,0,0,1,.71.08h0a1,1,0,0,1,.38.43h0a1.66,1.66,0,0,1,.14.71,4,4,0,0,1-1.78,3.11,2.39,2.39,0,0,1-.37.17l-.12,0-.22.05h-.13a.47.47,0,0,1-.17,0s-.08,0-.13,0A.59.59,0,0,1,68.08,38.58Zm0,18.87a1,1,0,0,1-.43-.57,1.73,1.73,0,0,1-.1-.59,4,4,0,0,1,1.8-3.1A2,2,0,0,1,70,53a1,1,0,0,1,.72.1.82.82,0,0,1,.38.42h0a1.66,1.66,0,0,1,.14.71,4,4,0,0,1-1.79,3.11,2,2,0,0,1-.37.16l-.12,0-.21,0H68.4l-.12,0Zm-7.37-2.61a1,1,0,0,1-.43-.58,1.63,1.63,0,0,1-.1-.58A3.91,3.91,0,0,1,62,50.59a1.55,1.55,0,0,1,.56-.21.94.94,0,0,1,.71.08h0a1,1,0,0,1,.38.43h0a1.66,1.66,0,0,1,.14.71A3.94,3.94,0,0,1,62,54.71a2.31,2.31,0,0,1-.36.17l-.12,0-.22.05H61l-.12,0Zm8.75,39.4a1.55,1.55,0,0,1,.56-.21,1,1,0,0,1,.72.09,1,1,0,0,1,.38.43h0a1.7,1.7,0,0,1,.14.71,4,4,0,0,1-1.78,3.11,2.39,2.39,0,0,1-.37.17l-.12,0a.87.87,0,0,1-.22,0,.56.56,0,0,1-.13,0h-.18l-.12,0-.14,0a1.05,1.05,0,0,1-.43-.57,1.73,1.73,0,0,1-.1-.59A3.94,3.94,0,0,1,69.51,94.24ZM59.72,89l-1.06.61a1,1,0,0,1-.46,0,.28.28,0,0,1-.13,0,.92.92,0,0,1-.59-.61,1.72,1.72,0,0,1-.1-.58,4,4,0,0,1,1.8-3.1,1.58,1.58,0,0,1,.55-.21,1,1,0,0,1,.74.09,1,1,0,0,1,.37.42h0a1.66,1.66,0,0,1,.14.71A4,4,0,0,1,59.72,89Zm9.76-5.54a2.92,2.92,0,0,1-.36.17l-.11,0-.23.05h-.12a1.2,1.2,0,0,1-.19,0l-.12,0-.15-.05a1,1,0,0,1-.43-.58,1.62,1.62,0,0,1-.09-.57,4,4,0,0,1,1.79-3.11,1.73,1.73,0,0,1,.56-.2.94.94,0,0,1,.71.08h0a1,1,0,0,1,.37.42h0a1.66,1.66,0,0,1,.14.71A3.93,3.93,0,0,1,69.48,83.44Z" transform="translate(-23.95 -7.33)"/><path class="cls-9" d="M46.57,58.74a2.76,2.76,0,0,0,.37.75,1.71,1.71,0,0,0,.11.14,1.8,1.8,0,0,0,.54.49,2.81,2.81,0,0,0,2.89-.25,9.12,9.12,0,0,0,3.92-5.79c4-3.09,7.1-8.89,7.09-13.73l0-13.3-2.29,1.32,0,13.3a13.87,13.87,0,0,1-4.89,9.82,2.31,2.31,0,0,0-.71-1.05,1.31,1.31,0,0,0-.27-.21,1.8,1.8,0,0,0-.56-.21,1,1,0,0,0-.18,0,2.2,2.2,0,0,0-.45,0l-.23,0a3.38,3.38,0,0,0-.49.11l-.22.06a5,5,0,0,0-.75.35,9.08,9.08,0,0,0-3.89,5.61L34,63.37V66l12-6.93Zm3.89-5.62a1.88,1.88,0,0,1,.55-.21,1,1,0,0,1,.72.09,1,1,0,0,1,.38.43h0a1.59,1.59,0,0,1,.15.72,4,4,0,0,1-1.79,3.11,2.68,2.68,0,0,1-.36.16l-.19,0-.15,0h-.31l-.11,0a.67.67,0,0,1-.15-.06,1,1,0,0,1-.43-.57,1.73,1.73,0,0,1-.1-.59A4,4,0,0,1,50.46,53.12Z" transform="translate(-23.95 -7.33)"/><polygon class="cls-3" points="8.93 55.38 8.93 57.99 10.06 58.65 10.06 56.04 8.93 55.38"/><polygon class="cls-3" points="22.61 48.79 21.48 48.13 8.93 55.38 10.06 56.04 22.61 48.79"/></g><path class="cls-10" d="M69.61,86.76c10.36-6,18.75-20.51,18.72-32.43h0c0-11.91-8.48-16.71-18.84-10.73h0C59.12,49.59,50.74,64.1,50.77,76S59.24,92.74,69.61,86.76Z" transform="translate(-23.95 -7.33)"/><polygon class="cls-11" points="62.85 64.97 62.29 64.64 62.28 64.65 62.85 64.97"/><path class="cls-11" d="M80.14,80.82l.6.35-.4-.56Z" transform="translate(-23.95 -7.33)"/><path class="cls-11" d="M89,66.8l-.6-.36-.09.3Z" transform="translate(-23.95 -7.33)"/><path class="cls-11" d="M75.92,84.55l.71.41-.21-.77Z" transform="translate(-23.95 -7.33)"/><path class="cls-11" d="M89.48,61.57l.78-.22-.72-.41Z" transform="translate(-23.95 -7.33)"/><path class="cls-12" d="M84.49,70A28,28,0,0,1,83,72.92a29.28,29.28,0,0,0,1.55-3.06Z" transform="translate(-23.95 -7.33)"/><path class="cls-12" d="M84.88,69.1l-.31.76a27.17,27.17,0,0,0,1-2.76C85.39,67.77,85.15,68.43,84.88,69.1Z" transform="translate(-23.95 -7.33)"/><path class="cls-12" d="M86.48,63.52A22.91,22.91,0,0,0,86.71,61a21.13,21.13,0,0,1-.21,2.35C86.49,63.37,86.49,63.44,86.48,63.52Z" transform="translate(-23.95 -7.33)"/><polygon class="cls-12" points="62.77 53.09 62.77 53.09 62.77 53.09 62.77 53.09"/><path class="cls-11" d="M71.66,86.94l0,.21.73.42v-.92Z" transform="translate(-23.95 -7.33)"/><path class="cls-11" d="M89.56,56.82l.8-.46-.72-.42-.18.15C89.5,56.33,89.53,56.58,89.56,56.82Z" transform="translate(-23.95 -7.33)"/><path class="cls-11" d="M67.73,87.89l-.22.57.64.38.21-1Z" transform="translate(-23.95 -7.33)"/><path class="cls-11" d="M88.57,52.82l.77-.69-.64-.38-.39.49C88.4,52.43,88.49,52.62,88.57,52.82Z" transform="translate(-23.95 -7.33)"/><path class="cls-11" d="M64.77,87.63l-.54-.16-.49.83.63.37.4-1Z" transform="translate(-23.95 -7.33)"/><path class="cls-11" d="M66.2,87.88a8,8,0,0,1-1.43-.25h0A8,8,0,0,0,66.2,87.88Z" transform="translate(-23.95 -7.33)"/><path class="cls-11" d="M86.17,49.45l.42.38h0l.31-.38.38-.48h0l-.62-.37-.49.85Z" transform="translate(-23.95 -7.33)"/><path class="cls-12" d="M83.79,52.78l-.37-.25h0Z" transform="translate(-23.95 -7.33)"/><path class="cls-12" d="M85.18,54.34h0c-.09-.14-.2-.26-.3-.39h0C85,54.09,85.09,54.21,85.18,54.34Z" transform="translate(-23.95 -7.33)"/><path class="cls-12" d="M84.54,53.5h0Z" transform="translate(-23.95 -7.33)"/><path class="cls-12" d="M85.71,55.3a4.38,4.38,0,0,0-.24-.43h0C85.55,55,85.64,55.15,85.71,55.3Z" transform="translate(-23.95 -7.33)"/><path class="cls-13" d="M81.55,51.65h0c-.15,0-.3-.09-.46-.12h0C81.25,51.56,81.4,51.61,81.55,51.65Z" transform="translate(-23.95 -7.33)"/><path class="cls-13" d="M83.42,52.53h0c-.14-.1-.28-.21-.43-.3h0C83.14,52.32,83.28,52.43,83.42,52.53Z" transform="translate(-23.95 -7.33)"/><path class="cls-13" d="M82.5,52h0c-.15-.06-.28-.14-.42-.2h0Z" transform="translate(-23.95 -7.33)"/><path class="cls-13" d="M84.88,69.1c.27-.67.51-1.33.72-2,.05-.14.1-.27.14-.41C85.5,67.5,85.2,68.3,84.88,69.1Z" transform="translate(-23.95 -7.33)"/><path class="cls-13" d="M84.49,70A28,28,0,0,1,83,72.92,28,28,0,0,0,84.49,70Z" transform="translate(-23.95 -7.33)"/><path class="cls-13" d="M86.5,63.3A21.13,21.13,0,0,0,86.71,61c0-.17,0-.35,0-.53h0A17.71,17.71,0,0,1,86.5,63.3Z" transform="translate(-23.95 -7.33)"/><path class="cls-13" d="M84.88,54h0c-.11-.15-.22-.31-.34-.45h0A5.48,5.48,0,0,1,84.88,54Z" transform="translate(-23.95 -7.33)"/><path class="cls-13" d="M85.47,54.87h0c-.1-.18-.19-.36-.29-.53h0C85.28,54.51,85.38,54.69,85.47,54.87Z" transform="translate(-23.95 -7.33)"/><polygon class="cls-11" points="59.66 39.54 59.36 40.32 59.87 40.62 60.37 39.76 56.08 37.27 56 37.41 59.66 39.54"/><path class="cls-12" d="M81.09,51.53h0Z" transform="translate(-23.95 -7.33)"/><path class="cls-12" d="M83,52.23h0c-.16-.09-.33-.15-.49-.23h0C82.66,52.08,82.83,52.14,83,52.23Z" transform="translate(-23.95 -7.33)"/><path class="cls-12" d="M82.08,51.8h0c-.17-.06-.36-.1-.54-.15h0C81.72,51.7,81.91,51.74,82.08,51.8Z" transform="translate(-23.95 -7.33)"/><path class="cls-14" d="M59.12,83l.55.32q-.15-.28-.27-.57Z" transform="translate(-23.95 -7.33)"/><path class="cls-14" d="M61.39,85.71l-.08.09.49.29-.41-.38a8.37,8.37,0,0,1-.94-1.1A8.37,8.37,0,0,0,61.39,85.71Z" transform="translate(-23.95 -7.33)"/><path class="cls-14" d="M83.82,48l-.51-.3-.1.26.54.16a8.76,8.76,0,0,1,.88.4,8.76,8.76,0,0,0-.88-.4Z" transform="translate(-23.95 -7.33)"/><path class="cls-14" d="M79.62,47.71q.31,0,.63-.06l-.55-.32Z" transform="translate(-23.95 -7.33)"/><path class="cls-14" d="M75.65,48.89l.67-.29-.67-.39Z" transform="translate(-23.95 -7.33)"/><path class="cls-11" d="M73.94,49.77c-.58.33-1.15.7-1.71,1.09.56-.39,1.13-.76,1.71-1.09s1.15-.63,1.71-.88C75.09,49.14,74.52,49.44,73.94,49.77Z" transform="translate(-23.95 -7.33)"/><path class="cls-14" d="M58.51,79.45c0-.24-.06-.48-.09-.73l-.58.33Z" transform="translate(-23.95 -7.33)"/><path class="cls-14" d="M71.35,50.58l.21.77c-.58.43-1.14.89-1.69,1.38.55-.49,1.11-.95,1.69-1.38l.67-.49L68,48.37l-.18.13Z" transform="translate(-23.95 -7.33)"/><path class="cls-14" d="M67.23,54.37l.4.56.63-.66L64,51.78l-.43.45Z" transform="translate(-23.95 -7.33)"/><path class="cls-14" d="M64.15,59.39c.17-.26.35-.53.53-.78L60.4,56.12l-.54.78Z" transform="translate(-23.95 -7.33)"/><polygon class="cls-11" points="37.85 78.75 37.36 78.47 36.74 79.24 33.08 77.11 33 77.24 37.28 79.73 37.85 78.75"/><polygon class="cls-11" points="35.02 76.83 35.72 75.96 35.16 75.64 34.68 76.08 31.04 73.96 30.74 74.33 35.02 76.83"/><polygon class="cls-11" points="35.02 76.83 30.74 74.33 32.46 76.75 33.08 77.11 36.74 79.24 35.02 76.83"/><path class="cls-12" d="M85.74,66.69a24.59,24.59,0,0,0,.74-3.17c0-.08,0-.15,0-.22a17.71,17.71,0,0,0,.22-2.88h0a12,12,0,0,0-1-5.12c-.07-.15-.16-.28-.24-.43s-.19-.36-.29-.53-.2-.25-.3-.38a5.48,5.48,0,0,0-.34-.46h0a7.07,7.07,0,0,0-.74-.71l-.37-.25c-.14-.1-.28-.21-.43-.3s-.33-.15-.49-.23l-.42-.2c-.17-.06-.36-.1-.53-.15s-.3-.09-.46-.12h0a7.76,7.76,0,0,0-2.17-.1,11.23,11.23,0,0,0-3.66,1c-.42.2-.86.43-1.3.68a23.21,23.21,0,0,0-6.07,5.27c-.36.44-.71.88-1,1.34a32.31,32.31,0,0,0-2.7,4.39c-.26.52-.5,1-.73,1.56a29.4,29.4,0,0,0-1.17,3.16,21.64,21.64,0,0,0-1,6.28c0,4,1.45,6.87,3.76,8.19s5.5,1.12,9-.92a25.78,25.78,0,0,0,9-9.48A28,28,0,0,0,84.49,70l.08-.17.31-.76C85.2,68.3,85.5,67.5,85.74,66.69Z" transform="translate(-23.95 -7.33)"/><path class="cls-13" d="M88.11,59.62c0-9-6.37-12.58-14.17-8.08S59.84,67,59.87,75.93,66.24,88.5,74,84,88.13,68.57,88.11,59.62ZM84.57,69.86A29.28,29.28,0,0,1,83,72.92a25.78,25.78,0,0,1-9,9.48c-3.52,2-6.71,2.24-9,.92s-3.75-4.15-3.76-8.19a21.64,21.64,0,0,1,1-6.28,29.4,29.4,0,0,1,1.17-3.16c.23-.53.47-1,.73-1.56a32.31,32.31,0,0,1,2.7-4.39c.34-.46.69-.9,1-1.34A23.21,23.21,0,0,1,74,53.13c.44-.25.88-.48,1.3-.68a11.23,11.23,0,0,1,3.66-1,7.76,7.76,0,0,1,2.17.1h0c.16,0,.31.08.45.12s.37.09.54.15.27.14.42.2.33.14.49.23.29.2.43.3l.37.25a7.07,7.07,0,0,1,.74.71h0c.12.14.23.3.34.45s.21.25.3.39.19.35.29.53a4.38,4.38,0,0,1,.24.43,12,12,0,0,1,1,5.12h0c0,.18,0,.36,0,.53a22.91,22.91,0,0,1-.23,2.57,24.59,24.59,0,0,1-.74,3.17c0,.14-.09.27-.14.41A27.17,27.17,0,0,1,84.57,69.86Z" transform="translate(-23.95 -7.33)"/><polygon class="cls-11" points="62.79 41.14 58.51 38.65 56.08 37.27 60.37 39.76 62.79 41.14"/><polygon class="cls-11" points="56.7 39.28 59.66 39.54 56 37.41 55.38 37.05 52.41 36.8 56.7 39.28"/><polygon class="cls-11" points="55.87 39.37 55.75 39.99 56.3 40.31 56.7 39.28 52.41 36.8 52.23 37.25 55.87 39.37"/><polygon class="cls-11" points="34.68 76.08 33.78 72.8 29.5 70.31 30.4 73.59 31.04 73.96 34.68 76.08"/><polygon class="cls-11" points="33.78 72.8 34.56 72.11 33.88 71.72 33.67 71.85 30.1 69.78 29.5 70.31 33.78 72.8"/><polygon class="cls-11" points="51.69 40.63 51.69 40.88 52.37 41.27 52.57 40.26 48.29 37.77 48.13 38.56 51.69 40.63"/><polygon class="cls-11" points="52.57 40.26 55.87 39.37 52.23 37.25 51.59 36.88 48.29 37.77 52.57 40.26"/><polygon class="cls-11" points="33.67 71.85 33.65 67.93 30.14 65.89 29.37 65.44 29.38 69.36 30.1 69.78 33.67 71.85"/><polygon class="cls-11" points="48.28 42.6 51.69 40.63 48.13 38.56 47.41 38.14 44 40.11 48.28 42.6"/><polygon class="cls-11" points="48.28 43.52 48.28 42.6 44 40.11 44 41.04 48.28 43.52"/><polygon class="cls-11" points="33.77 66.85 34.64 62.55 30.99 60.43 30.36 60.06 29.48 64.36 30.2 64.78 33.77 66.85"/><polygon class="cls-11" points="44.1 46.16 47.4 43.24 43.82 41.17 43.11 40.76 39.82 43.67 44.1 46.16"/><polygon class="cls-11" points="44.31 46.94 44.1 46.16 39.82 43.67 40.03 44.45 44.31 46.94"/><polygon class="cls-11" points="34.98 61.41 36.68 57.02 32.97 54.87 32.39 54.53 30.7 58.92 31.3 59.27 34.98 61.41"/><polygon class="cls-11" points="40.33 50.7 43.28 47.03 39.6 44.9 38.99 44.54 36.04 48.21 40.33 50.7"/><polygon class="cls-11" points="40.73 51.27 40.33 50.7 36.04 48.21 36.45 48.78 40.73 51.27"/><polygon class="cls-11" points="37.22 55.9 39.62 51.73 35.34 49.24 32.93 53.41 33.5 53.74 37.22 55.9"/><polygon class="cls-11" points="39.62 51.73 40.19 52.06 35.91 49.57 35.34 49.24 39.62 51.73"/><path class="cls-12" d="M89.54,60.94l0-.2.8-.47V56.36l-.8.46c0-.24-.06-.49-.1-.73l.18-.15.6-.53-.9-3.28-.77.69c-.08-.2-.17-.39-.26-.58l.39-.49.3-.37L87.28,49l-.38.48-.31.38h0l-.42-.38h0l.49-.85.08-.13-2.42-1.38-.5.86-.07.12a8.76,8.76,0,0,1,.88.4,8.76,8.76,0,0,0-.88-.4l-.54-.16.1-.26.3-.78-3-.25-.4,1q-.31,0-.63.06l.08-.38.12-.63-3.3.89-.2,1-.67.29V48l-3.42,2v.93l-.67.49c-.58.43-1.14.89-1.69,1.38.55-.49,1.11-.95,1.69-1.38l-.21-.77-3.3,2.92.21.77-.63.66-.4-.56-3,3.66.4.58c-.18.25-.36.52-.53.78l-.57-.32-2.41,4.16.57.33c-.14.28-.28.57-.41.86l-.7-.06-1.7,4.38.7.06c-.09.29-.18.58-.26.88l-.78.2-.87,4.3L58.5,74c0,.28-.07.56-.09.83h0l-.81.47,0,3.91.22-.13.58-.33c0,.25,0,.49.09.73l-.78.68.9,3.28.49-.43.28-.25q.12.28.27.57l-.7.86,1.72,2.41.62-.77.08-.09.41.38-.56,1,2.42,1.38.08-.15.49-.83.54.16h0l-.4,1,3,.25.18-.46.22-.57.63-.06-.21,1,3.3-.89.16-.8,0-.21.68-.29v.92l3.41-2v-.92l.17-.13.5-.36.21.77L79.92,82l-.2-.77.42-.45.2-.21.4.56,3-3.67-.4-.56h0c.19-.26.36-.53.54-.79l.57.32,2.41-4.16L86.24,72h0c.14-.29.28-.57.41-.86l.7.06L89,66.8l-.69-.06.09-.3c.06-.19.12-.38.17-.58l.77-.2.88-4.31-.78.22ZM74,85c-8.27,4.78-15,.94-15-8.56s6.65-21.06,14.92-25.84,15-1,15,8.56S82.3,80.2,74,85Z" transform="translate(-23.95 -7.33)"/><path class="cls-11" d="M89,59.13c0-9.51-6.75-13.33-15-8.56S59,66.91,59,76.41,65.77,89.75,74,85,89,68.63,89,59.13ZM74,84c-7.8,4.51-14.15.89-14.17-8.06s6.28-19.88,14.07-24.39,14.14-.88,14.17,8.08S81.83,79.49,74,84Z" transform="translate(-23.95 -7.33)"/><path class="cls-14" d="M57.72,74.18l-3.57-2.07a1.36,1.36,0,0,0,0,.2l4.28,2.49c0-.27.05-.55.09-.83Z" transform="translate(-23.95 -7.33)"/><path class="cls-11" d="M58.41,74.8l-4.28-2.49-.81.47.77.45,3.51,2,.81-.47Z" transform="translate(-23.95 -7.33)"/><polygon class="cls-11" points="31.13 59.85 30.36 60.06 30.99 60.43 34.64 62.55 35.42 62.34 31.13 59.85"/><path class="cls-14" d="M55.26,66.61l-.18.58,4.29,2.49c.08-.3.17-.59.26-.88l-.7-.06Z" transform="translate(-23.95 -7.33)"/><path class="cls-14" d="M61.17,63.23l-3.72-2.16-.41.86,4.29,2.49c.13-.29.27-.58.41-.86Z" transform="translate(-23.95 -7.33)"/><polygon class="cls-11" points="33.09 54.59 32.39 54.53 32.97 54.87 36.68 57.02 37.38 57.08 33.09 54.59"/><path class="cls-15" d="M83.75,48.08l.07-.12.49-.86L80,44.61l-.08.15-.63-.37-3-.25-.18.46-.64-.38-3.31.89-.15.79-.72-.42-3.42,2v.93c-.07,0-.12.09-.18.13l-.71-.41L63.76,51l.22.77-.43.45-.61-.35L60,55.55l.41.57-.55.8-.56-.33-2.41,4.16.57.33c-.14.29-.28.57-.41.86l-.7-.06-1.7,4.38.61.36c-.06.19-.12.38-.17.58l-.78.2-.87,4.3.71.42a1.36,1.36,0,0,1,0,.2l-.8.47V76.7l.72.42-.6.53.89,3.28.65.38-.31.37,1.72,2.41.63.36-.08.14,4.28,2.49.57-1-.42-.38-.07.09-.62.77L59,84.17l.69-.86c-.09-.19-.18-.38-.26-.58l-.29.26-.48.43-.9-3.28.78-.68c0-.24-.07-.49-.09-.73l-.59.33-.22.13V75.28l.81-.47c0,.17,0,.3,0,.39,0-.09,0-.22,0-.39s.05-.55.08-.83l-.78.21.88-4.3.77-.21c.09-.29.17-.58.26-.87l-.69-.06,1.69-4.38.7.06c.14-.29.27-.58.41-.86l-.57-.33,2.4-4.15.58.31.54-.79L64.27,58l3-3.67.4.57q.3-.33.63-.66l-.21-.77,3.29-2.92.21.77q-.85.64-1.68,1.38.82-.74,1.68-1.38l.68-.49v-.93l3.41-2v.93l.67-.29.21-1,3.3-.89-.13.63-.07.38.62-.06.4-1,3,.25-.3.78-.1.26a5,5,0,0,1,.55.16,8.59,8.59,0,0,1,.87.4A8.59,8.59,0,0,0,83.75,48.08Z" transform="translate(-23.95 -7.33)"/><path class="cls-14" d="M76.73,76.18a1.29,1.29,0,0,0-.07-.21.36.36,0,0,0-.07-.1.86.86,0,0,0-.1-.16l-.09-.08-.13-.1h0a.94.94,0,0,0-.5-.11,1.65,1.65,0,0,1,.18.79,4,4,0,0,1-1.82,3.16l.85.5a4.05,4.05,0,0,0,1.83-3.16,2.59,2.59,0,0,0,0-.41S76.74,76.22,76.73,76.18Z" transform="translate(-23.95 -7.33)"/><path class="cls-14" d="M73.32,79.61a1,1,0,0,0,.36.39l.15,0,.13,0h.17a.66.66,0,0,0,.14,0,1,1,0,0,0,.22,0l.12,0a2.39,2.39,0,0,0,.37-.17l-.85-.5A1.69,1.69,0,0,1,73.32,79.61Z" transform="translate(-23.95 -7.33)"/><path class="cls-14" d="M85.14,61.63a1.14,1.14,0,0,0-.07-.22l-.06-.1-.11-.16-.09-.08a1,1,0,0,0-.64-.22,1.56,1.56,0,0,1,.19.79,4.05,4.05,0,0,1-1.83,3.17l.86.49a4,4,0,0,0,1.82-3.16,2.5,2.5,0,0,0,0-.4S85.15,61.67,85.14,61.63Z" transform="translate(-23.95 -7.33)"/><path class="cls-14" d="M81.73,65.05a1,1,0,0,0,.36.39l.15,0,.12.05h.19a.48.48,0,0,0,.12,0,1.23,1.23,0,0,0,.25,0l.1,0a2.5,2.5,0,0,0,.37-.18l-.86-.49A1.66,1.66,0,0,1,81.73,65.05Z" transform="translate(-23.95 -7.33)"/><polygon class="cls-14" points="51.98 65.39 52.84 65.89 56.4 59.72 55.54 59.22 51.98 65.39"/><path class="cls-14" d="M84.09,58.79l.24-.06a3.29,3.29,0,0,1,.43-.09,2.09,2.09,0,0,1,.25,0c.12,0,.24,0,.35,0a75.06,75.06,0,0,1,.53.2h0l-.86-.5a2.51,2.51,0,0,0-2.52.25l.85.5A3.25,3.25,0,0,1,84.09,58.79Z" transform="translate(-23.95 -7.33)"/><path class="cls-14" d="M72,81.74a2.08,2.08,0,0,1-.19-.29,1.53,1.53,0,0,1-.14-.21,4.38,4.38,0,0,1-.13-.43.94.94,0,0,1-.07-.22,3.67,3.67,0,0,1-.08-.78,6.49,6.49,0,0,1,.51-2.38l-.86-.49a6.24,6.24,0,0,0-.5,2.38,2.47,2.47,0,0,0,1,2.28l.86.49a2.23,2.23,0,0,1-.24-.19C72.16,81.84,72.09,81.81,72,81.74Z" transform="translate(-23.95 -7.33)"/><path class="cls-14" d="M74.11,73.18a6.74,6.74,0,0,0-1.83,1.65l.86.5A6.53,6.53,0,0,1,75,73.68a3,3,0,0,1,1.83-.46l-.86-.5A3,3,0,0,0,74.11,73.18Z" transform="translate(-23.95 -7.33)"/><path class="cls-14" d="M80.34,62.87l-.86-.49A6.47,6.47,0,0,0,79,64.76a3,3,0,0,0,.53,1.79l.86.5a3,3,0,0,1-.53-1.79A6.56,6.56,0,0,1,80.34,62.87Z" transform="translate(-23.95 -7.33)"/><path class="cls-14" d="M83.37,59.12l-.85-.5a6.43,6.43,0,0,0-1.83,1.65l.86.49A6.37,6.37,0,0,1,83.37,59.12Z" transform="translate(-23.95 -7.33)"/><polygon class="cls-14" points="45.61 65.94 45.61 65.94 49.19 67.99 48.33 67.5 45.61 65.94"/><polygon class="cls-14" points="57.6 53.43 56.74 52.93 54.02 51.38 54.02 51.38 57.6 53.43"/><path class="cls-14" d="M68.27,71.38a1.55,1.55,0,0,0-.07-.23L68.13,71a.78.78,0,0,0-.1-.15.81.81,0,0,0-.1-.09l-.12-.1h0a1,1,0,0,0-.5-.11,1.68,1.68,0,0,1,.18.79,4,4,0,0,1-1.83,3.17l.86.49a4,4,0,0,0,1.83-3.16,1.68,1.68,0,0,0,0-.4A.29.29,0,0,0,68.27,71.38Z" transform="translate(-23.95 -7.33)"/><path class="cls-14" d="M64.86,74.79a.88.88,0,0,0,.36.38.94.94,0,0,0,.15.06l.12,0a1.08,1.08,0,0,0,.18,0h.14l.21-.05a.5.5,0,0,0,.13,0,1.72,1.72,0,0,0,.37-.17l-.86-.49A1.77,1.77,0,0,1,64.86,74.79Z" transform="translate(-23.95 -7.33)"/><path class="cls-14" d="M74.07,60a1.56,1.56,0,0,1-.8.24,1,1,0,0,0,.36.39,1,1,0,0,0,.16.06l.11,0h.19a.48.48,0,0,0,.12,0,1,1,0,0,0,.24,0l.11,0a2.39,2.39,0,0,0,.37-.17,4,4,0,0,0,1.82-3.16,1.78,1.78,0,0,0,0-.41.56.56,0,0,0,0-.12,1.29,1.29,0,0,0-.06-.21.76.76,0,0,0-.08-.11.75.75,0,0,0-.09-.15l-.1-.08a.69.69,0,0,0-.13-.11h0a1,1,0,0,0-.5-.11,1.85,1.85,0,0,1,.19.8A4,4,0,0,1,74.07,60Z" transform="translate(-23.95 -7.33)"/><polygon class="cls-14" points="47.93 54.89 47.08 54.4 43.52 60.57 44.38 61.07 47.93 54.89"/><path class="cls-14" d="M63.57,76.92a1.57,1.57,0,0,1-.2-.3l-.13-.2A2.65,2.65,0,0,1,63.1,76c0-.07-.05-.12-.07-.2A4.71,4.71,0,0,1,63,75a7.8,7.8,0,0,1,3.54-6.13,2.92,2.92,0,0,1,1.83-.46l-.86-.5a2.94,2.94,0,0,0-1.82.46,7.82,7.82,0,0,0-3.55,6.13,2.51,2.51,0,0,0,1,2.29l.86.5a1.5,1.5,0,0,1-.24-.2A1.35,1.35,0,0,1,63.57,76.92Z" transform="translate(-23.95 -7.33)"/><path class="cls-11" d="M85.89,58.87a75.06,75.06,0,0,0-.53-.2c-.11,0-.23,0-.35,0a2.09,2.09,0,0,0-.25,0,3.29,3.29,0,0,0-.43.09l-.24.06a3.25,3.25,0,0,0-.72.33,6.37,6.37,0,0,0-1.82,1.64l-3.58-2h0a6.49,6.49,0,0,0,.51-2.38,2.5,2.5,0,0,0-1-2.28,1,1,0,0,0-.29-.11,1,1,0,0,0-.24-.09,1.35,1.35,0,0,0-.35,0,2,2,0,0,0-.25,0,2.39,2.39,0,0,0-.45.09l-.22.05a4.16,4.16,0,0,0-.72.33,7.83,7.83,0,0,0-3.54,6.15,3,3,0,0,0,.51,1.79L68.33,68.4a2.92,2.92,0,0,0-1.83.46A7.8,7.8,0,0,0,63,75a4.71,4.71,0,0,0,.07.78c0,.08,0,.13.07.2a2.65,2.65,0,0,0,.14.45l.13.2a1.57,1.57,0,0,0,.2.3,1.35,1.35,0,0,0,.19.16,2.31,2.31,0,0,0,2.76,0,6.58,6.58,0,0,0,1.83-1.65l2.72,1.56.86.49a6.49,6.49,0,0,0-.51,2.38,3.67,3.67,0,0,0,.08.78.94.94,0,0,0,.07.22,4.38,4.38,0,0,0,.13.43,1.53,1.53,0,0,0,.14.21,2.08,2.08,0,0,0,.19.29c.06.07.13.1.19.16A2.36,2.36,0,0,0,75,81.85a7.81,7.81,0,0,0,3.54-6.14A2.91,2.91,0,0,0,78,73.92l3.56-6.17a3,3,0,0,0,1.82-.46,7.85,7.85,0,0,0,3.55-6.14A2.46,2.46,0,0,0,85.89,58.87ZM66.52,75a1.72,1.72,0,0,1-.37.17.5.5,0,0,1-.13,0l-.21.05h-.14a1.08,1.08,0,0,1-.18,0l-.12,0a.94.94,0,0,1-.15-.06.88.88,0,0,1-.36-.38,1.68,1.68,0,0,1-.18-.79,4,4,0,0,1,1.83-3.16,1.65,1.65,0,0,1,.8-.25,1,1,0,0,1,.5.11h0l.12.1a.81.81,0,0,1,.1.09.78.78,0,0,1,.1.15l.07.11a1.55,1.55,0,0,1,.07.23s0,.06,0,.1a1.68,1.68,0,0,1,0,.4A4,4,0,0,1,66.52,75Zm8.39-18.77a1.81,1.81,0,0,1,.8-.24,1,1,0,0,1,.5.11h0a.69.69,0,0,1,.13.11l.1.08a.75.75,0,0,1,.09.15.76.76,0,0,1,.08.11,1.29,1.29,0,0,1,.06.21.56.56,0,0,1,0,.12,1.78,1.78,0,0,1,0,.41,4,4,0,0,1-1.82,3.16,2.39,2.39,0,0,1-.37.17l-.11,0a1,1,0,0,1-.24,0,.48.48,0,0,1-.12,0H73.9l-.11,0a1,1,0,0,1-.16-.06,1,1,0,0,1-.36-.39,1.65,1.65,0,0,1-.18-.79A4.05,4.05,0,0,1,74.91,56.27ZM75,79.87a2.39,2.39,0,0,1-.37.17l-.12,0a1,1,0,0,1-.22,0,.66.66,0,0,1-.14,0H74l-.13,0-.15,0a1,1,0,0,1-.36-.39,1.68,1.68,0,0,1-.17-.79A4,4,0,0,1,75,75.66a1.58,1.58,0,0,1,.8-.24.94.94,0,0,1,.5.11h0l.13.1.09.08a.86.86,0,0,1,.1.16.36.36,0,0,1,.07.1,1.29,1.29,0,0,1,.07.21s0,.08,0,.12a2.59,2.59,0,0,1,0,.41A4.05,4.05,0,0,1,75,79.87Zm1.81-6.65a3,3,0,0,0-1.83.46,6.53,6.53,0,0,0-1.82,1.65l-3.58-2h0a6.49,6.49,0,0,0,.51-2.38,3,3,0,0,0-.52-1.79l3.56-6.17a3,3,0,0,0,1.82-.46,6.57,6.57,0,0,0,1.82-1.65l2.73,1.56.86.49a6.56,6.56,0,0,0-.52,2.39,3,3,0,0,0,.53,1.79Zm6.6-7.92a2.5,2.5,0,0,1-.37.18l-.1,0a1.23,1.23,0,0,1-.25,0,.48.48,0,0,1-.12,0h-.19l-.12-.05-.15,0a1,1,0,0,1-.36-.39,1.68,1.68,0,0,1-.18-.79,4,4,0,0,1,1.83-3.17,1.74,1.74,0,0,1,.79-.24,1,1,0,0,1,.64.22l.09.08.11.16.06.1a1.14,1.14,0,0,1,.07.22s0,.07,0,.11a2.5,2.5,0,0,1,0,.4A4,4,0,0,1,83.39,65.3Z" transform="translate(-23.95 -7.33)"/><path class="cls-14" d="M71.37,60.44a7.83,7.83,0,0,1,3.54-6.15,4.16,4.16,0,0,1,.72-.33l.22-.05a2.39,2.39,0,0,1,.45-.09,2,2,0,0,1,.25,0,1.35,1.35,0,0,1,.35,0,1,1,0,0,1,.24.09,1,1,0,0,1,.29.11h0l-.85-.5a2.5,2.5,0,0,0-2.53.24,7.83,7.83,0,0,0-3.54,6.15A2.93,2.93,0,0,0,71,61.73h0l.85.5A3,3,0,0,1,71.37,60.44Z" transform="translate(-23.95 -7.33)"/></g></g></svg>