<svg width="64" height="64" viewBox="0 0 64 64" fill="none" xmlns="http://www.w3.org/2000/svg">
<path d="M58 21H22C21.2044 21 20.4413 21.3161 19.8787 21.8787C19.3161 22.4413 19 23.2044 19 24V60C19 60.7956 19.3161 61.5587 19.8787 62.1213C20.4413 62.6839 21.2044 63 22 63H58C58.7956 63 59.5587 62.6839 60.1213 62.1213C60.6839 61.5587 61 60.7956 61 60V24C61 23.2044 60.6839 22.4413 60.1213 21.8787C59.5587 21.3161 58.7956 21 58 21ZM35 56H27C26.7348 56 26.4804 55.8946 26.2929 55.7071C26.1054 55.5196 26 55.2652 26 55V47C26 46.7348 26.1054 46.4804 26.2929 46.2929C26.4804 46.1054 26.7348 46 27 46C27.2652 46 27.5196 46.1054 27.7071 46.2929C27.8946 46.4804 28 46.7348 28 47V54H35C35.2652 54 35.5196 54.1054 35.7071 54.2929C35.8946 54.4804 36 54.7348 36 55C36 55.2652 35.8946 55.5196 35.7071 55.7071C35.5196 55.8946 35.2652 56 35 56ZM35 30H28V37C28 37.2652 27.8946 37.5196 27.7071 37.7071C27.5196 37.8946 27.2652 38 27 38C26.7348 38 26.4804 37.8946 26.2929 37.7071C26.1054 37.5196 26 37.2652 26 37V29C26 28.7348 26.1054 28.4804 26.2929 28.2929C26.4804 28.1054 26.7348 28 27 28H35C35.2652 28 35.5196 28.1054 35.7071 28.2929C35.8946 28.4804 36 28.7348 36 29C36 29.2652 35.8946 29.5196 35.7071 29.7071C35.5196 29.8946 35.2652 30 35 30ZM54 55C54 55.2652 53.8946 55.5196 53.7071 55.7071C53.5196 55.8946 53.2652 56 53 56H45C44.7348 56 44.4804 55.8946 44.2929 55.7071C44.1054 55.5196 44 55.2652 44 55C44 54.7348 44.1054 54.4804 44.2929 54.2929C44.4804 54.1054 44.7348 54 45 54H52V47C52 46.7348 52.1054 46.4804 52.2929 46.2929C52.4804 46.1054 52.7348 46 53 46C53.2652 46 53.5196 46.1054 53.7071 46.2929C53.8946 46.4804 54 46.7348 54 47V55ZM54 37C54 37.2652 53.8946 37.5196 53.7071 37.7071C53.5196 37.8946 53.2652 38 53 38C52.7348 38 52.4804 37.8946 52.2929 37.7071C52.1054 37.5196 52 37.2652 52 37V30H45C44.7348 30 44.4804 29.8946 44.2929 29.7071C44.1054 29.5196 44 29.2652 44 29C44 28.7348 44.1054 28.4804 44.2929 28.2929C44.4804 28.1054 44.7348 28 45 28H53C53.2652 28 53.5196 28.1054 53.7071 28.2929C53.8946 28.4804 54 28.7348 54 29V37Z" fill="#6E60E7"/>
<path d="M32 5.93C31.8117 5.74302 31.5568 5.6385 31.2915 5.63944C31.0261 5.64038 30.772 5.74669 30.585 5.935C30.398 6.1233 30.2935 6.37817 30.2944 6.64353C30.2954 6.9089 30.4017 7.16302 30.59 7.35C31.9951 8.74367 33.1087 10.4031 33.8658 12.2316C34.623 14.0601 35.0085 16.021 35 18V26C35.0017 28.6347 34.3094 31.2233 32.9928 33.5055C31.6762 35.7876 29.7817 37.6827 27.5 39C27.3862 39.0662 27.2867 39.1541 27.207 39.2588C27.1273 39.3636 27.0691 39.483 27.0356 39.6103C27.0022 39.7375 26.9942 39.8702 27.0121 40.0005C27.03 40.1309 27.0735 40.2565 27.14 40.37C27.2736 40.597 27.4913 40.7622 27.746 40.8296C28.0006 40.897 28.2716 40.8612 28.5 40.73C31.0814 39.2327 33.2248 37.0844 34.7163 34.4997C36.2078 31.9149 36.9953 28.9842 37 26V18C37.0093 15.757 36.5719 13.5346 35.7135 11.4623C34.8551 9.39004 33.5927 7.50939 32 5.93V5.93Z" fill="#151A6A"/>
<path d="M4 19C4.26522 19 4.51957 18.8946 4.70711 18.7071C4.89464 18.5196 5 18.2652 5 18C4.99831 15.3661 5.69018 12.7783 7.00601 10.4966C8.32185 8.215 10.2153 6.32007 12.4958 5.0024C14.7764 3.68474 17.3637 2.9908 19.9976 2.99038C22.6315 2.98996 25.219 3.68307 27.5 5C27.6141 5.06612 27.7402 5.10901 27.871 5.12619C28.0018 5.14337 28.1347 5.13451 28.262 5.10012C28.3893 5.06573 28.5086 5.00649 28.613 4.9258C28.7173 4.84512 28.8047 4.74459 28.87 4.63C29.0004 4.40038 29.0346 4.12852 28.9653 3.87374C28.896 3.61895 28.7287 3.40192 28.5 3.27C25.9151 1.77762 22.9829 0.9921 19.9981 0.992432C17.0133 0.992764 14.0813 1.77893 11.4967 3.27189C8.91217 4.76485 6.76625 6.91197 5.27473 9.49735C3.78321 12.0827 2.99867 15.0152 3 18C3 18.2652 3.10536 18.5196 3.29289 18.7071C3.48043 18.8946 3.73479 19 4 19Z" fill="#151A6A"/>
<path d="M20 41C16.0218 41 12.2064 39.4196 9.3934 36.6066C6.58035 33.7936 5 29.9782 5 26C5 25.7348 4.89464 25.4804 4.70711 25.2929C4.51957 25.1054 4.26522 25 4 25C3.73478 25 3.48043 25.1054 3.29289 25.2929C3.10536 25.4804 3 25.7348 3 26C3 30.5087 4.79107 34.8327 7.97918 38.0208C11.1673 41.2089 15.4913 43 20 43C20.2652 43 20.5196 42.8946 20.7071 42.7071C20.8946 42.5196 21 42.2652 21 42C21 41.7348 20.8946 41.4804 20.7071 41.2929C20.5196 41.1054 20.2652 41 20 41Z" fill="#151A6A"/>
<path d="M20 7C17.0826 7 14.2847 8.15893 12.2218 10.2218C10.1589 12.2847 9 15.0826 9 18V26C8.99342 28.3781 9.76617 30.6928 11.2 32.59C11.3591 32.8022 11.596 32.9424 11.8586 32.9799C12.1211 33.0175 12.3878 32.9491 12.6 32.79C12.8122 32.6309 12.9524 32.394 12.9899 32.1314C13.0275 31.8689 12.9591 31.6022 12.8 31.39C11.6265 29.8386 10.9941 27.9452 11 26V18C10.9993 16.1093 11.594 14.2665 12.6998 12.7329C13.8055 11.1993 15.3662 10.0529 17.1603 9.45639C18.9543 8.85984 20.8907 8.84343 22.6946 9.40951C24.4986 9.97558 26.0784 11.0954 27.21 12.61C27.3755 12.7999 27.6065 12.9203 27.8568 12.9472C28.1072 12.9742 28.3586 12.9057 28.5607 12.7554C28.7627 12.6051 28.9007 12.3841 28.9469 12.1365C28.9931 11.889 28.9442 11.6331 28.81 11.42C27.7827 10.0528 26.4526 8.94224 24.9241 8.17537C23.3955 7.40849 21.7101 7.00619 20 7V7Z" fill="#151A6A"/>
<path d="M20 35C18.612 35.0094 17.2415 34.6908 16 34.07C15.7613 33.952 15.4855 33.9336 15.2333 34.0189C14.981 34.1043 14.773 34.2863 14.655 34.525C14.537 34.7637 14.5186 35.0395 14.6039 35.2917C14.6893 35.544 14.8713 35.752 15.11 35.87C16.7883 36.7029 18.6516 37.0933 20.5232 37.0042C22.3947 36.9151 24.2125 36.3494 25.8041 35.3608C27.3957 34.3722 28.7084 32.9934 29.6177 31.3552C30.527 29.717 31.0028 27.8737 31 26V18C31 17.7348 30.8946 17.4804 30.7071 17.2929C30.5196 17.1054 30.2652 17 30 17C29.7348 17 29.4804 17.1054 29.2929 17.2929C29.1054 17.4804 29 17.7348 29 18V26C29 28.3869 28.0518 30.6761 26.364 32.364C24.6761 34.0518 22.3869 35 20 35Z" fill="#151A6A"/>
<path d="M16 23C16.2652 23 16.5196 22.8946 16.7071 22.7071C16.8946 22.5196 17 22.2652 17 22V18C17 17.2044 17.3161 16.4413 17.8787 15.8787C18.4413 15.3161 19.2044 15 20 15C20.7956 15 21.5587 15.3161 22.1213 15.8787C22.6839 16.4413 23 17.2044 23 18C23 18.2652 23.1054 18.5196 23.2929 18.7071C23.4804 18.8946 23.7348 19 24 19C24.2652 19 24.5196 18.8946 24.7071 18.7071C24.8946 18.5196 25 18.2652 25 18C25 16.6739 24.4732 15.4021 23.5355 14.4645C22.5979 13.5268 21.3261 13 20 13C18.6739 13 17.4021 13.5268 16.4645 14.4645C15.5268 15.4021 15 16.6739 15 18V22C15 22.2652 15.1054 22.5196 15.2929 22.7071C15.4804 22.8946 15.7348 23 16 23Z" fill="#151A6A"/>
<path d="M20 31C21.3261 31 22.5979 30.4732 23.5355 29.5355C24.4732 28.5979 25 27.3261 25 26V22C25 21.7348 24.8946 21.4804 24.7071 21.2929C24.5196 21.1054 24.2652 21 24 21C23.7348 21 23.4804 21.1054 23.2929 21.2929C23.1054 21.4804 23 21.7348 23 22V26C23 26.7956 22.6839 27.5587 22.1213 28.1213C21.5587 28.6839 20.7956 29 20 29C19.2044 29 18.4413 28.6839 17.8787 28.1213C17.3161 27.5587 17 26.7956 17 26C17 25.7348 16.8946 25.4804 16.7071 25.2929C16.5196 25.1054 16.2652 25 16 25C15.7348 25 15.4804 25.1054 15.2929 25.2929C15.1054 25.4804 15 25.7348 15 26C15 27.3261 15.5268 28.5979 16.4645 29.5355C17.4021 30.4732 18.6739 31 20 31Z" fill="#151A6A"/>
</svg>
