<svg width="64" height="64" viewBox="0 0 64 64" fill="none" xmlns="http://www.w3.org/2000/svg">
<path d="M56.92 24.56C56.7961 24.3714 56.6122 24.2302 56.3979 24.1594C56.1837 24.0886 55.9518 24.0924 55.74 24.17C54.259 24.7394 52.8809 25.5466 51.66 26.56C51.0271 24.1172 50.0148 21.7889 48.66 19.66C47.2307 17.3702 46.1615 14.8744 45.49 12.26C45.4458 12.1124 45.3681 11.977 45.2629 11.8643C45.1578 11.7517 45.028 11.6649 44.8838 11.6107C44.7396 11.5565 44.5847 11.5363 44.4314 11.5518C44.2781 11.5673 44.1305 11.618 44 11.7C40.6643 14.3068 37.6439 17.2936 35 20.6C29.14 27.92 26.05 35.68 26.05 43.05C26.1622 47.8702 28.1558 52.4552 31.6046 55.8246C35.0533 59.194 39.6835 61.0804 44.505 61.0804C49.3265 61.0804 53.9566 59.194 57.4054 55.8246C60.8541 52.4552 62.8478 47.8702 62.96 43.05C63 37 61 30.73 56.92 24.56ZM44.55 58.5C41.7784 58.4974 39.1209 57.3958 37.1601 55.4369C35.1993 53.4781 34.0953 50.8216 34.09 48.05C34.09 38.2 43.54 31.05 43.95 30.7C44.0821 30.6011 44.2367 30.5364 44.3999 30.5117C44.5631 30.487 44.7298 30.5032 44.8853 30.5586C45.0408 30.6141 45.1801 30.7071 45.2908 30.8295C45.4016 30.9519 45.4803 31.0998 45.52 31.26C46.26 34.26 47.66 37.02 48.52 40C49.11 39 49.71 37.67 50.52 37.39C50.7318 37.3124 50.9637 37.3086 51.1779 37.3794C51.3922 37.4502 51.5761 37.5914 51.7 37.78C53.7844 40.8051 54.9321 44.3769 55 48.05C54.9973 50.8207 53.8955 53.4772 51.9363 55.4363C49.9771 57.3955 47.3207 58.4973 44.55 58.5Z" fill="#6E60E7"/>
<path d="M48.71 43.21C48.5785 43.3423 48.4126 43.4351 48.2312 43.4781C48.0497 43.521 47.8598 43.5124 47.6829 43.4531C47.5061 43.3938 47.3494 43.2862 47.2305 43.1425C47.1116 42.9989 47.0352 42.8248 47.01 42.64C46.56 39.52 45.01 36.5 44.01 33.27C41.57 35.46 36.1 41.14 36.1 48.05C36.1754 50.2421 37.0992 52.3192 38.6766 53.8433C40.254 55.3673 42.3616 56.2192 44.555 56.2192C46.7484 56.2192 48.856 55.3673 50.4334 53.8433C52.0108 52.3192 52.9346 50.2421 53.01 48.05C52.9534 45.2519 52.1638 42.5176 50.72 40.12C50.1757 41.2265 49.5009 42.2639 48.71 43.21V43.21Z" fill="#6E60E7"/>
<path d="M41 9.32C41.5835 9.11369 42.089 8.73193 42.4471 8.22707C42.8051 7.7222 42.9983 7.11894 43 6.5V5.5C43 4.70435 42.6839 3.94129 42.1213 3.37868C41.5587 2.81607 40.7956 2.5 40 2.5H4C3.20435 2.5 2.44129 2.81607 1.87868 3.37868C1.31607 3.94129 1 4.70435 1 5.5V6.5C1.00174 7.11894 1.19488 7.7222 1.55294 8.22707C1.911 8.73193 2.41645 9.11369 3 9.32V31.68C2.41645 31.8863 1.911 32.2681 1.55294 32.7729C1.19488 33.2778 1.00174 33.8811 1 34.5V35.5C1 36.2956 1.31607 37.0587 1.87868 37.6213C2.44129 38.1839 3.20435 38.5 4 38.5H40C40.7956 38.5 41.5587 38.1839 42.1213 37.6213C42.6839 37.0587 43 36.2956 43 35.5V34.5C42.9983 33.8811 42.8051 33.2778 42.4471 32.7729C42.089 32.2681 41.5835 31.8863 41 31.68V9.32ZM5 31.5V25.5H21V31.5H5ZM39 9.5V15.5H23V9.5H39ZM15 23.5V17.5H29V23.5H15ZM5 23.5V17.5H13V23.5H5ZM31 17.5H39V23.5H31V17.5ZM21 15.5H5V9.5H21V15.5ZM23 25.5H39V31.5H23V25.5ZM3 5.5C3 5.23478 3.10536 4.98043 3.29289 4.79289C3.48043 4.60536 3.73478 4.5 4 4.5H40C40.2652 4.5 40.5196 4.60536 40.7071 4.79289C40.8946 4.98043 41 5.23478 41 5.5V6.5C41 6.76522 40.8946 7.01957 40.7071 7.20711C40.5196 7.39464 40.2652 7.5 40 7.5H4C3.73478 7.5 3.48043 7.39464 3.29289 7.20711C3.10536 7.01957 3 6.76522 3 6.5V5.5ZM41 35.5C41 35.7652 40.8946 36.0196 40.7071 36.2071C40.5196 36.3946 40.2652 36.5 40 36.5H4C3.73478 36.5 3.48043 36.3946 3.29289 36.2071C3.10536 36.0196 3 35.7652 3 35.5V34.5C3 34.2348 3.10536 33.9804 3.29289 33.7929C3.48043 33.6054 3.73478 33.5 4 33.5H40C40.2652 33.5 40.5196 33.6054 40.7071 33.7929C40.8946 33.9804 41 34.2348 41 34.5V35.5Z" fill="#151A6A"/>
</svg>
