<svg width="43" height="51" viewBox="0 0 43 51" fill="none" xmlns="http://www.w3.org/2000/svg">
<path d="M28 4.19413L28.547 3.37513L29.084 2.56713L30.293 0.754134C30.441 0.531134 30.381 0.231134 30.16 0.0821339C29.935 -0.0668661 29.635 -0.0068659 29.486 0.217134L28.191 2.16113L27.646 2.97813L27.093 3.80613C25.341 3.12713 23.388 2.74613 21.325 2.74613C19.264 2.74613 17.311 3.12713 15.559 3.80613L15.009 2.97813L14.464 2.16113L13.167 0.216134C13.019 -0.00686583 12.718 -0.0668661 12.494 0.0811339C12.272 0.229134 12.212 0.530134 12.36 0.753134L13.568 2.56613L14.107 3.37413L14.654 4.19313C10.539 6.10913 7.75598 9.73913 7.75598 13.8941H34.898C34.898 9.74013 32.115 6.11013 28 4.19413ZM15.511 10.0171C14.706 10.0171 14.056 9.36613 14.056 8.56313C14.056 7.76013 14.706 7.11013 15.511 7.11013C16.314 7.11013 16.964 7.76013 16.964 8.56313C16.964 9.36613 16.314 10.0171 15.511 10.0171ZM27.142 10.0171C26.339 10.0171 25.689 9.36613 25.689 8.56313C25.689 7.76013 26.339 7.11013 27.142 7.11013C27.947 7.11013 28.597 7.76013 28.597 8.56313C28.597 9.36613 27.947 10.0171 27.142 10.0171Z" fill="#6E60E7"/>
<path d="M7.96498 15.8341H7.75598V18.2521V20.2251V37.1611C7.75598 38.8541 9.13198 40.2311 10.825 40.2311H13.041C12.967 40.4871 12.925 40.7581 12.925 41.0381V41.2001V42.1691V47.1791C12.925 48.7841 14.228 50.0871 15.834 50.0871C17.44 50.0871 18.742 48.7841 18.742 47.1791V42.1691V41.2001V41.0381C18.742 40.7591 18.699 40.4871 18.627 40.2311H24.027C23.953 40.4871 23.912 40.7581 23.912 41.0381V41.2001V42.1691V47.1791C23.912 48.7841 25.215 50.0871 26.82 50.0871C28.425 50.0871 29.728 48.7841 29.728 47.1791V42.1691V41.2001V41.0381C29.728 40.7591 29.687 40.4871 29.613 40.2311H31.828C33.521 40.2311 34.898 38.8541 34.898 37.1611V20.2251V18.2521V15.8341H34.689H7.96498V15.8341Z" fill="#6E60E7"/>
<path d="M2.908 15.8341C1.302 15.8341 0 17.1351 0 18.7431V31.1821C0 32.7871 1.302 34.0901 2.908 34.0901C4.513 34.0901 5.816 32.7871 5.816 31.1821V18.7421C5.816 17.1351 4.514 15.8341 2.908 15.8341Z" fill="#6E60E7"/>
<path d="M39.746 15.8341C38.139 15.8341 36.838 17.1351 36.838 18.7431V31.1821C36.838 32.7871 38.139 34.0901 39.746 34.0901C41.351 34.0901 42.652 32.7871 42.652 31.1821V18.7421C42.652 17.1351 41.351 15.8341 39.746 15.8341Z" fill="#6E60E7"/>
</svg>
