<svg width="41" height="50" viewBox="0 0 41 50" fill="none" xmlns="http://www.w3.org/2000/svg">
<path d="M33.4617 26.143C33.3997 19.911 38.5437 16.922 38.7737 16.771C35.8827 12.544 31.3787 11.964 29.7757 11.898C25.9457 11.509 22.2987 14.154 20.3557 14.154C18.4167 14.154 15.4147 11.955 12.2387 12.011C8.06071 12.073 4.20971 14.441 2.05971 18.181C-2.27929 25.708 0.949707 36.863 5.17771 42.972C7.24471 45.958 9.70971 49.318 12.9437 49.195C16.0607 49.072 17.2367 47.179 21.0047 47.179C24.7727 47.179 25.8307 49.195 29.1277 49.132C32.4797 49.071 34.6047 46.089 36.6547 43.091C39.0277 39.622 40.0047 36.263 40.0627 36.093C39.9897 36.059 33.5287 33.584 33.4617 26.143Z" fill="#6E60E7"/>
<path d="M27.2667 7.855C28.9817 5.773 30.1437 2.88 29.8277 0C27.3527 0.1 24.3567 1.645 22.5797 3.725C20.9877 5.571 19.5957 8.51 19.9687 11.338C22.7297 11.552 25.5457 9.933 27.2667 7.855Z" fill="#6E60E7"/>
</svg>
