<svg width="47" height="50" viewBox="0 0 47 50" fill="none" xmlns="http://www.w3.org/2000/svg">
<path d="M34.2522 14.8895L7.5946 0.617763C6.2093 -0.123837 4.7072 -0.161737 3.4071 0.312263L26.1182 23.0234L34.2522 14.8895Z" fill="#6E60E7"/>
<path d="M44.1933 20.2117L36.5146 16.1008L27.8551 24.7602L36.5146 33.4197L44.1932 29.3087C47.8256 27.3641 47.8256 22.1563 44.1933 20.2117Z" fill="#6E60E7"/>
<path d="M1.3279 1.70667C0.5134 2.60187 0 3.79697 0 5.16627V44.3541C0 45.7234 0.5134 46.9186 1.3278 47.8138L24.3814 24.7602L1.3279 1.70667Z" fill="#6E60E7"/>
<path d="M3.4071 49.2082C4.7071 49.6821 6.2093 49.6444 7.5946 48.9027L34.2522 34.631L26.1183 26.4971L3.4071 49.2082Z" fill="#6E60E7"/>
</svg>
