<svg width="64" height="64" viewBox="0 0 64 64" fill="none" xmlns="http://www.w3.org/2000/svg">
<path d="M59 31C59 30.2044 58.6839 29.4413 58.1213 28.8787C57.5587 28.3161 56.7956 28 56 28H20C19.2044 28 18.4413 28.3161 17.8787 28.8787C17.3161 29.4413 17 30.2044 17 31V52H59V31Z" fill="#6E60E7"/>
<path d="M62 54H45C44.7819 53.9886 44.5661 54.0489 44.3856 54.1717C44.205 54.2945 44.0696 54.473 44 54.68C43.781 55.348 43.3587 55.9307 42.792 56.3468C42.2254 56.7628 41.5429 56.9912 40.84 57H35.16C34.4571 56.9912 33.7746 56.7628 33.208 56.3468C32.6413 55.9307 32.219 55.348 32 54.68C31.9304 54.473 31.795 54.2945 31.6144 54.1717C31.4339 54.0489 31.2181 53.9886 31 54H14C13.7348 54 13.4804 54.1054 13.2929 54.2929C13.1054 54.4804 13 54.7348 13 55C13 56.8565 13.7375 58.637 15.0503 59.9497C16.363 61.2625 18.1435 62 20 62H56C57.8565 62 59.637 61.2625 60.9497 59.9497C62.2625 58.637 63 56.8565 63 55C63 54.7348 62.8946 54.4804 62.7071 54.2929C62.5196 54.1054 62.2652 54 62 54Z" fill="#6E60E7"/>
<path d="M29.44 15.93C29.44 9.35 25.31 7 21.44 7C17.57 7 13.44 9.35 13.44 15.93C13.44 21.93 16.93 29 21.44 29C25.95 29 29.44 22 29.44 15.93ZM21.44 27C18.52 27 15.44 21.31 15.44 15.93C15.44 11.53 17.63 9 21.44 9C25.25 9 27.44 11.53 27.44 15.93C27.44 21.31 24.36 27 21.44 27Z" fill="#151A6A"/>
<path d="M41.79 40.27L39.55 31.27C39.1653 29.7617 38.2888 28.4246 37.0591 27.4701C35.8294 26.5157 34.3166 25.9984 32.76 26H30.51C32.3989 22.4587 33.4041 18.5134 33.44 14.5C33.44 6.79 28.84 2 21.44 2C14.04 2 9.44001 6.79 9.44001 14.5C9.47596 18.5134 10.4812 22.4587 12.37 26H10.12C8.55938 26.0001 7.04354 26.5217 5.81331 27.482C4.58308 28.4422 3.70902 29.7861 3.33001 31.3L1.09001 40.3C0.984336 40.7404 0.979742 41.199 1.07657 41.6414C1.17341 42.0839 1.36915 42.4986 1.64913 42.8546C1.92911 43.2106 2.28606 43.4986 2.6932 43.6969C3.10034 43.8953 3.54712 43.9989 4.00001 44H38.88C39.3361 44 39.7863 43.896 40.1962 43.696C40.6061 43.4959 40.9649 43.205 41.2455 42.8453C41.5261 42.4857 41.7209 42.0668 41.8153 41.6206C41.9097 41.1743 41.901 40.7124 41.79 40.27V40.27ZM38.88 42H34.31L33.43 35.86C33.4116 35.7287 33.3676 35.6023 33.3003 35.488C33.2331 35.3737 33.144 35.2738 33.0381 35.1939C32.9323 35.114 32.8117 35.0558 32.6834 35.0225C32.555 34.9893 32.4213 34.9816 32.29 35C32.1587 35.0184 32.0323 35.0625 31.918 35.1297C31.8037 35.1969 31.7038 35.286 31.6239 35.3919C31.5441 35.4977 31.4858 35.6183 31.4526 35.7467C31.4193 35.875 31.4116 36.0087 31.43 36.14L32.29 42H22.44V32C22.44 31.7348 22.3347 31.4804 22.1471 31.2929C21.9596 31.1054 21.7052 31 21.44 31C21.1748 31 20.9204 31.1054 20.7329 31.2929C20.5454 31.4804 20.44 31.7348 20.44 32V42H10.59L11.43 36.14C11.4484 36.0087 11.4407 35.875 11.4075 35.7467C11.3742 35.6183 11.316 35.4977 11.2361 35.3919C11.1563 35.286 11.0563 35.1969 10.942 35.1297C10.8277 35.0625 10.7013 35.0184 10.57 35C10.4387 34.9816 10.305 34.9893 10.1767 35.0225C10.0483 35.0558 9.92776 35.114 9.8219 35.1939C9.71604 35.2738 9.62695 35.3737 9.55971 35.488C9.49247 35.6023 9.4484 35.7287 9.43001 35.86L8.57001 42H4.00001C3.84582 42.0045 3.69267 41.9733 3.55254 41.9088C3.41241 41.8443 3.28911 41.7483 3.19227 41.6282C3.09543 41.5081 3.02768 41.3672 2.99433 41.2166C2.96098 41.066 2.96292 40.9097 3.00001 40.76L5.24001 31.76C5.51687 30.6784 6.14776 29.7206 7.03216 29.0392C7.91656 28.3577 9.00358 27.9919 10.12 28H13.6C14.2864 29.0099 15.0922 29.9333 16 30.75C16.0974 30.8435 16.2127 30.9163 16.3389 30.9641C16.4652 31.0119 16.5998 31.0336 16.7347 31.0279C16.8695 31.0223 17.0019 30.9893 17.1237 30.9312C17.2455 30.873 17.3543 30.7908 17.4434 30.6894C17.5326 30.5881 17.6004 30.4697 17.6426 30.3415C17.6848 30.2133 17.7006 30.0779 17.6891 29.9434C17.6775 29.8089 17.6389 29.6781 17.5755 29.5589C17.512 29.4398 17.4251 29.3347 17.32 29.25C13.9 26.25 11.42 20.07 11.42 14.5C11.42 7.83 15.06 4 21.42 4C27.78 4 31.42 7.83 31.42 14.5C31.42 20.07 28.94 26.27 25.52 29.25C25.4149 29.3347 25.328 29.4398 25.2646 29.5589C25.2011 29.6781 25.1625 29.8089 25.1509 29.9434C25.1394 30.0779 25.1552 30.2133 25.1974 30.3415C25.2397 30.4697 25.3074 30.5881 25.3966 30.6894C25.4858 30.7908 25.5945 30.873 25.7163 30.9312C25.8382 30.9893 25.9705 31.0223 26.1054 31.0279C26.2402 31.0336 26.3749 31.0119 26.5011 30.9641C26.6274 30.9163 26.7427 30.8435 26.84 30.75C27.7618 29.9356 28.5812 29.0122 29.28 28H32.76C33.8753 28.0003 34.9585 28.3735 35.8373 29.0602C36.7161 29.747 37.3401 30.7078 37.61 31.79L39.85 40.79C39.8812 40.9352 39.8797 41.0855 39.8455 41.23C39.8114 41.3745 39.7454 41.5096 39.6526 41.6255C39.5597 41.7414 39.4422 41.8351 39.3085 41.8999C39.1749 41.9647 39.0285 41.9989 38.88 42Z" fill="#151A6A"/>
<path d="M21.44 24C22.0089 24 22.47 23.5389 22.47 22.97C22.47 22.4011 22.0089 21.94 21.44 21.94C20.8712 21.94 20.41 22.4011 20.41 22.97C20.41 23.5389 20.8712 24 21.44 24Z" fill="#151A6A"/>
<path d="M21.51 12C20.6859 11.995 19.8874 12.2859 19.2597 12.82C18.632 13.3541 18.217 14.0957 18.09 14.91C18.0797 15.0665 18.0797 15.2235 18.09 15.38C18.09 15.6452 18.1954 15.8996 18.3829 16.0871C18.5704 16.2746 18.8248 16.38 19.09 16.38C19.3552 16.38 19.6096 16.2746 19.7971 16.0871C19.9846 15.8996 20.09 15.6452 20.09 15.38C20.0853 15.3168 20.0853 15.2532 20.09 15.19C20.1374 14.8638 20.2991 14.565 20.5464 14.347C20.7937 14.1291 21.1104 14.0061 21.44 14V14C21.789 14.0071 22.1223 14.1463 22.3728 14.3893C22.6233 14.6324 22.7724 14.9614 22.79 15.31C22.797 15.4937 22.7669 15.6768 22.7016 15.8486C22.6364 16.0204 22.5372 16.1773 22.41 16.31C22.2808 16.4453 22.1257 16.5531 21.9538 16.627C21.782 16.7009 21.597 16.7393 21.41 16.74C21.1448 16.74 20.8904 16.8454 20.7029 17.0329C20.5154 17.2204 20.41 17.4748 20.41 17.74V20.23C20.41 20.4952 20.5154 20.7496 20.7029 20.9371C20.8904 21.1246 21.1448 21.23 21.41 21.23C21.6752 21.23 21.9296 21.1246 22.1171 20.9371C22.3046 20.7496 22.41 20.4952 22.41 20.23V18.61C22.9641 18.4428 23.4642 18.1323 23.86 17.71C24.179 17.3799 24.4262 16.9874 24.5863 16.5572C24.7463 16.127 24.8157 15.6683 24.79 15.21C24.743 14.3619 24.3803 13.5622 23.7733 12.9681C23.1663 12.374 22.3589 12.0287 21.51 12V12Z" fill="#151A6A"/>
</svg>
