<svg width="64" height="64" viewBox="0 0 64 64" fill="none" xmlns="http://www.w3.org/2000/svg">
<path d="M45.5 40.46C51.0228 40.46 55.5 35.9828 55.5 30.46C55.5 24.9372 51.0228 20.46 45.5 20.46C39.9772 20.46 35.5 24.9372 35.5 30.46C35.5 35.9828 39.9772 40.46 45.5 40.46Z" fill="#6E60E7"/>
<path d="M45.5 13.46C42.1377 13.46 38.8509 14.457 36.0553 16.325C33.2597 18.193 31.0807 20.848 29.7941 23.9544C28.5074 27.0607 28.1707 30.4789 28.8267 33.7765C29.4826 37.0742 31.1017 40.1033 33.4792 42.4808C35.8567 44.8583 38.8858 46.4774 42.1835 47.1334C45.4811 47.7893 48.8993 47.4526 52.0056 46.166C55.112 44.8793 57.767 42.7003 59.635 39.9047C61.503 37.1091 62.5 33.8223 62.5 30.46C62.5 25.9513 60.7089 21.6273 57.5208 18.4392C54.3327 15.2511 50.0087 13.46 45.5 13.46ZM45.5 42.46C43.1266 42.46 40.8066 41.7562 38.8332 40.4376C36.8598 39.1191 35.3217 37.2449 34.4135 35.0522C33.5052 32.8595 33.2676 30.4467 33.7306 28.1189C34.1936 25.7911 35.3365 23.6529 37.0147 21.9747C38.693 20.2965 40.8312 19.1536 43.1589 18.6906C45.4867 18.2276 47.8995 18.4652 50.0922 19.3734C52.2849 20.2817 54.1591 21.8198 55.4776 23.7932C56.7962 25.7665 57.5 28.0866 57.5 30.46C57.5 33.6426 56.2357 36.6948 53.9853 38.9453C51.7349 41.1957 48.6826 42.46 45.5 42.46Z" fill="#6E60E7"/>
<path d="M29.46 40.62L25.58 44.24L31.72 50.38L35.34 46.5C34.1557 45.7547 33.0559 44.8829 32.06 43.9C31.0736 42.9072 30.2015 41.807 29.46 40.62V40.62Z" fill="#6E60E7"/>
<path d="M14.51 54.58C14.0365 55.026 13.6573 55.5625 13.395 56.1577C13.1327 56.7529 12.9925 57.3947 12.9827 58.0451C12.973 58.6955 13.0939 59.3412 13.3383 59.944C13.5828 60.5468 13.9457 61.0944 14.4056 61.5544C14.8656 62.0143 15.4132 62.3773 16.016 62.6217C16.6188 62.8661 17.2645 62.987 17.9149 62.9773C18.5653 62.9676 19.2071 62.8274 19.8023 62.565C20.3975 62.3027 20.934 61.9235 21.38 61.45L30.38 51.84L24.15 45.61L14.51 54.58Z" fill="#6E60E7"/>
<path d="M36.5 1H4.5C3.70435 1 2.94129 1.31607 2.37868 1.87868C1.81607 2.44129 1.5 3.20435 1.5 4V48C1.5 48.7956 1.81607 49.5587 2.37868 50.1213C2.94129 50.6839 3.70435 51 4.5 51H36.5C37.2956 51 38.0587 50.6839 38.6213 50.1213C39.1839 49.5587 39.5 48.7956 39.5 48V4C39.5 3.20435 39.1839 2.44129 38.6213 1.87868C38.0587 1.31607 37.2956 1 36.5 1V1ZM37.5 48C37.5 48.2652 37.3946 48.5196 37.2071 48.7071C37.0196 48.8946 36.7652 49 36.5 49H4.5C4.23478 49 3.98043 48.8946 3.79289 48.7071C3.60536 48.5196 3.5 48.2652 3.5 48V4C3.5 3.73478 3.60536 3.48043 3.79289 3.29289C3.98043 3.10536 4.23478 3 4.5 3H36.5C36.7652 3 37.0196 3.10536 37.2071 3.29289C37.3946 3.48043 37.5 3.73478 37.5 4V48Z" fill="#151A6A"/>
<path d="M14.5 23C14.7652 23 15.0196 22.8946 15.2071 22.7071C15.3946 22.5196 15.5 22.2652 15.5 22C15.5 20.6739 16.0268 19.4021 16.9645 18.4645C17.9021 17.5268 19.1739 17 20.5 17C21.8261 17 23.0978 17.5268 24.0355 18.4645C24.9732 19.4021 25.5 20.6739 25.5 22C25.5 22.2652 25.6053 22.5196 25.7929 22.7071C25.9804 22.8946 26.2348 23 26.5 23C26.7652 23 27.0196 22.8946 27.2071 22.7071C27.3946 22.5196 27.5 22.2652 27.5 22C27.501 20.6744 27.1256 19.3758 26.4175 18.2552C25.7094 17.1346 24.6977 16.2381 23.5 15.67C24.0212 15.0966 24.3646 14.3841 24.4885 13.6192C24.6124 12.8543 24.5115 12.0698 24.198 11.3612C23.8845 10.6526 23.3719 10.0502 22.7225 9.62744C22.0731 9.20464 21.3149 8.97957 20.54 8.97957C19.7651 8.97957 19.0069 9.20464 18.3575 9.62744C17.7081 10.0502 17.1955 10.6526 16.882 11.3612C16.5685 12.0698 16.4676 12.8543 16.5915 13.6192C16.7154 14.3841 17.0588 15.0966 17.58 15.67C16.3823 16.2381 15.3706 17.1346 14.6625 18.2552C13.9543 19.3758 13.579 20.6744 13.58 22C13.5792 22.2519 13.6735 22.4949 13.8441 22.6803C14.0146 22.8657 14.2489 22.9798 14.5 23V23ZM18.5 13C18.5 12.6044 18.6173 12.2178 18.8371 11.8889C19.0568 11.56 19.3692 11.3036 19.7346 11.1522C20.1001 11.0009 20.5022 10.9613 20.8902 11.0384C21.2781 11.1156 21.6345 11.3061 21.9142 11.5858C22.1939 11.8655 22.3844 12.2219 22.4616 12.6098C22.5387 12.9978 22.4991 13.3999 22.3478 13.7654C22.1964 14.1308 21.94 14.4432 21.6111 14.6629C21.2822 14.8827 20.8956 15 20.5 15C19.9696 15 19.4609 14.7893 19.0858 14.4142C18.7107 14.0391 18.5 13.5304 18.5 13Z" fill="#151A6A"/>
<path d="M32.5 28H8.5C8.23478 28 7.98043 28.1054 7.79289 28.2929C7.60536 28.4804 7.5 28.7348 7.5 29C7.5 29.2652 7.60536 29.5196 7.79289 29.7071C7.98043 29.8946 8.23478 30 8.5 30H32.5C32.7652 30 33.0196 29.8946 33.2071 29.7071C33.3946 29.5196 33.5 29.2652 33.5 29C33.5 28.7348 33.3946 28.4804 33.2071 28.2929C33.0196 28.1054 32.7652 28 32.5 28Z" fill="#151A6A"/>
<path d="M32.5 34H8.5C8.23478 34 7.98043 34.1054 7.79289 34.2929C7.60536 34.4804 7.5 34.7348 7.5 35C7.5 35.2652 7.60536 35.5196 7.79289 35.7071C7.98043 35.8946 8.23478 36 8.5 36H32.5C32.7652 36 33.0196 35.8946 33.2071 35.7071C33.3946 35.5196 33.5 35.2652 33.5 35C33.5 34.7348 33.3946 34.4804 33.2071 34.2929C33.0196 34.1054 32.7652 34 32.5 34Z" fill="#151A6A"/>
<path d="M32.5 40H8.5C8.23478 40 7.98043 40.1054 7.79289 40.2929C7.60536 40.4804 7.5 40.7348 7.5 41C7.5 41.2652 7.60536 41.5196 7.79289 41.7071C7.98043 41.8946 8.23478 42 8.5 42H32.5C32.7652 42 33.0196 41.8946 33.2071 41.7071C33.3946 41.5196 33.5 41.2652 33.5 41C33.5 40.7348 33.3946 40.4804 33.2071 40.2929C33.0196 40.1054 32.7652 40 32.5 40Z" fill="#151A6A"/>
</svg>
