<svg width="64" height="64" viewBox="0 0 64 64" fill="none" xmlns="http://www.w3.org/2000/svg">
<path d="M58 27H55V24C55 20.5522 53.6304 17.2456 51.1924 14.8076C48.7544 12.3696 45.4478 11 42 11C38.5522 11 35.2456 12.3696 32.8076 14.8076C30.3696 17.2456 29 20.5522 29 24V27H26C24.6739 27 23.4021 27.5268 22.4645 28.4645C21.5268 29.4021 21 30.6739 21 32V40C21 45.5695 23.2125 50.911 27.1508 54.8492C31.089 58.7875 36.4305 61 42 61C47.5695 61 52.911 58.7875 56.8492 54.8492C60.7875 50.911 63 45.5695 63 40V32C63 30.6739 62.4732 29.4021 61.5355 28.4645C60.5979 27.5268 59.3261 27 58 27V27ZM45 48.12C45.1128 48.5794 45.1197 49.0584 45.0201 49.5208C44.9205 49.9833 44.7171 50.417 44.4252 50.7892C44.1333 51.1615 43.7606 51.4625 43.3352 51.6694C42.9099 51.8764 42.443 51.984 41.97 51.984C41.497 51.984 41.0301 51.8764 40.6048 51.6694C40.1794 51.4625 39.8067 51.1615 39.5148 50.7892C39.223 50.417 39.0195 49.9833 38.9199 49.5208C38.8203 49.0584 38.8272 48.5794 38.94 48.12L40.09 43.51C39.3024 43.0906 38.6776 42.42 38.3151 41.6046C37.9525 40.7893 37.873 39.8762 38.0891 39.0105C38.3052 38.1448 38.8046 37.3762 39.5078 36.8269C40.211 36.2777 41.0777 35.9793 41.97 35.9793C42.8623 35.9793 43.729 36.2777 44.4322 36.8269C45.1354 37.3762 45.6348 38.1448 45.8509 39.0105C46.067 39.8762 45.9875 40.7893 45.6249 41.6046C45.2624 42.42 44.6376 43.0906 43.85 43.51L45 48.12ZM51 27H33V24C33 21.6131 33.9482 19.3239 35.636 17.636C37.3239 15.9482 39.6131 15 42 15C44.3869 15 46.6761 15.9482 48.364 17.636C50.0518 19.3239 51 21.6131 51 24V27Z" fill="#6E60E7"/>
<path d="M42.62 15.18L31.9 4.46C31.4061 3.96696 30.8144 3.58278 30.163 3.33219C29.5117 3.0816 28.8151 2.97014 28.118 3.00499C27.421 3.03984 26.739 3.22023 26.1159 3.53455C25.4927 3.84886 24.9423 4.29015 24.5 4.83L16.86 14.17C16.0748 15.129 15.6737 16.3456 15.7347 17.5836C15.7957 18.8215 16.3143 19.9928 17.19 20.87L17.46 21.14L1.88002 36.72C1.55873 37.036 1.31278 37.4204 1.16043 37.8446C1.00808 38.2687 0.953255 38.7217 1.00002 39.17L1.44002 43C1.51531 43.6769 1.8187 44.3081 2.30032 44.7897C2.78193 45.2713 3.41309 45.5747 4.09002 45.65L7.91002 46.08C8.35674 46.1293 8.80882 46.0776 9.23288 45.9288C9.65695 45.7799 10.0421 45.5377 10.36 45.22L11.1 44.48C11.6618 43.9175 11.9774 43.155 11.9774 42.36C11.9774 41.565 11.6618 40.8025 11.1 40.24L10.39 39.53C10.2864 39.4263 10.2069 39.3011 10.1571 39.1632C10.1073 39.0253 10.0884 38.8782 10.1017 38.7322C10.1151 38.5862 10.1604 38.445 10.2344 38.3184C10.3084 38.1919 10.4093 38.0832 10.53 38C10.7426 37.8716 10.9929 37.8205 11.2388 37.8551C11.4847 37.8897 11.7111 38.008 11.88 38.19L12.51 38.82C13.0723 39.3836 13.8354 39.7007 14.6315 39.7017C15.4276 39.7026 16.1914 39.3873 16.755 38.825C17.3186 38.2627 17.6358 37.4996 17.6367 36.7035C17.6376 35.9074 17.3223 35.1436 16.76 34.58L16.12 33.95C15.9388 33.7785 15.8213 33.5504 15.7867 33.3033C15.7522 33.0562 15.8027 32.8046 15.93 32.59C16.014 32.47 16.1233 32.3699 16.2503 32.2968C16.3772 32.2237 16.5187 32.1794 16.6646 32.167C16.8106 32.1546 16.9574 32.1744 17.0949 32.2251C17.2323 32.2757 17.357 32.3559 17.46 32.46L18.17 33.17C18.7325 33.7318 19.495 34.0474 20.29 34.0474C21.085 34.0474 21.8475 33.7318 22.41 33.17L26 29.62L26.27 29.89C27.1473 30.7657 28.3185 31.2843 29.5565 31.3453C30.7945 31.4063 32.011 31.0052 32.97 30.22L42.3 22.59C42.8381 22.144 43.2767 21.5902 43.5876 20.9643C43.8984 20.3384 44.0746 19.6542 44.1048 18.956C44.1349 18.2578 44.0184 17.561 43.7626 16.9106C43.5069 16.2602 43.1177 15.6707 42.62 15.18V15.18ZM21 31.74C20.9071 31.8337 20.7965 31.9081 20.6746 31.9589C20.5527 32.0097 20.422 32.0358 20.29 32.0358C20.158 32.0358 20.0273 32.0097 19.9054 31.9589C19.7836 31.9081 19.673 31.8337 19.58 31.74L18.88 31.04C18.5717 30.7307 18.1996 30.4925 17.7897 30.3419C17.3798 30.1913 16.9419 30.1321 16.5067 30.1683C16.0715 30.2045 15.6495 30.3352 15.2701 30.5514C14.8907 30.7676 14.563 31.064 14.31 31.42C13.9066 32.0203 13.7258 32.7427 13.7989 33.4622C13.8719 34.1817 14.1942 34.8531 14.71 35.36L15.34 35.99C15.4447 36.0796 15.5297 36.19 15.5897 36.314C15.6498 36.4381 15.6835 36.5732 15.6888 36.7109C15.6941 36.8487 15.6709 36.986 15.6207 37.1143C15.5704 37.2426 15.4941 37.3592 15.3967 37.4566C15.2992 37.5541 15.1827 37.6304 15.0543 37.6806C14.926 37.7309 14.7887 37.7541 14.651 37.7488C14.5132 37.7435 14.3781 37.7098 14.2541 37.6497C14.13 37.5897 14.0197 37.5047 13.93 37.4L13.3 36.77C12.7931 36.2542 12.1217 35.9319 11.4022 35.8588C10.6827 35.7858 9.96029 35.9666 9.36002 36.37C9.00545 36.6246 8.7107 36.9534 8.49633 37.3336C8.28196 37.7139 8.15314 38.1363 8.11887 38.5714C8.08459 39.0065 8.14567 39.4439 8.29786 39.853C8.45005 40.2621 8.68968 40.6331 9.00002 40.94L9.70002 41.64C9.79375 41.733 9.86814 41.8436 9.91891 41.9654C9.96968 42.0873 9.99582 42.218 9.99582 42.35C9.99582 42.482 9.96968 42.6127 9.91891 42.7346C9.86814 42.8564 9.79375 42.967 9.70002 43.06L9.00002 43.79C8.894 43.897 8.76519 43.9786 8.6232 44.0288C8.48121 44.079 8.32972 44.0965 8.18002 44.08L4.36002 43.65C4.13548 43.6243 3.92626 43.5234 3.76645 43.3636C3.60664 43.2038 3.50568 42.9945 3.48002 42.77L3.00002 39C2.98221 38.8511 2.99813 38.7 3.0466 38.5581C3.09506 38.4162 3.17484 38.2869 3.28002 38.18L18.88 22.55L24.53 28.21L21 31.74ZM41 21L31.66 28.64C31.0857 29.1052 30.3599 29.3421 29.6218 29.3052C28.8836 29.2683 28.185 28.9602 27.66 28.44L18.66 19.44C18.1398 18.915 17.8317 18.2164 17.7948 17.4783C17.7579 16.7401 17.9948 16.0143 18.46 15.44L26.05 6.1C26.3155 5.77622 26.6459 5.51162 27.0199 5.3232C27.3938 5.13479 27.803 5.02675 28.2213 5.00603C28.6395 4.98531 29.0574 5.05236 29.4481 5.20288C29.8389 5.35341 30.1938 5.58406 30.49 5.88L41.21 16.6C41.5 16.895 41.7258 17.2469 41.8733 17.6334C42.0208 18.0199 42.0867 18.4327 42.067 18.8459C42.0473 19.2591 41.9423 19.6638 41.7587 20.0345C41.5751 20.4052 41.3168 20.7339 41 21Z" fill="#151A6A"/>
<path d="M28.42 11.59C26.82 13.2 27.82 15.94 29.48 17.59C31.14 19.24 33.92 20.22 35.48 18.65C36.87 17.26 36.41 14.65 34.42 12.65C32.43 10.65 29.81 10.2 28.42 11.59ZM34.08 17.25C33.58 17.75 32.08 17.4 30.9 16.19C30.11 15.4 29.16 13.68 29.84 13.01C30.52 12.34 32.1 13.15 33.02 14.07C34.23 15.28 34.58 16.75 34.08 17.25Z" fill="#151A6A"/>
</svg>
