<svg id="Capa_1" data-name="Capa 1" xmlns="http://www.w3.org/2000/svg" viewBox="0 0 117 80.62"><defs><style>.cls-1{fill:#ed8700;}.cls-2{fill:#137399;}.cls-3{fill:#f6a72e;}.cls-4{fill:#00bbc4;}.cls-5{fill:#ffd527;}.cls-6{fill:#1cace5;}.cls-7{fill:#029fb0;}.cls-8{fill:#03d4ea;}.cls-9{fill:#0e5673;}</style></defs><title>llave</title><path class="cls-1" d="M74.68,45.6l1.72,1a5.2,5.2,0,0,0,2.35-4.06,2.78,2.78,0,0,0,0-.52c0-.05,0-.1,0-.15a1.84,1.84,0,0,0-.09-.28l-.09-.13a1,1,0,0,0-.13-.2,1.2,1.2,0,0,0-.12-.11A1.34,1.34,0,0,0,77,40.94a2.74,2.74,0,0,1,.07.6A5.17,5.17,0,0,1,74.68,45.6Z" transform="translate(-7.02 -28.75)"/><path class="cls-1" d="M74.1,45.84a1.37,1.37,0,0,0,.62.93,1.19,1.19,0,0,0,.2.08l.15,0h.25a.76.76,0,0,0,.15,0,1.73,1.73,0,0,0,.31-.07l.14,0a2.5,2.5,0,0,0,.48-.22l-1.72-1A2.31,2.31,0,0,1,74.1,45.84Z" transform="translate(-7.02 -28.75)"/><path class="cls-2" d="M71.83,50.67a2.35,2.35,0,0,1-.4-.43l-.1-.14a4.15,4.15,0,0,1-.34-.59l-.62.36a1.13,1.13,0,0,0,.18.12l1.72,1a2.21,2.21,0,0,1-.4-.28S71.84,50.68,71.83,50.67Z" transform="translate(-7.02 -28.75)"/><path class="cls-1" d="M77,36.89l.18-.07.4-.16.22-.06.33-.09.25,0,.29,0h.51l.22,0,.26,0,.2.06.25.07.19.09.23.11h0l-1.73-1c-1-.61-2.52-.53-4.13.4l1.72,1C76.57,37.09,76.77,37,77,36.89Z" transform="translate(-7.02 -28.75)"/><path class="cls-1" d="M76.37,37.2l-1.72-1a12.94,12.94,0,0,0-5.39,7.33l1.72,1A13,13,0,0,1,76.37,37.2Z" transform="translate(-7.02 -28.75)"/><polygon class="cls-1" points="63.96 15.78 62.24 14.78 9.37 45.3 11.09 46.3 63.96 15.78"/><path class="cls-3" d="M76.41,50.59a10.39,10.39,0,0,0,2.51-2.13l.36-.44a13.86,13.86,0,0,0,2.43-4.5,10,10,0,0,0,.5-3c0-1.84-.66-3.14-1.71-3.74l-.23-.11-.19-.09-.25-.07-.2-.06-.26,0-.22,0h-.51l-.29,0-.25,0-.33.09-.22.06-.4.16-.18.07c-.2.09-.4.2-.6.31A13,13,0,0,0,71,44.53L18.11,75.05v5L70.37,49.87l.62-.36a4.15,4.15,0,0,0,.34.59l.1.14a2.35,2.35,0,0,0,.4.43s0,0,0,0a2.94,2.94,0,0,0,2,.68A5.36,5.36,0,0,0,76.41,50.59Zm0-9.41a3.33,3.33,0,0,1,.57-.24,1.34,1.34,0,0,1,1.27.21,1.2,1.2,0,0,1,.12.11,1,1,0,0,1,.13.2l.09.13a1.84,1.84,0,0,1,.09.28c0,.05,0,.1,0,.15a2.78,2.78,0,0,1,0,.52A5.2,5.2,0,0,1,76.4,46.6a2.5,2.5,0,0,1-.48.22l-.14,0a1.73,1.73,0,0,1-.31.07.76.76,0,0,1-.15,0h-.25l-.15,0a1.19,1.19,0,0,1-.2-.08,1.37,1.37,0,0,1-.62-.93,2.49,2.49,0,0,1-.07-.58A5.18,5.18,0,0,1,76.38,41.18Z" transform="translate(-7.02 -28.75)"/><path class="cls-3" d="M87.07,65.05a1.4,1.4,0,0,0-.09-.29l-.09-.14a1.27,1.27,0,0,0-.13-.19l-.12-.1a1.29,1.29,0,0,0-1.27-.21,2,2,0,0,1,.07.58,5.19,5.19,0,0,1-2.34,4.08l1.72,1a5.23,5.23,0,0,0,2.35-4.08,2.67,2.67,0,0,0,0-.51A.78.78,0,0,0,87.07,65.05Z" transform="translate(-7.02 -28.75)"/><path class="cls-3" d="M82.52,69a1.4,1.4,0,0,0,.62.92,1.67,1.67,0,0,0,.2.08l.15,0a1,1,0,0,0,.25,0,.42.42,0,0,0,.16,0l.29-.06.15,0a3.41,3.41,0,0,0,.48-.22l-1.72-1A3.1,3.1,0,0,1,82.52,69Z" transform="translate(-7.02 -28.75)"/><path class="cls-3" d="M80.25,73.84a3.28,3.28,0,0,1-.4-.43l-.1-.14a4.27,4.27,0,0,1-.34-.6l-.62.36a1.18,1.18,0,0,0,.18.13l1.72,1a2.86,2.86,0,0,1-.4-.28Z" transform="translate(-7.02 -28.75)"/><path class="cls-3" d="M84.79,60.38a5.71,5.71,0,0,1,.6-.31l.18-.08.4-.16.22-.06.34-.09.23,0c.1,0,.2,0,.3,0h.51l.22,0,.26,0,.21.06.24.07.19.09.23.11h0l-1.72-1a3.07,3.07,0,0,0-1.61-.38l-1.95,1.12Z" transform="translate(-7.02 -28.75)"/><path class="cls-3" d="M79.4,67.7a12.88,12.88,0,0,1,5.39-7.32l-1.14-.67-3.13,1.81a13.78,13.78,0,0,0-2.84,5.18h0Z" transform="translate(-7.02 -28.75)"/><polygon class="cls-4" points="38.81 45.82 38.83 50.8 40.55 51.8 40.54 46.82 38.81 45.82"/><path class="cls-5" d="M88.5,59.77l-.24-.07-.21-.06-.26,0-.22,0h-.51c-.1,0-.2,0-.3,0l-.23,0-.34.09-.22.06-.4.16-.18.08a5.71,5.71,0,0,0-.6.31A12.88,12.88,0,0,0,79.4,67.7L26.53,98.22l0,5L78.79,73l.62-.36a4.27,4.27,0,0,0,.34.6l.1.14a3.28,3.28,0,0,0,.4.43l0,0c1.07.9,2.71.93,4.54-.12a12.86,12.86,0,0,0,5.8-10.06c0-1.83-.66-3.13-1.71-3.73l-.23-.11Zm-3.68,10a3.41,3.41,0,0,1-.48.22l-.15,0-.29.06a.42.42,0,0,1-.16,0,1,1,0,0,1-.25,0l-.15,0a1.67,1.67,0,0,1-.2-.08,1.4,1.4,0,0,1-.62-.92,2.73,2.73,0,0,1-.07-.59,5.18,5.18,0,0,1,2.35-4.07,2.25,2.25,0,0,1,.57-.24,1.29,1.29,0,0,1,1.27.21l.12.1a1.27,1.27,0,0,1,.13.19l.09.14a1.4,1.4,0,0,1,.09.29.78.78,0,0,1,.05.14,2.67,2.67,0,0,1,0,.51A5.23,5.23,0,0,1,84.82,69.78Z" transform="translate(-7.02 -28.75)"/><polygon class="cls-4" points="17.79 68.48 17.81 73.45 19.53 74.45 19.51 69.48 17.79 68.48"/><polygon class="cls-3" points="72.38 38.95 70.66 37.95 70.66 37.95 17.79 68.48 19.51 69.48 72.38 38.95"/><polygon class="cls-4" points="28.89 41.03 28.91 46.02 30.63 47.02 30.62 42.03 28.89 41.03"/><path class="cls-3" d="M94.2,41.33l1.72,1a5.21,5.21,0,0,0,2.35-4.06,2.78,2.78,0,0,0,0-.52.66.66,0,0,0,0-.15,1.84,1.84,0,0,0-.09-.28.6.6,0,0,0-.09-.13,1,1,0,0,0-.13-.2,1.2,1.2,0,0,0-.12-.11,1.34,1.34,0,0,0-1.27-.21,2.23,2.23,0,0,1,.08.6A5.21,5.21,0,0,1,94.2,41.33Z" transform="translate(-7.02 -28.75)"/><path class="cls-3" d="M93.62,41.57a1.39,1.39,0,0,0,.62.93l.21.08.14.05h.25a.81.81,0,0,0,.16,0,2,2,0,0,0,.31-.07.61.61,0,0,0,.13,0,2.05,2.05,0,0,0,.48-.22l-1.72-1A2.17,2.17,0,0,1,93.62,41.57Z" transform="translate(-7.02 -28.75)"/><path class="cls-3" d="M91.35,46.4A4.15,4.15,0,0,1,91,46l-.1-.14a4.15,4.15,0,0,1-.34-.59l-.62.36.18.12,1.72,1a2.63,2.63,0,0,1-.4-.28Z" transform="translate(-7.02 -28.75)"/><path class="cls-3" d="M96.49,32.62l.18-.07.4-.16.22-.06.34-.09.24,0,.29-.05h.51l.22,0,.27,0,.19.06.26.07.18.09.23.11h0l-1.72-1a4.12,4.12,0,0,0-4.14.4l1.72,1C96.09,32.82,96.29,32.71,96.49,32.62Z" transform="translate(-7.02 -28.75)"/><path class="cls-3" d="M95.89,32.93l-1.72-1a12.91,12.91,0,0,0-5.39,7.33l1.72,1A13,13,0,0,1,95.89,32.93Z" transform="translate(-7.02 -28.75)"/><polygon class="cls-3" points="83.48 11.51 81.76 10.51 28.89 41.03 30.62 42.03 83.48 11.51"/><path class="cls-5" d="M95.93,46.32a10.39,10.39,0,0,0,2.51-2.13c.13-.14.24-.29.36-.44a14,14,0,0,0,2.44-4.5,10.26,10.26,0,0,0,.49-3A4.06,4.06,0,0,0,100,32.53l-.23-.11-.18-.09-.26-.07-.19-.06-.27,0-.22,0h-.51l-.29.05-.24,0-.34.09-.22.06-.4.16-.18.07c-.2.09-.4.2-.6.31a13,13,0,0,0-5.39,7.33L37.63,70.78l0,5L89.89,45.6l.62-.36a4.15,4.15,0,0,0,.34.59L91,46a4.15,4.15,0,0,0,.4.43l0,0a2.94,2.94,0,0,0,2,.68A5.36,5.36,0,0,0,95.93,46.32Zm0-9.41a3.33,3.33,0,0,1,.57-.24,1.34,1.34,0,0,1,1.27.21,1.2,1.2,0,0,1,.12.11,1,1,0,0,1,.13.2.6.6,0,0,1,.09.13,1.84,1.84,0,0,1,.09.28.66.66,0,0,1,0,.15,2.78,2.78,0,0,1,0,.52,5.21,5.21,0,0,1-2.35,4.06,2.05,2.05,0,0,1-.48.22.61.61,0,0,1-.13,0,2,2,0,0,1-.31.07.81.81,0,0,1-.16,0h-.25l-.14-.05-.21-.08a1.39,1.39,0,0,1-.62-.93,2.49,2.49,0,0,1-.07-.58A5.21,5.21,0,0,1,95.9,36.91Z" transform="translate(-7.02 -28.75)"/><path class="cls-3" d="M116.49,38.94l1.72,1a5.19,5.19,0,0,0,2.34-4.06,2.82,2.82,0,0,0,0-.52,1.31,1.31,0,0,1-.05-.15c0-.1-.06-.2-.09-.28l-.09-.13a1.48,1.48,0,0,0-.13-.21l-.12-.1a1.32,1.32,0,0,0-1.27-.21,2.73,2.73,0,0,1,.07.59A5.19,5.19,0,0,1,116.49,38.94Z" transform="translate(-7.02 -28.75)"/><path class="cls-3" d="M115.91,39.18a1.42,1.42,0,0,0,.62.93l.2.07.15.06h.4a1.73,1.73,0,0,0,.31-.07l.14,0a2.5,2.5,0,0,0,.48-.22l-1.72-1A2.47,2.47,0,0,1,115.91,39.18Z" transform="translate(-7.02 -28.75)"/><path class="cls-3" d="M113.64,44a2.72,2.72,0,0,1-.4-.43l-.1-.14a3.37,3.37,0,0,1-.34-.59l-.62.36.18.12,1.72,1a2.21,2.21,0,0,1-.4-.28S113.65,44,113.64,44Z" transform="translate(-7.02 -28.75)"/><path class="cls-3" d="M118.78,30.23l.18-.07a3.2,3.2,0,0,1,.39-.16l.22-.06.34-.1.24,0,.3,0a1.92,1.92,0,0,1,.24,0H121a1.46,1.46,0,0,1,.22,0,2.06,2.06,0,0,1,.26,0,1.52,1.52,0,0,1,.2.06l.25.07a1.11,1.11,0,0,1,.19.09l.23.1h0l-1.73-1c-1.06-.62-2.52-.53-4.13.4l1.72,1A5.71,5.71,0,0,1,118.78,30.23Z" transform="translate(-7.02 -28.75)"/><path class="cls-3" d="M118.18,30.54l-1.72-1a12.92,12.92,0,0,0-5.39,7.32l1.72,1A12.92,12.92,0,0,1,118.18,30.54Z" transform="translate(-7.02 -28.75)"/><polygon class="cls-3" points="105.77 9.12 104.05 8.12 37.95 46.3 39.67 47.3 105.77 9.12"/><path class="cls-5" d="M118.22,43.93a10.58,10.58,0,0,0,2.51-2.13l.36-.44a14,14,0,0,0,2.43-4.5,10,10,0,0,0,.5-3c0-1.85-.66-3.14-1.71-3.75l-.23-.1a1.11,1.11,0,0,0-.19-.09l-.25-.07a1.52,1.52,0,0,0-.2-.06,2.06,2.06,0,0,0-.26,0,1.46,1.46,0,0,0-.22,0h-.27a1.92,1.92,0,0,0-.24,0l-.3,0-.24,0-.34.1-.22.06a3.2,3.2,0,0,0-.39.16l-.18.07a5.71,5.71,0,0,0-.6.31,12.92,12.92,0,0,0-5.39,7.32L46.69,76.05v5l65.48-37.82.62-.36a3.37,3.37,0,0,0,.34.59l.1.14a2.72,2.72,0,0,0,.4.43s0,0,0,0a2.93,2.93,0,0,0,2,.68A5.36,5.36,0,0,0,118.22,43.93Zm0-9.41a2.68,2.68,0,0,1,.57-.24,1.32,1.32,0,0,1,1.27.21l.12.1a1.48,1.48,0,0,1,.13.21l.09.13c0,.08.06.18.09.28a1.31,1.31,0,0,0,.05.15,2.82,2.82,0,0,1,0,.52,5.19,5.19,0,0,1-2.34,4.06,2.5,2.5,0,0,1-.48.22l-.14,0a1.73,1.73,0,0,1-.31.07h-.4l-.15-.06-.2-.07a1.42,1.42,0,0,1-.62-.93,2.56,2.56,0,0,1-.07-.58A5.18,5.18,0,0,1,118.19,34.52Z" transform="translate(-7.02 -28.75)"/><path class="cls-1" d="M70.48,71.11l1.72,1A5.23,5.23,0,0,0,74.55,68a2.78,2.78,0,0,0,0-.52s0-.1,0-.15,0-.19-.09-.28L74.27,67a1.37,1.37,0,0,0-.13-.2l-.12-.1a1.29,1.29,0,0,0-1.27-.21,2.58,2.58,0,0,1,.07.59A5.19,5.19,0,0,1,70.48,71.11Z" transform="translate(-7.02 -28.75)"/><path class="cls-1" d="M69.9,71.35a1.37,1.37,0,0,0,.62.92,1.19,1.19,0,0,0,.2.08l.15.05a1,1,0,0,0,.25,0,.38.38,0,0,0,.15,0l.31-.06.14,0a4.9,4.9,0,0,0,.48-.22l-1.72-1A3.41,3.41,0,0,1,69.9,71.35Z" transform="translate(-7.02 -28.75)"/><path class="cls-1" d="M67.63,76.17a2.35,2.35,0,0,1-.4-.43l-.1-.13a4.93,4.93,0,0,1-.34-.6l-.62.36a1.13,1.13,0,0,0,.18.12l1.72,1a2.92,2.92,0,0,1-.4-.29A.08.08,0,0,1,67.63,76.17Z" transform="translate(-7.02 -28.75)"/><path class="cls-1" d="M72.77,62.4l.18-.08.4-.16.22-.06L73.9,62l.25,0,.29,0H75l.22,0,.26,0,.2.05.25.07.19.09.23.11h0l-1.73-1c-1-.61-2.52-.53-4.13.4l1.72,1A5.59,5.59,0,0,1,72.77,62.4Z" transform="translate(-7.02 -28.75)"/><path class="cls-1" d="M72.17,62.7l-1.72-1A13,13,0,0,0,65.06,69l1.72,1A13,13,0,0,1,72.17,62.7Z" transform="translate(-7.02 -28.75)"/><polygon class="cls-1" points="59.76 41.28 58.04 40.28 20.77 61.88 22.49 62.88 59.76 41.28"/><path class="cls-3" d="M72.21,76.09A10.17,10.17,0,0,0,74.72,74l.36-.43A13.9,13.9,0,0,0,77.51,69a9.9,9.9,0,0,0,.5-3c0-1.84-.66-3.14-1.71-3.74l-.23-.11-.19-.09L75.63,62l-.2-.05-.26,0-.22,0h-.51l-.29,0-.25,0-.33.09-.22.06-.4.16-.18.08a5.59,5.59,0,0,0-.6.3A13,13,0,0,0,66.78,70L29.51,91.62v5L66.17,75.37l.62-.36a4.93,4.93,0,0,0,.34.6l.1.13a2.35,2.35,0,0,0,.4.43.08.08,0,0,0,0,0,2.93,2.93,0,0,0,2,.68A5.36,5.36,0,0,0,72.21,76.09Zm0-9.41a2.62,2.62,0,0,1,.57-.23,1.29,1.29,0,0,1,1.27.21l.12.1a1.37,1.37,0,0,1,.13.2l.09.13c0,.09.06.19.09.28s0,.1,0,.15a2.78,2.78,0,0,1,0,.52,5.23,5.23,0,0,1-2.35,4.07,4.9,4.9,0,0,1-.48.22l-.14,0-.31.06a.38.38,0,0,1-.15,0,1,1,0,0,1-.25,0l-.15-.05a1.19,1.19,0,0,1-.2-.08,1.37,1.37,0,0,1-.62-.92,2.17,2.17,0,0,1-.07-.59A5.21,5.21,0,0,1,72.18,66.68Z" transform="translate(-7.02 -28.75)"/><path class="cls-2" d="M16.92,96.18a12.33,12.33,0,0,0,5.59-9.69c0-2.2-1-3.59-2.45-3.9a3.44,3.44,0,0,1,.36.59v0a4.51,4.51,0,0,1,.32,1h0a6.56,6.56,0,0,1,.11,1.21,12.34,12.34,0,0,1-5.58,9.69l-.58.3-.17.07c-.13,0-.26.11-.39.15a1.39,1.39,0,0,0-.19.06l-.35.09-.2,0-.32,0h-.49l-.21,0-.25,0h0C13.08,97.12,14.87,97.36,16.92,96.18Z" transform="translate(-7.02 -28.75)"/><path class="cls-2" d="M23.85,62.9C14.52,68.29,7,81.33,7,92.05c0,6,2.38,10,6.09,11.39-2.79-2-4.52-5.66-4.53-10.72a23.79,23.79,0,0,1,.19-2.9s0-.07,0-.11C10,79.73,17,68.86,25.49,64,30,61.39,34,61.06,37,62.56,33.92,59.92,29.17,59.83,23.85,62.9Z" transform="translate(-7.02 -28.75)"/><path class="cls-6" d="M42.1,77.73a25.22,25.22,0,0,0,.34-4.11c0-5.59-2.1-9.42-5.41-11.06C34,61.06,30,61.39,25.49,64,17,68.86,10,79.73,8.78,89.71c0,0,0,.07,0,.11a23.79,23.79,0,0,0-.19,2.9c0,5.06,1.74,8.76,4.53,10.72,3.12,2.18,7.57,2.18,12.49-.66A25.17,25.17,0,0,0,28.2,101,38.64,38.64,0,0,0,42.1,77.73Zm-30,18.08a3.63,3.63,0,0,1-.51-1,5.8,5.8,0,0,1-.3-1.86,12.34,12.34,0,0,1,5.59-9.68,5.5,5.5,0,0,1,1.95-.72,3.7,3.7,0,0,1,1.2,0h0c1.47.31,2.44,1.7,2.45,3.9a12.33,12.33,0,0,1-5.59,9.69C14.87,97.36,13.08,97.12,12.1,95.81Z" transform="translate(-7.02 -28.75)"/><path class="cls-2" d="M16.9,96.06l1.72,1a12.31,12.31,0,0,0,5.59-9.68,6.59,6.59,0,0,0-.11-1.22h0a5.33,5.33,0,0,0-.32-1v0a3.64,3.64,0,0,0-.39-.6,3.76,3.76,0,0,0-1.21,0,5.48,5.48,0,0,1,.32,1.86A12.33,12.33,0,0,1,16.9,96.06Z" transform="translate(-7.02 -28.75)"/><path class="cls-2" d="M15.73,97.8l.21,0a2.43,2.43,0,0,0,.27,0h.22l.31,0,.21,0,.35-.09.19-.06c.13,0,.26-.1.39-.15l.17-.07q.28-.14.57-.3l-1.72-1a5.54,5.54,0,0,1-2,.72,3.63,3.63,0,0,0,.51,1h0Z" transform="translate(-7.02 -28.75)"/><path class="cls-7" d="M30.12,62.31c.22-.1.43-.17.64-.26.42-.17.84-.35,1.24-.49s.49-.14.74-.21.73-.22,1.08-.3.51-.08.76-.12.66-.12,1-.15.49,0,.73,0,.63,0,.92,0,.48.06.72.09a8.24,8.24,0,0,1,.85.11c.23,0,.45.12.67.18s.54.14.79.23.42.2.63.29.49.21.72.35h0l-1.73-1c-3.44-2-8.2-1.72-13.45,1.32l1.72,1C28.83,62.94,29.48,62.61,30.12,62.31Z" transform="translate(-7.02 -28.75)"/><path class="cls-2" d="M20.27,98.13a12.33,12.33,0,0,0,5.59-9.68c0-2.21-1-3.6-2.45-3.91a3.44,3.44,0,0,1,.36.59v0a5.33,5.33,0,0,1,.32,1h0a6.59,6.59,0,0,1,.11,1.22,12.31,12.31,0,0,1-5.59,9.68q-.29.16-.57.3l-.17.07c-.13,0-.26.11-.39.15l-.19.06-.35.09-.21,0-.31,0h-.22a2.43,2.43,0,0,1-.27,0l-.21,0-.25,0h0C16.43,99.07,18.22,99.31,20.27,98.13Z" transform="translate(-7.02 -28.75)"/><path class="cls-2" d="M28.18,65.65C18.85,71,11.32,84.08,11.35,94.8c0,6,2.39,10,6.09,11.39-2.78-2-4.51-5.66-4.53-10.72a26,26,0,0,1,.19-2.9.45.45,0,0,0,0-.11c1.21-10,8.25-20.85,16.72-25.74,4.46-2.58,8.51-2.91,11.53-1.41C38.26,62.67,33.51,62.58,28.18,65.65Z" transform="translate(-7.02 -28.75)"/><path class="cls-7" d="M13.07,106.72c-.17-.16-.34-.31-.5-.48s-.34-.45-.51-.68-.3-.36-.44-.57-.29-.52-.44-.79-.25-.42-.35-.65-.25-.61-.37-.92-.19-.45-.27-.7-.19-.72-.28-1.08-.14-.48-.19-.73c-.09-.43-.14-.9-.2-1.36,0-.21-.07-.41-.09-.63-.07-.69-.1-1.41-.11-2.16,0-12,8.41-26.62,18.86-32.65l-1.72-1C16,68.35,7.57,83,7.6,95c0,6,2.13,10.16,5.52,12.13l1.72,1c-.21-.12-.41-.28-.62-.43s-.38-.24-.56-.39S13.27,106.91,13.07,106.72Z" transform="translate(-7.02 -28.75)"/><path class="cls-8" d="M17.44,106.19c-3.7-1.43-6.07-5.41-6.09-11.39,0-10.72,7.5-23.76,16.83-29.15,5.33-3.07,10.08-3,13.18-.34,3.31,1.64,5.4,5.47,5.41,11.06a26.36,26.36,0,0,1-.33,4.11,29.85,29.85,0,0,0,.71-6.35C47.14,68.15,45,64,41.6,62c-.23-.14-.48-.23-.72-.35s-.41-.21-.63-.29-.52-.15-.79-.23-.44-.14-.67-.18a8.24,8.24,0,0,0-.85-.11c-.24,0-.47-.08-.72-.09s-.61,0-.92,0-.48,0-.73,0-.66.1-1,.15-.5.06-.76.12-.72.19-1.08.3-.49.12-.74.21-.82.32-1.24.49c-.21.09-.42.16-.64.26-.64.3-1.29.63-1.94,1C17.73,69.35,9.29,84,9.32,96c0,.75,0,1.47.11,2.16,0,.22.06.42.09.63.06.46.11.93.2,1.36,0,.25.13.48.19.73s.17.73.28,1.08.18.46.27.7.23.63.37.92.23.43.35.65.28.54.44.79.29.38.44.57.33.47.51.68.33.32.5.48.38.39.59.56.38.26.56.39c3.48,2.43,8.49,2.34,14.08-.88a29.76,29.76,0,0,0,4.23-3,25.05,25.05,0,0,1-2.59,1.75C25,108.37,20.57,108.37,17.44,106.19Z" transform="translate(-7.02 -28.75)"/><path class="cls-6" d="M46.44,80.48a26.36,26.36,0,0,0,.33-4.11c0-5.59-2.1-9.42-5.41-11.06-3-1.5-7.07-1.17-11.53,1.41-8.47,4.89-15.51,15.76-16.72,25.74a.45.45,0,0,1,0,.11,26,26,0,0,0-.19,2.9c0,5.06,1.75,8.76,4.53,10.72,3.13,2.18,7.57,2.18,12.5-.66a25.05,25.05,0,0,0,2.59-1.75A38.66,38.66,0,0,0,46.44,80.48Zm-31,17.28a3.63,3.63,0,0,1-.51-1,5.75,5.75,0,0,1-.3-1.86,12.34,12.34,0,0,1,5.59-9.68,6,6,0,0,1,1.94-.72,3.76,3.76,0,0,1,1.21,0h0c1.47.31,2.44,1.7,2.45,3.91a12.33,12.33,0,0,1-5.59,9.68C18.22,99.31,16.43,99.07,15.45,97.76Z" transform="translate(-7.02 -28.75)"/><path class="cls-9" d="M30,92.68l-.87-.5a.7.7,0,0,0,.29.63l.86.51a.58.58,0,0,1-.14-.17s-.05,0-.07-.07A1,1,0,0,1,30,92.68Z" transform="translate(-7.02 -28.75)"/><polygon class="cls-9" points="22.96 50.76 22.1 50.26 22.14 63.44 23 63.94 22.96 50.76"/><path class="cls-9" d="M31.34,77.67l.1,0a.46.46,0,0,1,.21,0h0l-.86-.51a.72.72,0,0,0-.7.07l.86.5A1,1,0,0,1,31.34,77.67Z" transform="translate(-7.02 -28.75)"/><path class="cls-9" d="M31,77.8l-.86-.5a2.15,2.15,0,0,0-1,1.7l.86.5A2.15,2.15,0,0,1,31,77.8Z" transform="translate(-7.02 -28.75)"/><path class="cls-2" d="M31.65,77.74a.46.46,0,0,0-.21,0l-.1,0a1,1,0,0,0-.38.13,2.15,2.15,0,0,0-1,1.7l0,13.18a1,1,0,0,0,.07.4s.05,0,.07.07a.59.59,0,0,0,.84.1,2.19,2.19,0,0,0,1-1.7l0-13.19A.66.66,0,0,0,31.65,77.74Z" transform="translate(-7.02 -28.75)"/><path class="cls-9" d="M33.46,90.7l-.87-.5a.68.68,0,0,0,.29.63l.86.5a.47.47,0,0,1-.14-.17.46.46,0,0,1-.07-.07A.94.94,0,0,1,33.46,90.7Z" transform="translate(-7.02 -28.75)"/><polygon class="cls-9" points="26.4 48.77 25.54 48.27 25.58 61.45 26.44 61.95 26.4 48.77"/><path class="cls-9" d="M34.78,75.69s.07,0,.11,0a.42.42,0,0,1,.2,0h0l-.86-.5a.7.7,0,0,0-.7.07l.86.5A.86.86,0,0,1,34.78,75.69Z" transform="translate(-7.02 -28.75)"/><path class="cls-9" d="M34.4,75.82l-.86-.5a2.11,2.11,0,0,0-1,1.69l.86.5A2.13,2.13,0,0,1,34.4,75.82Z" transform="translate(-7.02 -28.75)"/><path class="cls-2" d="M35.09,75.75a.42.42,0,0,0-.2,0s-.07,0-.11,0a.86.86,0,0,0-.38.13,2.13,2.13,0,0,0-1,1.69l0,13.19a.94.94,0,0,0,.07.39.46.46,0,0,0,.07.07c.17.25.47.31.84.1a2.18,2.18,0,0,0,1-1.7l0-13.18A.68.68,0,0,0,35.09,75.75Z" transform="translate(-7.02 -28.75)"/><path class="cls-9" d="M36.9,88.71l-.87-.5a.68.68,0,0,0,.29.63l.86.5a.44.44,0,0,1-.14-.16s0,0-.07-.08A.88.88,0,0,1,36.9,88.71Z" transform="translate(-7.02 -28.75)"/><polygon class="cls-9" points="29.84 46.78 28.98 46.28 29.02 59.47 29.88 59.97 29.84 46.78"/><path class="cls-9" d="M38.22,73.7l.11,0a.59.59,0,0,1,.2,0h0l-.87-.5a.68.68,0,0,0-.69.07l.86.5A.86.86,0,0,1,38.22,73.7Z" transform="translate(-7.02 -28.75)"/><path class="cls-9" d="M37.84,73.83l-.86-.5A2.13,2.13,0,0,0,36,75l.86.5A2.13,2.13,0,0,1,37.84,73.83Z" transform="translate(-7.02 -28.75)"/><path class="cls-2" d="M38.82,74.39a.68.68,0,0,0-.29-.63.59.59,0,0,0-.2,0l-.11,0a.86.86,0,0,0-.38.13,2.13,2.13,0,0,0-1,1.7l0,13.18a.88.88,0,0,0,.07.39s.05.05.07.08c.17.24.47.31.84.09a2.16,2.16,0,0,0,1-1.69Z" transform="translate(-7.02 -28.75)"/><path class="cls-9" d="M40.33,86.91l-.86-.5a.68.68,0,0,0,.29.63l.86.5a.44.44,0,0,1-.14-.16s0,0-.07-.07A1,1,0,0,1,40.33,86.91Z" transform="translate(-7.02 -28.75)"/><polygon class="cls-9" points="33.28 44.98 32.42 44.48 32.45 57.67 33.32 58.17 33.28 44.98"/><path class="cls-9" d="M41.66,71.9l.11,0a.65.65,0,0,1,.2,0h0l-.86-.5a.74.74,0,0,0-.71.07l.87.5A.86.86,0,0,1,41.66,71.9Z" transform="translate(-7.02 -28.75)"/><path class="cls-9" d="M41.28,72l-.87-.5a2.14,2.14,0,0,0-1,1.7l.86.5A2.15,2.15,0,0,1,41.28,72Z" transform="translate(-7.02 -28.75)"/><path class="cls-2" d="M42,72a.65.65,0,0,0-.2,0l-.11,0a.86.86,0,0,0-.38.13,2.15,2.15,0,0,0-1,1.7l0,13.18a1,1,0,0,0,.08.4s.05,0,.07.07c.17.24.47.31.84.09a2.16,2.16,0,0,0,1-1.69l0-13.19A.69.69,0,0,0,42,72Z" transform="translate(-7.02 -28.75)"/></svg>