<svg width="64" height="64" viewBox="0 0 64 64" fill="none" xmlns="http://www.w3.org/2000/svg">
<path d="M60 26H39C38.5502 26.0009 38.1063 26.1029 37.7013 26.2985C37.2963 26.4941 36.9404 26.7783 36.66 27.13L33.86 30.62C33.7588 30.749 33.6274 30.8511 33.4774 30.9174C33.3275 30.9836 33.1635 31.012 33 31H16C15.2044 31 14.4413 31.3161 13.8787 31.8787C13.3161 32.4413 13 33.2044 13 34V60C13 60.7956 13.3161 61.5587 13.8787 62.1213C14.4413 62.6839 15.2044 63 16 63H60C60.7956 63 61.5587 62.6839 62.1213 62.1213C62.6839 61.5587 63 60.7956 63 60V29C63 28.2044 62.6839 27.4413 62.1213 26.8787C61.5587 26.3161 60.7956 26 60 26ZM38 57C38 57.2652 37.8946 57.5196 37.7071 57.7071C37.5196 57.8946 37.2652 58 37 58H19C18.7348 58 18.4804 57.8946 18.2929 57.7071C18.1054 57.5196 18 57.2652 18 57V49C18 48.7348 18.1054 48.4804 18.2929 48.2929C18.4804 48.1054 18.7348 48 19 48H37C37.2652 48 37.5196 48.1054 37.7071 48.2929C37.8946 48.4804 38 48.7348 38 49V57Z" fill="#6E60E7"/>
<path d="M36 50H20V56H36V50Z" fill="#6E60E7"/>
<path d="M16 37C17.78 37 19.5201 36.4722 21.0001 35.4832C22.4802 34.4943 23.6337 33.0887 24.3149 31.4441C24.9961 29.7996 25.1743 27.99 24.8271 26.2442C24.4798 24.4984 23.6226 22.8947 22.364 21.636C21.1053 20.3774 19.5016 19.5202 17.7558 19.1729C16.01 18.8257 14.2004 19.0039 12.5558 19.6851C10.9113 20.3663 9.50571 21.5198 8.51677 22.9999C7.52784 24.4799 7 26.22 7 28C7 30.3869 7.94821 32.6761 9.63604 34.364C11.3239 36.0518 13.6131 37 16 37ZM16 21C17.3845 21 18.7378 21.4105 19.889 22.1797C21.0401 22.9489 21.9373 24.0421 22.4672 25.3212C22.997 26.6003 23.1356 28.0078 22.8655 29.3656C22.5954 30.7235 21.9287 31.9708 20.9497 32.9497C19.9708 33.9287 18.7235 34.5954 17.3656 34.8655C16.0078 35.1356 14.6003 34.997 13.3212 34.4672C12.0421 33.9373 10.9489 33.0401 10.1797 31.889C9.41054 30.7378 9 29.3845 9 28C9 26.1435 9.7375 24.363 11.0503 23.0503C12.363 21.7375 14.1435 21 16 21V21Z" fill="#151A6A"/>
<path d="M16 32C16.7911 32 17.5645 31.7654 18.2223 31.3259C18.8801 30.8864 19.3928 30.2616 19.6955 29.5307C19.9983 28.7998 20.0775 27.9956 19.9231 27.2196C19.7688 26.4437 19.3878 25.731 18.8284 25.1716C18.269 24.6122 17.5563 24.2312 16.7804 24.0769C16.0044 23.9225 15.2002 24.0017 14.4693 24.3045C13.7384 24.6072 13.1136 25.1199 12.6741 25.7777C12.2346 26.4355 12 27.2089 12 28C12 29.0609 12.4214 30.0783 13.1716 30.8284C13.9217 31.5786 14.9391 32 16 32ZM16 26C16.3956 26 16.7822 26.1173 17.1111 26.3371C17.44 26.5568 17.6964 26.8692 17.8478 27.2346C17.9991 27.6001 18.0387 28.0022 17.9616 28.3902C17.8844 28.7781 17.6939 29.1345 17.4142 29.4142C17.1345 29.6939 16.7781 29.8844 16.3902 29.9616C16.0022 30.0387 15.6001 29.9991 15.2346 29.8478C14.8692 29.6964 14.5568 29.44 14.3371 29.1111C14.1173 28.7822 14 28.3956 14 28C14 27.4696 14.2107 26.9609 14.5858 26.5858C14.9609 26.2107 15.4696 26 16 26Z" fill="#151A6A"/>
<path d="M46.7 17.29C44.81 15.4 41.7 16.61 38.88 17.67C37.64 18.15 35.57 18.94 35.12 18.67C35.12 18.67 34.99 18.48 34.99 18.04C34.99 16.69 36.34 14.48 37.64 12.34C39.64 9.09 41.64 5.72 40.34 3.34C39.47 1.75 37.4 1 34 1C20.71 1 6 16.75 5.36 17.42C2.78891 19.9838 1.23139 23.3908 0.974595 27.0126C0.717803 30.6345 1.77906 34.227 3.9627 37.128C6.14633 40.0289 9.30512 42.0427 12.8567 42.7979C16.4082 43.5531 20.113 42.9988 23.2881 41.2374C26.4631 39.4759 28.8943 36.6259 30.1334 33.213C31.3725 29.8 31.336 26.0541 30.0305 22.666C28.7251 19.2778 26.2387 16.4758 23.0299 14.7767C19.8211 13.0775 16.1061 12.5956 12.57 13.42C18 8.84 26.4 3 34 3C36.55 3 38.14 3.44 38.6 4.27C39.37 5.64 37.47 8.75 35.94 11.27C34.41 13.79 33 16.09 33 18C32.9599 18.4336 33.0306 18.8704 33.2055 19.2692C33.3804 19.668 33.6538 20.0158 34 20.28C35.31 21.19 37.3 20.42 39.6 19.54C41.71 18.74 44.32 17.73 45.29 18.71C46.44 19.85 46.02 20.83 44.41 23.54C42.501 26.359 41.3287 29.6113 41 33C40.7348 33 40.4804 33.1054 40.2929 33.2929C40.1054 33.4804 40 33.7348 40 34C40 34.2652 40.1054 34.5196 40.2929 34.7071C40.4804 34.8946 40.7348 35 41 35V36.13C40.2755 36.3171 39.618 36.7036 39.1022 37.2457C38.5864 37.7878 38.233 38.4636 38.0821 39.1965C37.9313 39.9294 37.989 40.69 38.2488 41.3917C38.5086 42.0934 38.96 42.7082 39.5517 43.1662C40.1434 43.6242 40.8517 43.907 41.5962 43.9825C42.3406 44.0581 43.0913 43.9233 43.763 43.5935C44.4346 43.2637 45.0003 42.7521 45.3958 42.1169C45.7912 41.4817 46.0006 40.7483 46 40C46 39.7348 45.8946 39.4804 45.7071 39.2929C45.5196 39.1054 45.2652 39 45 39C44.7348 39 44.4804 39.1054 44.2929 39.2929C44.1054 39.4804 44 39.7348 44 40C44 40.3956 43.8827 40.7822 43.6629 41.1111C43.4432 41.44 43.1308 41.6964 42.7654 41.8478C42.3999 41.9991 41.9978 42.0387 41.6098 41.9616C41.2219 41.8844 40.8655 41.6939 40.5858 41.4142C40.3061 41.1345 40.1156 40.7781 40.0384 40.3902C39.9613 40.0022 40.0009 39.6001 40.1522 39.2346C40.3036 38.8692 40.56 38.5568 40.8889 38.3371C41.2178 38.1173 41.6044 38 42 38C42.2652 38 42.5196 37.8946 42.7071 37.7071C42.8946 37.5196 43 37.2652 43 37V35C43.2652 35 43.5196 34.8946 43.7071 34.7071C43.8946 34.5196 44 34.2652 44 34C44 33.7348 43.8946 33.4804 43.7071 33.2929C43.5196 33.1054 43.2652 33 43 33C43.3131 29.9722 44.3713 27.0691 46.08 24.55C47.62 22 49 19.63 46.7 17.29ZM25.18 18.81C26.9988 20.6278 28.2376 22.9442 28.7397 25.4661C29.2419 27.9881 28.9848 30.6023 28.0011 32.9781C27.0173 35.3539 25.3511 37.3847 23.2131 38.8134C21.0751 40.2422 18.5614 41.0048 15.99 41.0048C13.4186 41.0048 10.9049 40.2422 8.76689 38.8134C6.6289 37.3847 4.96266 35.3539 3.97892 32.9781C2.99518 30.6023 2.73813 27.9881 3.24029 25.4661C3.74244 22.9442 4.98125 20.6278 6.8 18.81C9.23778 16.3735 12.5434 15.0048 15.99 15.0048C19.4366 15.0048 22.7422 16.3735 25.18 18.81V18.81Z" fill="#151A6A"/>
</svg>
