<svg width="64" height="64" viewBox="0 0 64 64" fill="none" xmlns="http://www.w3.org/2000/svg">
<path d="M21 55H63V37H21V55ZM39.09 42.28C39.2205 41.7472 39.4946 41.2604 39.8825 40.8725C40.2704 40.4846 40.7572 40.2105 41.29 40.08C41.9948 39.9189 42.7342 40.0178 43.3719 40.3585C44.0096 40.6992 44.5029 41.2587 44.7608 41.9341C45.0188 42.6095 45.0242 43.3554 44.776 44.0345C44.5278 44.7135 44.0427 45.2801 43.41 45.63L44.27 49.09C44.3563 49.435 44.3629 49.7952 44.2892 50.1431C44.2155 50.491 44.0634 50.8176 43.8446 51.0979C43.6257 51.3783 43.3459 51.605 43.0262 51.761C42.7066 51.917 42.3557 51.9981 42 51.9981C41.6443 51.9981 41.2934 51.917 40.9738 51.761C40.6541 51.605 40.3743 51.3783 40.1554 51.0979C39.9366 50.8176 39.7845 50.491 39.7108 50.1431C39.6371 49.7952 39.6437 49.435 39.73 49.09L40.59 45.63C40.0044 45.3165 39.5394 44.8174 39.2679 44.2112C38.9964 43.6049 38.9339 42.9257 39.09 42.28Z" fill="#6E60E7"/>
<path d="M21 60C21 60.7956 21.3161 61.5587 21.8787 62.1213C22.4413 62.6839 23.2044 63 24 63H60C60.7956 63 61.5587 62.6839 62.1213 62.1213C62.6839 61.5587 63 60.7956 63 60V57H21V60Z" fill="#6E60E7"/>
<path d="M60 29H33V26C33 23.6131 33.9482 21.3239 35.636 19.636C37.3239 17.9482 39.6131 17 42 17C44.3869 17 46.6761 17.9482 48.364 19.636C50.0518 21.3239 51 23.6131 51 26C51 26.2652 51.1054 26.5196 51.2929 26.7071C51.4804 26.8946 51.7348 27 52 27H54C54.2652 27 54.5196 26.8946 54.7071 26.7071C54.8946 26.5196 55 26.2652 55 26C55 22.5522 53.6304 19.2456 51.1924 16.8076C48.7544 14.3696 45.4478 13 42 13C38.5522 13 35.2456 14.3696 32.8076 16.8076C30.3696 19.2456 29 22.5522 29 26V29H24C23.2044 29 22.4413 29.3161 21.8787 29.8787C21.3161 30.4413 21 31.2044 21 32V35H63V32C63 31.2044 62.6839 30.4413 62.1213 29.8787C61.5587 29.3161 60.7956 29 60 29Z" fill="#6E60E7"/>
<path d="M22 11C22.9889 11 23.9556 10.7068 24.7779 10.1573C25.6001 9.60794 26.241 8.82705 26.6194 7.91342C26.9978 6.99979 27.0969 5.99445 26.9039 5.02455C26.711 4.05464 26.2348 3.16373 25.5355 2.46446C24.8363 1.7652 23.9454 1.289 22.9755 1.09607C22.0055 0.903146 21.0002 1.00216 20.0866 1.3806C19.173 1.75904 18.3921 2.3999 17.8427 3.22215C17.2932 4.04439 17 5.01109 17 6C17 7.32608 17.5268 8.59785 18.4645 9.53553C19.4021 10.4732 20.6739 11 22 11ZM22 3C22.5933 3 23.1734 3.17595 23.6667 3.50559C24.1601 3.83523 24.5446 4.30377 24.7716 4.85195C24.9987 5.40013 25.0581 6.00333 24.9424 6.58527C24.8266 7.16721 24.5409 7.70176 24.1213 8.12132C23.7018 8.54088 23.1672 8.8266 22.5853 8.94235C22.0033 9.05811 21.4001 8.9987 20.8519 8.77164C20.3038 8.54457 19.8352 8.16006 19.5056 7.66671C19.1759 7.17336 19 6.59334 19 6C19 5.20435 19.3161 4.44129 19.8787 3.87868C20.4413 3.31607 21.2044 3 22 3Z" fill="#151A6A"/>
<path d="M22 33C21.0111 33 20.0444 33.2932 19.2222 33.8427C18.3999 34.3921 17.759 35.173 17.3806 36.0866C17.0022 37.0002 16.9031 38.0055 17.0961 38.9755C17.289 39.9454 17.7652 40.8363 18.4645 41.5355C19.1637 42.2348 20.0546 42.711 21.0246 42.9039C21.9945 43.0969 22.9998 42.9978 23.9134 42.6194C24.8271 42.241 25.6079 41.6001 26.1574 40.7779C26.7068 39.9556 27 38.9889 27 38C27 36.6739 26.4732 35.4021 25.5355 34.4645C24.5979 33.5268 23.3261 33 22 33ZM22 41C21.4067 41 20.8266 40.8241 20.3333 40.4944C19.8399 40.1648 19.4554 39.6962 19.2284 39.148C19.0013 38.5999 18.9419 37.9967 19.0576 37.4147C19.1734 36.8328 19.4591 36.2982 19.8787 35.8787C20.2982 35.4591 20.8328 35.1734 21.4147 35.0576C21.9967 34.9419 22.5999 35.0013 23.1481 35.2284C23.6962 35.4554 24.1648 35.8399 24.4944 36.3333C24.8241 36.8266 25 37.4067 25 38C25 38.7956 24.6839 39.5587 24.1213 40.1213C23.5587 40.6839 22.7957 41 22 41Z" fill="#151A6A"/>
<path d="M43 22C43.0002 20.8473 42.6022 19.73 41.8733 18.8371C41.1444 17.9442 40.1294 17.3305 39 17.1V10.9C40.0491 10.6871 41.0021 10.1432 41.719 9.34827C42.4358 8.55332 42.8786 7.54929 42.9822 6.48388C43.0859 5.41848 42.8448 4.34794 42.2946 3.42974C41.7444 2.51155 40.914 1.79418 39.9256 1.38315C38.9373 0.972122 37.8431 0.889142 36.804 1.14641C35.7649 1.40369 34.8359 1.98763 34.1535 2.81235C33.4711 3.63706 33.0714 4.65901 33.0131 5.72786C32.9549 6.79671 33.2412 7.85603 33.83 8.75L24.75 17.83C23.789 17.2027 22.6416 16.9251 21.5001 17.0437C20.3587 17.1623 19.2928 17.6699 18.4814 18.4814C17.6699 19.2928 17.1623 20.3587 17.0437 21.5001C16.9251 22.6416 17.2027 23.789 17.83 24.75L8.75 33.83C8.21856 33.4773 7.62455 33.2295 7 33.1V26.9C8.13028 26.6705 9.14647 26.0573 9.87637 25.1643C10.6063 24.2712 11.005 23.1534 11.005 22C11.005 20.8466 10.6063 19.7288 9.87637 18.8357C9.14647 17.9427 8.13028 17.3295 7 17.1V10.9C8.21404 10.6522 9.29282 9.96241 10.0272 8.96441C10.7616 7.96641 11.0992 6.73128 10.9747 5.49847C10.8501 4.26567 10.2723 3.12302 9.35315 2.29206C8.43401 1.4611 7.23907 1.00102 6 1.00102C4.76092 1.00102 3.56598 1.4611 2.64684 2.29206C1.72771 3.12302 1.14985 4.26567 1.02531 5.49847C0.900777 6.73128 1.23842 7.96641 1.9728 8.96441C2.70717 9.96241 3.78595 10.6522 5 10.9V17.1C3.86971 17.3295 2.85352 17.9427 2.12362 18.8357C1.39371 19.7288 0.994983 20.8466 0.994983 22C0.994983 23.1534 1.39371 24.2712 2.12362 25.1643C2.85352 26.0573 3.86971 26.6705 5 26.9V33.1C3.95094 33.3129 2.99789 33.8568 2.28103 34.6517C1.56418 35.4467 1.12138 36.4507 1.01775 37.5161C0.914127 38.5815 1.15516 39.6521 1.70538 40.5703C2.25561 41.4884 3.08599 42.2058 4.07436 42.6168C5.06274 43.0279 6.15693 43.1109 7.19599 42.8536C8.23505 42.5963 9.16411 42.0124 9.84651 41.1877C10.5289 40.3629 10.9286 39.341 10.9869 38.2721C11.0451 37.2033 10.7588 36.144 10.17 35.25L19.25 26.17C20.2109 26.7973 21.3584 27.0749 22.4999 26.9563C23.6413 26.8377 24.7072 26.3301 25.5186 25.5186C26.3301 24.7072 26.8377 23.6413 26.9563 22.4999C27.0749 21.3584 26.7973 20.211 26.17 19.25L35.25 10.17C35.7814 10.5227 36.3754 10.7705 37 10.9V17.1C35.8697 17.3295 34.8535 17.9427 34.1236 18.8357C33.3937 19.7288 32.995 20.8466 32.995 22C32.995 23.1534 33.3937 24.2712 34.1236 25.1643C34.8535 26.0573 35.8697 26.6705 37 26.9V33.1C35.786 33.3478 34.7072 34.0376 33.9728 35.0356C33.2384 36.0336 32.9008 37.2687 33.0253 38.5015C33.1499 39.7343 33.7277 40.877 34.6468 41.7079C35.566 42.5389 36.7609 42.999 38 42.999C39.2391 42.999 40.434 42.5389 41.3531 41.7079C42.2723 40.877 42.8501 39.7343 42.9747 38.5015C43.0992 37.2687 42.7616 36.0336 42.0272 35.0356C41.2928 34.0376 40.214 33.3478 39 33.1V26.9C40.1294 26.6695 41.1444 26.0558 41.8733 25.1629C42.6022 24.27 43.0002 23.1527 43 22V22ZM38 3C38.5933 3 39.1734 3.17595 39.6667 3.50559C40.1601 3.83523 40.5446 4.30377 40.7716 4.85195C40.9987 5.40013 41.0581 6.00333 40.9424 6.58527C40.8266 7.16721 40.5409 7.70176 40.1213 8.12132C39.7018 8.54088 39.1672 8.8266 38.5853 8.94235C38.0033 9.05811 37.4001 8.9987 36.8519 8.77164C36.3038 8.54457 35.8352 8.16006 35.5056 7.66671C35.1759 7.17336 35 6.59334 35 6C35 5.20435 35.3161 4.44129 35.8787 3.87868C36.4413 3.31607 37.2043 3 38 3ZM3 6C3 5.40665 3.17594 4.82663 3.50559 4.33329C3.83523 3.83994 4.30377 3.45542 4.85195 3.22836C5.40012 3.0013 6.00332 2.94189 6.58527 3.05764C7.16721 3.1734 7.70176 3.45912 8.12132 3.87868C8.54087 4.29824 8.8266 4.83278 8.94235 5.41473C9.05811 5.99667 8.9987 6.59987 8.77163 7.14805C8.54457 7.69623 8.16005 8.16476 7.66671 8.49441C7.17336 8.82405 6.59334 9 6 9C5.20435 9 4.44128 8.68393 3.87868 8.12132C3.31607 7.55871 3 6.79565 3 6V6ZM3 22C3 21.4067 3.17594 20.8266 3.50559 20.3333C3.83523 19.8399 4.30377 19.4554 4.85195 19.2284C5.40012 19.0013 6.00332 18.9419 6.58527 19.0576C7.16721 19.1734 7.70176 19.4591 8.12132 19.8787C8.54087 20.2982 8.8266 20.8328 8.94235 21.4147C9.05811 21.9967 8.9987 22.5999 8.77163 23.148C8.54457 23.6962 8.16005 24.1648 7.66671 24.4944C7.17336 24.8241 6.59334 25 6 25C5.20435 25 4.44128 24.6839 3.87868 24.1213C3.31607 23.5587 3 22.7956 3 22ZM6 41C5.40665 41 4.82663 40.8241 4.33328 40.4944C3.83994 40.1648 3.45542 39.6962 3.22836 39.148C3.00129 38.5999 2.94188 37.9967 3.05764 37.4147C3.1734 36.8328 3.45912 36.2982 3.87868 35.8787C4.29823 35.4591 4.83278 35.1734 5.41472 35.0576C5.99667 34.9419 6.59987 35.0013 7.14805 35.2284C7.69622 35.4554 8.16476 35.8399 8.4944 36.3333C8.82405 36.8266 9 37.4067 9 38C9 38.7956 8.68393 39.5587 8.12132 40.1213C7.55871 40.6839 6.79565 41 6 41ZM22 25C21.4067 25 20.8266 24.8241 20.3333 24.4944C19.8399 24.1648 19.4554 23.6962 19.2284 23.148C19.0013 22.5999 18.9419 21.9967 19.0576 21.4147C19.1734 20.8328 19.4591 20.2982 19.8787 19.8787C20.2982 19.4591 20.8328 19.1734 21.4147 19.0576C21.9967 18.9419 22.5999 19.0013 23.148 19.2284C23.6962 19.4554 24.1648 19.8399 24.4944 20.3333C24.824 20.8266 25 21.4067 25 22C25 22.7956 24.6839 23.5587 24.1213 24.1213C23.5587 24.6839 22.7956 25 22 25V25ZM35 22C35 21.4067 35.1759 20.8266 35.5056 20.3333C35.8352 19.8399 36.3038 19.4554 36.8519 19.2284C37.4001 19.0013 38.0033 18.9419 38.5853 19.0576C39.1672 19.1734 39.7018 19.4591 40.1213 19.8787C40.5409 20.2982 40.8266 20.8328 40.9424 21.4147C41.0581 21.9967 40.9987 22.5999 40.7716 23.148C40.5446 23.6962 40.1601 24.1648 39.6667 24.4944C39.1734 24.8241 38.5933 25 38 25C37.2043 25 36.4413 24.6839 35.8787 24.1213C35.3161 23.5587 35 22.7956 35 22ZM41 38C41 38.5933 40.824 39.1734 40.4944 39.6667C40.1648 40.1601 39.6962 40.5446 39.148 40.7716C38.5999 40.9987 37.9967 41.0581 37.4147 40.9424C36.8328 40.8266 36.2982 40.5409 35.8787 40.1213C35.4591 39.7018 35.1734 39.1672 35.0576 38.5853C34.9419 38.0033 35.0013 37.4001 35.2284 36.852C35.4554 36.3038 35.8399 35.8352 36.3333 35.5056C36.8266 35.1759 37.4067 35 38 35C38.7956 35 39.5587 35.3161 40.1213 35.8787C40.6839 36.4413 41 37.2044 41 38Z" fill="#151A6A"/>
</svg>
