<svg width="57" height="57" viewBox="0 0 57 57" fill="none" xmlns="http://www.w3.org/2000/svg">
<path d="M39.2522 17.8895L12.5946 3.61776C11.2093 2.87616 9.7072 2.83826 8.4071 3.31226L31.1182 26.0234L39.2522 17.8895Z" fill="#6E60E7"/>
<path d="M49.1933 23.2117L41.5146 19.1008L32.8551 27.7602L41.5146 36.4197L49.1932 32.3087C52.8256 30.3641 52.8256 25.1563 49.1933 23.2117Z" fill="#6E60E7"/>
<path d="M6.3279 4.70667C5.5134 5.60187 5 6.79697 5 8.16627V47.3541C5 48.7234 5.5134 49.9186 6.3278 50.8138L29.3814 27.7602L6.3279 4.70667Z" fill="#6E60E7"/>
<path d="M8.4071 52.2082C9.7071 52.6821 11.2093 52.6444 12.5946 51.9027L39.2522 37.631L31.1183 29.4971L8.4071 52.2082Z" fill="#6E60E7"/>
</svg>
