<svg width="64" height="64" viewBox="0 0 64 64" fill="none" xmlns="http://www.w3.org/2000/svg">
<path d="M42.91 42.75V48.17C43.445 47.9909 43.9217 47.6706 44.2896 47.2428C44.6575 46.8151 44.903 46.2958 45 45.74C45.22 44.2 44.4 43.29 42.91 42.75Z" fill="#6E60E7"/>
<path d="M42 21C37.8466 21 33.7865 22.2316 30.333 24.5391C26.8796 26.8466 24.188 30.1264 22.5985 33.9636C21.0091 37.8009 20.5932 42.0233 21.4035 46.0969C22.2138 50.1705 24.2139 53.9123 27.1508 56.8492C30.0877 59.7861 33.8295 61.7862 37.9031 62.5965C41.9767 63.4068 46.1991 62.9909 50.0364 61.4015C53.8736 59.812 57.1534 57.1204 59.4609 53.667C61.7684 50.2135 63 46.1534 63 42C63 36.4305 60.7875 31.089 56.8493 27.1508C52.911 23.2125 47.5696 21 42 21ZM42.91 51.5C42.91 51.7652 42.8047 52.0196 42.6171 52.2071C42.4296 52.3946 42.1752 52.5 41.91 52.5C41.6448 52.5 41.3904 52.3946 41.2029 52.2071C41.0154 52.0196 40.91 51.7652 40.91 51.5V50.32C39.6637 50.278 38.4585 49.8635 37.45 49.13C37.3397 49.0578 37.2447 48.9645 37.1704 48.8556C37.0962 48.7466 37.0441 48.6241 37.0171 48.4951C36.9627 48.2344 37.0141 47.9628 37.16 47.74C37.3059 47.5172 37.5343 47.3615 37.7949 47.3071C38.0556 47.2527 38.3272 47.3041 38.55 47.45C39.2335 47.9681 40.0542 48.2741 40.91 48.33V42C38.55 41 37.01 39.75 37.51 37.11C37.6558 36.2572 38.0601 35.4699 38.6683 34.8546C39.2764 34.2393 40.059 33.8257 40.91 33.67V32.5C40.91 32.2348 41.0154 31.9804 41.2029 31.7929C41.3904 31.6054 41.6448 31.5 41.91 31.5C42.1752 31.5 42.4296 31.6054 42.6171 31.7929C42.8047 31.9804 42.91 32.2348 42.91 32.5V33.5C43.908 33.6379 44.8471 34.0537 45.62 34.7C45.7265 34.7858 45.8142 34.8926 45.8778 35.0136C45.9414 35.1347 45.9795 35.2675 45.9897 35.4039C45.9999 35.5403 45.982 35.6773 45.9372 35.8064C45.8923 35.9356 45.8215 36.0543 45.729 36.155C45.6365 36.2557 45.5243 36.3364 45.3994 36.392C45.2745 36.4477 45.1395 36.4771 45.0028 36.4785C44.866 36.4799 44.7304 36.4533 44.6044 36.4002C44.4784 36.3471 44.3646 36.2688 44.27 36.17C43.8697 35.8606 43.4049 35.6452 42.91 35.54V40.54L43.91 40.89C44.96 41.2128 45.8538 41.9118 46.4204 42.8529C46.9869 43.794 47.1861 44.9111 46.98 45.99C46.8159 47.0092 46.3452 47.9542 45.6306 48.6991C44.9161 49.4441 43.9915 49.9537 42.98 50.16L42.91 51.5ZM54.8 51.6C52.6744 54.4256 49.6762 56.4712 46.27 57.42C46.0227 57.4701 45.7655 57.4249 45.5501 57.2933C45.3348 57.1617 45.1771 56.9536 45.1088 56.7107C45.0404 56.4677 45.0665 56.2079 45.1817 55.9834C45.2969 55.7588 45.4928 55.5862 45.73 55.5C48.7157 54.6733 51.3429 52.8797 53.2 50.4C53.3591 50.1878 53.596 50.0476 53.8586 50.0101C54.1211 49.9725 54.3878 50.0409 54.6 50.2C54.8122 50.3591 54.9524 50.596 54.99 50.8586C55.0275 51.1211 54.9591 51.3878 54.8 51.6Z" fill="#6E60E7"/>
<path d="M39.48 37.44C39.23 38.72 39.86 39.19 40.91 39.74V35.74C40.5439 35.8737 40.2191 36.101 39.9682 36.3993C39.7173 36.6975 39.549 37.0564 39.48 37.44Z" fill="#6E60E7"/>
<path d="M40 1H4C3.20435 1 2.44129 1.31607 1.87868 1.87868C1.31607 2.44129 1 3.20435 1 4V32C1 32.7956 1.31607 33.5587 1.87868 34.1213C2.44129 34.6839 3.20435 35 4 35H15.84L15.11 41H10C9.73478 41 9.48043 41.1054 9.29289 41.2929C9.10536 41.4804 9 41.7348 9 42C9 42.2652 9.10536 42.5196 9.29289 42.7071C9.48043 42.8946 9.73478 43 10 43H34C34.2652 43 34.5196 42.8946 34.7071 42.7071C34.8946 42.5196 35 42.2652 35 42C35 41.7348 34.8946 41.4804 34.7071 41.2929C34.5196 41.1054 34.2652 41 34 41H28.89L28.16 35H40C40.7956 35 41.5587 34.6839 42.1213 34.1213C42.6839 33.5587 43 32.7956 43 32V4C43 3.20435 42.6839 2.44129 42.1213 1.87868C41.5587 1.31607 40.7956 1 40 1V1ZM4.85 33L17.42 22.94C17.6107 22.9803 17.8051 23.0004 18 23H26C26.1949 23.0004 26.3893 22.9803 26.58 22.94L39.15 33H4.85ZM3 4.08L15.63 14.18C15.2257 14.7009 15.0043 15.3406 15 16V20C15.0043 20.6594 15.2257 21.2991 15.63 21.82L3 31.92V4.08ZM18 21C17.7348 21 17.4804 20.8946 17.2929 20.7071C17.1054 20.5196 17 20.2652 17 20V16C17 15.7348 17.1054 15.4804 17.2929 15.2929C17.4804 15.1054 17.7348 15 18 15H26C26.2652 15 26.5196 15.1054 26.7071 15.2929C26.8946 15.4804 27 15.7348 27 16V20C27 20.2652 26.8946 20.5196 26.7071 20.7071C26.5196 20.8946 26.2652 21 26 21H18ZM20 13C20 12.4696 20.2107 11.9609 20.5858 11.5858C20.9609 11.2107 21.4696 11 22 11C22.5304 11 23.0391 11.2107 23.4142 11.5858C23.7893 11.9609 24 12.4696 24 13H20ZM26.58 13.06C26.3893 13.0197 26.1949 12.9996 26 13C26 11.9391 25.5786 10.9217 24.8284 10.1716C24.0783 9.42143 23.0609 9 22 9C20.9391 9 19.9217 9.42143 19.1716 10.1716C18.4214 10.9217 18 11.9391 18 13C17.8051 12.9996 17.6107 13.0197 17.42 13.06L4.85 3H39.15L26.58 13.06ZM28.37 21.82C28.7743 21.2991 28.9957 20.6594 29 20V16C28.9957 15.3406 28.7743 14.7009 28.37 14.18L41 4.08V31.92L28.37 21.82ZM26.87 41H17.13L17.85 35H26.15L26.87 41Z" fill="#151A6A"/>
</svg>
