<svg width="64" height="64" viewBox="0 0 64 64" fill="none" xmlns="http://www.w3.org/2000/svg">
<path d="M62.45 20.11C48.88 13.32 35.12 13.32 21.55 20.11C21.3851 20.1931 21.2464 20.3202 21.1493 20.4773C21.0522 20.6344 21.0006 20.8153 21 21V28.64C20.9799 35.5481 22.8941 42.3238 26.5259 48.2001C30.1578 54.0765 35.3622 58.8187 41.55 61.89C41.6896 61.9603 41.8437 61.997 42 61.997C42.1563 61.997 42.3104 61.9603 42.45 61.89C48.6378 58.8187 53.8422 54.0765 57.4741 48.2001C61.1059 42.3238 63.0201 35.5481 63 28.64V21C62.9994 20.8153 62.9478 20.6344 62.8507 20.4773C62.7536 20.3202 62.6149 20.1931 62.45 20.11ZM52.11 34.58L40.8 44C40.6391 44.1326 40.4408 44.2116 40.2328 44.2259C40.0248 44.2403 39.8176 44.1893 39.64 44.08L32 39.31C31.7746 39.1694 31.6142 38.9451 31.5542 38.6863C31.4942 38.4275 31.5394 38.1554 31.68 37.93C31.8206 37.7046 32.0449 37.5442 32.3037 37.4842C32.5625 37.4242 32.8346 37.4694 33.06 37.61L40.06 41.97L50.81 33.05C50.9088 32.9545 51.0261 32.8804 51.1548 32.8322C51.2835 32.7841 51.4207 32.763 51.5579 32.7702C51.6951 32.7775 51.8293 32.8129 51.9522 32.8743C52.0751 32.9357 52.184 33.0218 52.2722 33.1272C52.3603 33.2326 52.4258 33.355 52.4646 33.4868C52.5033 33.6186 52.5145 33.7569 52.4974 33.8933C52.4803 34.0296 52.4353 34.1609 52.3652 34.2791C52.2951 34.3972 52.2014 34.4997 52.09 34.58H52.11Z" fill="#6E60E7"/>
<path d="M39.45 3.66C39.2006 3.16035 38.8166 2.74025 38.3414 2.44697C37.8661 2.1537 37.3184 1.9989 36.76 2H8.11C7.60017 1.99898 7.09848 2.12791 6.65232 2.37461C6.20615 2.62132 5.83021 2.97766 5.56 3.41L1.46 10C1.16418 10.4706 1.00492 11.0142 1 11.57V21C1.00441 21.7401 1.28221 22.4524 1.78 23C1.28221 23.5476 1.00441 24.2599 1 25V33C1 33.7956 1.31607 34.5587 1.87868 35.1213C2.44129 35.6839 3.20435 36 4 36H40C40.7956 36 41.5587 35.6839 42.1213 35.1213C42.6839 34.5587 43 33.7956 43 33V25C42.9956 24.2599 42.7178 23.5476 42.22 23C42.7178 22.4524 42.9956 21.7401 43 21V11.47C42.9987 11.0046 42.8892 10.5458 42.68 10.13L39.45 3.66ZM7.26 4.47C7.35007 4.32589 7.47538 4.2071 7.62411 4.12487C7.77283 4.04263 7.94006 3.99966 8.11 4H36.76C36.9464 3.9987 37.1294 4.04951 37.2884 4.14669C37.4474 4.24387 37.5761 4.38356 37.66 4.55L40.38 10H3.8L7.26 4.47ZM41 33C41 33.2652 40.8946 33.5196 40.7071 33.7071C40.5196 33.8946 40.2652 34 40 34H4C3.73478 34 3.48043 33.8946 3.29289 33.7071C3.10536 33.5196 3 33.2652 3 33V25C3 24.7348 3.10536 24.4804 3.29289 24.2929C3.48043 24.1054 3.73478 24 4 24H40C40.2652 24 40.5196 24.1054 40.7071 24.2929C40.8946 24.4804 41 24.7348 41 25V33ZM41 21C41 21.2652 40.8946 21.5196 40.7071 21.7071C40.5196 21.8946 40.2652 22 40 22H4C3.73478 22 3.48043 21.8946 3.29289 21.7071C3.10536 21.5196 3 21.2652 3 21V13C3 12.7348 3.10536 12.4804 3.29289 12.2929C3.48043 12.1054 3.73478 12 4 12H40C40.2652 12 40.5196 12.1054 40.7071 12.2929C40.8946 12.4804 41 12.7348 41 13V21Z" fill="#151A6A"/>
<path d="M22 14C21.7348 14 21.4804 14.1054 21.2929 14.2929C21.1054 14.4804 21 14.7348 21 15V19C21 19.2652 21.1054 19.5196 21.2929 19.7071C21.4804 19.8946 21.7348 20 22 20C22.2652 20 22.5196 19.8946 22.7071 19.7071C22.8946 19.5196 23 19.2652 23 19V15C23 14.7348 22.8946 14.4804 22.7071 14.2929C22.5196 14.1054 22.2652 14 22 14Z" fill="#151A6A"/>
<path d="M22 26C21.7348 26 21.4804 26.1054 21.2929 26.2929C21.1054 26.4804 21 26.7348 21 27V31C21 31.2652 21.1054 31.5196 21.2929 31.7071C21.4804 31.8946 21.7348 32 22 32C22.2652 32 22.5196 31.8946 22.7071 31.7071C22.8946 31.5196 23 31.2652 23 31V27C23 26.7348 22.8946 26.4804 22.7071 26.2929C22.5196 26.1054 22.2652 26 22 26Z" fill="#151A6A"/>
<path d="M15 14H9C8.20435 14 7.44129 14.3161 6.87868 14.8787C6.31607 15.4413 6 16.2044 6 17C6 17.7956 6.31607 18.5587 6.87868 19.1213C7.44129 19.6839 8.20435 20 9 20H15C15.7956 20 16.5587 19.6839 17.1213 19.1213C17.6839 18.5587 18 17.7956 18 17C18 16.2044 17.6839 15.4413 17.1213 14.8787C16.5587 14.3161 15.7956 14 15 14V14ZM15 18H9C8.73478 18 8.48043 17.8946 8.29289 17.7071C8.10536 17.5196 8 17.2652 8 17C8 16.7348 8.10536 16.4804 8.29289 16.2929C8.48043 16.1054 8.73478 16 9 16H15C15.2652 16 15.5196 16.1054 15.7071 16.2929C15.8946 16.4804 16 16.7348 16 17C16 17.2652 15.8946 17.5196 15.7071 17.7071C15.5196 17.8946 15.2652 18 15 18Z" fill="#151A6A"/>
<path d="M15 26H9C8.20435 26 7.44129 26.3161 6.87868 26.8787C6.31607 27.4413 6 28.2044 6 29C6 29.7956 6.31607 30.5587 6.87868 31.1213C7.44129 31.6839 8.20435 32 9 32H15C15.7956 32 16.5587 31.6839 17.1213 31.1213C17.6839 30.5587 18 29.7956 18 29C18 28.2044 17.6839 27.4413 17.1213 26.8787C16.5587 26.3161 15.7956 26 15 26V26ZM15 30H9C8.73478 30 8.48043 29.8946 8.29289 29.7071C8.10536 29.5196 8 29.2652 8 29C8 28.7348 8.10536 28.4804 8.29289 28.2929C8.48043 28.1054 8.73478 28 9 28H15C15.2652 28 15.5196 28.1054 15.7071 28.2929C15.8946 28.4804 16 28.7348 16 29C16 29.2652 15.8946 29.5196 15.7071 29.7071C15.5196 29.8946 15.2652 30 15 30Z" fill="#151A6A"/>
<path d="M37 14H27C26.7348 14 26.4804 14.1054 26.2929 14.2929C26.1054 14.4804 26 14.7348 26 15C26 15.2652 26.1054 15.5196 26.2929 15.7071C26.4804 15.8946 26.7348 16 27 16H37C37.2652 16 37.5196 15.8946 37.7071 15.7071C37.8946 15.5196 38 15.2652 38 15C38 14.7348 37.8946 14.4804 37.7071 14.2929C37.5196 14.1054 37.2652 14 37 14Z" fill="#151A6A"/>
<path d="M37 18H27C26.7348 18 26.4804 18.1054 26.2929 18.2929C26.1054 18.4804 26 18.7348 26 19C26 19.2652 26.1054 19.5196 26.2929 19.7071C26.4804 19.8946 26.7348 20 27 20H37C37.2652 20 37.5196 19.8946 37.7071 19.7071C37.8946 19.5196 38 19.2652 38 19C38 18.7348 37.8946 18.4804 37.7071 18.2929C37.5196 18.1054 37.2652 18 37 18Z" fill="#151A6A"/>
<path d="M37 26H27C26.7348 26 26.4804 26.1054 26.2929 26.2929C26.1054 26.4804 26 26.7348 26 27C26 27.2652 26.1054 27.5196 26.2929 27.7071C26.4804 27.8946 26.7348 28 27 28H37C37.2652 28 37.5196 27.8946 37.7071 27.7071C37.8946 27.5196 38 27.2652 38 27C38 26.7348 37.8946 26.4804 37.7071 26.2929C37.5196 26.1054 37.2652 26 37 26Z" fill="#151A6A"/>
<path d="M37 30H27C26.7348 30 26.4804 30.1054 26.2929 30.2929C26.1054 30.4804 26 30.7348 26 31C26 31.2652 26.1054 31.5196 26.2929 31.7071C26.4804 31.8946 26.7348 32 27 32H37C37.2652 32 37.5196 31.8946 37.7071 31.7071C37.8946 31.5196 38 31.2652 38 31C38 30.7348 37.8946 30.4804 37.7071 30.2929C37.5196 30.1054 37.2652 30 37 30Z" fill="#151A6A"/>
</svg>
