<svg width="64" height="64" viewBox="0 0 64 64" fill="none" xmlns="http://www.w3.org/2000/svg">
<path d="M42 21C37.8466 21 33.7865 22.2316 30.333 24.5391C26.8796 26.8466 24.188 30.1264 22.5985 33.9636C21.0091 37.8009 20.5932 42.0233 21.4035 46.0969C22.2138 50.1705 24.2139 53.9123 27.1508 56.8492C30.0877 59.7861 33.8295 61.7862 37.9031 62.5965C41.9767 63.4068 46.1991 62.9909 50.0364 61.4015C53.8736 59.812 57.1534 57.1204 59.4609 53.667C61.7684 50.2135 63 46.1534 63 42C63 36.4305 60.7875 31.089 56.8493 27.1508C52.911 23.2125 47.5696 21 42 21ZM42 58C38.8355 58 35.7421 57.0616 33.1109 55.3035C30.4797 53.5454 28.4289 51.0466 27.2179 48.1229C26.0069 45.1993 25.6901 41.9823 26.3074 38.8786C26.9248 35.7749 28.4487 32.9239 30.6863 30.6863C32.9239 28.4487 35.7749 26.9248 38.8786 26.3074C41.9823 25.6901 45.1993 26.0069 48.1229 27.2179C51.0466 28.4289 53.5454 30.4797 55.3035 33.1109C57.0616 35.7421 58 38.8355 58 42C58 46.2435 56.3143 50.3131 53.3137 53.3137C50.3131 56.3143 46.2435 58 42 58Z" fill="#6E60E7"/>
<path d="M42 28C39.2311 28 36.5243 28.8211 34.222 30.3594C31.9197 31.8978 30.1253 34.0843 29.0657 36.6424C28.0061 39.2006 27.7288 42.0155 28.269 44.7313C28.8092 47.447 30.1426 49.9416 32.1005 51.8995C34.0584 53.8574 36.553 55.1908 39.2687 55.731C41.9845 56.2712 44.7994 55.9939 47.3576 54.9343C49.9157 53.8747 52.1022 52.0803 53.6406 49.778C55.1789 47.4757 56 44.7689 56 42C56 38.287 54.525 34.726 51.8995 32.1005C49.274 29.475 45.713 28 42 28V28ZM40.8 47.46C40.6391 47.5926 40.4408 47.6716 40.2328 47.6859C40.0248 47.7003 39.8176 47.6492 39.64 47.54L32 42.8C31.7746 42.6594 31.6142 42.4351 31.5542 42.1763C31.4942 41.9175 31.5394 41.6454 31.68 41.42C31.8206 41.1946 32.0449 41.0342 32.3037 40.9742C32.5625 40.9142 32.8346 40.9594 33.06 41.1L40.06 45.47L50.81 36.54C50.9111 36.4558 51.0277 36.3924 51.1533 36.3533C51.2789 36.3143 51.411 36.3004 51.542 36.3125C51.673 36.3245 51.8003 36.3623 51.9166 36.4237C52.033 36.485 52.1361 36.5687 52.22 36.67C52.3042 36.771 52.3676 36.8877 52.4067 37.0133C52.4457 37.1389 52.4596 37.271 52.4475 37.402C52.4355 37.5329 52.3977 37.6603 52.3363 37.7766C52.275 37.893 52.1913 37.9961 52.09 38.08L40.8 47.46Z" fill="#6E60E7"/>
<path d="M42 9C34.817 8.89593 27.9272 6.13499 22.66 1.25C22.4775 1.08968 22.2429 1.00127 22 1.00127C21.7571 1.00127 21.5225 1.08968 21.34 1.25C16.1303 6.22496 9.20358 9.00065 2 9C1.73479 9 1.48043 9.10536 1.2929 9.29289C1.10536 9.48043 1 9.73478 1 10V17.64C0.97987 24.5481 2.89408 31.3238 6.52592 37.2001C10.1578 43.0765 15.3622 47.8187 21.55 50.89C21.6896 50.9603 21.8437 50.997 22 50.997C22.1563 50.997 22.3104 50.9603 22.45 50.89C28.6378 47.8187 33.8422 43.0765 37.4741 37.2001C41.1059 31.3238 43.0201 24.5481 43 17.64V10C43 9.73478 42.8946 9.48043 42.7071 9.29289C42.5196 9.10536 42.2652 9 42 9ZM41 17.64C41.0205 24.0926 39.2568 30.4253 35.9038 35.9384C32.5508 41.4514 27.739 45.9303 22 48.88C16.2611 45.9303 11.4492 41.4514 8.09623 35.9384C4.74321 30.4253 2.97951 24.0926 3 17.64V11C9.98648 10.7641 16.6698 8.08934 21.89 3.44L22 3.34L22.11 3.44C27.3302 8.08934 34.0135 10.7641 41 11V17.64Z" fill="#151A6A"/>
<path d="M17 22C17.0027 22.6663 17.1386 23.3254 17.3996 23.9385C17.6606 24.5515 18.0415 25.1062 18.52 25.57L17 33.82C16.9733 33.9655 16.9793 34.1152 17.0175 34.2581C17.0557 34.4011 17.1251 34.5338 17.2207 34.6467C17.3164 34.7595 17.4359 34.8498 17.5707 34.9109C17.7054 34.972 17.8521 35.0024 18 35H26C26.1479 35.0024 26.2946 34.972 26.4293 34.9109C26.5641 34.8498 26.6836 34.7595 26.7793 34.6467C26.8749 34.5338 26.9443 34.4011 26.9825 34.2581C27.0207 34.1152 27.0267 33.9655 27 33.82L25.5 25.57C25.9748 25.1046 26.3521 24.5491 26.6096 23.9361C26.8672 23.3231 26.9999 22.6649 27 22C27 20.6739 26.4732 19.4021 25.5355 18.4645C24.5979 17.5268 23.3261 17 22 17C20.6739 17 19.4021 17.5268 18.4645 18.4645C17.5268 19.4021 17 20.6739 17 22ZM25 22C24.9973 22.4649 24.8866 22.9228 24.6766 23.3376C24.4666 23.7523 24.1631 24.1126 23.79 24.39C23.6385 24.5036 23.5223 24.6579 23.455 24.8349C23.3878 25.0119 23.3721 25.2044 23.41 25.39L24.8 33H19.2L20.59 25.36C20.6279 25.1744 20.6122 24.9819 20.545 24.8049C20.4777 24.6279 20.3615 24.4736 20.21 24.36C19.8409 24.0857 19.5399 23.7302 19.33 23.321C19.1202 22.9118 19.0073 22.4598 19 22C19 21.2044 19.3161 20.4413 19.8787 19.8787C20.4413 19.3161 21.2044 19 22 19C22.7956 19 23.5587 19.3161 24.1213 19.8787C24.6839 20.4413 25 21.2044 25 22V22Z" fill="#151A6A"/>
</svg>
