<svg width="64" height="64" viewBox="0 0 64 64" fill="none" xmlns="http://www.w3.org/2000/svg">
<path d="M62 24C60.4087 24 58.8826 23.3679 57.7574 22.2426C56.6321 21.1174 56 19.5913 56 18V16.55C55.9994 16.3486 55.938 16.152 55.8238 15.986C55.7096 15.8201 55.5479 15.6925 55.36 15.62C46.7893 12.1601 37.2107 12.1601 28.64 15.62C28.4521 15.6925 28.2904 15.8201 28.1762 15.986C28.062 16.152 28.0006 16.3486 28 16.55V18C28 19.5913 27.3679 21.1174 26.2426 22.2426C25.1174 23.3679 23.5913 24 22 24C21.7348 24 21.4804 24.1054 21.2929 24.2929C21.1054 24.4804 21 24.7348 21 25V48.9C21.0013 49.4055 21.1303 49.9025 21.3751 50.3448C21.6198 50.7871 21.9724 51.1604 22.4 51.43L39.62 62.31C40.332 62.7607 41.1573 62.9999 42 62.9999C42.8427 62.9999 43.668 62.7607 44.38 62.31L61.6 51.43C62.0276 51.1604 62.3802 50.7871 62.6249 50.3448C62.8697 49.9025 62.9987 49.4055 63 48.9V25C63 24.7348 62.8946 24.4804 62.7071 24.2929C62.5196 24.1054 62.2652 24 62 24ZM45 42.13C45.1128 42.5894 45.1197 43.0684 45.0201 43.5308C44.9205 43.9933 44.7171 44.427 44.4252 44.7992C44.1333 45.1715 43.7606 45.4724 43.3352 45.6794C42.9099 45.8864 42.443 45.994 41.97 45.994C41.497 45.994 41.0301 45.8864 40.6048 45.6794C40.1794 45.4724 39.8067 45.1715 39.5148 44.7992C39.223 44.427 39.0195 43.9933 38.9199 43.5308C38.8203 43.0684 38.8272 42.5894 38.94 42.13L40.09 37.52C39.3024 37.1006 38.6776 36.4299 38.3151 35.6146C37.9525 34.7993 37.873 33.8862 38.0891 33.0205C38.3052 32.1548 38.8046 31.3862 39.5078 30.8369C40.211 30.2877 41.0777 29.9893 41.97 29.9893C42.8623 29.9893 43.729 30.2877 44.4322 30.8369C45.1354 31.3862 45.6348 32.1548 45.8509 33.0205C46.067 33.8862 45.9875 34.7993 45.6249 35.6146C45.2624 36.4299 44.6376 37.1006 43.85 37.52L45 42.13Z" fill="#6E60E7"/>
<path d="M30 1H4C3.20435 1 2.44129 1.31607 1.87868 1.87868C1.31607 2.44129 1 3.20435 1 4V48C1 48.7956 1.31607 49.5587 1.87868 50.1213C2.44129 50.6839 3.20435 51 4 51H30C30.7956 51 31.5587 50.6839 32.1213 50.1213C32.6839 49.5587 33 48.7956 33 48V4C33 3.20435 32.6839 2.44129 32.1213 1.87868C31.5587 1.31607 30.7956 1 30 1V1ZM23.38 3L22.66 4.45C22.5761 4.61644 22.4474 4.75612 22.2884 4.85331C22.1294 4.95049 21.9464 5.0013 21.76 5H12.24C12.0536 5.0013 11.8706 4.95049 11.7116 4.85331C11.5526 4.75612 11.4239 4.61644 11.34 4.45L10.62 3H23.38ZM4 3H8.38L9.55 5.34C9.79944 5.83965 10.1834 6.25975 10.6586 6.55302C11.1339 6.8463 11.6816 7.0011 12.24 7H21.76C22.3184 7.0011 22.8661 6.8463 23.3414 6.55302C23.8166 6.25975 24.2006 5.83965 24.45 5.34L25.62 3H30C30.2652 3 30.5196 3.10536 30.7071 3.29289C30.8946 3.48043 31 3.73478 31 4V45H3V4C3 3.73478 3.10536 3.48043 3.29289 3.29289C3.48043 3.10536 3.73478 3 4 3V3ZM30 49H4C3.73478 49 3.48043 48.8946 3.29289 48.7071C3.10536 48.5196 3 48.2652 3 48V47H31V48C31 48.2652 30.8946 48.5196 30.7071 48.7071C30.5196 48.8946 30.2652 49 30 49Z" fill="#151A6A"/>
<path d="M14.17 28.09C13.4248 28.8555 13.0078 29.8817 13.0078 30.95C13.0078 32.0184 13.4248 33.0445 14.17 33.81C14.5415 34.1819 14.9826 34.4769 15.4682 34.6782C15.9538 34.8795 16.4743 34.9831 17 34.9831C17.5257 34.9831 18.0462 34.8795 18.5318 34.6782C19.0174 34.4769 19.4585 34.1819 19.83 33.81C20.5752 33.0445 20.9922 32.0184 20.9922 30.95C20.9922 29.8817 20.5752 28.8555 19.83 28.09C19.4585 27.7181 19.0174 27.4231 18.5318 27.2218C18.0462 27.0205 17.5257 26.9169 17 26.9169C16.4743 26.9169 15.9538 27.0205 15.4682 27.2218C14.9826 27.4231 14.5415 27.7181 14.17 28.09V28.09ZM18.41 32.41C18.0353 32.7825 17.5284 32.9916 17 32.9916C16.4716 32.9916 15.9647 32.7825 15.59 32.41C15.2112 32.0184 14.9994 31.4949 14.9994 30.95C14.9994 30.4052 15.2112 29.8816 15.59 29.49C15.9647 29.1175 16.4716 28.9084 17 28.9084C17.5284 28.9084 18.0353 29.1175 18.41 29.49C18.7888 29.8816 19.0006 30.4052 19.0006 30.95C19.0006 31.4949 18.7888 32.0184 18.41 32.41V32.41Z" fill="#151A6A"/>
<path d="M17 22C15.8428 21.9965 14.6967 22.2257 13.6298 22.6741C12.563 23.1225 11.5972 23.7808 10.79 24.61C10.6963 24.703 10.6219 24.8136 10.5711 24.9354C10.5203 25.0573 10.4942 25.188 10.4942 25.32C10.4942 25.452 10.5203 25.5827 10.5711 25.7046C10.6219 25.8264 10.6963 25.937 10.79 26.03C10.9774 26.2163 11.2308 26.3208 11.495 26.3208C11.7592 26.3208 12.0126 26.2163 12.2 26.03C12.8247 25.3932 13.57 24.8874 14.3925 24.5421C15.2149 24.1968 16.098 24.0189 16.99 24.0189C17.882 24.0189 18.7651 24.1968 19.5875 24.5421C20.41 24.8874 21.1553 25.3932 21.78 26.03C21.9674 26.2163 22.2208 26.3208 22.485 26.3208C22.7492 26.3208 23.0026 26.2163 23.19 26.03C23.2837 25.937 23.3581 25.8264 23.4089 25.7046C23.4597 25.5827 23.4858 25.452 23.4858 25.32C23.4858 25.188 23.4597 25.0573 23.4089 24.9354C23.3581 24.8136 23.2837 24.703 23.19 24.61C22.3851 23.7832 21.4226 23.1263 20.3594 22.678C19.2962 22.2297 18.1539 21.9991 17 22V22Z" fill="#151A6A"/>
<path d="M8.71 22.49C9.78949 21.3851 11.079 20.5072 12.5026 19.9078C13.9262 19.3084 15.4553 18.9996 17 18.9996C18.5447 18.9996 20.0738 19.3084 21.4974 19.9078C22.9211 20.5072 24.2105 21.3851 25.29 22.49C25.4801 22.6553 25.7256 22.7427 25.9774 22.7348C26.2292 22.7269 26.4688 22.6243 26.6481 22.4474C26.8275 22.2705 26.9336 22.0325 26.945 21.7808C26.9565 21.5292 26.8726 21.2825 26.71 21.09C25.446 19.7952 23.9358 18.7663 22.2682 18.0639C20.6007 17.3614 18.8095 16.9995 17 16.9995C15.1905 16.9995 13.3993 17.3614 11.7318 18.0639C10.0642 18.7663 8.55403 19.7952 7.29 21.09C7.18601 21.1804 7.10182 21.2913 7.04272 21.4158C6.98362 21.5403 6.95089 21.6756 6.94657 21.8134C6.94225 21.9511 6.96644 22.0882 7.01762 22.2161C7.06881 22.3441 7.14588 22.4601 7.244 22.5568C7.34213 22.6535 7.45918 22.729 7.58783 22.7783C7.71648 22.8277 7.85394 22.8499 7.9916 22.8437C8.12925 22.8374 8.26412 22.8027 8.38774 22.7419C8.51137 22.681 8.62108 22.5953 8.71 22.49V22.49Z" fill="#151A6A"/>
</svg>
