<svg version="1.2" xmlns="http://www.w3.org/2000/svg" viewBox="0 0 300 300" width="300" height="300">
	<title>Layer</title>
	<style>
		.s0 { fill: #1483b5 } 
		.s1 { fill: #023248 } 
		.s2 { fill: #ffde95 } 
		.s3 { fill: #ed9293 } 
		.s4 { fill: #fdabab } 
		.s5 { fill: #f3c3c3 } 
		.s6 { fill: #e7b39d } 
		.s7 { fill: #748afd } 
		.s8 { fill: #3c52c7 } 
		.s9 { opacity: .3;fill: #ffffff } 
		.s10 { fill: #ffffff } 
		.s11 { opacity: .8;fill: #1483b5 } 
		.s12 { opacity: .5;fill: #1483b5 } 
		.s13 { opacity: .2;fill: #1483b5 } 
		.s14 { fill: #f85976 } 
		.s15 { fill: #005478 } 
	</style>
	<g id="Layer">
		<g id="Layer">
			<path id="Layer" class="s0" d="m245.9 127v121.2c0 4-4.6 8.3-9.7 6.3l-127.9-75.8c-0.6-0.4-0.9-1-0.9-1.7l-2.3-127.3c0-3.2 3.9-3.8 5.2-3l133 75.8c1.6 1 2.6 2.7 2.6 4.5z"/>
			<path id="Layer" class="s1" d="m243.7 128.7v121.1c0 4-4.3 6.5-7.8 4.5l-129.8-74c-0.6-0.4-1-1-1-1.7v-128.6c0-1.5 1.6-2.4 2.9-1.7l133.1 75.9c1.6 0.9 2.6 2.6 2.6 4.5z"/>
			<g id="Layer">
				<path id="Layer" fill-rule="evenodd" class="s2" d="m237.2 247.5l-0.8-0.4-124.8-71.1v-118.2l125.6 71.6zm-124.6-72.1l123.6 70.4v-115.8l-123.6-70.5z"/>
			</g>
			<g id="Layer">
				<path id="Layer" class="s3" d="m214.6 198.1c0 4.4-7.1 9.3-17.7 10.5q-1.7 0.2-3.4 0.2-0.2 0.1-0.4 0.1-0.3 0-0.7-0.1-0.2 0.1-0.4 0.1c-11.9 0-20.5-4.6-22.2-9.2q-0.1-0.3-0.2-0.5 0-0.1-0.1-0.2-0.1-0.5-0.1-0.9 0-0.6 0.2-1.3 0.1-0.4 0.4-0.9c0.6-1.8 1.7-5.7 1.5-7.9-1.2-12 29-39.4 29-39.4 0 0 5 11.8 5 16.1 0 9.7 8.7 29.2 9 32.5q0 0 0 0 0.1 0.4 0.1 0.9z"/>
				<path id="Layer" class="s3" d="m160.8 167.3l10.7 12.6c0 0-3.4 12.6-4.5 12.6-5.3 0-10.8-3.5-10.8-7.2 0-0.4-0.6-4.5-0.6-5.5 0-4.2-2.4-7.5-3.1-11.2-1-5.7-0.8-18.5-0.8-18.5z"/>
				<path id="Layer" class="s4" d="m207.9 159.9c-1.2 4.5-6.2 9.5-7.2 10.1-0.9 0.7-2.6 3.8-5.9 2 0 0-2.7 6.4-3.6 7.3-3.1 2.9-20.4 12.1-20.4 12.1-2 1.1-3.2 1.2-4 1 0 0-5.2-1.7-5.7-4.5-0.3-1.9 1-4.3 0-4.8-1.9-1.2-3.9-3-5-4.8-0.1-0.2 0.2-0.4 0.4-0.3 5.6 4.1 10.8 2.6 8.5 1.9-2.9-0.9-7.7-3.2-9.2-6.8-1.8-4.5 5-17.1 5.4-17.2 0.1 0 45.6-33.3 48.1-23.9 2.5 9.3-3.1 21-3.1 21 1.3 0.9 3 2.3 1.7 6.9z"/>
				<path id="Layer" class="s5" d="m171.7 116.3c9.1-5.5 19.8-2.9 28.3 1.4 7 3.5 9.3 14.3 9.3 14.3-3.1-0.9-10.1 0-22.7 11.7-4.1 3.9-5.2 15-9.8 17-2.2 0.9-8.5 0-13.4-2.6-1-0.6-2.8 0.4-3.4 1.6-0.5 1-4.2 10-3.9 10.2 0.2 0.2 3.2 1.1 3.2 4.3 0 0-2.8-1.8-5-1.1-3.1 1.1-4.2-1.8-3.9-2.5 0.4-0.6 4.5-10.7 4.7-11.7 0.3-1.1 0.1-3-1.6-5.1-1.8-2.2-2.5-6.9-2.5-6.9 3.2-20.6 11.6-25.1 20.7-30.6z"/>
				<path id="Layer" class="s6" d="m172.3 190.5z"/>
				<path id="Layer" class="s6" d="m166.8 192.4l-0.3-0.1q0.2 0.1 0.3 0.1z"/>
				<path id="Layer" class="s7" d="m210.5 170c-1.2 0.2-2.3 0.3-3.3 0.3-2.6-0.1-4-3.1-2.5-5.2 1.3-1.7 2.5-3.6 2.9-4.4 0.7-1.6 1.9-5.3-1.4-7.7-0.7-0.6-1.6-0.6-2.6-0.6-3.5 0-8.3 11.7-11.1 9.9-2.4-1.5 1.8-14.3-10.3-14.3-2.9 0-13.5 0.8-21.8-1.6-8.4-2.4-12.4-11.2-12.4-11.2 7.5-5.1 6-17.5 25.3-24.2 7.5-2.6 17.6-0.4 22 1.5 18.9 7.9 19.9 23.1 19.9 28.6 0 11.3-6 24-4.7 28.9z"/>
				<path id="Layer" class="s8" d="m207.7 169.8q-0.2 0-0.5 0c-1-0.1-1.9-0.7-2.3-1.6-0.5-0.9-0.4-2 0.2-2.8q2.5-3.4 2.9-4.5c1.6-3.5 1.1-6.5-1.5-8.3-0.8-0.7-1.9-0.7-2.8-0.7-2 0-4 2.7-6.1 5.5-1.6 2.2-3.4 4.6-4.5 4.6q-0.2 0-0.3-0.1c-0.6-0.3-0.7-1.9-0.8-3.5-0.4-4.3-0.9-10.9-9.8-10.9q-0.7 0-1.8 0.1c-1.2 0-2.7 0.1-4.5 0.1-6.3 0-11.3-0.6-15.4-1.8q-2-0.6-3.8-1.7c3.8 1.8 7.7 2.7 11.6 2.7 8.5 0 16.5-2.9 22.2-8.3 6-5.6 10-14.3 9.9-21.7q0-0.6-0.1-1.4c9.5 5.7 14.4 14.5 14.4 25.6 0 5.8-1.6 11.8-2.9 17.2-1.3 4.9-2.3 8.8-1.9 11.3q-1.1 0.2-2.2 0.2z"/>
			</g>
			<g id="Layer">
				<g id="Layer">
					<path id="Layer" class="s2" d="m212.3 210l-13.7-7.8 0.5-0.9 12.2 7v-12.2h1z"/>
				</g>
				<g id="Layer">
					<path id="Layer" class="s2" d="m212.3 152.7h-1v-13.5l-9.7-5.6 0.4-0.8 10.3 5.8z"/>
				</g>
				<g id="Layer">
					<path id="Layer" class="s2" d="m137.5 108h-1v-12.6l11.8 6.7-0.5 0.9-10.3-5.9z"/>
				</g>
				<g id="Layer">
					<path id="Layer" class="s2" d="m145.6 171.9l-9.1-5.1v-13.4h1v12.8l8.5 4.9z"/>
				</g>
			</g>
			<path id="Layer" class="s9" d="m206.3 141v55.8c0 1.8-2 2.9-3.6 2l-59.7-34c-0.3-0.2-0.5-0.5-0.5-0.8v-59.2c0-0.7 0.7-1.1 1.3-0.8l61.3 34.9c0.7 0.5 1.2 1.2 1.2 2.1z"/>
			<g id="Layer">
				<g id="Layer">
					<path id="Layer" class="s10" d="m202.3 194.9l-10.2-5.8 0.5-0.9 8.7 5v-8.7h1z"/>
				</g>
				<g id="Layer">
					<path id="Layer" class="s10" d="m202.3 152.7h-1v-9.8l-7.1-4.1 0.5-0.8 7.6 4.3z"/>
				</g>
				<g id="Layer">
					<path id="Layer" class="s10" d="m147.5 120h-1v-9.5l8.8 5-0.5 0.9-7.3-4.2z"/>
				</g>
				<g id="Layer">
					<path id="Layer" class="s10" d="m153.2 166.9l-6.7-3.8v-9.9h1v9.3l6.2 3.5z"/>
				</g>
			</g>
			<g id="Layer">
				<path id="Layer" class="s11" d="m228 189.3c0.6 0.3 1 1.1 1 1.7 0 0.7-0.4 1-1 0.6-0.6-0.3-1-1.1-1-1.7 0-0.7 0.4-1 1-0.6z"/>
				<path id="Layer" class="s0" d="m220.6 176.9c0.6 0.3 1 1.1 1 1.8 0 0.6-0.4 0.9-1 0.6-0.6-0.4-1-1.2-1-1.8 0-0.7 0.4-0.9 1-0.6z"/>
				<path id="Layer" class="s11" d="m224.3 174.9c0.6 0.4 1 1.2 1 1.8 0 0.7-0.4 1-1 0.6-0.6-0.3-1.1-1.1-1.1-1.8 0-0.6 0.5-0.9 1.1-0.6z"/>
				<path id="Layer" class="s0" d="m220.6 180.9c0.6 0.4 1 1.2 1 1.8 0 0.7-0.4 1-1 0.6-0.6-0.3-1-1.1-1-1.8 0-0.6 0.4-0.9 1-0.6z"/>
				<path id="Layer" class="s12" d="m228 173c0.5 0.3 1 1.1 1 1.8 0 0.7-0.5 0.9-1 0.6-0.6-0.3-1.1-1.1-1.1-1.8 0-0.7 0.5-0.9 1.1-0.6z"/>
				<path id="Layer" class="s12" d="m220.6 172.8c0.6 0.3 1 1.2 1 1.8 0 0.7-0.4 0.9-1 0.6-0.6-0.3-1-1.1-1-1.8 0-0.6 0.4-0.9 1-0.6z"/>
				<path id="Layer" class="s12" d="m228 168.9c0.5 0.4 1 1.2 1 1.8 0 0.7-0.5 1-1 0.6-0.6-0.3-1.1-1.1-1.1-1.8 0-0.6 0.5-0.9 1.1-0.6z"/>
				<path id="Layer" class="s0" d="m224.3 170.9c0.5 0.3 1 1.1 1 1.8 0 0.6-0.5 0.9-1 0.6-0.6-0.4-1.1-1.2-1.1-1.8 0-0.7 0.5-0.9 1.1-0.6z"/>
				<path id="Layer" class="s13" d="m224.3 179c0.6 0.3 1 1.1 1 1.8 0 0.7-0.4 0.9-1 0.6-0.6-0.3-1-1.1-1.1-1.8 0-0.7 0.5-0.9 1.1-0.6z"/>
				<path id="Layer" class="s12" d="m224.3 187.1c0.6 0.4 1 1.2 1 1.8 0 0.7-0.4 1-1 0.6-0.6-0.3-1-1.1-1-1.8 0-0.6 0.4-0.9 1-0.6z"/>
				<path id="Layer" class="s11" d="m228 164.9c0.5 0.3 1 1.1 1 1.8 0 0.6-0.5 0.9-1 0.6-0.6-0.4-1.1-1.2-1.1-1.8 0-0.7 0.5-1 1.1-0.6z"/>
				<path id="Layer" class="s0" d="m228 185.2c0.6 0.3 1 1.1 1 1.8 0 0.6-0.4 0.9-1 0.6-0.6-0.3-1.1-1.1-1.1-1.8 0-0.7 0.5-0.9 1.1-0.6z"/>
				<path id="Layer" class="s12" d="m224.3 183.1c0.6 0.3 1 1.1 1 1.8 0 0.6-0.4 0.9-1 0.6-0.6-0.4-1-1.2-1-1.8 0-0.7 0.4-1 1-0.6z"/>
				<path id="Layer" class="s0" d="m228 181.1c0.6 0.4 1 1.2 1 1.8 0 0.7-0.4 1-1 0.6-0.6-0.3-1.1-1.1-1.1-1.8 0-0.6 0.5-0.9 1.1-0.6z"/>
				<path id="Layer" class="s12" d="m220.6 185c0.6 0.3 1 1.1 1 1.8 0 0.7-0.4 0.9-1 0.6-0.6-0.3-1-1.1-1-1.8 0-0.7 0.4-0.9 1-0.6z"/>
				<path id="Layer" class="s11" d="m228 202.2c0.6 0.3 1 1.1 1 1.8 0 0.6-0.4 0.9-1 0.6-0.6-0.4-1-1.2-1-1.8 0-0.7 0.4-0.9 1-0.6z"/>
				<path id="Layer" class="s0" d="m220.6 193.9c0.6 0.3 1 1.1 1 1.8 0 0.6-0.4 0.9-1 0.6-0.6-0.4-1-1.2-1-1.8 0-0.7 0.4-1 1-0.6z"/>
				<path id="Layer" class="s13" d="m224.3 191.9c0.6 0.4 1 1.2 1 1.8 0 0.7-0.4 1-1 0.6-0.6-0.3-1-1.1-1.1-1.8 0-0.6 0.5-0.9 1.1-0.6z"/>
				<path id="Layer" class="s12" d="m224.3 200.1c0.6 0.3 1 1.1 1 1.8 0 0.6-0.4 0.9-1 0.6-0.6-0.4-1-1.2-1-1.8 0-0.7 0.4-1 1-0.6z"/>
				<path id="Layer" class="s0" d="m228 198.1c0.6 0.3 1 1.2 1 1.8 0 0.7-0.4 0.9-1 0.6-0.6-0.3-1.1-1.1-1.1-1.8 0-0.6 0.5-0.9 1.1-0.6z"/>
				<path id="Layer" class="s12" d="m224.3 196c0.6 0.3 1 1.1 1 1.8 0 0.6-0.4 0.9-1 0.6-0.6-0.3-1-1.1-1-1.8 0-0.7 0.4-0.9 1-0.6z"/>
				<path id="Layer" class="s0" d="m220.6 207.3c0.6 0.4 1 1.2 1 1.8 0 0.7-0.4 1-1 0.6-0.6-0.3-1-1.1-1-1.8 0-0.6 0.4-0.9 1-0.6z"/>
				<path id="Layer" class="s12" d="m224.3 213.5c0.6 0.4 1 1.2 1 1.8 0 0.7-0.4 0.9-1 0.6-0.6-0.3-1-1.1-1-1.8 0-0.6 0.4-0.9 1-0.6z"/>
				<path id="Layer" class="s12" d="m224.3 209.5c0.6 0.3 1 1.1 1 1.8 0 0.6-0.4 0.9-1 0.6-0.6-0.4-1-1.2-1-1.8 0-0.7 0.4-1 1-0.6z"/>
				<path id="Layer" class="s0" d="m228 194.1c0.6 0.3 1 1.1 1 1.7 0 0.7-0.4 1-1 0.6-0.6-0.3-1.1-1.1-1.1-1.7 0-0.7 0.5-1 1.1-0.6z"/>
				<path id="Layer" class="s12" d="m220.6 197.9c0.6 0.4 1 1.2 1 1.8 0 0.7-0.4 1-1 0.6-0.6-0.3-1-1.1-1-1.8 0-0.6 0.4-0.9 1-0.6z"/>
				<path id="Layer" class="s0" d="m228 177.1c0.5 0.3 1 1.1 1 1.8 0 0.6-0.5 0.9-1 0.6-0.6-0.4-1.1-1.2-1.1-1.8 0-0.7 0.5-1 1.1-0.6z"/>
				<path id="Layer" class="s11" d="m220.6 152.5c0.5 0.3 1 1.1 1 1.8 0 0.7-0.5 0.9-1 0.6-0.6-0.3-1.1-1.1-1.1-1.8 0-0.7 0.5-0.9 1.1-0.6z"/>
				<path id="Layer" class="s0" d="m227.9 148.6c0.6 0.4 1.1 1.2 1.1 1.8 0 0.7-0.5 0.9-1.1 0.6-0.5-0.3-1-1.1-1-1.8 0-0.6 0.5-0.9 1-0.6z"/>
				<path id="Layer" class="s0" d="m227.9 152.7c0.6 0.3 1.1 1.1 1.1 1.8 0 0.6-0.5 0.9-1.1 0.6-0.5-0.3-1-1.2-1-1.8 0-0.7 0.5-0.9 1-0.6z"/>
				<path id="Layer" class="s0" d="m224.2 154.6c0.6 0.4 1.1 1.2 1.1 1.8 0 0.7-0.5 1-1.1 0.6-0.5-0.3-1-1.1-1-1.8 0-0.6 0.5-0.9 1-0.6z"/>
				<path id="Layer" class="s0" d="m224.2 150.6c0.6 0.3 1.1 1.1 1.1 1.8 0 0.6-0.5 0.9-1.1 0.6-0.5-0.4-1-1.2-1-1.8 0-0.7 0.5-1 1-0.6z"/>
				<path id="Layer" class="s11" d="m220.6 156.6c0.5 0.3 1 1.1 1 1.8 0 0.6-0.5 0.9-1 0.6-0.6-0.4-1.1-1.2-1.1-1.8 0-0.7 0.5-1 1.1-0.6z"/>
				<path id="Layer" class="s0" d="m220.5 144.4c0.6 0.3 1.1 1.1 1.1 1.8 0 0.6-0.5 0.9-1.1 0.6-0.5-0.4-1-1.2-1-1.8 0-0.7 0.5-1 1-0.6z"/>
				<path id="Layer" class="s13" d="m224.2 146.5c0.6 0.3 1.1 1.1 1.1 1.8 0 0.7-0.5 0.9-1.1 0.6-0.5-0.3-1-1.1-1-1.8 0-0.7 0.5-0.9 1-0.6z"/>
				<path id="Layer" class="s0" d="m220.5 148.4c0.6 0.4 1.1 1.2 1.1 1.8 0 0.7-0.5 1-1 0.6-0.6-0.3-1.1-1.1-1.1-1.8 0-0.6 0.5-0.9 1-0.6z"/>
				<path id="Layer" class="s12" d="m220.6 160.6c0.5 0.4 1 1.2 1 1.8 0 0.7-0.5 1-1 0.6-0.6-0.3-1.1-1.1-1.1-1.8 0-0.6 0.5-0.9 1.1-0.6z"/>
				<path id="Layer" class="s0" d="m227.9 160.8c0.6 0.3 1.1 1.1 1.1 1.8 0 0.7-0.5 0.9-1.1 0.6-0.5-0.3-1-1.1-1-1.8 0-0.6 0.5-0.9 1-0.6z"/>
				<path id="Layer" class="s0" d="m224.3 162.8c0.5 0.3 1 1.1 1 1.7 0 0.7-0.5 1-1 0.6-0.6-0.3-1.1-1.1-1.1-1.7 0-0.7 0.5-1 1.1-0.6z"/>
				<path id="Layer" class="s0" d="m224.3 166.8c0.5 0.3 1 1.1 1 1.8 0 0.7-0.5 0.9-1 0.6-0.6-0.3-1.1-1.1-1.1-1.8 0-0.6 0.5-0.9 1.1-0.6z"/>
				<path id="Layer" class="s0" d="m220.6 168.8c0.6 0.3 1 1.1 1 1.7 0 0.7-0.4 1-1 0.6-0.6-0.3-1.1-1.1-1.1-1.7 0-0.7 0.5-1 1.1-0.6z"/>
				<path id="Layer" class="s0" d="m224.3 158.7c0.5 0.3 1 1.1 1 1.8 0 0.6-0.5 0.9-1 0.6-0.6-0.3-1.1-1.1-1.1-1.8 0-0.7 0.5-0.9 1.1-0.6z"/>
				<path id="Layer" class="s0" d="m220.6 164.7c0.5 0.3 1 1.1 1 1.8 0 0.6-0.4 0.9-1 0.6-0.6-0.3-1.1-1.1-1.1-1.8 0-0.7 0.5-0.9 1.1-0.6z"/>
				<path id="Layer" class="s0" d="m227.9 156.8c0.6 0.3 1.1 1.1 1.1 1.7 0 0.7-0.5 1-1.1 0.6-0.5-0.3-1-1.1-1-1.7 0-0.7 0.5-1 1-0.6z"/>
			</g>
			<g id="Layer">
				<path id="Layer" class="s11" d="m120.6 115.6c-0.5-0.3-1-1.1-1-1.8 0-0.6 0.4-0.9 1-0.6 0.6 0.3 1.1 1.2 1.1 1.8 0 0.7-0.5 0.9-1.1 0.6z"/>
				<path id="Layer" class="s0" d="m128 128c-0.5-0.3-1-1.1-1-1.8 0-0.7 0.4-0.9 1-0.6 0.6 0.3 1.1 1.1 1.1 1.8 0 0.6-0.5 0.9-1.1 0.6z"/>
				<path id="Layer" class="s11" d="m124.3 129.9c-0.5-0.3-1-1.1-1-1.8 0-0.6 0.5-0.9 1-0.6 0.6 0.4 1.1 1.2 1.1 1.8 0 0.7-0.5 1-1.1 0.6z"/>
				<path id="Layer" class="s0" d="m128 123.9c-0.6-0.3-1-1.1-1-1.8 0-0.6 0.4-0.9 1-0.6 0.6 0.4 1.1 1.2 1.1 1.8 0 0.7-0.5 1-1.1 0.6z"/>
				<path id="Layer" class="s12" d="m120.7 131.9c-0.6-0.4-1.1-1.2-1.1-1.8 0-0.7 0.5-1 1-0.6 0.6 0.3 1.1 1.1 1.1 1.8 0 0.6-0.5 0.9-1 0.6z"/>
				<path id="Layer" class="s12" d="m128 132c-0.5-0.3-1-1.1-1-1.7 0-0.7 0.5-1 1-0.6 0.6 0.3 1.1 1.1 1.1 1.7 0 0.7-0.5 1-1.1 0.6z"/>
				<path id="Layer" class="s12" d="m120.7 135.9c-0.6-0.3-1.1-1.1-1.1-1.8 0-0.6 0.5-0.9 1.1-0.6 0.5 0.4 1 1.2 1 1.8 0 0.7-0.5 1-1 0.6z"/>
				<path id="Layer" class="s0" d="m124.3 134c-0.5-0.3-1-1.1-1-1.8 0-0.7 0.5-0.9 1-0.6 0.6 0.3 1.1 1.1 1.1 1.8 0 0.7-0.5 0.9-1.1 0.6z"/>
				<path id="Layer" class="s13" d="m124.3 125.9c-0.5-0.4-1-1.2-1-1.8 0-0.7 0.5-1 1-0.6 0.6 0.3 1.1 1.1 1.1 1.8 0 0.6-0.5 0.9-1.1 0.6z"/>
				<path id="Layer" class="s12" d="m124.3 117.7c-0.6-0.3-1-1.1-1-1.8 0-0.6 0.4-0.9 1-0.6 0.6 0.4 1.1 1.2 1.1 1.8 0 0.7-0.5 1-1.1 0.6z"/>
				<path id="Layer" class="s11" d="m120.7 140c-0.6-0.3-1.1-1.1-1.1-1.8 0-0.7 0.5-0.9 1.1-0.6 0.5 0.3 1 1.1 1 1.8 0 0.7-0.5 0.9-1 0.6z"/>
				<path id="Layer" class="s0" d="m120.6 119.7c-0.5-0.4-1-1.2-1-1.8 0-0.7 0.5-0.9 1-0.6 0.6 0.3 1.1 1.1 1.1 1.8 0 0.6-0.5 0.9-1.1 0.6z"/>
				<path id="Layer" class="s12" d="m124.3 121.8c-0.5-0.3-1-1.1-1-1.8 0-0.7 0.4-0.9 1-0.6 0.6 0.3 1.1 1.1 1.1 1.8 0 0.7-0.5 0.9-1.1 0.6z"/>
				<path id="Layer" class="s0" d="m120.6 123.7c-0.5-0.3-1-1.1-1-1.8 0-0.6 0.5-0.9 1-0.6 0.6 0.4 1.1 1.2 1.1 1.8 0 0.7-0.5 1-1.1 0.6z"/>
				<path id="Layer" class="s12" d="m128 119.9c-0.6-0.4-1-1.2-1-1.8 0-0.7 0.4-1 1-0.6 0.6 0.3 1 1.1 1 1.8 0 0.6-0.4 0.9-1 0.6z"/>
				<path id="Layer" class="s11" d="m120.6 102.7c-0.5-0.3-1-1.1-1-1.8 0-0.7 0.4-0.9 1-0.6 0.6 0.3 1.1 1.1 1.1 1.8 0 0.6-0.5 0.9-1.1 0.6z"/>
				<path id="Layer" class="s0" d="m128 111c-0.6-0.3-1-1.1-1-1.8 0-0.7 0.4-0.9 1-0.6 0.6 0.3 1.1 1.1 1.1 1.8 0 0.7-0.5 0.9-1.1 0.6z"/>
				<path id="Layer" class="s13" d="m124.3 112.9c-0.5-0.3-1-1.1-1-1.8 0-0.6 0.5-0.9 1-0.6 0.6 0.4 1.1 1.2 1.1 1.8 0 0.7-0.5 1-1.1 0.6z"/>
				<path id="Layer" class="s12" d="m124.3 104.8c-0.6-0.3-1-1.1-1-1.8 0-0.6 0.4-0.9 1-0.6 0.6 0.3 1.1 1.2 1.1 1.8 0 0.7-0.5 0.9-1.1 0.6z"/>
				<path id="Layer" class="s0" d="m120.6 106.8c-0.5-0.4-1-1.2-1-1.8 0-0.7 0.5-1 1-0.6 0.6 0.3 1.1 1.1 1.1 1.8 0 0.6-0.5 0.9-1.1 0.6z"/>
				<path id="Layer" class="s12" d="m124.3 108.9c-0.5-0.4-1-1.2-1-1.8 0-0.7 0.4-0.9 1-0.6 0.6 0.3 1.1 1.1 1.1 1.8 0 0.6-0.5 0.9-1.1 0.6z"/>
				<path id="Layer" class="s0" d="m128 97.5c-0.6-0.3-1-1.1-1-1.8 0-0.6 0.4-0.9 1-0.6 0.6 0.4 1.1 1.2 1.1 1.8 0 0.7-0.5 1-1.1 0.6z"/>
				<path id="Layer" class="s12" d="m124.3 91.3c-0.6-0.3-1-1.1-1-1.8 0-0.6 0.4-0.9 1-0.6 0.6 0.4 1.1 1.2 1.1 1.8 0 0.7-0.5 1-1.1 0.6z"/>
				<path id="Layer" class="s12" d="m124.3 95.4c-0.5-0.3-1-1.1-1-1.8 0-0.6 0.4-0.9 1-0.6 0.6 0.3 1.1 1.1 1.1 1.8 0 0.7-0.5 0.9-1.1 0.6z"/>
				<path id="Layer" class="s0" d="m120.6 110.8c-0.5-0.3-1-1.1-1-1.8 0-0.6 0.5-0.9 1-0.6 0.6 0.4 1.1 1.2 1.1 1.8 0 0.7-0.5 0.9-1.1 0.6z"/>
				<path id="Layer" class="s12" d="m128 106.9c-0.6-0.3-1-1.1-1-1.8 0-0.6 0.4-0.9 1-0.6 0.6 0.4 1 1.2 1 1.8 0 0.7-0.4 1-1 0.6z"/>
				<path id="Layer" class="s0" d="m120.6 127.8c-0.5-0.3-1-1.1-1-1.8 0-0.7 0.5-0.9 1-0.6 0.6 0.3 1.1 1.1 1.1 1.8 0 0.7-0.5 0.9-1.1 0.6z"/>
				<path id="Layer" class="s11" d="m128.1 152.4c-0.6-0.4-1.1-1.2-1.1-1.8 0-0.7 0.5-1 1.1-0.6 0.5 0.3 1 1.1 1 1.8 0 0.6-0.5 0.9-1 0.6z"/>
				<path id="Layer" class="s0" d="m120.7 156.2c-0.6-0.3-1-1.1-1-1.7 0-0.7 0.4-1 1-0.6 0.6 0.3 1 1.1 1 1.7 0 0.7-0.4 1-1 0.6z"/>
				<path id="Layer" class="s0" d="m120.7 152.2c-0.6-0.3-1.1-1.2-1.1-1.8 0-0.7 0.5-0.9 1.1-0.6 0.6 0.3 1 1.1 1 1.8 0 0.6-0.4 0.9-1 0.6z"/>
				<path id="Layer" class="s0" d="m124.4 150.2c-0.6-0.3-1.1-1.1-1.1-1.8 0-0.6 0.5-0.9 1.1-0.6 0.5 0.4 1 1.2 1 1.8 0 0.7-0.5 1-1 0.6z"/>
				<path id="Layer" class="s0" d="m124.4 154.3c-0.6-0.3-1.1-1.1-1.1-1.8 0-0.6 0.5-0.9 1.1-0.6 0.5 0.3 1 1.1 1 1.8 0 0.7-0.4 0.9-1 0.6z"/>
				<path id="Layer" class="s11" d="m128.1 148.3c-0.6-0.3-1.1-1.1-1.1-1.8 0-0.7 0.5-0.9 1.1-0.6 0.5 0.3 1 1.1 1 1.8 0 0.7-0.5 0.9-1 0.6z"/>
				<path id="Layer" class="s0" d="m128.1 160.5c-0.6-0.3-1.1-1.1-1.1-1.8 0-0.7 0.5-0.9 1.1-0.6 0.5 0.3 1 1.1 1 1.8 0 0.7-0.5 0.9-1 0.6z"/>
				<path id="Layer" class="s13" d="m124.4 158.4c-0.6-0.4-1.1-1.2-1.1-1.8 0-0.7 0.5-1 1.1-0.6 0.6 0.3 1 1.1 1 1.8 0 0.6-0.4 0.9-1 0.6z"/>
				<path id="Layer" class="s0" d="m128.1 156.4c-0.6-0.3-1.1-1.1-1.1-1.8 0-0.6 0.5-0.9 1.1-0.6 0.5 0.4 1 1.2 1 1.8 0 0.7-0.5 1-1 0.6z"/>
				<path id="Layer" class="s12" d="m128 144.2c-0.5-0.3-1-1.1-1-1.8 0-0.6 0.5-0.9 1-0.6 0.6 0.4 1.1 1.2 1.1 1.8 0 0.7-0.5 1-1.1 0.6z"/>
				<path id="Layer" class="s0" d="m120.7 144.1c-0.6-0.4-1.1-1.2-1.1-1.8 0-0.7 0.5-1 1.1-0.6 0.5 0.3 1 1.1 1 1.8 0 0.6-0.5 0.9-1 0.6z"/>
				<path id="Layer" class="s0" d="m124.4 142.1c-0.6-0.3-1.1-1.1-1.1-1.8 0-0.6 0.5-0.9 1.1-0.6 0.5 0.4 1 1.2 1 1.8 0 0.7-0.5 0.9-1 0.6z"/>
				<path id="Layer" class="s0" d="m124.4 138.1c-0.6-0.4-1.1-1.2-1.1-1.8 0-0.7 0.5-1 1-0.6 0.6 0.3 1.1 1.1 1.1 1.8 0 0.6-0.5 0.9-1 0.6z"/>
				<path id="Layer" class="s0" d="m128 136.1c-0.5-0.3-1-1.1-1-1.8 0-0.6 0.5-0.9 1-0.6 0.6 0.3 1.1 1.2 1.1 1.8 0 0.7-0.5 0.9-1.1 0.6z"/>
				<path id="Layer" class="s0" d="m124.4 146.2c-0.6-0.3-1.1-1.2-1.1-1.8 0-0.7 0.5-0.9 1.1-0.6 0.5 0.3 1 1.1 1 1.8 0 0.6-0.5 0.9-1 0.6z"/>
				<path id="Layer" class="s0" d="m128 140.2c-0.5-0.4-1-1.2-1-1.8 0-0.7 0.5-0.9 1-0.6 0.6 0.3 1.1 1.1 1.1 1.8 0 0.6-0.5 0.9-1.1 0.6z"/>
				<path id="Layer" class="s0" d="m120.7 148.1c-0.6-0.3-1.1-1.1-1.1-1.8 0-0.6 0.5-0.9 1.1-0.6 0.5 0.4 1 1.2 1 1.8 0 0.7-0.4 0.9-1 0.6z"/>
			</g>
		</g>
		<g id="Layer">
			<path id="Layer" class="s4" d="m66.4 123.6l1.9 3.2c0 0-1.9 0.6-0.6 4.3l-4.6-0.8z"/>
			<path id="Layer" class="s4" d="m84.2 125c0 0-9 10.7-12.1 11.2-3.1 0.5-4.4-3.8-2.1-5.2 5.3-3 9.9-6.1 11.4-8.2 0 0 2.3-0.3 2.8 2.2z"/>
			<path id="Layer" class="s4" d="m90.7 115.3c0.5 0.5-2.6 1.9-3.5 3.2-0.8 1.3-1 2.6-0.3 2.3 0.8-0.3 2.1-0.8 2.7-0.6 0.5 0.3-1.2 0.7-1.8 1.6-0.6 0.9-3.8 3.5-3.8 3.5 0 0-3.1-1.7-2.8-2.1 1.5-2.2 0.8-4.8 1.2-5.3 0.3-0.4 2.5-1.6 3.1-1.5 0.6 0 0.4 1.2 1.9 0.4 1.2-0.7 3.1-1.9 3.3-1.5z"/>
			<path id="Layer" class="s4" d="m66.4 162.9c0 0 1.9 27.2-0.3 32.1-2.1 4.9-7 25.3-8 29.9-1.1 4.7-5.2 2.2-4.9-0.2 0.4-2.3-1-22 3.1-31.2 2.5-5.7-5.6-24.7-3-29 4.2-6.9 13.1-1.6 13.1-1.6z"/>
			<path id="Layer" class="s4" d="m72.5 163c0 0 5.7 31.1 4.4 36.4-1.3 5.2-3.3 29.6-3.5 34.4-0.3 4.7-5.2 3-5.3 0.6 0-2.3-2.7-25.4-1.7-32.9 0.6-4.7-0.9-8.8-3.9-19.9-1.8-6.4-6.6-8.8-4.8-15.4 3.5-12.8 14.8-3.2 14.8-3.2z"/>
			<path id="Layer" class="s1" d="m81.6 242.3c-0.2 1-1.1 1.9-4.3 2-3.1 0-6.2-4.2-8.6-4.2l0.7 4.2h-1.5c0-1.8-1.7-3-1.5-5.1 0.2-2.3 1.4-4.9 1.4-6.4 0 0 2.2 0.7 5.9 0.5 0 0-0.4 5 2.5 6.7 2.8 1.7 5.6 1.3 5.4 2.3z"/>
			<path id="Layer" class="s1" d="m66.3 234c-0.3 1-1.2 2-4.4 2-3 0-6.1-4.2-8.6-4.2l0.8 4.2h-1.5c0-1.8-1.7-3-1.5-5.1 0.2-2.3 1.9-4.9 1.9-6.4 0 0 1.7 0.7 5.3 0.5 0 0-0.3 5.1 2.5 6.8 2.8 1.7 5.7 1.2 5.5 2.2z"/>
			<path id="Layer" class="s14" d="m72.5 153.6c1.7 11.4 10 37.1 10 57 0 0-11.9 7.2-22.9-0.5-3.1-2.2-11.4-3.9-11.4-3.9 1.7-9.3 3.4-27.5 2.6-32.1-0.8-4.7 1.5-10.7 3.9-14.8 2.4-4.1 3.3-7.4 3.3-7.4z"/>
			<path id="Layer" class="s1" d="m72.6 146.9c-1 3.4 2.1 12.8 2.7 17.4-5.4 2.9-15.8 0.6-21.1-4.1 2.4-6.8 3-13.2 3-17.4 0-4.5 0.8-11.6 5.8-12.5 4.5-0.7 9.1 1.8 9.9 4.7 0.8 2.9 1.4 4.1 2.1 5.9 1.4 3.6-2.2 5.4-2.4 6z"/>
			<path id="Layer" class="s4" d="m71.9 119.6c0.1 0.2 1.1 2.9-1 6.5-1.8 3.1-10.6-3.1-8.4-6.7 2.1-3.5 8.3-7.5 8.8-3.2 0.1 0.5 0.2 1.5 0.1 2.1-0.2 0.5 0.1 0.7 0.5 1.3z"/>
			<path id="Layer" class="s15" d="m71.9 114.7c-0.5 3.6-6.5 4.3-4.7 6.8 3 4.2-1.5 5.2-1.3 7.6 0.1 2.3-4.6 0.8-4.2 4.5 0.5 4.6-5.7 1.5-4.9 8 0.8 6.5-9.1 6.6-9.1 6.6 2.5-3.9 0.5-5.3-0.6-8-1.1-2.8-5.2-7.8-1.3-10.9 3.9-3.3 0-3.9 1.9-8.3 1.8-4.4 5-3 7.1-7.6 2.5-5.5 6.2-2.9 10.9-4 5.1-1.2 6.4 3.4 6.2 5.3z"/>
			<path id="Layer" class="s4" d="m68 119.7c0.3 1.4-0.3 2.3-0.2 2.9 0.1 0.4-0.4 0.7-0.9-0.1-0.6-0.8-0.9-2.1-0.6-3 0.4-0.9 1.6-0.2 1.7 0.2z"/>
			<path id="Layer" class="s4" d="m75.1 151.2c0.3 1.4-2.5 6.7-3.9 4.8-3.7-4.9-5.1-11.3-5.8-15.8-0.7-4.7 1-9.1 4.6-7.8 1.3 0.4 3.2 2.2 3.4 7.9 0.2 4.9 1.5 9.5 1.7 10.9z"/>
			<path id="Layer" class="s4" d="m102 156.1c0.5 0.4-1.2 0.4-2.6-0.7-1.3-1 0.4 0.9 0.3 1.5-0.2 0.5-1.9 2.1-2.2 2.5-0.4 0.4-2.5-1.2-3.6-1.4-1.1-0.2-2.5-0.5-3-0.5-0.4 0-0.5-3-0.5-3 0 0 2.7-1.9 3.7-2.2 1.1-0.2 1.6-1.6 1.7-1 0 0.6-0.6 1.4-1.2 2-0.5 0.6 1.8 0.2 3.4 0.4 1.5 0.2 3.2 1.8 4 2.4z"/>
			<path id="Layer" class="s4" d="m91.5 157.5c0 0-17.4 0.8-20-1.2-2.5-1.9 2-5.4 3.3-5.2 2.8 0.4 13.9 3.2 16.5 2.9 0 0 1.7 1.5 0.2 3.5z"/>
		</g>
	</g>
</svg>