<svg width="64" height="64" viewBox="0 0 64 64" fill="none" xmlns="http://www.w3.org/2000/svg">
<path d="M62.47 57L43.59 24C43.2397 23.3891 42.7344 22.8816 42.1251 22.5286C41.5158 22.1756 40.8242 21.9897 40.12 21.9897C39.4158 21.9897 38.7242 22.1756 38.1149 22.5286C37.5056 22.8816 37.0003 23.3891 36.65 24L17.77 57C17.4187 57.6085 17.2338 58.2988 17.2341 59.0015C17.2344 59.7041 17.4197 60.3943 17.7715 61.0026C18.1232 61.6108 18.629 62.1157 19.2379 62.4663C19.8468 62.817 20.5374 63.001 21.24 63H59C59.7027 63.001 60.3932 62.817 61.0021 62.4663C61.611 62.1157 62.1168 61.6108 62.4685 61.0026C62.8203 60.3943 63.0056 59.7041 63.0059 59.0015C63.0062 58.2988 62.8213 57.6085 62.47 57ZM41.17 55C41.17 55.2652 41.0646 55.5196 40.8771 55.7071C40.6896 55.8946 40.4352 56 40.17 56C39.9048 56 39.6504 55.8946 39.4629 55.7071C39.2754 55.5196 39.17 55.2652 39.17 55V54C39.17 53.7348 39.2754 53.4804 39.4629 53.2929C39.6504 53.1054 39.9048 53 40.17 53C40.4352 53 40.6896 53.1054 40.8771 53.2929C41.0646 53.4804 41.17 53.7348 41.17 54V55ZM41.17 50C41.17 50.2652 41.0646 50.5196 40.8771 50.7071C40.6896 50.8946 40.4352 51 40.17 51C39.9048 51 39.6504 50.8946 39.4629 50.7071C39.2754 50.5196 39.17 50.2652 39.17 50V36C39.17 35.7348 39.2754 35.4804 39.4629 35.2929C39.6504 35.1054 39.9048 35 40.17 35C40.4352 35 40.6896 35.1054 40.8771 35.2929C41.0646 35.4804 41.17 35.7348 41.17 36V50Z" fill="#6E60E7"/>
<path d="M48 1H4C3.20435 1 2.44129 1.31607 1.87868 1.87868C1.31607 2.44129 1 3.20435 1 4V32C1 32.7956 1.31607 33.5587 1.87868 34.1213C2.44129 34.6839 3.20435 35 4 35H48C48.7956 35 49.5587 34.6839 50.1213 34.1213C50.6839 33.5587 51 32.7956 51 32V4C51 3.20435 50.6839 2.44129 50.1213 1.87868C49.5587 1.31607 48.7956 1 48 1V1ZM28 19.92C27.45 20.412 26.7379 20.6839 26 20.6839C25.2621 20.6839 24.55 20.412 24 19.92L4.82 3H47.18L28 19.92ZM48 33H4C3.73478 33 3.48043 32.8946 3.29289 32.7071C3.10536 32.5196 3 32.2652 3 32V4.06L18.81 18L10.59 25.25C10.4042 25.4285 10.2944 25.6718 10.2836 25.9293C10.2728 26.1867 10.3618 26.4384 10.532 26.6318C10.7022 26.8253 10.9406 26.9455 11.1973 26.9675C11.454 26.9896 11.7093 26.9116 11.91 26.75L20.33 19.33L22.69 21.42C23.6037 22.2271 24.7809 22.6725 26 22.6725C27.2191 22.6725 28.3963 22.2271 29.31 21.42L31.67 19.33L40.09 26.75C40.1874 26.8435 40.3026 26.9163 40.4289 26.9641C40.5552 27.0119 40.6898 27.0336 40.8247 27.0279C40.9595 27.0223 41.0919 26.9893 41.2137 26.9312C41.3355 26.873 41.4443 26.7908 41.5334 26.6894C41.6226 26.5881 41.6904 26.4697 41.7326 26.3415C41.7748 26.2133 41.7906 26.0779 41.7791 25.9434C41.7675 25.8089 41.7289 25.6781 41.6655 25.5589C41.602 25.4398 41.5151 25.3347 41.41 25.25L33.19 18L49 4.06V32C49 32.2652 48.8946 32.5196 48.7071 32.7071C48.5196 32.8946 48.2652 33 48 33Z" fill="#151A6A"/>
</svg>
