<svg width="64" height="64" viewBox="0 0 64 64" fill="none" xmlns="http://www.w3.org/2000/svg">
<path d="M62.69 45.59L55.24 37.83C52.8296 35.2806 49.9244 33.2499 46.7022 31.862C43.48 30.4741 40.0084 29.7583 36.5 29.7583C32.9916 29.7583 29.52 30.4741 26.2978 31.862C23.0755 33.2499 20.1704 35.2806 17.76 37.83L10.31 45.59C10.1117 45.8013 10.0014 46.0802 10.0014 46.37C10.0014 46.6598 10.1117 46.9387 10.31 47.15L17.76 54.91C20.1673 57.4646 23.0715 59.4999 26.2942 60.8912C29.5168 62.2824 32.9899 63 36.5 63C40.0101 63 43.4832 62.2824 46.7058 60.8912C49.9285 59.4999 52.8327 57.4646 55.24 54.91L62.69 47.15C62.8883 46.9387 62.9986 46.6598 62.9986 46.37C62.9986 46.0802 62.8883 45.8013 62.69 45.59V45.59ZM36.5 59.59C33.8781 59.59 31.3152 58.8121 29.1356 57.3549C26.956 55.8976 25.2577 53.8265 24.2557 51.4036C23.2538 48.9807 22.9931 46.3151 23.5068 43.744C24.0205 41.1729 25.2854 38.8121 27.1415 36.9602C28.9975 35.1084 31.3613 33.8488 33.9335 33.3409C36.5057 32.8331 39.1708 33.0998 41.5914 34.1072C44.012 35.1147 46.0792 36.8176 47.5316 39.0005C48.9839 41.1834 49.7559 43.7481 49.75 46.37C49.7473 49.8833 48.3505 53.252 45.8662 55.7362C43.3819 58.2205 40.0133 59.6174 36.5 59.62V59.59Z" fill="#6E60E7"/>
<path d="M36.5 35.4C34.3244 35.4 32.1977 36.0451 30.3887 37.2538C28.5798 38.4625 27.1699 40.1805 26.3373 42.1905C25.5048 44.2005 25.2869 46.4122 25.7114 48.546C26.1358 50.6798 27.1835 52.6398 28.7218 54.1782C30.2602 55.7166 32.2202 56.7642 34.354 57.1886C36.4878 57.6131 38.6995 57.3952 40.7095 56.5627C42.7195 55.7301 44.4375 54.3202 45.6462 52.5113C46.8549 50.7023 47.5 48.5756 47.5 46.4C47.5 43.4826 46.3411 40.6847 44.2782 38.6218C42.2153 36.5589 39.4174 35.4 36.5 35.4V35.4ZM36.5 53.51C35.0874 53.512 33.706 53.0949 32.5305 52.3116C31.355 51.5282 30.4383 50.4138 29.8964 49.1093C29.3544 47.8048 29.2116 46.3689 29.486 44.9832C29.7603 43.5975 30.4396 42.3243 31.4377 41.3248C32.4359 40.3253 33.7081 39.6442 35.0934 39.3679C36.4787 39.0916 37.9148 39.2324 39.22 39.7725C40.5253 40.3127 41.641 41.2278 42.426 42.4022C43.211 43.5766 43.63 44.9574 43.63 46.37C43.63 48.2619 42.8791 50.0765 41.5423 51.4152C40.2054 52.7539 38.3919 53.5073 36.5 53.51Z" fill="#6E60E7"/>
<path d="M36.5 51.34C39.2449 51.34 41.47 49.1149 41.47 46.37C41.47 43.6251 39.2449 41.4 36.5 41.4C33.7551 41.4 31.53 43.6251 31.53 46.37C31.53 49.1149 33.7551 51.34 36.5 51.34Z" fill="#6E60E7"/>
<path d="M36 25H30C30 24.67 30.05 24.34 30.05 24V16H34.05C34.3152 16 34.5696 15.8946 34.7571 15.7071C34.9446 15.5196 35.05 15.2652 35.05 15C35.05 14.7348 34.9446 14.4804 34.7571 14.2929C34.5696 14.1054 34.3152 14 34.05 14H29.93L29.32 6.06C29.2375 5.01842 28.8589 4.02214 28.229 3.18858C27.599 2.35502 26.7438 1.71894 25.7643 1.3553C24.7848 0.991658 23.7218 0.915621 22.7005 1.13615C21.6792 1.35668 20.7422 1.86459 20 2.6C19.8718 2.73684 19.717 2.84593 19.545 2.92051C19.373 2.99509 19.1875 3.03357 19 3.03357C18.8125 3.03357 18.627 2.99509 18.455 2.92051C18.283 2.84593 18.1281 2.73684 18 2.6C17.2574 1.86768 16.3212 1.36248 15.3015 1.14374C14.2817 0.924998 13.2207 1.0018 12.2431 1.36513C11.2655 1.72845 10.4119 2.36321 9.78247 3.19484C9.15308 4.02648 8.77408 5.02044 8.68999 6.06L8.07999 14H3.99999C3.73477 14 3.48042 14.1054 3.29288 14.2929C3.10534 14.4804 2.99999 14.7348 2.99999 15C2.99999 15.2652 3.10534 15.5196 3.29288 15.7071C3.48042 15.8946 3.73477 16 3.99999 16H7.99999V24C7.99999 24.34 7.99999 24.67 8.04999 25H1.99999C1.82557 25.0003 1.65427 25.0462 1.50308 25.1332C1.3519 25.2201 1.22609 25.3451 1.13814 25.4958C1.05019 25.6464 1.00317 25.8174 1.00174 25.9918C1.00031 26.1662 1.04452 26.338 1.12999 26.49L5.62999 34.49C5.7601 34.7197 5.97579 34.8887 6.22999 34.96L8.22999 35.54L7.44999 36.48C7.31282 36.6476 7.23379 36.8553 7.22477 37.0717C7.21575 37.2881 7.27724 37.5015 7.39999 37.68L15.55 49.68C15.8271 50.0899 16.2012 50.425 16.6392 50.6553C17.0771 50.8856 17.5652 51.004 18.06 51H19.94C20.4297 50.9991 20.9118 50.8783 21.3441 50.6482C21.7764 50.4181 22.1457 50.0857 22.42 49.68L30.58 37.68C30.7014 37.5005 30.7611 37.2864 30.7503 37.07C30.7395 36.8536 30.6587 36.6465 30.52 36.48L29.75 35.54L31.75 34.96C32.0005 34.8864 32.2122 34.7177 32.34 34.49L36.84 26.49C36.9243 26.3402 36.9686 26.1711 36.9685 25.9992C36.9685 25.8272 36.9241 25.6582 36.8396 25.5084C36.7552 25.3586 36.6336 25.2331 36.4865 25.1441C36.3394 25.055 36.1718 25.0054 36 25ZM19 45.69L16.37 34.69C18.0957 35.1298 19.9042 35.1298 21.63 34.69L19 45.69ZM19 33C16.613 33 14.3239 32.0518 12.636 30.364C10.9482 28.6761 9.99999 26.3869 9.99999 24C10.8627 24.6544 11.9172 25.0059 13 25C14.3261 25 15.5978 24.4732 16.5355 23.5355C17.4732 22.5979 18 21.3261 18 20H20C20 21.3261 20.5268 22.5979 21.4645 23.5355C22.4021 24.4732 23.6739 25 25 25C26.0828 25.0059 27.1373 24.6544 28 24V24C28 26.3869 27.0518 28.6761 25.3639 30.364C23.6761 32.0518 21.3869 33 19 33ZM10.31 11H27.69L27.92 14H10.08L10.31 11ZM28 16V18H9.99999V16H28ZM28 20C28 20.7956 27.6839 21.5587 27.1213 22.1213C26.5587 22.6839 25.7956 23 25 23C24.2043 23 23.4413 22.6839 22.8787 22.1213C22.3161 21.5587 22 20.7956 22 20H28ZM16 20C16 20.7956 15.6839 21.5587 15.1213 22.1213C14.5587 22.6839 13.7956 23 13 23C12.2043 23 11.4413 22.6839 10.8787 22.1213C10.3161 21.5587 9.99999 20.7956 9.99999 20H16ZM14.15 3C14.6058 2.99592 15.0578 3.08219 15.4801 3.25383C15.9023 3.42547 16.2863 3.67908 16.61 4C17.2456 4.63447 18.1069 4.99082 19.005 4.99082C19.903 4.99082 20.7644 4.63447 21.4 4C21.723 3.67817 22.1069 3.42398 22.5293 3.25228C22.9517 3.08057 23.4041 2.99481 23.86 3C24.7339 3.00469 25.5742 3.33708 26.2149 3.93144C26.8555 4.52581 27.2499 5.33891 27.32 6.21L27.54 9H10.47L10.68 6.21C10.7502 5.33719 11.146 4.52268 11.7888 3.92807C12.4316 3.33346 13.2744 3.00219 14.15 3V3ZM17.23 48.56L9.49999 37.17L10.77 35.64C10.8762 35.5124 10.9489 35.3603 10.9817 35.1975C11.0144 35.0347 11.0061 34.8663 10.9575 34.7076C10.9088 34.5488 10.8214 34.4046 10.7032 34.2881C10.5849 34.1715 10.4395 34.0863 10.28 34.04L7.16999 33.15L3.70999 27H8.42999C8.84976 28.4735 9.57273 29.8431 10.5526 31.021C11.5324 32.1988 12.7475 33.159 14.12 33.84L17.72 48.93C17.5219 48.8611 17.3505 48.7317 17.23 48.56ZM30.83 33.15L27.73 34.04C27.5697 34.0851 27.4232 34.1694 27.3038 34.2854C27.1843 34.4015 27.0958 34.5455 27.0461 34.7044C26.9964 34.8633 26.9873 35.0321 27.0194 35.1955C27.0515 35.3589 27.1239 35.5117 27.23 35.64L28.5 37.17L20.77 48.56C20.6495 48.7317 20.4781 48.8611 20.28 48.93L23.89 33.84C25.2606 33.1579 26.4738 32.1972 27.4518 31.0194C28.4299 29.8416 29.1513 28.4726 29.57 27H34.29L30.83 33.15Z" fill="#151A6A"/>
</svg>
