<svg width="64" height="64" viewBox="0 0 64 64" fill="none" xmlns="http://www.w3.org/2000/svg">
<path d="M60 21H20C19.2044 21 18.4413 21.3161 17.8787 21.8787C17.3161 22.4413 17 23.2044 17 24V45H63V24C63 23.2044 62.6839 22.4413 62.1213 21.8787C61.5587 21.3161 60.7956 21 60 21Z" fill="#6E60E7"/>
<path d="M17 52C17 52.7956 17.3161 53.5587 17.8787 54.1213C18.4413 54.6839 19.2044 55 20 55H60C60.7956 55 61.5587 54.6839 62.1213 54.1213C62.6839 53.5587 63 52.7956 63 52V47H17V52ZM39 50H41C41.2652 50 41.5196 50.1054 41.7071 50.2929C41.8946 50.4804 42 50.7348 42 51C42 51.2652 41.8946 51.5196 41.7071 51.7071C41.5196 51.8946 41.2652 52 41 52H39C38.7348 52 38.4804 51.8946 38.2929 51.7071C38.1054 51.5196 38 51.2652 38 51C38 50.7348 38.1054 50.4804 38.2929 50.2929C38.4804 50.1054 38.7348 50 39 50Z" fill="#6E60E7"/>
<path d="M50 61H48.78L47.78 57H32.22L31.22 61H30C29.7348 61 29.4804 61.1054 29.2929 61.2929C29.1054 61.4804 29 61.7348 29 62C29 62.2652 29.1054 62.5196 29.2929 62.7071C29.4804 62.8946 29.7348 63 30 63H50C50.2652 63 50.5196 62.8946 50.7071 62.7071C50.8946 62.5196 51 62.2652 51 62C51 61.7348 50.8946 61.4804 50.7071 61.2929C50.5196 61.1054 50.2652 61 50 61Z" fill="#6E60E7"/>
<path d="M28.07 9.18C25.6568 6.60232 22.7409 4.54659 19.5022 3.13969C16.2636 1.73279 12.771 1.00457 9.23999 1H1.99999C1.73477 1 1.48042 1.10536 1.29288 1.29289C1.10535 1.48043 0.99999 1.73478 0.99999 2V2.39C1.00071 3.54183 1.25983 4.67883 1.75826 5.71723C2.25669 6.75563 2.98174 7.66898 3.87999 8.39L0.99999 20.78C0.96639 20.9694 0.988142 21.1645 1.06264 21.3419C1.13713 21.5193 1.26121 21.6714 1.41999 21.78L4.41999 23.78C4.58838 23.8983 4.78918 23.9618 4.99499 23.9618C5.2008 23.9618 5.4016 23.8983 5.56999 23.78L9.32999 21H10.05C10.3382 21.0019 10.6259 20.9785 10.91 20.93C10.6304 23.0723 9.72211 25.0836 8.29999 26.71C5.52073 29.8721 3.78508 33.8148 3.32999 38L3.24999 38.67C3.20341 39.0908 3.24642 39.5166 3.37619 39.9196C3.50595 40.3226 3.71953 40.6935 4.00289 41.0081C4.28626 41.3226 4.63298 41.5736 5.02027 41.7445C5.40756 41.9155 5.82665 42.0026 6.24999 42H32C32.7956 42 33.5587 41.6839 34.1213 41.1213C34.6839 40.5587 35 39.7956 35 39V26.76C35.0084 20.2322 32.5304 13.9462 28.07 9.18V9.18ZM5.23999 38.89L5.30999 38.22C5.72499 34.434 7.29226 30.8666 9.79999 28C11.7337 25.8031 12.8623 23.0135 13 20.09C13.8991 19.4762 14.5815 18.5943 14.95 17.57C14.999 17.4456 15.0226 17.3126 15.0193 17.179C15.016 17.0453 14.986 16.9137 14.931 16.7918C14.876 16.67 14.797 16.5604 14.6989 16.4696C14.6008 16.3787 14.4855 16.3085 14.3597 16.263C14.234 16.2175 14.1004 16.1977 13.9669 16.2048C13.8334 16.2118 13.7027 16.2456 13.5824 16.304C13.4622 16.3625 13.3549 16.4445 13.2668 16.5451C13.1788 16.6458 13.1119 16.763 13.07 16.89C12.8453 17.506 12.4374 18.0384 11.901 18.4157C11.3647 18.7929 10.7257 18.9968 10.07 19H8.99999C8.78362 19 8.57309 19.0702 8.39999 19.2L4.99999 21.78L3.12999 20.55L5.79999 9H9.18999C13.9127 9.00265 18.4412 10.8799 21.7806 14.2194C25.1201 17.5588 26.9973 22.0873 27 26.81V40H6.22999C6.08972 39.9994 5.95113 39.9694 5.82324 39.9118C5.69534 39.8542 5.58099 39.7703 5.48763 39.6656C5.39426 39.5609 5.32396 39.4378 5.2813 39.3042C5.23863 39.1705 5.22456 39.0294 5.23999 38.89ZM33 39C33 39.2652 32.8946 39.5196 32.7071 39.7071C32.5196 39.8946 32.2652 40 32 40H29V26.81C29 24.2085 28.4876 21.6325 27.492 19.229C26.4965 16.8256 25.0373 14.6417 23.1978 12.8022C21.3582 10.9627 19.1744 9.50349 16.7709 8.50795C14.3675 7.5124 11.7915 7 9.18999 7H5.32999C4.68388 6.53288 4.14276 5.93563 3.74146 5.24671C3.34016 4.55778 3.08758 3.79245 2.99999 3H9.23999C12.4975 3.00497 15.7194 3.67748 18.7069 4.97602C21.6944 6.27456 24.3841 8.17158 26.61 10.55C30.7236 14.9443 33.0086 20.7407 33 26.76V39Z" fill="#151A6A"/>
</svg>
