<svg width="64" height="64" viewBox="0 0 64 64" fill="none" xmlns="http://www.w3.org/2000/svg">
<path d="M25.5 32C25.6552 32 25.8084 32.0361 25.9472 32.1056C26.0861 32.175 26.2069 32.2758 26.3 32.4L29 36H61.5V29C61.5 28.2044 61.1839 27.4413 60.6213 26.8787C60.0587 26.3161 59.2956 26 58.5 26H14.5C13.7044 26 12.9413 26.3161 12.3787 26.8787C11.8161 27.4413 11.5 28.2044 11.5 29V32H25.5Z" fill="#6E60E7"/>
<path d="M54.5 51H40.5V56H54.5V51Z" fill="#6E60E7"/>
<path d="M28.5 38C28.3448 38 28.1916 37.9639 28.0528 37.8944C27.9139 37.825 27.7931 37.7242 27.7 37.6L25 34H13.5C12.9696 34 12.4609 34.2107 12.0858 34.5858C11.7107 34.9609 11.5 35.4696 11.5 36V60C11.5 60.7956 11.8161 61.5587 12.3787 62.1213C12.9413 62.6839 13.7044 63 14.5 63H58.5C59.2956 63 60.0587 62.6839 60.6213 62.1213C61.1839 61.5587 61.5 60.7956 61.5 60V38H28.5ZM56.5 57C56.5 57.2652 56.3946 57.5196 56.2071 57.7071C56.0196 57.8946 55.7652 58 55.5 58H39.5C39.2348 58 38.9804 57.8946 38.7929 57.7071C38.6054 57.5196 38.5 57.2652 38.5 57V50C38.5 49.7348 38.6054 49.4804 38.7929 49.2929C38.9804 49.1054 39.2348 49 39.5 49H55.5C55.7652 49 56.0196 49.1054 56.2071 49.2929C56.3946 49.4804 56.5 49.7348 56.5 50V57Z" fill="#6E60E7"/>
<path d="M25.5 14H23.5V4C23.5 3.20435 23.1839 2.44129 22.6213 1.87868C22.0587 1.31607 21.2956 1 20.5 1H10.5C9.70435 1 8.94129 1.31607 8.37868 1.87868C7.81607 2.44129 7.5 3.20435 7.5 4V14H5.5C4.70435 14 3.94129 14.3161 3.37868 14.8787C2.81607 15.4413 2.5 16.2044 2.5 17V38C2.5 41.4478 3.86964 44.7544 6.30761 47.1924C8.74558 49.6304 12.0522 51 15.5 51C18.9478 51 22.2544 49.6304 24.6924 47.1924C27.1304 44.7544 28.5 41.4478 28.5 38V17C28.5 16.2044 28.1839 15.4413 27.6213 14.8787C27.0587 14.3161 26.2956 14 25.5 14ZM21.5 4V14H15.5V12C16.0304 12 16.5391 11.7893 16.9142 11.4142C17.2893 11.0391 17.5 10.5304 17.5 10V7C17.5 6.46957 17.2893 5.96086 16.9142 5.58579C16.5391 5.21071 16.0304 5 15.5 5V3H20.5C20.7652 3 21.0196 3.10536 21.2071 3.29289C21.3946 3.48043 21.5 3.73478 21.5 4ZM9.5 4C9.5 3.73478 9.60536 3.48043 9.79289 3.29289C9.98043 3.10536 10.2348 3 10.5 3H13.5V5C13.5 5.53043 13.7107 6.03914 14.0858 6.41421C14.4609 6.78929 14.9696 7 15.5 7V10C14.9696 10 14.4609 10.2107 14.0858 10.5858C13.7107 10.9609 13.5 11.4696 13.5 12V14H9.5V4ZM26.5 38C26.5 40.9174 25.3411 43.7153 23.2782 45.7782C21.2153 47.8411 18.4174 49 15.5 49C12.5826 49 9.78473 47.8411 7.72183 45.7782C5.65893 43.7153 4.5 40.9174 4.5 38V17C4.5 16.7348 4.60536 16.4804 4.79289 16.2929C4.98043 16.1054 5.23478 16 5.5 16H25.5C25.7652 16 26.0196 16.1054 26.2071 16.2929C26.3946 16.4804 26.5 16.7348 26.5 17V38Z" fill="#151A6A"/>
<path d="M15.5 33C14.5111 33 13.5444 33.2932 12.7222 33.8427C11.8999 34.3921 11.259 35.173 10.8806 36.0866C10.5022 37.0002 10.4031 38.0055 10.5961 38.9755C10.789 39.9454 11.2652 40.8363 11.9645 41.5355C12.6637 42.2348 13.5546 42.711 14.5246 42.9039C15.4945 43.0969 16.4998 42.9978 17.4134 42.6194C18.3271 42.241 19.1079 41.6001 19.6574 40.7779C20.2068 39.9556 20.5 38.9889 20.5 38C20.5 37.3434 20.3707 36.6932 20.1194 36.0866C19.8681 35.48 19.4998 34.9288 19.0355 34.4645C18.5712 34.0002 18.02 33.6319 17.4134 33.3806C16.8068 33.1293 16.1566 33 15.5 33ZM15.5 41C14.9067 41 14.3266 40.8241 13.8333 40.4944C13.3399 40.1648 12.9554 39.6962 12.7284 39.148C12.5013 38.5999 12.4419 37.9967 12.5576 37.4147C12.6734 36.8328 12.9591 36.2982 13.3787 35.8787C13.7982 35.4591 14.3328 35.1734 14.9147 35.0576C15.4967 34.9419 16.0999 35.0013 16.6481 35.2284C17.1962 35.4554 17.6648 35.8399 17.9944 36.3333C18.3241 36.8266 18.5 37.4067 18.5 38C18.5 38.7956 18.1839 39.5587 17.6213 40.1213C17.0587 40.6839 16.2957 41 15.5 41V41Z" fill="#151A6A"/>
</svg>
