<svg width="24" height="24" viewBox="0 0 24 24" fill="none" xmlns="http://www.w3.org/2000/svg">
<g clip-path="url(#clip0_9_2)">
<path d="M12 23.3C18.2408 23.3 23.3 18.2408 23.3 12C23.3 5.75918 18.2408 0.699997 12 0.699997C5.75918 0.699997 0.699997 5.75918 0.699997 12C0.699997 18.2408 5.75918 23.3 12 23.3Z" stroke="white" stroke-width="1.5" stroke-miterlimit="10" stroke-linecap="round" stroke-linejoin="round"/>
<path d="M12 14.9C8.5 14.9 5.5 16.9 4 19.9C6 22 8.9 23.2 12 23.2C15.1 23.2 18 21.9 20 19.9C18.5 17 15.5 14.9 12 14.9Z" stroke="white" stroke-width="1.5" stroke-miterlimit="10" stroke-linecap="round" stroke-linejoin="round"/>
<path d="M12 12.3C13.9882 12.3 15.6 10.6882 15.6 8.7C15.6 6.71177 13.9882 5.1 12 5.1C10.0118 5.1 8.39999 6.71177 8.39999 8.7C8.39999 10.6882 10.0118 12.3 12 12.3Z" stroke="white" stroke-width="1.5" stroke-miterlimit="10" stroke-linecap="round" stroke-linejoin="round"/>
</g>
<defs>
<clipPath id="clip0_9_2">
<rect width="24" height="24" fill="white"/>
</clipPath>
</defs>
</svg>
