<svg version="1.2" xmlns="http://www.w3.org/2000/svg" viewBox="0 0 300 300" width="300" height="300">
	<title>Layer</title>
	<defs>
		<radialGradient id="g1" cx="137.8" cy="156.2" r="129.1" gradientUnits="userSpaceOnUse">
			<stop offset="0" stop-color="#b4bed8"/>
			<stop offset=".2" stop-color="#c7cfe2"/>
			<stop offset=".5" stop-color="#e6e9f2"/>
			<stop offset=".8" stop-color="#f8f9fc"/>
			<stop offset="1" stop-color="#ffffff"/>
		</radialGradient>
	</defs>
	<style>
		.s0 { fill: url(#g1) } 
		.s1 { fill: #c3ccd9 } 
		.s2 { fill: #ffffff } 
		.s3 { fill: #ffb64d } 
		.s4 { fill: #ffde95 } 
		.s5 { fill: #005478 } 
		.s6 { fill: #1483b5 } 
		.s7 { fill: #023248 } 
		.s8 { fill: #fdabab } 
		.s9 { fill: #ebebeb } 
		.s10 { fill: #f95a75 } 
		.s11 { fill: #f85976 } 
	</style>
	<g id="Layer">
		<path id="Layer" class="s0" d="m150.5 53.2c53-26.9 90.2-2.5 83.2 54.4-7 56.9-55.5 124.7-108.5 151.6-53 26.8-90.3 2.4-83.3-54.5 7-56.8 55.6-124.7 108.6-151.5z"/>
		<g id="Layer">
			<g id="Layer">
				<g id="Layer">
					<g id="Layer">
						<g id="Layer">
							<g id="Layer">
								<path id="Layer" class="s1" d="m78.4 69.2c-5.8 5.6-11.8 16.3-11.3 29.2 1 31.4 23.3 70.5 49.7 87.3 10.7 6.8 20.5 8.8 28.2 6.8-8.3 8.2-21.8 8.4-37.4-1.5-26.4-16.8-48.7-56-49.7-87.3-0.7-18.7 9.1-31.6 20.5-34.5z"/>
							</g>
						</g>
					</g>
				</g>
			</g>
			<g id="Layer">
				<g id="Layer">
					<g id="Layer">
						<g id="Layer">
							<path id="Layer" class="s1" d="m163.8 169.3l11-4.4c-1.1 9-2.6 13.2-4.7 17.2-1.9 3.4-7.2 8.8-12.7 12l-9.6 5.4c7.4-6.4 16-30.2 16-30.2z"/>
						</g>
					</g>
				</g>
			</g>
			<g id="Layer">
				<g id="Layer">
					<g id="Layer">
						<path id="Layer" fill-rule="evenodd" class="s2" d="m188.3 171.3l-7.2 8.3-16.2-9.6c-6.9 57.7-74.1 34.3-100.4-26.3-30.8-68.6 11.9-114.6 68.1-56.9 15.9 16.3 28.4 43.4 32.5 70.5 1.8 1.1 23.2 14 23.2 14zm-88-99.3c-48.6-19.9-48.2 47.8-19.1 86.2 17.6 23.1 62.7 63.7 74.3 15.8 8.2-34.2-19.6-85.3-55.2-102z"/>
					</g>
				</g>
			</g>
			<g id="Layer">
				<g id="Layer">
					<path id="Layer" class="s3" d="m102.2 68.9c21.7 7.3 30.2 6.5 36.6 1.7l14.1 5.4q0 0-0.1 0.1c-6.2 5.3-15.1 9.7-24.6 6.3-7.5-2.7-16.8-8.7-16.8-8.7 0.9 0.4-10.1-5.1-9.2-4.8z"/>
					<path id="Layer" fill-rule="evenodd" class="s2" d="m135 84.6c-2.3 0-4.7-0.4-7.1-1.3-7.6-2.7-16.7-8.5-17.1-8.8q0 0 0 0c-0.3-0.2-1.2-0.6-2.2-1.2-3.8-1.9-5.7-2.8-6.7-3.5q0 0 0 0c-1-0.6-0.9-0.9-0.7-1.3 0.2-0.5 0.8-0.8 1.3-0.6 22 7.5 29.8 6.3 35.7 1.9 0.3-0.2 0.6-0.3 1-0.2l14.1 5.5c0.3 0.1 0.6 0.4 0.6 0.7 0.1 0.3 0 0.7-0.3 0.9l-0.1 0.1c-3.8 3.3-10.5 7.8-18.5 7.8zm-22.9-11.7c1.3 0.9 9.7 6.1 16.4 8.6 9.4 3.3 17.7-1.4 22.5-5.2l-12-4.6c-5.4 3.8-12 5.2-26.9 1.2z"/>
				</g>
				<g id="Layer">
					<path id="Layer" class="s3" d="m58.6 124.2c-0.1-2.9-0.3-6.3-0.2-10.5q0-0.3 0-0.4l14.1 5.4q0 0.2 0 0.4c1.2 22.3 3.2 50 22.3 66.1 0.9 0.7-13.2-7.3-14.2-8-15-9.9-20.9-31.8-22-53z"/>
					<path id="Layer" fill-rule="evenodd" class="s2" d="m95 186.2c-0.7 0-2.3-0.9-7.4-3.8-3.4-1.9-7-4-7.5-4.3-17.7-11.8-21.7-38.8-22.5-53.8-0.1-2.8-0.3-6.3-0.2-10.6v-0.4c0-0.3 0.1-0.6 0.4-0.8 0.3-0.2 0.6-0.3 0.9-0.1l14.2 5.4c0.4 0.1 0.6 0.5 0.6 1v0.3c1 19.5 2.6 49 21.9 65.3 0.4 0.3 0.5 1 0.2 1.4-0.2 0.3-0.3 0.4-0.6 0.4zm-35.6-71.5c-0.1 3.9 0.1 6.9 0.2 9.5q0 0 0 0c0.8 14.6 4.6 40.9 21.6 52.2 0.5 0.3 4.3 2.5 7.8 4.5-15.1-17.2-16.5-43.5-17.5-61.5z"/>
				</g>
				<g id="Layer">
					<path id="Layer" class="s3" d="m58.4 113.3q1.6 0 3.1-0.2c19.8-1.5 33.8-24.7 38-46.5l14.2 5.8c0 0.1-7.1 44.2-38.1 46.1-1 0.1-2 0.2-3.1 0.2z"/>
					<path id="Layer" fill-rule="evenodd" class="s2" d="m72.5 119.7q-0.2 0-0.3 0l-14.2-5.5c-0.4-0.1-0.7-0.6-0.6-1.1 0.1-0.4 0.5-0.8 1-0.8q1.4 0 3-0.2c18.9-1.5 33-24.1 37.1-45.7 0.1-0.3 0.3-0.6 0.5-0.7 0.3-0.2 0.6-0.2 0.9-0.1l14.2 5.9c0.4 0.2 0.7 0.6 0.6 1.1-0.3 1.8-7.7 45-39 46.9q-0.5 0.1-1.1 0.1-1 0.1-2.1 0.1 0 0 0 0zm-9.6-5.7l9.8 3.7q0.9 0 1.8-0.1 0.5 0 1.1-0.1c27.8-1.7 35.9-38.4 37-44.5l-12.3-5c-4.4 20.8-17.7 43.5-37.4 46z"/>
				</g>
				<g id="Layer">
					<g id="Layer">
						<path id="Layer" class="s4" d="m135.5 82.9c10.4-0.1 17.1-6.6 17.4-6.9-0.5 89.1-43.9 112.1-46.2 113.3-35.4-3.6-34.2-67.2-34.2-70.6 32.5-0.6 40.8-44 41.2-46.3 8 8 15.5 10.5 21.8 10.5z"/>
						<path id="Layer" fill-rule="evenodd" class="s2" d="m106.7 190.3q0 0-0.1 0c-35.3-3.6-35.2-64.6-35.1-71.6 0-0.5 0.5-1 1-1 30.8-0.6 39.4-40.9 40.2-45.5 0.1-0.3 0.4-0.6 0.7-0.7 0.4-0.2 0.8-0.1 1 0.2 6.7 6.7 13.7 10.2 21 10.2q0.1 0 0.1 0c9.7-0.1 16.1-6 16.7-6.6 0.3-0.3 0.8-0.4 1.1-0.2 0.4 0.1 0.6 0.5 0.6 0.9-0.5 87.2-42 111.7-46.7 114.2q-0.2 0.1-0.5 0.1zm-33.2-70.6c-0.1 10.1 1 65 33 68.6 5.7-3.1 44.3-27.3 45.4-110.2-2.7 2.1-8.6 5.7-16.4 5.8q0 0-0.1 0c-7.3 0-14.4-3.2-21.1-9.5-2 9.2-11.8 44-40.8 45.3z"/>
					</g>
					<path id="Layer" class="s5" d="m102.8 175.4c7.8-5 33.8-26 38.1-85.8q2.4-0.4 4.5-1.1c-3.6 65.3-31.8 88-40.1 93.3-11.7-2.4-18-14.6-21.5-27.6 3.6 10.3 9.4 19.2 19 21.2z"/>
					<g id="Layer">
						<path id="Layer" fill-rule="evenodd" class="s2" d="m105.3 182.8q-0.1 0-0.2 0c-22-4.6-25.7-41.8-26.3-57.6 0-0.5 0.3-0.9 0.8-1 22.3-4.3 32.9-26.7 37.3-39.6 0.1-0.3 0.3-0.6 0.6-0.7 0.2-0.1 0.6 0 0.8 0.1 5.5 3.4 11.2 5.1 17.1 5.1h0.2c3.2-0.1 6.4-0.6 9.5-1.6 0.3-0.1 0.6 0 0.9 0.2 0.2 0.2 0.4 0.5 0.4 0.8-3.7 65.7-32 88.7-40.6 94.2q-0.2 0.1-0.5 0.1zm-24.5-56.8c0.7 15.6 4.4 50.1 24.3 54.7 8.7-5.7 35.3-28.1 39.2-90.9q-4.3 1.2-8.7 1.3h-0.2c-5.9 0-11.6-1.6-17-4.7-4.7 13.3-15.5 34.9-37.6 39.6z"/>
					</g>
				</g>
				<g id="Layer">
					<path id="Layer" class="s6" d="m108.9 141.6l-1.7-29.6c0-0.8 0.4-1.6 1.1-2l3.3-1.9c1.5-0.9 3.4 0.3 3.3 2l-1.6 31.4c0 0.8-0.5 1.5-1.1 1.9-1.4 0.8-3.2-0.2-3.3-1.8z"/>
					<path id="Layer" class="s6" d="m116.6 149.7c0 3.5-2.4 7.7-5.4 9.4-3 1.7-5.5 0.3-5.5-3.1 0-3.5 2.5-7.6 5.5-9.4 3-1.7 5.4-0.3 5.4 3.1z"/>
				</g>
			</g>
			<g id="Layer">
				<g id="Layer">
					<g id="Layer">
						<g id="Layer">
							<path id="Layer" class="s1" d="m160.7 159.7c-4.6-48-43.8-101.4-88.9-96 47.8-32.8 100.9 46.5 102.3 88.3-0.8 0.5-13.3 7.6-13.4 7.7z"/>
						</g>
					</g>
				</g>
			</g>
			<g id="Layer">
				<g id="Layer">
					<g id="Layer">
						<g id="Layer">
							<g id="Layer">
								<path id="Layer" class="s1" d="m174.2 152l21.2 12.7-9.3 5.2-21.2-12.6z"/>
							</g>
						</g>
					</g>
				</g>
			</g>
			<g id="Layer">
				<g id="Layer">
					<g id="Layer">
						<path id="Layer" class="s2" d="m188.3 171.3l-7.2 8.3-16.2-9.6c-0.6 5.3-1.8 10-3.4 14h-9.5c1.3-2.8 2.5-6.1 3.5-10 8.2-34.2-19.6-85.3-55.2-102-8.2-3.4-15-4.3-20.5-3.2h-14.8c13.7-13.9 38.9-11.5 67.6 18 15.9 16.3 28.4 43.4 32.5 70.5 1.8 1.1 23.2 14 23.2 14z"/>
					</g>
				</g>
			</g>
			<g id="Layer">
				<g id="Layer">
					<g id="Layer">
						<g id="Layer">
							<g id="Layer">
								<g id="Layer">
									<g id="Layer">
										<g id="Layer">
											<path id="Layer" class="s7" d="m246.5 220c0.1-7 5.1-15.6 11.2-19 6.1-3.5 11-0.6 11 6.5-0.1 7.1-5.1 15.6-11.2 19-6.1 3.5-11 0.6-11-6.5z"/>
										</g>
									</g>
								</g>
							</g>
						</g>
						<g id="Layer">
							<g id="Layer">
								<g id="Layer">
									<g id="Layer">
										<g id="Layer">
											<path id="Layer" class="s5" d="m179.5 173.5c1.4-4.5 4.3-8.6 8-11.5q1-0.8 2-1.4c3.1-1.7 5.8-1.9 7.8-0.7l68.1 40.4c-1.9-1.2-4.7-1-7.7 0.7-4.3 2.4-7.6 6.8-9.5 11.4-0.9 2.2-1.5 4.6-1.6 7.1-0.2 2.2 0.2 4.9 1.8 6.6q0.6 0.7 1.4 1.1c0 0-68.3-40.4-68.4-40.5-4.3-2.6-3.2-9.3-1.9-13.2z"/>
											<path id="Layer" fill-rule="evenodd" class="s2" d="m249.8 228.3q-0.3 0-0.5-0.2-0.1 0-0.1 0c-68.2-40.5-68.3-40.5-68.3-40.5-5.4-3.4-3.2-11.9-2.3-14.4 1.5-4.7 4.4-9 8.3-12 0.8-0.6 1.4-1.1 2.1-1.5 3.3-1.8 6.4-2.1 8.8-0.7l68.2 40.4c0.4 0.3 0.6 0.9 0.3 1.4-0.3 0.5-0.9 0.6-1.4 0.4-1.7-1.1-4.1-0.8-6.7 0.7-3.8 2.1-7.1 6-9 10.8q-1.5 3.6-1.6 6.8c-0.1 1.5 0 4.2 1.6 6q0.5 0.5 1 0.9 0.1 0 0.1 0c0.5 0.3 0.6 0.9 0.3 1.4-0.2 0.3-0.5 0.4-0.8 0.4zm-55.4-68.1c-1.3 0-2.8 0.5-4.4 1.3-0.6 0.4-1.2 0.8-1.9 1.4-3.5 2.7-6.3 6.7-7.6 11-0.8 2.2-2.7 9.5 1.5 12.1 0.3 0.2 49.2 29.2 64.1 38-0.6-1.7-0.6-3.4-0.5-4.5 0.1-2.4 0.7-4.9 1.7-7.4 2.2-5.2 5.8-9.5 9.9-11.9q1.9-1 3.6-1.4l-64-38q-1.1-0.6-2.4-0.6z"/>
										</g>
									</g>
								</g>
							</g>
						</g>
					</g>
				</g>
			</g>
		</g>
		<g id="Layer">
			<g id="Layer">
				<path id="Layer" class="s8" d="m145.9 124c0.7 2.9 7.3 13.5 7.3 13.5l-5.2 2.1c0 0-4.5-13.5-6.6-13.5-1.7 0-5.5-1.5-4.4-2.5 0.2-0.3 2.3 0.9 3.1 0.6 0.7-0.2-0.3-1.4-1.1-2.9-0.7-1.4-1.4-5.2-0.8-5.4 0.3 0 1 1.3 1.5 3.1 0.5 2.1 2.9 0.6 3.4 1 1.8 1.2 2.6 2.9 2.8 4z"/>
				<path id="Layer" class="s9" d="m173.9 143.8c-0.1 4-4.1 4.4-9.7 3.8-4.7-0.5-11.1-1.8-16.4-6.5-2.1-1.9 3.6-6.3 5.2-5.9 1.7 0.5 5.3 1.8 10.9 2.5 6.6 0.9 10.1 2.6 10 6.1z"/>
			</g>
			<g id="Layer">
				<g id="Layer">
					<g id="Layer">
						<path id="Layer" class="s4" d="m172.3 245c0.7 0.6 1.6 4.3 0.9 5-0.3 0.4-0.8 0.7-1.3 0.8-4.1 1.6-10.4-3.8-11.4-4.8-1-0.8-2-2.6-1.4-3.8 0.4-0.9 12.3 1.9 13.2 2.8z"/>
						<path id="Layer" class="s10" d="m172.6 245.2c0.7 0.7 1.3 3.1 0.6 3.7-0.3 0.4-1.2 0.8-1.7 1-2 0.6-7.5-1.9-10.3-4.3-0.9-0.9-2.5-2.8-2-4 0.5-0.9 4.3-1 7.2 0.1 1.5 0.6 5.5 2.8 6.2 3.5z"/>
					</g>
					<path id="Layer" class="s4" d="m168.3 247.5c0 0.4-0.3 0.8-0.6 0.8-0.3 0-0.6-0.4-0.6-0.8 0-0.4 0.3-0.7 0.6-0.7 0.3 0 0.6 0.3 0.6 0.7z"/>
					<path id="Layer" class="s4" d="m172.3 245.4c0 0 1.1 1 0.8 3.7 0 0-0.5 0.8-1.8 0.9 0 0 0.1-2.7-0.5-3.5l-0.3-0.6 1.2-1.5z"/>
				</g>
				<path id="Layer" class="s8" d="m171.9 243.4c0.1 0.7 0.3 1.4 0.5 2-0.4-0.2-0.8-0.2-1.2 0-0.3 0.2-0.5 0.7-0.4 1.1-0.9 0.1-2-0.2-2.9-0.5-2.6-1.1-3-2.6-2.8-3.1 0.8-1.6 6.1 0.6 6.8 0.5z"/>
			</g>
			<path id="Layer" class="s7" d="m174.3 209.4c0.4 1 1.3 5.3 0.8 10.3-0.5 5-1.8 23.4-1.8 23.4-5.1 1.9-7.7-0.5-7.7-0.5 0 0-1.8-25-2-32.1-0.1-7.1 9.6-3.6 10.7-1.1z"/>
			<path id="Layer" class="s7" d="m177.3 186.2c-0.2 2.7-2 19.9-2.8 24.3-1.1 6.4-10.8 6.9-10.8 2.1 0-4.7-6.5-34.5 0.3-40.4 3.7-3.3 7.4-2.7 8.6-1.8 5 3.8 5 12.8 4.7 15.8z"/>
			<g id="Layer">
				<g id="Layer">
					<g id="Layer">
						<path id="Layer" class="s4" d="m161.2 250.4c0.7 0.7 1.6 4.4 1 5.1-0.4 0.3-0.9 0.6-1.4 0.8-4.1 1.5-10.4-3.9-11.4-4.8-1-0.9-1.9-2.7-1.4-3.8 0.4-1 12.4 1.8 13.2 2.7z"/>
						<path id="Layer" class="s10" d="m161.5 250.6c0.7 0.7 1.3 3.1 0.7 3.8-0.4 0.4-1.3 0.7-1.8 0.9-2 0.7-7.5-1.9-10.2-4.3-1-0.8-2.6-2.8-2-3.9 0.4-1 4.2-1.1 7.1 0 1.5 0.6 5.5 2.8 6.2 3.5z"/>
					</g>
					<path id="Layer" class="s4" d="m156.6 253.7c-0.3 0-0.5-0.3-0.5-0.7 0-0.5 0.2-0.8 0.5-0.8 0.4 0 0.6 0.3 0.6 0.8 0 0.4-0.2 0.7-0.6 0.7z"/>
					<path id="Layer" class="s4" d="m161.3 250.9c0 0 1.1 1 0.7 3.6 0 0-0.4 0.8-1.8 0.9 0 0 0.1-2.7-0.4-3.5l-0.3-0.6 1.1-1.5z"/>
				</g>
				<path id="Layer" class="s8" d="m160.9 248.8c0.1 0.7 0.2 1.4 0.4 2.1-0.3-0.2-0.8-0.3-1.1-0.1-0.4 0.2-0.6 0.7-0.4 1.1-1 0.1-2.1-0.1-3-0.5-2.5-1.1-3-2.5-2.7-3.1 0.7-1.6 6.1 0.6 6.8 0.5z"/>
			</g>
			<path id="Layer" class="s5" d="m164.1 214.5c0.4 0.9 0.7 6 0.2 11.1-0.4 5-1.9 24.2-1.9 24.2-5 1.9-7.6-1.8-7.6-1.8 0 0-1.8-24.6-2-31.7-0.1-7.1 10.1-4.4 11.3-1.8z"/>
			<path id="Layer" class="s5" d="m167.6 188.3c-0.2 2.7-3.1 23.7-3.9 28-1.1 6.5-10.8 6.9-10.8 2.1 0-4.6-4.1-38 1.1-42.2 3.8-3.2 8.4-0.6 9.6 0.3 5 3.8 4.2 8.8 4 11.8z"/>
			<path id="Layer" class="s7" d="m154 176.2c3.8-3.2 8.4-0.6 9.6 0.3 5 3.8 4.2 8.8 4 11.8 0 0.4-0.2 1.3-0.3 2.4-11.2-4.4-14.7-13.4-13.3-14.5z"/>
			<g id="Layer">
				<path id="Layer" class="s11" d="m177.9 180.9c-5.9 6.7-26.9 2.2-26.9 2.2 2.1-8.8 0.8-25 0.8-32.3 0-8.4 12.9-11.6 16.8-11.6 8 0 8.3 10.1 7.2 17.5-1.1 7.3 2.1 24.2 2.1 24.2z"/>
				<path id="Layer" fill-rule="evenodd" class="s2" d="m165 185.1c-6.9 0-13.6-1.4-14.1-1.5q-0.2-0.1-0.3-0.3-0.1-0.1 0-0.3c1.5-6.6 1.1-17.6 0.9-25.6-0.1-2.6-0.2-4.9-0.2-6.6 0-9 13.8-12.1 17.3-12.1q3.5 0 5.5 2.4c3.4 3.9 2.8 11.5 2.2 15.6-1.1 7.2 2 23.9 2 24.1q0.1 0.3-0.1 0.4c-2.6 3-7.9 3.9-13.2 3.9zm-13.4-2.4c3.2 0.6 20.4 3.7 25.7-1.9-0.4-2.2-3-17.2-2-24.2 0.5-3.2 1.3-11.2-2-14.9q-1.7-2-4.7-2c-3.3 0-16.3 2.9-16.3 11.1 0 1.7 0.1 4 0.2 6.6 0.2 7.8 0.6 18.5-0.9 25.3z"/>
			</g>
			<path id="Layer" class="s8" d="m164.5 127.4c2.3 4.1 1.2 7.4 1.8 11.8-1.2 0.6-5.1 2-6.5 2.2-0.2 0 1.6-2.2 1.1-4.2-1.8 0.6-3-1.8-4.7-4.7-0.5-0.8-0.2-2.2 0-2.8 0.4-0.9-0.6-2.3-0.5-3.3 0.1-0.9 6.7-1 7.5-0.5 0.5 0.4 0.9 0.9 1.3 1.5z"/>
			<path id="Layer" class="s7" d="m169.1 126.5c1.3 2.5-3 6.3-3 8.6 0 0-3.3 0.9-4.6 0.1-1.5-1.1-2.1-2.8-2.4-4.5-0.6-2.8-2.3-1.5-2.3-3.9-1-0.5-1.5 1-1.5 1-2.4-4.7 1.3-8.3 4-6.7-0.1-2.6 5.9-3.3 5.9 0.1 2.5-0.4 5.2 2 3.9 5.3z"/>
			<path id="Layer" class="s9" d="m167.1 137.8l0.9 1.4-9.7 3.1c0-1.4 0.9-2.7 1.7-3.1 3.2-1.6 4.5-1.9 5.9-2 0.5 0 1 0.2 1.2 0.6z"/>
			<g id="Layer">
				<path id="Layer" class="s8" d="m156.1 165.9l3.3 4.6c0 0-12.7 6.6-14.8 8.8-0.8 0.8-2.4 3.1-2.9 2.8-0.5-0.3-2.8-1.1-3.2-1.5-0.4-0.5 1-3.4-0.4-1.5-1.1 1.5-3 2.5-2.7 1.9 0.5-0.9 2-3.4 3.4-4.2 1.4-0.9 2.1-0.8 1.6-1.4-0.5-0.7-2-1.7-1.9-2 0-0.6 1.7 0 2.9 0.9 0.6 0.4 2.1 0.3 2.5 0.1 3.3-1.3 12.2-8.5 12.2-8.5z"/>
				<path id="Layer" class="s9" d="m162.7 152.9c0.8 4.7 1.4 11.2-1.8 17.6-1.2 2.5-7-1.8-7.1-3.4 0-1.7 0.3-5.6-0.5-11.2-1-6.6-0.3-10.4 3.1-11.3 3.8-0.9 5.4 2.8 6.3 8.3z"/>
			</g>
		</g>
	</g>
</svg>