<svg width="64" height="64" viewBox="0 0 64 64" fill="none" xmlns="http://www.w3.org/2000/svg">
<path d="M50 52.5C50 51.7044 50.3161 50.9413 50.8787 50.3787C51.4413 49.8161 52.2044 49.5 53 49.5H63V15.5C63 14.7044 62.6839 13.9413 62.1213 13.3787C61.5587 12.8161 60.7956 12.5 60 12.5H24C23.2044 12.5 22.4413 12.8161 21.8787 13.3787C21.3161 13.9413 21 14.7044 21 15.5V59.5C21 60.2956 21.3161 61.0587 21.8787 61.6213C22.4413 62.1839 23.2044 62.5 24 62.5H50V52.5ZM36.75 44.84C36.9116 45.0407 36.9896 45.296 36.9675 45.5527C36.9455 45.8094 36.8253 46.0478 36.6318 46.218C36.4384 46.3882 36.1867 46.4772 35.9293 46.4664C35.6718 46.4556 35.4285 46.3458 35.25 46.16L28.25 38.16C28.0897 37.9775 28.0013 37.7429 28.0013 37.5C28.0013 37.2571 28.0897 37.0225 28.25 36.84L35.25 28.84C35.3347 28.7349 35.4398 28.648 35.5589 28.5845C35.6781 28.5211 35.8089 28.4825 35.9434 28.4709C36.0779 28.4594 36.2133 28.4752 36.3415 28.5174C36.4697 28.5596 36.5881 28.6274 36.6894 28.7166C36.7908 28.8057 36.873 28.9145 36.9312 29.0363C36.9893 29.1581 37.0223 29.2905 37.0279 29.4253C37.0336 29.5602 37.0119 29.6948 36.9641 29.8211C36.9163 29.9474 36.8435 30.0626 36.75 30.16L30.33 37.5L36.75 44.84ZM41.99 45.62C41.9582 45.8852 41.8223 46.1269 41.6123 46.292C41.4022 46.457 41.1352 46.5318 40.87 46.5C40.6048 46.4682 40.3631 46.3323 40.198 46.1223C40.033 45.9122 39.9582 45.6452 39.99 45.38L41.99 29.38C42.0058 29.2487 42.0472 29.1217 42.112 29.0065C42.1769 28.8912 42.2637 28.7898 42.3677 28.708C42.4717 28.6263 42.5908 28.5659 42.7182 28.5302C42.8455 28.4945 42.9787 28.4842 43.11 28.5C43.2413 28.5158 43.3683 28.5572 43.4835 28.622C43.5988 28.6869 43.7002 28.7737 43.782 28.8777C43.8637 28.9817 43.9241 29.1008 43.9598 29.2282C43.9955 29.3555 44.0058 29.4887 43.99 29.62L41.99 45.62ZM47.34 46.25C47.1413 46.0748 47.0202 45.828 47.0034 45.5636C46.9865 45.2993 47.0752 45.039 47.25 44.84L53.67 37.5L47.25 30.16C47.0884 29.9593 47.0104 29.704 47.0325 29.4473C47.0545 29.1906 47.1747 28.9522 47.3682 28.782C47.5616 28.6118 47.8133 28.5228 48.0707 28.5336C48.3282 28.5444 48.5715 28.6542 48.75 28.84L55.75 36.84C55.9103 37.0225 55.9987 37.2571 55.9987 37.5C55.9987 37.7429 55.9103 37.9775 55.75 38.16L48.75 46.16C48.5748 46.3587 48.328 46.4798 48.0636 46.4966C47.7993 46.5135 47.539 46.4248 47.34 46.25V46.25Z" fill="#6E60E7"/>
<path d="M53 51.5C52.7348 51.5 52.4804 51.6054 52.2929 51.7929C52.1054 51.9804 52 52.2348 52 52.5V62.37C52.4879 62.2364 52.9325 61.9779 53.29 61.62L62.12 52.79C62.4779 52.4325 62.7364 51.9879 62.87 51.5H53Z" fill="#6E60E7"/>
<path d="M38.6 33.7C38.4269 33.5702 38.2164 33.5 38 33.5H34.64C34.8762 32.5174 34.997 31.5106 35 30.5V27.5H42C42.2652 27.5 42.5196 27.3946 42.7071 27.2071C42.8946 27.0196 43 26.7652 43 26.5C43 26.2348 42.8946 25.9804 42.7071 25.7929C42.5196 25.6054 42.2652 25.5 42 25.5H35V19.5H38C38.2164 19.5 38.4269 19.4298 38.6 19.3L42.6 16.3C42.7051 16.2212 42.7936 16.1225 42.8605 16.0095C42.9274 15.8965 42.9714 15.7714 42.99 15.6414C43.0085 15.5114 43.0013 15.379 42.9687 15.2518C42.9361 15.1246 42.8788 15.0051 42.8 14.9C42.7212 14.7949 42.6225 14.7064 42.5095 14.6395C42.3965 14.5726 42.2714 14.5286 42.1414 14.51C42.0114 14.4915 41.879 14.4987 41.7518 14.5313C41.6246 14.5639 41.5051 14.6212 41.4 14.7L37.67 17.5H34.94C34.7124 15.4725 33.8028 13.5825 32.3601 12.1399C30.9175 10.6972 29.0275 9.78756 27 9.56V9.5C26.9908 8.71695 26.7977 7.94703 26.4364 7.25225C26.0752 6.55747 25.5557 5.95727 24.92 5.5L26.21 3.88L28.45 5.37C28.5584 5.45728 28.6837 5.52099 28.8181 5.55705C28.9525 5.59311 29.093 5.60074 29.2304 5.57943C29.3679 5.55812 29.4995 5.50835 29.6167 5.43331C29.7338 5.35826 29.834 5.25959 29.9109 5.1436C29.9878 5.02762 30.0396 4.89687 30.063 4.75972C30.0865 4.62256 30.081 4.48203 30.0471 4.3471C30.0131 4.21217 29.9513 4.08581 29.8657 3.97611C29.7802 3.8664 29.6726 3.77577 29.55 3.71L26.55 1.71C26.342 1.57311 26.0903 1.51877 25.8444 1.55761C25.5984 1.59645 25.3757 1.72567 25.22 1.92L23 4.61C22.3212 4.46341 21.6188 4.46341 20.94 4.61L18.78 1.88C18.6243 1.68567 18.4016 1.55645 18.1556 1.51761C17.9097 1.47877 17.658 1.53311 17.45 1.67L14.45 3.67C14.3274 3.73577 14.2199 3.8264 14.1343 3.93611C14.0487 4.04581 13.9869 4.17217 13.953 4.3071C13.919 4.44203 13.9136 4.58256 13.937 4.71972C13.9604 4.85687 14.0122 4.98762 14.0891 5.1036C14.166 5.21959 14.2662 5.31826 14.3834 5.39331C14.5005 5.46835 14.6321 5.51812 14.7696 5.53943C14.9071 5.56074 15.0475 5.55311 15.1819 5.51705C15.3163 5.48099 15.4416 5.41728 15.55 5.33L17.79 3.84L19.08 5.46C18.4389 5.92125 17.9161 6.52784 17.5546 7.23006C17.193 7.93229 17.003 8.71017 17 9.5V9.56C14.9725 9.78756 13.0825 10.6972 11.6399 12.1399C10.1972 13.5825 9.28756 15.4725 9.06 17.5H6.33L2.6 14.7C2.49495 14.6212 2.3754 14.5639 2.24818 14.5313C2.12097 14.4987 1.98858 14.4915 1.85858 14.51C1.59603 14.5476 1.35913 14.6878 1.2 14.9C1.04087 15.1122 0.972547 15.3789 1.01005 15.6414C1.04756 15.904 1.18783 16.1409 1.4 16.3L5.4 19.3C5.5731 19.4298 5.78363 19.5 6 19.5H9V25.5H2C1.73479 25.5 1.48043 25.6054 1.2929 25.7929C1.10536 25.9804 1 26.2348 1 26.5C1 26.7652 1.10536 27.0196 1.2929 27.2071C1.48043 27.3946 1.73479 27.5 2 27.5H9V30.5C9.00299 31.5106 9.1238 32.5174 9.36 33.5H6C5.78363 33.5 5.5731 33.5702 5.4 33.7L1.4 36.7C1.29495 36.7788 1.20644 36.8775 1.13953 36.9905C1.07262 37.1035 1.02863 37.2286 1.01005 37.3586C0.991483 37.4886 0.998699 37.621 1.03129 37.7482C1.06388 37.8754 1.12121 37.9949 1.2 38.1C1.2788 38.2051 1.37751 38.2936 1.49051 38.3605C1.60351 38.4274 1.72858 38.4714 1.85858 38.4899C1.98858 38.5085 2.12097 38.5013 2.24818 38.4687C2.3754 38.4361 2.49495 38.3788 2.6 38.3L6.33 35.5H10C10.9871 37.8691 12.6534 39.893 14.7889 41.3167C16.9244 42.7403 19.4335 43.5 22 43.5C24.5665 43.5 27.0756 42.7403 29.2111 41.3167C31.3466 39.893 33.0129 37.8691 34 35.5H37.67L41.4 38.3C41.5051 38.3788 41.6246 38.4361 41.7518 38.4687C41.879 38.5013 42.0114 38.5085 42.1414 38.4899C42.2714 38.4714 42.3965 38.4274 42.5095 38.3605C42.6225 38.2936 42.7212 38.2051 42.8 38.1C42.8788 37.9949 42.9361 37.8754 42.9687 37.7482C43.0013 37.621 43.0085 37.4886 42.99 37.3586C42.9714 37.2286 42.9274 37.1035 42.8605 36.9905C42.7936 36.8775 42.7051 36.7788 42.6 36.7L38.6 33.7ZM22 15.5C18.78 15.5 16 14.04 15.22 12.08C16.0973 11.6987 17.0434 11.5014 18 11.5H26C26.9566 11.5014 27.9027 11.6987 28.78 12.08C28 14 25.22 15.5 22 15.5ZM22 6.5C22.7957 6.5 23.5587 6.81607 24.1213 7.37868C24.6839 7.94129 25 8.70435 25 9.5H19C19 8.70435 19.3161 7.94129 19.8787 7.37868C20.4413 6.81607 21.2044 6.5 22 6.5ZM22 41.5C19.0826 41.5 16.2847 40.3411 14.2218 38.2782C12.1589 36.2153 11 33.4174 11 30.5V18.5C11.0003 17.4783 11.2242 16.469 11.6561 15.543C12.088 14.617 12.7174 13.7968 13.5 13.14C14.62 15.48 17.5 17.14 21 17.46V36.46C21 36.7252 21.1054 36.9796 21.2929 37.1671C21.4804 37.3546 21.7348 37.46 22 37.46C22.2652 37.46 22.5196 37.3546 22.7071 37.1671C22.8946 36.9796 23 36.7252 23 36.46V17.46C26.48 17.18 29.38 15.46 30.5 13.14C31.2826 13.7968 31.912 14.617 32.3439 15.543C32.7758 16.469 32.9997 17.4783 33 18.5V30.5C33 33.4174 31.8411 36.2153 29.7782 38.2782C27.7153 40.3411 24.9174 41.5 22 41.5Z" fill="#151A6A"/>
</svg>
