<svg width="64" height="64" viewBox="0 0 64 64" fill="none" xmlns="http://www.w3.org/2000/svg">
<path d="M39 59.82C38.9954 58.7789 38.7526 57.7527 38.29 56.82C37.4305 55.0293 37.1777 53.0072 37.57 51.06C37.6668 50.6329 37.6207 50.1859 37.4388 49.7875C37.257 49.3892 36.9494 49.0615 36.5633 48.8548C36.1772 48.6482 35.734 48.5739 35.3017 48.6435C34.8693 48.7131 34.4718 48.9227 34.17 49.24C31.6114 51.7704 28.3239 53.4351 24.77 54C26.4162 56.3563 28.5285 58.3495 30.9762 59.8563C33.4239 61.3632 36.1549 62.3514 39 62.76V59.82Z" fill="#6E60E7"/>
<path d="M48.83 25.83C49.2242 27.5086 49.1821 29.2601 48.7077 30.9178C48.2333 32.5754 47.3425 34.0841 46.12 35.3C45.7284 35.6927 45.4842 36.2085 45.4286 36.7603C45.3731 37.3121 45.5095 37.8662 45.815 38.3291C46.1205 38.792 46.5763 39.1354 47.1055 39.3014C47.6347 39.4673 48.2049 39.4456 48.72 39.24C49.7523 38.8365 50.8615 38.6685 51.967 38.7481C53.0724 38.8276 54.1462 39.1528 55.11 39.7C55.7396 40.0786 56.444 40.3158 57.1744 40.3952C57.9048 40.4746 58.6437 40.3944 59.34 40.16L62.76 39C62.1857 35.0226 60.4822 31.2935 57.8518 28.2553C55.2213 25.2172 51.7743 22.9976 47.92 21.86L48.83 25.83Z" fill="#6E60E7"/>
<path d="M48.4 59.31L48.79 55.8C48.8406 55.354 48.7905 54.9024 48.6434 54.4784C48.4963 54.0544 48.2559 53.6688 47.94 53.35C47.262 52.6982 46.8601 51.811 46.8172 50.8715C46.7744 49.932 47.0938 49.0118 47.7097 48.301C48.3256 47.5902 49.1908 47.143 50.1269 47.0516C51.0629 46.9602 51.9983 47.2317 52.74 47.81C53.8048 48.6086 55.0735 49.0904 56.4 49.2L61.55 49.63C62.5035 47.1989 62.9953 44.6114 63 42C63 41.69 63 41.38 63 41.07L60 42.07C59.0282 42.3958 57.9973 42.5064 56.9785 42.3942C55.9597 42.2819 54.9775 41.9495 54.1 41.42C53.407 41.0133 52.6292 40.7728 51.8276 40.7173C51.026 40.6618 50.2225 40.7928 49.48 41.1C48.5373 41.4775 47.4931 41.5181 46.5239 41.2149C45.5547 40.9116 44.7199 40.2832 44.1604 39.4357C43.6009 38.5882 43.351 37.5736 43.4529 36.5632C43.5549 35.5529 44.0025 34.6086 44.72 33.89C45.7041 32.9161 46.4214 31.7057 46.8031 30.3749C47.1848 29.044 47.2182 27.6374 46.9 26.29L45.77 21.36C41.8649 20.6517 37.839 21.0645 34.1589 22.5507C30.4788 24.0368 27.2952 26.5353 24.977 29.7567C22.6588 32.9781 21.3009 36.7905 21.0608 40.7521C20.8206 44.7136 21.708 48.6621 23.62 52.14C27.0613 51.7602 30.2777 50.2435 32.76 47.83C33.3657 47.213 34.1549 46.8089 35.0096 46.6781C35.8642 46.5474 36.7382 46.697 37.5007 47.1047C38.2631 47.5124 38.8729 48.1561 39.2388 48.9395C39.6046 49.7229 39.7068 50.6037 39.53 51.45C39.2011 52.9593 39.395 54.5355 40.08 55.92C40.6815 57.1323 40.9963 58.4667 41 59.82V63C41.33 63 41.66 63 42 63C44.2512 62.9984 46.4871 62.6302 48.62 61.91C48.381 61.0654 48.3063 60.1828 48.4 59.31V59.31Z" fill="#6E60E7"/>
<path d="M56.23 51.19C54.5308 51.0478 52.9057 50.431 51.54 49.41C51.1844 49.1426 50.7373 49.0272 50.2968 49.0891C49.8562 49.151 49.4582 49.3851 49.19 49.74C48.9508 50.0658 48.8354 50.4663 48.8648 50.8695C48.8941 51.2727 49.0661 51.6522 49.35 51.94C49.8793 52.465 50.2828 53.1029 50.5305 53.8061C50.7781 54.5092 50.8634 55.2592 50.78 56L50.39 59.51C50.3361 60.0656 50.3733 60.6263 50.5 61.17C54.8876 59.2116 58.4754 55.8143 60.67 51.54L56.23 51.19Z" fill="#6E60E7"/>
<path d="M42.37 9.07L22.37 1.07C22.1324 0.975375 21.8676 0.975375 21.63 1.07L1.62997 9.07C1.44391 9.1441 1.28438 9.27237 1.17205 9.43818C1.05973 9.604 0.99978 9.79972 0.999974 10V17.64C0.97984 24.5481 2.89405 31.3238 6.52589 37.2001C10.1577 43.0765 15.3622 47.8187 21.55 50.89C21.6896 50.9603 21.8437 50.997 22 50.997C22.1563 50.997 22.3104 50.9603 22.45 50.89C28.6378 47.8187 33.8422 43.0765 37.4741 37.2001C41.1059 31.3238 43.0201 24.5481 43 17.64V10C43.0002 9.79972 42.9402 9.604 42.8279 9.43818C42.7156 9.27237 42.556 9.1441 42.37 9.07ZM41 17.64C41.0205 24.0926 39.2568 30.4253 35.9038 35.9384C32.5507 41.4514 27.7389 45.9303 22 48.88C16.261 45.9303 11.4492 41.4514 8.0962 35.9384C4.74318 30.4253 2.97948 24.0926 2.99997 17.64V10.64L22 3.04L41 10.64V17.64Z" fill="#151A6A"/>
<path d="M21.63 5.38L5.63001 11.78C5.44394 11.8541 5.28441 11.9824 5.17209 12.1482C5.05976 12.314 4.99981 12.5097 5.00001 12.71V17.64C4.96267 23.4537 6.47079 29.1729 9.36999 34.2122C12.2692 39.2516 16.4554 43.43 21.5 46.32C21.652 46.4078 21.8245 46.454 22 46.454C22.1755 46.454 22.348 46.4078 22.5 46.32C27.5447 43.43 31.7308 39.2516 34.63 34.2122C37.5292 29.1729 39.0373 23.4537 39 17.64V12.71C39.0002 12.5097 38.9402 12.314 38.8279 12.1482C38.7156 11.9824 38.5561 11.8541 38.37 11.78L22.37 5.38C22.1324 5.28537 21.8676 5.28537 21.63 5.38V5.38ZM22 44.3C19.5802 42.8389 17.37 41.0559 15.43 39H28.57C26.63 41.0559 24.4198 42.8389 22 44.3ZM30.3 37H13.7C9.33156 31.4955 6.96845 24.6672 7.00001 17.64V15H37V17.64C37.0316 24.6672 34.6684 31.4955 30.3 37V37ZM36 13H8.00001L22 7.39L36 13Z" fill="#151A6A"/>
<path d="M27 22C27 20.6739 26.4732 19.4021 25.5355 18.4645C24.5979 17.5268 23.3261 17 22 17C20.6739 17 19.4021 17.5268 18.4645 18.4645C17.5268 19.4021 17 20.6739 17 22C16.2044 22 15.4413 22.3161 14.8787 22.8787C14.3161 23.4413 14 24.2044 14 25V32C14 32.7956 14.3161 33.5587 14.8787 34.1213C15.4413 34.6839 16.2044 35 17 35H27C27.7956 35 28.5587 34.6839 29.1213 34.1213C29.6839 33.5587 30 32.7956 30 32V25C30 24.2044 29.6839 23.4413 29.1213 22.8787C28.5587 22.3161 27.7956 22 27 22ZM22 19C22.7956 19 23.5587 19.3161 24.1213 19.8787C24.6839 20.4413 25 21.2044 25 22H19C19 21.2044 19.3161 20.4413 19.8787 19.8787C20.4413 19.3161 21.2044 19 22 19ZM28 32C28 32.2652 27.8946 32.5196 27.7071 32.7071C27.5196 32.8946 27.2652 33 27 33H17C16.7348 33 16.4804 32.8946 16.2929 32.7071C16.1054 32.5196 16 32.2652 16 32V25C16 24.7348 16.1054 24.4804 16.2929 24.2929C16.4804 24.1054 16.7348 24 17 24H27C27.2652 24 27.5196 24.1054 27.7071 24.2929C27.8946 24.4804 28 24.7348 28 25V32Z" fill="#151A6A"/>
</svg>
