<svg id="violeta"  viewBox="0 0 2108 1588" fill="none" xmlns="http://www.w3.org/2000/svg">
<g id="Frame 1" clip-path="url(#clip0_15_49959)">
<path id="Vector" d="M2108 0H-16V1588H2108V0Z" fill="url(#paint0_linear_15_49959)"/>
<g id="shapes">
<path id="Vector_2" fill-rule="evenodd" clip-rule="evenodd" d="M-8.43312 291.583C-8.43312 291.583 104.35 884.416 744.596 906.448C1063.77 917.359 1281.16 475.812 1482.09 553.028C1683.03 630.245 2036.57 1115.72 1950.01 1369.82C1884.11 1563.21 1466.28 916.87 1220.36 944.846C1042.58 964.99 962.959 1615.66 775.94 1495.51C412.614 1262.18 -24.4551 1559.93 -24.4551 1559.93L-8.43312 291.583Z" fill="url(#paint1_linear_15_49959)"/>
<path id="Vector_3" fill-rule="evenodd" clip-rule="evenodd" d="M-17.1087 204.924C-17.2591 204.305 -17.6387 203.766 -18.1711 203.415C-18.7033 203.065 -19.3489 202.929 -19.9772 203.035C-20.601 203.137 -21.1659 203.464 -21.5654 203.954C-21.965 204.443 -22.1716 205.062 -22.1462 205.693L-45.6543 1497.53C-45.6456 1497.92 -45.5381 1498.29 -45.342 1498.63C-45.146 1498.95 -44.868 1499.23 -44.5348 1499.42C-44.2103 1499.63 -43.8343 1499.73 -43.4504 1499.73C-43.0665 1499.73 -42.6904 1499.63 -42.3659 1499.42C78.8631 1436.11 212.745 1400.76 349.436 1395.97C486.676 1391.12 622.2 1427.68 738.37 1500.89C787.345 1531.81 831.632 1518.8 873.334 1481.37C952.808 1410.03 1022.85 1249.3 1099.46 1141.11C1140.6 1082.91 1183.41 1039.97 1231.13 1034.93C1304.17 1027.24 1392.75 1053.33 1483 1089.28C1613.42 1141.18 1747.82 1213.57 1845.63 1236.16C1914.54 1252.03 1965.48 1243.15 1984.93 1186.22C2028.24 1059.97 1960.23 875.813 1855.28 712.638C1748.59 546.733 1603.41 402.512 1499.51 362.924C1445.85 342.361 1391.14 354.741 1333.98 384.816C1249.11 429.44 1158.5 513.161 1056.99 584.852C963.932 650.458 861.647 705.993 745.855 711.658C544.008 721.45 391.275 666.545 277.653 589.608C56.0743 439.022 -17.0387 204.994 -17.0387 204.994L-17.1087 204.924ZM-17.1087 220.661C2.69161 273.607 84.41 464.201 275.273 593.105C389.736 670.392 543.378 725.576 746.415 715.575C862.973 709.56 966.031 653.605 1059.64 587.65C1161.02 516.029 1251.35 432.377 1336.07 387.684C1392.05 358.098 1445.85 345.718 1498.61 365.862C1602.43 405.379 1746.49 549.042 1852.83 714.176C1957.23 876.373 2025.3 1059.27 1982.06 1185.17C1963.1 1240.57 1913.36 1248.54 1846.4 1233.15C1748.45 1210.63 1614.54 1138.24 1484.26 1086.27C1393.31 1050.04 1304.25 1023.95 1230.71 1031.58C1182.43 1036.68 1138.5 1079.98 1096.59 1139.08C1020.12 1247.07 950.222 1407.51 870.882 1478.65C830.513 1514.81 787.695 1527.61 740.259 1497.67C623.467 1424.05 487.213 1387.28 349.226 1392.13C213.17 1396.9 79.8429 1431.63 -41.2465 1493.83C-39.8472 1418.22 -17.1087 220.871 -17.1087 220.871V220.661Z" fill="url(#paint2_linear_15_49959)"/>
<path id="Vector_4" fill-rule="evenodd" clip-rule="evenodd" d="M206.848 238.426C206.848 238.426 227.838 456.717 413.594 624.229C503.499 705.433 631.744 774.676 815.541 801.255C925.102 817.061 1033.41 781.461 1135.28 734.179C1243.8 683.751 1345.18 620.104 1432.7 592.056C1492.24 572.962 1545.42 570.304 1590.33 599.889C1678.55 658.012 1781.13 827.204 1842.2 1009.47C1900.77 1184.33 1921.26 1370.94 1854.09 1483.47C1823.59 1534.46 1777.9 1528.37 1721.58 1495.51C1640 1447.88 1536.67 1344.36 1425.07 1272.46C1350 1223.99 1271.15 1189.92 1192.79 1196.5C1130.66 1201.67 1066.86 1254.97 1003.89 1320.85C919.931 1408.35 837.72 1518.03 762.718 1564.75C716.961 1593.35 673.933 1598.18 635.172 1558.73C530.225 1452.14 407.997 1402.97 293.745 1383.88C87.2796 1349.32 -92.1801 1412.63 -92.1801 1412.63C-92.8579 1412.87 -93.4113 1413.38 -93.7244 1414.04C-94.0375 1414.69 -94.0858 1415.43 -93.8593 1416.12C-93.7415 1416.46 -93.5573 1416.77 -93.3172 1417.04C-93.0771 1417.32 -92.786 1417.53 -92.4607 1417.69C-92.1353 1417.84 -91.7822 1417.94 -91.4218 1417.96C-91.0614 1417.98 -90.7008 1417.92 -90.361 1417.8C-90.361 1417.8 87.769 1354.85 292.556 1388.84C405.968 1407.66 527.497 1456.34 631.604 1561.95C672.044 1603.07 716.961 1598.39 764.536 1568.53C839.678 1521.53 922.24 1411.5 1006.2 1323.73C1068.46 1258.54 1131.43 1205.59 1192.86 1200.35C1270.45 1193.78 1348.46 1227.62 1422.84 1275.53C1534.78 1347.37 1638.05 1450.81 1719.63 1498.45C1777.83 1532.36 1825.13 1537.96 1856.54 1485.15C1924.06 1372.05 1903.77 1184.4 1844.93 1008.49C1783.64 825.454 1680.59 655.564 1592.01 597.092C1546.25 567.017 1492.03 569.115 1431.44 588.769C1343.63 616.746 1242.19 680.394 1133.46 730.822C1032.29 777.684 924.759 813.074 816.031 797.198C633.773 770.55 505.808 701.586 416.673 620.733C232.946 454.409 211.957 237.937 211.957 237.937C211.891 237.25 211.556 236.618 211.024 236.179C210.493 235.739 209.809 235.529 209.123 235.594C208.436 235.659 207.803 235.994 207.364 236.525C206.924 237.056 206.714 237.74 206.779 238.426H206.848Z" fill="url(#paint3_linear_15_49959)"/>
<path id="Vector_5" fill-rule="evenodd" clip-rule="evenodd" d="M-24.3838 1232.03L-12.3499 850.914C-12.3499 850.914 117.854 1312.54 741.519 1209.65C1052.38 1158.24 1153.96 814.404 1360.78 833.428C1567.59 852.452 1999.55 1135.02 1982.55 1323.73C1969.54 1467.39 1440.75 1083.75 1210.7 1148.1C1044.53 1194.54 1035.44 1597.83 1035.44 1597.83L821.908 1599.16C819.739 1592.72 817.29 1586.29 814.912 1579.78C804.087 1551.8 788.696 1525.8 769.365 1502.85C629.435 1345.69 305.22 1468.86 211.747 1367.72C166.9 1319.81 172.217 1216.65 -24.3838 1232.03Z" fill="url(#paint4_linear_15_49959)"/>
<path id="Vector_6" fill-rule="evenodd" clip-rule="evenodd" d="M-42.5752 1101.24L-30.5413 560.652C-30.5413 560.652 100.012 1216.23 723.328 1069.83C1034.18 996.884 1135.77 508.895 1342.58 535.822C1549.4 562.75 1981.36 963.871 1964.36 1231.68C1951.42 1435.63 1422.34 891.411 1192.51 982.336C1026.27 1048.36 1017.25 1621.05 1017.25 1621.05L803.717 1623.01C801.618 1613.85 799.169 1604.75 796.721 1595.52C786.412 1557.07 770.925 1520.2 750.683 1485.92C610.755 1262.88 286.538 1437.66 192.995 1294.21C148.988 1226.16 154.026 1079.7 -42.5752 1101.24Z" fill="url(#paint5_linear_15_49959)"/>
</g>
<g id="dots">
<g id="Group" opacity="0.5">
<path id="Vector_7" opacity="0.5" fill-rule="evenodd" clip-rule="evenodd" d="M1230.87 179.126C1231.35 179.126 1231.82 179.222 1232.27 179.405C1232.72 179.59 1233.12 179.861 1233.46 180.201C1233.8 180.542 1234.07 180.946 1234.26 181.392C1234.44 181.837 1234.54 182.315 1234.54 182.796C1234.31 183.563 1233.85 184.238 1233.22 184.718C1232.58 185.198 1231.8 185.458 1231 185.458C1230.21 185.458 1229.43 185.198 1228.8 184.718C1228.16 184.238 1227.7 183.563 1227.48 182.796C1227.47 181.87 1227.83 180.977 1228.45 180.297C1229.08 179.615 1229.94 179.198 1230.87 179.126Z" fill="url(#paint6_radial_15_49959)"/>
<path id="Vector_8" opacity="0.5" fill-rule="evenodd" clip-rule="evenodd" d="M1230.87 179.126C1231.35 179.126 1231.82 179.222 1232.27 179.405C1232.72 179.59 1233.12 179.861 1233.46 180.201C1233.8 180.542 1234.07 180.946 1234.26 181.392C1234.44 181.837 1234.54 182.315 1234.54 182.796C1234.31 183.563 1233.85 184.238 1233.22 184.718C1232.58 185.198 1231.8 185.458 1231 185.458C1230.21 185.458 1229.43 185.198 1228.8 184.718C1228.16 184.238 1227.7 183.563 1227.48 182.796C1227.47 181.87 1227.83 180.977 1228.45 180.297C1229.08 179.615 1229.94 179.198 1230.87 179.126Z" fill="#42E8E0"/>
</g>
<g id="Group_2" opacity="0.5">
<path id="Vector_9" opacity="0.5" fill-rule="evenodd" clip-rule="evenodd" d="M1230.72 196.207C1231.43 196.207 1232.1 196.413 1232.69 196.801C1233.27 197.189 1233.72 197.74 1233.99 198.385C1234.26 199.029 1234.33 199.74 1234.19 200.424C1234.06 201.108 1233.72 201.738 1233.22 202.23C1232.73 202.724 1232.1 203.06 1231.42 203.197C1230.72 203.332 1230.02 203.263 1229.38 202.996C1228.73 202.729 1228.17 202.277 1227.79 201.696C1227.4 201.116 1227.19 200.434 1227.19 199.736C1227.19 198.799 1227.57 197.902 1228.23 197.24C1228.9 196.578 1229.79 196.207 1230.72 196.207Z" fill="url(#paint7_radial_15_49959)"/>
<path id="Vector_10" opacity="0.5" fill-rule="evenodd" clip-rule="evenodd" d="M1230.72 196.207C1231.43 196.207 1232.1 196.413 1232.69 196.801C1233.27 197.189 1233.72 197.74 1233.99 198.385C1234.26 199.029 1234.33 199.74 1234.19 200.424C1234.06 201.108 1233.72 201.738 1233.22 202.23C1232.73 202.724 1232.1 203.06 1231.42 203.197C1230.72 203.332 1230.02 203.263 1229.38 202.996C1228.73 202.729 1228.17 202.277 1227.79 201.696C1227.4 201.116 1227.19 200.434 1227.19 199.736C1227.19 198.799 1227.57 197.902 1228.23 197.24C1228.9 196.578 1229.79 196.207 1230.72 196.207Z" fill="#42E8E0"/>
</g>
<g id="Group_3" opacity="0.5">
<path id="Vector_11" opacity="0.5" fill-rule="evenodd" clip-rule="evenodd" d="M1230.87 213.286C1231.35 213.286 1231.82 213.381 1232.27 213.565C1232.72 213.75 1233.12 214.02 1233.46 214.361C1233.8 214.701 1234.07 215.106 1234.26 215.551C1234.44 215.997 1234.54 216.474 1234.54 216.955C1234.31 217.723 1233.85 218.397 1233.22 218.877C1232.58 219.358 1231.8 219.618 1231 219.618C1230.21 219.618 1229.43 219.358 1228.8 218.877C1228.16 218.397 1227.7 217.723 1227.48 216.955C1227.47 216.03 1227.83 215.136 1228.45 214.456C1229.08 213.775 1229.94 213.357 1230.87 213.286Z" fill="url(#paint8_radial_15_49959)"/>
<path id="Vector_12" opacity="0.5" fill-rule="evenodd" clip-rule="evenodd" d="M1230.87 213.286C1231.35 213.286 1231.82 213.381 1232.27 213.565C1232.72 213.75 1233.12 214.02 1233.46 214.361C1233.8 214.701 1234.07 215.106 1234.26 215.551C1234.44 215.997 1234.54 216.474 1234.54 216.955C1234.31 217.723 1233.85 218.397 1233.22 218.877C1232.58 219.358 1231.8 219.618 1231 219.618C1230.21 219.618 1229.43 219.358 1228.8 218.877C1228.16 218.397 1227.7 217.723 1227.48 216.955C1227.47 216.03 1227.83 215.136 1228.45 214.456C1229.08 213.775 1229.94 213.357 1230.87 213.286Z" fill="#42E8E0"/>
</g>
<g id="Group_4" opacity="0.5">
<path id="Vector_13" opacity="0.5" fill-rule="evenodd" clip-rule="evenodd" d="M1248.66 179.126C1249.63 179.126 1250.57 179.513 1251.25 180.201C1251.94 180.89 1252.33 181.823 1252.33 182.796C1252.11 183.563 1251.64 184.238 1251.01 184.718C1250.37 185.198 1249.59 185.458 1248.8 185.458C1248.01 185.458 1247.23 185.198 1246.59 184.718C1245.96 184.238 1245.49 183.563 1245.27 182.796C1245.26 181.87 1245.62 180.977 1246.24 180.297C1246.87 179.615 1247.74 179.198 1248.66 179.126Z" fill="url(#paint9_radial_15_49959)"/>
<path id="Vector_14" opacity="0.5" fill-rule="evenodd" clip-rule="evenodd" d="M1248.66 179.126C1249.63 179.126 1250.57 179.513 1251.25 180.201C1251.94 180.89 1252.33 181.823 1252.33 182.796C1252.11 183.563 1251.64 184.238 1251.01 184.718C1250.37 185.198 1249.59 185.458 1248.8 185.458C1248.01 185.458 1247.23 185.198 1246.59 184.718C1245.96 184.238 1245.49 183.563 1245.27 182.796C1245.26 181.87 1245.62 180.977 1246.24 180.297C1246.87 179.615 1247.74 179.198 1248.66 179.126Z" fill="#42E8E0"/>
</g>
<g id="Group_5" opacity="0.5">
<path id="Vector_15" opacity="0.5" fill-rule="evenodd" clip-rule="evenodd" d="M1248.52 196.207C1249.22 196.207 1249.89 196.413 1250.48 196.801C1251.06 197.189 1251.51 197.74 1251.78 198.385C1252.05 199.029 1252.12 199.74 1251.98 200.424C1251.85 201.108 1251.51 201.738 1251.01 202.23C1250.52 202.724 1249.89 203.06 1249.21 203.197C1248.52 203.332 1247.81 203.263 1247.17 202.996C1246.52 202.729 1245.97 202.277 1245.58 201.696C1245.19 201.116 1244.98 200.434 1244.98 199.736C1244.98 198.799 1245.36 197.902 1246.02 197.24C1246.69 196.578 1247.58 196.207 1248.52 196.207Z" fill="url(#paint10_radial_15_49959)"/>
<path id="Vector_16" opacity="0.5" fill-rule="evenodd" clip-rule="evenodd" d="M1248.52 196.207C1249.22 196.207 1249.89 196.413 1250.48 196.801C1251.06 197.189 1251.51 197.74 1251.78 198.385C1252.05 199.029 1252.12 199.74 1251.98 200.424C1251.85 201.108 1251.51 201.738 1251.01 202.23C1250.52 202.724 1249.89 203.06 1249.21 203.197C1248.52 203.332 1247.81 203.263 1247.17 202.996C1246.52 202.729 1245.97 202.277 1245.58 201.696C1245.19 201.116 1244.98 200.434 1244.98 199.736C1244.98 198.799 1245.36 197.902 1246.02 197.24C1246.69 196.578 1247.58 196.207 1248.52 196.207Z" fill="#42E8E0"/>
</g>
<g id="Group_6" opacity="0.5">
<path id="Vector_17" opacity="0.5" fill-rule="evenodd" clip-rule="evenodd" d="M1248.66 213.286C1249.63 213.286 1250.57 213.673 1251.25 214.361C1251.94 215.049 1252.33 215.982 1252.33 216.955C1252.11 217.723 1251.64 218.397 1251.01 218.877C1250.37 219.358 1249.59 219.618 1248.8 219.618C1248.01 219.618 1247.23 219.358 1246.59 218.877C1245.96 218.397 1245.49 217.723 1245.27 216.955C1245.26 216.03 1245.62 215.136 1246.24 214.456C1246.87 213.775 1247.74 213.357 1248.66 213.286Z" fill="url(#paint11_radial_15_49959)"/>
<path id="Vector_18" opacity="0.5" fill-rule="evenodd" clip-rule="evenodd" d="M1248.66 213.286C1249.63 213.286 1250.57 213.673 1251.25 214.361C1251.94 215.049 1252.33 215.982 1252.33 216.955C1252.11 217.723 1251.64 218.397 1251.01 218.877C1250.37 219.358 1249.59 219.618 1248.8 219.618C1248.01 219.618 1247.23 219.358 1246.59 218.877C1245.96 218.397 1245.49 217.723 1245.27 216.955C1245.26 216.03 1245.62 215.136 1246.24 214.456C1246.87 213.775 1247.74 213.357 1248.66 213.286Z" fill="#42E8E0"/>
</g>
<g id="Group_7" opacity="0.5">
<path id="Vector_19" opacity="0.5" fill-rule="evenodd" clip-rule="evenodd" d="M1266.32 179.126C1267.25 179.126 1268.15 179.498 1268.81 180.16C1269.47 180.822 1269.84 181.719 1269.84 182.656C1269.99 183.18 1270.02 183.733 1269.92 184.271C1269.82 184.808 1269.6 185.314 1269.27 185.75C1268.94 186.186 1268.51 186.54 1268.02 186.783C1267.54 187.027 1267 187.153 1266.45 187.153C1265.9 187.153 1265.36 187.027 1264.87 186.783C1264.38 186.54 1263.96 186.186 1263.63 185.75C1263.3 185.314 1263.08 184.808 1262.98 184.271C1262.88 183.733 1262.91 183.18 1263.05 182.656C1263.05 181.764 1263.39 180.906 1263.99 180.251C1264.59 179.597 1265.42 179.195 1266.32 179.126Z" fill="url(#paint12_radial_15_49959)"/>
<path id="Vector_20" opacity="0.5" fill-rule="evenodd" clip-rule="evenodd" d="M1266.32 179.126C1267.25 179.126 1268.15 179.498 1268.81 180.16C1269.47 180.822 1269.84 181.719 1269.84 182.656C1269.99 183.18 1270.02 183.733 1269.92 184.271C1269.82 184.808 1269.6 185.314 1269.27 185.75C1268.94 186.186 1268.51 186.54 1268.02 186.783C1267.54 187.027 1267 187.153 1266.45 187.153C1265.9 187.153 1265.36 187.027 1264.87 186.783C1264.38 186.54 1263.96 186.186 1263.63 185.75C1263.3 185.314 1263.08 184.808 1262.98 184.271C1262.88 183.733 1262.91 183.18 1263.05 182.656C1263.05 181.764 1263.39 180.906 1263.99 180.251C1264.59 179.597 1265.42 179.195 1266.32 179.126Z" fill="#42E8E0"/>
</g>
<g id="Group_8" opacity="0.5">
<path id="Vector_21" opacity="0.5" fill-rule="evenodd" clip-rule="evenodd" d="M1266.31 196.207C1267.01 196.207 1267.69 196.413 1268.27 196.801C1268.85 197.189 1269.3 197.74 1269.57 198.385C1269.84 199.029 1269.91 199.74 1269.77 200.424C1269.64 201.108 1269.3 201.738 1268.8 202.23C1268.31 202.724 1267.68 203.06 1267 203.197C1266.31 203.332 1265.6 203.263 1264.96 202.996C1264.31 202.729 1263.77 202.277 1263.37 201.696C1262.99 201.116 1262.77 200.434 1262.77 199.736C1262.77 198.799 1263.15 197.902 1263.81 197.24C1264.48 196.578 1265.37 196.207 1266.31 196.207Z" fill="url(#paint13_radial_15_49959)"/>
<path id="Vector_22" opacity="0.5" fill-rule="evenodd" clip-rule="evenodd" d="M1266.31 196.207C1267.01 196.207 1267.69 196.413 1268.27 196.801C1268.85 197.189 1269.3 197.74 1269.57 198.385C1269.84 199.029 1269.91 199.74 1269.77 200.424C1269.64 201.108 1269.3 201.738 1268.8 202.23C1268.31 202.724 1267.68 203.06 1267 203.197C1266.31 203.332 1265.6 203.263 1264.96 202.996C1264.31 202.729 1263.77 202.277 1263.37 201.696C1262.99 201.116 1262.77 200.434 1262.77 199.736C1262.77 198.799 1263.15 197.902 1263.81 197.24C1264.48 196.578 1265.37 196.207 1266.31 196.207Z" fill="#42E8E0"/>
</g>
<g id="Group_9" opacity="0.5">
<path id="Vector_23" opacity="0.5" fill-rule="evenodd" clip-rule="evenodd" d="M1266.32 213.286C1267.25 213.286 1268.15 213.657 1268.81 214.319C1269.47 214.982 1269.84 215.879 1269.84 216.815C1269.99 217.339 1270.02 217.893 1269.92 218.43C1269.82 218.967 1269.6 219.473 1269.27 219.909C1268.94 220.345 1268.51 220.699 1268.02 220.943C1267.54 221.186 1267 221.312 1266.45 221.312C1265.9 221.312 1265.36 221.186 1264.87 220.943C1264.38 220.699 1263.96 220.345 1263.63 219.909C1263.3 219.473 1263.08 218.967 1262.98 218.43C1262.88 217.893 1262.91 217.339 1263.05 216.815C1263.05 215.924 1263.39 215.065 1263.99 214.411C1264.59 213.756 1265.42 213.354 1266.32 213.286Z" fill="url(#paint14_radial_15_49959)"/>
<path id="Vector_24" opacity="0.5" fill-rule="evenodd" clip-rule="evenodd" d="M1266.32 213.286C1267.25 213.286 1268.15 213.657 1268.81 214.319C1269.47 214.982 1269.84 215.879 1269.84 216.815C1269.99 217.339 1270.02 217.893 1269.92 218.43C1269.82 218.967 1269.6 219.473 1269.27 219.909C1268.94 220.345 1268.51 220.699 1268.02 220.943C1267.54 221.186 1267 221.312 1266.45 221.312C1265.9 221.312 1265.36 221.186 1264.87 220.943C1264.38 220.699 1263.96 220.345 1263.63 219.909C1263.3 219.473 1263.08 218.967 1262.98 218.43C1262.88 217.893 1262.91 217.339 1263.05 216.815C1263.05 215.924 1263.39 215.065 1263.99 214.411C1264.59 213.756 1265.42 213.354 1266.32 213.286Z" fill="#42E8E0"/>
</g>
<g id="Group_10" opacity="0.5">
<path id="Vector_25" opacity="0.5" d="M1284.1 186.184C1286.05 186.184 1287.63 184.604 1287.63 182.656C1287.63 180.707 1286.05 179.126 1284.1 179.126C1282.15 179.126 1280.56 180.707 1280.56 182.656C1280.56 184.604 1282.15 186.184 1284.1 186.184Z" fill="url(#paint15_radial_15_49959)"/>
<path id="Vector_26" opacity="0.5" d="M1284.1 186.184C1286.05 186.184 1287.63 184.604 1287.63 182.656C1287.63 180.707 1286.05 179.126 1284.1 179.126C1282.15 179.126 1280.56 180.707 1280.56 182.656C1280.56 184.604 1282.15 186.184 1284.1 186.184Z" fill="#42E8E0"/>
</g>
<g id="Group_11" opacity="0.5">
<path id="Vector_27" opacity="0.5" d="M1284.1 203.264C1286.05 203.264 1287.63 201.685 1287.63 199.736C1287.63 197.787 1286.05 196.207 1284.1 196.207C1282.15 196.207 1280.56 197.787 1280.56 199.736C1280.56 201.685 1282.15 203.264 1284.1 203.264Z" fill="url(#paint16_radial_15_49959)"/>
<path id="Vector_28" opacity="0.5" d="M1284.1 203.264C1286.05 203.264 1287.63 201.685 1287.63 199.736C1287.63 197.787 1286.05 196.207 1284.1 196.207C1282.15 196.207 1280.56 197.787 1280.56 199.736C1280.56 201.685 1282.15 203.264 1284.1 203.264Z" fill="#42E8E0"/>
</g>
<g id="Group_12" opacity="0.5">
<path id="Vector_29" opacity="0.5" d="M1284.1 220.343C1286.05 220.343 1287.63 218.764 1287.63 216.815C1287.63 214.866 1286.05 213.286 1284.1 213.286C1282.15 213.286 1280.56 214.866 1280.56 216.815C1280.56 218.764 1282.15 220.343 1284.1 220.343Z" fill="url(#paint17_radial_15_49959)"/>
<path id="Vector_30" opacity="0.5" d="M1284.1 220.343C1286.05 220.343 1287.63 218.764 1287.63 216.815C1287.63 214.866 1286.05 213.286 1284.1 213.286C1282.15 213.286 1280.56 214.866 1280.56 216.815C1280.56 218.764 1282.15 220.343 1284.1 220.343Z" fill="#42E8E0"/>
</g>
<g id="Group_13" opacity="0.5">
<path id="Vector_31" opacity="0.5" fill-rule="evenodd" clip-rule="evenodd" d="M1230.72 229.519C1231.43 229.519 1232.1 229.726 1232.69 230.114C1233.27 230.502 1233.72 231.053 1233.99 231.698C1234.26 232.343 1234.33 233.052 1234.19 233.736C1234.06 234.421 1233.72 235.05 1233.22 235.544C1232.73 236.036 1232.1 236.373 1231.42 236.509C1230.72 236.645 1230.02 236.575 1229.38 236.308C1228.73 236.041 1228.17 235.589 1227.79 235.009C1227.4 234.428 1227.19 233.746 1227.19 233.048C1227.19 232.112 1227.57 231.215 1228.23 230.553C1228.9 229.89 1229.79 229.519 1230.72 229.519Z" fill="url(#paint18_radial_15_49959)"/>
<path id="Vector_32" opacity="0.5" fill-rule="evenodd" clip-rule="evenodd" d="M1230.72 229.519C1231.43 229.519 1232.1 229.726 1232.69 230.114C1233.27 230.502 1233.72 231.053 1233.99 231.698C1234.26 232.343 1234.33 233.052 1234.19 233.736C1234.06 234.421 1233.72 235.05 1233.22 235.544C1232.73 236.036 1232.1 236.373 1231.42 236.509C1230.72 236.645 1230.02 236.575 1229.38 236.308C1228.73 236.041 1228.17 235.589 1227.79 235.009C1227.4 234.428 1227.19 233.746 1227.19 233.048C1227.19 232.112 1227.57 231.215 1228.23 230.553C1228.9 229.89 1229.79 229.519 1230.72 229.519Z" fill="#42E8E0"/>
</g>
<g id="Group_14" opacity="0.5">
<path id="Vector_33" opacity="0.5" fill-rule="evenodd" clip-rule="evenodd" d="M1230.73 246.599C1231.2 246.599 1231.65 246.691 1232.08 246.868C1232.51 247.045 1232.9 247.306 1233.23 247.633C1233.55 247.96 1233.81 248.35 1233.99 248.778C1234.17 249.205 1234.26 249.664 1234.26 250.128C1234.41 250.653 1234.44 251.206 1234.33 251.743C1234.24 252.28 1234.02 252.787 1233.68 253.223C1233.35 253.659 1232.93 254.013 1232.44 254.256C1231.95 254.5 1231.41 254.627 1230.87 254.627C1230.32 254.627 1229.78 254.5 1229.29 254.256C1228.8 254.013 1228.37 253.659 1228.05 253.223C1227.72 252.787 1227.5 252.28 1227.39 251.743C1227.3 251.206 1227.33 250.653 1227.47 250.128C1227.47 249.237 1227.81 248.379 1228.4 247.724C1229.01 247.07 1229.84 246.667 1230.73 246.599Z" fill="url(#paint19_radial_15_49959)"/>
<path id="Vector_34" opacity="0.5" fill-rule="evenodd" clip-rule="evenodd" d="M1230.73 246.599C1231.2 246.599 1231.65 246.691 1232.08 246.868C1232.51 247.045 1232.9 247.306 1233.23 247.633C1233.55 247.96 1233.81 248.35 1233.99 248.778C1234.17 249.205 1234.26 249.664 1234.26 250.128C1234.41 250.653 1234.44 251.206 1234.33 251.743C1234.24 252.28 1234.02 252.787 1233.68 253.223C1233.35 253.659 1232.93 254.013 1232.44 254.256C1231.95 254.5 1231.41 254.627 1230.87 254.627C1230.32 254.627 1229.78 254.5 1229.29 254.256C1228.8 254.013 1228.37 253.659 1228.05 253.223C1227.72 252.787 1227.5 252.28 1227.39 251.743C1227.3 251.206 1227.33 250.653 1227.47 250.128C1227.47 249.237 1227.81 248.379 1228.4 247.724C1229.01 247.07 1229.84 246.667 1230.73 246.599Z" fill="#42E8E0"/>
</g>
<g id="Group_15" opacity="0.5">
<path id="Vector_35" opacity="0.5" fill-rule="evenodd" clip-rule="evenodd" d="M1230.72 263.678C1231.43 263.678 1232.11 263.887 1232.7 264.278C1233.28 264.669 1233.73 265.224 1233.99 265.873C1234.26 266.521 1234.32 267.234 1234.18 267.921C1234.04 268.607 1233.7 269.236 1233.2 269.726C1232.7 270.217 1232.06 270.548 1231.37 270.676C1230.69 270.805 1229.97 270.725 1229.33 270.448C1228.68 270.17 1228.13 269.707 1227.76 269.118C1227.37 268.529 1227.18 267.84 1227.19 267.139C1227.19 266.679 1227.29 266.223 1227.46 265.798C1227.64 265.375 1227.9 264.99 1228.23 264.668C1228.56 264.345 1228.95 264.092 1229.38 263.922C1229.81 263.752 1230.26 263.67 1230.72 263.678Z" fill="url(#paint20_radial_15_49959)"/>
<path id="Vector_36" opacity="0.5" fill-rule="evenodd" clip-rule="evenodd" d="M1230.72 263.678C1231.43 263.678 1232.11 263.887 1232.7 264.278C1233.28 264.669 1233.73 265.224 1233.99 265.873C1234.26 266.521 1234.32 267.234 1234.18 267.921C1234.04 268.607 1233.7 269.236 1233.2 269.726C1232.7 270.217 1232.06 270.548 1231.37 270.676C1230.69 270.805 1229.97 270.725 1229.33 270.448C1228.68 270.17 1228.13 269.707 1227.76 269.118C1227.37 268.529 1227.18 267.84 1227.19 267.139C1227.19 266.679 1227.29 266.223 1227.46 265.798C1227.64 265.375 1227.9 264.99 1228.23 264.668C1228.56 264.345 1228.95 264.092 1229.38 263.922C1229.81 263.752 1230.26 263.67 1230.72 263.678Z" fill="#42E8E0"/>
</g>
<g id="Group_16" opacity="0.5">
<path id="Vector_37" opacity="0.5" fill-rule="evenodd" clip-rule="evenodd" d="M1248.52 229.519C1249.22 229.519 1249.89 229.726 1250.48 230.114C1251.06 230.502 1251.51 231.053 1251.78 231.698C1252.05 232.343 1252.12 233.052 1251.98 233.736C1251.85 234.421 1251.51 235.05 1251.01 235.543C1250.52 236.036 1249.89 236.372 1249.21 236.509C1248.52 236.645 1247.81 236.575 1247.17 236.308C1246.52 236.041 1245.97 235.589 1245.58 235.009C1245.19 234.428 1244.98 233.746 1244.98 233.048C1244.98 232.112 1245.36 231.215 1246.02 230.553C1246.69 229.89 1247.58 229.519 1248.52 229.519Z" fill="url(#paint21_radial_15_49959)"/>
<path id="Vector_38" opacity="0.5" fill-rule="evenodd" clip-rule="evenodd" d="M1248.52 229.519C1249.22 229.519 1249.89 229.726 1250.48 230.114C1251.06 230.502 1251.51 231.053 1251.78 231.698C1252.05 232.343 1252.12 233.052 1251.98 233.736C1251.85 234.421 1251.51 235.05 1251.01 235.543C1250.52 236.036 1249.89 236.372 1249.21 236.509C1248.52 236.645 1247.81 236.575 1247.17 236.308C1246.52 236.041 1245.97 235.589 1245.58 235.009C1245.19 234.428 1244.98 233.746 1244.98 233.048C1244.98 232.112 1245.36 231.215 1246.02 230.553C1246.69 229.89 1247.58 229.519 1248.52 229.519Z" fill="#42E8E0"/>
</g>
<g id="Group_17" opacity="0.5">
<path id="Vector_39" opacity="0.5" fill-rule="evenodd" clip-rule="evenodd" d="M1248.66 246.599C1249.14 246.599 1249.61 246.694 1250.07 246.878C1250.51 247.063 1250.91 247.333 1251.25 247.674C1251.6 248.015 1251.87 248.419 1252.05 248.865C1252.23 249.31 1252.33 249.788 1252.33 250.269C1252.11 251.036 1251.64 251.711 1251.01 252.191C1250.37 252.671 1249.59 252.931 1248.8 252.931C1248.01 252.931 1247.23 252.671 1246.59 252.191C1245.96 251.711 1245.49 251.036 1245.27 250.269C1245.26 249.343 1245.62 248.45 1246.24 247.769C1246.87 247.088 1247.74 246.67 1248.66 246.599Z" fill="url(#paint22_radial_15_49959)"/>
<path id="Vector_40" opacity="0.5" fill-rule="evenodd" clip-rule="evenodd" d="M1248.66 246.599C1249.14 246.599 1249.61 246.694 1250.07 246.878C1250.51 247.063 1250.91 247.333 1251.25 247.674C1251.6 248.015 1251.87 248.419 1252.05 248.865C1252.23 249.31 1252.33 249.788 1252.33 250.269C1252.11 251.036 1251.64 251.711 1251.01 252.191C1250.37 252.671 1249.59 252.931 1248.8 252.931C1248.01 252.931 1247.23 252.671 1246.59 252.191C1245.96 251.711 1245.49 251.036 1245.27 250.269C1245.26 249.343 1245.62 248.45 1246.24 247.769C1246.87 247.088 1247.74 246.67 1248.66 246.599Z" fill="#42E8E0"/>
</g>
<g id="Group_18" opacity="0.5">
<path id="Vector_41" opacity="0.5" fill-rule="evenodd" clip-rule="evenodd" d="M1248.52 263.678C1249.22 263.678 1249.9 263.887 1250.49 264.278C1251.07 264.669 1251.52 265.224 1251.79 265.873C1252.05 266.521 1252.12 267.234 1251.97 267.921C1251.83 268.607 1251.49 269.235 1250.99 269.726C1250.49 270.217 1249.85 270.548 1249.16 270.676C1248.48 270.805 1247.77 270.725 1247.12 270.447C1246.48 270.17 1245.93 269.707 1245.55 269.118C1245.17 268.529 1244.97 267.84 1244.98 267.139C1244.98 266.679 1245.08 266.223 1245.26 265.798C1245.44 265.374 1245.7 264.99 1246.02 264.668C1246.35 264.345 1246.74 264.092 1247.17 263.922C1247.6 263.752 1248.05 263.67 1248.52 263.678Z" fill="url(#paint23_radial_15_49959)"/>
<path id="Vector_42" opacity="0.5" fill-rule="evenodd" clip-rule="evenodd" d="M1248.52 263.678C1249.22 263.678 1249.9 263.887 1250.49 264.278C1251.07 264.669 1251.52 265.224 1251.79 265.873C1252.05 266.521 1252.12 267.234 1251.97 267.921C1251.83 268.607 1251.49 269.235 1250.99 269.726C1250.49 270.217 1249.85 270.548 1249.16 270.676C1248.48 270.805 1247.77 270.725 1247.12 270.447C1246.48 270.17 1245.93 269.707 1245.55 269.118C1245.17 268.529 1244.97 267.84 1244.98 267.139C1244.98 266.679 1245.08 266.223 1245.26 265.798C1245.44 265.374 1245.7 264.99 1246.02 264.668C1246.35 264.345 1246.74 264.092 1247.17 263.922C1247.6 263.752 1248.05 263.67 1248.52 263.678Z" fill="#42E8E0"/>
</g>
<g id="Group_19" opacity="0.5">
<path id="Vector_43" opacity="0.5" fill-rule="evenodd" clip-rule="evenodd" d="M1266.31 229.519C1267.01 229.519 1267.69 229.726 1268.27 230.114C1268.85 230.502 1269.3 231.053 1269.57 231.698C1269.84 232.343 1269.91 233.052 1269.77 233.736C1269.64 234.421 1269.3 235.05 1268.8 235.543C1268.31 236.036 1267.68 236.372 1267 236.509C1266.31 236.645 1265.6 236.575 1264.96 236.308C1264.31 236.041 1263.77 235.589 1263.37 235.009C1262.99 234.428 1262.77 233.746 1262.77 233.048C1262.77 232.112 1263.15 231.215 1263.81 230.553C1264.48 229.89 1265.37 229.519 1266.31 229.519Z" fill="url(#paint24_radial_15_49959)"/>
<path id="Vector_44" opacity="0.5" fill-rule="evenodd" clip-rule="evenodd" d="M1266.31 229.519C1267.01 229.519 1267.69 229.726 1268.27 230.114C1268.85 230.502 1269.3 231.053 1269.57 231.698C1269.84 232.343 1269.91 233.052 1269.77 233.736C1269.64 234.421 1269.3 235.05 1268.8 235.543C1268.31 236.036 1267.68 236.372 1267 236.509C1266.31 236.645 1265.6 236.575 1264.96 236.308C1264.31 236.041 1263.77 235.589 1263.37 235.009C1262.99 234.428 1262.77 233.746 1262.77 233.048C1262.77 232.112 1263.15 231.215 1263.81 230.553C1264.48 229.89 1265.37 229.519 1266.31 229.519Z" fill="#42E8E0"/>
</g>
<g id="Group_20" opacity="0.5">
<path id="Vector_45" opacity="0.5" fill-rule="evenodd" clip-rule="evenodd" d="M1266.45 246.599C1266.93 246.599 1267.4 246.694 1267.86 246.878C1268.3 247.063 1268.7 247.333 1269.04 247.674C1269.39 248.015 1269.66 248.419 1269.84 248.865C1270.02 249.31 1270.12 249.788 1270.12 250.269C1269.9 251.036 1269.44 251.711 1268.8 252.191C1268.17 252.671 1267.39 252.931 1266.59 252.931C1265.8 252.931 1265.02 252.671 1264.38 252.191C1263.75 251.711 1263.28 251.036 1263.06 250.269C1263.05 249.343 1263.41 248.45 1264.04 247.769C1264.66 247.088 1265.53 246.67 1266.45 246.599Z" fill="url(#paint25_radial_15_49959)"/>
<path id="Vector_46" opacity="0.5" fill-rule="evenodd" clip-rule="evenodd" d="M1266.45 246.599C1266.93 246.599 1267.4 246.694 1267.86 246.878C1268.3 247.063 1268.7 247.333 1269.04 247.674C1269.39 248.015 1269.66 248.419 1269.84 248.865C1270.02 249.31 1270.12 249.788 1270.12 250.269C1269.9 251.036 1269.44 251.711 1268.8 252.191C1268.17 252.671 1267.39 252.931 1266.59 252.931C1265.8 252.931 1265.02 252.671 1264.38 252.191C1263.75 251.711 1263.28 251.036 1263.06 250.269C1263.05 249.343 1263.41 248.45 1264.04 247.769C1264.66 247.088 1265.53 246.67 1266.45 246.599Z" fill="#42E8E0"/>
</g>
<g id="Group_21" opacity="0.5">
<path id="Vector_47" opacity="0.5" fill-rule="evenodd" clip-rule="evenodd" d="M1266.31 263.678C1267.01 263.678 1267.69 263.887 1268.28 264.278C1268.86 264.669 1269.31 265.224 1269.58 265.873C1269.84 266.521 1269.91 267.234 1269.76 267.921C1269.62 268.607 1269.28 269.236 1268.78 269.726C1268.28 270.217 1267.65 270.548 1266.95 270.676C1266.27 270.805 1265.56 270.725 1264.91 270.448C1264.27 270.17 1263.72 269.707 1263.34 269.118C1262.96 268.529 1262.76 267.84 1262.77 267.139C1262.77 266.679 1262.87 266.223 1263.05 265.798C1263.23 265.374 1263.49 264.99 1263.81 264.668C1264.14 264.345 1264.54 264.092 1264.96 263.922C1265.39 263.752 1265.84 263.67 1266.31 263.678Z" fill="url(#paint26_radial_15_49959)"/>
<path id="Vector_48" opacity="0.5" fill-rule="evenodd" clip-rule="evenodd" d="M1266.31 263.678C1267.01 263.678 1267.69 263.887 1268.28 264.278C1268.86 264.669 1269.31 265.224 1269.58 265.873C1269.84 266.521 1269.91 267.234 1269.76 267.921C1269.62 268.607 1269.28 269.236 1268.78 269.726C1268.28 270.217 1267.65 270.548 1266.95 270.676C1266.27 270.805 1265.56 270.725 1264.91 270.448C1264.27 270.17 1263.72 269.707 1263.34 269.118C1262.96 268.529 1262.76 267.84 1262.77 267.139C1262.77 266.679 1262.87 266.223 1263.05 265.798C1263.23 265.374 1263.49 264.99 1263.81 264.668C1264.14 264.345 1264.54 264.092 1264.96 263.922C1265.39 263.752 1265.84 263.67 1266.31 263.678Z" fill="#42E8E0"/>
</g>
<g id="Group_22" opacity="0.5">
<path id="Vector_49" opacity="0.5" fill-rule="evenodd" clip-rule="evenodd" d="M1284.1 229.519C1284.8 229.519 1285.47 229.726 1286.06 230.114C1286.64 230.502 1287.09 231.053 1287.36 231.698C1287.63 232.343 1287.7 233.052 1287.56 233.736C1287.43 234.421 1287.09 235.05 1286.59 235.544C1286.1 236.036 1285.47 236.373 1284.79 236.509C1284.1 236.645 1283.39 236.575 1282.75 236.308C1282.1 236.041 1281.55 235.589 1281.16 235.009C1280.78 234.428 1280.56 233.746 1280.56 233.048C1280.56 232.112 1280.94 231.215 1281.6 230.553C1282.27 229.89 1283.16 229.519 1284.1 229.519Z" fill="url(#paint27_radial_15_49959)"/>
<path id="Vector_50" opacity="0.5" fill-rule="evenodd" clip-rule="evenodd" d="M1284.1 229.519C1284.8 229.519 1285.47 229.726 1286.06 230.114C1286.64 230.502 1287.09 231.053 1287.36 231.698C1287.63 232.343 1287.7 233.052 1287.56 233.736C1287.43 234.421 1287.09 235.05 1286.59 235.544C1286.1 236.036 1285.47 236.373 1284.79 236.509C1284.1 236.645 1283.39 236.575 1282.75 236.308C1282.1 236.041 1281.55 235.589 1281.16 235.009C1280.78 234.428 1280.56 233.746 1280.56 233.048C1280.56 232.112 1280.94 231.215 1281.6 230.553C1282.27 229.89 1283.16 229.519 1284.1 229.519Z" fill="#42E8E0"/>
</g>
<g id="Group_23" opacity="0.5">
<path id="Vector_51" opacity="0.5" fill-rule="evenodd" clip-rule="evenodd" d="M1284.11 246.599C1284.57 246.599 1285.03 246.691 1285.46 246.868C1285.88 247.045 1286.27 247.306 1286.6 247.633C1286.93 247.96 1287.19 248.35 1287.36 248.778C1287.54 249.205 1287.63 249.664 1287.63 250.128C1287.79 250.653 1287.81 251.206 1287.71 251.743C1287.61 252.28 1287.39 252.787 1287.06 253.223C1286.73 253.659 1286.3 254.013 1285.81 254.256C1285.33 254.5 1284.79 254.627 1284.24 254.627C1283.69 254.627 1283.15 254.5 1282.66 254.256C1282.17 254.013 1281.75 253.659 1281.42 253.223C1281.09 252.787 1280.87 252.28 1280.77 251.743C1280.67 251.206 1280.7 250.653 1280.84 250.128C1280.84 249.237 1281.18 248.379 1281.78 247.724C1282.38 247.07 1283.21 246.667 1284.11 246.599Z" fill="url(#paint28_radial_15_49959)"/>
<path id="Vector_52" opacity="0.5" fill-rule="evenodd" clip-rule="evenodd" d="M1284.11 246.599C1284.57 246.599 1285.03 246.691 1285.46 246.868C1285.88 247.045 1286.27 247.306 1286.6 247.633C1286.93 247.96 1287.19 248.35 1287.36 248.778C1287.54 249.205 1287.63 249.664 1287.63 250.128C1287.79 250.653 1287.81 251.206 1287.71 251.743C1287.61 252.28 1287.39 252.787 1287.06 253.223C1286.73 253.659 1286.3 254.013 1285.81 254.256C1285.33 254.5 1284.79 254.627 1284.24 254.627C1283.69 254.627 1283.15 254.5 1282.66 254.256C1282.17 254.013 1281.75 253.659 1281.42 253.223C1281.09 252.787 1280.87 252.28 1280.77 251.743C1280.67 251.206 1280.7 250.653 1280.84 250.128C1280.84 249.237 1281.18 248.379 1281.78 247.724C1282.38 247.07 1283.21 246.667 1284.11 246.599Z" fill="#42E8E0"/>
</g>
<g id="Group_24" opacity="0.5">
<path id="Vector_53" opacity="0.5" fill-rule="evenodd" clip-rule="evenodd" d="M1284.1 263.678C1284.8 263.678 1285.48 263.887 1286.06 264.278C1286.65 264.669 1287.1 265.224 1287.36 265.873C1287.63 266.521 1287.7 267.234 1287.55 267.921C1287.41 268.607 1287.06 269.236 1286.56 269.726C1286.06 270.217 1285.43 270.548 1284.74 270.676C1284.05 270.805 1283.34 270.725 1282.7 270.448C1282.06 270.17 1281.51 269.707 1281.12 269.118C1280.75 268.529 1280.56 267.84 1280.56 267.139C1280.56 266.679 1280.66 266.223 1280.83 265.798C1281.02 265.374 1281.28 264.99 1281.6 264.668C1281.93 264.345 1282.33 264.092 1282.75 263.922C1283.17 263.752 1283.64 263.67 1284.1 263.678Z" fill="url(#paint29_radial_15_49959)"/>
<path id="Vector_54" opacity="0.5" fill-rule="evenodd" clip-rule="evenodd" d="M1284.1 263.678C1284.8 263.678 1285.48 263.887 1286.06 264.278C1286.65 264.669 1287.1 265.224 1287.36 265.873C1287.63 266.521 1287.7 267.234 1287.55 267.921C1287.41 268.607 1287.06 269.236 1286.56 269.726C1286.06 270.217 1285.43 270.548 1284.74 270.676C1284.05 270.805 1283.34 270.725 1282.7 270.448C1282.06 270.17 1281.51 269.707 1281.12 269.118C1280.75 268.529 1280.56 267.84 1280.56 267.139C1280.56 266.679 1280.66 266.223 1280.83 265.798C1281.02 265.374 1281.28 264.99 1281.6 264.668C1281.93 264.345 1282.33 264.092 1282.75 263.922C1283.17 263.752 1283.64 263.67 1284.1 263.678Z" fill="#42E8E0"/>
</g>
<g id="Group_25" opacity="0.5">
<path id="Vector_55" opacity="0.5" fill-rule="evenodd" clip-rule="evenodd" d="M464.501 1304.85C464.501 1305.54 464.294 1306.22 463.906 1306.8C463.518 1307.39 462.967 1307.84 462.322 1308.1C461.677 1308.37 460.967 1308.44 460.283 1308.3C459.598 1308.17 458.969 1307.83 458.476 1307.34C457.982 1306.85 457.646 1306.21 457.509 1305.53C457.373 1304.85 457.443 1304.13 457.71 1303.49C457.977 1302.84 458.429 1302.29 459.01 1301.91C459.59 1301.52 460.273 1301.31 460.971 1301.31C461.908 1301.31 462.805 1301.69 463.467 1302.34C464.13 1303.01 464.501 1303.9 464.501 1304.85Z" fill="url(#paint30_radial_15_49959)"/>
<path id="Vector_56" opacity="0.5" fill-rule="evenodd" clip-rule="evenodd" d="M464.501 1304.85C464.501 1305.54 464.294 1306.22 463.906 1306.8C463.518 1307.39 462.967 1307.84 462.322 1308.1C461.677 1308.37 460.967 1308.44 460.283 1308.3C459.598 1308.17 458.969 1307.83 458.476 1307.34C457.982 1306.85 457.646 1306.21 457.509 1305.53C457.373 1304.85 457.443 1304.13 457.71 1303.49C457.977 1302.84 458.429 1302.29 459.01 1301.91C459.59 1301.52 460.273 1301.31 460.971 1301.31C461.908 1301.31 462.805 1301.69 463.467 1302.34C464.13 1303.01 464.501 1303.9 464.501 1304.85Z" fill="#42E8E0"/>
</g>
<g id="Group_26" opacity="0.5">
<path id="Vector_57" opacity="0.5" fill-rule="evenodd" clip-rule="evenodd" d="M447.417 1304.85C447.417 1305.54 447.21 1306.22 446.822 1306.8C446.434 1307.39 445.884 1307.84 445.239 1308.1C444.593 1308.37 443.884 1308.44 443.198 1308.3C442.514 1308.17 441.885 1307.83 441.391 1307.34C440.898 1306.85 440.562 1306.21 440.425 1305.53C440.289 1304.85 440.359 1304.13 440.626 1303.49C440.894 1302.84 441.346 1302.29 441.927 1301.91C442.507 1301.52 443.189 1301.31 443.888 1301.31C444.824 1301.31 445.722 1301.69 446.383 1302.34C447.046 1303.01 447.417 1303.9 447.417 1304.85Z" fill="url(#paint31_radial_15_49959)"/>
<path id="Vector_58" opacity="0.5" fill-rule="evenodd" clip-rule="evenodd" d="M447.417 1304.85C447.417 1305.54 447.21 1306.22 446.822 1306.8C446.434 1307.39 445.884 1307.84 445.239 1308.1C444.593 1308.37 443.884 1308.44 443.198 1308.3C442.514 1308.17 441.885 1307.83 441.391 1307.34C440.898 1306.85 440.562 1306.21 440.425 1305.53C440.289 1304.85 440.359 1304.13 440.626 1303.49C440.894 1302.84 441.346 1302.29 441.927 1301.91C442.507 1301.52 443.189 1301.31 443.888 1301.31C444.824 1301.31 445.722 1301.69 446.383 1302.34C447.046 1303.01 447.417 1303.9 447.417 1304.85Z" fill="#42E8E0"/>
</g>
<g id="Group_27" opacity="0.5">
<path id="Vector_59" opacity="0.5" fill-rule="evenodd" clip-rule="evenodd" d="M431.342 1305.37C431.342 1305.91 431.236 1306.44 431.031 1306.93C430.825 1307.43 430.524 1307.89 430.143 1308.26C429.763 1308.65 429.312 1308.95 428.816 1309.15C428.32 1309.36 427.787 1309.46 427.25 1309.46C426.394 1309.21 425.643 1308.7 425.107 1307.99C424.572 1307.28 424.282 1306.41 424.282 1305.53C424.282 1304.64 424.572 1303.78 425.107 1303.06C425.643 1302.35 426.394 1301.84 427.25 1301.59C428.282 1301.59 429.279 1301.98 430.037 1302.68C430.797 1303.38 431.263 1304.34 431.342 1305.37Z" fill="url(#paint32_radial_15_49959)"/>
<path id="Vector_60" opacity="0.5" fill-rule="evenodd" clip-rule="evenodd" d="M431.342 1305.37C431.342 1305.91 431.236 1306.44 431.031 1306.93C430.825 1307.43 430.524 1307.89 430.143 1308.26C429.763 1308.65 429.312 1308.95 428.816 1309.15C428.32 1309.36 427.787 1309.46 427.25 1309.46C426.394 1309.21 425.643 1308.7 425.107 1307.99C424.572 1307.28 424.282 1306.41 424.282 1305.53C424.282 1304.64 424.572 1303.78 425.107 1303.06C425.643 1302.35 426.394 1301.84 427.25 1301.59C428.282 1301.59 429.279 1301.98 430.037 1302.68C430.797 1303.38 431.263 1304.34 431.342 1305.37Z" fill="#42E8E0"/>
</g>
<g id="Group_28" opacity="0.5">
<path id="Vector_61" opacity="0.5" fill-rule="evenodd" clip-rule="evenodd" d="M464.783 1322.77C464.565 1323.54 464.102 1324.21 463.464 1324.69C462.828 1325.17 462.051 1325.43 461.254 1325.43C460.456 1325.43 459.68 1325.17 459.043 1324.69C458.406 1324.21 457.943 1323.54 457.724 1322.77C457.943 1322.01 458.406 1321.33 459.043 1320.85C459.68 1320.37 460.456 1320.11 461.254 1320.11C462.051 1320.11 462.828 1320.37 463.464 1320.85C464.102 1321.33 464.565 1322.01 464.783 1322.77Z" fill="url(#paint33_radial_15_49959)"/>
<path id="Vector_62" opacity="0.5" fill-rule="evenodd" clip-rule="evenodd" d="M464.783 1322.77C464.565 1323.54 464.102 1324.21 463.464 1324.69C462.828 1325.17 462.051 1325.43 461.254 1325.43C460.456 1325.43 459.68 1325.17 459.043 1324.69C458.406 1324.21 457.943 1323.54 457.724 1322.77C457.943 1322.01 458.406 1321.33 459.043 1320.85C459.68 1320.37 460.456 1320.11 461.254 1320.11C462.051 1320.11 462.828 1320.37 463.464 1320.85C464.102 1321.33 464.565 1322.01 464.783 1322.77Z" fill="#42E8E0"/>
</g>
<g id="Group_29" opacity="0.5">
<path id="Vector_63" opacity="0.5" fill-rule="evenodd" clip-rule="evenodd" d="M447.699 1322.77C447.48 1323.54 447.017 1324.21 446.379 1324.69C445.743 1325.17 444.967 1325.43 444.169 1325.43C443.371 1325.43 442.595 1325.17 441.959 1324.69C441.321 1324.21 440.858 1323.54 440.639 1322.77C440.858 1322.01 441.321 1321.33 441.959 1320.85C442.595 1320.37 443.371 1320.11 444.169 1320.11C444.967 1320.11 445.743 1320.37 446.379 1320.85C447.017 1321.33 447.48 1322.01 447.699 1322.77Z" fill="url(#paint34_radial_15_49959)"/>
<path id="Vector_64" opacity="0.5" fill-rule="evenodd" clip-rule="evenodd" d="M447.699 1322.77C447.48 1323.54 447.017 1324.21 446.379 1324.69C445.743 1325.17 444.967 1325.43 444.169 1325.43C443.371 1325.43 442.595 1325.17 441.959 1324.69C441.321 1324.21 440.858 1323.54 440.639 1322.77C440.858 1322.01 441.321 1321.33 441.959 1320.85C442.595 1320.37 443.371 1320.11 444.169 1320.11C444.967 1320.11 445.743 1320.37 446.379 1320.85C447.017 1321.33 447.48 1322.01 447.699 1322.77Z" fill="#42E8E0"/>
</g>
<g id="Group_30" opacity="0.5">
<path id="Vector_65" opacity="0.5" fill-rule="evenodd" clip-rule="evenodd" d="M430.332 1322.63C430.332 1323.09 430.241 1323.55 430.064 1323.98C429.885 1324.4 429.626 1324.8 429.298 1325.12C428.97 1325.45 428.581 1325.71 428.153 1325.88C427.724 1326.07 427.266 1326.15 426.802 1326.15C425.871 1326.14 424.983 1325.76 424.325 1325.1C423.667 1324.45 423.289 1323.55 423.271 1322.63C423.271 1321.69 423.644 1320.79 424.305 1320.13C424.968 1319.47 425.866 1319.1 426.802 1319.1C427.739 1319.1 428.636 1319.47 429.298 1320.13C429.96 1320.79 430.332 1321.69 430.332 1322.63Z" fill="url(#paint35_radial_15_49959)"/>
<path id="Vector_66" opacity="0.5" fill-rule="evenodd" clip-rule="evenodd" d="M430.332 1322.63C430.332 1323.09 430.241 1323.55 430.064 1323.98C429.885 1324.4 429.626 1324.8 429.298 1325.12C428.97 1325.45 428.581 1325.71 428.153 1325.88C427.724 1326.07 427.266 1326.15 426.802 1326.15C425.871 1326.14 424.983 1325.76 424.325 1325.1C423.667 1324.45 423.289 1323.55 423.271 1322.63C423.271 1321.69 423.644 1320.79 424.305 1320.13C424.968 1319.47 425.866 1319.1 426.802 1319.1C427.739 1319.1 428.636 1319.47 429.298 1320.13C429.96 1320.79 430.332 1321.69 430.332 1322.63Z" fill="#42E8E0"/>
</g>
<g id="Group_31" opacity="0.5">
<path id="Vector_67" opacity="0.5" fill-rule="evenodd" clip-rule="evenodd" d="M464.783 1340.55C464.565 1341.32 464.102 1341.99 463.464 1342.48C462.828 1342.96 462.051 1343.22 461.254 1343.22C460.456 1343.22 459.68 1342.96 459.043 1342.48C458.406 1341.99 457.943 1341.32 457.724 1340.55C457.943 1339.79 458.406 1339.12 459.043 1338.64C459.68 1338.15 460.456 1337.89 461.254 1337.89C462.051 1337.89 462.828 1338.15 463.464 1338.64C464.102 1339.12 464.565 1339.79 464.783 1340.55Z" fill="url(#paint36_radial_15_49959)"/>
<path id="Vector_68" opacity="0.5" fill-rule="evenodd" clip-rule="evenodd" d="M464.783 1340.55C464.565 1341.32 464.102 1341.99 463.464 1342.48C462.828 1342.96 462.051 1343.22 461.254 1343.22C460.456 1343.22 459.68 1342.96 459.043 1342.48C458.406 1341.99 457.943 1341.32 457.724 1340.55C457.943 1339.79 458.406 1339.12 459.043 1338.64C459.68 1338.15 460.456 1337.89 461.254 1337.89C462.051 1337.89 462.828 1338.15 463.464 1338.64C464.102 1339.12 464.565 1339.79 464.783 1340.55Z" fill="#42E8E0"/>
</g>
<g id="Group_32" opacity="0.5">
<path id="Vector_69" opacity="0.5" fill-rule="evenodd" clip-rule="evenodd" d="M447.699 1340.55C447.48 1341.32 447.017 1341.99 446.379 1342.48C445.743 1342.96 444.967 1343.22 444.169 1343.22C443.371 1343.22 442.595 1342.96 441.959 1342.48C441.321 1341.99 440.858 1341.32 440.639 1340.55C440.858 1339.79 441.321 1339.12 441.959 1338.64C442.595 1338.15 443.371 1337.89 444.169 1337.89C444.967 1337.89 445.743 1338.15 446.379 1338.64C447.017 1339.12 447.48 1339.79 447.699 1340.55Z" fill="url(#paint37_radial_15_49959)"/>
<path id="Vector_70" opacity="0.5" fill-rule="evenodd" clip-rule="evenodd" d="M447.699 1340.55C447.48 1341.32 447.017 1341.99 446.379 1342.48C445.743 1342.96 444.967 1343.22 444.169 1343.22C443.371 1343.22 442.595 1342.96 441.959 1342.48C441.321 1341.99 440.858 1341.32 440.639 1340.55C440.858 1339.79 441.321 1339.12 441.959 1338.64C442.595 1338.15 443.371 1337.89 444.169 1337.89C444.967 1337.89 445.743 1338.15 446.379 1338.64C447.017 1339.12 447.48 1339.79 447.699 1340.55Z" fill="#42E8E0"/>
</g>
<g id="Group_33" opacity="0.5">
<path id="Vector_71" opacity="0.5" fill-rule="evenodd" clip-rule="evenodd" d="M430.332 1340.42C430.332 1341.35 429.96 1342.25 429.298 1342.91C428.636 1343.57 427.739 1343.94 426.802 1343.94C425.871 1343.93 424.983 1343.54 424.325 1342.89C423.667 1342.24 423.289 1341.34 423.271 1340.42C423.271 1339.47 423.644 1338.58 424.305 1337.91C424.968 1337.26 425.866 1336.88 426.802 1336.88C427.739 1336.88 428.636 1337.26 429.298 1337.91C429.96 1338.58 430.332 1339.47 430.332 1340.42Z" fill="url(#paint38_radial_15_49959)"/>
<path id="Vector_72" opacity="0.5" fill-rule="evenodd" clip-rule="evenodd" d="M430.332 1340.42C430.332 1341.35 429.96 1342.25 429.298 1342.91C428.636 1343.57 427.739 1343.94 426.802 1343.94C425.871 1343.93 424.983 1343.54 424.325 1342.89C423.667 1342.24 423.289 1341.34 423.271 1340.42C423.271 1339.47 423.644 1338.58 424.305 1337.91C424.968 1337.26 425.866 1336.88 426.802 1336.88C427.739 1336.88 428.636 1337.26 429.298 1337.91C429.96 1338.58 430.332 1339.47 430.332 1340.42Z" fill="#42E8E0"/>
</g>
<g id="Group_34" opacity="0.5">
<path id="Vector_73" opacity="0.5" fill-rule="evenodd" clip-rule="evenodd" d="M464.507 1358.16C464.296 1358.89 463.852 1359.55 463.238 1360.01C462.626 1360.47 461.88 1360.72 461.113 1360.72C460.345 1360.72 459.599 1360.47 458.987 1360.01C458.375 1359.55 457.929 1358.89 457.719 1358.16C457.569 1357.63 457.543 1357.09 457.642 1356.55C457.742 1356.01 457.965 1355.5 458.295 1355.06C458.624 1354.63 459.05 1354.28 459.539 1354.03C460.028 1353.78 460.567 1353.66 461.113 1353.66C461.659 1353.66 462.198 1353.78 462.687 1354.03C463.176 1354.28 463.602 1354.63 463.931 1355.06C464.26 1355.5 464.483 1356.01 464.583 1356.55C464.683 1357.09 464.657 1357.63 464.507 1358.16Z" fill="url(#paint39_radial_15_49959)"/>
<path id="Vector_74" opacity="0.5" fill-rule="evenodd" clip-rule="evenodd" d="M464.507 1358.16C464.296 1358.89 463.852 1359.55 463.238 1360.01C462.626 1360.47 461.88 1360.72 461.113 1360.72C460.345 1360.72 459.599 1360.47 458.987 1360.01C458.375 1359.55 457.929 1358.89 457.719 1358.16C457.569 1357.63 457.543 1357.09 457.642 1356.55C457.742 1356.01 457.965 1355.5 458.295 1355.06C458.624 1354.63 459.05 1354.28 459.539 1354.03C460.028 1353.78 460.567 1353.66 461.113 1353.66C461.659 1353.66 462.198 1353.78 462.687 1354.03C463.176 1354.28 463.602 1354.63 463.931 1355.06C464.26 1355.5 464.483 1356.01 464.583 1356.55C464.683 1357.09 464.657 1357.63 464.507 1358.16Z" fill="#42E8E0"/>
</g>
<g id="Group_35" opacity="0.5">
<path id="Vector_75" opacity="0.5" fill-rule="evenodd" clip-rule="evenodd" d="M447.423 1358.24C447.573 1358.76 447.599 1359.32 447.499 1359.86C447.4 1360.39 447.177 1360.9 446.847 1361.33C446.518 1361.77 446.093 1362.12 445.603 1362.37C445.114 1362.61 444.575 1362.73 444.029 1362.73C443.483 1362.73 442.943 1362.61 442.454 1362.37C441.965 1362.12 441.54 1361.77 441.211 1361.33C440.882 1360.9 440.659 1360.39 440.559 1359.86C440.459 1359.32 440.485 1358.76 440.635 1358.24C440.846 1357.5 441.29 1356.85 441.903 1356.39C442.516 1355.93 443.262 1355.68 444.029 1355.68C444.796 1355.68 445.543 1355.93 446.155 1356.39C446.767 1356.85 447.212 1357.5 447.423 1358.24Z" fill="url(#paint40_radial_15_49959)"/>
<path id="Vector_76" opacity="0.5" fill-rule="evenodd" clip-rule="evenodd" d="M447.423 1358.24C447.573 1358.76 447.599 1359.32 447.499 1359.86C447.4 1360.39 447.177 1360.9 446.847 1361.33C446.518 1361.77 446.093 1362.12 445.603 1362.37C445.114 1362.61 444.575 1362.73 444.029 1362.73C443.483 1362.73 442.943 1362.61 442.454 1362.37C441.965 1362.12 441.54 1361.77 441.211 1361.33C440.882 1360.9 440.659 1360.39 440.559 1359.86C440.459 1359.32 440.485 1358.76 440.635 1358.24C440.846 1357.5 441.29 1356.85 441.903 1356.39C442.516 1355.93 443.262 1355.68 444.029 1355.68C444.796 1355.68 445.543 1355.93 446.155 1356.39C446.767 1356.85 447.212 1357.5 447.423 1358.24Z" fill="#42E8E0"/>
</g>
<g id="Group_36" opacity="0.5">
<path id="Vector_77" opacity="0.5" fill-rule="evenodd" clip-rule="evenodd" d="M430.332 1358.2C430.332 1358.66 430.241 1359.12 430.064 1359.55C429.885 1359.97 429.626 1360.37 429.298 1360.69C428.97 1361.02 428.581 1361.28 428.153 1361.45C427.724 1361.64 427.266 1361.72 426.802 1361.72C425.871 1361.71 424.983 1361.33 424.325 1360.68C423.667 1360.02 423.289 1359.13 423.271 1358.2C423.271 1357.26 423.644 1356.36 424.305 1355.7C424.968 1355.05 425.866 1354.67 426.802 1354.67C427.739 1354.67 428.636 1355.05 429.298 1355.7C429.96 1356.36 430.332 1357.26 430.332 1358.2Z" fill="url(#paint41_radial_15_49959)"/>
<path id="Vector_78" opacity="0.5" fill-rule="evenodd" clip-rule="evenodd" d="M430.332 1358.2C430.332 1358.66 430.241 1359.12 430.064 1359.55C429.885 1359.97 429.626 1360.37 429.298 1360.69C428.97 1361.02 428.581 1361.28 428.153 1361.45C427.724 1361.64 427.266 1361.72 426.802 1361.72C425.871 1361.71 424.983 1361.33 424.325 1360.68C423.667 1360.02 423.289 1359.13 423.271 1358.2C423.271 1357.26 423.644 1356.36 424.305 1355.7C424.968 1355.05 425.866 1354.67 426.802 1354.67C427.739 1354.67 428.636 1355.05 429.298 1355.7C429.96 1356.36 430.332 1357.26 430.332 1358.2Z" fill="#42E8E0"/>
</g>
</g>
</g>
<defs>
<linearGradient id="paint0_linear_15_49959" x1="267.169" y1="794.001" x2="1964.11" y2="794.001" gradientUnits="userSpaceOnUse">
<stop stop-color="#151219"/>
<stop offset="1" stop-color="#222222"/>
</linearGradient>
<linearGradient id="paint1_linear_15_49959" x1="1161.32" y1="1677.5" x2="480.038" y2="631.709" gradientUnits="userSpaceOnUse">
<stop stop-color="#8376F0"/>
<stop offset="1" stop-color="#2A12F4"/>
</linearGradient>
<linearGradient id="paint2_linear_15_49959" x1="-203.462" y1="652.69" x2="1950.41" y2="1236.67" gradientUnits="userSpaceOnUse">
<stop stop-color="#8376F0"/>
<stop offset="1" stop-color="#5BE4DE"/>
</linearGradient>
<linearGradient id="paint3_linear_15_49959" x1="-20.9561" y1="577.368" x2="1841.47" y2="1539.48" gradientUnits="userSpaceOnUse">
<stop stop-color="#8376F0"/>
<stop offset="1" stop-color="#2A12F4"/>
</linearGradient>
<linearGradient id="paint4_linear_15_49959" x1="-105.345" y1="1479.65" x2="1624.76" y2="875.556" gradientUnits="userSpaceOnUse">
<stop stop-color="#151219"/>
<stop offset="0.58" stop-color="#19746F"/>
<stop offset="1" stop-color="#00BDB4"/>
</linearGradient>
<linearGradient id="paint5_linear_15_49959" x1="845.674" y1="400.131" x2="1096.12" y2="1733.33" gradientUnits="userSpaceOnUse">
<stop stop-color="#8376F0"/>
<stop offset="1" stop-color="#2A12F4"/>
</linearGradient>
<radialGradient id="paint6_radial_15_49959" cx="0" cy="0" r="1" gradientUnits="userSpaceOnUse" gradientTransform="translate(1231.04 182.222) rotate(83.518) scale(3.90348 2.41235)">
<stop stop-color="#5BE4DE"/>
<stop offset="1" stop-color="#00BDB4"/>
</radialGradient>
<radialGradient id="paint7_radial_15_49959" cx="0" cy="0" r="1" gradientUnits="userSpaceOnUse" gradientTransform="translate(1230.76 199.657) rotate(84.1795) scale(4.34551 2.41543)">
<stop stop-color="#5BE4DE"/>
<stop offset="1" stop-color="#00BDB4"/>
</radialGradient>
<radialGradient id="paint8_radial_15_49959" cx="0" cy="0" r="1" gradientUnits="userSpaceOnUse" gradientTransform="translate(1231.04 216.381) rotate(83.518) scale(3.90346 2.41235)">
<stop stop-color="#5BE4DE"/>
<stop offset="1" stop-color="#00BDB4"/>
</radialGradient>
<radialGradient id="paint9_radial_15_49959" cx="0" cy="0" r="1" gradientUnits="userSpaceOnUse" gradientTransform="translate(1248.83 182.222) rotate(83.518) scale(3.90348 2.41235)">
<stop stop-color="#5BE4DE"/>
<stop offset="1" stop-color="#00BDB4"/>
</radialGradient>
<radialGradient id="paint10_radial_15_49959" cx="0" cy="0" r="1" gradientUnits="userSpaceOnUse" gradientTransform="translate(1248.55 199.657) rotate(84.1796) scale(4.34546 2.41539)">
<stop stop-color="#5BE4DE"/>
<stop offset="1" stop-color="#00BDB4"/>
</radialGradient>
<radialGradient id="paint11_radial_15_49959" cx="0" cy="0" r="1" gradientUnits="userSpaceOnUse" gradientTransform="translate(1248.83 216.381) rotate(83.518) scale(3.90346 2.41235)">
<stop stop-color="#5BE4DE"/>
<stop offset="1" stop-color="#00BDB4"/>
</radialGradient>
<radialGradient id="paint12_radial_15_49959" cx="0" cy="0" r="1" gradientUnits="userSpaceOnUse" gradientTransform="translate(1266.48 183.05) rotate(84.8785) scale(4.93647 2.41819)">
<stop stop-color="#5BE4DE"/>
<stop offset="1" stop-color="#00BDB4"/>
</radialGradient>
<radialGradient id="paint13_radial_15_49959" cx="0" cy="0" r="1" gradientUnits="userSpaceOnUse" gradientTransform="translate(1266.35 199.657) rotate(84.1795) scale(4.34547 2.41543)">
<stop stop-color="#5BE4DE"/>
<stop offset="1" stop-color="#00BDB4"/>
</radialGradient>
<radialGradient id="paint14_radial_15_49959" cx="0" cy="0" r="1" gradientUnits="userSpaceOnUse" gradientTransform="translate(1266.48 217.21) rotate(84.8784) scale(4.93645 2.41819)">
<stop stop-color="#5BE4DE"/>
<stop offset="1" stop-color="#00BDB4"/>
</radialGradient>
<radialGradient id="paint15_radial_15_49959" cx="0" cy="0" r="1" gradientUnits="userSpaceOnUse" gradientTransform="translate(1284.14 182.577) rotate(84.1798) scale(4.34549 2.4153)">
<stop stop-color="#5BE4DE"/>
<stop offset="1" stop-color="#00BDB4"/>
</radialGradient>
<radialGradient id="paint16_radial_15_49959" cx="0" cy="0" r="1" gradientUnits="userSpaceOnUse" gradientTransform="translate(1284.14 199.657) rotate(84.1798) scale(4.3455 2.4153)">
<stop stop-color="#5BE4DE"/>
<stop offset="1" stop-color="#00BDB4"/>
</radialGradient>
<radialGradient id="paint17_radial_15_49959" cx="0" cy="0" r="1" gradientUnits="userSpaceOnUse" gradientTransform="translate(1284.14 216.736) rotate(84.1798) scale(4.34546 2.4153)">
<stop stop-color="#5BE4DE"/>
<stop offset="1" stop-color="#00BDB4"/>
</radialGradient>
<radialGradient id="paint18_radial_15_49959" cx="0" cy="0" r="1" gradientUnits="userSpaceOnUse" gradientTransform="translate(1230.76 232.969) rotate(84.1795) scale(4.34549 2.41543)">
<stop stop-color="#5BE4DE"/>
<stop offset="1" stop-color="#00BDB4"/>
</radialGradient>
<radialGradient id="paint19_radial_15_49959" cx="0" cy="0" r="1" gradientUnits="userSpaceOnUse" gradientTransform="translate(1230.9 250.523) rotate(84.8785) scale(4.93653 2.41823)">
<stop stop-color="#5BE4DE"/>
<stop offset="1" stop-color="#00BDB4"/>
</radialGradient>
<radialGradient id="paint20_radial_15_49959" cx="0" cy="0" r="1" gradientUnits="userSpaceOnUse" gradientTransform="translate(1230.76 267.128) rotate(84.1801) scale(4.34589 2.41543)">
<stop stop-color="#5BE4DE"/>
<stop offset="1" stop-color="#00BDB4"/>
</radialGradient>
<radialGradient id="paint21_radial_15_49959" cx="0" cy="0" r="1" gradientUnits="userSpaceOnUse" gradientTransform="translate(1248.55 232.969) rotate(84.1795) scale(4.34543 2.41539)">
<stop stop-color="#5BE4DE"/>
<stop offset="1" stop-color="#00BDB4"/>
</radialGradient>
<radialGradient id="paint22_radial_15_49959" cx="0" cy="0" r="1" gradientUnits="userSpaceOnUse" gradientTransform="translate(1248.83 249.694) rotate(83.518) scale(3.90348 2.41235)">
<stop stop-color="#5BE4DE"/>
<stop offset="1" stop-color="#00BDB4"/>
</radialGradient>
<radialGradient id="paint23_radial_15_49959" cx="0" cy="0" r="1" gradientUnits="userSpaceOnUse" gradientTransform="translate(1248.55 267.128) rotate(84.1801) scale(4.34582 2.41538)">
<stop stop-color="#5BE4DE"/>
<stop offset="1" stop-color="#00BDB4"/>
</radialGradient>
<radialGradient id="paint24_radial_15_49959" cx="0" cy="0" r="1" gradientUnits="userSpaceOnUse" gradientTransform="translate(1266.35 232.969) rotate(84.1795) scale(4.34545 2.41543)">
<stop stop-color="#5BE4DE"/>
<stop offset="1" stop-color="#00BDB4"/>
</radialGradient>
<radialGradient id="paint25_radial_15_49959" cx="0" cy="0" r="1" gradientUnits="userSpaceOnUse" gradientTransform="translate(1266.62 249.694) rotate(83.5178) scale(3.90348 2.41243)">
<stop stop-color="#5BE4DE"/>
<stop offset="1" stop-color="#00BDB4"/>
</radialGradient>
<radialGradient id="paint26_radial_15_49959" cx="0" cy="0" r="1" gradientUnits="userSpaceOnUse" gradientTransform="translate(1266.35 267.128) rotate(84.1801) scale(4.34584 2.41537)">
<stop stop-color="#5BE4DE"/>
<stop offset="1" stop-color="#00BDB4"/>
</radialGradient>
<radialGradient id="paint27_radial_15_49959" cx="0" cy="0" r="1" gradientUnits="userSpaceOnUse" gradientTransform="translate(1284.14 232.969) rotate(84.1798) scale(4.34548 2.4153)">
<stop stop-color="#5BE4DE"/>
<stop offset="1" stop-color="#00BDB4"/>
</radialGradient>
<radialGradient id="paint28_radial_15_49959" cx="0" cy="0" r="1" gradientUnits="userSpaceOnUse" gradientTransform="translate(1284.27 250.523) rotate(84.8785) scale(4.93648 2.41819)">
<stop stop-color="#5BE4DE"/>
<stop offset="1" stop-color="#00BDB4"/>
</radialGradient>
<radialGradient id="paint29_radial_15_49959" cx="0" cy="0" r="1" gradientUnits="userSpaceOnUse" gradientTransform="translate(1284.13 267.128) rotate(84.1802) scale(4.34583 2.41535)">
<stop stop-color="#5BE4DE"/>
<stop offset="1" stop-color="#00BDB4"/>
</radialGradient>
<radialGradient id="paint30_radial_15_49959" cx="0" cy="0" r="1" gradientUnits="userSpaceOnUse" gradientTransform="translate(461.006 1304.76) rotate(84.1797) scale(4.34548 2.41536)">
<stop stop-color="#5BE4DE"/>
<stop offset="1" stop-color="#00BDB4"/>
</radialGradient>
<radialGradient id="paint31_radial_15_49959" cx="0" cy="0" r="1" gradientUnits="userSpaceOnUse" gradientTransform="translate(443.922 1304.76) rotate(84.1796) scale(4.34548 2.41538)">
<stop stop-color="#5BE4DE"/>
<stop offset="1" stop-color="#00BDB4"/>
</radialGradient>
<radialGradient id="paint32_radial_15_49959" cx="0" cy="0" r="1" gradientUnits="userSpaceOnUse" gradientTransform="translate(427.846 1305.44) rotate(84.7746) scale(4.8386 2.41779)">
<stop stop-color="#5BE4DE"/>
<stop offset="1" stop-color="#00BDB4"/>
</radialGradient>
<radialGradient id="paint33_radial_15_49959" cx="0" cy="0" r="1" gradientUnits="userSpaceOnUse" gradientTransform="translate(461.289 1322.71) rotate(82.3039) scale(3.29061 2.40602)">
<stop stop-color="#5BE4DE"/>
<stop offset="1" stop-color="#00BDB4"/>
</radialGradient>
<radialGradient id="paint34_radial_15_49959" cx="0" cy="0" r="1" gradientUnits="userSpaceOnUse" gradientTransform="translate(444.204 1322.71) rotate(82.304) scale(3.29067 2.40602)">
<stop stop-color="#5BE4DE"/>
<stop offset="1" stop-color="#00BDB4"/>
</radialGradient>
<radialGradient id="paint35_radial_15_49959" cx="0" cy="0" r="1" gradientUnits="userSpaceOnUse" gradientTransform="translate(426.836 1322.54) rotate(84.1797) scale(4.34555 2.41539)">
<stop stop-color="#5BE4DE"/>
<stop offset="1" stop-color="#00BDB4"/>
</radialGradient>
<radialGradient id="paint36_radial_15_49959" cx="0" cy="0" r="1" gradientUnits="userSpaceOnUse" gradientTransform="translate(461.289 1340.49) rotate(82.3044) scale(3.29081 2.40602)">
<stop stop-color="#5BE4DE"/>
<stop offset="1" stop-color="#00BDB4"/>
</radialGradient>
<radialGradient id="paint37_radial_15_49959" cx="0" cy="0" r="1" gradientUnits="userSpaceOnUse" gradientTransform="translate(444.204 1340.49) rotate(82.3041) scale(3.29068 2.40602)">
<stop stop-color="#5BE4DE"/>
<stop offset="1" stop-color="#00BDB4"/>
</radialGradient>
<radialGradient id="paint38_radial_15_49959" cx="0" cy="0" r="1" gradientUnits="userSpaceOnUse" gradientTransform="translate(426.836 1340.33) rotate(84.1799) scale(4.34569 2.41539)">
<stop stop-color="#5BE4DE"/>
<stop offset="1" stop-color="#00BDB4"/>
</radialGradient>
<radialGradient id="paint39_radial_15_49959" cx="0" cy="0" r="1" gradientUnits="userSpaceOnUse" gradientTransform="translate(461.147 1357.11) rotate(84.1797) scale(4.34556 2.41538)">
<stop stop-color="#5BE4DE"/>
<stop offset="1" stop-color="#00BDB4"/>
</radialGradient>
<radialGradient id="paint40_radial_15_49959" cx="0" cy="0" r="1" gradientUnits="userSpaceOnUse" gradientTransform="translate(444.064 1359.13) rotate(84.1797) scale(4.34547 2.41537)">
<stop stop-color="#5BE4DE"/>
<stop offset="1" stop-color="#00BDB4"/>
</radialGradient>
<radialGradient id="paint41_radial_15_49959" cx="0" cy="0" r="1" gradientUnits="userSpaceOnUse" gradientTransform="translate(426.836 1358.12) rotate(84.1794) scale(4.34525 2.41539)">
<stop stop-color="#5BE4DE"/>
<stop offset="1" stop-color="#00BDB4"/>
</radialGradient>
<clipPath id="clip0_15_49959">
<rect width="2108" height="1588" fill="white"/>
</clipPath>
</defs>
</svg>
