<svg width="64" height="64" viewBox="0 0 64 64" fill="none" xmlns="http://www.w3.org/2000/svg">
<path d="M13 38.5V59.5C13 60.2956 13.3161 61.0587 13.8787 61.6213C14.4413 62.1839 15.2044 62.5 16 62.5H60C60.7956 62.5 61.5587 62.1839 62.1213 61.6213C62.6839 61.0587 63 60.2956 63 59.5V38.5H13ZM57 57.5H46C45.7348 57.5 45.4804 57.3946 45.2929 57.2071C45.1054 57.0196 45 56.7652 45 56.5C45 56.2348 45.1054 55.9804 45.2929 55.7929C45.4804 55.6054 45.7348 55.5 46 55.5H57C57.2652 55.5 57.5196 55.6054 57.7071 55.7929C57.8946 55.9804 58 56.2348 58 56.5C58 56.7652 57.8946 57.0196 57.7071 57.2071C57.5196 57.3946 57.2652 57.5 57 57.5ZM57 52.5H46C45.7348 52.5 45.4804 52.3946 45.2929 52.2071C45.1054 52.0196 45 51.7652 45 51.5C45 51.2348 45.1054 50.9804 45.2929 50.7929C45.4804 50.6054 45.7348 50.5 46 50.5H57C57.2652 50.5 57.5196 50.6054 57.7071 50.7929C57.8946 50.9804 58 51.2348 58 51.5C58 51.7652 57.8946 52.0196 57.7071 52.2071C57.5196 52.3946 57.2652 52.5 57 52.5Z" fill="#6E60E7"/>
<path d="M63 36.5V28.5C63 27.7044 62.6839 26.9413 62.1213 26.3787C61.5587 25.8161 60.7956 25.5 60 25.5H39C38.5502 25.5009 38.1063 25.6029 37.7013 25.7985C37.2963 25.9941 36.9404 26.2783 36.66 26.63L33.86 30.12C33.7669 30.2379 33.6484 30.3332 33.5134 30.399C33.3783 30.4648 33.2302 30.4993 33.08 30.5H16C15.606 30.5 15.2159 30.5776 14.8519 30.7284C14.488 30.8791 14.1573 31.1001 13.8787 31.3787C13.6001 31.6573 13.3791 31.988 13.2284 32.352C13.0776 32.7159 13 33.106 13 33.5V36.5H63Z" fill="#6E60E7"/>
<path d="M45 20.5H44C43.7348 20.5 43.4804 20.3946 43.2929 20.2071C43.1054 20.0196 43 19.7652 43 19.5V10.5C43 8.11305 42.0518 5.82387 40.364 4.13604C38.6761 2.44821 36.3869 1.5 34 1.5H18C15.6131 1.5 13.3239 2.44821 11.636 4.13604C9.94821 5.82387 9 8.11305 9 10.5V10.5V19.5C9 19.7652 8.89464 20.0196 8.70711 20.2071C8.51957 20.3946 8.26522 20.5 8 20.5H7C5.4087 20.5 3.88258 21.1321 2.75736 22.2574C1.63214 23.3826 1 24.9087 1 26.5C1 28.0913 1.63214 29.6174 2.75736 30.7426C3.88258 31.8679 5.4087 32.5 7 32.5H12C14.3869 32.5 16.6761 31.5518 18.364 29.864C20.0518 28.1761 21 25.8869 21 23.5V23.5V14.5C21 14.2348 21.1054 13.9804 21.2929 13.7929C21.4804 13.6054 21.7348 13.5 22 13.5H30C30.2652 13.5 30.5196 13.6054 30.7071 13.7929C30.8946 13.9804 31 14.2348 31 14.5V23.5C31 25.8869 31.9482 28.1761 33.636 29.864C35.3239 31.5518 37.6131 32.5 40 32.5H45C46.5913 32.5 48.1174 31.8679 49.2426 30.7426C50.3679 29.6174 51 28.0913 51 26.5C51 24.9087 50.3679 23.3826 49.2426 22.2574C48.1174 21.1321 46.5913 20.5 45 20.5V20.5ZM33 22V15.18L41 12V18.84L33 22ZM41 9.84L32.7 13.16C32.3838 12.524 31.8523 12.0209 31.2 11.74L32.82 3.5H34C35.7476 3.49222 37.435 4.13844 38.7303 5.31164C40.0256 6.48484 40.8352 8.10014 41 9.84V9.84ZM21.22 3.5H30.78L29.18 11.5H22.82L21.22 3.5ZM18 3.5H19.18L20.83 11.74C20.1777 12.0209 19.6462 12.524 19.33 13.16L11 9.84C11.1648 8.10014 11.9744 6.48484 13.2697 5.31164C14.565 4.13844 16.2524 3.49222 18 3.5V3.5ZM11 18.82V12L19 15.2V22L11 18.82ZM3 26.5C3 25.4391 3.42143 24.4217 4.17157 23.6716C4.92172 22.9214 5.93913 22.5 7 22.5H7.26L9.66 30.5H7C5.93913 30.5 4.92172 30.0786 4.17157 29.3284C3.42143 28.5783 3 27.5609 3 26.5ZM12 30.5H11.74L9.26 22.21C9.87054 21.9247 10.3672 21.4421 10.67 20.84L19 24.16C18.8352 25.8999 18.0256 27.5152 16.7303 28.6884C15.435 29.8616 13.7476 30.5078 12 30.5V30.5ZM33 24.16L41.3 20.84C41.6028 21.4421 42.0995 21.9247 42.71 22.21L40.26 30.5H40C38.2524 30.5078 36.565 29.8616 35.2697 28.6884C33.9744 27.5152 33.1648 25.8999 33 24.16V24.16ZM45 30.5H42.34L44.74 22.5H45C46.0609 22.5 47.0783 22.9214 47.8284 23.6716C48.5786 24.4217 49 25.4391 49 26.5C49 27.5609 48.5786 28.5783 47.8284 29.3284C47.0783 30.0786 46.0609 30.5 45 30.5Z" fill="#151A6A"/>
</svg>
