<svg id="SvgjsSvg1011" width="288" height="288" xmlns="http://www.w3.org/2000/svg" version="1.1" xmlns:xlink="http://www.w3.org/1999/xlink" xmlns:svgjs="http://svgjs.com/svgjs"><defs id="SvgjsDefs1012"></defs><g id="SvgjsG1013"><svg xmlns="http://www.w3.org/2000/svg" data-name="Layer 1" viewBox="0 0 24 24" width="288" height="288"><path d="M12.64648,16.64648,17.293,12,12.64648,7.35352a.5.5,0,0,1,.707-.707l5,5a.49983.49983,0,0,1,0,.707l-5,5a.5.5,0,0,1-.707-.707Zm-7,.707a.49984.49984,0,0,0,.707,0l5-5a.49983.49983,0,0,0,0-.707l-5-5a.5.5,0,0,0-.707.707L10.293,12,5.64648,16.64648A.49983.49983,0,0,0,5.64648,17.35352Z" fill="#919191" class="color000 svgShape"></path></svg></g></svg>