<?xml version="1.0" encoding="utf-8"?>
<!-- Generator: Adobe Illustrator 24.1.3, SVG Export Plug-In . SVG Version: 6.00 Build 0)  -->
<svg version="1.1" xmlns="http://www.w3.org/2000/svg" xmlns:xlink="http://www.w3.org/1999/xlink" x="0px" y="0px"
	 viewBox="0 0 24 24" style="enable-background:new 0 0 24 24;" xml:space="preserve">
<g id="Design_here">
	<g>
		<path d="M21,21.5c-0.13,0-0.26-0.05-0.35-0.15l-18-18c-0.2-0.2-0.2-0.51,0-0.71s0.51-0.2,0.71,0l18,18c0.2,0.2,0.2,0.51,0,0.71
			C21.26,21.45,21.13,21.5,21,21.5z"/>
	</g>
	<g>
		<path d="M3,21.5c-0.13,0-0.26-0.05-0.35-0.15c-0.2-0.2-0.2-0.51,0-0.71l18-18c0.2-0.2,0.51-0.2,0.71,0s0.2,0.51,0,0.71l-18,18
			C3.26,21.45,3.13,21.5,3,21.5z"/>
	</g>
</g>
<g id="Guide">
</g>
</svg>
