<svg xmlns="http://www.w3.org/2000/svg" viewBox="0 0 64 64"><title>64-15</title><g id="Board"><path d="M57,11a1,1,0,0,0,1-1V6a1,1,0,0,0-1-1H36V4a4,4,0,0,0-8,0V5H7A1,1,0,0,0,6,6v4a1,1,0,0,0,1,1H9V37H7a1,1,0,0,0-1,1v4a1,1,0,0,0,1,1H28V56a2.0023,2.0023,0,0,1-2,2,3.0033,3.0033,0,0,0-3,3v1H7a1,1,0,0,0,0,2H57a1,1,0,0,0,0-2H41V61a3.0033,3.0033,0,0,0-3-3,2.0023,2.0023,0,0,1-2-2V43H57a1,1,0,0,0,1-1V38a1,1,0,0,0-1-1H55V11ZM30,4a2,2,0,0,1,4,0V5H30ZM8,7H56V9H8ZM25,62V61a1.0009,1.0009,0,0,1,1-1H38a1.0009,1.0009,0,0,1,1,1v1Zm9.5371-4H29.4629A3.9714,3.9714,0,0,0,30,56V43h4V56A3.9714,3.9714,0,0,0,34.5371,58ZM56,41H8V39H56Zm-3-4H11V11H53Z" style="fill:#1b1a1e"/><path d="M14,15H50a1,1,0,0,0,0-2H14a1,1,0,0,0,0,2Z" style="fill:#1b1a1e"/><path d="M14,19H29a1,1,0,0,0,0-2H14a1,1,0,0,0,0,2Z" style="fill:#1b1a1e"/><path d="M46,18a1,1,0,0,0-1-1H33a1,1,0,0,0,0,2H45A1,1,0,0,0,46,18Z" style="fill:#1b1a1e"/><path d="M14,23h9a1,1,0,0,0,0-2H14a1,1,0,0,0,0,2Z" style="fill:#1b1a1e"/><path d="M14,27H50a1,1,0,0,0,0-2H14a1,1,0,0,0,0,2Z" style="fill:#1b1a1e"/><path d="M14,31H35a1,1,0,0,0,0-2H14a1,1,0,0,0,0,2Z" style="fill:#1b1a1e"/><path d="M40,33H23a1,1,0,0,0,0,2H40a1,1,0,0,0,0-2Z" style="fill:#1b1a1e"/><path d="M46,29H39a1,1,0,0,0,0,2h7a1,1,0,0,0,0-2Z" style="fill:#1b1a1e"/><path d="M27,21a1,1,0,0,0,0,2h7a1,1,0,0,0,0-2Z" style="fill:#1b1a1e"/><path d="M14,35h5a1,1,0,0,0,0-2H14a1,1,0,0,0,0,2Z" style="fill:#1b1a1e"/></g></svg>