<svg xmlns="http://www.w3.org/2000/svg" viewBox="0 0 64 64"><title>64-11</title><g id="Rubber"><path d="M60.2915,14.8774,49.1226,3.7085a5.8365,5.8365,0,0,0-8.2452,0L37,7.5859,35.707,6.293a.9994.9994,0,0,0-1.414,0l-28,28a.9994.9994,0,0,0,0,1.414L7.5859,37,3.7085,40.8774a5.8365,5.8365,0,0,0,0,8.2452L14.8774,60.2915a5.8364,5.8364,0,0,0,8.2452,0L27,56.4141l1.293,1.2929a.9994.9994,0,0,0,1.414,0l28-28a.9994.9994,0,0,0,0-1.414L56.4141,27l3.8774-3.8774A5.8365,5.8365,0,0,0,60.2915,14.8774Zm-38.583,44a3.8352,3.8352,0,0,1-5.417,0L5.1226,47.7085a3.8352,3.8352,0,0,1,0-5.417L9,38.4141,25.5859,55ZM29,55.5859,8.4141,35,11,32.4141,31.5859,53Zm4-4L12.4141,31,31,12.4141,51.5859,33Zm20-20L32.4141,11,35,8.4141,55.5859,29Zm5.8774-9.8774L55,25.5859,38.4141,9l3.8774-3.8774a3.8352,3.8352,0,0,1,5.417,0L58.8774,16.2915A3.8352,3.8352,0,0,1,58.8774,21.7085Z" style="fill:#1b1a1e"/><path d="M24,32a8,8,0,1,0,8-8A8.0092,8.0092,0,0,0,24,32Zm8-6a6,6,0,1,1-6,6A6.0066,6.0066,0,0,1,32,26Z" style="fill:#1b1a1e"/></g></svg>