<svg xmlns="http://www.w3.org/2000/svg" viewBox="0 0 64 64"><title>64-1</title><g id="Ruler"><path d="M62.707,17.293l-16-16a.9994.9994,0,0,0-1.414,0l-44,44a.9994.9994,0,0,0,0,1.414l16,16a.9995.9995,0,0,0,1.414,0l44-44A.9994.9994,0,0,0,62.707,17.293ZM3.4141,46,6,43.4141,7.293,44.707a1,1,0,0,0,1.414-1.414L7.4141,42,9,40.4141l1.293,1.2929a1,1,0,0,0,1.414-1.414L10.4141,39,12,37.4141l1.293,1.2929a1,1,0,0,0,1.414-1.414L13.4141,36,15,34.4141l1.293,1.2929a1,1,0,0,0,1.414-1.414L16.4141,33,18,31.4141l1.293,1.2929a1,1,0,0,0,1.414-1.414L19.4141,30,21,28.4141l1.293,1.2929a1,1,0,0,0,1.414-1.414L22.4141,27,24,25.4141l1.293,1.2929a1,1,0,0,0,1.414-1.414L25.4141,24,27,22.4141l1.293,1.2929a1,1,0,0,0,1.414-1.414L28.4141,21,30,19.4141l1.293,1.2929a1,1,0,0,0,1.414-1.414L31.4141,18,33,16.4141l1.293,1.2929a1,1,0,0,0,1.414-1.414L34.4141,15,36,13.4141l1.293,1.2929a1,1,0,0,0,1.414-1.414L37.4141,12,39,10.4141l1.293,1.2929a1,1,0,0,0,1.414-1.414L40.4141,9,42,7.4141,43.293,8.707a1,1,0,0,0,1.414-1.414L43.4141,6,46,3.4141,50.0859,7.5,7.5,50.0859ZM18,60.5859,8.9141,51.5,51.5,8.9141,60.5859,18Z" style="fill:#1b1a1e"/><path d="M49.5,15.5a4,4,0,1,0,4,4A4.0045,4.0045,0,0,0,49.5,15.5Zm0,6a2,2,0,1,1,2-2A2.002,2.002,0,0,1,49.5,21.5Z" style="fill:#1b1a1e"/></g></svg>