<svg xmlns="http://www.w3.org/2000/svg" viewBox="0 0 64 64"><title>64-19</title><g id="Sharpener"><path d="M24.707,20.293a.9994.9994,0,0,0-1.414,0l-5.5,5.5a1.0007,1.0007,0,0,0-.2832.8481A6.1018,6.1018,0,0,1,15.793,31.793l-4,4A6.1114,6.1114,0,0,1,6.6416,37.51a1.0013,1.0013,0,0,0-.8486.2827l-5.5,5.5a.9994.9994,0,0,0,0,1.414l19,19a.9995.9995,0,0,0,1.414,0l5.5-5.5a1.0007,1.0007,0,0,0,.2832-.8481A6.1018,6.1018,0,0,1,28.207,52.207l4-4A6.11,6.11,0,0,1,37.3584,46.49a.9922.9922,0,0,0,.8486-.2827l5.5-5.5a.9994.9994,0,0,0,0-1.414ZM37.0859,35.5,22.793,49.793a6,6,0,0,1-2.71,1.5388L36.5,34.9141Zm-2-2L17.1776,51.4088A6.0574,6.0574,0,0,1,14.207,41.207L28.5,26.9141Zm2.0459,10.9541A8.0949,8.0949,0,0,0,30.793,46.793l-4,4a8.1126,8.1126,0,0,0-2.3389,6.3388L20,61.5859,2.4141,44l4.4541-4.4541A8.1121,8.1121,0,0,0,13.207,37.207l4-4a8.1126,8.1126,0,0,0,2.3389-6.3388L24,22.4141,27.0859,25.5,12.793,39.793A8.0709,8.0709,0,0,0,24.207,51.207L38.5,36.9141,41.5859,40Z" style="fill:#1b1a1e"/><path d="M21,37a4,4,0,1,0,4,4A4.0042,4.0042,0,0,0,21,37Zm-2,4a1.9933,1.9933,0,0,1,1-1.7217v3.4434A1.9933,1.9933,0,0,1,19,41Zm3,1.7217V39.2783a1.9821,1.9821,0,0,1,0,3.4434Z" style="fill:#1b1a1e"/><path d="M63.707,8.293a.9994.9994,0,0,0-1.414,0L47,23.5857,44.4141,21,59.707,5.707a1,1,0,1,0-1.414-1.414L43,19.5859,40.4141,17,55.707,1.707A1,1,0,0,0,54.293.293l-16,16a1.1833,1.1833,0,0,0-.2735.5107l-2,10a1,1,0,0,0,1.1768,1.1768l10-2a1.1907,1.1907,0,0,0,.5107-.2735l16-16A.9994.9994,0,0,0,63.707,8.293ZM39.6139,19.028l5.3577,5.3577-6.6972,1.3394Z" style="fill:#1b1a1e"/></g></svg>