<svg xmlns="http://www.w3.org/2000/svg" viewBox="0 0 64 64"><title>64-10</title><g id="Calculator"><path d="M50,2H14A5.0059,5.0059,0,0,0,9,7V57a5.0059,5.0059,0,0,0,5,5H50a5.0059,5.0059,0,0,0,5-5V7A5.0059,5.0059,0,0,0,50,2Zm3,55a3.0033,3.0033,0,0,1-3,3H14a3.0033,3.0033,0,0,1-3-3V7a3.0033,3.0033,0,0,1,3-3H50a3.0033,3.0033,0,0,1,3,3Z" style="fill:#1b1a1e"/><path d="M50,6H14a1,1,0,0,0-1,1V17a1,1,0,0,0,1,1H50a1,1,0,0,0,1-1V7A1,1,0,0,0,50,6ZM49,16H15V8H49Z" style="fill:#1b1a1e"/><path d="M17,20a4,4,0,1,0,4,4A4.0042,4.0042,0,0,0,17,20Zm0,6a2,2,0,1,1,2-2A2.0023,2.0023,0,0,1,17,26Z" style="fill:#1b1a1e"/><path d="M27,20a4,4,0,1,0,4,4A4.0042,4.0042,0,0,0,27,20Zm0,6a2,2,0,1,1,2-2A2.0023,2.0023,0,0,1,27,26Z" style="fill:#1b1a1e"/><path d="M17,30a4,4,0,1,0,4,4A4.0042,4.0042,0,0,0,17,30Zm0,6a2,2,0,1,1,2-2A2.0023,2.0023,0,0,1,17,36Z" style="fill:#1b1a1e"/><path d="M27,30a4,4,0,1,0,4,4A4.0042,4.0042,0,0,0,27,30Zm0,6a2,2,0,1,1,2-2A2.0023,2.0023,0,0,1,27,36Z" style="fill:#1b1a1e"/><path d="M37,30a4,4,0,1,0,4,4A4.0042,4.0042,0,0,0,37,30Zm0,6a2,2,0,1,1,2-2A2.0023,2.0023,0,0,1,37,36Z" style="fill:#1b1a1e"/><path d="M17,40a4,4,0,1,0,4,4A4.0042,4.0042,0,0,0,17,40Zm0,6a2,2,0,1,1,2-2A2.0023,2.0023,0,0,1,17,46Z" style="fill:#1b1a1e"/><path d="M27,40a4,4,0,1,0,4,4A4.0042,4.0042,0,0,0,27,40Zm0,6a2,2,0,1,1,2-2A2.0023,2.0023,0,0,1,27,46Z" style="fill:#1b1a1e"/><path d="M37,40a4,4,0,1,0,4,4A4.0042,4.0042,0,0,0,37,40Zm0,6a2,2,0,1,1,2-2A2.0023,2.0023,0,0,1,37,46Z" style="fill:#1b1a1e"/><path d="M17,50.0034h-.001a4,4,0,0,0,.001,8h.001a4,4,0,0,0-.001-8Zm.001,6H17a2,2,0,0,1-.001-4H17a2,2,0,0,1,.001,4Z" style="fill:#1b1a1e"/><path d="M26.999,50.001a4,4,0,0,0,.001,8h.001a4,4,0,0,0-.002-8Zm.002,6H27a2,2,0,1,1,.001,0Z" style="fill:#1b1a1e"/><path d="M37,49.999h-.001a4.002,4.002,0,1,0,.001,0Zm.001,6a2,2,0,0,1-.002-4H37a2,2,0,0,1,.001,4Z" style="fill:#1b1a1e"/><path d="M50,30H44a1,1,0,0,0-1,1V57a1,1,0,0,0,1,1h6a1,1,0,0,0,1-1V31A1,1,0,0,0,50,30ZM49,56H45V32h4Z" style="fill:#1b1a1e"/><path d="M50,20H34a1,1,0,0,0-1,1v6a1,1,0,0,0,1,1H50a1,1,0,0,0,1-1V21A1,1,0,0,0,50,20Zm-1,6H35V22H49Z" style="fill:#1b1a1e"/><path d="M17,15a1,1,0,0,0,1-1V10a1,1,0,0,0-2,0v4A1,1,0,0,0,17,15Z" style="fill:#1b1a1e"/><path d="M20,15a1,1,0,0,0,1-1V10a1,1,0,0,0-2,0v4A1,1,0,0,0,20,15Z" style="fill:#1b1a1e"/><path d="M23,15a1,1,0,0,0,1-1V10a1,1,0,0,0-2,0v4A1,1,0,0,0,23,15Z" style="fill:#1b1a1e"/></g></svg>