<svg xmlns="http://www.w3.org/2000/svg" viewBox="0 0 64 64"><title>64-18</title><g id="Dossier"><circle cx="23" cy="8" r="1" style="fill:#1b1a1e"/><circle cx="23" cy="26" r="1" style="fill:#1b1a1e"/><path d="M64,55V23a1,1,0,0,0-1-1H35a1,1,0,0,0-1,1V63a1,1,0,0,0,1,1H55a1.0034,1.0034,0,0,0,.707-.293l8-8A1.1178,1.1178,0,0,0,64,55ZM36,24H62V54H55a1,1,0,0,0-1,1v7H36ZM56,60.5859V56h4.5859Z" style="fill:#1b1a1e"/><path d="M39,44H59a1,1,0,0,0,0-2H39a1,1,0,0,0,0,2Z" style="fill:#1b1a1e"/><path d="M39,48H59a1,1,0,0,0,0-2H39a1,1,0,0,0,0,2Z" style="fill:#1b1a1e"/><path d="M39,52H59a1,1,0,0,0,0-2H39a1,1,0,0,0,0,2Z" style="fill:#1b1a1e"/><path d="M39,56H51a1,1,0,0,0,0-2H39a1,1,0,0,0,0,2Z" style="fill:#1b1a1e"/><path d="M51,58H39a1,1,0,0,0,0,2H51a1,1,0,0,0,0-2Z" style="fill:#1b1a1e"/><path d="M39,40H59a1,1,0,0,0,0-2H39a1,1,0,0,0,0,2Z" style="fill:#1b1a1e"/><path d="M39,36H59a1,1,0,0,0,0-2H39a1,1,0,0,0,0,2Z" style="fill:#1b1a1e"/><path d="M39,32H59a1,1,0,0,0,0-2H39a1,1,0,0,0,0,2Z" style="fill:#1b1a1e"/><path d="M39,28H59a1,1,0,0,0,0-2H39a1,1,0,0,0,0,2Z" style="fill:#1b1a1e"/><path d="M5.7073,59.7067,11.4141,54H31a1,1,0,0,0,0-2H24V29.858A3.9963,3.9963,0,0,0,27,26V16h8a.9983.9983,0,0,0,.8135-.4189L40,9.72V19a1,1,0,0,0,2,0V6.92l2-2.8V19a1,1,0,0,0,2,0V1a1.0152,1.0152,0,0,0-1-1H1A1.015,1.015,0,0,0,0,1V63a1.0012,1.0012,0,0,0,1,1H31a1,1,0,0,0,0-2H3.4141l2.2926-2.2927ZM11,52a1,1,0,0,0-.707.293L6,56.5859V9.7206l4.186,5.8605A1,1,0,0,0,11,16h8V26a3.9963,3.9963,0,0,0,3,3.858V52ZM21,11.4435a3.8721,3.8721,0,0,0,4,0V14H21ZM21,8a2,2,0,1,1,2,2A2.002,2.002,0,0,1,21,8Zm1,8v6.142a3.9569,3.9569,0,0,0-1,.4145V16Zm1,12a2,2,0,1,1,2-2A2.002,2.002,0,0,1,23,28Zm2-5.4435a3.9569,3.9569,0,0,0-1-.4145V16h1ZM43.0566,2,34.4854,14H27V8a4,4,0,0,0-8,0v6H11.5146L2.9434,2ZM2,60.5859V4.1206l2,2.8V58.5859Z" style="fill:#1b1a1e"/></g></svg>