<svg xmlns="http://www.w3.org/2000/svg" viewBox="0 0 64 64"><title>64-17</title><g id="Measuring_Tape" data-name="Measuring Tape"><path d="M63,40H37V39a1,1,0,0,0-1-1h-3.52a16.9644,16.9644,0,0,0,1.4711-6.1023,4.5486,4.5486,0,0,0,2.6275-1.62,4.6506,4.6506,0,0,0,.8975-3.9555,20.8583,20.8583,0,0,0-2.0933-5.4746,4.7168,4.7168,0,0,0-3.2715-2.36,4.6681,4.6681,0,0,0-3.1.4938A16.9966,16.9966,0,1,0,17,48H36a1,1,0,0,0,1-1V46H62v3a1,1,0,0,0,2,0V41A1,1,0,0,0,63,40ZM31.7461,20.4541a2.7246,2.7246,0,0,1,1.8882,1.3628,18.8547,18.8547,0,0,1,1.8921,4.95,2.66,2.66,0,0,1-.51,2.2637,2.5679,2.5679,0,0,1-1.0571.7866,17.259,17.259,0,0,0-3.5469-9.2749A2.6817,2.6817,0,0,1,31.7461,20.4541ZM35,46H17a15.0348,15.0348,0,1,1,12.9766-7.5015A1,1,0,0,0,30.8418,40H35Zm2-2V42H62v2Z" style="fill:#1b1a1e"/><path d="M28,31A11,11,0,1,0,17,42,11.0248,11.0248,0,0,0,28,31Zm-2.0431.85a9.0685,9.0685,0,0,1-.482,2.15H8.5251A9.0263,9.0263,0,0,1,8,31a9.1482,9.1482,0,0,1,.5251-3h16.95A8.8918,8.8918,0,0,1,26,31C26,31.287,25.9833,31.57,25.9569,31.85ZM17,22a8.9977,8.9977,0,0,1,7.4781,4H9.5219A8.9977,8.9977,0,0,1,17,22Zm0,18a8.9977,8.9977,0,0,1-7.4781-4H24.4781A8.9977,8.9977,0,0,1,17,40Z" style="fill:#1b1a1e"/></g></svg>