<svg xmlns="http://www.w3.org/2000/svg" viewBox="0 0 64 64"><title>64-16</title><g id="Crayon"><path d="M52,0H12A7.0078,7.0078,0,0,0,5,7V59a5.0059,5.0059,0,0,0,5,5H54a5.0059,5.0059,0,0,0,5-5V7A7.0078,7.0078,0,0,0,52,0ZM12,2H52a5.0059,5.0059,0,0,1,5,5V32H53V19a1,1,0,0,0-1-1h-.2792L48.3877,8.001a1.4631,1.4631,0,0,0-2.7759.0005L42.2791,18h-.5583L38.3877,8.001a1.4631,1.4631,0,0,0-2.7759.0005L32.2791,18h-.5583L28.3877,8.001a1.4631,1.4631,0,0,0-2.7759.0005L22.2791,18h-.5583L18.3877,8.001a1.4631,1.4631,0,0,0-2.7759.0005L12.2791,18H12a1,1,0,0,0-1,1V32H7V7A5.0059,5.0059,0,0,1,12,2ZM33,32V28h8v4ZM23,32V28h8v4ZM13,32V28h8v4Zm10-8h8v2H23Zm-2,2H13V24h8Zm12-2h8v2H33Zm10,0h8v2H43Zm0-4h8v2H43Zm1.3872-2L47,10.1616,49.6128,18ZM33,20h8v2H33Zm1.3872-2L37,10.1616,39.6128,18ZM23,20h8v2H23Zm1.3872-2L27,10.1616,29.6128,18ZM13,20h8v2H13Zm1.3872-2L17,10.1616,19.6128,18ZM43,28h8v4H43ZM54,62H10a2.995,2.995,0,0,1-2.8157-2H23a1,1,0,0,0,0-2H7V34H57V58H41a1,1,0,0,0,0,2H56.8157A2.995,2.995,0,0,1,54,62Z" style="fill:#1b1a1e"/><path d="M45,44a4,4,0,0,0,0-8H19a4,4,0,0,0,0,8Zm2-4a2.002,2.002,0,0,1-2,2H43V38h2A2.002,2.002,0,0,1,47,40Zm-6,2H33V38h8ZM17,40a2.002,2.002,0,0,1,2-2h2v4H19A2.002,2.002,0,0,1,17,40Zm6-2h8v4H23Z" style="fill:#1b1a1e"/><path d="M36,58H28a1,1,0,0,0,0,2h8a1,1,0,0,0,0-2Z" style="fill:#1b1a1e"/></g></svg>