<svg xmlns="http://www.w3.org/2000/svg" viewBox="0 0 64 64"><title>64-29</title><g id="Projector"><path d="M63,40H51V37h1a5.0059,5.0059,0,0,0,5-5V25a5.0059,5.0059,0,0,0-5-5H50.9A11.9871,11.9871,0,0,0,29.1,20H12a5.0059,5.0059,0,0,0-5,5v7a5.0059,5.0059,0,0,0,5,5h1v3H1a1,1,0,0,0-1,1v5a1,1,0,0,0,1,1H3V62a1,1,0,0,0,2,0V47H8V62a1,1,0,0,0,2,0V55H54v7a1,1,0,0,0,2,0V47h3V62a1,1,0,0,0,2,0V47h2a1,1,0,0,0,1-1V41A1,1,0,0,0,63,40ZM49,40H43V37h6ZM23,40V37H41v3Zm17-9a6,6,0,1,1,6-6A6.0134,6.0134,0,0,1,40,31Zm-6.9287-2H9V27H32.2568A8.2085,8.2085,0,0,0,33.0713,29Zm14.6719-2H55v2H46.9287A8.49,8.49,0,0,0,47.7432,27ZM12,22H29.7617a1,1,0,0,0,.9317-.6357,9.9867,9.9867,0,0,1,18.6132,0A1,1,0,0,0,50.2383,22H52a3.0033,3.0033,0,0,1,3,3H48a8,8,0,0,0-16,0H9A3.0033,3.0033,0,0,1,12,22ZM9,32V31H34.7263a7.953,7.953,0,0,0,10.5474,0H55v1a3.0033,3.0033,0,0,1-3,3H12A3.0033,3.0033,0,0,1,9,32Zm6,5h6v3H15ZM54,53H10V47H54Zm8-8H2V42H62Z" style="fill:#1b1a1e"/><path d="M30,51h4a1,1,0,0,0,0-2H30a1,1,0,0,0,0,2Z" style="fill:#1b1a1e"/><path d="M40,20a5.0059,5.0059,0,0,0-5,5,1,1,0,0,0,2,0,3.0033,3.0033,0,0,1,3-3,1,1,0,0,0,0-2Z" style="fill:#1b1a1e"/><path d="M19,34a1,1,0,0,0,0-2H14a1,1,0,0,0,0,2Z" style="fill:#1b1a1e"/><path d="M22,34h1a1,1,0,0,0,0-2H22a1,1,0,0,0,0,2Z" style="fill:#1b1a1e"/><path d="M40,11a1,1,0,0,0,1-1V2a1,1,0,0,0-2,0v8A1,1,0,0,0,40,11Z" style="fill:#1b1a1e"/><path d="M43.623,11.4766a1,1,0,0,0,1.2247-.7071l1.0361-3.8632a1,1,0,1,0-1.9317-.5176L42.916,10.252A1,1,0,0,0,43.623,11.4766Z" style="fill:#1b1a1e"/><path d="M49.8994,15.1006a1,1,0,0,0,1.4141,0l2.8281-2.8281a1,1,0,1,0-1.4141-1.4141l-2.8281,2.8281A1,1,0,0,0,49.8994,15.1006Z" style="fill:#1b1a1e"/><path d="M47,12.876a1.0007,1.0007,0,0,0,1.3662-.3662l4-6.9287a1,1,0,1,0-1.7324-1l-4,6.9287A1,1,0,0,0,47,12.876Z" style="fill:#1b1a1e"/><path d="M35.1523,10.77a1,1,0,1,0,1.9317-.5175L36.0479,6.3887a1,1,0,1,0-1.9317.5176Z" style="fill:#1b1a1e"/><path d="M28.6865,15.1006a1,1,0,0,0,1.4141-1.4141l-2.8281-2.8281a1,1,0,1,0-1.4141,1.4141Z" style="fill:#1b1a1e"/><path d="M31.6338,12.51a1,1,0,1,0,1.7324-1l-4-6.9287a1,1,0,1,0-1.7324,1Z" style="fill:#1b1a1e"/></g></svg>