<svg xmlns="http://www.w3.org/2000/svg" viewBox="0 0 64 64"><title>64-25</title><g id="HDD"><path d="M14,50a3,3,0,1,0-3-3A3.0033,3.0033,0,0,0,14,50Zm0-4a1,1,0,1,1-1,1A1.0006,1.0006,0,0,1,14,46Z" style="fill:#1b1a1e"/><path d="M61,28V20a1,1,0,0,0-1-1H48a1,1,0,0,0-1,1v8a1,1,0,0,0-1,1V45a1,1,0,0,0,1,1h6v9a7.0085,7.0085,0,0,1-7,7H18a3.0033,3.0033,0,0,1-3-3h3a1,1,0,0,0,1-1V54H35a3.0033,3.0033,0,0,0,3-3V47.8157A2.995,2.995,0,0,0,40,45V7a7.0085,7.0085,0,0,0-7-7H9A7.0085,7.0085,0,0,0,2,7V45a2.995,2.995,0,0,0,2,2.8157V51a3.0033,3.0033,0,0,0,3,3H9v4a1,1,0,0,0,1,1h3a5.0059,5.0059,0,0,0,5,5H46a9.01,9.01,0,0,0,9-9V46h6a1,1,0,0,0,1-1V29A1,1,0,0,0,61,28ZM4,7A5.0059,5.0059,0,0,1,9,2H33a5.0059,5.0059,0,0,1,5,5V45a1.0006,1.0006,0,0,1-1,1H20.9287A7.0006,7.0006,0,0,0,7.0713,46H5a1.0006,1.0006,0,0,1-1-1ZM6,51V48H8a1,1,0,0,0,1-1,5,5,0,0,1,10,0,1,1,0,0,0,1,1H36v3a1.0006,1.0006,0,0,1-1,1H7A1.0006,1.0006,0,0,1,6,51Zm5,6V54h6v3ZM49,21H59v7H49ZM60,44H48V30H60Z" style="fill:#1b1a1e"/><path d="M52,22a1,1,0,0,0-1,1v3a1,1,0,0,0,2,0V23A1,1,0,0,0,52,22Z" style="fill:#1b1a1e"/><path d="M56,22a1,1,0,0,0-1,1v3a1,1,0,0,0,2,0V23A1,1,0,0,0,56,22Z" style="fill:#1b1a1e"/><path d="M21,35a3.0033,3.0033,0,0,0,3-3V10a3,3,0,0,0-6,0V32A3.0033,3.0033,0,0,0,21,35ZM20,10a1,1,0,0,1,2,0V32a1,1,0,0,1-2,0Z" style="fill:#1b1a1e"/></g></svg>