<svg xmlns="http://www.w3.org/2000/svg" viewBox="0 0 64 64"><title>64-2</title><g id="GD"><path d="M1.707.293A1,1,0,0,0,0,1V63a1,1,0,0,0,1,1H63a1,1,0,0,0,.707-1.707ZM53,62V60a1,1,0,0,0-2,0v2H48V60a1,1,0,0,0-2,0v2H43V60a1,1,0,0,0-2,0v2H38V60a1,1,0,0,0-2,0v2H33V60a1,1,0,0,0-2,0v2H28V60a1,1,0,0,0-2,0v2H23V60a1,1,0,0,0-2,0v2H18V60a1,1,0,0,0-2,0v2H13V60a1,1,0,0,0-2,0v2H2V53H4a1,1,0,0,0,0-2H2V48H4a1,1,0,0,0,0-2H2V43H4a1,1,0,0,0,0-2H2V38H4a1,1,0,0,0,0-2H2V33H4a1,1,0,0,0,0-2H2V28H4a1,1,0,0,0,0-2H2V23H4a1,1,0,0,0,0-2H2V18H4a1,1,0,0,0,0-2H2V13H4a1,1,0,0,0,0-2H2V3.4141L60.5859,62Z" style="fill:#1b1a1e"/><path d="M9,56H43a1,1,0,0,0,.707-1.707l-34-34A1,1,0,0,0,8,21V55A1.004,1.004,0,0,0,9,56Zm31.5859-2H22.4141l6.9629-6.9629a1,1,0,0,0-1.4141-1.4141L19.5859,54H11.4141L23.877,41.5371a1,1,0,0,0-1.4141-1.4141L10,52.5859V44.4141l8.377-8.377a1,1,0,0,0-1.4141-1.4141L10,41.5859V23.4141Z" style="fill:#1b1a1e"/><path d="M30.0371,24.377,49,5.4143,53.0859,9.5,34.123,28.4629a1,1,0,0,0,1.4141,1.4141L54.5,10.9141,58.5857,15,39.623,33.9629a1,1,0,0,0,1.4141,1.4141l19.67-19.67a1.2056,1.2056,0,0,0,.271-.4975l3-14A1.0006,1.0006,0,0,0,62.7905.022l-14,3a1.2078,1.2078,0,0,0-.4975.271l-19.67,19.67a1,1,0,0,0,1.4141,1.4141Zm29.37-11.3838-8.4-8.4,10.6914-2.291Z" style="fill:#1b1a1e"/></g></svg>