<svg xmlns="http://www.w3.org/2000/svg" viewBox="0 0 64 64"><title>64-24</title><g id="Time_Alarm" data-name="Time Alarm"><path d="M63,42H49.535l-5.21-7.81A15.926,15.926,0,0,0,48,24c0-.2289-.0248-.4517-.0344-.6783A6.9817,6.9817,0,1,0,41.359,11.05,15.9174,15.9174,0,0,0,36,8.5266V6h3a1,1,0,0,0,1-1V1a1,1,0,0,0-1-1H25a1,1,0,0,0-1,1V5a1,1,0,0,0,1,1h3V8.5266A15.9174,15.9174,0,0,0,22.641,11.05a6.98,6.98,0,1,0-6.6066,12.2714c-.01.2266-.0344.4494-.0344.6783a15.926,15.926,0,0,0,3.6747,10.19L14.465,42H1a1,1,0,0,0-1,1v5a1,1,0,0,0,1,1H3V63a1,1,0,0,0,2,0V49H8V63a1,1,0,0,0,2,0V57H54v6a1,1,0,0,0,2,0V49h3V63a1,1,0,0,0,2,0V49h2a1,1,0,0,0,1-1V43A1,1,0,0,0,63,42ZM32,40a15.9245,15.9245,0,0,0,4.3768-.6237L38.13,42H25.87l1.7528-2.6237A15.9245,15.9245,0,0,0,32,40Zm6.3262-1.3057A16.506,16.506,0,0,0,42.92,35.6865L47.1309,42H40.5342Zm4.6963-26.2851a5,5,0,0,1,4.7246,8.7695A16.4258,16.4258,0,0,0,43.0225,12.4092ZM26,2H38V4H26Zm4,6.1221V6h4V8.1221A19.8566,19.8566,0,0,0,32,8,19.4057,19.4057,0,0,0,30,8.1221ZM16.2529,21.1787a4.9994,4.9994,0,0,1,4.7246-8.7695A16.3787,16.3787,0,0,0,16.2529,21.1787ZM32,10.0181A13.991,13.991,0,1,1,18,24,13.9969,13.9969,0,0,1,32,10.0181ZM21.08,35.6865a16.5226,16.5226,0,0,0,4.5937,3.0078L23.4658,42H16.8691ZM54,55H10V49H54Zm8-8H2V44H62Z" style="fill:#1b1a1e"/><path d="M30,53h4a1,1,0,0,0,0-2H30a1,1,0,0,0,0,2Z" style="fill:#1b1a1e"/><path d="M32,37A13,13,0,1,0,19,24,13.015,13.015,0,0,0,32,37Zm0-24A11,11,0,1,1,21,24,11.0125,11.0125,0,0,1,32,13Z" style="fill:#1b1a1e"/><path d="M53,17a1,1,0,0,0,2,0,9.9407,9.9407,0,0,0-3.88-7.9092,1,1,0,0,0-1.2246,1.5811A7.9545,7.9545,0,0,1,53,17Z" style="fill:#1b1a1e"/><path d="M56,17a1,1,0,0,0,2,0A12.9147,12.9147,0,0,0,52.957,6.72a1,1,0,0,0-1.2246,1.5821A10.927,10.927,0,0,1,56,17Z" style="fill:#1b1a1e"/><path d="M9,17a1,1,0,0,0,2,0,7.9545,7.9545,0,0,1,3.1045-6.3281A1,1,0,0,0,12.88,9.0908,9.9407,9.9407,0,0,0,9,17Z" style="fill:#1b1a1e"/><path d="M7,18a1,1,0,0,0,1-1,10.927,10.927,0,0,1,4.2676-8.6982A1,1,0,0,0,11.043,6.72,12.9147,12.9147,0,0,0,6,17,1,1,0,0,0,7,18Z" style="fill:#1b1a1e"/><path d="M34.293,27.707a1,1,0,0,0,1.414-1.414L33,23.5859V20a1,1,0,0,0-2,0v4a.9993.9993,0,0,0,.293.707Z" style="fill:#1b1a1e"/><path d="M32,17a1,1,0,0,0,1-1V15a1,1,0,0,0-2,0v1A1,1,0,0,0,32,17Z" style="fill:#1b1a1e"/><path d="M25.6357,19.05A1,1,0,1,0,27.05,17.6357l-.707-.707a1,1,0,0,0-1.4141,1.4141Z" style="fill:#1b1a1e"/><path d="M25,24a1,1,0,0,0-1-1H23a1,1,0,0,0,0,2h1A1,1,0,0,0,25,24Z" style="fill:#1b1a1e"/><path d="M25.6357,28.95l-.707.707a1,1,0,0,0,1.4141,1.4141l.707-.707A1,1,0,1,0,25.6357,28.95Z" style="fill:#1b1a1e"/><path d="M32,34a1,1,0,0,0,1-1V32a1,1,0,0,0-2,0v1A1,1,0,0,0,32,34Z" style="fill:#1b1a1e"/><path d="M37.6572,31.0713a1,1,0,0,0,1.4141-1.4141l-.707-.707A1,1,0,0,0,36.95,30.3643Z" style="fill:#1b1a1e"/><path d="M39,24a1,1,0,0,0,1,1h1a1,1,0,0,0,0-2H40A1,1,0,0,0,39,24Z" style="fill:#1b1a1e"/><path d="M38.3643,19.05l.707-.707a1,1,0,0,0-1.4141-1.4141l-.707.707A1,1,0,0,0,38.3643,19.05Z" style="fill:#1b1a1e"/></g></svg>