<svg xmlns="http://www.w3.org/2000/svg" viewBox="0 0 64 64"><title>64-27</title><g id="Book"><path d="M42,0H8A7.0081,7.0081,0,0,0,1,7V51a5.0059,5.0059,0,0,0,5,5H25v7a1,1,0,0,0,1.6.8L30,61.25l3.4,2.55A1,1,0,0,0,35,63V56h7a1,1,0,0,0,1-1V1A1,1,0,0,0,42,0ZM3,51V7A5.0083,5.0083,0,0,1,7,2.1011V54H6A3.0033,3.0033,0,0,1,3,51ZM33,61l-2.4-1.8a1,1,0,0,0-1.2,0L27,61V56h6Zm8-7H9V2H41Z" style="fill:#1b1a1e"/><path d="M14,18H36a1,1,0,0,0,1-1V7a1,1,0,0,0-1-1H14a1,1,0,0,0-1,1V17A1,1,0,0,0,14,18ZM15,8H35v8H15Z" style="fill:#1b1a1e"/><path d="M14,22H36a1,1,0,0,0,0-2H14a1,1,0,0,0,0,2Z" style="fill:#1b1a1e"/><path d="M14,26h8a1,1,0,0,0,0-2H14a1,1,0,0,0,0,2Z" style="fill:#1b1a1e"/><path d="M22,28H14a1,1,0,0,0,0,2h8a1,1,0,0,0,0-2Z" style="fill:#1b1a1e"/><path d="M62,22a3.0033,3.0033,0,0,1-3-3V10a4.0042,4.0042,0,0,0-4-4H53V1a1,1,0,0,0-1-1H48a1,1,0,0,0-1,1V6H46a1,1,0,0,0-1,1V53a1.0008,1.0008,0,0,0,.168.5547L49,59.3027V63a1,1,0,0,0,2,0V59.3027l3.832-5.748A1.0008,1.0008,0,0,0,55,53V8a2.0023,2.0023,0,0,1,2,2v9a5.0059,5.0059,0,0,0,5,5,1,1,0,0,0,0-2ZM47,17h6V43H47Zm0,28h6v2H47ZM49,2h2V6H49Zm4,6v7H47V8ZM50,57.1973l-3-4.5V49h6v3.6973Z" style="fill:#1b1a1e"/><path d="M50,21a1,1,0,0,0-1,1V38a1,1,0,0,0,2,0V22A1,1,0,0,0,50,21Z" style="fill:#1b1a1e"/></g></svg>