<svg xmlns="http://www.w3.org/2000/svg" viewBox="0 0 64 64"><title>64-22</title><g id="Router"><path d="M57,47h-.6224l6.16-12.1631a3.9986,3.9986,0,0,0-7.1343-3.6133L47.4156,47H42.6927l6.4982-24.2939A4.0015,4.0015,0,0,0,41.46,20.6387L34.4123,47H29.5877L22.54,20.6377a4.0014,4.0014,0,0,0-7.7309,2.0684L21.3073,47H16.5844L8.5967,31.2236a3.9986,3.9986,0,1,0-7.1343,3.6133L7.6224,47H7A7,7,0,0,0,7,61H57a7,7,0,0,0,0-14Zm.1875-14.8721a1.9983,1.9983,0,0,1,3.5659,1.8047L54.1357,47H49.6572ZM43.3916,21.1553a2.0017,2.0017,0,0,1,3.8677,1.0332L40.6226,47h-4.14ZM16.7407,22.1885a2.0016,2.0016,0,0,1,3.8672-1.0342L27.5176,47h-4.14ZM3.2466,33.9326a1.9983,1.9983,0,1,1,3.5659-1.8047L14.3428,47H9.8643ZM57,59H7A5,5,0,0,1,7,49H57a5,5,0,0,1,0,10Z" style="fill:#1b1a1e"/><path d="M57,51a3,3,0,1,0,3,3A3.0033,3.0033,0,0,0,57,51Zm0,4a1,1,0,1,1,1-1A1.0009,1.0009,0,0,1,57,55Z" style="fill:#1b1a1e"/><path d="M50,51a3,3,0,1,0,3,3A3.0033,3.0033,0,0,0,50,51Zm0,4a1,1,0,1,1,1-1A1.0009,1.0009,0,0,1,50,55Z" style="fill:#1b1a1e"/><path d="M43,51a3,3,0,1,0,3,3A3.0033,3.0033,0,0,0,43,51Zm0,4a1,1,0,1,1,1-1A1.0009,1.0009,0,0,1,43,55Z" style="fill:#1b1a1e"/><path d="M22,51H7a1,1,0,0,0,0,2H22a1,1,0,0,0,0-2Z" style="fill:#1b1a1e"/><path d="M14,55H7a1,1,0,0,0,0,2h7a1,1,0,0,0,0-2Z" style="fill:#1b1a1e"/><path d="M29,18a3,3,0,1,0,3-3A3.0033,3.0033,0,0,0,29,18Zm4,0a1,1,0,1,1-1-1A1.0009,1.0009,0,0,1,33,18Z" style="fill:#1b1a1e"/><path d="M36.9443,14.47a1,1,0,0,0,.0064-1.414,6.9892,6.9892,0,0,0-9.9014,0A1,1,0,0,0,28.47,14.4639a4.9875,4.9875,0,0,1,7.06,0A1,1,0,0,0,36.9443,14.47Z" style="fill:#1b1a1e"/><path d="M39.7769,11.6367a1,1,0,0,0,0-1.414,10.9948,10.9948,0,0,0-15.5538,0,1,1,0,1,0,1.4141,1.414,8.9956,8.9956,0,0,1,12.7256,0A1,1,0,0,0,39.7769,11.6367Z" style="fill:#1b1a1e"/><path d="M22.8057,8.8086a13.0022,13.0022,0,0,1,18.3886,0,1,1,0,0,0,1.4112-1.418,15.0041,15.0041,0,0,0-21.211,0,1,1,0,0,0,1.4112,1.418Z" style="fill:#1b1a1e"/></g></svg>