<svg xmlns="http://www.w3.org/2000/svg" viewBox="0 0 64 64"><title>64-26</title><g id="Telephone"><path d="M60,4H35.65A6.0048,6.0048,0,0,0,30,0H22a6.0048,6.0048,0,0,0-5.65,4H14a4.0042,4.0042,0,0,0-4,4V44a10,10,0,0,0,0,20H22a5.0059,5.0059,0,0,0,5-5V57h3a6.0048,6.0048,0,0,0,5.65-4H60a4.0042,4.0042,0,0,0,4-4V8A4.0042,4.0042,0,0,0,60,4ZM12,8a2.0023,2.0023,0,0,1,2-2h2V51H14a2.0023,2.0023,0,0,1-2-2ZM25,59a3.0033,3.0033,0,0,1-3,3H10a8,8,0,0,1,0-16v3a4.0042,4.0042,0,0,0,4,4h2.35A6.0048,6.0048,0,0,0,22,57h3Zm5-4H22a4.0042,4.0042,0,0,1-4-4V6a4.0042,4.0042,0,0,1,4-4h8a4.0042,4.0042,0,0,1,4,4V51A4.0042,4.0042,0,0,1,30,55Zm32-6a2.0023,2.0023,0,0,1-2,2H36V6H60a2.0023,2.0023,0,0,1,2,2Z" style="fill:#1b1a1e"/><path d="M49,35a3,3,0,1,0,3,3A3.0033,3.0033,0,0,0,49,35Zm0,4a1,1,0,1,1,1-1A1.0009,1.0009,0,0,1,49,39Z" style="fill:#1b1a1e"/><path d="M41,35a3,3,0,1,0,3,3A3.0033,3.0033,0,0,0,41,35Zm0,4a1,1,0,1,1,1-1A1.0009,1.0009,0,0,1,41,39Z" style="fill:#1b1a1e"/><path d="M57,35a3,3,0,1,0,3,3A3.0033,3.0033,0,0,0,57,35Zm0,4a1,1,0,1,1,1-1A1.0009,1.0009,0,0,1,57,39Z" style="fill:#1b1a1e"/><path d="M49,27a3,3,0,1,0,3,3A3.0033,3.0033,0,0,0,49,27Zm0,4a1,1,0,1,1,1-1A1.0009,1.0009,0,0,1,49,31Z" style="fill:#1b1a1e"/><path d="M41,27a3,3,0,1,0,3,3A3.0033,3.0033,0,0,0,41,27Zm0,4a1,1,0,1,1,1-1A1.0009,1.0009,0,0,1,41,31Z" style="fill:#1b1a1e"/><path d="M57,27a3,3,0,1,0,3,3A3.0033,3.0033,0,0,0,57,27Zm0,4a1,1,0,1,1,1-1A1.0009,1.0009,0,0,1,57,31Z" style="fill:#1b1a1e"/><path d="M49,43a3,3,0,1,0,3,3A3.0033,3.0033,0,0,0,49,43Zm0,4a1,1,0,1,1,1-1A1.0009,1.0009,0,0,1,49,47Z" style="fill:#1b1a1e"/><path d="M41,43a3,3,0,1,0,3,3A3.0033,3.0033,0,0,0,41,43Zm0,4a1,1,0,1,1,1-1A1.0009,1.0009,0,0,1,41,47Z" style="fill:#1b1a1e"/><path d="M57,43a3,3,0,1,0,3,3A3.0033,3.0033,0,0,0,57,43Zm0,4a1,1,0,1,1,1-1A1.0009,1.0009,0,0,1,57,47Z" style="fill:#1b1a1e"/><path d="M59,15H39a1,1,0,0,0-1,1v8a1,1,0,0,0,1,1H59a1,1,0,0,0,1-1V16A1,1,0,0,0,59,15Zm-1,8H40V17H58Z" style="fill:#1b1a1e"/><path d="M46,11a1,1,0,0,0,0,2h6a1,1,0,0,0,0-2Z" style="fill:#1b1a1e"/><path d="M42,10H56a1,1,0,0,0,0-2H42a1,1,0,0,0,0,2Z" style="fill:#1b1a1e"/><path d="M42,22a1,1,0,0,0,1-1V19a1,1,0,0,0-2,0v2A1,1,0,0,0,42,22Z" style="fill:#1b1a1e"/><path d="M45,22a1,1,0,0,0,1-1V19a1,1,0,0,0-2,0v2A1,1,0,0,0,45,22Z" style="fill:#1b1a1e"/><path d="M48,22a1,1,0,0,0,1-1V19a1,1,0,0,0-2,0v2A1,1,0,0,0,48,22Z" style="fill:#1b1a1e"/></g></svg>