<svg xmlns="http://www.w3.org/2000/svg" viewBox="0 0 64 64"><title>64-23</title><g id="Pantone"><path d="M9.001,52a4,4,0,1,0,4,4A4.0042,4.0042,0,0,0,9.001,52Zm0,6a2,2,0,1,1,2-2A2.0023,2.0023,0,0,1,9.001,58Z" style="fill:#1b1a1e"/><path d="M12.001,36h-6a1,1,0,0,0-1,1V49a1,1,0,0,0,1,1h6a1,1,0,0,0,1-1V37A1,1,0,0,0,12.001,36Zm-1,12h-4V38h4Z" style="fill:#1b1a1e"/><path d="M12.001,20h-6a1,1,0,0,0-1,1V33a1,1,0,0,0,1,1h6a1,1,0,0,0,1-1V21A1,1,0,0,0,12.001,20Zm-1,12h-4V22h4Z" style="fill:#1b1a1e"/><path d="M12.001,4h-6a1,1,0,0,0-1,1V17a1,1,0,0,0,1,1h6a1,1,0,0,0,1-1V5A1,1,0,0,0,12.001,4Zm-1,12h-4V6h4Z" style="fill:#1b1a1e"/><path d="M23.7866,39.4346a1,1,0,0,0,1.3882-.2705l6.7075-9.9493a1,1,0,0,0-.27-1.3877l-4.9751-3.3544a1,1,0,0,0-1.3882.2705l-6.7075,9.95a1,1,0,0,0,.27,1.3877ZM26.3481,26.69l3.3169,2.2364-5.5893,8.291-3.3169-2.2364Z" style="fill:#1b1a1e"/><path d="M33.2881,26.3389a.9982.9982,0,0,0,.83-.4414l6.708-9.95a.9993.9993,0,0,0-.27-1.3877l-4.9746-3.3535a1,1,0,0,0-1.3877.2705l-6.708,9.95a1,1,0,0,0,.27,1.3877L32.73,26.168A.998.998,0,0,0,33.2881,26.3389Zm2.0049-12.916,3.3164,2.2363-5.5908,8.292-3.316-2.2364Z" style="fill:#1b1a1e"/><path d="M41.3389,40.41a.9992.9992,0,0,0-.7647-.0352l-11.29,4.0674a1,1,0,0,0-.6021,1.2793l2.0337,5.6445a1,1,0,0,0,.9409.6611.9805.9805,0,0,0,.3389-.0595L43.2852,47.9a.9989.9989,0,0,0,.6015-1.2793l-2.0332-5.6445A.9983.9983,0,0,0,41.3389,40.41Zm-9.08,9.3378-1.356-3.7636,9.4087-3.39,1.3555,3.7637Z" style="fill:#1b1a1e"/><path d="M46.71,46.6045a.9842.9842,0,0,0,.3388-.06l11.29-4.0664a.9976.9976,0,0,0,.6015-1.2793l-2.0341-5.6455a.9947.9947,0,0,0-1.2793-.6016L44.3379,39.02a.999.999,0,0,0-.6016,1.2793L45.77,45.9434A1,1,0,0,0,46.71,46.6045Zm8.6543-9.4326L56.72,40.9365l-9.4082,3.3887-1.3554-3.7637Z" style="fill:#1b1a1e"/><path d="M62.7,39.84,60.67,34.2a4.9953,4.9953,0,0,0-6.4-3.01L32.82,38.91a1,1,0,0,0,.68,1.88l21.45-7.72a3.0023,3.0023,0,0,1,3.84,1.81l2.03,5.64a3.0093,3.0093,0,0,1-1.8,3.84L19.56,58.58l-3.4946,1.2564,1.8976-2.8151L28.23,53.32a1,1,0,0,0,.6016-1.2793l-2.03-5.64a1.0021,1.0021,0,0,0-1.2726-.6034L44.1387,18.1885a5.0166,5.0166,0,0,0-1.35-6.9473L37.82,7.8916a4.9918,4.9918,0,0,0-6.9394,1.35l-11.71,17.37a1,1,0,1,0,1.6582,1.1172L32.54,10.3574a2.9944,2.9944,0,0,1,4.1612-.8086l4.9687,3.35a3.0144,3.0144,0,0,1,.8106,4.1729L22.1733,47.1974l-.0127.0135c-4.0449,6.007-2.916,4.3312-5.16,7.66V51.2852L22.939,42.48a1.0012,1.0012,0,0,0-.271-1.39l-4.98-3.35a.9876.9876,0,0,0-.687-.1515V5a5.0059,5.0059,0,0,0-5-5h-6a5.0059,5.0059,0,0,0-5,5V56a7.9773,7.9773,0,0,0,10.7071,7.5184l.0019.0116L59.7,46.24A5.0127,5.0127,0,0,0,62.7,39.84ZM25.2573,48.0186l1.3535,3.76-6.7539,2.4346c1.0869-1.6141.3266-.4857,3.7838-5.6148ZM17.4014,39.958l3.32,2.2324-3.72,5.5171V40.5532ZM3.001,56V5a3.0033,3.0033,0,0,1,3-3h6a3.0033,3.0033,0,0,1,3,3c0,40.9161-.001,16.0664-.001,51A6,6,0,1,1,3.001,56Z" style="fill:#1b1a1e"/></g></svg>