<svg xmlns="http://www.w3.org/2000/svg" viewBox="0 0 64 64"><title>64-28</title><g id="Print"><path d="M57,18H55V13a1,1,0,0,0-1-1H49V1a1,1,0,0,0-1-1H16a1,1,0,0,0-1,1V12H10a1,1,0,0,0-1,1v5H7a7.0081,7.0081,0,0,0-7,7V37a7.0081,7.0081,0,0,0,7,7h8V59a5.0059,5.0059,0,0,0,5,5H53a5.0059,5.0059,0,0,0,5-5V57a1,1,0,0,0-1-1H49V44h8a7.0085,7.0085,0,0,0,7-7V25A7.0085,7.0085,0,0,0,57,18Zm-4-4v4H49V14ZM17,2H47V18H17ZM11,14h4v4H11Zm4,22H11V32h4ZM56,59a3.0033,3.0033,0,0,1-3,3H23.9976A5.2453,5.2453,0,0,0,25,59V58H56ZM24,56a1,1,0,0,0-1,1v2a3,3,0,0,1-6,0V32H47V56ZM53,32v4H49V32Zm9,5a5.0059,5.0059,0,0,1-5,5H49V38h5a1,1,0,0,0,1-1V31a1,1,0,0,0-1-1H10a1,1,0,0,0-1,1v6a1,1,0,0,0,1,1h5v4H7a5.0059,5.0059,0,0,1-5-5V25a5.0059,5.0059,0,0,1,5-5H57a5.0059,5.0059,0,0,1,5,5Z" style="fill:#1b1a1e"/><path d="M42,27H22a1,1,0,0,0,0,2H42a1,1,0,0,0,0-2Z" style="fill:#1b1a1e"/><circle cx="45" cy="28" r="1" style="fill:#1b1a1e"/><circle cx="19" cy="28" r="1" style="fill:#1b1a1e"/><path d="M57,22a3,3,0,1,0,3,3A3.0033,3.0033,0,0,0,57,22Zm0,4a1,1,0,1,1,1-1A1.0006,1.0006,0,0,1,57,26Z" style="fill:#1b1a1e"/></g></svg>