<svg xmlns="http://www.w3.org/2000/svg" viewBox="0 0 64 64"><title>64-35</title><g id="Cutter"><path d="M57.0146,2.9854a10.2024,10.2024,0,0,0-14.414,0L13.293,32.293a.9994.9994,0,0,0,0,1.414L15.0859,35.5,4.293,46.293A.9993.9993,0,0,0,4,47V63a1,1,0,0,0,1.707.707L24.5,44.9141l1.793,1.7929a.9994.9994,0,0,0,1.414,0L57.0146,17.3994A10.2042,10.2042,0,0,0,57.0146,2.9854ZM6,60.5859V47.4141l10.5-10.5L23.0859,43.5ZM45,19a4,4,0,1,1-4-4A4.0039,4.0039,0,0,1,45,19Zm-.6273-4.9587L49.207,9.207a1.1481,1.1481,0,0,1,1.586,0,1.1221,1.1221,0,0,1,0,1.586l-4.8343,4.8343A6.0442,6.0442,0,0,0,44.3727,14.0413Zm-6.7454,9.9174L22,39.5859,20.4141,38,36.0413,22.3727A6.0442,6.0442,0,0,0,37.6273,23.9587Zm17.9733-7.9733L27,44.5859,23.4141,41,39.5887,24.8254a5.977,5.977,0,0,0,7.2367-7.2367L52.207,12.207a3.1212,3.1212,0,1,0-4.414-4.414l-5.3817,5.3816a5.977,5.977,0,0,0-7.2367,7.2367L19,36.5859,15.4141,33,44.0146,4.3994a8.1925,8.1925,0,0,1,11.586,11.586Z" style="fill:#1b1a1e"/><path d="M38,19a3,3,0,1,0,3-3A3.0033,3.0033,0,0,0,38,19Zm4,0a1,1,0,1,1-1-1A1.0006,1.0006,0,0,1,42,19Z" style="fill:#1b1a1e"/></g></svg>