<svg xmlns="http://www.w3.org/2000/svg" viewBox="0 0 64 64"><title>64-36</title><g id="Cabinet_Drawer" data-name="Cabinet Drawer"><path d="M51,38H13a1,1,0,0,0-1,1V51a1,1,0,0,0,1,1H51a1,1,0,0,0,1-1V39A1,1,0,0,0,51,38ZM50,50H14V40H50Z" style="fill:#1b1a1e"/><path d="M32,49a4,4,0,1,0-4-4A4.0042,4.0042,0,0,0,32,49Zm0-6a2,2,0,1,1-2,2A2.0023,2.0023,0,0,1,32,43Z" style="fill:#1b1a1e"/><path d="M51,22H13a1,1,0,0,0-1,1V35a1,1,0,0,0,1,1H51a1,1,0,0,0,1-1V23A1,1,0,0,0,51,22ZM50,34H14V24H50Z" style="fill:#1b1a1e"/><path d="M32,33a4,4,0,1,0-4-4A4.0042,4.0042,0,0,0,32,33Zm0-6a2,2,0,1,1-2,2A2.0023,2.0023,0,0,1,32,27Z" style="fill:#1b1a1e"/><path d="M51,6H13a1,1,0,0,0-1,1V19a1,1,0,0,0,1,1H51a1,1,0,0,0,1-1V7A1,1,0,0,0,51,6ZM50,18H14V8H50Z" style="fill:#1b1a1e"/><path d="M32,17a4,4,0,1,0-4-4A4.0042,4.0042,0,0,0,32,17Zm0-6a2,2,0,1,1-2,2A2.0023,2.0023,0,0,1,32,11Z" style="fill:#1b1a1e"/><path d="M54,1H10A3.0033,3.0033,0,0,0,7,4V54a3.0033,3.0033,0,0,0,3,3h2v5a1,1,0,0,0,1,1h9a1,1,0,0,0,.9487-.6836L24.7209,57H39.2791l1.7722,5.3164A1,1,0,0,0,42,63h9a1,1,0,0,0,1-1V57h2a3.0033,3.0033,0,0,0,3-3V4A3.0033,3.0033,0,0,0,54,1ZM21.2793,61H14V57h8.6128ZM50,61H42.7207l-1.3335-4H50Zm5-7a1.0009,1.0009,0,0,1-1,1H10a1.0009,1.0009,0,0,1-1-1V4a1.0009,1.0009,0,0,1,1-1H54a1.0009,1.0009,0,0,1,1,1Z" style="fill:#1b1a1e"/></g></svg>