<svg xmlns="http://www.w3.org/2000/svg" viewBox="0 0 64 64"><title>64-3</title><g id="Pencil_Holder" data-name="Pencil Holder"><path d="M61,39H51V29h2a1,1,0,0,0,1-1V23a1,1,0,0,0-1-1H47.426L52.8719,7.8186l.9338.3586-1.793,4.668a3.0034,3.0034,0,0,0,1.7256,3.8755,1,1,0,1,0,.7168-1.8672,1.0016,1.0016,0,0,1-.5752-1.292l1.793-4.667a2,2,0,0,0-1.15-2.5844l-1.8666-.7169,0,0,1.0758-2.8a.9989.9989,0,0,0-.5751-1.292L49.4219.0664A.9981.9981,0,0,0,48.13.6411L47.0539,3.442h0a1.0005,1.0005,0,0,0-1.292.5752L38.8567,22H37.366L42.2783,8.3379a1.1894,1.1894,0,0,0,.0293-.5786L40.5742.76A1,1,0,0,0,39.0078.1963L33.2139,4.4888a1.1925,1.1925,0,0,0-.3452.4653L26.7389,22h-.3984L23.4688.8652a1,1,0,0,0-.3853-.6611.9891.9891,0,0,0-.74-.1948L13.4248,1.2212a.9995.9995,0,0,0-.856,1.1255c.27,1.984,2.383,17.5345,2.671,19.6533H11a1,1,0,0,0-1,1v5a1,1,0,0,0,1,1h2V39H3a1,1,0,0,0-1,1v5a1,1,0,0,0,1,1H5V63a1,1,0,0,0,2,0V46h3V63a1,1,0,0,0,2,0V54H52v9a1,1,0,0,0,2,0V46h3V63a1,1,0,0,0,2,0V46h2a1,1,0,0,0,1-1V40A1,1,0,0,0,61,39ZM48.9209,4.1587l.7178-1.8667,1.8672.7173-.7178,1.8666Zm-1.65,1.5088,3.7344,1.4341L45.2832,22H40.999ZM40.0579,8.6023,35.24,22H33.1146L38.1761,7.9256Zm-.14-2.1761L35.9061,4.9836l3.0871-2.2873Zm-5.505.1458,1.8811.6765L30.9894,22H28.8643ZM17.1089,20.904l1.9819-.2692a1,1,0,1,0-.27-1.9815l-1.9817.2692-.1347-.9912,1.9821-.2692a1,1,0,1,0-.27-1.9814l-1.9819.2692-.1347-.9912,1.9823-.2692a1,1,0,1,0-.27-1.9815l-1.982.2692-.1347-.9912,1.9819-.2692a1,1,0,1,0-.27-1.9814l-1.9817.2692-.1347-.9912,1.9821-.2693a1,1,0,1,0-.27-1.9814l-1.9819.2692-.1347-.9911,1.9823-.2693a1,1,0,0,0-.27-1.9815L14.82,4.0593l-.1346-.9909,6.9365-.9429L24.3223,22H17.2578ZM12,24H52v3H12Zm3,5H49V39H15ZM52,52H12V46H52Zm8-8H4V41H60Z" style="fill:#1b1a1e"/><path d="M30,50h4a1,1,0,0,0,0-2H30a1,1,0,0,0,0,2Z" style="fill:#1b1a1e"/></g></svg>