<svg xmlns="http://www.w3.org/2000/svg" viewBox="0 0 64 64"><title>64-34</title><g id="Frame"><path d="M32,9a3,3,0,1,0-3-3A3.0033,3.0033,0,0,0,32,9Zm0-4a1,1,0,1,1-1,1A1.0006,1.0006,0,0,1,32,5Z" style="fill:#1b1a1e"/><path d="M57,24H52.1268L37.6966,7.8729a6,6,0,1,0-11.3932,0L11.8732,24H7a4.0039,4.0039,0,0,0-4,4V60a4.0039,4.0039,0,0,0,4,4H57a4.0039,4.0039,0,0,0,4-4V28A4.0039,4.0039,0,0,0,57,24ZM36.6855,9.7422,49.4434,24H46.7676L35.2012,11.0732A6.4244,6.4244,0,0,0,36.6855,9.7422ZM32,12a5.9986,5.9986,0,0,0,1.232-.1284L44.0837,24H19.9163L30.768,11.8716A5.9986,5.9986,0,0,0,32,12ZM32,2a4.0039,4.0039,0,0,1,4,4,4,4,0,0,1-8,0A4.0039,4.0039,0,0,1,32,2ZM27.3145,9.7422a6.5038,6.5038,0,0,0,1.4843,1.331L17.2324,24H14.5566ZM59,60a2.0027,2.0027,0,0,1-2,2H7a2.0027,2.0027,0,0,1-2-2V28a2.0027,2.0027,0,0,1,2-2H57a2.0027,2.0027,0,0,1,2,2Z" style="fill:#1b1a1e"/><path d="M57,27H7a1,1,0,0,0-1,1V60a1,1,0,0,0,1,1H57a1.0041,1.0041,0,0,0,1-1V28A1,1,0,0,0,57,27Zm-1,2V57.5859L39.707,41.293a.9994.9994,0,0,0-1.414,0L30.5,49.0859,20.707,39.293a.9994.9994,0,0,0-1.414,0L8,50.5859V29ZM40.4141,59l-8.5-8.5L39,43.4141,54.5859,59ZM8,53.4141l12-12L37.5859,59H8Z" style="fill:#1b1a1e"/><path d="M31,41a4,4,0,1,0-4-4A4.0039,4.0039,0,0,0,31,41Zm0-6a2,2,0,1,1-2,2A2.0027,2.0027,0,0,1,31,35Z" style="fill:#1b1a1e"/></g></svg>