<svg xmlns="http://www.w3.org/2000/svg" viewBox="0 0 64 64"><title>64-39</title><g id="Clip"><path d="M61,49H56.1274l2.3287-19.4043A5.0019,5.0019,0,0,0,53.4912,24H41.114c.2987-.7814.6315-1.5714,1.0247-2.374a8.9931,8.9931,0,0,0-.3-8.9873A9.6942,9.6942,0,0,0,33.6123,8H30.3877a9.6988,9.6988,0,0,0-8.2295,4.6406,8.9832,8.9832,0,0,0-.3066,8.9658c.3964.8094.732,1.6059,1.0326,2.3936H10.5088a5.0019,5.0019,0,0,0-4.9649,5.5957L7.8726,49H3a1,1,0,0,0-1,1v3a3.0033,3.0033,0,0,0,3,3H25a1,1,0,0,0,.832-.4453L27.5352,53h8.93l1.7032,2.5547A1,1,0,0,0,39,56H59a3.0033,3.0033,0,0,0,3-3V50A1,1,0,0,0,61,49ZM53.4912,26A2.9994,2.9994,0,0,1,56.47,29.3574L54.1125,49H45.4492c-1.5423-1.796-8.5813-10.8652-5.0177-23ZM23.6387,20.708a7.0311,7.0311,0,0,1,.2285-7.0273A7.6842,7.6842,0,0,1,30.3877,10h3.2246a7.684,7.684,0,0,1,6.5186,3.6777,7.0479,7.0479,0,0,1,.2207,7.05A29.7191,29.7191,0,0,0,38.9843,24H25.0129A29.77,29.77,0,0,0,23.6387,20.708ZM7.53,29.3574A2.9994,2.9994,0,0,1,10.5088,26H23.5652c3.56,12.1406-3.4728,21.2046-5.0145,23H9.8875ZM4,53V51H18v2a1.0006,1.0006,0,0,1-1,1H5A1.0006,1.0006,0,0,1,4,53Zm33.832-1.5547A1,1,0,0,0,37,51H27a1,1,0,0,0-.832.4453L24.4648,54H19.8157A2.9635,2.9635,0,0,0,20,53V50.373C21.5345,48.5569,29.0335,38.8157,25.6222,26H38.3745C34.96,38.81,42.4649,48.5564,44,50.373V53a2.966,2.966,0,0,0,.1843,1H39.5352ZM60,53a1.0006,1.0006,0,0,1-1,1H47a1.0006,1.0006,0,0,1-1-1V51H60Z" style="fill:#1b1a1e"/></g></svg>