<svg xmlns="http://www.w3.org/2000/svg" viewBox="0 0 64 64"><title>64-32</title><g id="Box_Archive" data-name="Box Archive"><path d="M54,10a1,1,0,0,0,1-1V1a1,1,0,0,0-1-1H10A1,1,0,0,0,9,1V9a1,1,0,0,0,1,1h3V31H10a1,1,0,0,0-1,1v8a1,1,0,0,0,1,1h3V63a1,1,0,0,0,1,1H50a1,1,0,0,0,1-1V41h3a1,1,0,0,0,1-1V32a1,1,0,0,0-1-1H51V10ZM11,2H53V8H11ZM49,62H15V41H49Zm4-23H11V33H53Zm-4-8H15V10H49Z" style="fill:#1b1a1e"/><path d="M25,18H39a3,3,0,0,0,0-6H25a3,3,0,0,0,0,6Zm0-4H39a1,1,0,0,1,0,2H25a1,1,0,0,1,0-2Z" style="fill:#1b1a1e"/><path d="M25,49H39a3,3,0,0,0,0-6H25a3,3,0,0,0,0,6Zm0-4H39a1,1,0,0,1,0,2H25a1,1,0,0,1,0-2Z" style="fill:#1b1a1e"/></g></svg>