<svg xmlns="http://www.w3.org/2000/svg" viewBox="0 0 64 64"><title>64-30</title><g id="Mouse"><path d="M51,30.53a27.377,27.377,0,0,0-1.2832-8.2871c.7856-3.3723,1.2219-5.81,1.2676-6.0694a.9993.9993,0,0,0-.43-1.0058l-12-8A1,1,0,0,0,37,8c0,1.0413-.02,2.035-.0515,3H35V1a1,1,0,0,0-2,0V11H31V1a1,1,0,0,0-2,0V11H27.0515C27.02,10.035,27,9.0413,27,8a1,1,0,0,0-1.5547-.832l-12,8a.9993.9993,0,0,0-.43,1.0058c.0457.26.4823,2.6984,1.2682,6.072A27.3819,27.3819,0,0,0,13,30.53c0,3.4007-.5151-1.3282,2.1582,18.7246a16.9909,16.9909,0,0,0,33.6836,0C51.5073,29.2607,51,33.95,51,30.53ZM36.86,13c-.5214,9.2134-2.4216,14.6812-3.86,17.5754v-6.76A2.995,2.995,0,0,0,35,21V18a2.9916,2.9916,0,0,0-1.9971-2.8106V13ZM32,17a1.0006,1.0006,0,0,1,1,1v3a1,1,0,0,1-2,0V18A1.0006,1.0006,0,0,1,32,17Zm-.9971-4v2.1875A2.9916,2.9916,0,0,0,29,18v3a2.995,2.995,0,0,0,2,2.8157v6.76C29.561,27.68,27.6614,22.2123,27.14,13ZM15,32.7841V30.53a25.61,25.61,0,0,1,.3305-4.0971,77.2441,77.2441,0,0,0,3.9752,11.602A14.0728,14.0728,0,0,1,15,32.7841ZM46.8594,48.9912a14.991,14.991,0,0,1-29.7188,0L15.5811,37.2949a22.3,22.3,0,0,0,5.9716,4.6,1,1,0,0,0,1.295-1.4248c-4.2989-6.8779-7.1416-20.8525-7.7442-24.0039l9.9141-6.6094c.3551,18.6908,6.0136,24.5884,6.274,24.8492a.9995.9995,0,0,0,1.4168,0c.25-.25,5.4765-5.7074,6.2048-22.6965L38.915,12l-.0011-.0056c.03-.6955.0545-1.4033.0685-2.138l9.9141,6.6094c-.6026,3.1514-3.4453,17.126-7.7442,24.0039a1,1,0,0,0,1.295,1.4248,22.3,22.3,0,0,0,5.9716-4.6ZM49,32.7841a14.0728,14.0728,0,0,1-4.3057,5.2511A77.2441,77.2441,0,0,0,48.67,26.4332,25.61,25.61,0,0,1,49,30.53Z" style="fill:#1b1a1e"/><path d="M45.0088,47.7354a.9967.9967,0,0,0-1.1231.8593A12.0288,12.0288,0,0,1,32,59a1,1,0,0,0,0,2A14.036,14.036,0,0,0,45.8682,48.8584,1,1,0,0,0,45.0088,47.7354Z" style="fill:#1b1a1e"/></g></svg>