<svg xmlns="http://www.w3.org/2000/svg" viewBox="0 0 64 64"><title>64-38</title><g id="Stapler"><path d="M49,34a5,5,0,1,0,5,5A5.0059,5.0059,0,0,0,49,34Zm0,8a3,3,0,1,1,3-3A3.0033,3.0033,0,0,1,49,42Z" style="fill:#1b1a1e"/><path d="M62.8037,24.2656a.9992.9992,0,0,0-.6562-.3945l-59.34-8.86a1.0053,1.0053,0,0,0-1.1362.8409l-.4439,2.9638a7.9992,7.9992,0,0,0,6.7276,9.0961L7.3706,31.874a1,1,0,0,0,.8418,1.1348L39.107,37.6181A9.5678,9.5678,0,0,0,39.2016,41H8a7.0081,7.0081,0,0,0-7,7,1,1,0,0,0,1,1H49a9.9969,9.9969,0,0,0,9.2-13.9147,4.9431,4.9431,0,0,0,3.8983-4.1273l.8907-5.9492A1,1,0,0,0,62.8037,24.2656ZM39.5654,35.6641,9.4946,31.1777l.4385-2.9705c24.4275,3.65,20.3525,3.0407,31.17,4.6571a9.8965,9.8965,0,0,0-1.3158,2.246l-.0014.0036C39.7093,35.2956,39.6319,35.4772,39.5654,35.6641ZM43.0039,47H3.1006A5.0084,5.0084,0,0,1,8,43H39.8389A10.3658,10.3658,0,0,0,43.0039,47ZM49,47a8,8,0,1,1,8-8A8.0328,8.0328,0,0,1,49,47ZM60.12,30.6621a2.96,2.96,0,0,1-1.1758,1.957,3.2776,3.2776,0,0,1-1.8017.585A9.9746,9.9746,0,0,0,42.876,31.1064L8.2539,25.9336a5.9991,5.9991,0,0,1-5.0488-6.8213l.2959-1.9756,57.3623,8.5645Z" style="fill:#1b1a1e"/></g></svg>