<svg xmlns="http://www.w3.org/2000/svg" viewBox="0 0 64 64"><title>64-37</title><g id="Adhesive"><path d="M63,25H59.9493A16.953,16.953,0,0,0,37.7,9.8574c-.0088.0019-.0173-.0011-.0261.001L.7588,19.0293A1.0167,1.0167,0,0,0,0,20V50a5.0059,5.0059,0,0,0,5,5H57a7.0081,7.0081,0,0,0,7-7V26A1,1,0,0,0,63,25Zm-5.0507,0h-2a12.9868,12.9868,0,0,0-25.8986,0h-2a14.9815,14.9815,0,0,1,29.8986,0Zm-10.05,0-.0008-.0026a5,5,0,0,0-9.7972,0L38.1006,25h-6.05a10.9944,10.9944,0,0,1,21.8986,0ZM46,26a3,3,0,1,1-3-3A3.0033,3.0033,0,0,1,46,26ZM26.0507,25H23a1,1,0,0,0-1,1v6.5a7.5,7.5,0,0,1-15,0V24a1.0016,1.0016,0,0,0-.3755-.7812l-3.42-2.7359L31.5952,13.43A16.9372,16.9372,0,0,0,26.0507,25ZM62,48a5.0059,5.0059,0,0,1-5,5H5a3.0033,3.0033,0,0,1-3-3V22.0811l3,2.3994V32.5a9.5,9.5,0,0,0,19,0V27H38.1011a5,5,0,0,0,9.7978,0H62Z" style="fill:#1b1a1e"/><path d="M58,32V42a1,1,0,0,0,2,0V32a1,1,0,0,0-2,0Z" style="fill:#1b1a1e"/></g></svg>