<svg xmlns="http://www.w3.org/2000/svg" viewBox="0 0 64 64"><title>64-31</title><g id="Trash"><path d="M56,12H50.7808L47.97.7578A1,1,0,0,0,47,0H17a1,1,0,0,0-.97.7578L13.2192,12H8a1,1,0,0,0-1,1v6a1,1,0,0,0,1,1h3.1071l4.8992,43.1133A1,1,0,0,0,17,64H47a1,1,0,0,0,.9937-.8867L52.8929,20H56a1,1,0,0,0,1-1V13A1,1,0,0,0,56,12ZM41,2V6H23V2ZM17.7808,2H21V7a1,1,0,0,0,1,1H42a1,1,0,0,0,1-1V2h3.2192l2.5,10H15.2808Zm.1118,60-.3409-3H46.4483l-.3409,3Zm28.783-5H17.3244L13.12,20H50.88ZM55,18H9V14H55Z" style="fill:#1b1a1e"/><path d="M27,5H37a1,1,0,0,0,0-2H27a1,1,0,0,0,0,2Z" style="fill:#1b1a1e"/><path d="M26,29H38a1,1,0,0,0,1-1V24a1,1,0,0,0-1-1H26a1,1,0,0,0-1,1v4A1,1,0,0,0,26,29Zm1-4H37v2H27Z" style="fill:#1b1a1e"/><path d="M42,27h3a1,1,0,0,0,0-2H42a1,1,0,0,0,0,2Z" style="fill:#1b1a1e"/><path d="M19,27h3a1,1,0,0,0,0-2H19a1,1,0,0,0,0,2Z" style="fill:#1b1a1e"/></g></svg>