<svg xmlns="http://www.w3.org/2000/svg" viewBox="0 0 64 64"><title>64-4</title><g id="Clipboard"><path d="M27,6H37a1,1,0,0,0,0-2H27a1,1,0,0,0,0,2Z" style="fill:#1b1a1e"/><path d="M51,4H42.6182L40.8945.5527A1,1,0,0,0,40,0H24a1,1,0,0,0-.8945.5527L21.3818,4H13A5.0059,5.0059,0,0,0,8,9V59a5.0059,5.0059,0,0,0,5,5H51a5.0059,5.0059,0,0,0,5-5V9A5.0059,5.0059,0,0,0,51,4ZM22,6a1,1,0,0,0,.8945-.5527L24.6182,2H39.3818l1.7237,3.4473A1,1,0,0,0,42,6h4V8H18V6Zm-5,4H47a1,1,0,0,0,1-1V6h2V58H14V6h2V9A1,1,0,0,0,17,10ZM54,59a3.0033,3.0033,0,0,1-3,3H13a3.0033,3.0033,0,0,1-3-3V9a2.995,2.995,0,0,1,2-2.8157V59a1,1,0,0,0,1,1H51a1,1,0,0,0,1-1V6.1843A2.995,2.995,0,0,1,54,9Z" style="fill:#1b1a1e"/><path d="M21,31H17a1,1,0,0,0-1,1v4a1,1,0,0,0,1,1h4a1,1,0,0,0,1-1V32A1,1,0,0,0,21,31Zm-1,4H18V33h2Z" style="fill:#1b1a1e"/><path d="M21,39H17a1,1,0,0,0-1,1v4a1,1,0,0,0,1,1h4a1,1,0,0,0,1-1V40A1,1,0,0,0,21,39Zm-1,4H18V41h2Z" style="fill:#1b1a1e"/><path d="M21,47H17a1,1,0,0,0-1,1v4a1,1,0,0,0,1,1h4a1,1,0,0,0,1-1V48A1,1,0,0,0,21,47Zm-1,4H18V49h2Z" style="fill:#1b1a1e"/><path d="M21,23H17a1,1,0,0,0-1,1v4a1,1,0,0,0,1,1h4a1,1,0,0,0,1-1V24A1,1,0,0,0,21,23Zm-1,4H18V25h2Z" style="fill:#1b1a1e"/><path d="M16,20a1,1,0,0,0,1,1h4a1,1,0,0,0,1-1V16a1,1,0,0,0-1-1H17a1,1,0,0,0-1,1Zm2-3h2v2H18Z" style="fill:#1b1a1e"/><path d="M25,17H47a1,1,0,0,0,0-2H25a1,1,0,0,0,0,2Z" style="fill:#1b1a1e"/><path d="M25,21H36a1,1,0,0,0,0-2H25a1,1,0,0,0,0,2Z" style="fill:#1b1a1e"/><path d="M25,25H47a1,1,0,0,0,0-2H25a1,1,0,0,0,0,2Z" style="fill:#1b1a1e"/><path d="M25,29H36a1,1,0,0,0,0-2H25a1,1,0,0,0,0,2Z" style="fill:#1b1a1e"/><path d="M25,33H47a1,1,0,0,0,0-2H25a1,1,0,0,0,0,2Z" style="fill:#1b1a1e"/><path d="M25,37H36a1,1,0,0,0,0-2H25a1,1,0,0,0,0,2Z" style="fill:#1b1a1e"/><path d="M25,41H47a1,1,0,0,0,0-2H25a1,1,0,0,0,0,2Z" style="fill:#1b1a1e"/><path d="M25,45H36a1,1,0,0,0,0-2H25a1,1,0,0,0,0,2Z" style="fill:#1b1a1e"/><path d="M25,49H47a1,1,0,0,0,0-2H25a1,1,0,0,0,0,2Z" style="fill:#1b1a1e"/><path d="M25,53H36a1,1,0,0,0,0-2H25a1,1,0,0,0,0,2Z" style="fill:#1b1a1e"/></g></svg>