<svg xmlns="http://www.w3.org/2000/svg" viewBox="0 0 64 64"><title>64-40</title><g id="Briefcase_Desk" data-name="Briefcase Desk"><path d="M63,38H54V15a3.0033,3.0033,0,0,0-3-3H44V6a4.0039,4.0039,0,0,0-4-4H24a4.0039,4.0039,0,0,0-4,4v6H13a3.0033,3.0033,0,0,0-3,3V38H1a1,1,0,0,0-1,1v5a1,1,0,0,0,1,1H3V61a1,1,0,0,0,2,0V45H8V61a1,1,0,0,0,2,0V53H54v8a1,1,0,0,0,2,0V45h3V61a1,1,0,0,0,2,0V45h2a1,1,0,0,0,1-1V39A1,1,0,0,0,63,38ZM20,38V25.1694a39.8611,39.8611,0,0,0,9,1.7059V28a2.0027,2.0027,0,0,0,2,2h2a2.0027,2.0027,0,0,0,2-2V26.8753a39.8611,39.8611,0,0,0,9-1.7059V38ZM17,24.0871c.3191.1307.66.2586,1,.387V38H17ZM31,28V24h2v4Zm15-3.5259c.34-.1284.6809-.2563,1-.387V38H46Zm3-1.28a32.4258,32.4258,0,0,0,3-1.635V38H49ZM22,6a2.0027,2.0027,0,0,1,2-2H40a2.0027,2.0027,0,0,1,2,2v6H41V6a1,1,0,0,0-1-1H24a1,1,0,0,0-1,1v6H22Zm17,6H25V7H39ZM13,14H51a1.0006,1.0006,0,0,1,1,1v4.16A35.61,35.61,0,0,1,35,24.869V24a2.0027,2.0027,0,0,0-2-2H31a2.0027,2.0027,0,0,0-2,2v.869A35.61,35.61,0,0,1,12,19.16V15A1.0006,1.0006,0,0,1,13,14Zm-1,7.5587a32.4258,32.4258,0,0,0,3,1.635V38H12ZM54,51H10V45H54Zm8-8H2V40H62Z" style="fill:#1b1a1e"/><path d="M30,49h4a1,1,0,0,0,0-2H30a1,1,0,0,0,0,2Z" style="fill:#1b1a1e"/></g></svg>