<svg xmlns="http://www.w3.org/2000/svg" viewBox="0 0 64 64"><title>64-6</title><g id="Pin_marker" data-name="Pin marker"><path d="M60.8076,3.1924a10.912,10.912,0,0,0-15.414,0L30.5859,18H23a1,1,0,0,0-.707.293L10.707,29.8789a3.0025,3.0025,0,0,0,0,4.2422L17.5859,41,3.293,55.293a.9953.9953,0,0,0-.2119.313l-3,7A1,1,0,0,0,1.394,63.9189l7-3a.9953.9953,0,0,0,.313-.2119L23,46.4141l6.8789,6.8789a3.0025,3.0025,0,0,0,4.2422,0L45.707,41.707A1,1,0,0,0,46,41V33.4141L60.8076,18.6064A10.912,10.912,0,0,0,60.8076,3.1924ZM7.4292,59.1567l-4.5254,1.94,1.94-4.5254L19,42.4141,21.5859,45ZM31.293,51.8789,23.707,44.293l-4-4-7.5859-7.586a1.0007,1.0007,0,0,1,0-1.414L13,30.4141,33.5859,51l-.8789.8789A1.0253,1.0253,0,0,1,31.293,51.8789ZM44,40.5859l-9,9L14.4141,29l9-9h7.1718L44,33.4141Zm1-9L32.4141,19,46.8076,4.6064a8.9,8.9,0,0,1,12.586,12.586Z" style="fill:#1b1a1e"/><path d="M53.1006,3a7.8479,7.8479,0,0,0-5.586,2.3135,1,1,0,1,0,1.4141,1.414,5.9007,5.9007,0,0,1,8.3438,0,1,1,0,0,0,1.414-1.414A7.8483,7.8483,0,0,0,53.1006,3Z" style="fill:#1b1a1e"/></g></svg>