<svg xmlns="http://www.w3.org/2000/svg" viewBox="0 0 64 64"><title>64-7</title><g id="FD"><path d="M57,31a3,3,0,1,0-4,2.8157v2.4636l-4,1.3332V26.8157a3,3,0,1,0-2,0V38.0389l-4-2.5833v-3.64a3,3,0,1,0-2,0V36a1,1,0,0,0,.4575.84L47,40.4194v.7649a3,3,0,1,0,2,0V39.7209l5.3164-1.7722A1,1,0,0,0,55,37V33.8157A2.995,2.995,0,0,0,57,31ZM42,28a1,1,0,1,1-1,1A1.0013,1.0013,0,0,1,42,28Zm6-5a1,1,0,1,1-1,1A1.0013,1.0013,0,0,1,48,23Zm0,22a1,1,0,1,1,1-1A1.0013,1.0013,0,0,1,48,45Zm6-13a1,1,0,1,1,1-1A1.0013,1.0013,0,0,1,54,32Z" style="fill:#1b1a1e"/><path d="M45,4a1,1,0,0,0-1,1V9a1,1,0,0,0,2,0V5A1,1,0,0,0,45,4Z" style="fill:#1b1a1e"/><path d="M51,4a1,1,0,0,0-1,1V9a1,1,0,0,0,2,0V5A1,1,0,0,0,51,4Z" style="fill:#1b1a1e"/><path d="M62,12H58V1a1,1,0,0,0-1-1H39a1,1,0,0,0-1,1V12H34a1,1,0,0,0-1,1V49a15,15,0,0,0,30,0V13A1,1,0,0,0,62,12ZM35,49V18H61V49c0,.3375-.0253.6689-.0507,1H35.0507C35.0253,49.6689,35,49.3375,35,49ZM40,2H56V12H40ZM61,14v2H35V14ZM48,62A13.0126,13.0126,0,0,1,35.3633,52H60.6367A13.0126,13.0126,0,0,1,48,62Z" style="fill:#1b1a1e"/><path d="M16,40A15.017,15.017,0,0,0,1,55v8a1,1,0,0,0,1,1H30a1,1,0,0,0,1-1V55A15.017,15.017,0,0,0,16,40ZM3,62V59H29v3Zm26-5H3V55a13,13,0,0,1,26,0Z" style="fill:#1b1a1e"/></g></svg>