<svg xmlns="http://www.w3.org/2000/svg" viewBox="0 0 64 64"><title>64-9</title><g id="Paper_CLip" data-name="Paper CLip"><path d="M32,0A15.0167,15.0167,0,0,0,17,15V53a11,11,0,0,0,22,0V15a7,7,0,0,0-14,0V44a1,1,0,0,0,1,1h4a1,1,0,0,0,1-1V15a1,1,0,0,1,2,0V53a5,5,0,0,1-10,0V15a9,9,0,0,1,18,0V33a1,1,0,0,0,1,1h4a1,1,0,0,0,1-1V15A15.0167,15.0167,0,0,0,32,0ZM45,32H43V15a11,11,0,0,0-22,0V53a7,7,0,0,0,14,0V15a3,3,0,0,0-6,0V43H27V15a5,5,0,0,1,10,0V53a9,9,0,0,1-18,0V15a13,13,0,0,1,26,0Z" style="fill:#1b1a1e"/></g></svg>