<svg width="70" height="70" viewBox="0 0 70 70" fill="none" xmlns="http://www.w3.org/2000/svg">
<rect width="70" height="70" fill="white"/>
<path d="M10.3647 31.0665C10.155 31.154 9.93119 31.2025 9.70412 31.2097C9.2146 31.2097 8.92359 30.9664 8.92359 30.3597V28.332H10.6484V26.853H8.92498V25.1265H7.0611V26.8513H6V28.3303H7.0611V30.5446C7.0611 32.0827 7.93585 32.874 9.39052 32.874C9.94888 32.8743 10.4973 32.7266 10.9801 32.4461L10.3647 31.0665Z" fill="#191918"/>
<path d="M15.2683 26.6771C14.9328 26.6686 14.5991 26.7294 14.288 26.8555C13.977 26.9817 13.6952 27.1705 13.4604 27.4103V24.4648H11.5979V32.7009H13.4618V29.9849C13.4618 28.8542 13.9391 28.3543 14.662 28.3543C15.2683 28.3543 15.6758 28.8191 15.6758 29.5075V32.6988H17.5275V29.1105C17.5296 27.6436 16.6204 26.6771 15.2683 26.6771Z" fill="#191918"/>
<path d="M22.6258 30.7101C22.4866 30.9516 22.2761 31.1441 22.0232 31.2612C21.7702 31.3783 21.4873 31.4143 21.2131 31.3643C20.9389 31.3143 20.6869 31.1806 20.4916 30.9817C20.2964 30.7828 20.1675 30.5283 20.1225 30.2533H24.4101V29.7763C24.3753 27.864 23.0479 26.6771 21.3929 26.6771C20.9832 26.6669 20.5756 26.7401 20.195 26.8922C19.8143 27.0443 19.4686 27.2722 19.1788 27.5621C18.8889 27.8519 18.661 28.1977 18.5089 28.5783C18.3567 28.9589 18.2836 29.3665 18.2938 29.7763C18.2824 30.1854 18.3544 30.5925 18.5053 30.9729C18.6563 31.3534 18.8831 31.6991 19.1719 31.9891C19.4607 32.279 19.8055 32.5072 20.1853 32.6597C20.5651 32.8122 20.972 32.8859 21.3811 32.8761C22.6348 32.8761 23.6445 32.3546 24.1792 31.2744L22.6258 30.7101ZM21.3926 28.1909C21.6652 28.1824 21.9321 28.2698 22.1469 28.4379C22.3618 28.6059 22.5109 28.8439 22.5684 29.1105H20.1577C20.2359 28.8439 20.3987 28.61 20.6216 28.4441C20.8444 28.2782 21.1151 28.1893 21.3929 28.1909H21.3926Z" fill="#191918"/>
<path d="M63.845 43.0755C63.8483 43.4245 63.7476 43.7667 63.5559 44.0584C63.3641 44.35 63.09 44.5781 62.7683 44.7135C62.4465 44.849 62.0918 44.8857 61.7492 44.819C61.4066 44.7522 61.0915 44.5851 60.8442 44.3389C60.5968 44.0926 60.4282 43.7784 60.3599 43.436C60.2916 43.0937 60.3267 42.7388 60.4607 42.4165C60.5946 42.0942 60.8215 41.819 61.1123 41.6259C61.4031 41.4328 61.7447 41.3306 62.0938 41.3323C62.5547 41.3392 62.9949 41.5248 63.3216 41.8501C63.6483 42.1753 63.836 42.6146 63.845 43.0755V43.0755Z" fill="#191918"/>
<path d="M33.332 32.8219H31.4355V32.3505C30.9255 32.7956 30.2644 33.0286 29.5879 33.0016C29.2013 33.0065 28.8179 32.9299 28.4629 32.7767C28.1078 32.6236 27.789 32.3973 27.5273 32.1126C27.2411 31.8089 27.0182 31.4514 26.8716 31.0607C26.7249 30.67 26.6574 30.2541 26.673 29.8371C26.6587 29.4221 26.7268 29.0084 26.8735 28.6199C27.0201 28.2314 27.2423 27.8758 27.5273 27.5738C27.7892 27.2893 28.108 27.0631 28.463 26.9099C28.818 26.7568 29.2013 26.6801 29.5879 26.6848C30.2644 26.6578 30.9255 26.8908 31.4355 27.3359V26.8617H33.332V32.8219ZM30.9992 30.9601C31.1416 30.8152 31.2528 30.6426 31.3261 30.4531C31.3993 30.2635 31.433 30.061 31.4251 29.858C31.4303 29.6553 31.3953 29.4535 31.3222 29.2644C31.2491 29.0752 31.1393 28.9024 30.9992 28.7558C30.8668 28.6183 30.7082 28.5087 30.5327 28.4334C30.3573 28.3582 30.1685 28.3188 29.9776 28.3177C29.7867 28.3165 29.5976 28.3537 29.4212 28.4268C29.2449 28.5 29.085 28.6077 28.951 28.7437C28.8142 28.8916 28.7081 29.0651 28.6388 29.2543C28.5695 29.4435 28.5384 29.6445 28.5474 29.8458C28.5376 30.0487 28.5683 30.2516 28.6376 30.4426C28.7069 30.6336 28.8134 30.8089 28.951 30.9584C29.0831 31.0978 29.2431 31.2078 29.4207 31.2812C29.5982 31.3546 29.7892 31.3897 29.9812 31.3843C30.1708 31.3868 30.359 31.3504 30.5341 31.2774C30.7092 31.2044 30.8675 31.0963 30.9992 30.9598V30.9601Z" fill="#191918"/>
<path d="M40.9412 32.2524C40.9611 32.6481 40.8879 33.043 40.7275 33.4053C40.567 33.7676 40.3239 34.0872 40.0175 34.3384C39.3233 34.8611 38.4684 35.1247 37.6004 35.0839C36.1913 35.0839 35.1959 34.6107 34.6139 33.65L36.1889 32.7958C36.3637 33.0246 36.5806 33.2178 36.8279 33.3653C37.0602 33.4764 37.3161 33.5292 37.5733 33.519C37.9644 33.5338 38.3462 33.3982 38.6403 33.14C38.782 33.0024 38.8923 32.8358 38.9637 32.6517C39.0351 32.4675 39.0659 32.2701 39.0541 32.073V31.9072C38.5512 32.3085 37.9185 32.5111 37.2761 32.4766C36.8988 32.4822 36.5244 32.4103 36.176 32.2656C35.8275 32.1208 35.5124 31.9062 35.2502 31.6349C34.9752 31.3629 34.7587 31.0375 34.614 30.6788C34.4692 30.3201 34.3993 29.9356 34.4084 29.5489C34.3994 29.1674 34.4695 28.7881 34.6144 28.4351C34.7593 28.082 34.9757 27.7628 35.2502 27.4976C35.5155 27.2321 35.8317 27.0229 36.1798 26.8825C36.5279 26.7421 36.9008 26.6733 37.2761 26.6802C37.9185 26.6461 38.551 26.8487 39.0541 27.2497V26.8586H40.9138L40.9412 32.2524ZM37.6703 30.9844C37.8539 30.9883 38.0363 30.9557 38.2072 30.8885C38.378 30.8214 38.5339 30.721 38.6657 30.5933C38.7983 30.4669 38.9027 30.3141 38.9723 30.1447C39.0418 29.9753 39.0749 29.7931 39.0694 29.6101C39.0748 29.4289 39.0417 29.2486 38.9721 29.0812C38.9025 28.9139 38.798 28.7632 38.6657 28.6394C38.5339 28.5116 38.378 28.4113 38.2072 28.3441C38.0363 28.277 37.8539 28.2444 37.6703 28.2482C37.2943 28.2355 36.9285 28.3717 36.6523 28.6272C36.5234 28.7509 36.4219 28.9004 36.3545 29.0659C36.2872 29.2314 36.2554 29.4092 36.2612 29.5878C36.2557 29.769 36.2889 29.9493 36.3585 30.1166C36.4281 30.284 36.5325 30.4346 36.6649 30.5585C36.8023 30.6884 36.9641 30.7898 37.1409 30.857C37.3177 30.9241 37.506 30.9556 37.695 30.9497L37.6703 30.9844Z" fill="#191918"/>
<path d="M42.4818 32.8309V26.8857H44.3763V32.8341H42.4818V32.8309ZM44.5296 25.1021C44.5288 25.319 44.4638 25.5307 44.3428 25.7106C44.2218 25.8905 44.0503 26.0306 43.8498 26.1132C43.6493 26.1958 43.4288 26.2171 43.2162 26.1746C43.0036 26.132 42.8084 26.0274 42.6551 25.8741C42.5018 25.7207 42.3974 25.5254 42.355 25.3128C42.3125 25.1001 42.334 24.8797 42.4167 24.6792C42.4994 24.4788 42.6396 24.3073 42.8196 24.1864C42.9996 24.0656 43.2114 24.0007 43.4282 24C43.573 23.9998 43.7163 24.0282 43.8501 24.0835C43.9838 24.1389 44.1054 24.2201 44.2077 24.3224C44.31 24.4248 44.3911 24.5464 44.4464 24.6802C44.5016 24.814 44.5299 24.9574 44.5296 25.1021V25.1021Z" fill="#191918"/>
<path d="M45.929 32.8094V24.4652H47.8235V32.8094H45.929Z" fill="#191918"/>
<path d="M55.1236 30.3458H50.7628C50.8256 30.6677 50.9874 30.9619 51.2255 31.1875C51.4492 31.3897 51.7413 31.4996 52.0429 31.4948C52.298 31.5152 52.5535 31.4612 52.7785 31.3394C53.0035 31.2176 53.1884 31.0332 53.3109 30.8085L54.9926 31.1527C54.7772 31.7278 54.3774 32.2154 53.8557 32.5392C53.3056 32.8576 52.6782 33.0178 52.0429 33.002C51.6261 33.0107 51.212 32.9346 50.8255 32.7784C50.439 32.6221 50.0884 32.389 49.7947 32.0932C49.5011 31.7973 49.2707 31.4448 49.1174 31.0572C48.9641 30.6696 48.8912 30.2548 48.903 29.8381C48.8927 29.4215 48.967 29.0071 49.1216 28.6201C49.2762 28.2331 49.5079 27.8815 49.8025 27.5867C50.0971 27.2919 50.4485 27.06 50.8354 26.9052C51.2223 26.7503 51.6367 26.6757 52.0533 26.6858C52.4548 26.6745 52.8543 26.7455 53.2273 26.8943C53.6003 27.0431 53.939 27.2667 54.2225 27.5511C54.5137 27.855 54.7421 28.2133 54.8946 28.6056C55.0472 28.9978 55.1209 29.4163 55.1115 29.8371L55.1236 30.3458ZM51.2853 28.4961C51.0455 28.6593 50.8726 28.9037 50.7986 29.1842H53.2504C53.1859 28.9057 53.026 28.6586 52.7984 28.4857C52.5817 28.3288 52.3205 28.2456 52.053 28.2482C51.7775 28.2491 51.5092 28.3357 51.2853 28.4961V28.4961Z" fill="#191918"/>
<path d="M14.6619 38.7904C14.9664 38.7832 15.2689 38.8395 15.5503 38.9559C15.8317 39.0723 16.0857 39.2461 16.296 39.4663C16.5155 39.6982 16.6862 39.9718 16.7981 40.2709C16.9099 40.57 16.9606 40.8884 16.9472 41.2074V44.9276H15.0628V41.609C15.0771 41.3138 14.9748 41.0247 14.7781 40.8041C14.6881 40.7056 14.5782 40.6272 14.4557 40.5742C14.3332 40.5212 14.2009 40.4948 14.0674 40.4968C13.9048 40.4913 13.743 40.5238 13.5951 40.5917C13.4472 40.6596 13.3171 40.761 13.2153 40.8879C12.9828 41.2104 12.8699 41.6038 12.8958 42.0005V44.915H10.9995V41.5986C11.0138 41.3033 10.9115 41.0143 10.7148 40.7937C10.6235 40.6932 10.5117 40.6136 10.3869 40.5602C10.2621 40.5068 10.1273 40.4809 9.99163 40.4843C9.83202 40.4774 9.67311 40.5094 9.5286 40.5775C9.38408 40.6456 9.2583 40.7479 9.16208 40.8754C8.94307 41.2034 8.83868 41.5945 8.86517 41.988V44.9025H6.97278V38.9566H8.86934V39.5014C9.09074 39.2598 9.36255 39.0697 9.66554 38.9447C9.96853 38.8198 10.2953 38.7629 10.6227 38.7782C11.0078 38.7533 11.3924 38.834 11.735 39.0117C12.0776 39.1894 12.3651 39.4573 12.5665 39.7865C12.8069 39.4596 13.1238 39.1966 13.4896 39.0208C13.8553 38.845 14.2586 38.7617 14.664 38.7782V38.7904H14.6619Z" fill="#191918"/>
<path d="M23.5256 39.6794C23.8355 39.9622 24.0808 40.3087 24.2445 40.6951C24.4082 41.0815 24.4865 41.4986 24.474 41.9181C24.4876 42.3413 24.4099 42.7625 24.2462 43.153C24.0826 43.5436 23.8368 43.8943 23.5256 44.1814C22.8994 44.7639 22.0702 45.0785 21.2153 45.0579C20.3499 45.0776 19.5102 44.7638 18.8698 44.1814C18.5549 43.8966 18.3059 43.5466 18.14 43.1557C17.9741 42.7648 17.8953 42.3425 17.9092 41.9181C17.8962 41.4974 17.9754 41.079 18.1414 40.6923C18.3073 40.3055 18.556 39.9598 18.8698 39.6794C19.5096 39.0961 20.3498 38.7822 21.2153 38.8029C22.0704 38.7815 22.8998 39.0962 23.5256 39.6794ZM22.2228 43.0428C22.4969 42.7413 22.6488 42.3484 22.6488 41.9409C22.6488 41.5333 22.4969 41.1405 22.2228 40.8389C22.095 40.7038 21.9408 40.5963 21.7699 40.523C21.5989 40.4497 21.4148 40.4122 21.2288 40.4127C21.0374 40.4115 20.8477 40.4486 20.6708 40.5217C20.4939 40.5948 20.3334 40.7026 20.1987 40.8386C20.0519 40.9813 19.937 41.1534 19.8614 41.3436C19.7859 41.5339 19.7514 41.7379 19.7602 41.9424C19.7523 42.1455 19.786 42.348 19.8592 42.5375C19.9325 42.7271 20.0437 42.8996 20.1861 43.0446C20.3197 43.1821 20.48 43.2909 20.6571 43.3641C20.8343 43.4373 21.0246 43.4735 21.2163 43.4705C21.4047 43.4727 21.5916 43.4359 21.7651 43.3623C21.9386 43.2887 22.0949 43.1799 22.2242 43.0428H22.2228Z" fill="#191918"/>
<path d="M29.2375 38.7904C29.5497 38.7773 29.8612 38.8308 30.1511 38.9473C30.4411 39.0638 30.7029 39.2408 30.9192 39.4663C31.3605 39.9551 31.5902 40.5987 31.5583 41.2565V44.9071H29.6739V41.658C29.6879 41.3517 29.5863 41.0512 29.3891 40.8163C29.2974 40.7124 29.1841 40.63 29.057 40.5747C28.9299 40.5195 28.7923 40.4929 28.6538 40.4968C28.4822 40.487 28.3108 40.5185 28.154 40.5888C27.9972 40.659 27.8595 40.7659 27.7526 40.9005C27.5128 41.2687 27.4005 41.7055 27.4331 42.1437V44.905H25.5383V38.9566H27.4327V39.5244C27.6668 39.2779 27.9505 39.084 28.2651 38.9555C28.5797 38.827 28.9181 38.7668 29.2577 38.7789L29.2375 38.7904Z" fill="#191918"/>
<path d="M37.1172 44.9025L35.1859 42.7581H34.8417V44.9025H32.9468V36.599H34.8417V40.9822H35.1017L36.9861 38.9563H39.2742L36.6666 41.7891L39.5464 44.9046H37.1172V44.9025Z" fill="#191918"/>
<path d="M45.7315 42.4386H41.3713C41.4342 42.7605 41.5959 43.0548 41.8341 43.2803C42.0578 43.4825 42.3499 43.5924 42.6515 43.5876C42.9066 43.608 43.1621 43.554 43.3871 43.4322C43.6121 43.3104 43.797 43.126 43.9194 42.9013L45.6012 43.2455C45.3858 43.8206 44.986 44.3082 44.4643 44.632C43.9142 44.9505 43.2868 45.1106 42.6515 45.0948C42.2339 45.0985 41.8198 45.0193 41.4331 44.8619C41.0463 44.7045 40.6946 44.472 40.3983 44.1778C40.102 43.8836 39.867 43.5336 39.7068 43.148C39.5466 42.7623 39.4645 42.3488 39.4652 41.9313C39.4658 41.5137 39.5493 41.1004 39.7107 40.7153C39.8721 40.3302 40.1082 39.981 40.4055 39.6877C40.7027 39.3945 41.0552 39.1631 41.4424 39.0069C41.8297 38.8507 42.244 38.7729 42.6616 38.7779C43.0629 38.7665 43.4624 38.8373 43.8354 38.986C44.2084 39.1346 44.5471 39.3579 44.8307 39.6422C45.1219 39.9461 45.3503 40.3044 45.5029 40.6967C45.6554 41.0889 45.7291 41.5074 45.7197 41.9282L45.7315 42.4386ZM41.8932 40.591C41.6533 40.7542 41.4805 40.9986 41.4065 41.2791H43.8583C43.7938 41.0006 43.6339 40.7535 43.4063 40.5806C43.1896 40.4237 42.9284 40.3405 42.6609 40.3431C42.3857 40.3441 42.1176 40.4308 41.8939 40.591H41.8932Z" fill="#191918"/>
<path d="M49.5254 46.918H47.4741L48.4347 44.7019L45.9718 38.9441H48.0099L49.419 42.416L50.9244 38.9441H52.9625L49.5254 46.918Z" fill="#191918"/>
<path d="M55.0478 42.9834C55.1299 43.4461 55.4862 43.6819 56.1148 43.6819C56.3144 43.6916 56.5124 43.6425 56.6843 43.5407C56.7466 43.5066 56.7989 43.457 56.8362 43.3967C56.8736 43.3364 56.8947 43.2674 56.8974 43.1965C56.8974 42.9712 56.6968 42.8297 56.3064 42.7581L55.0979 42.5206C53.9488 42.2953 53.3692 41.7258 53.3692 40.792C53.3619 40.5097 53.4227 40.2298 53.5464 39.9759C53.6701 39.7221 53.8531 39.5017 54.0799 39.3335C54.6154 38.9452 55.2665 38.7491 55.9274 38.7772C56.5598 38.7522 57.1857 38.9131 57.7277 39.24C57.9512 39.3776 58.1449 39.5584 58.2976 39.7719C58.4502 39.9854 58.5587 40.2273 58.6167 40.4833L56.886 40.8275C56.8684 40.7274 56.8311 40.6319 56.7763 40.5464C56.7214 40.4609 56.6501 40.3872 56.5665 40.3296C56.3691 40.1905 56.1319 40.1193 55.8906 40.1269C55.7087 40.1101 55.5271 40.1611 55.3805 40.2701C55.3314 40.3101 55.2921 40.3608 55.2654 40.4182C55.2388 40.4757 55.2256 40.5385 55.2269 40.6018C55.2269 40.8149 55.3805 40.9582 55.6788 41.0155L57.0758 41.3003C57.546 41.3719 57.9794 41.5965 58.309 41.9393C58.5859 42.2524 58.7348 42.6583 58.7262 43.0762C58.7387 43.3661 58.6767 43.6544 58.5462 43.9136C58.4157 44.1728 58.2211 44.3943 57.9808 44.557C57.3982 44.9267 56.7162 45.1088 56.0269 45.0785C55.3727 45.0993 54.7241 44.9527 54.1425 44.6526C53.8994 44.5228 53.6906 44.3372 53.5332 44.111C53.3758 43.8849 53.2743 43.6246 53.2371 43.3516L55.0478 42.9834Z" fill="#191918"/>
</svg>
