<svg width="60" height="60" viewBox="0 0 60 60" fill="none" xmlns="http://www.w3.org/2000/svg">
<path d="M29.418 15.7672C22.0106 15.7672 15.873 21.7989 15.873 29.3122C15.873 36.8254 21.9048 42.8571 29.418 42.8571C36.9313 42.8571 42.963 36.7196 42.963 29.3122C42.963 21.9047 36.8254 15.7672 29.418 15.7672ZM29.418 37.9894C24.6561 37.9894 20.7408 34.0741 20.7408 29.3122C20.7408 24.5502 24.6561 20.6349 29.418 20.6349C34.1799 20.6349 38.0953 24.5502 38.0953 29.3122C38.0953 34.0741 34.1799 37.9894 29.418 37.9894Z" fill="white"/>
<path d="M43.4921 18.5185C45.1869 18.5185 46.5608 17.1446 46.5608 15.4497C46.5608 13.7549 45.1869 12.381 43.4921 12.381C41.7972 12.381 40.4233 13.7549 40.4233 15.4497C40.4233 17.1446 41.7972 18.5185 43.4921 18.5185Z" fill="white"/>
<path d="M51.4286 7.51321C48.6773 4.65607 44.7619 3.17459 40.3175 3.17459H18.5185C9.31219 3.17459 3.17462 9.31216 3.17462 18.5185V40.2116C3.17462 44.7619 4.6561 48.6772 7.61907 51.5344C10.4762 54.2857 14.2857 55.6614 18.6244 55.6614H40.2117C44.7619 55.6614 48.5714 54.1799 51.3228 51.5344C54.1799 48.7831 55.6614 44.8677 55.6614 40.3175V18.5185C55.6614 14.0741 54.1799 10.2645 51.4286 7.51321ZM51.0053 40.3175C51.0053 43.5979 49.8413 46.2434 47.9365 48.0423C46.0318 49.8413 43.3863 50.7936 40.2117 50.7936H18.6244C15.4498 50.7936 12.8043 49.8413 10.8995 48.0423C8.99473 46.1376 8.04235 43.4921 8.04235 40.2116V18.5185C8.04235 15.3439 8.99473 12.6984 10.8995 10.7936C12.6984 8.9947 15.4498 8.04232 18.6244 8.04232H40.4233C43.5979 8.04232 46.2434 8.9947 48.1482 10.8995C49.9471 12.8042 51.0053 15.4497 51.0053 18.5185V40.3175Z" fill="white"/>
</svg>
