<svg width="60" height="60" viewBox="0 0 60 60" fill="none" xmlns="http://www.w3.org/2000/svg">
<path d="M15.0735 55.8291H4.18158V19.5226H15.0735V55.8291ZM55.0108 55.8291H44.1188V36.4342C44.1188 31.3803 42.318 28.8643 38.749 28.8643C35.9208 28.8643 34.1272 30.273 33.2268 33.094C33.2268 37.6759 33.2268 55.8291 33.2268 55.8291H22.3349C22.3349 55.8291 22.4801 23.1532 22.3349 19.5226H30.9322L31.5967 26.7839H31.8218C34.0546 23.1532 37.6235 20.6917 42.5177 20.6917C46.2391 20.6917 49.2489 21.7264 51.5471 24.3259C53.8598 26.9291 55.0108 30.4218 55.0108 35.3268V55.8291Z" fill="white"/>
<path d="M9.62751 15.892C12.7355 15.892 15.255 13.4537 15.255 10.446C15.255 7.43825 12.7355 5 9.62751 5C6.51952 5 4 7.43825 4 10.446C4 13.4537 6.51952 15.892 9.62751 15.892Z" fill="white"/>
</svg>
