<svg width="60" height="60" viewBox="0 0 60 60" fill="none" xmlns="http://www.w3.org/2000/svg">
<g clip-path="url(#clip0_44_10)">
<path d="M57.5275 23.83C58.23 20.8125 60.465 17.79 60.465 17.79H50.435C44.8075 14.1525 37.9825 12.225 30.4025 12.225C22.5525 12.225 15.4575 14.175 9.86753 17.8525H0.465027C0.465027 17.8525 2.67753 20.8175 3.39003 23.8175C1.56003 26.335 0.472527 29.3725 0.472527 32.71C0.472527 41 7.21503 47.73 15.5025 47.73C20.23 47.73 24.43 45.5175 27.205 42.095L30.3925 46.885L33.62 42.045C35.045 43.885 36.92 45.385 39.1325 46.395C42.77 48.045 46.8625 48.235 50.6125 46.845C58.3775 43.96 62.3525 35.2925 59.5025 27.53C58.98 26.14 58.3025 24.9025 57.4775 23.8175L57.5275 23.83V23.83ZM49.6 44.01C46.6 45.1225 43.3375 44.9975 40.425 43.6525C38.365 42.695 36.6675 41.1975 35.455 39.335C34.9525 38.5875 34.5175 37.7775 34.1975 36.9075C33.8325 35.92 33.6475 34.9 33.55 33.87C33.365 31.79 33.6625 29.6875 34.5625 27.7375C35.9125 24.8275 38.315 22.61 41.315 21.4975C47.54 19.2125 54.44 22.4 56.73 28.6C59.02 34.8025 55.83 41.7125 49.6425 44.0075H49.6V44.01ZM25.43 39.425C23.2725 42.6025 19.625 44.7075 15.4975 44.7075C8.88253 44.7075 3.49503 39.3175 3.49503 32.715C3.49503 26.1125 8.88503 20.71 15.4975 20.71C22.11 20.71 27.4925 26.1125 27.4925 32.715C27.4925 33.125 27.4175 33.5 27.3725 33.9125C27.17 35.94 26.52 37.8525 25.43 39.465V39.425V39.425ZM7.87503 32.5575C7.87503 36.66 11.215 39.985 15.3025 39.985C19.39 39.985 22.7225 36.66 22.7225 32.5575C22.7225 28.47 19.39 25.1475 15.3075 25.1475C11.2175 25.1475 7.88003 28.47 7.88003 32.5575H7.87503ZM37.995 32.5575C37.995 36.66 41.3175 39.985 45.415 39.985C49.505 39.985 52.8275 36.66 52.8275 32.5575C52.8275 28.47 49.505 25.1475 45.415 25.1475C41.3275 25.1475 37.9875 28.47 37.9875 32.5575H37.995ZM10.44 32.5575C10.44 29.88 12.6125 27.7 15.28 27.7C17.94 27.7 20.1525 29.8825 20.1525 32.5575C20.1525 35.2475 17.98 37.435 15.28 37.435C12.5775 37.435 10.4025 35.2475 10.4025 32.5575H10.44V32.5575ZM40.5225 32.5575C40.5225 29.88 42.695 27.7 45.395 27.7C48.06 27.7 50.2375 29.8825 50.2375 32.5575C50.2375 35.2475 48.0625 37.435 45.3575 37.435C42.66 37.435 40.485 35.2475 40.485 32.5575H40.5225ZM30.39 14.85C35.7925 14.85 40.6675 15.8225 44.945 17.755C43.3325 17.8 41.7575 18.0825 40.18 18.655C36.3925 20.0425 33.3925 22.8175 31.7425 26.4675C30.955 28.1175 30.5425 29.865 30.39 31.63C29.8275 23.94 23.49 17.8425 15.6875 17.685C19.965 15.85 24.9175 14.85 30.28 14.85H30.39Z" fill="white"/>
</g>
<defs>
<clipPath id="clip0_44_10">
<rect width="60" height="60" fill="white"/>
</clipPath>
</defs>
</svg>
