<svg width="60" height="60" viewBox="0 0 60 60" fill="none" xmlns="http://www.w3.org/2000/svg">
<path d="M19.9254 53C41.4349 53 53.1997 35.3009 53.1997 19.9523C53.1997 19.4496 53.1997 18.9492 53.1655 18.451C55.4542 16.8067 57.4299 14.771 59 12.4388C56.8657 13.3781 54.6014 13.994 52.2831 14.2662C54.7239 12.8151 56.5518 10.5309 57.4245 7.84188C55.129 9.1947 52.6173 10.1483 49.9986 10.6612C47.7874 8.32584 44.6991 7 41.4716 7C35.05 7 29.766 12.2481 29.766 18.6258C29.766 19.5106 29.8678 20.3926 30.069 21.2544C20.671 20.7865 11.9025 16.3715 5.96718 9.11907C2.88072 14.3961 4.47772 21.2349 9.58779 24.6239C7.72694 24.5691 5.90606 24.0705 4.28 23.1701V23.3173C4.28156 28.8252 8.22625 33.6125 13.6622 34.7031C11.9406 35.1694 10.1339 35.2375 8.38177 34.9023C9.90997 39.622 14.3168 42.8753 19.3075 42.9684C15.1672 46.2001 10.0498 47.9555 4.78387 47.9503C3.85339 47.9485 2.9238 47.8925 2 47.7826C7.34754 51.191 13.5714 52.9993 19.9254 52.9909" fill="white"/>
</svg>
