<svg width="60" height="60" viewBox="0 0 60 60" fill="none" xmlns="http://www.w3.org/2000/svg">
<path d="M28.39 49.8289V50.1869C26.8751 48.2481 25.5949 46.1626 24.562 43.966H25.1771C25.7683 43.966 26.2241 43.4393 26.1316 42.8554C26.0706 42.4708 26.0247 42.0811 25.9945 41.6872C25.956 41.1841 25.5371 40.7953 25.0323 40.7953H23.272C22.2493 37.8488 21.646 34.7463 21.4959 31.5607H28.39C28.39 31.8444 28.7496 31.9652 28.9213 31.7391C29.7282 30.6769 30.677 29.7282 31.7391 28.9213C31.965 28.7496 31.8444 28.39 31.5607 28.39V19.1553H36.6786C37.3988 21.2299 37.9102 23.382 38.2025 25.5857C38.2419 25.8828 38.5153 26.0902 38.8129 26.0544C39.4803 25.9741 40.1427 25.9411 40.8075 25.9529C41.1457 25.9589 41.4094 25.6662 41.3665 25.3308C41.0972 23.2236 40.6454 21.1588 40.0184 19.1553H50.0451C51.5512 21.9378 52.4944 25.0672 52.7237 28.39H49.77C49.4201 28.39 49.2669 28.832 49.5425 29.0475C50.3208 29.656 51.0362 30.3415 51.6768 31.0927C51.9281 31.3875 52.2931 31.5608 52.6805 31.5608H52.7238C52.7155 31.6811 52.7059 31.8013 52.6954 31.921C52.6702 32.2071 52.7374 32.4941 52.8916 32.7364C53.5676 33.7984 54.1099 34.9532 54.4954 36.1771C54.6073 36.5325 55.1157 36.5222 55.2046 36.1601C55.6915 34.177 55.9506 32.1058 55.9506 29.9753C55.9506 15.6457 44.2876 4.00049 29.9762 4C29.9755 4 29.9751 4 29.9745 4C15.6508 4.00049 4 15.6582 4 29.9753C4 44.2972 15.6556 55.9506 29.9753 55.9506C32.0782 55.9506 34.1229 55.6983 36.0819 55.2239C36.4677 55.1305 36.4852 54.5943 36.1073 54.4731C33.3039 53.5742 30.8668 51.85 29.083 49.5875C28.8548 49.2982 28.39 49.4603 28.39 49.8289ZM47.9713 15.9846H38.8593C37.585 12.9543 35.8897 10.1004 33.8051 7.49398C39.5332 8.46678 44.5407 11.582 47.9713 15.9846ZM31.5607 9.76383C33.0755 11.7026 34.3557 13.7882 35.3887 15.9847H31.5607V9.76383ZM28.39 28.39H21.4959C21.646 25.2044 22.2493 22.1019 23.272 19.1553H28.39V28.39ZM28.39 15.9846H24.562C25.5949 13.7881 26.8751 11.7026 28.39 9.76371V15.9846ZM26.1455 7.49398C24.0607 10.1005 22.3656 12.9544 21.0913 15.9846H11.9794C15.4099 11.582 20.4174 8.46678 26.1455 7.49398ZM9.90542 19.1553H19.9321C19.0045 22.1197 18.4596 25.2178 18.3232 28.39H7.22667C7.45606 25.0672 8.39922 21.9378 9.90542 19.1553ZM9.90542 40.7953C8.39922 38.0128 7.45606 34.8834 7.22667 31.5607H18.3232C18.4595 34.7328 19.0045 37.8309 19.9321 40.7953H9.90542ZM11.9793 43.966H21.0911C22.3655 46.9963 24.0607 49.8502 26.1455 52.4566C20.4174 51.4838 15.4099 48.3686 11.9793 43.966Z" fill="white"/>
<path d="M55.7507 53.5087L50.2079 47.9658C56.335 40.0027 50.6365 28.3892 40.559 28.3892C33.8485 28.3892 28.3892 33.8485 28.3892 40.5588C28.3892 50.6471 40.0135 56.3268 47.9658 50.2077L53.5087 55.7506C54.1276 56.3696 55.1316 56.3697 55.7507 55.7506C56.3699 55.1316 56.3699 54.1278 55.7507 53.5087ZM31.5599 40.559C31.5599 35.5969 35.5969 31.56 40.559 31.56C45.521 31.56 49.5579 35.5969 49.5579 40.559C49.5579 45.521 45.521 49.5579 40.559 49.5579C35.5969 49.5579 31.5599 45.521 31.5599 40.559Z" fill="white"/>
</svg>
