<svg width="60" height="60" viewBox="0 0 60 60" fill="none" xmlns="http://www.w3.org/2000/svg">
<path d="M58.7463 15.4205C58.0561 12.8933 56.023 10.9028 53.4414 10.2272C48.7625 9 30 9 30 9C30 9 11.2375 9 6.55829 10.2274C3.97684 10.903 1.94375 12.8933 1.25374 15.4207C-1.24393e-07 20.0014 0 29.5591 0 29.5591C0 29.5591 -1.24393e-07 39.117 1.25374 43.6976C1.94375 46.2249 3.97684 48.1324 6.55829 48.8081C11.2375 50.0354 30 50.0354 30 50.0354C30 50.0354 48.7625 50.0354 53.4414 48.808C56.023 48.1323 58.0561 46.2247 58.7463 43.6974C60 39.1168 60 29.559 60 29.559C60 29.559 60 20.0014 58.7463 15.4205Z" fill="white"/>
<path d="M23.8636 38.2367V20.8814L39.5453 29.5592L23.8636 38.2367Z" fill="#C4C4C4"/>
</svg>
