<svg id="SvgjsSvg1001" width="288" height="288" xmlns="http://www.w3.org/2000/svg" version="1.1" xmlns:xlink="http://www.w3.org/1999/xlink" xmlns:svgjs="http://svgjs.com/svgjs"><defs id="SvgjsDefs1002"></defs><g id="SvgjsG1008"><svg xmlns="http://www.w3.org/2000/svg" xmlns:svgjs="http://svgjs.com/svgjs" xmlns:xlink="http://www.w3.org/1999/xlink" width="288" height="288"><svg xmlns="http://www.w3.org/2000/svg" xmlns:svgjs="http://svgjs.com/svgjs" xmlns:xlink="http://www.w3.org/1999/xlink" width="288" height="288"><svg xmlns="http://www.w3.org/2000/svg" width="288" height="288" data-name="Layer 1" viewBox="0 0 24 24"><path fill="#5365cb" d="M17.35352,12.64648a.49983.49983,0,0,1,0,.707l-5,5a.49984.49984,0,0,1-.707,0l-5-5a.5.5,0,0,1,.707-.707L12,17.293l4.64648-4.64649A.49983.49983,0,0,1,17.35352,12.64648Zm0-7a.49983.49983,0,0,0-.707,0L12,10.293,7.35352,5.64648a.5.5,0,0,0-.707.707l5,5a.49984.49984,0,0,0,.707,0l5-5A.49983.49983,0,0,0,17.35352,5.64648Z" class="color000 svgShape colore4002b color4524cb"></path></svg></svg></svg></g></svg>