<svg width="40" height="40" viewBox="0 0 40 40" fill="none" xmlns="http://www.w3.org/2000/svg">
<path d="M5.4844 11.6172C6.34378 12.0703 18.2813 18.5781 18.7266 18.8125C19.1719 19.0469 19.625 19.1562 20.3282 19.1562C21.0313 19.1562 21.4844 19.0469 21.9297 18.8125C22.375 18.5781 34.3125 12.0703 35.1719 11.6172C35.4922 11.4531 36.0313 11.1563 36.1485 10.8203C36.3516 10.2266 36.1328 10 35.2657 10H20.3282H5.39065C4.52346 10 4.30471 10.2344 4.50784 10.8203C4.62503 11.1641 5.16409 11.4531 5.4844 11.6172Z" fill="url(#paint0_linear_6_14)"/>
<path d="M35.8516 11.9688C35.2109 12.2969 29.4609 16.3906 25.6563 18.8516L32.0781 26.0781C32.2344 26.2344 32.3047 26.4219 32.2188 26.5156C32.125 26.6016 31.9219 26.5547 31.7578 26.4063L24.0547 19.9063C22.8906 20.6563 22.0703 21.1719 21.9297 21.25C21.3281 21.5547 20.9063 21.5938 20.3281 21.5938C19.75 21.5938 19.3281 21.5547 18.7266 21.25C18.5781 21.1719 17.7656 20.6563 16.6016 19.9063L8.89844 26.4063C8.74219 26.5625 8.53125 26.6094 8.4375 26.5156C8.34375 26.4297 8.41406 26.2344 8.57031 26.0781L14.9844 18.8516C11.1797 16.3906 5.36719 12.2969 4.72656 11.9688C4.03906 11.6172 4 12.0313 4 12.3516C4 12.6719 4 28.3672 4 28.3672C4 29.0938 5.07031 30 5.83594 30H20.3281H34.8203C35.5859 30 36.5 29.0859 36.5 28.3672C36.5 28.3672 36.5 12.6641 36.5 12.3516C36.5 12.0234 36.5469 11.6172 35.8516 11.9688Z" fill="url(#paint1_linear_6_14)"/>
<defs>
<linearGradient id="paint0_linear_6_14" x1="20.3282" y1="10" x2="20.3282" y2="19.1562" gradientUnits="userSpaceOnUse">
<stop stop-color="#9C7AC6"/>
<stop offset="1" stop-color="#0FA5DA"/>
</linearGradient>
<linearGradient id="paint1_linear_6_14" x1="20.2503" y1="11.8333" x2="20.2503" y2="30" gradientUnits="userSpaceOnUse">
<stop stop-color="#9C7AC6"/>
<stop offset="1" stop-color="#0FA5DA"/>
</linearGradient>
</defs>
</svg>
