<svg xmlns="http://www.w3.org/2000/svg" viewBox="0 0 440 721"><defs><style>.cls-1{fill:#1b1a1e;}</style></defs><title>Office</title><g id="Briefcase_Desk" data-name="Briefcase Desk"><path class="cls-1" d="M439,696h-9V673a3,3,0,0,0-3-3h-7v-6a4,4,0,0,0-4-4H400a4,4,0,0,0-4,4v6h-7a3,3,0,0,0-3,3v23h-9a1,1,0,0,0-1,1v5a1,1,0,0,0,1,1h2v16a1,1,0,0,0,2,0V703h3v16a1,1,0,0,0,2,0v-8h44v8a1,1,0,0,0,2,0V703h3v16a1,1,0,0,0,2,0V703h2a1,1,0,0,0,1-1v-5A1,1,0,0,0,439,696Zm-43,0V683.17a40.35,40.35,0,0,0,9,1.71V686a2,2,0,0,0,2,2h2a2,2,0,0,0,2-2v-1.12a40.35,40.35,0,0,0,9-1.71V696Zm-3-13.91,1,.38V696h-1ZM407,686v-4h2v4Zm15-3.53,1-.38V696h-1Zm3-1.28a29.92,29.92,0,0,0,3-1.63V696h-3ZM398,664a2,2,0,0,1,2-2h16a2,2,0,0,1,2,2v6h-1v-6a1,1,0,0,0-1-1H400a1,1,0,0,0-1,1v6h-1Zm17,6H401v-5h14Zm-26,2h38a1,1,0,0,1,1,1v4.16a35.63,35.63,0,0,1-17,5.71V682a2,2,0,0,0-2-2h-2a2,2,0,0,0-2,2v.87a35.63,35.63,0,0,1-17-5.71V673A1,1,0,0,1,389,672Zm-1,7.56a29.92,29.92,0,0,0,3,1.63V696h-3ZM430,709H386v-6h44Zm8-8H378v-3h60Z" transform="translate(0 0)"/><path class="cls-1" d="M406,707h4a1,1,0,0,0,0-2h-4a1,1,0,0,0,0,2Z" transform="translate(0 0)"/></g><g id="Clip"><path class="cls-1" d="M343,707h-4.87l2.33-19.4a5,5,0,0,0-5-5.6H323.11c.3-.78.64-1.57,1-2.37a9,9,0,0,0-.3-9,9.69,9.69,0,0,0-8.23-4.64h-3.22a9.69,9.69,0,0,0-8.23,4.64,9,9,0,0,0-.31,9c.4.81.73,1.6,1,2.39H292.51a5,5,0,0,0-5,5.6l2.33,19.4H285a1,1,0,0,0-1,1v3a3,3,0,0,0,3,3h20a1,1,0,0,0,.83-.45l1.71-2.55h8.92l1.71,2.55a1,1,0,0,0,.83.45h20a3,3,0,0,0,3-3v-3A1,1,0,0,0,343,707Zm-7.51-23a3,3,0,0,1,3,3.36L336.11,707h-8.66c-1.54-1.8-8.58-10.87-5-23Zm-29.85-5.29a7,7,0,0,1,.23-7,7.68,7.68,0,0,1,6.52-3.68h3.22a7.68,7.68,0,0,1,6.52,3.68,7,7,0,0,1,.22,7.05A31.73,31.73,0,0,0,321,682H307A29.13,29.13,0,0,0,305.64,678.71Zm-16.11,8.65a3,3,0,0,1,3-3.36h13.06c3.56,12.14-3.48,21.2-5,23h-8.66ZM286,711v-2h14v2a1,1,0,0,1-1,1H287A1,1,0,0,1,286,711Zm33.83-1.55A1,1,0,0,0,319,709H309a1,1,0,0,0-.83.45L306.46,712h-4.64a3,3,0,0,0,.18-1v-2.63c1.53-1.81,9-11.55,5.62-24.37h12.75c-3.41,12.81,4.09,22.56,5.63,24.37V711a3,3,0,0,0,.18,1h-4.64ZM342,711a1,1,0,0,1-1,1H329a1,1,0,0,1-1-1v-2h14Z" transform="translate(0 0)"/></g><g id="Stapler"><path class="cls-1" d="M237,692a5,5,0,1,0,5,5A5,5,0,0,0,237,692Zm0,8a3,3,0,1,1,3-3A3,3,0,0,1,237,700Z" transform="translate(0 0)"/><path class="cls-1" d="M250.8,682.27a1,1,0,0,0-.65-.4L190.81,673a1,1,0,0,0-1.14.84l-.44,3a8,8,0,0,0,6.73,9.09l-.59,4a1,1,0,0,0,.84,1.14l30.9,4.61A9,9,0,0,0,227,697a10.2,10.2,0,0,0,.2,2H196a7,7,0,0,0-7,7,1,1,0,0,0,1,1h47a10,10,0,0,0,9.2-13.91,5,5,0,0,0,3.9-4.13l.89-6A1,1,0,0,0,250.8,682.27Zm-23.23,11.39-30.08-4.48.44-3,31.17,4.65a10.33,10.33,0,0,0-1.31,2.25h0C227.71,693.3,227.63,693.48,227.57,693.66ZM231,705H191.1a5,5,0,0,1,4.9-4h31.84A10.36,10.36,0,0,0,231,705Zm6,0a8,8,0,1,1,8-8A8,8,0,0,1,237,705Zm11.12-16.34a3,3,0,0,1-1.18,2,3.21,3.21,0,0,1-1.8.58,10,10,0,0,0-14.26-2.09l-34.63-5.18a6,6,0,0,1-5-6.82l.29-2,57.36,8.56Z" transform="translate(0 0)"/></g><g id="Adhesive"><path class="cls-1" d="M157,683H154a16.95,16.95,0,0,0-22.25-15.14h0L94.76,677a1,1,0,0,0-.76,1v30a5,5,0,0,0,5,5h52a7,7,0,0,0,7-7V684A1,1,0,0,0,157,683ZM152,683h-2a13,13,0,0,0-25.9,0h-2a15,15,0,0,1,29.9,0Zm-10,0h0a5,5,0,0,0-9.8,0h-6a11,11,0,0,1,21.9,0Zm-1.9,1a3,3,0,1,1-3-3A3,3,0,0,1,140,684Zm-20-1h-3a1,1,0,0,0-1,1v6.5a7.5,7.5,0,0,1-15,0V682a1,1,0,0,0-.38-.78l-3.42-2.74,28.4-7.05A16.92,16.92,0,0,0,120.05,683Zm36,23a5,5,0,0,1-5,5H99a3,3,0,0,1-3-3V680.08l3,2.4v8a9.5,9.5,0,0,0,19,0V685h14.1a5,5,0,0,0,9.8,0H156Z" transform="translate(0 0)"/><path class="cls-1" d="M152,690v10a1,1,0,0,0,2,0V690a1,1,0,0,0-2,0Z" transform="translate(0 0)"/></g><g id="Cabinet_Drawer" data-name="Cabinet Drawer"><path class="cls-1" d="M51,696H13a1,1,0,0,0-1,1v12a1,1,0,0,0,1,1H51a1,1,0,0,0,1-1V697A1,1,0,0,0,51,696Zm-1,12H14V698H50Z" transform="translate(0 0)"/><path class="cls-1" d="M32,707a4,4,0,1,0-4-4A4,4,0,0,0,32,707Zm0-6a2,2,0,1,1-2,2A2,2,0,0,1,32,701Z" transform="translate(0 0)"/><path class="cls-1" d="M51,680H13a1,1,0,0,0-1,1v12a1,1,0,0,0,1,1H51a1,1,0,0,0,1-1V681A1,1,0,0,0,51,680Zm-1,12H14V682H50Z" transform="translate(0 0)"/><path class="cls-1" d="M32,691a4,4,0,1,0-4-4A4,4,0,0,0,32,691Zm0-6a2,2,0,1,1-2,2A2,2,0,0,1,32,685Z" transform="translate(0 0)"/><path class="cls-1" d="M51,664H13a1,1,0,0,0-1,1v12a1,1,0,0,0,1,1H51a1,1,0,0,0,1-1V665A1,1,0,0,0,51,664Zm-1,12H14V666H50Z" transform="translate(0 0)"/><path class="cls-1" d="M32,675a4,4,0,1,0-4-4A4,4,0,0,0,32,675Zm0-6a2,2,0,1,1-2,2A2,2,0,0,1,32,669Z" transform="translate(0 0)"/><path class="cls-1" d="M54,659H10a3,3,0,0,0-3,3v50a3,3,0,0,0,3,3h2v5a1,1,0,0,0,1,1h9a1,1,0,0,0,.95-.68L24.72,715H39.28l1.77,5.32a1,1,0,0,0,1,.68h9a1,1,0,0,0,1-1v-5h2a3,3,0,0,0,3-3V662A3,3,0,0,0,54,659ZM21.28,719H14v-4h8.61ZM50,719H42.72l-1.33-4H50Zm5-7a1,1,0,0,1-1,1H10a1,1,0,0,1-1-1V662a1,1,0,0,1,1-1H54a1,1,0,0,1,1,1Z" transform="translate(0 0)"/></g><g id="Cutter"><path class="cls-1" d="M433,567a10.19,10.19,0,0,0-14.41,0l-29.31,29.3a1,1,0,0,0,0,1.42l1.8,1.79-10.8,10.79a1,1,0,0,0-.29.71v16a1,1,0,0,0,1.71.71l18.79-18.8,1.79,1.8a1,1,0,0,0,1.42,0L433,581.4A10.19,10.19,0,0,0,433,567Zm-51,57.6V611.41l10.5-10.5,6.59,6.59ZM421,583a4,4,0,1,1-4-4A4,4,0,0,1,421,583Zm-.63-5,4.84-4.83a1.13,1.13,0,0,1,1.58,0,1.11,1.11,0,0,1,0,1.58L422,579.63A6,6,0,0,0,420.37,578ZM413.63,588,398,603.59,396.41,602,412,586.37A6,6,0,0,0,413.63,588Zm18-8L403,608.59,399.41,605l16.18-16.17A5.92,5.92,0,0,0,417,589a6,6,0,0,0,6-6,5.92,5.92,0,0,0-.17-1.41l5.38-5.38a3.13,3.13,0,0,0-4.42-4.42l-5.38,5.38A5.92,5.92,0,0,0,417,577a6,6,0,0,0-6,6,5.92,5.92,0,0,0,.17,1.41L395,600.59,391.41,597,420,568.4A8.2,8.2,0,1,1,431.6,580Z" transform="translate(0 0)"/><path class="cls-1" d="M414,583a3,3,0,1,0,3-3A3,3,0,0,0,414,583Zm4,0a1,1,0,1,1-1-1A1,1,0,0,1,418,583Z" transform="translate(0 0)"/></g><g id="Frame"><path class="cls-1" d="M314,573a3,3,0,1,0-3-3A3,3,0,0,0,314,573Zm0-4a1,1,0,1,1-1,1A1,1,0,0,1,314,569Z" transform="translate(0 0)"/><path class="cls-1" d="M339,588h-4.87L319.7,571.87A6.1,6.1,0,0,0,320,570a6,6,0,0,0-12,0,6.1,6.1,0,0,0,.3,1.87L293.87,588H289a4,4,0,0,0-4,4v32a4,4,0,0,0,4,4h50a4,4,0,0,0,4-4V592A4,4,0,0,0,339,588Zm-20.31-14.26L331.44,588h-2.67L317.2,575.07A6.36,6.36,0,0,0,318.69,573.74ZM314,576a5.58,5.58,0,0,0,1.23-.13L326.08,588H301.92l10.85-12.13A5.58,5.58,0,0,0,314,576Zm0-10a4,4,0,0,1,4,4,4,4,0,0,1-8,0A4,4,0,0,1,314,566Zm-4.69,7.74a6.59,6.59,0,0,0,1.49,1.33L299.23,588h-2.67ZM341,624a2,2,0,0,1-2,2H289a2,2,0,0,1-2-2V592a2,2,0,0,1,2-2h50a2,2,0,0,1,2,2Z" transform="translate(0 0)"/><path class="cls-1" d="M339,591H289a1,1,0,0,0-1,1v32a1,1,0,0,0,1,1h50a1,1,0,0,0,1-1V592A1,1,0,0,0,339,591Zm-1,2v28.59l-16.29-16.3a1,1,0,0,0-1.42,0l-7.79,7.8-9.79-9.8a1,1,0,0,0-1.42,0L290,614.59V593Zm-15.59,30-8.5-8.5,7.09-7.09L336.59,623ZM290,617.41l12-12L319.59,623H290Z" transform="translate(0 0)"/><path class="cls-1" d="M313,605a4,4,0,1,0-4-4A4,4,0,0,0,313,605Zm0-6a2,2,0,1,1-2,2A2,2,0,0,1,313,599Z" transform="translate(0 0)"/></g><g id="Email"><path class="cls-1" d="M252,593a1.16,1.16,0,0,0-.33-.74L242,583.55V575a1.14,1.14,0,0,0-.29-.71l-10-10A1.16,1.16,0,0,0,231,564H199a1,1,0,0,0-1,1v18.55l-9.67,8.71a1.16,1.16,0,0,0-.33.74v34a1,1,0,0,0,1,1h62a1,1,0,0,0,1-1Zm-2,1.81v30l-20-17.43Zm-.65-1.95L242,597.47V586.25ZM238.59,574H232v-6.59ZM230,566v9a1,1,0,0,0,1,1h9v22.72L228.41,606l-7.75-6.75a1,1,0,0,0-1.32,0L211.59,606,200,598.72V566Zm-40,28.81,20,12.56L190,624.8Zm8,2.66-7.35-4.61,7.35-6.61ZM191.67,626,220,601.33,248.33,626Z" transform="translate(0 0)"/><path class="cls-1" d="M204,571h23a1,1,0,0,0,0-2H204a1,1,0,0,0,0,2Z" transform="translate(0 0)"/><path class="cls-1" d="M204,576h23a1,1,0,0,0,0-2H204a1,1,0,0,0,0,2Z" transform="translate(0 0)"/><path class="cls-1" d="M204,581h32a1,1,0,0,0,0-2H204a1,1,0,0,0,0,2Z" transform="translate(0 0)"/><path class="cls-1" d="M204,586h32a1,1,0,0,0,0-2H204a1,1,0,0,0,0,2Z" transform="translate(0 0)"/><path class="cls-1" d="M204,591h32a1,1,0,0,0,0-2H204a1,1,0,0,0,0,2Z" transform="translate(0 0)"/><path class="cls-1" d="M204,596h32a1,1,0,0,0,0-2H204a1,1,0,0,0,0,2Z" transform="translate(0 0)"/></g><g id="Box_Archive" data-name="Box Archive"><path class="cls-1" d="M148,574a1,1,0,0,0,1-1v-8a1,1,0,0,0-1-1H104a1,1,0,0,0-1,1v8a1,1,0,0,0,1,1h3v21h-3a1,1,0,0,0-1,1v8a1,1,0,0,0,1,1h3v22a1,1,0,0,0,1,1h36a1,1,0,0,0,1-1V605h3a1,1,0,0,0,1-1v-8a1,1,0,0,0-1-1h-3V574Zm-43-8h42v6H105Zm38,60H109V605h34Zm4-23H105v-6h42Zm-4-8H109V574h34Z" transform="translate(0 0)"/><path class="cls-1" d="M119,582h14a3,3,0,0,0,0-6H119a3,3,0,0,0,0,6Zm0-4h14a1,1,0,0,1,0,2H119a1,1,0,0,1,0-2Z" transform="translate(0 0)"/><path class="cls-1" d="M119,613h14a3,3,0,0,0,0-6H119a3,3,0,0,0,0,6Zm0-4h14a1,1,0,0,1,0,2H119a1,1,0,0,1,0-2Z" transform="translate(0 0)"/></g><g id="Trash"><path class="cls-1" d="M56,576H50.78L48,564.76a1,1,0,0,0-1-.76H17a1,1,0,0,0-1,.76L13.22,576H8a1,1,0,0,0-1,1v6a1,1,0,0,0,1,1h3.11L16,627.11a1,1,0,0,0,1,.89H47a1,1,0,0,0,1-.89L52.89,584H56a1,1,0,0,0,1-1v-6A1,1,0,0,0,56,576ZM41,566v4H23v-4Zm-23.22,0H21v5a1,1,0,0,0,1,1H42a1,1,0,0,0,1-1v-5h3.22l2.5,10H15.28Zm.11,60-.34-3h28.9l-.34,3Zm28.79-5H17.32l-4.2-37H50.88ZM55,582H9v-4H55Z" transform="translate(0 0)"/><path class="cls-1" d="M27,569H37a1,1,0,0,0,0-2H27a1,1,0,0,0,0,2Z" transform="translate(0 0)"/><path class="cls-1" d="M26,593H38a1,1,0,0,0,1-1v-4a1,1,0,0,0-1-1H26a1,1,0,0,0-1,1v4A1,1,0,0,0,26,593Zm1-4H37v2H27Z" transform="translate(0 0)"/><path class="cls-1" d="M42,591h3a1,1,0,0,0,0-2H42a1,1,0,0,0,0,2Z" transform="translate(0 0)"/><path class="cls-1" d="M19,591h3a1,1,0,0,0,0-2H19a1,1,0,0,0,0,2Z" transform="translate(0 0)"/></g><g id="Mouse"><path class="cls-1" d="M427,500.53a27.61,27.61,0,0,0-1.28-8.29c.78-3.37,1.22-5.81,1.26-6.07a1,1,0,0,0-.43-1l-12-8a1,1,0,0,0-1-.05,1,1,0,0,0-.53.88c0,1,0,2-.05,3H411V471a1,1,0,0,0-2,0v10h-2V471a1,1,0,0,0-2,0v10h-1.95c0-1-.05-2-.05-3a1,1,0,0,0-.53-.88,1,1,0,0,0-1,.05l-12,8a1,1,0,0,0-.43,1c0,.26.48,2.7,1.26,6.08a27.54,27.54,0,0,0-1.28,8.28c0,3.4-.52-1.33,2.16,18.72a17,17,0,0,0,33.68,0C427.51,499.26,427,504,427,500.53ZM412.86,483c-.52,9.21-2.42,14.68-3.86,17.58v-6.76a3,3,0,0,0,2-2.82v-3a3,3,0,0,0-2-2.81V483ZM408,487a1,1,0,0,1,1,1v3a1,1,0,0,1-2,0v-3A1,1,0,0,1,408,487Zm-1-4v2.19a3,3,0,0,0-2,2.81v3a3,3,0,0,0,2,2.82v6.76c-1.44-2.9-3.34-8.37-3.86-17.58Zm-16,19.78v-2.25a25.48,25.48,0,0,1,.33-4.1,77.53,77.53,0,0,0,4,11.61A14.11,14.11,0,0,1,391,502.78ZM422.86,519a15,15,0,0,1-29.72,0l-1.56-11.7a22.32,22.32,0,0,0,6,4.6,1,1,0,0,0,1.19-.22,1,1,0,0,0,.11-1.2c-4.3-6.88-7.14-20.85-7.75-24l9.92-6.61c.35,18.69,6,24.58,6.27,24.85a1,1,0,0,0,1.42,0c.25-.25,5.47-5.71,6.2-22.7h0c0-.69.06-1.4.07-2.13l9.92,6.61c-.61,3.15-3.45,17.12-7.75,24a1,1,0,0,0,.11,1.2,1,1,0,0,0,1.19.22,22.32,22.32,0,0,0,6-4.6ZM425,502.78a14.11,14.11,0,0,1-4.31,5.26,77.53,77.53,0,0,0,4-11.61,25.48,25.48,0,0,1,.33,4.1Z" transform="translate(0 0)"/><path class="cls-1" d="M421,517.74a1,1,0,0,0-1.12.85A12,12,0,0,1,408,529a1,1,0,0,0,0,2,14,14,0,0,0,13.87-12.14A1,1,0,0,0,421,517.74Z" transform="translate(0 0)"/></g><g id="Projector"><path class="cls-1" d="M345,510H333v-3h1a5,5,0,0,0,5-5v-7a5,5,0,0,0-5-5h-1.1a12,12,0,0,0-21.8,0H294a5,5,0,0,0-5,5v7a5,5,0,0,0,5,5h1v3H283a1,1,0,0,0-1,1v5a1,1,0,0,0,1,1h2v15a1,1,0,0,0,2,0V517h3v15a1,1,0,0,0,2,0v-7h44v7a1,1,0,0,0,2,0V517h3v15a1,1,0,0,0,2,0V517h2a1,1,0,0,0,1-1v-5A1,1,0,0,0,345,510Zm-14,0h-6v-3h6Zm-26,0v-3h18v3Zm17-9a6,6,0,1,1,6-6A6,6,0,0,1,322,501Zm-6.93-2H291v-2h23.26A8.15,8.15,0,0,0,315.07,499Zm14.67-2H337v2h-8.07A8.37,8.37,0,0,0,329.74,497ZM294,492h17.76a1,1,0,0,0,.93-.64,10,10,0,0,1,18.62,0,1,1,0,0,0,.93.64H334a3,3,0,0,1,3,3h-7a8,8,0,0,0-16,0H291A3,3,0,0,1,294,492Zm-3,10v-1h25.73a7.94,7.94,0,0,0,10.54,0H337v1a3,3,0,0,1-3,3H294A3,3,0,0,1,291,502Zm6,5h6v3h-6Zm39,16H292v-6h44Zm8-8H284v-3h60Z" transform="translate(0 0)"/><path class="cls-1" d="M312,521h4a1,1,0,0,0,0-2h-4a1,1,0,0,0,0,2Z" transform="translate(0 0)"/><path class="cls-1" d="M322,490a5,5,0,0,0-5,5,1,1,0,0,0,2,0,3,3,0,0,1,3-3,1,1,0,0,0,0-2Z" transform="translate(0 0)"/><path class="cls-1" d="M301,504a1,1,0,0,0,0-2h-5a1,1,0,0,0,0,2Z" transform="translate(0 0)"/><path class="cls-1" d="M304,504h1a1,1,0,0,0,0-2h-1a1,1,0,0,0,0,2Z" transform="translate(0 0)"/><path class="cls-1" d="M322,481a1,1,0,0,0,1-1v-8a1,1,0,0,0-2,0v8A1,1,0,0,0,322,481Z" transform="translate(0 0)"/><path class="cls-1" d="M325.62,481.48a1,1,0,0,0,1.23-.71l1-3.86a1,1,0,0,0-.7-1.23,1,1,0,0,0-1.23.71l-1,3.86A1,1,0,0,0,325.62,481.48Z" transform="translate(0 0)"/><path class="cls-1" d="M331.9,485.1a1,1,0,0,0,1.41,0l2.83-2.83a1,1,0,0,0-1.41-1.41l-2.83,2.83A1,1,0,0,0,331.9,485.1Z" transform="translate(0 0)"/><path class="cls-1" d="M329,482.88a1,1,0,0,0,1.37-.37l4-6.93a1,1,0,1,0-1.74-1l-4,6.93A1,1,0,0,0,329,482.88Z" transform="translate(0 0)"/><path class="cls-1" d="M317.15,480.77a1,1,0,0,0,1.23.71,1,1,0,0,0,.7-1.23l-1-3.86a1,1,0,0,0-1.23-.71,1,1,0,0,0-.7,1.23Z" transform="translate(0 0)"/><path class="cls-1" d="M310.69,485.1a1,1,0,0,0,1.41-1.41l-2.83-2.83a1,1,0,0,0-1.41,1.41Z" transform="translate(0 0)"/><path class="cls-1" d="M313.63,482.51a1,1,0,0,0,1.74-1l-4-6.93a1,1,0,1,0-1.74,1Z" transform="translate(0 0)"/></g><g id="Print"><path class="cls-1" d="M245,488h-2v-5a1,1,0,0,0-1-1h-5V471a1,1,0,0,0-1-1H204a1,1,0,0,0-1,1v11h-5a1,1,0,0,0-1,1v5h-2a7,7,0,0,0-7,7v12a7,7,0,0,0,7,7h8v15a5,5,0,0,0,5,5h33a5,5,0,0,0,5-5v-2a1,1,0,0,0-1-1h-8V514h8a7,7,0,0,0,7-7V495A7,7,0,0,0,245,488Zm-4-4v4h-4v-4Zm-36-12h30v16H205Zm-6,12h4v4h-4Zm4,22h-4v-4h4Zm41,23a3,3,0,0,1-3,3H212a5.26,5.26,0,0,0,1-3v-1h31Zm-32-3a1,1,0,0,0-1,1v2a3,3,0,0,1-6,0V502h30v24Zm29-24v4h-4v-4Zm9,5a5,5,0,0,1-5,5h-8v-4h5a1,1,0,0,0,1-1v-6a1,1,0,0,0-1-1H198a1,1,0,0,0-1,1v6a1,1,0,0,0,1,1h5v4h-8a5,5,0,0,1-5-5V495a5,5,0,0,1,5-5h50a5,5,0,0,1,5,5Z" transform="translate(0 0)"/><path class="cls-1" d="M230,497H210a1,1,0,0,0,0,2h20a1,1,0,0,0,0-2Z" transform="translate(0 0)"/><circle class="cls-1" cx="233" cy="498" r="1"/><circle class="cls-1" cx="207" cy="498" r="1"/><path class="cls-1" d="M245,492a3,3,0,1,0,3,3A3,3,0,0,0,245,492Zm0,4a1,1,0,1,1,1-1A1,1,0,0,1,245,496Z" transform="translate(0 0)"/></g><g id="Book"><path class="cls-1" d="M136,470H102a7,7,0,0,0-7,7v44a5,5,0,0,0,5,5h19v7a1,1,0,0,0,1.6.8l3.4-2.55,3.4,2.55a1,1,0,0,0,1.6-.8v-7h7a1,1,0,0,0,1-1V471A1,1,0,0,0,136,470ZM97,521V477a5,5,0,0,1,4-4.9V524h-1A3,3,0,0,1,97,521Zm30,10-2.4-1.8a1,1,0,0,0-1.2,0L121,531v-5h6Zm8-7H103V472h32Z" transform="translate(0 0)"/><path class="cls-1" d="M108,488h22a1,1,0,0,0,1-1V477a1,1,0,0,0-1-1H108a1,1,0,0,0-1,1v10A1,1,0,0,0,108,488Zm1-10h20v8H109Z" transform="translate(0 0)"/><path class="cls-1" d="M108,492h22a1,1,0,0,0,0-2H108a1,1,0,0,0,0,2Z" transform="translate(0 0)"/><path class="cls-1" d="M108,496h8a1,1,0,0,0,0-2h-8a1,1,0,0,0,0,2Z" transform="translate(0 0)"/><path class="cls-1" d="M116,498h-8a1,1,0,0,0,0,2h8a1,1,0,0,0,0-2Z" transform="translate(0 0)"/><path class="cls-1" d="M156,492a3,3,0,0,1-3-3v-9a4,4,0,0,0-4-4h-2v-5a1,1,0,0,0-1-1h-4a1,1,0,0,0-1,1v5h-1a1,1,0,0,0-1,1v46a1,1,0,0,0,.17.55L143,529.3V533a1,1,0,0,0,2,0v-3.7l3.83-5.75A1,1,0,0,0,149,523V478a2,2,0,0,1,2,2v9a5,5,0,0,0,5,5,1,1,0,0,0,0-2Zm-15-5h6v26h-6Zm0,28h6v2h-6Zm2-43h2v4h-2Zm4,6v7h-6v-7Zm-3,49.2-3-4.5V519h6v3.7Z" transform="translate(0 0)"/><path class="cls-1" d="M144,491a1,1,0,0,0-1,1v16a1,1,0,0,0,2,0V492A1,1,0,0,0,144,491Z" transform="translate(0 0)"/></g><g id="Telephone"><path class="cls-1" d="M60,474H35.65A6,6,0,0,0,30,470H22a6,6,0,0,0-5.65,4H14a4,4,0,0,0-4,4v36a10,10,0,0,0,0,20H22a5,5,0,0,0,5-5v-2h3a6,6,0,0,0,5.65-4H60a4,4,0,0,0,4-4V478A4,4,0,0,0,60,474Zm-48,4a2,2,0,0,1,2-2h2v45H14a2,2,0,0,1-2-2Zm13,51a3,3,0,0,1-3,3H10a8,8,0,0,1,0-16v3a4,4,0,0,0,4,4h2.35A6,6,0,0,0,22,527h3Zm5-4H22a4,4,0,0,1-4-4V476a4,4,0,0,1,4-4h8a4,4,0,0,1,4,4v45A4,4,0,0,1,30,525Zm32-6a2,2,0,0,1-2,2H36V476H60a2,2,0,0,1,2,2Z" transform="translate(0 0)"/><path class="cls-1" d="M49,505a3,3,0,1,0,3,3A3,3,0,0,0,49,505Zm0,4a1,1,0,1,1,1-1A1,1,0,0,1,49,509Z" transform="translate(0 0)"/><path class="cls-1" d="M41,505a3,3,0,1,0,3,3A3,3,0,0,0,41,505Zm0,4a1,1,0,1,1,1-1A1,1,0,0,1,41,509Z" transform="translate(0 0)"/><path class="cls-1" d="M57,505a3,3,0,1,0,3,3A3,3,0,0,0,57,505Zm0,4a1,1,0,1,1,1-1A1,1,0,0,1,57,509Z" transform="translate(0 0)"/><path class="cls-1" d="M49,497a3,3,0,1,0,3,3A3,3,0,0,0,49,497Zm0,4a1,1,0,1,1,1-1A1,1,0,0,1,49,501Z" transform="translate(0 0)"/><path class="cls-1" d="M41,497a3,3,0,1,0,3,3A3,3,0,0,0,41,497Zm0,4a1,1,0,1,1,1-1A1,1,0,0,1,41,501Z" transform="translate(0 0)"/><path class="cls-1" d="M57,497a3,3,0,1,0,3,3A3,3,0,0,0,57,497Zm0,4a1,1,0,1,1,1-1A1,1,0,0,1,57,501Z" transform="translate(0 0)"/><path class="cls-1" d="M49,513a3,3,0,1,0,3,3A3,3,0,0,0,49,513Zm0,4a1,1,0,1,1,1-1A1,1,0,0,1,49,517Z" transform="translate(0 0)"/><path class="cls-1" d="M41,513a3,3,0,1,0,3,3A3,3,0,0,0,41,513Zm0,4a1,1,0,1,1,1-1A1,1,0,0,1,41,517Z" transform="translate(0 0)"/><path class="cls-1" d="M57,513a3,3,0,1,0,3,3A3,3,0,0,0,57,513Zm0,4a1,1,0,1,1,1-1A1,1,0,0,1,57,517Z" transform="translate(0 0)"/><path class="cls-1" d="M59,485H39a1,1,0,0,0-1,1v8a1,1,0,0,0,1,1H59a1,1,0,0,0,1-1v-8A1,1,0,0,0,59,485Zm-1,8H40v-6H58Z" transform="translate(0 0)"/><path class="cls-1" d="M46,481a1,1,0,0,0,0,2h6a1,1,0,0,0,0-2Z" transform="translate(0 0)"/><path class="cls-1" d="M42,480H56a1,1,0,0,0,0-2H42a1,1,0,0,0,0,2Z" transform="translate(0 0)"/><path class="cls-1" d="M42,492a1,1,0,0,0,1-1v-2a1,1,0,0,0-2,0v2A1,1,0,0,0,42,492Z" transform="translate(0 0)"/><path class="cls-1" d="M45,492a1,1,0,0,0,1-1v-2a1,1,0,0,0-2,0v2A1,1,0,0,0,45,492Z" transform="translate(0 0)"/><path class="cls-1" d="M48,492a1,1,0,0,0,1-1v-2a1,1,0,0,0-2,0v2A1,1,0,0,0,48,492Z" transform="translate(0 0)"/></g><g id="HDD"><path class="cls-1" d="M390,426a3,3,0,1,0-3-3A3,3,0,0,0,390,426Zm0-4a1,1,0,1,1-1,1A1,1,0,0,1,390,422Z" transform="translate(0 0)"/><path class="cls-1" d="M437,404v-8a1,1,0,0,0-1-1H424a1,1,0,0,0-1,1v8a1,1,0,0,0-1,1v16a1,1,0,0,0,1,1h6v9a7,7,0,0,1-7,7H394a3,3,0,0,1-3-3h3a1,1,0,0,0,1-1v-4h16a3,3,0,0,0,3-3v-3.18a3,3,0,0,0,2-2.82V383a7,7,0,0,0-7-7H385a7,7,0,0,0-7,7v38a3,3,0,0,0,2,2.82V427a3,3,0,0,0,3,3h2v4a1,1,0,0,0,1,1h3a5,5,0,0,0,5,5h28a9,9,0,0,0,9-9v-9h6a1,1,0,0,0,1-1V405A1,1,0,0,0,437,404Zm-57-21a5,5,0,0,1,5-5h24a5,5,0,0,1,5,5v38a1,1,0,0,1-1,1H396.93a7,7,0,0,0-13.86,0H381a1,1,0,0,1-1-1Zm2,44v-3h2a1,1,0,0,0,1-1,5,5,0,0,1,10,0,1,1,0,0,0,1,1h16v3a1,1,0,0,1-1,1H383A1,1,0,0,1,382,427Zm5,6v-3h6v3Zm38-36h10v7H425Zm11,23H424V406h12Z" transform="translate(0 0)"/><path class="cls-1" d="M428,398a1,1,0,0,0-1,1v3a1,1,0,0,0,2,0v-3A1,1,0,0,0,428,398Z" transform="translate(0 0)"/><path class="cls-1" d="M432,398a1,1,0,0,0-1,1v3a1,1,0,0,0,2,0v-3A1,1,0,0,0,432,398Z" transform="translate(0 0)"/><path class="cls-1" d="M397,411a3,3,0,0,0,3-3V386a3,3,0,0,0-6,0v22A3,3,0,0,0,397,411Zm-1-25a1,1,0,0,1,2,0v22a1,1,0,0,1-2,0Z" transform="translate(0 0)"/></g><g id="Time_Alarm" data-name="Time Alarm"><path class="cls-1" d="M345,418H331.53l-5.2-7.81A15.94,15.94,0,0,0,330,400c0-.23,0-.45,0-.68a7,7,0,1,0-6.61-12.27,15.82,15.82,0,0,0-5.36-2.52V382h3a1,1,0,0,0,1-1v-4a1,1,0,0,0-1-1H307a1,1,0,0,0-1,1v4a1,1,0,0,0,1,1h3v2.53a15.82,15.82,0,0,0-5.36,2.52A7,7,0,1,0,298,399.32c0,.23,0,.45,0,.68a15.94,15.94,0,0,0,3.67,10.19l-5.2,7.81H283a1,1,0,0,0-1,1v5a1,1,0,0,0,1,1h2v14a1,1,0,0,0,2,0V425h3v14a1,1,0,0,0,2,0v-6h44v6a1,1,0,0,0,2,0V425h3v14a1,1,0,0,0,2,0V425h2a1,1,0,0,0,1-1v-5A1,1,0,0,0,345,418Zm-31-2a16.26,16.26,0,0,0,4.38-.62l1.75,2.62H307.87l1.75-2.62A16.26,16.26,0,0,0,314,416Zm6.33-1.31a16.58,16.58,0,0,0,4.59-3l4.21,6.31h-6.6ZM325,388.41a5,5,0,0,1,4.73,8.77A16.41,16.41,0,0,0,325,388.41ZM308,378h12v2H308Zm4,6.12V382h4v2.12c-.43-.05-1.34-.12-2-.12A19.56,19.56,0,0,0,312,384.12Zm-13.75,13.06a5,5,0,0,1,4.73-8.77A16.34,16.34,0,0,0,298.25,397.18ZM314,386a14,14,0,1,1-14,14A14,14,0,0,1,314,386Zm-10.92,25.67a16.51,16.51,0,0,0,4.59,3l-2.2,3.31h-6.6ZM336,431H292v-6h44Zm8-8H284v-3h60Z" transform="translate(0 0)"/><path class="cls-1" d="M312,429h4a1,1,0,0,0,0-2h-4a1,1,0,0,0,0,2Z" transform="translate(0 0)"/><path class="cls-1" d="M314,413a13,13,0,1,0-13-13A13,13,0,0,0,314,413Zm0-24a11,11,0,1,1-11,11A11,11,0,0,1,314,389Z" transform="translate(0 0)"/><path class="cls-1" d="M335,393a1,1,0,0,0,2,0,9.92,9.92,0,0,0-3.88-7.91,1,1,0,0,0-1.22,1.58A8,8,0,0,1,335,393Z" transform="translate(0 0)"/><path class="cls-1" d="M338,393a1,1,0,0,0,2,0,12.93,12.93,0,0,0-5-10.28,1,1,0,1,0-1.23,1.58A10.94,10.94,0,0,1,338,393Z" transform="translate(0 0)"/><path class="cls-1" d="M291,393a1,1,0,0,0,2,0,8,8,0,0,1,3.1-6.33,1,1,0,1,0-1.22-1.58A9.92,9.92,0,0,0,291,393Z" transform="translate(0 0)"/><path class="cls-1" d="M289,394a1,1,0,0,0,1-1,10.94,10.94,0,0,1,4.27-8.7,1,1,0,1,0-1.23-1.58A12.93,12.93,0,0,0,288,393,1,1,0,0,0,289,394Z" transform="translate(0 0)"/><path class="cls-1" d="M316.29,403.71a1,1,0,0,0,1.42-1.42l-2.71-2.7V396a1,1,0,0,0-2,0v4a1,1,0,0,0,.29.71Z" transform="translate(0 0)"/><path class="cls-1" d="M314,393a1,1,0,0,0,1-1v-1a1,1,0,0,0-2,0v1A1,1,0,0,0,314,393Z" transform="translate(0 0)"/><path class="cls-1" d="M307.64,395.05a1,1,0,1,0,1.41-1.41l-.71-.71a1,1,0,0,0-1.41,1.41Z" transform="translate(0 0)"/><path class="cls-1" d="M307,400a1,1,0,0,0-1-1h-1a1,1,0,0,0,0,2h1A1,1,0,0,0,307,400Z" transform="translate(0 0)"/><path class="cls-1" d="M307.64,405l-.71.71a1,1,0,0,0,1.41,1.41l.71-.71a1,1,0,1,0-1.41-1.41Z" transform="translate(0 0)"/><path class="cls-1" d="M314,410a1,1,0,0,0,1-1v-1a1,1,0,0,0-2,0v1A1,1,0,0,0,314,410Z" transform="translate(0 0)"/><path class="cls-1" d="M319.66,407.07a1,1,0,0,0,1.41-1.41l-.71-.71a1,1,0,1,0-1.41,1.41Z" transform="translate(0 0)"/><path class="cls-1" d="M321,400a1,1,0,0,0,1,1h1a1,1,0,0,0,0-2h-1A1,1,0,0,0,321,400Z" transform="translate(0 0)"/><path class="cls-1" d="M320.36,395.05l.71-.71a1,1,0,0,0-1.41-1.41l-.71.71a1,1,0,1,0,1.41,1.41Z" transform="translate(0 0)"/></g><g id="Pantone"><path class="cls-1" d="M197,428a4,4,0,1,0,4,4A4,4,0,0,0,197,428Zm0,6a2,2,0,1,1,2-2A2,2,0,0,1,197,434Z" transform="translate(0 0)"/><path class="cls-1" d="M200,412h-6a1,1,0,0,0-1,1v12a1,1,0,0,0,1,1h6a1,1,0,0,0,1-1V413A1,1,0,0,0,200,412Zm-1,12h-4V414h4Z" transform="translate(0 0)"/><path class="cls-1" d="M200,396h-6a1,1,0,0,0-1,1v12a1,1,0,0,0,1,1h6a1,1,0,0,0,1-1V397A1,1,0,0,0,200,396Zm-1,12h-4V398h4Z" transform="translate(0 0)"/><path class="cls-1" d="M200,380h-6a1,1,0,0,0-1,1v12a1,1,0,0,0,1,1h6a1,1,0,0,0,1-1V381A1,1,0,0,0,200,380Zm-1,12h-4V382h4Z" transform="translate(0 0)"/><path class="cls-1" d="M211.79,415.43a1,1,0,0,0,.55.18,1,1,0,0,0,.83-.45l6.71-10a1,1,0,0,0-.27-1.38l-5-3.36a1,1,0,0,0-.75-.15,1,1,0,0,0-.64.42l-6.71,9.95a1,1,0,0,0,.27,1.39Zm2.56-12.74,3.32,2.24-5.59,8.29L208.76,411Z" transform="translate(0 0)"/><path class="cls-1" d="M221.29,402.34a1,1,0,0,0,.83-.44l6.71-9.95a1,1,0,0,0,.15-.75,1,1,0,0,0-.42-.64l-5-3.35a1,1,0,0,0-1.39.27l-6.7,9.95a1,1,0,0,0-.16.75,1,1,0,0,0,.43.63l5,3.36A1,1,0,0,0,221.29,402.34Zm2-12.92,3.32,2.24L221,400l-3.32-2.24Z" transform="translate(0 0)"/><path class="cls-1" d="M229.34,416.41a1,1,0,0,0-.77,0l-11.29,4.06a1,1,0,0,0-.56.52,1,1,0,0,0,0,.76l2,5.65a1,1,0,0,0,.94.66A1.06,1.06,0,0,0,220,428l11.29-4.07a1,1,0,0,0,.6-1.28l-2-5.64A1,1,0,0,0,229.34,416.41Zm-9.08,9.34L218.9,422l9.41-3.39,1.36,3.77Z" transform="translate(0 0)"/><path class="cls-1" d="M234.71,422.6a.82.82,0,0,0,.34-.06l11.29-4.06a1,1,0,0,0,.57-.52,1,1,0,0,0,0-.76l-2-5.65a1,1,0,0,0-1.28-.6L232.34,415a1,1,0,0,0-.6,1.28l2,5.64A1,1,0,0,0,234.71,422.6Zm8.65-9.43,1.36,3.77-9.41,3.39L234,416.56Z" transform="translate(0 0)"/><path class="cls-1" d="M250.7,415.84l-2-5.64a5,5,0,0,0-6.4-3l-21.45,7.72a1,1,0,0,0,.68,1.88L243,409.07a3,3,0,0,1,3.84,1.81l2,5.64a3,3,0,0,1-1.8,3.84l-39.46,14.22-3.49,1.26L206,433l10.27-3.7a1,1,0,0,0,.6-1.28l-2-5.64a1,1,0,0,0-1.27-.6l18.61-27.61a5,5,0,0,0-1.35-6.95l-5-3.35a5,5,0,0,0-6.94,1.35l-11.71,17.37a1,1,0,0,0,1.66,1.12l11.71-17.37a3,3,0,0,1,4.16-.81l5,3.35a3,3,0,0,1,.81,4.17L210.17,423.2h0c-4,6-2.92,4.33-5.16,7.66v-3.58l5.94-8.81a1,1,0,0,0-.27-1.39l-5-3.35a1,1,0,0,0-.69-.15V381a5,5,0,0,0-5-5h-6a5,5,0,0,0-5,5v51a8,8,0,0,0,8,8,8.13,8.13,0,0,0,2.71-.48h0l48-17.29A5,5,0,0,0,250.7,415.84ZM213.26,424l1.35,3.76-6.75,2.43,3.78-5.61ZM205.4,416l3.32,2.23L205,423.71v-7.16ZM191,432V381a3,3,0,0,1,3-3h6a3,3,0,0,1,3,3v51a6,6,0,0,1-12,0Z" transform="translate(0 0)"/></g><g id="Router"><path class="cls-1" d="M151,423h-.62l6.16-12.16a4,4,0,1,0-7.14-3.62l-8,15.78h-4.73l6.5-24.29a4,4,0,0,0-7.73-2.07L128.41,423h-4.82l-7-26.36a4,4,0,0,0-7.73,2.07l6.5,24.29h-4.73l-8-15.78a4,4,0,1,0-7.14,3.62L101.62,423H101a7,7,0,0,0,0,14h50a7,7,0,0,0,0-14Zm.19-14.87a2,2,0,0,1,3.56,1.8L148.14,423h-4.48Zm-13.8-11a2,2,0,0,1,3.87,1L134.62,423h-4.14Zm-26.65,1a2,2,0,0,1,3.87-1L121.52,423h-4.14ZM97.25,409.93a2,2,0,1,1,3.56-1.8L108.34,423h-4.48ZM151,435H101a5,5,0,0,1,0-10h50a5,5,0,0,1,0,10Z" transform="translate(0 0)"/><path class="cls-1" d="M151,427a3,3,0,1,0,3,3A3,3,0,0,0,151,427Zm0,4a1,1,0,1,1,1-1A1,1,0,0,1,151,431Z" transform="translate(0 0)"/><path class="cls-1" d="M144,427a3,3,0,1,0,3,3A3,3,0,0,0,144,427Zm0,4a1,1,0,1,1,1-1A1,1,0,0,1,144,431Z" transform="translate(0 0)"/><path class="cls-1" d="M137,427a3,3,0,1,0,3,3A3,3,0,0,0,137,427Zm0,4a1,1,0,1,1,1-1A1,1,0,0,1,137,431Z" transform="translate(0 0)"/><path class="cls-1" d="M116,427H101a1,1,0,0,0,0,2h15a1,1,0,0,0,0-2Z" transform="translate(0 0)"/><path class="cls-1" d="M108,431h-7a1,1,0,0,0,0,2h7a1,1,0,0,0,0-2Z" transform="translate(0 0)"/><path class="cls-1" d="M123,394a3,3,0,1,0,3-3A3,3,0,0,0,123,394Zm4,0a1,1,0,1,1-1-1A1,1,0,0,1,127,394Z" transform="translate(0 0)"/><path class="cls-1" d="M130.94,390.47a1,1,0,0,0,0-1.41,7,7,0,0,0-9.9,0,1,1,0,0,0,1.42,1.4,5,5,0,0,1,7.06,0A1,1,0,0,0,130.94,390.47Z" transform="translate(0 0)"/><path class="cls-1" d="M133.78,387.64a1,1,0,0,0,0-1.42,11,11,0,0,0-15.56,0,1,1,0,0,0,1.42,1.42,9,9,0,0,1,12.72,0A1,1,0,0,0,133.78,387.64Z" transform="translate(0 0)"/><path class="cls-1" d="M116.81,384.81a13,13,0,0,1,18.38,0,1,1,0,1,0,1.42-1.42,15,15,0,0,0-21.22,0,1,1,0,1,0,1.42,1.42Z" transform="translate(0 0)"/></g><g id="Email-2" data-name="Email"><path class="cls-1" d="M55,394H1a1,1,0,0,0-1,1v34a1,1,0,0,0,1,1H55a1,1,0,0,0,1-1V395A1,1,0,0,0,55,394Zm-1,34H2V396H54Z" transform="translate(0 0)"/><path class="cls-1" d="M59,390H5a1,1,0,0,0,0,2H58v33a1,1,0,0,0,2,0V391A1,1,0,0,0,59,390Z" transform="translate(0 0)"/><path class="cls-1" d="M63,386H9a1,1,0,0,0,0,2H62v33a1,1,0,0,0,2,0V387A1,1,0,0,0,63,386Z" transform="translate(0 0)"/><path class="cls-1" d="M6.11,425.74l15.18-13.69,6.1,4.74a1,1,0,0,0,1.22,0l6.1-4.74,15.18,13.69a1,1,0,1,0,1.34-1.48L36.31,410.8l14.16-11a1,1,0,0,0-1.22-1.58L28,414.73,6.75,398.21a1,1,0,0,0-1.22,1.58l14.16,11L4.77,424.26a1,1,0,1,0,1.34,1.48Z" transform="translate(0 0)"/></g><g id="PC"><path class="cls-1" d="M433,287H383a1,1,0,0,0-1,1v28a1,1,0,0,0,1,1h50a1,1,0,0,0,1-1V288A1,1,0,0,0,433,287Zm-1,28H384V289h48Z" transform="translate(0 0)"/><path class="cls-1" d="M433,283H383a5,5,0,0,0-5,5v36a5,5,0,0,0,5,5h17v4H390a1,1,0,0,0-.89.55l-5,10A1,1,0,0,0,385,345h46a1,1,0,0,0,.89-1.45l-5-10A1,1,0,0,0,426,333H416v-4h17a5,5,0,0,0,5-5V288A5,5,0,0,0,433,283Zm-53,5a3,3,0,0,1,3-3h50a3,3,0,0,1,3,3v31H380Zm34,46a6,6,0,0,0,6,6,1,1,0,0,0,0-2,4,4,0,0,1-3.86-3h9.24l4,8H386.62l4-8h9.24a4,4,0,0,1-3.86,3,1,1,0,0,0,0,2,6,6,0,0,0,6-6v-5h12Zm22-10a3,3,0,0,1-3,3H383a3,3,0,0,1-3-3v-3h56Z" transform="translate(0 0)"/><path class="cls-1" d="M383,325h6a1,1,0,0,0,0-2h-6a1,1,0,0,0,0,2Z" transform="translate(0 0)"/><path class="cls-1" d="M392,325h2a1,1,0,0,0,0-2h-2a1,1,0,0,0,0,2Z" transform="translate(0 0)"/></g><g id="Sharpener"><path class="cls-1" d="M306.71,302.29a1,1,0,0,0-1.42,0l-5.5,5.5a1,1,0,0,0-.28.85,6.07,6.07,0,0,1-1.72,5.15l-4,4a6.07,6.07,0,0,1-5.15,1.72,1,1,0,0,0-.85.28l-5.5,5.5a1,1,0,0,0,0,1.42l19,19a1,1,0,0,0,1.42,0l5.5-5.5a1,1,0,0,0,.28-.85,6.07,6.07,0,0,1,1.72-5.15l4-4a6.07,6.07,0,0,1,5.15-1.72,1,1,0,0,0,.85-.28l5.5-5.5a1,1,0,0,0,0-1.42Zm12.38,15.21-14.3,14.29a6,6,0,0,1-2.71,1.54l16.42-16.42Zm-2-2-17.91,17.91a5.94,5.94,0,0,1-3-1.62,6.06,6.06,0,0,1,0-8.58l14.29-14.3Zm2,10.95a8.14,8.14,0,0,0-6.34,2.34l-4,4a8.15,8.15,0,0,0-2.34,6.34L302,343.59,284.41,326l4.46-4.45a8.14,8.14,0,0,0,6.34-2.34l4-4a8.15,8.15,0,0,0,2.34-6.34l4.45-4.46,3.09,3.09-14.3,14.29a8.08,8.08,0,0,0,11.42,11.42l14.29-14.3,3.09,3.09Z" transform="translate(0 0)"/><path class="cls-1" d="M303,319a4,4,0,1,0,4,4A4,4,0,0,0,303,319Zm-2,4a2,2,0,0,1,1-1.72v3.44A2,2,0,0,1,301,323Zm3,1.72v-3.44a2,2,0,0,1,0,3.44Z" transform="translate(0 0)"/><path class="cls-1" d="M345.71,290.29a1,1,0,0,0-1.42,0L329,305.59,326.41,303l15.3-15.29a1,1,0,0,0-1.42-1.42L325,301.59,322.41,299l15.3-15.29a1,1,0,0,0-1.42-1.42l-16,16a1.34,1.34,0,0,0-.27.51l-2,10A1,1,0,0,0,319.2,310l10-2a1.34,1.34,0,0,0,.51-.27l16-16A1,1,0,0,0,345.71,290.29ZM321.61,301l5.36,5.36-6.7,1.34Z" transform="translate(0 0)"/></g><g id="Dossier"><circle class="cls-1" cx="211" cy="290" r="1"/><circle class="cls-1" cx="211" cy="308" r="1"/><path class="cls-1" d="M252,337V305a1,1,0,0,0-1-1H223a1,1,0,0,0-1,1v40a1,1,0,0,0,1,1h20a1,1,0,0,0,.71-.29l8-8A1.16,1.16,0,0,0,252,337Zm-28-31h26v30h-7a1,1,0,0,0-1,1v7H224Zm20,36.59V338h4.59Z" transform="translate(0 0)"/><path class="cls-1" d="M227,326h20a1,1,0,0,0,0-2H227a1,1,0,0,0,0,2Z" transform="translate(0 0)"/><path class="cls-1" d="M227,330h20a1,1,0,0,0,0-2H227a1,1,0,0,0,0,2Z" transform="translate(0 0)"/><path class="cls-1" d="M227,334h20a1,1,0,0,0,0-2H227a1,1,0,0,0,0,2Z" transform="translate(0 0)"/><path class="cls-1" d="M227,338h12a1,1,0,0,0,0-2H227a1,1,0,0,0,0,2Z" transform="translate(0 0)"/><path class="cls-1" d="M239,340H227a1,1,0,0,0,0,2h12a1,1,0,0,0,0-2Z" transform="translate(0 0)"/><path class="cls-1" d="M227,322h20a1,1,0,0,0,0-2H227a1,1,0,0,0,0,2Z" transform="translate(0 0)"/><path class="cls-1" d="M227,318h20a1,1,0,0,0,0-2H227a1,1,0,0,0,0,2Z" transform="translate(0 0)"/><path class="cls-1" d="M227,314h20a1,1,0,0,0,0-2H227a1,1,0,0,0,0,2Z" transform="translate(0 0)"/><path class="cls-1" d="M227,310h20a1,1,0,0,0,0-2H227a1,1,0,0,0,0,2Z" transform="translate(0 0)"/><path class="cls-1" d="M193.71,341.71l5.7-5.71H219a1,1,0,0,0,0-2h-7V311.86a4,4,0,0,0,3-3.86V298h8a1,1,0,0,0,.81-.42l4.19-5.86V301a1,1,0,0,0,2,0V288.92l2-2.8V301a1,1,0,0,0,2,0V283a1,1,0,0,0-1-1H189a1,1,0,0,0-1,1v62a1,1,0,0,0,1,1h30a1,1,0,0,0,0-2H191.41l2.3-2.29ZM199,334a1,1,0,0,0-.71.29l-4.29,4.3V291.72l4.19,5.86a1,1,0,0,0,.81.42h8v10a4,4,0,0,0,3,3.86V334Zm10-40.56a3.85,3.85,0,0,0,4,0V296h-4Zm0-3.44a2,2,0,1,1,2,2A2,2,0,0,1,209,290Zm1,8v6.14a3.85,3.85,0,0,0-1,.42V298Zm1,12a2,2,0,1,1,2-2A2,2,0,0,1,211,310Zm2-5.44a3.85,3.85,0,0,0-1-.42V298h1ZM231.06,284l-8.57,12H215v-6a4,4,0,0,0-8,0v6h-7.49l-8.57-12ZM190,342.59V286.12l2,2.8v51.67Z" transform="translate(0 0)"/></g><g id="Measuring_Tape" data-name="Measuring Tape"><path class="cls-1" d="M157,322H131v-1a1,1,0,0,0-1-1h-3.52a17,17,0,0,0,1.47-6.1,4.57,4.57,0,0,0,2.63-1.62,4.66,4.66,0,0,0,.9-4,20.78,20.78,0,0,0-2.1-5.47A4.71,4.71,0,0,0,123,301a17,17,0,1,0-12,29h19a1,1,0,0,0,1-1v-1h25v3a1,1,0,0,0,2,0v-8A1,1,0,0,0,157,322Zm-31.25-19.55a2.7,2.7,0,0,1,1.88,1.37,18.71,18.71,0,0,1,1.9,4.95A2.69,2.69,0,0,1,129,311a2.64,2.64,0,0,1-1.06.79,17.24,17.24,0,0,0-3.55-9.28A2.75,2.75,0,0,1,125.75,302.45ZM129,328H111a15,15,0,1,1,13-7.5,1,1,0,0,0,0,1,1,1,0,0,0,.86.5H129Zm2-2v-2h25v2Z" transform="translate(0 0)"/><path class="cls-1" d="M122,313a11,11,0,1,0-11,11A11,11,0,0,0,122,313Zm-2,.85a9.28,9.28,0,0,1-.49,2.15H102.53a8.85,8.85,0,0,1-.53-3,9.09,9.09,0,0,1,.53-3h16.94a8.72,8.72,0,0,1,.53,3C120,313.29,120,313.57,120,313.85ZM111,304a9,9,0,0,1,7.48,4h-15A9,9,0,0,1,111,304Zm0,18a9,9,0,0,1-7.48-4h15A9,9,0,0,1,111,322Z" transform="translate(0 0)"/></g><g id="Crayon"><path class="cls-1" d="M52,282H12a7,7,0,0,0-7,7v52a5,5,0,0,0,5,5H54a5,5,0,0,0,5-5V289A7,7,0,0,0,52,282Zm-40,2H52a5,5,0,0,1,5,5v25H53V301a1,1,0,0,0-1-1h-.28l-3.33-10a1.47,1.47,0,0,0-2.78,0l-3.33,10h-.56l-3.33-10a1.47,1.47,0,0,0-2.78,0l-3.33,10h-.56l-3.33-10a1.47,1.47,0,0,0-2.78,0l-3.33,10h-.56l-3.33-10a1.47,1.47,0,0,0-2.78,0l-3.33,10H12a1,1,0,0,0-1,1v13H7V289A5,5,0,0,1,12,284Zm21,30v-4h8v4Zm-10,0v-4h8v4Zm-10,0v-4h8v4Zm10-8h8v2H23Zm-2,2H13v-2h8Zm12-2h8v2H33Zm10,0h8v2H43Zm0-4h8v2H43Zm1.39-2L47,292.16,49.61,300ZM33,302h8v2H33Zm1.39-2L37,292.16,39.61,300ZM23,302h8v2H23Zm1.39-2L27,292.16,29.61,300ZM13,302h8v2H13Zm1.39-2L17,292.16,19.61,300ZM43,310h8v4H43Zm11,34H10a3,3,0,0,1-2.82-2H23a1,1,0,0,0,0-2H7V316H57v24H41a1,1,0,0,0,0,2H56.82A3,3,0,0,1,54,344Z" transform="translate(0 0)"/><path class="cls-1" d="M45,326a4,4,0,0,0,0-8H19a4,4,0,0,0,0,8Zm2-4a2,2,0,0,1-2,2H43v-4h2A2,2,0,0,1,47,322Zm-6,2H33v-4h8Zm-24-2a2,2,0,0,1,2-2h2v4H19A2,2,0,0,1,17,322Zm6-2h8v4H23Z" transform="translate(0 0)"/><path class="cls-1" d="M36,340H28a1,1,0,0,0,0,2h8a1,1,0,0,0,0-2Z" transform="translate(0 0)"/></g><g id="Board"><path class="cls-1" d="M433,199a1,1,0,0,0,1-1v-4a1,1,0,0,0-1-1H412v-1a4,4,0,0,0-8,0v1H383a1,1,0,0,0-1,1v4a1,1,0,0,0,1,1h2v26h-2a1,1,0,0,0-1,1v4a1,1,0,0,0,1,1h21v13a2,2,0,0,1-2,2,3,3,0,0,0-3,3v1H383a1,1,0,0,0,0,2h50a1,1,0,0,0,0-2H417v-1a3,3,0,0,0-3-3,2,2,0,0,1-2-2V231h21a1,1,0,0,0,1-1v-4a1,1,0,0,0-1-1h-2V199Zm-27-7a2,2,0,0,1,4,0v1h-4Zm-22,3h48v2H384Zm17,55v-1a1,1,0,0,1,1-1h12a1,1,0,0,1,1,1v1Zm9.54-4h-5.08a4,4,0,0,0,.54-2V231h4v13A4,4,0,0,0,410.54,246ZM432,229H384v-2h48Zm-3-4H387V199h42Z" transform="translate(0 0)"/><path class="cls-1" d="M390,203h36a1,1,0,0,0,0-2H390a1,1,0,0,0,0,2Z" transform="translate(0 0)"/><path class="cls-1" d="M390,207h15a1,1,0,0,0,0-2H390a1,1,0,0,0,0,2Z" transform="translate(0 0)"/><path class="cls-1" d="M422,206a1,1,0,0,0-1-1H409a1,1,0,0,0,0,2h12A1,1,0,0,0,422,206Z" transform="translate(0 0)"/><path class="cls-1" d="M390,211h9a1,1,0,0,0,0-2h-9a1,1,0,0,0,0,2Z" transform="translate(0 0)"/><path class="cls-1" d="M390,215h36a1,1,0,0,0,0-2H390a1,1,0,0,0,0,2Z" transform="translate(0 0)"/><path class="cls-1" d="M390,219h21a1,1,0,0,0,0-2H390a1,1,0,0,0,0,2Z" transform="translate(0 0)"/><path class="cls-1" d="M416,221H399a1,1,0,0,0,0,2h17a1,1,0,0,0,0-2Z" transform="translate(0 0)"/><path class="cls-1" d="M422,217h-7a1,1,0,0,0,0,2h7a1,1,0,0,0,0-2Z" transform="translate(0 0)"/><path class="cls-1" d="M403,209a1,1,0,0,0,0,2h7a1,1,0,0,0,0-2Z" transform="translate(0 0)"/><path class="cls-1" d="M390,223h5a1,1,0,0,0,0-2h-5a1,1,0,0,0,0,2Z" transform="translate(0 0)"/></g><g id="Folder"><path class="cls-1" d="M341,214h-9V189a1,1,0,0,0-1-1H293a1,1,0,0,0-1,1v23h-5a1,1,0,0,0-1,1v35a4,4,0,0,0,4,4h48a4,4,0,0,0,4-4V215A1,1,0,0,0,341,214Zm-47-24h36v30H305.62l-3.73-7.45A1,1,0,0,0,301,212h-7Zm-4,60a2,2,0,0,1-2-2V214h12.38l3.73,7.45a1,1,0,0,0,.89.55h29v26a4.12,4.12,0,0,0,.54,2Zm50-2a2,2,0,0,1-4,0V221a1,1,0,0,0-1-1h-3v-4h8Z" transform="translate(0 0)"/></g><g id="Laptop"><path class="cls-1" d="M251,224h-9.72l1.69-6.76a1,1,0,0,0-.18-.86A1,1,0,0,0,242,216h-3V196a4,4,0,0,0-4-4H205a4,4,0,0,0-4,4v20h-3a1,1,0,0,0-.79.38,1,1,0,0,0-.18.86l1.69,6.76H189a1,1,0,0,0-1,1v5a1,1,0,0,0,1,1h2v16a1,1,0,0,0,2,0V231h3v16a1,1,0,0,0,2,0v-8h44v8a1,1,0,0,0,2,0V231h3v16a1,1,0,0,0,2,0V231h2a1,1,0,0,0,1-1v-5A1,1,0,0,0,251,224Zm-48-28a2,2,0,0,1,2-2h30a2,2,0,0,1,2,2v20H203Zm28.72,22-.5,2H208.78l-.5-2Zm-32.44,0h6.94l.81,3.24a1,1,0,0,0,1,.76h24a1,1,0,0,0,1-.76l.81-3.24h6.94l-1.5,6H200.78ZM242,237H198v-6h44Zm8-8H190v-3h60Z" transform="translate(0 0)"/><path class="cls-1" d="M218,235h4a1,1,0,0,0,0-2h-4a1,1,0,0,0,0,2Z" transform="translate(0 0)"/><path class="cls-1" d="M236,214V196a1,1,0,0,0-1-1H223a1,1,0,0,0-1,1,2,2,0,0,1-4,0,1,1,0,0,0-1-1H205a1,1,0,0,0-1,1v18a1,1,0,0,0,1,1h30A1,1,0,0,0,236,214Zm-2-1H206V197h10.13a4,4,0,0,0,7.74,0H234Z" transform="translate(0 0)"/><circle class="cls-1" cx="220" cy="196" r="1"/></g><g id="File"><path class="cls-1" d="M147,247V193a1,1,0,0,0-2,0v53H106a1,1,0,0,0,0,2h40A1,1,0,0,0,147,247Z" transform="translate(0 0)"/><path class="cls-1" d="M150,196a1,1,0,0,0-1,1v53H110a1,1,0,0,0,0,2h40a1,1,0,0,0,1-1V197A1,1,0,0,0,150,196Z" transform="translate(0 0)"/><path class="cls-1" d="M133.71,243.71l9-9A1.14,1.14,0,0,0,143,234V189a1,1,0,0,0-1-1H102a1,1,0,0,0-1,1v54a1,1,0,0,0,1,1h31A1,1,0,0,0,133.71,243.71Zm.29-3.12V235h5.59ZM103,190h38v43h-8a1,1,0,0,0-1,1v8H103Z" transform="translate(0 0)"/></g><g id="Rubber"><path class="cls-1" d="M60.29,202.88,49.12,191.71a5.84,5.84,0,0,0-8.24,0L37,195.59l-1.29-1.3a1,1,0,0,0-1.42,0l-28,28a1,1,0,0,0,0,1.42L7.59,225l-3.88,3.88a5.84,5.84,0,0,0,0,8.24l11.17,11.17a5.83,5.83,0,0,0,8.24,0L27,244.41l1.29,1.3a1,1,0,0,0,1.42,0l28-28a1,1,0,0,0,0-1.42L56.41,215l3.88-3.88A5.84,5.84,0,0,0,60.29,202.88Zm-38.58,44a3.84,3.84,0,0,1-5.42,0L5.12,235.71a3.84,3.84,0,0,1,0-5.42L9,226.41,25.59,243ZM29,243.59,8.41,223,11,220.41,31.59,241Zm4-4L12.41,219,31,200.41,51.59,221Zm20-20L32.41,199,35,196.41,55.59,217Zm5.88-9.88L55,213.59,38.41,197l3.88-3.88a3.84,3.84,0,0,1,5.42,0l11.17,11.17A3.84,3.84,0,0,1,58.88,209.71Z" transform="translate(0 0)"/><path class="cls-1" d="M24,220a8,8,0,1,0,8-8A8,8,0,0,0,24,220Zm8-6a6,6,0,1,1-6,6A6,6,0,0,1,32,214Z" transform="translate(0 0)"/></g><g id="Calculator"><path class="cls-1" d="M426,96H390a5,5,0,0,0-5,5v50a5,5,0,0,0,5,5h36a5,5,0,0,0,5-5V101A5,5,0,0,0,426,96Zm3,55a3,3,0,0,1-3,3H390a3,3,0,0,1-3-3V101a3,3,0,0,1,3-3h36a3,3,0,0,1,3,3Z" transform="translate(0 0)"/><path class="cls-1" d="M426,100H390a1,1,0,0,0-1,1v10a1,1,0,0,0,1,1h36a1,1,0,0,0,1-1V101A1,1,0,0,0,426,100Zm-1,10H391v-8h34Z" transform="translate(0 0)"/><path class="cls-1" d="M393,114a4,4,0,1,0,4,4A4,4,0,0,0,393,114Zm0,6a2,2,0,1,1,2-2A2,2,0,0,1,393,120Z" transform="translate(0 0)"/><path class="cls-1" d="M403,114a4,4,0,1,0,4,4A4,4,0,0,0,403,114Zm0,6a2,2,0,1,1,2-2A2,2,0,0,1,403,120Z" transform="translate(0 0)"/><path class="cls-1" d="M393,124a4,4,0,1,0,4,4A4,4,0,0,0,393,124Zm0,6a2,2,0,1,1,2-2A2,2,0,0,1,393,130Z" transform="translate(0 0)"/><path class="cls-1" d="M403,124a4,4,0,1,0,4,4A4,4,0,0,0,403,124Zm0,6a2,2,0,1,1,2-2A2,2,0,0,1,403,130Z" transform="translate(0 0)"/><path class="cls-1" d="M413,124a4,4,0,1,0,4,4A4,4,0,0,0,413,124Zm0,6a2,2,0,1,1,2-2A2,2,0,0,1,413,130Z" transform="translate(0 0)"/><path class="cls-1" d="M393,134a4,4,0,1,0,4,4A4,4,0,0,0,393,134Zm0,6a2,2,0,1,1,2-2A2,2,0,0,1,393,140Z" transform="translate(0 0)"/><path class="cls-1" d="M403,134a4,4,0,1,0,4,4A4,4,0,0,0,403,134Zm0,6a2,2,0,1,1,2-2A2,2,0,0,1,403,140Z" transform="translate(0 0)"/><path class="cls-1" d="M413,134a4,4,0,1,0,4,4A4,4,0,0,0,413,134Zm0,6a2,2,0,1,1,2-2A2,2,0,0,1,413,140Z" transform="translate(0 0)"/><path class="cls-1" d="M393,144h0a4,4,0,0,0-2.83,6.83A4,4,0,0,0,393,152h0a4,4,0,1,0,0-8Zm0,6h0a2,2,0,0,1-1.41-.58A2,2,0,0,1,393,146h0a2,2,0,0,1,2,2A2,2,0,0,1,393,150Z" transform="translate(0 0)"/><path class="cls-1" d="M403,144a4,4,0,0,0-2.83,6.83A4,4,0,0,0,403,152h0a4,4,0,0,0,0-8Zm0,6h0a2,2,0,1,1,2-2A2,2,0,0,1,403,150Z" transform="translate(0 0)"/><path class="cls-1" d="M413,144h0a4,4,0,1,0,2.83,1.17A4,4,0,0,0,413,144Zm0,6a2,2,0,0,1,0-4h0a2,2,0,0,1,0,4Z" transform="translate(0 0)"/><path class="cls-1" d="M426,124h-6a1,1,0,0,0-1,1v26a1,1,0,0,0,1,1h6a1,1,0,0,0,1-1V125A1,1,0,0,0,426,124Zm-1,26h-4V126h4Z" transform="translate(0 0)"/><path class="cls-1" d="M426,114H410a1,1,0,0,0-1,1v6a1,1,0,0,0,1,1h16a1,1,0,0,0,1-1v-6A1,1,0,0,0,426,114Zm-1,6H411v-4h14Z" transform="translate(0 0)"/><path class="cls-1" d="M393,109a1,1,0,0,0,1-1v-4a1,1,0,0,0-2,0v4A1,1,0,0,0,393,109Z" transform="translate(0 0)"/><path class="cls-1" d="M396,109a1,1,0,0,0,1-1v-4a1,1,0,0,0-2,0v4A1,1,0,0,0,396,109Z" transform="translate(0 0)"/><path class="cls-1" d="M399,109a1,1,0,0,0,1-1v-4a1,1,0,0,0-2,0v4A1,1,0,0,0,399,109Z" transform="translate(0 0)"/></g><g id="Paper_CLip" data-name="Paper CLip"><path class="cls-1" d="M314,94a15,15,0,0,0-15,15v38a11,11,0,0,0,22,0V109a7,7,0,0,0-14,0v29a1,1,0,0,0,1,1h4a1,1,0,0,0,1-1V109a1,1,0,0,1,2,0v38a5,5,0,0,1-10,0V109a9,9,0,0,1,18,0v18a1,1,0,0,0,1,1h4a1,1,0,0,0,1-1V109A15,15,0,0,0,314,94Zm13,32h-2V109a11,11,0,0,0-22,0v38a7,7,0,0,0,14,0V109a3,3,0,0,0-6,0v28h-2V109a5,5,0,0,1,10,0v38a9,9,0,0,1-18,0V109a13,13,0,0,1,26,0Z" transform="translate(0 0)"/></g><g id="Pencil"><path class="cls-1" d="M249.22,96.78a9.48,9.48,0,0,0-13.41,0l-41.52,41.51a1.06,1.06,0,0,0-.24.39l-6,18a1,1,0,0,0,.24,1,1,1,0,0,0,1,.24l18-6a1.06,1.06,0,0,0,.39-.24l41.51-41.52A9.49,9.49,0,0,0,249.22,96.78ZM242,114.59,231.41,104l1.59-1.59L243.59,113Zm-34,34-4.46-.13-.13-4.45L236,111.41l4.59,4.59Zm-10.45-6.13-.13-4.45L230,105.41l4.59,4.59L202,142.57Zm-2.06-1.79.08,2.79a1,1,0,0,0,1,1l4.64.14a1.4,1.4,0,0,0,.1.16l.16.1.13,4.63a1,1,0,0,0,1,1l2.8.08-7.24,2.42a10.06,10.06,0,0,0-5-5Zm-3,9.14a8.11,8.11,0,0,1,3.75,3.75l-5.63,1.88Zm55.35-41L245,111.59,234.41,101l2.81-2.81a7.49,7.49,0,0,1,10.59,10.59Z" transform="translate(0 0)"/><path class="cls-1" d="M242.51,97a6.4,6.4,0,0,0-4.58,1.9,1,1,0,1,0,1.41,1.41,4.5,4.5,0,0,1,6.35,0,1,1,0,0,0,1.41-1.41A6.41,6.41,0,0,0,242.51,97Z" transform="translate(0 0)"/></g><g id="FD"><path class="cls-1" d="M151,125a3,3,0,1,0-4,2.82v2.46l-4,1.33V120.82a3,3,0,1,0-2,0V132l-4-2.58v-3.64a3,3,0,1,0-2,0V130a1,1,0,0,0,.46.84l5.54,3.58v.76a3,3,0,1,0,2,0v-1.46l5.32-1.77A1,1,0,0,0,149,131v-3.18A3,3,0,0,0,151,125Zm-15-3a1,1,0,1,1-1,1A1,1,0,0,1,136,122Zm6-5a1,1,0,1,1-1,1A1,1,0,0,1,142,117Zm0,22a1,1,0,1,1,1-1A1,1,0,0,1,142,139Zm6-13a1,1,0,1,1,1-1A1,1,0,0,1,148,126Z" transform="translate(0 0)"/><path class="cls-1" d="M139,98a1,1,0,0,0-1,1v4a1,1,0,0,0,2,0V99A1,1,0,0,0,139,98Z" transform="translate(0 0)"/><path class="cls-1" d="M145,98a1,1,0,0,0-1,1v4a1,1,0,0,0,2,0V99A1,1,0,0,0,145,98Z" transform="translate(0 0)"/><path class="cls-1" d="M156,106h-4V95a1,1,0,0,0-1-1H133a1,1,0,0,0-1,1v11h-4a1,1,0,0,0-1,1v36a15.31,15.31,0,0,0,.17,2.14,15,15,0,0,0,29.66,0A15.31,15.31,0,0,0,157,143V107A1,1,0,0,0,156,106Zm-27,37V112h26v31c0,.34,0,.67-.05,1h-25.9C129,143.67,129,143.34,129,143Zm5-47h16v10H134Zm21,12v2H129v-2Zm-13,48a13,13,0,0,1-12.64-10h25.28A13,13,0,0,1,142,156Z" transform="translate(0 0)"/><path class="cls-1" d="M110,134a15,15,0,0,0-15,15v8a1,1,0,0,0,1,1h28a1,1,0,0,0,1-1v-8A15,15,0,0,0,110,134ZM97,156v-3h26v3Zm26-5H97v-2a13,13,0,0,1,26,0Z" transform="translate(0 0)"/></g><g id="Pin_marker" data-name="Pin marker"><path class="cls-1" d="M60.81,97.19a10.92,10.92,0,0,0-15.42,0L30.59,112H23a1,1,0,0,0-.71.29L10.71,123.88a3,3,0,0,0,0,4.24L17.59,135,3.29,149.29a1,1,0,0,0-.21.32l-3,7a1,1,0,0,0,1.31,1.31l7-3a1,1,0,0,0,.32-.21L23,140.41l6.88,6.88a3,3,0,0,0,4.24,0l11.59-11.58A1,1,0,0,0,46,135v-7.59l14.81-14.8A10.92,10.92,0,0,0,60.81,97.19Zm-53.38,56L2.9,155.1l1.94-4.53L19,136.41,21.59,139Zm23.86-7.28-7.58-7.59-4-4-7.59-7.58a1,1,0,0,1,0-1.42l.88-.88L33.59,145l-.88.88A1,1,0,0,1,31.29,145.88ZM44,134.59l-9,9L14.41,123l9-9h7.18L44,127.41Zm1-9L32.41,113l14.4-14.39a8.9,8.9,0,0,1,12.58,12.58Z" transform="translate(0 0)"/><path class="cls-1" d="M53.1,97a7.88,7.88,0,0,0-5.59,2.31,1,1,0,1,0,1.42,1.42,5.89,5.89,0,0,1,8.34,0,1,1,0,1,0,1.42-1.42A7.88,7.88,0,0,0,53.1,97Z" transform="translate(0 0)"/></g><g id="Pen"><path class="cls-1" d="M439,2.59,437.41,1a3.41,3.41,0,0,0-4.82,0L430,3.6a3,3,0,0,0-4.11.11L381.29,48.29a1.08,1.08,0,0,0-.27.53l-1.95,10.69-2.78,2.78a1,1,0,0,0,1.42,1.42l2.78-2.78,10.69-2a1.12,1.12,0,0,0,.53-.27l40.79-40.8.67.68a2,2,0,0,1,0,2.82L421.29,33.29a5.26,5.26,0,0,0,0,7.42,1,1,0,0,0,1.42,0,1,1,0,0,0,0-1.42,3.24,3.24,0,0,1,0-4.58l11.88-11.88a4,4,0,0,0,0-5.66l-.68-.67,2.38-2.38A3,3,0,0,0,436.4,10l2.6-2.6A3.39,3.39,0,0,0,439,2.59Zm-48,54L383.41,49,423.5,8.91l7.59,7.59Zm-8.36-5.53,6.3,6.3-7.7,1.4Zm52.24-38.35-2.38,2.38L424.91,7.5l2.38-2.38a1,1,0,0,1,1.42,0l6.17,6.17a1,1,0,0,1,0,1.42ZM437.59,6,435,8.59,431.41,5,434,2.41a1.42,1.42,0,0,1,2,0L437.59,4A1.42,1.42,0,0,1,437.59,6Z" transform="translate(0 0)"/><path class="cls-1" d="M421.71,18.29a1,1,0,0,0-1.42,0l-27,27a1,1,0,0,0,1.42,1.42l27-27A1,1,0,0,0,421.71,18.29Z" transform="translate(0 0)"/></g><g id="Clipboard"><path class="cls-1" d="M309,6h10a1,1,0,0,0,0-2H309a1,1,0,0,0,0,2Z" transform="translate(0 0)"/><path class="cls-1" d="M333,4h-8.38L322.89.55A1,1,0,0,0,322,0H306a1,1,0,0,0-.89.55L303.38,4H295a5,5,0,0,0-5,5V59a5,5,0,0,0,5,5h38a5,5,0,0,0,5-5V9A5,5,0,0,0,333,4ZM304,6a1,1,0,0,0,.89-.55L306.62,2h14.76l1.73,3.45A1,1,0,0,0,324,6h4V8H300V6Zm-5,4h30a1,1,0,0,0,1-1V6h2V58H296V6h2V9A1,1,0,0,0,299,10Zm37,49a3,3,0,0,1-3,3H295a3,3,0,0,1-3-3V9a3,3,0,0,1,2-2.82V59a1,1,0,0,0,1,1h38a1,1,0,0,0,1-1V6.18A3,3,0,0,1,336,9Z" transform="translate(0 0)"/><path class="cls-1" d="M303,31h-4a1,1,0,0,0-1,1v4a1,1,0,0,0,1,1h4a1,1,0,0,0,1-1V32A1,1,0,0,0,303,31Zm-1,4h-2V33h2Z" transform="translate(0 0)"/><path class="cls-1" d="M303,39h-4a1,1,0,0,0-1,1v4a1,1,0,0,0,1,1h4a1,1,0,0,0,1-1V40A1,1,0,0,0,303,39Zm-1,4h-2V41h2Z" transform="translate(0 0)"/><path class="cls-1" d="M303,47h-4a1,1,0,0,0-1,1v4a1,1,0,0,0,1,1h4a1,1,0,0,0,1-1V48A1,1,0,0,0,303,47Zm-1,4h-2V49h2Z" transform="translate(0 0)"/><path class="cls-1" d="M303,23h-4a1,1,0,0,0-1,1v4a1,1,0,0,0,1,1h4a1,1,0,0,0,1-1V24A1,1,0,0,0,303,23Zm-1,4h-2V25h2Z" transform="translate(0 0)"/><path class="cls-1" d="M298,20a1,1,0,0,0,1,1h4a1,1,0,0,0,1-1V16a1,1,0,0,0-1-1h-4a1,1,0,0,0-1,1Zm2-3h2v2h-2Z" transform="translate(0 0)"/><path class="cls-1" d="M307,17h22a1,1,0,0,0,0-2H307a1,1,0,0,0,0,2Z" transform="translate(0 0)"/><path class="cls-1" d="M307,21h11a1,1,0,0,0,0-2H307a1,1,0,0,0,0,2Z" transform="translate(0 0)"/><path class="cls-1" d="M307,25h22a1,1,0,0,0,0-2H307a1,1,0,0,0,0,2Z" transform="translate(0 0)"/><path class="cls-1" d="M307,29h11a1,1,0,0,0,0-2H307a1,1,0,0,0,0,2Z" transform="translate(0 0)"/><path class="cls-1" d="M307,33h22a1,1,0,0,0,0-2H307a1,1,0,0,0,0,2Z" transform="translate(0 0)"/><path class="cls-1" d="M307,37h11a1,1,0,0,0,0-2H307a1,1,0,0,0,0,2Z" transform="translate(0 0)"/><path class="cls-1" d="M307,41h22a1,1,0,0,0,0-2H307a1,1,0,0,0,0,2Z" transform="translate(0 0)"/><path class="cls-1" d="M307,45h11a1,1,0,0,0,0-2H307a1,1,0,0,0,0,2Z" transform="translate(0 0)"/><path class="cls-1" d="M307,49h22a1,1,0,0,0,0-2H307a1,1,0,0,0,0,2Z" transform="translate(0 0)"/><path class="cls-1" d="M307,53h11a1,1,0,0,0,0-2H307a1,1,0,0,0,0,2Z" transform="translate(0 0)"/></g><g id="Pencil_Holder" data-name="Pencil Holder"><path class="cls-1" d="M249,39H239V29h2a1,1,0,0,0,1-1V23a1,1,0,0,0-1-1h-5.57l5.44-14.18.94.36L240,12.85a3,3,0,0,0,1.73,3.87.92.92,0,0,0,.36.07,1,1,0,0,0,.36-1.94,1,1,0,0,1-.58-1.29l1.79-4.67a2,2,0,0,0-1.15-2.58l-1.86-.72h0l1.07-2.8a1,1,0,0,0,0-.76,1.05,1.05,0,0,0-.55-.53L237.42.07a1,1,0,0,0-1.29.57l-1.08,2.8h0a1,1,0,0,0-.76,0,1,1,0,0,0-.53.56l-6.9,18h-1.49l4.91-13.66a1.3,1.3,0,0,0,0-.58l-1.74-7a1,1,0,0,0-.63-.7A1,1,0,0,0,227,.2l-5.8,4.29a1.2,1.2,0,0,0-.34.46L214.74,22h-.4L211.47.87a1,1,0,0,0-.39-.67,1,1,0,0,0-.74-.19l-8.92,1.21a1,1,0,0,0-.66.39,1,1,0,0,0-.19.74c.27,2,2.38,17.53,2.67,19.65H199a1,1,0,0,0-1,1v5a1,1,0,0,0,1,1h2V39H191a1,1,0,0,0-1,1v5a1,1,0,0,0,1,1h2V63a1,1,0,0,0,2,0V46h3V63a1,1,0,0,0,2,0V54h40v9a1,1,0,0,0,2,0V46h3V63a1,1,0,0,0,2,0V46h2a1,1,0,0,0,1-1V40A1,1,0,0,0,249,39ZM236.92,4.16l.72-1.87,1.87.72-.72,1.87Zm-1.65,1.51L239,7.1,233.28,22H229ZM228.06,8.6,223.24,22h-2.13l5.07-14.07Zm-.14-2.17-4-1.45L227,2.7Zm-5.51.14,1.88.68L219,22h-2.13ZM205.11,20.9l2-.27a1,1,0,1,0-.27-2l-2,.27-.14-1,2-.27a1,1,0,0,0-.27-2l-2,.27-.14-1,2-.27a1,1,0,1,0-.27-2L204,13l-.13-1,2-.27a1,1,0,0,0,.85-1.13,1,1,0,0,0-1.12-.85l-2,.26-.14-1,2-.27a1,1,0,0,0-.27-2l-2,.27-.13-1,2-.27a1,1,0,1,0-.27-2l-2,.27-.13-1,6.93-.94L212.32,22h-7.06ZM200,24h40v3H200Zm3,5h34V39H203Zm37,23H200V46h40Zm8-8H192V41h56Z" transform="translate(0 0)"/><path class="cls-1" d="M218,50h4a1,1,0,0,0,0-2h-4a1,1,0,0,0,0,2Z" transform="translate(0 0)"/></g><g id="GD"><path class="cls-1" d="M95.71.29A1,1,0,0,0,94.62.08,1,1,0,0,0,94,1V63a1,1,0,0,0,1,1h62a1,1,0,0,0,.92-.62,1,1,0,0,0-.21-1.09ZM147,62V60a1,1,0,0,0-2,0v2h-3V60a1,1,0,0,0-2,0v2h-3V60a1,1,0,0,0-2,0v2h-3V60a1,1,0,0,0-2,0v2h-3V60a1,1,0,0,0-2,0v2h-3V60a1,1,0,0,0-2,0v2h-3V60a1,1,0,0,0-2,0v2h-3V60a1,1,0,0,0-2,0v2h-3V60a1,1,0,0,0-2,0v2H96V53h2a1,1,0,0,0,0-2H96V48h2a1,1,0,0,0,0-2H96V43h2a1,1,0,0,0,0-2H96V38h2a1,1,0,0,0,0-2H96V33h2a1,1,0,0,0,0-2H96V28h2a1,1,0,0,0,0-2H96V23h2a1,1,0,0,0,0-2H96V18h2a1,1,0,0,0,0-2H96V13h2a1,1,0,0,0,0-2H96V3.41L154.59,62Z" transform="translate(0 0)"/><path class="cls-1" d="M103,56h34a1,1,0,0,0,.92-.62,1,1,0,0,0-.21-1.09l-34-34a1,1,0,0,0-1.09-.21A1,1,0,0,0,102,21V55A1,1,0,0,0,103,56Zm31.59-2H116.41l7-7A1,1,0,0,0,122,45.62L113.59,54h-8.18l12.47-12.46a1,1,0,0,0-1.42-1.42L104,52.59V44.41L112.38,36A1,1,0,0,0,111,34.62l-7,7V23.41Z" transform="translate(0 0)"/><path class="cls-1" d="M124,24.38l19-19,4.09,4.09-19,19a1,1,0,1,0,1.42,1.42l19-19L152.59,15l-19,19A1,1,0,1,0,135,35.38l19.67-19.67a1.38,1.38,0,0,0,.27-.5l3-14A1,1,0,0,0,156.79,0l-14,3a1.38,1.38,0,0,0-.5.27L122.62,23A1,1,0,0,0,124,24.38ZM153.41,13,145,4.59,155.7,2.3Z" transform="translate(0 0)"/></g><g id="Ruler"><path class="cls-1" d="M62.71,17.29l-16-16a1,1,0,0,0-1.42,0l-44,44a1,1,0,0,0,0,1.42l16,16a1,1,0,0,0,1.42,0l44-44A1,1,0,0,0,62.71,17.29ZM3.41,46,6,43.41l1.29,1.3a1,1,0,0,0,1.42-1.42L7.41,42,9,40.41l1.29,1.3a1,1,0,0,0,1.42-1.42L10.41,39,12,37.41l1.29,1.3a1,1,0,0,0,1.42-1.42L13.41,36,15,34.41l1.29,1.3a1,1,0,0,0,1.42-1.42L16.41,33,18,31.41l1.29,1.3a1,1,0,0,0,1.42-1.42L19.41,30,21,28.41l1.29,1.3a1,1,0,0,0,1.42-1.42L22.41,27,24,25.41l1.29,1.3a1,1,0,0,0,1.42-1.42L25.41,24,27,22.41l1.29,1.3a1,1,0,0,0,1.42-1.42L28.41,21,30,19.41l1.29,1.3a1,1,0,0,0,1.42-1.42L31.41,18,33,16.41l1.29,1.3a1,1,0,0,0,1.42-1.42L34.41,15,36,13.41l1.29,1.3a1,1,0,0,0,1.42-1.42L37.41,12,39,10.41l1.29,1.3a1,1,0,0,0,1.42,0,1,1,0,0,0,0-1.42L40.41,9,42,7.41l1.29,1.3a1,1,0,0,0,1.42,0,1,1,0,0,0,0-1.42L43.41,6,46,3.41,50.09,7.5,7.5,50.09ZM18,60.59,8.91,51.5,51.5,8.91,60.59,18Z" transform="translate(0 0)"/><path class="cls-1" d="M49.5,15.5a4,4,0,1,0,4,4A4,4,0,0,0,49.5,15.5Zm0,6a2,2,0,1,1,2-2A2,2,0,0,1,49.5,21.5Z" transform="translate(0 0)"/></g></svg>