<svg fill="#000000" xmlns="http://www.w3.org/2000/svg"  viewBox="0 0 48 48" width="24px" height="24px"><path d="M 13.960938 3.9804688 A 2.0002 2.0002 0 0 0 12.585938 4.5859375 L 6.5859375 10.585938 A 2.0002 2.0002 0 0 0 6.5859375 13.414062 L 12.585938 19.414062 A 2.0002 2.0002 0 1 0 15.414062 16.585938 L 12.828125 14 L 34 14 C 36.233332 14 38 15.766668 38 18 L 38 42 A 2.0002 2.0002 0 1 0 42 42 L 42 18 C 42 13.605332 38.394668 10 34 10 L 12.828125 10 L 15.414062 7.4140625 A 2.0002 2.0002 0 0 0 13.960938 3.9804688 z M 17.960938 20.980469 A 2.0002 2.0002 0 0 0 16.585938 21.585938 L 11.585938 26.585938 A 2.0002 2.0002 0 0 0 11.585938 29.414062 L 16.585938 34.414062 A 2.0002 2.0002 0 1 0 19.414062 31.585938 L 17.828125 30 L 26 30 C 28.233332 30 30 31.766668 30 34 L 30 42 A 2.0002 2.0002 0 1 0 34 42 L 34 34 C 34 29.605332 30.394668 26 26 26 L 17.828125 26 L 19.414062 24.414062 A 2.0002 2.0002 0 0 0 17.960938 20.980469 z"/></svg>