<svg fill="#000000" xmlns="http://www.w3.org/2000/svg"  viewBox="0 0 48 48" width="24px" height="24px"><path d="M 24 7.0019531 C 23.752625 7.0019531 23.50525 7.0615938 23.28125 7.1835938 L 6.78125 16.183594 C 6.29925 16.445594 6 16.951 6 17.5 L 6 24.5 C 6 25.029 6.279375 25.519063 6.734375 25.789062 C 7.190375 26.060063 7.75475 26.072406 8.21875 25.816406 L 24 17.208984 L 39.78125 25.816406 C 40.00625 25.939406 40.253 26 40.5 26 C 40.765 26 41.029625 25.929062 41.265625 25.789062 C 41.720625 25.519063 42 25.029 42 24.5 L 42 17.5 C 42 16.951 41.69975 16.445594 41.21875 16.183594 L 24.71875 7.1835938 C 24.49525 7.0615938 24.247375 7.0019531 24 7.0019531 z M 24 22.001953 C 23.752625 22.001953 23.50525 22.061594 23.28125 22.183594 L 6.78125 31.183594 C 6.29925 31.445594 6 31.951 6 32.5 L 6 39.5 C 6 40.029 6.279375 40.519062 6.734375 40.789062 C 7.190375 41.060063 7.75475 41.072406 8.21875 40.816406 L 24 32.208984 L 39.78125 40.816406 C 40.00625 40.939406 40.253 41 40.5 41 C 40.765 41 41.029625 40.929062 41.265625 40.789062 C 41.720625 40.519063 42 40.029 42 39.5 L 42 32.5 C 42 31.951 41.69975 31.445594 41.21875 31.183594 L 24.71875 22.183594 C 24.49525 22.061594 24.247375 22.001953 24 22.001953 z"/></svg>