<svg fill="#000000" xmlns="http://www.w3.org/2000/svg"  viewBox="0 0 48 48" width="24px" height="24px"><path d="M10.828 18H14c1.104 0 2-.896 2-2s-.896-2-2-2H6c-1.104 0-2 .896-2 2v8c0 1.104.896 2 2 2s2-.896 2-2v-3.172l20.586 20.586C28.977 41.805 29.488 42 30 42s1.023-.195 1.414-.586c.781-.781.781-2.047 0-2.828L10.828 18zM42 21c-1.104 0-2 .896-2 2v3.172L20.414 6.586c-.781-.781-2.047-.781-2.828 0s-.781 2.047 0 2.828L37.172 29H34c-1.104 0-2 .896-2 2s.896 2 2 2h8c1.104 0 2-.896 2-2v-8C44 21.896 43.104 21 42 21z"/></svg>