<svg fill="#000000" xmlns="http://www.w3.org/2000/svg"  viewBox="0 0 48 48" width="24px" height="24px"><path d="M32.414 2.586c-.78-.781-2.048-.781-2.828 0-.781.781-.781 2.047 0 2.828L36.172 12H19c-1.104 0-2 .896-2 2s.896 2 2 2h17.172l-6.586 6.586c-.781.781-.781 2.047 0 2.828C29.976 25.805 30.488 26 31 26s1.024-.195 1.414-.586l10-10c.781-.781.781-2.047 0-2.828L32.414 2.586zM7 12A2 2 0 107 16 2 2 0 107 12zM13 12A2 2 0 1013 16 2 2 0 1013 12zM29 32H11.828l6.586-6.586c.781-.781.781-2.047 0-2.828-.78-.781-2.048-.781-2.828 0l-10 10c-.781.781-.781 2.047 0 2.828l10 10C15.976 45.805 16.488 46 17 46s1.024-.195 1.414-.586c.781-.781.781-2.047 0-2.828L11.828 36H29c1.104 0 2-.896 2-2S30.104 32 29 32zM41 32A2 2 0 1041 36 2 2 0 1041 32zM35 32A2 2 0 1035 36 2 2 0 1035 32z"/></svg>