<svg id="artwork" xmlns="http://www.w3.org/2000/svg" width="64" height="64" viewBox="0 0 64 64"><title>Biometric</title><path d="M45,15.5H19A3.50424,3.50424,0,0,0,15.5,19V45A3.50424,3.50424,0,0,0,19,48.5h2.5V32a10.5,10.5,0,0,1,21,0V48.5H45A3.50424,3.50424,0,0,0,48.5,45V19A3.50424,3.50424,0,0,0,45,15.5Z" style="fill:#3e3ef4"/><path d="M32,24.5A7.5082,7.5082,0,0,0,24.5,32V48.5h15V41.98584A7.4859,7.4859,0,0,1,27.5,36V32a4.5,4.5,0,0,1,9,0v4a1.5,1.5,0,0,1-3,0V32a1.5,1.5,0,0,0-3,0v4a4.5,4.5,0,0,0,9,0V32A7.5082,7.5082,0,0,0,32,24.5Z" style="fill:#3e3ef4"/><path d="M59,.5H5A4.50491,4.50491,0,0,0,.5,5V59A4.50491,4.50491,0,0,0,5,63.5H59A4.50491,4.50491,0,0,0,63.5,59V5A4.50491,4.50491,0,0,0,59,.5ZM60.5,59A1.50164,1.50164,0,0,1,59,60.5H5A1.50164,1.50164,0,0,1,3.5,59V5A1.50164,1.50164,0,0,1,5,3.5H59A1.50164,1.50164,0,0,1,60.5,5Z"/><path d="M17.5,7.5h-8A1.50039,1.50039,0,0,0,8,9v8a1.5,1.5,0,0,0,3,0V10.5h6.5a1.5,1.5,0,0,0,0-3Z"/><path d="M54.5,7.5h-8a1.5,1.5,0,0,0,0,3H53V17a1.5,1.5,0,0,0,3,0V9A1.50039,1.50039,0,0,0,54.5,7.5Z"/><path d="M17.5,53.5H11V47a1.5,1.5,0,0,0-3,0v8a1.50039,1.50039,0,0,0,1.5,1.5h8a1.5,1.5,0,0,0,0-3Z"/><path d="M54.5,45.5A1.50039,1.50039,0,0,0,53,47v6.5H46.5a1.5,1.5,0,0,0,0,3h8A1.50038,1.50038,0,0,0,56,55V47A1.50039,1.50039,0,0,0,54.5,45.5Z"/></svg>