<svg id="artwork" xmlns="http://www.w3.org/2000/svg" width="64" height="64" viewBox="0 0 64 64"><title>Cctv</title><path d="M32,21.5A16.5,16.5,0,1,0,48.5,38,16.519,16.519,0,0,0,32,21.5Zm0,27A10.5,10.5,0,1,1,42.5,38,10.5118,10.5118,0,0,1,32,48.5Z" style="fill:#3e3ef4"/><path d="M32,30.5A7.5,7.5,0,1,0,39.5,38,7.5082,7.5082,0,0,0,32,30.5ZM32,41a3,3,0,1,1,3-3A3,3,0,0,1,32,41Z" style="fill:#3e3ef4"/><path d="M62,.5H2A1.50008,1.50008,0,0,0,.5,2v9A4.50491,4.50491,0,0,0,5,15.5H6.5V38a25.5,25.5,0,0,0,51,0V15.5H59A4.50491,4.50491,0,0,0,63.5,11V2A1.50007,1.50007,0,0,0,62,.5ZM54.5,38a22.5,22.5,0,0,1-45,0V15.5h45Zm6-27A1.50164,1.50164,0,0,1,59,12.5H5A1.50164,1.50164,0,0,1,3.5,11V3.5h57Z"/></svg>