<svg id="artwork" xmlns="http://www.w3.org/2000/svg" width="64" height="64" viewBox="0 0 64 64"><title>Chat</title><path d="M46,32.49994a1.50008,1.50008,0,0,0-1.5,1.5v15a1.50164,1.50164,0,0,1-1.5,1.5H20a1.49853,1.49853,0,0,0-.99609.37891L12.5,56.65961V51.99994a1.50007,1.50007,0,0,0-1.5-1.5H5a1.50164,1.50164,0,0,1-1.5-1.5v-34a1.50164,1.50164,0,0,1,1.5-1.5H26a1.5,1.5,0,0,0,0-3H5a4.50492,4.50492,0,0,0-4.5,4.5v34a4.50491,4.50491,0,0,0,4.5,4.5H9.5v6.5a1.50206,1.50206,0,0,0,2.49609,1.1211l8.57422-7.6211H43a4.50491,4.50491,0,0,0,4.5-4.5v-15A1.50007,1.50007,0,0,0,46,32.49994Z"/><path d="M8,21.49994H18a1.5,1.5,0,0,0,0-3H8a1.5,1.5,0,0,0,0,3Z"/><path d="M40,42.49994H31a1.5,1.5,0,0,0,0,3h9a1.5,1.5,0,0,0,0-3Z"/><path d="M8,29.49994H26a1.5,1.5,0,0,0,0-3H8a1.5,1.5,0,1,0,0,3Z"/><path d="M6.5,35.99994a1.50007,1.50007,0,0,0,1.5,1.5H40a1.5,1.5,0,0,0,0-3H8A1.50008,1.50008,0,0,0,6.5,35.99994Z"/><path d="M60,2.49994H34a3.50425,3.50425,0,0,0-3.5,3.5v20a3.50424,3.50424,0,0,0,3.5,3.5H46.44531l6.57715,5.63868A1.50112,1.50112,0,0,0,55.499,33.99994l.001-4.5H60a3.50424,3.50424,0,0,0,3.5-3.5v-20A3.50425,3.50425,0,0,0,60,2.49994Zm-4,19H38a1.5,1.5,0,0,1,0-3H56a1.5,1.5,0,0,1,0,3Zm0-8H38a1.5,1.5,0,0,1,0-3H56a1.5,1.5,0,0,1,0,3Z" style="fill:#3e3ef4"/></svg>