<svg id="artwork" xmlns="http://www.w3.org/2000/svg" width="64" height="64" viewBox="0 0 64 64"><title>Cloud Storage</title><circle cx="32" cy="47" r="1.5" style="fill:#3e3ef4"/><path d="M43,37.5H40.5V36a8.5,8.5,0,0,0-17,0v1.5H21A3.50424,3.50424,0,0,0,17.5,41V57A3.50424,3.50424,0,0,0,21,60.5H43A3.50424,3.50424,0,0,0,46.5,57V41A3.50424,3.50424,0,0,0,43,37.5ZM33.5,51.22357v3.77594a1.5,1.5,0,0,1-3,0V51.22357a4.5,4.5,0,1,1,3,0ZM37.5,37.5h-11V36a5.5,5.5,0,0,1,11,0Z" style="fill:#3e3ef4"/><path d="M32,9.5A12.0668,12.0668,0,0,0,20.05615,20.439a1.49986,1.49986,0,0,0,2.98828.26172A9.04719,9.04719,0,0,1,32,12.5a1.5,1.5,0,0,0,0-3Z"/><path d="M49.771,18.67822a17.99245,17.99245,0,0,0-35.542,0,15.98115,15.98115,0,0,0-1.59033,31.334,1.49975,1.49975,0,1,0,.72266-2.91114A12.98161,12.98161,0,0,1,15.668,21.544a1.49961,1.49961,0,0,0,1.39941-1.36622,14.99019,14.99019,0,0,1,29.86524,0A1.49961,1.49961,0,0,0,48.332,21.544a12.98161,12.98161,0,0,1,2.30664,25.55712,1.49975,1.49975,0,1,0,.72266,2.91114,15.98115,15.98115,0,0,0-1.59033-31.334Z"/></svg>