<svg id="artwork" xmlns="http://www.w3.org/2000/svg" width="64" height="64" viewBox="0 0 64 64"><title>Code</title><path d="M60,32.5H34A3.50424,3.50424,0,0,0,30.5,36V60A3.50424,3.50424,0,0,0,34,63.5H60A3.50424,3.50424,0,0,0,63.5,60V36A3.50424,3.50424,0,0,0,60,32.5ZM42.15137,53.04A1.49981,1.49981,0,0,1,39.84668,54.96l-4.999-6a1.49835,1.49835,0,0,1,0-1.91992l5-6A1.4998,1.4998,0,0,1,42.15234,42.96L37.95215,48Zm7.32812-10.793-2,12a1.5,1.5,0,1,1-2.959-.49414l2-12a1.5,1.5,0,0,1,2.959.49414ZM59.15234,48.96l-4.999,6A1.49981,1.49981,0,0,1,51.84863,53.04L56.04785,48l-4.20019-5.04A1.4998,1.4998,0,0,1,54.15234,41.04l5,6A1.49835,1.49835,0,0,1,59.15234,48.96Z" style="fill:#3e3ef4"/><path d="M55,.5H5A4.50491,4.50491,0,0,0,.5,5V55A4.50491,4.50491,0,0,0,5,59.5H26a1.5,1.5,0,0,0,0-3H5A1.50164,1.50164,0,0,1,3.5,55V15.5l53,.001V28a1.5,1.5,0,0,0,3,0V5A4.50491,4.50491,0,0,0,55,.5ZM3.5,12.5V5A1.50164,1.50164,0,0,1,5,3.5H55A1.50164,1.50164,0,0,1,56.5,5v7.501Z"/><path d="M9,6.5H8a1.5,1.5,0,0,0,0,3H9a1.5,1.5,0,0,0,0-3Z"/><path d="M16,6.5H15a1.5,1.5,0,0,0,0,3h1a1.5,1.5,0,0,0,0-3Z"/><path d="M23,6.5H22a1.5,1.5,0,0,0,0,3h1a1.5,1.5,0,0,0,0-3Z"/><path d="M22.5,21A1.50039,1.50039,0,0,0,21,19.5H9a1.5,1.5,0,0,0,0,3H21A1.50038,1.50038,0,0,0,22.5,21Z"/><path d="M17,26.5H13a1.5,1.5,0,0,0,0,3h4a1.5,1.5,0,0,0,0-3Z"/><path d="M52,26.5H23a1.5,1.5,0,0,0,0,3H52a1.5,1.5,0,0,0,0-3Z"/><path d="M17,33.499,13,33.5a1.5,1.5,0,0,0,0,3l4-.001a1.5,1.5,0,0,0,0-3Z"/><path d="M26,33.5H23a1.5,1.5,0,0,0,0,3h3a1.5,1.5,0,0,0,0-3Z"/><path d="M26,40.5H9a1.5,1.5,0,0,0,0,3H26a1.5,1.5,0,0,0,0-3Z"/><path d="M13,47.5a1.5,1.5,0,0,0,0,3l4-.001a1.5,1.5,0,0,0,0-3Z"/><path d="M26,47.5H23a1.5,1.5,0,0,0,0,3h3a1.5,1.5,0,0,0,0-3Z"/></svg>