<svg id="artwork" xmlns="http://www.w3.org/2000/svg" width="64" height="64" viewBox="0 0 64 64"><title>Ddos</title><path d="M63.0249,53.69531,56.5,40.64551V16A4.50491,4.50491,0,0,0,52,11.5H51a1.5,1.5,0,0,0,0,3h1A1.50164,1.50164,0,0,1,53.5,16V39.5h-43V16A1.50164,1.50164,0,0,1,12,14.5h1a1.5,1.5,0,0,0,0-3H12A4.50491,4.50491,0,0,0,7.5,16V40.64551L.9751,53.69531A4.52769,4.52769,0,0,0,.5,55.708V59A4.50491,4.50491,0,0,0,5,63.5H59A4.50491,4.50491,0,0,0,63.5,59V55.708A4.52769,4.52769,0,0,0,63.0249,53.69531ZM54.07275,42.5l6,12H42.98926l-2.61035-6.09082A1.49985,1.49985,0,0,0,39,47.5H25a1.49985,1.49985,0,0,0-1.37891.90918L21.01074,54.5H3.92725l6-12ZM39.7251,54.5H24.2749l1.71436-4H38.01074ZM59,60.5H5A1.50164,1.50164,0,0,1,3.5,59V57.5h57V59A1.50164,1.50164,0,0,1,59,60.5Z"/><path d="M39,4.50025H25a1.50008,1.50008,0,0,0-1.5,1.5c.01278,15.33153-.02856,14.54979.03619,15.5H40.46381c.06477-.95052.02341-.172.03619-15.5A1.50008,1.50008,0,0,0,39,4.50025Z" style="fill:#3e3ef4"/><path d="M31.40918,33.37916a1.50186,1.50186,0,0,0,1.18164,0,13.38,13.38,0,0,0,7.36212-8.87891H24.04706A13.38,13.38,0,0,0,31.40918,33.37916Z" style="fill:#3e3ef4"/><path d="M46.25586.6995,43.5,2.27426V16.28171a15.42668,15.42668,0,0,0,5-11.342V2.00223A1.50094,1.50094,0,0,0,46.25586.6995Z" style="fill:#3e3ef4"/><path d="M15.5,2.002V4.9395a15.42668,15.42668,0,0,0,5,11.342V2.274L17.74414.69927A1.501,1.501,0,0,0,15.5,2.002Z" style="fill:#3e3ef4"/></svg>