<svg id="artwork" xmlns="http://www.w3.org/2000/svg" width="64" height="64" viewBox="0 0 64 64"><title>Debit Card</title><path d="M59,5H5A4.50491,4.50491,0,0,0,.5,9.5v36A4.50491,4.50491,0,0,0,5,50H27a1.5,1.5,0,0,0,0-3H5a1.50164,1.50164,0,0,1-1.5-1.5V29.999H31a1.50007,1.50007,0,0,0,1.5-1.5V23h28v6.499a1.5,1.5,0,0,0,3,0V9.5A4.50491,4.50491,0,0,0,59,5ZM5,8H59a1.50164,1.50164,0,0,1,1.5,1.5V13H3.5V9.5A1.50164,1.50164,0,0,1,5,8ZM29.5,26.999H3.5V23h26ZM3.5,20V16h57v4Z"/><path d="M48.3916,43.87231v5.25116a3.30765,3.30765,0,0,0,1.69727-2.35A2.55032,2.55032,0,0,0,48.3916,43.87231Z" style="fill:#3e3ef4"/><path d="M44.23145,36.6748a2.323,2.323,0,0,0,.61523,2.25,5.95575,5.95575,0,0,0,.54492.37159V35.6181A1.44232,1.44232,0,0,0,44.23145,36.6748Z" style="fill:#3e3ef4"/><path d="M47,26A16.5,16.5,0,1,0,63.5,42.5,16.51929,16.51929,0,0,0,47,26Zm6.04688,21.27051a6.31294,6.31294,0,0,1-4.65528,5.04114V53.5a1.5,1.5,0,0,1-3,0V52.45758a7.53326,7.53326,0,0,1-3.84375-1.42047,1.49975,1.49975,0,0,1,1.64258-2.50977,4.81473,4.81473,0,0,0,2.20117.91632V42.678a11.69709,11.69709,0,0,1-2.39648-1.39191,5.29776,5.29776,0,0,1-1.6543-5.41308,4.51476,4.51476,0,0,1,3.9541-3.2959c.03394-.00421.06305-.0025.09668-.00641V31.5a1.5,1.5,0,0,1,3,0v1.15564a7.7583,7.7583,0,0,1,2.87012,1.067,1.49989,1.49989,0,0,1-1.70117,2.4707,4.49868,4.49868,0,0,0-1.169-.47382v4.94812c.29492.10987.58972.21735.87891.31964A5.48891,5.48891,0,0,1,53.04688,47.27051Z" style="fill:#3e3ef4"/></svg>