<svg id="artwork" xmlns="http://www.w3.org/2000/svg" width="64" height="64" viewBox="0 0 64 64"><title>Diskette</title><path d="M62.18164,13.06055,50.94043,1.81885A4.53079,4.53079,0,0,0,47.75781.5H5A4.50491,4.50491,0,0,0,.5,5V59A4.50491,4.50491,0,0,0,5,63.5h6a1.5,1.5,0,0,0,0-3H5A1.50164,1.50164,0,0,1,3.5,59V5A1.50164,1.50164,0,0,1,5,3.5H7.5V16A3.50424,3.50424,0,0,0,11,19.5H43A3.50424,3.50424,0,0,0,46.5,16V3.5h1.25781a1.51065,1.51065,0,0,1,1.06055.43945l11.24121,11.2417A1.4916,1.4916,0,0,1,60.5,16.24268V59A1.50164,1.50164,0,0,1,59,60.5H53a1.5,1.5,0,0,0,0,3h6A4.50491,4.50491,0,0,0,63.5,59V16.24268A4.47185,4.47185,0,0,0,62.18164,13.06055ZM10.5,16V3.5h5v13H11A.50065.50065,0,0,1,10.5,16Zm33,0a.50065.50065,0,0,1-.5.5H18.5V3.5h25Z"/><path d="M48.5,38.5V32A1.50007,1.50007,0,0,0,47,30.5H17A1.50008,1.50008,0,0,0,15.5,32v6.5Z" style="fill:#3e3ef4"/><path d="M15.5,41.5V62A1.50039,1.50039,0,0,0,17,63.5H47A1.50038,1.50038,0,0,0,48.5,62V41.5Z" style="fill:#3e3ef4"/></svg>