<svg id="artwork" xmlns="http://www.w3.org/2000/svg" width="64" height="64" viewBox="0 0 64 64"><title>Document</title><path d="M62.47412,34.57715l-12-4a1.49993,1.49993,0,0,0-.94824,0l-12,4A1.49968,1.49968,0,0,0,36.5,36v9.35107A19.025,19.025,0,0,0,49.52588,63.42285a1.49547,1.49547,0,0,0,.94824,0A19.025,19.025,0,0,0,63.5,45.35107V36A1.49968,1.49968,0,0,0,62.47412,34.57715Zm-6.8042,10.5376-6.6665,6a1.49981,1.49981,0,0,1-2.17481-.17774l-2.6665-3.33349a1.5,1.5,0,1,1,2.34277-1.874l1.67334,2.0918,5.48487-4.936a1.49984,1.49984,0,0,1,2.00683,2.2295Z" style="fill:#3e3ef4"/><path d="M47,.5H14.24268a4.47053,4.47053,0,0,0-3.18213,1.31836L1.81836,11.06055A4.47053,4.47053,0,0,0,.5,14.24268V59A4.50491,4.50491,0,0,0,5,63.5H40.99951a1.5,1.5,0,0,0,0-3H5A1.50164,1.50164,0,0,1,3.5,59V16.49957L12,16.5A4.50491,4.50491,0,0,0,16.5,12l-.00043-8.5H47A1.50164,1.50164,0,0,1,48.5,5V26a1.5,1.5,0,0,0,3,0V5A4.50491,4.50491,0,0,0,47,.5Zm-35,13-8.2962-.00043c.15368-.26722,9.48115-9.61489,9.79577-9.79583L13.5,12A1.50164,1.50164,0,0,1,12,13.5Z"/><path d="M30,11.5a1.5,1.5,0,0,0,0-3H21a1.5,1.5,0,0,0,0,3Z"/><path d="M43,19.5H9a1.5,1.5,0,0,0,0,3H43a1.5,1.5,0,0,0,0-3Z"/><path d="M36.49951,32a1.49976,1.49976,0,0,0-1.5-1.5H9a1.5,1.5,0,0,0,0,3H34.99951A1.49976,1.49976,0,0,0,36.49951,32Z"/><path d="M33.5,43A1.49977,1.49977,0,0,0,32,41.5H9a1.5,1.5,0,0,0,0,3H32A1.49977,1.49977,0,0,0,33.5,43Z"/><path d="M25,55.5h9a1.5,1.5,0,0,0,0-3H25a1.5,1.5,0,0,0,0,3Z"/></svg>