<svg id="artwork" xmlns="http://www.w3.org/2000/svg" width="64" height="64" viewBox="0 0 64 64"><title>Download</title><path d="M57,.50009H31.66309a4.471,4.471,0,0,0-3.81543,2.11524L24.16925,8.50009H7a4.50492,4.50492,0,0,0-4.5,4.5v33a4.50491,4.50491,0,0,0,4.5,4.5h7a1.5,1.5,0,0,0,0-3H7a1.50164,1.50164,0,0,1-1.5-1.5v-33a1.50164,1.50164,0,0,1,1.5-1.5H36.33691a4.47167,4.47167,0,0,0,3.81543-2.11474L43.3916,4.20468a1.48977,1.48977,0,0,1,1.27149-.70459H57a1.50164,1.50164,0,0,1,1.5,1.5v41a1.50164,1.50164,0,0,1-1.5,1.5H50a1.5,1.5,0,0,0,0,3h7a4.50491,4.50491,0,0,0,4.5-4.5v-41A4.50492,4.50492,0,0,0,57,.50009ZM37.6084,7.7955a1.48975,1.48975,0,0,1-1.27149.70459H27.70624L30.3916,4.20468a1.48977,1.48977,0,0,1,1.27149-.70459h8.631Z"/><path d="M44,47.50009H40.5v-15.5a1.50007,1.50007,0,0,0-1.5-1.5H25a1.50008,1.50008,0,0,0-1.5,1.5v15.5H20a1.50155,1.50155,0,0,0-1.10254,2.51758l12,13a1.50149,1.50149,0,0,0,2.20508,0l12-13A1.50152,1.50152,0,0,0,44,47.50009Z" style="fill:#3e3ef4"/></svg>