<svg id="artwork" xmlns="http://www.w3.org/2000/svg" width="64" height="64" viewBox="0 0 64 64"><title>Email</title><path d="M46.60205,43.48535c-1.31982,0-2.68457,1.27442-2.68457,3.4082,0,2.166,1.333,3.6211,2.57813,3.6211,1.34967,0,2.44635-1.60669,2.46814-3.59265l.00054-.11426C48.94568,44.84937,47.98163,43.48535,46.60205,43.48535Z" style="fill:#3e3ef4"/><path d="M60,30.5H34A3.50424,3.50424,0,0,0,30.5,34V60A3.50424,3.50424,0,0,0,34,63.5H60A3.50424,3.50424,0,0,0,63.5,60V34A3.50424,3.50424,0,0,0,60,30.5ZM57.51758,50.55859a5.26134,5.26134,0,0,1-4.877,3.46094,3.62278,3.62278,0,0,1-3.00361-1.6817,4.8458,4.8458,0,0,1-3.14141,1.17682c-3.07569,0-5.57813-2.96973-5.57813-6.6211,0-3.59375,2.49707-6.4082,5.68457-6.4082a4.92251,4.92251,0,0,1,2.61316.7301A1.49506,1.49506,0,0,1,50.48828,40.5h.00733a1.49988,1.49988,0,0,1,1.49267,1.50781c-.04163,8.45956.00455-.43959-.04,8.04688a.9139.9139,0,0,0,.69239.96484A2.29089,2.29089,0,0,0,54.73,49.4502a7.39132,7.39132,0,0,0,.46289-4.95118,8.49981,8.49981,0,0,0-16.3457,4.65528A8.55234,8.55234,0,0,0,46.83252,55.501,1.49979,1.49979,0,0,1,46.792,58.5c-.01416,0-.02832,0-.04248-.001a11.501,11.501,0,0,1-3.17187-22.4541,11.49957,11.49957,0,0,1,14.50049,7.63379l.00671.02985.00647.017A10.31952,10.31952,0,0,1,57.51758,50.55859Z" style="fill:#3e3ef4"/><path d="M53,.5H5A4.50491,4.50491,0,0,0,.5,5V44A4.50491,4.50491,0,0,0,5,48.5H26a1.5,1.5,0,0,0,0-3H5A1.50164,1.50164,0,0,1,3.5,44V9.17529L26.36572,27.97607a4.526,4.526,0,0,0,5.26953.06348L54.5,10.0849V22a1.5,1.5,0,0,0,3,0V5A4.50491,4.50491,0,0,0,53,.5ZM29.83643,25.63818a1.5075,1.5075,0,0,1-1.61622-.02148L3.5,5.29138V5A1.50164,1.50164,0,0,1,5,3.5H53A1.50164,1.50164,0,0,1,54.5,5V6.27081Z"/></svg>