<svg id="artwork" xmlns="http://www.w3.org/2000/svg" width="64" height="64" viewBox="0 0 64 64"><title>Flash Drive</title><path d="M62.18064,14.64651,49.351,1.81521a4.50631,4.50631,0,0,0-6.364.00049l-8.2335,8.23392a4.49177,4.49177,0,0,0-5.99358.30286L2.40522,36.70894a6.4962,6.4962,0,0,0,0,9.19207L18.09807,61.59467a6.49537,6.49537,0,0,0,9.1916,0l26.35511-26.356a4.45454,4.45454,0,0,0,.30346-5.995l8.2324-8.23282A4.49727,4.49727,0,0,0,62.18064,14.64651ZM45.10794,3.93732a1.50321,1.50321,0,0,1,2.122-.00049l5.35444,5.355-9.26057,9.261-6.41538-6.41608Zm6.41581,29.18025-26.35511,26.356a3.50439,3.50439,0,0,1-4.94954,0L4.52624,43.77988a3.50483,3.50483,0,0,1,0-4.9498l26.35462-26.356a1.50234,1.50234,0,0,1,2.122-.00049L51.52375,30.99643A1.49879,1.49879,0,0,1,51.52375,33.11757Zm8.53586-14.2283-8.19987,8.20029L45.44485,20.674l9.26056-9.261,5.3542,5.35471A1.49933,1.49933,0,0,1,60.05961,18.88927Z"/><path d="M43.33013,12.12988a1.49947,1.49947,0,0,0,2.12111.001l.71192-.71146a1.50022,1.50022,0,0,0-2.12111-2.12216l-.71192.71146A1.49955,1.49955,0,0,0,43.33013,12.12988Z"/><path d="M52.57825,17.8352l-.71094.71146a1.49953,1.49953,0,1,0,2.12111,2.12021l.71094-.71146a1.49953,1.49953,0,1,0-2.12111-2.12021Z"/><path d="M28.49877,49.00355,44.38411,33.11731a1.49959,1.49959,0,0,0-.00005-2.12119L33.00216,19.6133a1.544,1.544,0,0,0-2.12112,0L14.99531,35.49962Z" style="fill:#3e3ef4"/><path d="M12.874,37.621,9.5391,40.956a1.49956,1.49956,0,0,0,0,2.12119L20.92148,54.46A1.49979,1.49979,0,0,0,23.0426,54.46l3.33483-3.335Z" style="fill:#3e3ef4"/></svg>