<svg id="artwork" xmlns="http://www.w3.org/2000/svg" width="64" height="64" viewBox="0 0 64 64"><title>Globe</title><path d="M62.47461,34.57715l-12-4a1.48946,1.48946,0,0,0-.94922,0l-12,4A1.49988,1.49988,0,0,0,36.5,36v9.35059A19.02467,19.02467,0,0,0,49.52539,63.42285a1.49823,1.49823,0,0,0,.94922,0A19.02466,19.02466,0,0,0,63.5,45.35059V36A1.49988,1.49988,0,0,0,62.47461,34.57715ZM55.66992,45.11523l-6.666,6a1.501,1.501,0,0,1-2.17481-.17773l-2.667-3.333a1.5,1.5,0,0,1,2.3418-1.875l1.67382,2.0918,5.48536-4.93652a1.50019,1.50019,0,1,1,2.00683,2.23046Z" style="fill:#3e3ef4"/><path d="M32,.5a31.5,31.5,0,1,0,7.38281,62.12891,1.5,1.5,0,0,0-.70117-2.917A28.58542,28.58542,0,0,1,32,60.5c-4.42682,0-7.89282-7.68878-9.50757-17.00067L32,43.499a1.5,1.5,0,0,0,0-3l-9.955.00037A66.5473,66.5473,0,0,1,22.0451,23.5h19.936c.19379,1.52667.33441,3.06689.41534,4.5918a1.50019,1.50019,0,1,0,2.9961-.16016q-.12112-2.27976-.37244-4.43164H59.20337a28.25356,28.25356,0,0,1,1.2312,6.56055,1.50045,1.50045,0,0,0,2.99414-.20117A31.57025,31.57025,0,0,0,32,.5ZM25.53992,4.2475C22.73492,7.74475,20.55646,13.47638,19.407,20.5H5.93213A28.60527,28.60527,0,0,1,25.53992,4.2475Zm0,55.505A28.60516,28.60516,0,0,1,5.93207,43.49994l13.47485-.00049C20.55621,50.52332,22.73486,56.25519,25.53992,59.7525Zm-6.55182-19.253-14.193.00049a28.541,28.541,0,0,1,0-16.99994H18.98816a74.2462,74.2462,0,0,0-.00006,16.99945ZM22.49255,20.5C24.1073,11.18842,27.5733,3.5,32,3.5c4.412,0,7.9212,7.88385,9.5271,17Zm22.106,0c-1.15008-7.06671-3.331-12.76782-6.12176-16.24719A28.67,28.67,0,0,1,58.06927,20.5Z"/></svg>