<svg id="artwork" xmlns="http://www.w3.org/2000/svg" width="64" height="64" viewBox="0 0 64 64"><title>Hacker</title><path d="M47,41.50341H17a1.50016,1.50016,0,0,0-1.4917,1.657l2,18.997A1.49932,1.49932,0,0,0,19,63.5H45a1.49932,1.49932,0,0,0,1.4917-1.34257l2-18.997A1.5,1.5,0,0,0,47,41.50341Z" style="fill:#3e3ef4"/><path d="M54.79187,34.78852,49.07925,31.457A20.2779,20.2779,0,0,0,40.15011,3.267l-3.696-1.77371a10.48408,10.48408,0,0,0-8.90875,0L23.85038,3.267a20.27821,20.27821,0,0,0-8.92944,28.1898L9.20813,34.78852A11.53752,11.53752,0,0,0,3.5,44.749l.03126,14.25026a4.50831,4.50831,0,0,0,4.502,4.49093h4.95728a1.50024,1.50024,0,1,0,0-3.00047H8.03329a1.50222,1.50222,0,0,1-1.50067-1.49633L6.50136,44.74319a8.5261,8.5261,0,0,1,4.21916-7.36247l5.91-3.44664,3.1927,3.98969A1.50085,1.50085,0,0,0,22.167,36.04848l-3.96026-4.948a17.279,17.279,0,0,1-2.20295-4.81862,23.649,23.649,0,0,1,3.24608-3.57294A17.261,17.261,0,0,0,29.88334,36.8406a5.49789,5.49789,0,0,0,4.23381,0,17.26125,17.26125,0,0,0,10.633-14.13226,23.64337,23.64337,0,0,1,3.24656,3.57306,17.27782,17.27782,0,0,1-2.20349,4.819l-3.96026,4.948a1.50085,1.50085,0,0,0,2.34382,1.87529l3.1927-3.98969,5.91,3.44664a8.5261,8.5261,0,0,1,4.21916,7.36247l-.03126,14.25025a1.50222,1.50222,0,0,1-1.50067,1.49633H51.00943a1.50024,1.50024,0,1,0,0,3.00047h4.95728a4.50831,4.50831,0,0,0,4.502-4.49093L60.5,44.749A11.53752,11.53752,0,0,0,54.79187,34.78852Zm-21.82415-.71984a2.51673,2.51673,0,0,1-1.935,0c-3.25553-1.35-8.63549-4.9-8.957-13.53884a17.68741,17.68741,0,0,1,19.8486-.00024C41.6029,29.16869,36.22282,32.71868,32.96772,34.06868ZM32,14.48264c-8.1476,0-13.75111,4.6403-16.63966,7.82567a17.25065,17.25065,0,0,1,9.789-16.33578l3.695-1.77371a7.417,7.417,0,0,1,6.31091,0l3.696,1.77371a17.25223,17.25223,0,0,1,9.789,16.33548C45.75123,19.1227,40.14736,14.48264,32,14.48264Z"/></svg>