<svg id="artwork" xmlns="http://www.w3.org/2000/svg" width="64" height="64" viewBox="0 0 64 64"><title>Key</title><path d="M33.05083,42.37386,21.62548,30.949a1.544,1.544,0,0,0-2.1211,0L.93936,49.51453a1.49978,1.49978,0,0,0-.3623,1.53517l2.856,8.56841a1.49988,1.49988,0,0,0,.94824.94825l8.56889,2.85646a1.49913,1.49913,0,0,0,1.53516-.36231l2.856-2.85646a1.49976,1.49976,0,0,0,0-2.12111L15.54587,56.288,17.709,54.12393l1.79542,1.79591a1.49976,1.49976,0,0,0,2.1211,0l2.85646-2.85646a1.49975,1.49975,0,0,0,0-2.12111l-1.79542-1.79493,2.16261-2.1631L26.645,48.77917a1.49944,1.49944,0,0,0,2.1211,0l4.28469-4.2842A1.50124,1.50124,0,0,0,33.05083,42.37386Z" style="fill:#3e3ef4"/><path d="M62.17433,21.514,42.48675,1.8264a4.52942,4.52942,0,0,0-6.61722.22754L20.57845,19.60972a4.54289,4.54289,0,0,0,.21289,6.17777l17.422,17.422a4.542,4.542,0,0,0,6.17776.21289L61.94581,28.13223A4.53082,4.53082,0,0,0,62.17433,21.514Zm-2.19825,4.35549L42.42034,41.16064a1.53414,1.53414,0,0,1-2.086-.07227l-17.42195-17.422a1.53407,1.53407,0,0,1-.07177-2.086L38.13223,4.02368a1.52745,1.52745,0,0,1,2.23341-.07617L60.05323,23.63513A1.5273,1.5273,0,0,1,59.97608,25.86952Z"/><path d="M42.52288,10.43a3.51911,3.51911,0,0,0-5.26565.32911l-2.5,3.21388a3.526,3.526,0,0,0,.29,4.64847l10.33208,10.3321a3.5267,3.5267,0,0,0,4.64943.28906l3.2129-2.499a3.52088,3.52088,0,0,0,.32813-5.26663Zm8.877,13.94638-3.21193,2.49806a.52136.52136,0,0,1-.6875-.042L37.16836,16.50032a.5214.5214,0,0,1-.043-.68652l2.499-3.21291a.52131.52131,0,0,1,.77832-.04883l11.045,11.045A.5209.5209,0,0,1,51.39987,24.37635Z"/></svg>