<svg id="artwork" xmlns="http://www.w3.org/2000/svg" width="64" height="64" viewBox="0 0 64 64"><title>Laptop</title><path d="M62.60059,47.29883,54.5,36.49976V10A4.50491,4.50491,0,0,0,50,5.5H14A4.50491,4.50491,0,0,0,9.5,10V36.49982l-8.1001,10.799A4.53078,4.53078,0,0,0,.5,49.999V54A4.50491,4.50491,0,0,0,5,58.5H59A4.50491,4.50491,0,0,0,63.5,54V49.999A4.538,4.538,0,0,0,62.60059,47.29883ZM12.5,10A1.50164,1.50164,0,0,1,14,8.5H50A1.50164,1.50164,0,0,1,51.5,10V35.5h-39Zm-.75,28.5h40.5c8.32749,11.14931,8.00345,10.55811,8.15967,11H42.77216l-3.83759-5.37207A1.5,1.5,0,0,0,37.71387,43.5H26.28564a1.50071,1.50071,0,0,0-1.2207.62793L21.22778,49.5H3.59033C3.746,49.06034,3.42925,49.64057,11.75,38.5Zm27.335,11H24.91455l2.14307-3h9.88476ZM59,55.5H5A1.50164,1.50164,0,0,1,3.5,54V52.5h57V54A1.50164,1.50164,0,0,1,59,55.5Z"/><path d="M47,11.5H17A1.49977,1.49977,0,0,0,15.5,13V31A1.49977,1.49977,0,0,0,17,32.5H47A1.50007,1.50007,0,0,0,48.5,31V13A1.50007,1.50007,0,0,0,47,11.5ZM41,27.25H23a1.5,1.5,0,0,1,0-3H41a1.5,1.5,0,0,1,0,3Zm0-7.5H23a1.5,1.5,0,0,1,0-3H41a1.5,1.5,0,0,1,0,3Z" style="fill:#3e3ef4"/></svg>