<svg id="artwork" xmlns="http://www.w3.org/2000/svg" width="64" height="64" viewBox="0 0 64 64"><title>Padlock</title><path d="M53,17.5H48.5V17a16.5,16.5,0,0,0-33,0v.5H11A4.50491,4.50491,0,0,0,6.5,22V52A11.5131,11.5131,0,0,0,18,63.5H46A11.5131,11.5131,0,0,0,57.5,52V22A4.50491,4.50491,0,0,0,53,17.5ZM18.5,17a13.5,13.5,0,0,1,27,0v.5h-3V17a10.5,10.5,0,0,0-21,0v.5h-3Zm6,.5V17a7.5,7.5,0,0,1,15,0v.5ZM54.5,52A8.50982,8.50982,0,0,1,46,60.5H18A8.50982,8.50982,0,0,1,9.5,52V22A1.50164,1.50164,0,0,1,11,20.5H53A1.50164,1.50164,0,0,1,54.5,22Z"/><path d="M47,26.5H17A1.50008,1.50008,0,0,0,15.5,28V51A3.50424,3.50424,0,0,0,19,54.5H45A3.50424,3.50424,0,0,0,48.5,51V28A1.50008,1.50008,0,0,0,47,26.5ZM34.19839,48H29.80161a1,1,0,0,1-.96623-1.25766l1.61445-6.05417a4,4,0,1,1,3.10034,0l1.61445,6.05417A1,1,0,0,1,34.19839,48Z" style="fill:#3e3ef4"/></svg>