<svg id="artwork" xmlns="http://www.w3.org/2000/svg" width="64" height="64" viewBox="0 0 64 64"><title>Phishing</title><path d="M59,15.5H55.5V10.24469a5.00006,5.00006,0,1,0-3,0V15.5h-7V9A1.50087,1.50087,0,0,0,43.168,7.752l-3,2A1.5,1.5,0,1,0,41.832,12.248l.668-.44532V15.5H5A4.50491,4.50491,0,0,0,.5,20V59A4.50491,4.50491,0,0,0,5,63.5H59A4.50491,4.50491,0,0,0,63.5,59V20A4.50491,4.50491,0,0,0,59,15.5Zm-5-12a2,2,0,1,1-2,2A2.00229,2.00229,0,0,1,54,3.5ZM60.5,59A1.50164,1.50164,0,0,1,59,60.5H5A1.50164,1.50164,0,0,1,3.5,59V20A1.50164,1.50164,0,0,1,5,18.5H42.65118A7.51209,7.51209,0,0,0,50,24.5a1.5,1.5,0,0,0,0-3,4.49265,4.49265,0,0,1-4.22357-3H59A1.50164,1.50164,0,0,1,60.5,20Z"/><path d="M54.999,27.5H46a1.5,1.5,0,0,0,0,3h8.999a1.5,1.5,0,0,0,0-3Z"/><path d="M54.999,34.5H46a1.5,1.5,0,0,0,0,3h8.999a1.5,1.5,0,0,0,0-3Z"/><path d="M54.999,41.5H46a1.5,1.5,0,0,0,0,3h8.999a1.5,1.5,0,0,0,0-3Z"/><path d="M54.999,48.5H46a1.5,1.5,0,0,0,0,3h8.999a1.5,1.5,0,0,0,0-3Z"/><path d="M13.5,54v2h21V54a10.5,10.5,0,0,0-21,0Z" style="fill:#3e3ef4"/><circle cx="24" cy="36" r="4.5" style="fill:#3e3ef4"/><path d="M37,23H11a3.50424,3.50424,0,0,0-3.5,3.5v26a3.495,3.495,0,0,0,3,3.44946V54a13.51476,13.51476,0,0,1,8.41888-12.49933,7.5,7.5,0,1,1,10.16224,0A13.51476,13.51476,0,0,1,37.5,54v1.94946A3.495,3.495,0,0,0,40.5,52.5v-26A3.50424,3.50424,0,0,0,37,23Z" style="fill:#3e3ef4"/></svg>