<svg id="artwork" xmlns="http://www.w3.org/2000/svg" width="64" height="64" viewBox="0 0 64 64"><title>Police</title><path d="M47.3291,31.435l-9.21875-2.07227L33.29,21.23483a1.50121,1.50121,0,0,0-2.58008,0l-4.82031,8.12793L16.6709,31.435a1.50112,1.50112,0,0,0-.79736,2.4541l6.23925,7.0957-.877,9.40723a1.50042,1.50042,0,0,0,2.0874,1.5166L32,48.16843l8.67676,3.74023a1.5009,1.5009,0,0,0,2.0874-1.5166l-.87695-9.40723,6.23925-7.0957A1.501,1.501,0,0,0,47.3291,31.435Z" style="fill:#3e3ef4"/><path d="M63.027,12.09352a1.49956,1.49956,0,0,0,.2334-1.90622L57.45373,1.18743A1.49863,1.49863,0,0,0,55.6002.623,29.605,29.605,0,0,1,32.55371.60638a1.50627,1.50627,0,0,0-1.10742,0A29.22428,29.22428,0,0,1,8.3998.623a1.50079,1.50079,0,0,0-1.85353.56445L.73961,10.1873A1.49956,1.49956,0,0,0,.973,12.09352l.98438.92479A14.647,14.647,0,0,1,4.14245,31.41257a16.78633,16.78633,0,0,0-2.67481,9.1239A16.52765,16.52765,0,0,0,11.94376,56.005l19.525,7.39736a1.4936,1.4936,0,0,0,1.0625,0L52.05673,56.005A16.52793,16.52793,0,0,0,62.53236,40.53647a16.78633,16.78633,0,0,0-2.67481-9.1239,14.647,14.647,0,0,1,2.18506-18.39426Zm-3.49464,28.443a13.514,13.514,0,0,1-8.53861,12.66387L32,60.39555,13.00675,53.20034a13.51374,13.51374,0,0,1-8.5391-12.66387A13.79345,13.79345,0,0,1,6.663,33.0395a17.52606,17.52606,0,0,0,1.74-15.53883H55.597a17.52606,17.52606,0,0,0,1.74,15.53883A13.79345,13.79345,0,0,1,59.53235,40.53647ZM57.02562,14.50071H6.97438a17.93141,17.93141,0,0,0-3.03652-3.73725l4.45461-6.9042A32.85143,32.85143,0,0,0,32,3.61513a32.78157,32.78157,0,0,0,23.60753.24413l4.45461,6.9042A17.38468,17.38468,0,0,0,57.02562,14.50071Z"/></svg>