<svg id="artwork" xmlns="http://www.w3.org/2000/svg" width="64" height="64" viewBox="0 0 64 64"><title>Server</title><path d="M54.00336,40.5h8.15753A16.54631,16.54631,0,0,0,50.0177,30.78937C51.996,32.63531,53.33533,36.27924,54.00336,40.5Z" style="fill:#3e3ef4"/><path d="M51.5,47c0-1.23029-.05878-2.39459-.15649-3.5h-8.687C42.55878,44.60541,42.5,45.76971,42.5,47s.05878,2.39459.15649,3.5h8.687C51.44122,49.39459,51.5,48.23029,51.5,47Z" style="fill:#3e3ef4"/><path d="M43.05182,53.5c.88391,4.96741,2.6532,8,3.94818,8s3.06427-3.03259,3.94818-8Z" style="fill:#3e3ef4"/><path d="M63.118,50.5a16.22669,16.22669,0,0,0,0-7h-8.762c.09314,1.15472.14392,2.32739.14392,3.5s-.05078,2.34528-.14392,3.5Z" style="fill:#3e3ef4"/><path d="M54.00336,53.5c-.668,4.22076-2.00739,7.86469-3.98566,9.71063A16.54631,16.54631,0,0,0,62.16089,53.5Z" style="fill:#3e3ef4"/><path d="M39.9967,53.5H31.83911A16.54631,16.54631,0,0,0,43.9823,63.21063C42.004,61.36469,40.66473,57.72076,39.9967,53.5Z" style="fill:#3e3ef4"/><path d="M50.94824,40.5c-.88391-4.96741-2.65326-8-3.94824-8s-3.06433,3.03259-3.94824,8Z" style="fill:#3e3ef4"/><path d="M30.882,43.5a16.22669,16.22669,0,0,0,0,7h8.762C39.55078,49.34528,39.5,48.17261,39.5,47s.05078-2.34528.14392-3.5Z" style="fill:#3e3ef4"/><path d="M39.9967,40.5c.668-4.22076,2.00733-7.86469,3.9856-9.71063A16.54631,16.54631,0,0,0,31.83911,40.5Z" style="fill:#3e3ef4"/><path d="M56.5,4A3.50424,3.50424,0,0,0,53,.5H4A3.50424,3.50424,0,0,0,.5,4V20a3.47357,3.47357,0,0,0,.63544,2A3.47357,3.47357,0,0,0,.5,24V40a3.47357,3.47357,0,0,0,.63544,2A3.47357,3.47357,0,0,0,.5,44V60A3.50424,3.50424,0,0,0,4,63.5H33.99951a1.5,1.5,0,0,0,0-3H4a.50065.50065,0,0,1-.5-.5V44a.50065.50065,0,0,1,.5-.5H27a1.5,1.5,0,0,0,0-3H4a.50065.50065,0,0,1-.5-.5V24a.50034.50034,0,0,1,.5-.5H53a.50034.50034,0,0,1,.5.5v4a1.5,1.5,0,0,0,3,0V24a3.47357,3.47357,0,0,0-.63544-2A3.47357,3.47357,0,0,0,56.5,20ZM4,20.5a.50034.50034,0,0,1-.5-.5V4A.50034.50034,0,0,1,4,3.5H53a.50034.50034,0,0,1,.5.5V20a.50034.50034,0,0,1-.5.5Z"/><path d="M15,6.5H8A1.49977,1.49977,0,0,0,6.5,8v8A1.49977,1.49977,0,0,0,8,17.5h7A1.49977,1.49977,0,0,0,16.5,16V8A1.49977,1.49977,0,0,0,15,6.5Zm-1.5,8h-4v-5h4Z"/><path d="M28,6.5H21A1.49977,1.49977,0,0,0,19.5,8v8A1.49977,1.49977,0,0,0,21,17.5h7A1.49977,1.49977,0,0,0,29.5,16V8A1.49977,1.49977,0,0,0,28,6.5Zm-1.5,8h-4v-5h4Z"/><path d="M49,10.5H36a1.5,1.5,0,0,0,0,3H49a1.5,1.5,0,0,0,0-3Z"/><path d="M8,26.5A1.49977,1.49977,0,0,0,6.5,28v8A1.50007,1.50007,0,0,0,8,37.5h7A1.50007,1.50007,0,0,0,16.5,36V28A1.49977,1.49977,0,0,0,15,26.5Zm5.5,8h-4v-5h4Z"/><path d="M29.5,28A1.49977,1.49977,0,0,0,28,26.5H21A1.49977,1.49977,0,0,0,19.5,28v8A1.50007,1.50007,0,0,0,21,37.5h7A1.50007,1.50007,0,0,0,29.5,36Zm-3,6.5h-4v-5h4Z"/><path d="M8,46.5A1.50008,1.50008,0,0,0,6.5,48v8A1.50007,1.50007,0,0,0,8,57.5h7A1.50007,1.50007,0,0,0,16.5,56V48A1.50008,1.50008,0,0,0,15,46.5Zm5.5,8h-4v-5h4Z"/><path d="M25,49.5a1.5,1.5,0,0,0,0-3H21A1.50008,1.50008,0,0,0,19.5,48v8A1.50007,1.50007,0,0,0,21,57.5h7a1.5,1.5,0,0,0,0-3H22.5v-5Z"/></svg>