<svg id="artwork" xmlns="http://www.w3.org/2000/svg" width="64" height="64" viewBox="0 0 64 64"><title>Shield</title><path d="M58.44092,8.56662l-26-8a1.49171,1.49171,0,0,0-.88184,0l-26,8A1.49965,1.49965,0,0,0,4.5,10.0002V30.52356A33.59908,33.59908,0,0,0,31.7168,63.47314a1.50633,1.50633,0,0,0,.5664,0A33.59908,33.59908,0,0,0,59.5,30.52356V10.0002A1.49965,1.49965,0,0,0,58.44092,8.56662ZM56.5,30.52356a30.59735,30.59735,0,0,1-23,29.60157V52.99955a1.5,1.5,0,0,0-3,0v7.12558a30.59735,30.59735,0,0,1-23-29.60157V11.10811l23-7.077v6.96763a1.5,1.5,0,0,0,3,0V4.03111l23,7.077Z"/><path d="M32,15.50018A16.49994,16.49994,0,1,0,48.5,32.00012,16.51864,16.51864,0,0,0,32,15.50018Zm8.00342,13.1147-10,9a1.5,1.5,0,0,1-2.17481-.17773l-4-5a1.5,1.5,0,0,1,2.34278-1.874l3.00683,3.75878,8.81836-7.93649a1.49983,1.49983,0,1,1,2.00684,2.22948Z" style="fill:#3e3ef4"/></svg>