<svg id="artwork" xmlns="http://www.w3.org/2000/svg" width="64" height="64" viewBox="0 0 64 64"><title>Smartphone</title><path d="M49,.5H15A4.50491,4.50491,0,0,0,10.5,5V59A4.50491,4.50491,0,0,0,15,63.5H49A4.50491,4.50491,0,0,0,53.5,59V5A4.50491,4.50491,0,0,0,49,.5Zm-35.5,9h37v45h-37Zm1.5-6H49A1.50164,1.50164,0,0,1,50.5,5V6.5h-37V5A1.50164,1.50164,0,0,1,15,3.5Zm34,57H15A1.50164,1.50164,0,0,1,13.5,59V57.5h37V59A1.50164,1.50164,0,0,1,49,60.5Z"/><path d="M44.47461,19.57715l-12-4a1.503,1.503,0,0,0-.94922,0l-12,4A1.49988,1.49988,0,0,0,18.5,21v9.35107A19.02452,19.02452,0,0,0,31.52539,48.42285a1.49848,1.49848,0,0,0,.94922,0A19.02451,19.02451,0,0,0,45.5,30.35107V21A1.49988,1.49988,0,0,0,44.47461,19.57715Zm-6.80469,10.5376-6.666,6A1.49982,1.49982,0,0,1,28.8291,35.937l-2.667-3.33349a1.49967,1.49967,0,1,1,2.3418-1.874l1.67382,2.09229,5.48536-4.93653a1.49984,1.49984,0,1,1,2.00683,2.2295Z" style="fill:#3e3ef4"/></svg>