<svg id="artwork" xmlns="http://www.w3.org/2000/svg" width="64" height="64" viewBox="0 0 64 64"><title>Spyware</title><path d="M32,18.50016A16.49993,16.49993,0,1,0,48.50013,35.00009,16.51932,16.51932,0,0,0,32,18.50016Zm1.5,24.9999a1.5,1.5,0,0,1-3,0v-.501a1.5,1.5,0,0,1,3,0Zm0-6a1.5,1.5,0,0,1-3,0V26.50013a1.5,1.5,0,0,1,3,0Z" style="fill:#3e3ef4"/><path d="M63.07446,33.95322,51.76675,22.35464l4.294-4.29393a1.49984,1.49984,0,1,0-2.12111-2.12109l-4.26706,4.267a22.88577,22.88577,0,0,0-8.8744-6.03941l1.6443-5.75492a1.50011,1.50011,0,0,0-2.88478-.82421l-1.615,5.6522a24.2287,24.2287,0,0,0-11.88546,0l-1.615-5.6522a1.50011,1.50011,0,0,0-2.88478.82421l1.6443,5.75492a24.63167,24.63167,0,0,0-8.8744,6.03941l-4.26706-4.267a1.49984,1.49984,0,1,0-2.12111,2.12109l4.294,4.29393L.92554,33.95322a1.50046,1.50046,0,0,0,0,2.09374L14.662,50.13675a24.0943,24.0943,0,0,0,34.67606,0L63.07446,36.047A1.50046,1.50046,0,0,0,63.07446,33.95322ZM47.18957,48.043a21.09462,21.09462,0,0,1-30.37914,0L4.09451,35.00009,16.81043,21.95718a21.09459,21.09459,0,0,1,30.37914,0L59.90549,35.00009Z"/></svg>