<svg id="artwork" xmlns="http://www.w3.org/2000/svg" width="64" height="64" viewBox="0 0 64 64"><title>Warning Sign</title><path d="M38,11.50082H26a1.5006,1.5006,0,0,0-1.49121,1.66553l2,18A1.50055,1.50055,0,0,0,28,32.50082h8a1.50055,1.50055,0,0,0,1.49121-1.33447l2-18A1.50052,1.50052,0,0,0,38,11.50082Z" style="fill:#3e3ef4"/><rect x="26.5" y="35.50082" width="11" height="9" rx="1.5" style="fill:#3e3ef4"/><path d="M32,1.5C14.63086,1.5.5,13.388.5,28.00071.5,41.09384,11.91992,52.226,27.20313,54.18892l3.43457,7.4416a1.502,1.502,0,0,0,2.7246,0l3.43458-7.4416C52.08008,52.226,63.5,41.09384,63.5,28.00071,63.5,13.388,49.36914,1.5,32,1.5Zm3.63086,49.80407a1.50268,1.50268,0,0,0-1.20606.86331L32,57.4224l-2.4248-5.255a1.50268,1.50268,0,0,0-1.20606-.86331C14.19141,49.81478,3.5,39.796,3.5,28.00071,3.5,15.04236,16.28516,4.50008,32,4.50008S60.5,15.04236,60.5,28.00071C60.5,39.796,49.80859,49.81478,35.63086,51.30407Z"/></svg>