<svg width="60" height="60" viewBox="0 0 60 60" fill="none" xmlns="http://www.w3.org/2000/svg">
<path d="M53.0156 10.1406C53.2601 10.1406 53.4946 10.0435 53.6675 9.87061C53.8403 9.69776 53.9375 9.46323 53.9375 9.21875V5.53125C53.9375 5.28675 53.8403 5.05227 53.6675 4.87938C53.4946 4.7065 53.2601 4.60938 53.0156 4.60938H33.6562V3.6875C33.6562 2.70951 33.2678 1.77159 32.5762 1.08004C31.8847 0.3885 30.9468 0 29.9688 0C28.9907 0 28.0528 0.3885 27.3613 1.08004C26.6697 1.77159 26.2812 2.70951 26.2812 3.6875V4.60938H6.92188C6.67738 4.60938 6.44291 4.7065 6.27002 4.87938C6.09714 5.05227 6 5.28675 6 5.53125V9.21875C6 9.46323 6.09714 9.69776 6.27002 9.87061C6.44291 10.0435 6.67738 10.1406 6.92188 10.1406H8.76562V34.1094H6.92188C6.67738 34.1094 6.44291 34.2065 6.27002 34.3794C6.09714 34.5522 6 34.7868 6 35.0312V38.7188C6 38.9632 6.09714 39.1978 6.27002 39.3706C6.44291 39.5435 6.67738 39.6406 6.92188 39.6406H26.2812V51.625C26.2812 52.114 26.087 52.5829 25.7412 52.9287C25.3954 53.2745 24.9265 53.4688 24.4375 53.4688C23.7041 53.4688 23.0006 53.7602 22.4819 54.2788C21.9633 54.7974 21.6719 55.5009 21.6719 56.2344V57.1562H6.92188C6.67738 57.1562 6.44291 57.2534 6.27002 57.4263C6.09714 57.5991 6 57.8336 6 58.0781C6 58.3226 6.09714 58.5571 6.27002 58.73C6.44291 58.9028 6.67738 59 6.92188 59H53.0156C53.2601 59 53.4946 58.9028 53.6675 58.73C53.8403 58.5571 53.9375 58.3226 53.9375 58.0781C53.9375 57.8336 53.8403 57.5991 53.6675 57.4263C53.4946 57.2534 53.2601 57.1562 53.0156 57.1562H38.2656V56.2344C38.2656 55.5009 37.9742 54.7974 37.4556 54.2788C36.9369 53.7602 36.2334 53.4688 35.5 53.4688C35.011 53.4688 34.5421 53.2745 34.1963 52.9287C33.8505 52.5829 33.6562 52.114 33.6562 51.625V39.6406H53.0156C53.2601 39.6406 53.4946 39.5435 53.6675 39.3706C53.8403 39.1978 53.9375 38.9632 53.9375 38.7188V35.0312C53.9375 34.7868 53.8403 34.5522 53.6675 34.3794C53.4946 34.2065 53.2601 34.1094 53.0156 34.1094H51.1719V10.1406H53.0156ZM28.125 3.6875C28.125 3.19851 28.3192 2.72954 28.665 2.38377C29.0108 2.038 29.4798 1.84375 29.9688 1.84375C30.4577 1.84375 30.9267 2.038 31.2725 2.38377C31.6183 2.72954 31.8125 3.19851 31.8125 3.6875V4.60938H28.125V3.6875ZM7.84375 6.45312H52.0938V8.29688H7.84375V6.45312ZM23.5156 57.1562V56.2344C23.5156 55.9899 23.6128 55.7554 23.7856 55.5825C23.9585 55.4097 24.193 55.3125 24.4375 55.3125H35.5C35.7445 55.3125 35.979 55.4097 36.1519 55.5825C36.3247 55.7554 36.4219 55.9899 36.4219 56.2344V57.1562H23.5156ZM32.3103 53.4688H27.6272C27.9521 52.9085 28.1239 52.2726 28.125 51.625V39.6406H31.8125V51.625C31.8136 52.2726 31.9854 52.9085 32.3103 53.4688ZM52.0938 37.7969H7.84375V35.9531H52.0938V37.7969ZM49.3281 34.1094H10.6094V10.1406H49.3281V34.1094Z" fill="#01A4F1"/>
<path d="M13.375 13.8281H46.5625C46.807 13.8281 47.0415 13.731 47.2144 13.5581C47.3872 13.3853 47.4844 13.1507 47.4844 12.9062C47.4844 12.6618 47.3872 12.4272 47.2144 12.2544C47.0415 12.0815 46.807 11.9844 46.5625 11.9844H13.375C13.1305 11.9844 12.896 12.0815 12.7232 12.2544C12.5503 12.4272 12.4531 12.6618 12.4531 12.9062C12.4531 13.1507 12.5503 13.3853 12.7232 13.5581C12.896 13.731 13.1305 13.8281 13.375 13.8281Z" fill="#01A4F1"/>
<path d="M13.375 17.5156H27.2031C27.4476 17.5156 27.6821 17.4185 27.855 17.2456C28.0278 17.0728 28.125 16.8382 28.125 16.5938C28.125 16.3493 28.0278 16.1147 27.855 15.9419C27.6821 15.769 27.4476 15.6719 27.2031 15.6719H13.375C13.1305 15.6719 12.896 15.769 12.7232 15.9419C12.5503 16.1147 12.4531 16.3493 12.4531 16.5938C12.4531 16.8382 12.5503 17.0728 12.7232 17.2456C12.896 17.4185 13.1305 17.5156 13.375 17.5156Z" fill="#01A4F1"/>
<path d="M42.875 16.5938C42.875 16.3493 42.7778 16.1147 42.605 15.9419C42.4321 15.769 42.1976 15.6719 41.9531 15.6719H30.8906C30.6461 15.6719 30.4116 15.769 30.2388 15.9419C30.0659 16.1147 29.9688 16.3493 29.9688 16.5938C29.9688 16.8382 30.0659 17.0728 30.2388 17.2456C30.4116 17.4185 30.6461 17.5156 30.8906 17.5156H41.9531C42.1976 17.5156 42.4321 17.4185 42.605 17.2456C42.7778 17.0728 42.875 16.8382 42.875 16.5938Z" fill="#01A4F1"/>
<path d="M13.375 21.2031H21.6719C21.9164 21.2031 22.1509 21.106 22.3237 20.9331C22.4966 20.7603 22.5938 20.5257 22.5938 20.2812C22.5938 20.0368 22.4966 19.8022 22.3237 19.6294C22.1509 19.4565 21.9164 19.3594 21.6719 19.3594H13.375C13.1305 19.3594 12.896 19.4565 12.7232 19.6294C12.5503 19.8022 12.4531 20.0368 12.4531 20.2812C12.4531 20.5257 12.5503 20.7603 12.7232 20.9331C12.896 21.106 13.1305 21.2031 13.375 21.2031Z" fill="#01A4F1"/>
<path d="M13.375 24.8906H46.5625C46.807 24.8906 47.0415 24.7935 47.2144 24.6206C47.3872 24.4478 47.4844 24.2132 47.4844 23.9688C47.4844 23.7243 47.3872 23.4897 47.2144 23.3169C47.0415 23.144 46.807 23.0469 46.5625 23.0469H13.375C13.1305 23.0469 12.896 23.144 12.7232 23.3169C12.5503 23.4897 12.4531 23.7243 12.4531 23.9688C12.4531 24.2132 12.5503 24.4478 12.7232 24.6206C12.896 24.7935 13.1305 24.8906 13.375 24.8906Z" fill="#01A4F1"/>
<path d="M13.375 28.5781H32.7344C32.9789 28.5781 33.2134 28.481 33.3862 28.3081C33.5591 28.1353 33.6562 27.9007 33.6562 27.6562C33.6562 27.4118 33.5591 27.1772 33.3862 27.0044C33.2134 26.8315 32.9789 26.7344 32.7344 26.7344H13.375C13.1305 26.7344 12.896 26.8315 12.7232 27.0044C12.5503 27.1772 12.4531 27.4118 12.4531 27.6562C12.4531 27.9007 12.5503 28.1353 12.7232 28.3081C12.896 28.481 13.1305 28.5781 13.375 28.5781Z" fill="#01A4F1"/>
<path d="M37.3438 30.4219H21.6719C21.4274 30.4219 21.1929 30.519 21.02 30.6919C20.8472 30.8647 20.75 31.0993 20.75 31.3438C20.75 31.5882 20.8472 31.8228 21.02 31.9956C21.1929 32.1685 21.4274 32.2656 21.6719 32.2656H37.3438C37.5882 32.2656 37.8228 32.1685 37.9956 31.9956C38.1685 31.8228 38.2656 31.5882 38.2656 31.3438C38.2656 31.0993 38.1685 30.8647 37.9956 30.6919C37.8228 30.519 37.5882 30.4219 37.3438 30.4219Z" fill="#01A4F1"/>
<path d="M42.875 26.7344H36.4219C36.1774 26.7344 35.9429 26.8315 35.77 27.0044C35.5972 27.1772 35.5 27.4118 35.5 27.6562C35.5 27.9007 35.5972 28.1353 35.77 28.3081C35.9429 28.481 36.1774 28.5781 36.4219 28.5781H42.875C43.1195 28.5781 43.354 28.481 43.5269 28.3081C43.6997 28.1353 43.7969 27.9007 43.7969 27.6562C43.7969 27.4118 43.6997 27.1772 43.5269 27.0044C43.354 26.8315 43.1195 26.7344 42.875 26.7344Z" fill="#01A4F1"/>
<path d="M25.3594 19.3594C25.1149 19.3594 24.8804 19.4565 24.7075 19.6294C24.5347 19.8022 24.4375 20.0368 24.4375 20.2812C24.4375 20.5257 24.5347 20.7603 24.7075 20.9331C24.8804 21.106 25.1149 21.2031 25.3594 21.2031H31.8125C32.057 21.2031 32.2915 21.106 32.4644 20.9331C32.6372 20.7603 32.7344 20.5257 32.7344 20.2812C32.7344 20.0368 32.6372 19.8022 32.4644 19.6294C32.2915 19.4565 32.057 19.3594 31.8125 19.3594H25.3594Z" fill="#01A4F1"/>
<path d="M13.375 32.2656H17.9844C18.2289 32.2656 18.4634 32.1685 18.6362 31.9956C18.8091 31.8228 18.9062 31.5882 18.9062 31.3438C18.9062 31.0993 18.8091 30.8647 18.6362 30.6919C18.4634 30.519 18.2289 30.4219 17.9844 30.4219H13.375C13.1305 30.4219 12.896 30.519 12.7232 30.6919C12.5503 30.8647 12.4531 31.0993 12.4531 31.3438C12.4531 31.5882 12.5503 31.8228 12.7232 31.9956C12.896 32.1685 13.1305 32.2656 13.375 32.2656Z" fill="#01A4F1"/>
</svg>
