<svg width="60" height="60" viewBox="0 0 60 60" fill="none" xmlns="http://www.w3.org/2000/svg">
<path d="M44.1177 58.7347H15.8824C15.2612 58.7347 14.7471 58.2523 14.7082 57.6312L12.3553 19.9841C12.3353 19.6606 12.4494 19.3418 12.6718 19.1053C12.8941 18.8688 13.2047 18.7347 13.5294 18.7347H46.4706C46.7953 18.7347 47.1059 18.8688 47.3282 19.1053C47.5506 19.3418 47.6647 19.6606 47.6447 19.9841L45.2918 57.6312C45.253 58.2523 44.7388 58.7347 44.1177 58.7347ZM16.9871 56.3818H43.0118L45.2177 21.0876H14.7812L16.9871 56.3818Z" fill="#01A4F1"/>
<path d="M48.8235 21.0876H11.1765C10.5271 21.0876 10 20.5618 10 19.9112V10.4994C10 9.84885 10.5271 9.32296 11.1765 9.32296H48.8235C49.4729 9.32296 50 9.84885 50 10.4994V19.9112C50 20.5618 49.4729 21.0876 48.8235 21.0876ZM12.3529 18.7347H47.6471V11.6759H12.3529V18.7347Z" fill="#01A4F1"/>
<path d="M46.4941 11.6759C46.4871 11.6747 46.4788 11.6759 46.4706 11.6759H13.5294C13.1518 11.6759 12.7965 11.4947 12.5753 11.1877C12.3541 10.8806 12.2941 10.4853 12.4129 10.1277L14.7659 3.06886C14.9271 2.58768 15.3753 2.26415 15.8824 2.26415H44.1176C44.6247 2.26415 45.0729 2.58768 45.2341 3.06886L47.5165 9.91709C47.6141 10.0889 47.6706 10.2877 47.6706 10.4994C47.6706 11.15 47.1435 11.6759 46.4941 11.6759ZM15.1612 9.32298H44.8388L43.2706 4.61709H16.7306L15.1612 9.32298Z" fill="#01A4F1"/>
<path d="M45.8823 30.4994H14.1176C13.4682 30.4994 12.9412 29.9735 12.9412 29.3229C12.9412 28.6723 13.4682 28.1465 14.1176 28.1465H45.8823C46.5317 28.1465 47.0588 28.6723 47.0588 29.3229C47.0588 29.9735 46.5317 30.4994 45.8823 30.4994Z" fill="#01A4F1"/>
<path d="M45 42.2641H15V44.6172H45V42.2641Z" fill="#01A4F1"/>
<path d="M33.5294 37.5582H26.4706C25.8212 37.5582 25.2941 37.0323 25.2941 36.3818C25.2941 35.7312 25.8212 35.2053 26.4706 35.2053H33.5294C34.1788 35.2053 34.7059 35.7312 34.7059 36.3818C34.7059 37.0323 34.1788 37.5582 33.5294 37.5582Z" fill="#01A4F1"/>
</svg>
