<svg width="60" height="60" viewBox="0 0 60 60" fill="none" xmlns="http://www.w3.org/2000/svg">
<path d="M58.0938 37.3437H47.2188V34.625H48.125C49.3268 34.625 50.4793 34.1476 51.329 33.2978C52.1788 32.448 52.6562 31.2955 52.6562 30.0937V23.75C52.6562 22.5482 52.1788 21.3957 51.329 20.546C50.4793 19.6962 49.3268 19.2187 48.125 19.2187H47.1281C46.2586 17.3303 44.8659 15.7307 43.1153 14.6094C41.3645 13.4881 39.329 12.8922 37.25 12.8922C35.171 12.8922 33.1355 13.4881 31.3847 14.6094C29.6341 15.7307 28.2414 17.3303 27.3719 19.2187H11.875C10.6732 19.2187 9.52071 19.6962 8.67094 20.546C7.82116 21.3957 7.34375 22.5482 7.34375 23.75V30.0937C7.34375 31.2955 7.82116 32.448 8.67094 33.2978C9.52071 34.1476 10.6732 34.625 11.875 34.625H12.7812V37.3437H1.90625C1.6659 37.3437 1.4354 37.4393 1.26545 37.6092C1.09549 37.7791 1 38.0097 1 38.25V42.7812C1 43.0216 1.09549 43.2521 1.26545 43.4221C1.4354 43.592 1.6659 43.6875 1.90625 43.6875H3.71875V57.2812C3.71875 57.5216 3.81424 57.7521 3.9842 57.9221C4.15415 58.092 4.38464 58.1875 4.625 58.1875C4.86536 58.1875 5.09585 58.092 5.2658 57.9221C5.43576 57.7521 5.53125 57.5216 5.53125 57.2812V43.6875H8.25V57.2812C8.25 57.5216 8.34549 57.7521 8.51545 57.9221C8.6854 58.092 8.91589 58.1875 9.15625 58.1875C9.39661 58.1875 9.6271 58.092 9.79705 57.9221C9.96701 57.7521 10.0625 57.5216 10.0625 57.2812V50.9375H49.9375V57.2812C49.9375 57.5216 50.033 57.7521 50.2029 57.9221C50.3729 58.092 50.6034 58.1875 50.8438 58.1875C51.0841 58.1875 51.3146 58.092 51.4846 57.9221C51.6545 57.7521 51.75 57.5216 51.75 57.2812V43.6875H54.4688V57.2812C54.4688 57.5216 54.5643 57.7521 54.7342 57.9221C54.9041 58.092 55.1347 58.1875 55.375 58.1875C55.6153 58.1875 55.8459 58.092 56.0158 57.9221C56.1857 57.7521 56.2812 57.5216 56.2812 57.2812V43.6875H58.0938C58.3341 43.6875 58.5646 43.592 58.7346 43.4221C58.9045 43.2521 59 43.0216 59 42.7812V38.25C59 38.0097 58.9045 37.7791 58.7346 37.6092C58.5646 37.4393 58.3341 37.3437 58.0938 37.3437ZM45.4062 37.3437H39.9688V34.625H45.4062V37.3437ZM21.8438 37.3437V34.625H38.1562V37.3437H21.8438ZM37.25 29.1875C36.1746 29.1875 35.1233 28.8686 34.2291 28.2711C33.3349 27.6736 32.638 26.8245 32.2264 25.8308C31.8149 24.8373 31.7072 23.744 31.917 22.6892C32.1268 21.6344 32.6446 20.6656 33.4051 19.9051C34.1656 19.1446 35.1344 18.6268 36.1892 18.417C37.244 18.2072 38.3373 18.3149 39.3308 18.7264C40.3245 19.138 41.1736 19.8349 41.7711 20.7291C42.3686 21.6233 42.6875 22.6746 42.6875 23.75C42.6875 25.1921 42.1147 26.5751 41.0949 27.5949C40.0751 28.6147 38.6921 29.1875 37.25 29.1875ZM30.9697 27.375H9.15625V25.5625H30.2356C30.3989 26.1965 30.6458 26.8061 30.9697 27.375ZM44.2644 25.5625H50.8438V27.375H43.5303C43.8522 26.8051 44.0989 26.1958 44.2644 25.5625ZM11.875 21.0312H27.97C28.1526 21.0307 28.3307 20.9751 28.481 20.8716C28.6315 20.7681 28.7471 20.6215 28.8128 20.4512C29.4778 18.7551 30.6385 17.2989 32.1436 16.2723C33.6487 15.2458 35.4282 14.6967 37.25 14.6967C39.0718 14.6967 40.8513 15.2458 42.3564 16.2723C43.8615 17.2989 45.0222 18.7551 45.6872 20.4512C45.7529 20.6215 45.8685 20.7681 46.019 20.8716C46.1693 20.9751 46.3474 21.0307 46.53 21.0312H48.125C48.846 21.0312 49.5376 21.3177 50.0474 21.8276C50.5573 22.3374 50.8438 23.029 50.8438 23.75H44.5C44.5 21.8272 43.7362 19.9831 42.3766 18.6234C41.0169 17.2638 39.1728 16.5 37.25 16.5C35.3272 16.5 33.4831 17.2638 32.1234 18.6234C30.7638 19.9831 30 21.8272 30 23.75H9.15625C9.15625 23.029 9.4427 22.3374 9.95256 21.8276C10.4624 21.3177 11.154 21.0312 11.875 21.0312ZM9.15625 30.0937V29.1875H32.4741C33.7907 30.3558 35.4898 31.001 37.25 31.001C39.0102 31.001 40.7093 30.3558 42.0259 29.1875H50.8438V30.0937C50.8438 30.8148 50.5573 31.5063 50.0474 32.0162C49.5376 32.526 48.846 32.8125 48.125 32.8125H11.875C11.154 32.8125 10.4624 32.526 9.95256 32.0162C9.4427 31.5063 9.15625 30.8148 9.15625 30.0937ZM14.5938 34.625H20.0312V37.3437H14.5938V34.625ZM49.9375 49.125H10.0625V43.6875H49.9375V49.125ZM57.1875 41.875H2.8125V39.1562H57.1875V41.875Z" fill="#01A4F1"/>
<path d="M28.1875 47.3125H31.8125C32.0528 47.3125 32.2834 47.217 32.4533 47.0471C32.6232 46.8771 32.7188 46.6466 32.7188 46.4063C32.7188 46.1659 32.6232 45.9354 32.4533 45.7654C32.2834 45.5955 32.0528 45.5 31.8125 45.5H28.1875C27.9472 45.5 27.7166 45.5955 27.5467 45.7654C27.3768 45.9354 27.2812 46.1659 27.2812 46.4063C27.2812 46.6466 27.3768 46.8771 27.5467 47.0471C27.7166 47.217 27.9472 47.3125 28.1875 47.3125Z" fill="#01A4F1"/>
<path d="M37.25 19.2188C36.0482 19.2188 34.8957 19.6962 34.046 20.546C33.1962 21.3957 32.7188 22.5482 32.7188 23.75C32.7188 23.9903 32.8143 24.2209 32.9842 24.3908C33.1541 24.5607 33.3847 24.6563 33.625 24.6563C33.8653 24.6563 34.0959 24.5607 34.2658 24.3908C34.4357 24.2209 34.5312 23.9903 34.5312 23.75C34.5312 23.029 34.8177 22.3374 35.3276 21.8276C35.8374 21.3177 36.529 21.0313 37.25 21.0313C37.4903 21.0313 37.7209 20.9357 37.8908 20.7658C38.0607 20.5959 38.1562 20.3653 38.1562 20.125C38.1562 19.8847 38.0607 19.6541 37.8908 19.4842C37.7209 19.3143 37.4903 19.2188 37.25 19.2188Z" fill="#01A4F1"/>
<path d="M18.2188 31.9062C18.4591 31.9062 18.6896 31.8107 18.8596 31.6408C19.0295 31.4709 19.125 31.2403 19.125 31C19.125 30.7597 19.0295 30.5291 18.8596 30.3592C18.6896 30.1893 18.4591 30.0938 18.2188 30.0938H13.6875C13.4472 30.0938 13.2166 30.1893 13.0467 30.3592C12.8768 30.5291 12.7812 30.7597 12.7812 31C12.7812 31.2403 12.8768 31.4709 13.0467 31.6408C13.2166 31.8107 13.4472 31.9062 13.6875 31.9062H18.2188Z" fill="#01A4F1"/>
<path d="M20.9375 31.9062H21.8438C22.0841 31.9062 22.3146 31.8107 22.4846 31.6408C22.6545 31.4709 22.75 31.2403 22.75 31C22.75 30.7597 22.6545 30.5291 22.4846 30.3592C22.3146 30.1893 22.0841 30.0938 21.8438 30.0938H20.9375C20.6972 30.0938 20.4666 30.1893 20.2967 30.3592C20.1268 30.5291 20.0312 30.7597 20.0312 31C20.0312 31.2403 20.1268 31.4709 20.2967 31.6408C20.4666 31.8107 20.6972 31.9062 20.9375 31.9062Z" fill="#01A4F1"/>
<path d="M37.25 11.0625C37.4903 11.0625 37.7209 10.967 37.8908 10.7971C38.0607 10.6271 38.1562 10.3966 38.1562 10.1562V2.90625C38.1562 2.6659 38.0607 2.4354 37.8908 2.26545C37.7209 2.09549 37.4903 2 37.25 2C37.0097 2 36.7791 2.09549 36.6092 2.26545C36.4393 2.4354 36.3438 2.6659 36.3438 2.90625V10.1562C36.3438 10.3966 36.4393 10.6271 36.6092 10.7971C36.7791 10.967 37.0097 11.0625 37.25 11.0625Z" fill="#01A4F1"/>
<path d="M40.5307 11.4975C40.6461 11.5289 40.7666 11.5373 40.8853 11.5219C41.004 11.5066 41.1185 11.4679 41.222 11.4081C41.3257 11.3482 41.4164 11.2685 41.4891 11.1733C41.5618 11.0783 41.6149 10.9698 41.6453 10.8541L42.5516 7.35594C42.5832 7.2411 42.5919 7.12114 42.5772 7.00293C42.5624 6.88473 42.5244 6.7706 42.4655 6.66708C42.4066 6.56355 42.3278 6.47265 42.2338 6.39958C42.1396 6.32651 42.0321 6.2727 41.9172 6.24125C41.8018 6.20977 41.6812 6.2015 41.5626 6.21685C41.4439 6.2322 41.3294 6.27089 41.2258 6.33071C41.1222 6.39053 41.0315 6.4703 40.9588 6.56538C40.8861 6.66046 40.833 6.76899 40.8025 6.8847L39.8963 10.3828C39.8647 10.4977 39.856 10.6176 39.8707 10.7358C39.8855 10.854 39.9235 10.9682 39.9824 11.0717C40.0413 11.1752 40.12 11.2661 40.2141 11.3392C40.3082 11.4122 40.4157 11.4661 40.5307 11.4975Z" fill="#01A4F1"/>
<path d="M46.2219 14.7781C46.3917 14.947 46.6213 15.0417 46.8608 15.0417C47.1002 15.0417 47.3298 14.947 47.4997 14.7781L50.0644 12.2134C50.2128 12.0401 50.2904 11.817 50.2816 11.5889C50.2728 11.3609 50.1782 11.1446 50.0169 10.9832C49.8555 10.8218 49.639 10.7272 49.411 10.7184C49.1829 10.7096 48.9599 10.7872 48.7865 10.9356L46.2219 13.5003C46.053 13.6701 45.9583 13.8998 45.9583 14.1392C45.9583 14.3787 46.053 14.6084 46.2219 14.7781Z" fill="#01A4F1"/>
<path d="M43.5938 12.7663C43.6972 12.8262 43.8114 12.865 43.93 12.8806C44.0485 12.8962 44.169 12.8881 44.2843 12.857C44.3997 12.8259 44.5078 12.7721 44.6024 12.699C44.6969 12.6259 44.7761 12.5348 44.8353 12.4309L48.4603 6.15063C48.5805 5.94152 48.6127 5.69324 48.5499 5.4604C48.487 5.22757 48.3341 5.02924 48.125 4.90907C47.9159 4.7889 47.6676 4.75671 47.4348 4.8196C47.202 4.88248 47.0036 5.03527 46.8834 5.24438L43.2584 11.5247C43.1985 11.6282 43.1597 11.7424 43.1441 11.8609C43.1285 11.9794 43.1366 12.0999 43.1677 12.2153C43.1989 12.3307 43.2526 12.4387 43.3257 12.5333C43.3988 12.6279 43.4899 12.7071 43.5938 12.7663Z" fill="#01A4F1"/>
<path d="M32.8547 10.8541C32.8851 10.9698 32.9382 11.0783 33.0109 11.1733C33.0836 11.2685 33.1743 11.3482 33.278 11.4081C33.3816 11.4679 33.496 11.5066 33.6147 11.5219C33.7334 11.5373 33.8539 11.5289 33.9694 11.4975C34.0843 11.4661 34.1919 11.4122 34.2859 11.3392C34.38 11.2661 34.4588 11.1752 34.5177 11.0717C34.5766 10.9682 34.6145 10.854 34.6293 10.7358C34.6441 10.6176 34.6354 10.4977 34.6038 10.3828L33.6975 6.8847C33.667 6.76899 33.6139 6.66046 33.5413 6.56538C33.4686 6.4703 33.3779 6.39053 33.2742 6.33071C33.1706 6.27089 33.0561 6.2322 32.9374 6.21685C32.8188 6.2015 32.6983 6.20977 32.5828 6.24125C32.4679 6.2727 32.3603 6.32651 32.2663 6.39958C32.1722 6.47265 32.0934 6.56355 32.0345 6.66708C31.9756 6.7706 31.9377 6.88473 31.9229 7.00293C31.9081 7.12114 31.9168 7.2411 31.9484 7.35594L32.8547 10.8541Z" fill="#01A4F1"/>
<path d="M27.0003 14.7781C27.1737 14.9266 27.3967 15.0042 27.6248 14.9954C27.8528 14.9866 28.0693 14.892 28.2307 14.7306C28.3921 14.5692 28.4866 14.3528 28.4954 14.1248C28.5043 13.8967 28.4266 13.6737 28.2781 13.5003L25.7135 10.9356C25.5401 10.7872 25.3171 10.7096 25.089 10.7184C24.8609 10.7272 24.6446 10.8218 24.4832 10.9832C24.3218 11.1446 24.2272 11.3609 24.2184 11.5889C24.2096 11.817 24.2872 12.0401 24.4356 12.2134L27.0003 14.7781Z" fill="#01A4F1"/>
<path d="M29.6647 12.4309C29.7849 12.64 29.9832 12.7928 30.2161 12.8557C30.4489 12.9186 30.6972 12.8864 30.9063 12.7663C31.1153 12.6461 31.2682 12.4478 31.331 12.2149C31.3939 11.9821 31.3618 11.7338 31.2416 11.5247L27.6166 5.24436C27.557 5.14082 27.4777 5.05002 27.3831 4.97714C27.2885 4.90425 27.1805 4.85072 27.0652 4.81958C26.9499 4.78844 26.8297 4.7803 26.7112 4.79565C26.5928 4.81101 26.4785 4.84954 26.375 4.90904C26.2714 4.96855 26.1807 5.04787 26.1078 5.14247C26.0349 5.23707 25.9813 5.34509 25.9502 5.46038C25.9191 5.57567 25.9109 5.69599 25.9263 5.81442C25.9417 5.93284 25.9802 6.04707 26.0397 6.15061L29.6647 12.4309Z" fill="#01A4F1"/>
</svg>
