<svg width="60" height="60" viewBox="0 0 60 60" fill="none" xmlns="http://www.w3.org/2000/svg">
<path d="M51.5538 42.486H51.0257L56.2729 32.1278C56.6818 31.3213 56.7536 30.3853 56.4724 29.5259C56.1913 28.6664 55.5802 27.9539 54.7737 27.545C53.9672 27.136 53.0312 27.0643 52.1718 27.3455C51.3123 27.6266 50.5998 28.2377 50.1909 29.0442L43.3764 42.486H39.3472L44.8841 21.7952C45.1179 20.922 44.9952 19.9917 44.5432 19.209C44.0911 18.4263 43.3466 17.8551 42.4734 17.6213C41.6002 17.3875 40.6699 17.51 39.8872 17.9622C39.1045 18.4142 38.5333 19.1587 38.2995 20.0319L32.3112 42.486H28.2054L22.2427 20.0319C22.0088 19.1587 21.4377 18.4142 20.6549 17.9622C19.8722 17.51 18.9419 17.3875 18.0687 17.6213C17.1955 17.8551 16.451 18.4263 15.999 19.209C15.5468 19.9917 15.4242 20.922 15.6581 21.7952L21.1949 42.486H17.1658L10.3512 29.0442C9.94231 28.2377 9.22976 27.6266 8.37031 27.3455C7.51087 27.0643 6.57494 27.136 5.76842 27.545C4.9619 27.9539 4.35084 28.6664 4.06969 29.5259C3.78853 30.3853 3.86031 31.3213 4.26921 32.1278L9.49088 42.486H8.96275C7.38133 42.486 5.86469 43.1142 4.74645 44.2324C3.62822 45.3506 3 46.8673 3 48.4487C3 50.0301 3.62822 51.5468 4.74645 52.665C5.86469 53.7832 7.38133 54.4115 8.96275 54.4115H51.5538C53.1352 54.4115 54.6519 53.7832 55.7702 52.665C56.8884 51.5468 57.5166 50.0301 57.5166 48.4487C57.5166 46.8673 56.8884 45.3506 55.7702 44.2324C54.6519 43.1142 53.1352 42.486 51.5538 42.486ZM51.7157 29.8194C51.9375 29.4508 52.2905 29.1797 52.7038 29.0606C53.1172 28.9416 53.5603 28.9833 53.9441 29.1773C54.3281 29.3715 54.6243 29.7036 54.7734 30.1071C54.9225 30.5105 54.9135 30.9555 54.7482 31.3526L49.1176 42.486H45.3015L51.7157 29.8194ZM39.9605 20.4493C40.0869 20.0272 40.3719 19.6705 40.7557 19.454C41.1395 19.2375 41.5922 19.1782 42.0189 19.2885C42.4455 19.3987 42.8128 19.6699 43.0436 20.0452C43.2746 20.4204 43.3511 20.8706 43.2571 21.3011L37.601 42.486H34.0745L39.9605 20.4493ZM17.2595 21.3011C17.1655 20.8706 17.242 20.4204 17.473 20.0452C17.7038 19.6699 18.0711 19.3987 18.4977 19.2885C18.9244 19.1782 19.3771 19.2375 19.7609 19.454C20.1447 19.6705 20.4297 20.0272 20.556 20.4493L26.4421 42.486H22.9156L17.2595 21.3011ZM5.76842 31.3526C5.64763 31.1519 5.56955 30.9284 5.53903 30.6961C5.50853 30.4639 5.52626 30.2278 5.59111 30.0027C5.65596 29.7775 5.76655 29.5682 5.91596 29.3877C6.06537 29.2073 6.25038 29.0596 6.45945 28.9539C6.66852 28.8482 6.89715 28.7868 7.13105 28.7734C7.36493 28.76 7.59907 28.7951 7.81882 28.8763C8.03856 28.9575 8.23919 29.0832 8.40817 29.2455C8.57715 29.4078 8.71084 29.6031 8.80091 29.8194L15.2151 42.486H11.399L5.76842 31.3526ZM51.5538 52.7078H8.96275C7.83317 52.7078 6.74984 52.2591 5.9511 51.4603C5.15237 50.6616 4.70364 49.5783 4.70364 48.4487C4.70364 47.3191 5.15237 46.2358 5.9511 45.4371C6.74984 44.6383 7.83317 44.1896 8.96275 44.1896H51.5538C52.6834 44.1896 53.7668 44.6383 54.5655 45.4371C55.3642 46.2358 55.813 47.3191 55.813 48.4487C55.813 49.5783 55.3642 50.6616 54.5655 51.4603C53.7668 52.2591 52.6834 52.7078 51.5538 52.7078Z" fill="#01A4F1"/>
<path d="M51.5538 45.8932C51.0485 45.8932 50.5543 46.0431 50.1341 46.3239C49.7138 46.6047 49.3863 47.0038 49.1929 47.4708C48.9995 47.9377 48.9489 48.4515 49.0474 48.9473C49.1461 49.443 49.3894 49.8983 49.7469 50.2557C50.1042 50.6131 50.5596 50.8565 51.0553 50.9551C51.551 51.0537 52.0648 51.0031 52.5318 50.8096C52.9987 50.6163 53.3979 50.2887 53.6786 49.8684C53.9595 49.4482 54.1093 48.9541 54.1093 48.4487C54.1093 47.771 53.84 47.121 53.3608 46.6417C52.8816 46.1625 52.2315 45.8932 51.5538 45.8932ZM51.5538 49.3005C51.3853 49.3005 51.2207 49.2506 51.0806 49.157C50.9405 49.0634 50.8313 48.9303 50.7668 48.7747C50.7024 48.6191 50.6855 48.4478 50.7184 48.2825C50.7513 48.1173 50.8323 47.9656 50.9515 47.8464C51.0706 47.7273 51.2224 47.6461 51.3877 47.6132C51.5529 47.5804 51.7242 47.5972 51.8798 47.6617C52.0355 47.7262 52.1685 47.8354 52.2621 47.9754C52.3557 48.1156 52.4057 48.2802 52.4057 48.4487C52.4057 48.6746 52.3159 48.8913 52.1562 49.051C51.9964 49.2107 51.7797 49.3005 51.5538 49.3005Z" fill="#01A4F1"/>
<path d="M45.5911 45.8932C45.0857 45.8932 44.5916 46.0431 44.1714 46.3239C43.7511 46.6047 43.4236 47.0038 43.2302 47.4708C43.0367 47.9377 42.9861 48.4515 43.0847 48.9473C43.1833 49.443 43.4267 49.8983 43.7841 50.2557C44.1415 50.6131 44.5969 50.8565 45.0925 50.9551C45.5883 51.0537 46.1021 51.0031 46.5691 50.8096C47.036 50.6163 47.4351 50.2887 47.7159 49.8684C47.9967 49.4482 48.1466 48.9541 48.1466 48.4487C48.1466 47.771 47.8773 47.121 47.3981 46.6417C46.9188 46.1625 46.2688 45.8932 45.5911 45.8932ZM45.5911 49.3005C45.4226 49.3005 45.258 49.2506 45.1178 49.157C44.9778 49.0634 44.8686 48.9303 44.8041 48.7747C44.7396 48.6191 44.7228 48.4478 44.7556 48.2825C44.7885 48.1173 44.8696 47.9656 44.9888 47.8464C45.1079 47.7273 45.2597 47.6461 45.4249 47.6132C45.5902 47.5804 45.7615 47.5972 45.9171 47.6617C46.0727 47.7262 46.2058 47.8354 46.2994 47.9754C46.3929 48.1156 46.4429 48.2802 46.4429 48.4487C46.4429 48.6746 46.3531 48.8913 46.1934 49.051C46.0337 49.2107 45.817 49.3005 45.5911 49.3005Z" fill="#01A4F1"/>
<path d="M39.6283 45.8932C39.123 45.8932 38.6288 46.0431 38.2086 46.3239C37.7883 46.6047 37.4608 47.0038 37.2674 47.4708C37.074 47.9377 37.0234 48.4515 37.1219 48.9473C37.2206 49.443 37.464 49.8983 37.8214 50.2557C38.1787 50.6131 38.6341 50.8565 39.1298 50.9551C39.6255 51.0537 40.1394 51.0031 40.6063 50.8096C41.0732 50.6163 41.4724 50.2887 41.7531 49.8684C42.034 49.4482 42.1838 48.9541 42.1838 48.4487C42.1838 47.771 41.9146 47.121 41.4353 46.6417C40.9561 46.1625 40.3061 45.8932 39.6283 45.8932ZM39.6283 49.3005C39.4599 49.3005 39.2952 49.2506 39.1551 49.157C39.015 49.0634 38.9058 48.9303 38.8413 48.7747C38.7769 48.6191 38.76 48.4478 38.7929 48.2825C38.8258 48.1173 38.9069 47.9656 39.026 47.8464C39.1451 47.7273 39.2969 47.6461 39.4622 47.6132C39.6274 47.5804 39.7987 47.5972 39.9543 47.6617C40.11 47.7262 40.243 47.8354 40.3366 47.9754C40.4302 48.1156 40.4802 48.2802 40.4802 48.4487C40.4802 48.6746 40.3904 48.8913 40.2307 49.051C40.071 49.2107 39.8543 49.3005 39.6283 49.3005Z" fill="#01A4F1"/>
<path d="M21.7401 45.8932H8.96275C8.73683 45.8932 8.52017 45.983 8.36042 46.1427C8.20068 46.3025 8.11093 46.5192 8.11093 46.7451C8.11093 46.971 8.20068 47.1877 8.36042 47.3474C8.52017 47.5071 8.73683 47.5969 8.96275 47.5969H21.7401C21.966 47.5969 22.1827 47.5071 22.3424 47.3474C22.5021 47.1877 22.5919 46.971 22.5919 46.7451C22.5919 46.5192 22.5021 46.3025 22.3424 46.1427C22.1827 45.983 21.966 45.8932 21.7401 45.8932Z" fill="#01A4F1"/>
<path d="M14.9255 49.3005H8.96275C8.73683 49.3005 8.52017 49.3903 8.36042 49.55C8.20068 49.7097 8.11093 49.9265 8.11093 50.1524C8.11093 50.3783 8.20068 50.595 8.36042 50.7547C8.52017 50.9144 8.73683 51.0042 8.96275 51.0042H14.9255C15.1514 51.0042 15.3681 50.9144 15.5278 50.7547C15.6875 50.595 15.7773 50.3783 15.7773 50.1524C15.7773 49.9265 15.6875 49.7097 15.5278 49.55C15.3681 49.3903 15.1514 49.3005 14.9255 49.3005Z" fill="#01A4F1"/>
<path d="M27.7028 17.7831C27.7028 18.2885 27.8527 18.7827 28.1335 19.2029C28.4143 19.6231 28.8134 19.9507 29.2804 20.144C29.7473 20.3375 30.2611 20.3881 30.7569 20.2895C31.2525 20.1909 31.7079 19.9475 32.0653 19.5901C32.4227 19.2327 32.666 18.7774 32.7647 18.2817C32.8632 17.7859 32.8126 17.2721 32.6192 16.8052C32.4258 16.3383 32.0983 15.9391 31.678 15.6583C31.2578 15.3775 30.7637 15.2277 30.2583 15.2277C29.5806 15.2277 28.9306 15.4969 28.4513 15.9762C27.9721 16.4554 27.7028 17.1054 27.7028 17.7831ZM31.1101 17.7831C31.1101 17.9516 31.0601 18.1163 30.9666 18.2564C30.873 18.3964 30.7399 18.5056 30.5843 18.5701C30.4287 18.6346 30.2573 18.6515 30.0921 18.6186C29.9268 18.5857 29.775 18.5045 29.656 18.3854C29.5368 18.2663 29.4557 18.1146 29.4228 17.9493C29.3899 17.7841 29.4068 17.6128 29.4713 17.4571C29.5358 17.3015 29.645 17.1684 29.785 17.0748C29.9251 16.9812 30.0898 16.9313 30.2583 16.9313C30.4842 16.9313 30.7009 17.0211 30.8606 17.1808C31.0203 17.3405 31.1101 17.5572 31.1101 17.7831Z" fill="#01A4F1"/>
<path d="M34.4663 14.7762C34.625 14.6166 34.714 14.4007 34.714 14.1757C34.714 13.9506 34.625 13.7348 34.4663 13.5751C33.9126 13.0214 33.2553 12.5821 32.5317 12.2824C31.8083 11.9827 31.0329 11.8285 30.2498 11.8285C29.4667 11.8285 28.6913 11.9827 27.9678 12.2824C27.2443 12.5821 26.587 13.0214 26.0333 13.5751C25.8948 13.739 25.8233 13.9492 25.8331 14.1636C25.8428 14.378 25.9332 14.5808 26.086 14.7314C26.2387 14.8821 26.4428 14.9695 26.6573 14.9762C26.8718 14.9829 27.0809 14.9085 27.2429 14.7677C28.0412 13.9718 29.1225 13.5249 30.2498 13.5249C31.3771 13.5249 32.4584 13.9718 33.2567 14.7677C33.3353 14.8481 33.4291 14.9121 33.5326 14.9561C33.6361 15 33.7473 15.0231 33.8597 15.0239C33.9722 15.0247 34.0837 15.0032 34.1878 14.9607C34.2919 14.9182 34.3866 14.8555 34.4663 14.7762Z" fill="#01A4F1"/>
<path d="M36.8855 12.3655C36.9653 12.2864 37.0287 12.1921 37.0719 12.0883C37.1151 11.9845 37.1374 11.8732 37.1374 11.7607C37.1374 11.6483 37.1151 11.5369 37.0719 11.4331C37.0287 11.3293 36.9653 11.2351 36.8855 11.1559C36.0153 10.2854 34.9822 9.5948 33.8451 9.12364C32.708 8.65248 31.4892 8.40996 30.2583 8.40996C29.0274 8.40996 27.8086 8.65248 26.6715 9.12364C25.5344 9.5948 24.5013 10.2854 23.6311 11.1559C23.5517 11.2354 23.4887 11.3296 23.4457 11.4334C23.4027 11.5372 23.3806 11.6484 23.3806 11.7607C23.3806 11.8731 23.4027 11.9843 23.4457 12.088C23.4887 12.1918 23.5517 12.2861 23.6311 12.3655C23.7105 12.445 23.8048 12.508 23.9086 12.5509C24.0124 12.5939 24.1236 12.616 24.2359 12.616C24.3483 12.616 24.4594 12.5939 24.5632 12.5509C24.667 12.508 24.7613 12.445 24.8407 12.3655C26.2782 10.9299 28.2267 10.1235 30.2583 10.1235C32.2899 10.1235 34.2384 10.9299 35.6759 12.3655C35.7551 12.4454 35.8493 12.5087 35.9531 12.552C36.0569 12.5952 36.1682 12.6175 36.2807 12.6175C36.3931 12.6175 36.5044 12.5952 36.6083 12.552C36.712 12.5087 36.8062 12.4454 36.8855 12.3655Z" fill="#01A4F1"/>
<path d="M22.43 9.95488C24.5066 7.87941 27.3224 6.71349 30.2583 6.71349C33.1943 6.71349 36.01 7.87941 38.0865 9.95488C38.1659 10.0343 38.2602 10.0973 38.3641 10.1403C38.4678 10.1833 38.579 10.2054 38.6913 10.2054C38.8037 10.2054 38.9148 10.1833 39.0187 10.1403C39.1224 10.0973 39.2167 10.0343 39.2961 9.95488C39.3755 9.87546 39.4385 9.78117 39.4816 9.6774C39.5245 9.57363 39.5466 9.46242 39.5466 9.3501C39.5466 9.23778 39.5245 9.12655 39.4816 9.02278C39.4385 8.91902 39.3755 8.82473 39.2961 8.7453C38.1095 7.55796 36.7006 6.61604 35.1499 5.97341C33.5991 5.33077 31.9369 5 30.2583 5C28.5797 5 26.9174 5.33077 25.3667 5.97341C23.816 6.61604 22.407 7.55796 21.2205 8.7453C21.0601 8.90571 20.9699 9.12325 20.9699 9.3501C20.9699 9.57694 21.0601 9.79447 21.2205 9.95488C21.3809 10.1153 21.5984 10.2054 21.8253 10.2054C22.0521 10.2054 22.2696 10.1153 22.43 9.95488Z" fill="#01A4F1"/>
</svg>
