<svg width="60" height="60" viewBox="0 0 60 60" fill="none" xmlns="http://www.w3.org/2000/svg">
<path d="M46.4957 53.5262C46.5137 53.4902 46.5317 53.4542 46.5498 53.4002V53.3821C46.5678 53.3461 46.5858 53.3102 46.5858 53.2742C46.5858 53.2562 46.5858 53.256 46.5858 53.238C46.6038 53.202 46.6038 53.148 46.6038 53.1119C46.6038 53.0759 46.6038 53.0399 46.6038 53.0039V6.2058C46.6038 6.16977 46.6038 6.13374 46.6038 6.09772C46.6038 6.06169 46.5858 6.00765 46.5858 5.97163C46.5858 5.95361 46.5858 5.95361 46.5858 5.9356C46.5678 5.89957 46.5678 5.86355 46.5498 5.82752V5.80951C46.5317 5.77348 46.5137 5.71944 46.4957 5.68341L46.4777 5.6654C46.4597 5.62938 46.4417 5.59335 46.4057 5.57534C46.4057 5.57534 46.4056 5.55732 46.3876 5.55732L43.1273 1.4143C42.9291 1.16212 42.6049 1 42.2806 1H18.3232C17.9989 1 17.6747 1.14411 17.4766 1.4143L14.2162 5.55732C14.2162 5.55732 14.2162 5.57534 14.1982 5.57534C14.1802 5.61136 14.1441 5.64739 14.1261 5.6654L14.1081 5.68341C14.0901 5.71944 14.0721 5.75547 14.0541 5.80951V5.82752C14.036 5.86355 14.018 5.89957 14.018 5.9356C14.018 5.95361 14.018 5.95361 14.018 5.97163C14 6.00765 14 6.06169 14 6.09772C14 6.13374 14 6.16977 14 6.2058V34.1082V52.9859C14 53.022 14 53.0579 14 53.0939C14 53.13 14.018 53.1841 14.018 53.2201C14.018 53.2381 14.018 53.2381 14.018 53.2561C14.036 53.2922 14.036 53.3282 14.0541 53.3642V53.3821C14.0721 53.4182 14.0901 53.4723 14.1081 53.5083L14.1261 53.5262C14.1441 53.5623 14.1621 53.5983 14.1982 53.6163C14.1982 53.6163 14.1982 53.6343 14.2162 53.6343L17.4766 57.7774C17.6747 58.0296 17.9989 58.1917 18.3232 58.1917H42.2987C42.6229 58.1917 42.9471 58.0476 43.1453 57.7774L46.4057 53.6343C46.4057 53.6343 46.4057 53.6163 46.4237 53.6163C46.4417 53.5803 46.4777 53.5443 46.4957 53.5262C46.4957 53.5443 46.4777 53.5443 46.4957 53.5262ZM16.1256 23.5525C16.6119 23.1202 17.7287 22.2736 19.2779 21.7512C22.232 20.7605 25.3483 21.3009 28.5366 23.3904C30.446 24.6333 31.9771 25.786 33.3281 26.7948C36.2643 28.9924 38.3718 30.5415 40.9657 30.5415C42.0104 30.5415 43.1453 30.2894 44.4602 29.713V31.5863C41.434 31.9285 39.8849 33.4417 38.2637 35.0629C36.5345 36.7741 34.571 38.7196 30.0317 39.7643C26.4651 40.5929 23.0066 39.8184 19.8002 37.4766C17.8368 36.0356 16.5399 34.4143 16.1076 33.8019V23.5525H16.1256ZM44.4782 27.3172C40.4973 29.4068 38.9122 28.2359 34.6251 25.0476C33.238 24.0208 31.6889 22.8499 29.7255 21.5709C25.0241 18.5087 21.0792 18.851 18.5934 19.6976C17.6207 20.0218 16.7921 20.4542 16.1256 20.8685V7.26857H44.4782V27.3172ZM16.1256 37.0984C16.774 37.7468 17.5486 38.4674 18.4853 39.1519C21.2413 41.1874 24.2495 42.232 27.3478 42.232C28.4105 42.232 29.4733 42.1059 30.5541 41.8537C35.6698 40.6649 37.9755 38.3953 39.8128 36.576C41.2539 35.153 42.3527 34.054 44.4782 33.7478V51.9052H16.1256V37.0984ZM18.8456 3.14356H41.7583L43.3254 5.12501H17.2784L18.8456 3.14356ZM41.7583 56.0662H18.8456L17.2784 54.0848H43.3254L41.7583 56.0662Z" fill="#01A4F1"/>
</svg>
