<svg width="60" height="60" viewBox="0 0 60 60" fill="none" xmlns="http://www.w3.org/2000/svg">
<path d="M58.6 10H1V46H58.6V10Z" stroke="#01A4F1" stroke-width="2" stroke-miterlimit="10" stroke-linecap="round"/>
<path d="M46.6 50.8H13" stroke="#01A4F1" stroke-width="2" stroke-miterlimit="10" stroke-linecap="round"/>
<path d="M38.1724 28.0588L24.9472 20.4232C24.7108 20.2876 24.418 20.2876 24.1828 20.4232C23.9452 20.5588 23.8 20.8108 23.8 21.0832V36.358C23.8 36.6316 23.9452 36.8836 24.1816 37.0192C24.2992 37.0876 24.4312 37.1212 24.5632 37.1212C24.694 37.1212 24.8272 37.0876 24.9448 37.0192L38.17 29.3836C38.4064 29.2468 38.5516 28.9948 38.5516 28.7212C38.5516 28.4476 38.4088 28.1956 38.1724 28.0588Z" fill="#01A4F1"/>
</svg>
