<svg xmlns="http://www.w3.org/2000/svg" viewBox="0 0 32 32"><title>Artboard-3</title><g id="Share"><path d="M25.98,17.53A4.437,4.437,0,0,0,26,17a10.019,10.019,0,0,0-6.01-9.17,3.993,3.993,0,0,0-7.98,0A10.019,10.019,0,0,0,6,17a4.522,4.522,0,0,0,.02.53A4,4,0,0,0,8,25a3.788,3.788,0,0,0,1.59-.34,9.95,9.95,0,0,0,12.82,0A3.788,3.788,0,0,0,24,25a4,4,0,0,0,4-4A3.953,3.953,0,0,0,25.98,17.53ZM16,25a7.9,7.9,0,0,1-4.8-1.6A4,4,0,0,0,8,17a8.036,8.036,0,0,1,4.44-7.17,4.009,4.009,0,0,0,7.12.01A8.009,8.009,0,0,1,24,17a4,4,0,0,0-4,4,3.906,3.906,0,0,0,.12.97,4.055,4.055,0,0,0,.68,1.43A7.9,7.9,0,0,1,16,25Z" style="fill:#151516"/></g></svg>