<svg xmlns="http://www.w3.org/2000/svg" viewBox="0 0 32 32"><title>Artboard-34</title><g id="Click"><path d="M27.707,26.293l-6.8-6.8,5.365-1.532a1,1,0,0,0,.062-1.9l-14-5a1,1,0,0,0-1.277,1.277l5,14A1,1,0,0,0,17,27h.032a1,1,0,0,0,.93-.725l1.532-5.365,6.8,6.8a1,1,0,0,0,1.414-1.414Z" style="fill:#151516"/><path d="M12,9a1,1,0,0,0,1-1V5a1,1,0,0,0-2,0V8A1,1,0,0,0,12,9Z" style="fill:#151516"/><path d="M7.465,6.051A1,1,0,0,0,6.051,7.465L8.172,9.586A1,1,0,1,0,9.586,8.172Z" style="fill:#151516"/><path d="M9,12a1,1,0,0,0-1-1H5a1,1,0,0,0,0,2H8A1,1,0,0,0,9,12Z" style="fill:#151516"/><path d="M8.172,14.414,6.051,16.535a1,1,0,0,0,1.414,1.414l2.121-2.121a1,1,0,1,0-1.414-1.414Z" style="fill:#151516"/><path d="M15.828,9.586l2.121-2.121a1,1,0,1,0-1.414-1.414L14.414,8.172a1,1,0,1,0,1.414,1.414Z" style="fill:#151516"/></g></svg>