<svg xmlns="http://www.w3.org/2000/svg" viewBox="0 0 32 32"><title>Artboard-33</title><g id="Hyper_Link" data-name="Hyper Link"><path d="M27.707,6.793a5.245,5.245,0,0,0-7.414,0l-2.55,2.55a1,1,0,1,0,1.414,1.414l2.55-2.55a3.329,3.329,0,0,1,4.586,0,3.245,3.245,0,0,1,0,4.586l-6,6a3.251,3.251,0,0,1-4.236.3,3.218,3.218,0,0,1-.719-4.429,1,1,0,1,0-1.636-1.15,5.215,5.215,0,0,0,1.2,7.212,5.272,5.272,0,0,0,3.106,1.021,5.215,5.215,0,0,0,3.7-1.541l6-6A5.249,5.249,0,0,0,27.707,6.793Z" style="fill:#151516"/><path d="M12.843,21.243l-2.55,2.55a3.243,3.243,0,0,1-4.586-4.586l6-6a3.238,3.238,0,0,1,4.955,4.128,1,1,0,1,0,1.637,1.15,5.239,5.239,0,0,0-8.006-6.692l-6,6a5.242,5.242,0,0,0,7.414,7.414l2.55-2.55a1,1,0,1,0-1.414-1.414Z" style="fill:#151516"/></g></svg>