<svg xmlns="http://www.w3.org/2000/svg" viewBox="0 0 32 32"><title>Artboard-5</title><g id="Wifi_Router" data-name="Wifi Router"><path d="M27,19H17V12a1,1,0,0,0-2,0v7H5a3,3,0,0,0-3,3v2a3,3,0,0,0,3,3H27a3,3,0,0,0,3-3V22A3,3,0,0,0,27,19Zm-5,5H21a1,1,0,0,1,0-2h1a1,1,0,0,1,0,2Zm4,0H25a1,1,0,0,1,0-2h1a1,1,0,0,1,0,2Z" style="fill:#151516"/><path d="M16,10a2,2,0,0,1,2,2,1,1,0,0,0,2,0,4,4,0,0,0-4-4,1,1,0,0,0,0,2Z" style="fill:#151516"/><path d="M16,7a5.006,5.006,0,0,1,5,5,1,1,0,0,0,2,0,7.009,7.009,0,0,0-7-7,1,1,0,0,0,0,2Z" style="fill:#151516"/><path d="M16,4a8.009,8.009,0,0,1,8,8,1,1,0,0,0,2,0A10.011,10.011,0,0,0,16,2a1,1,0,0,0,0,2Z" style="fill:#151516"/><path d="M10,28H7a1,1,0,0,0,0,2h3a1,1,0,0,0,0-2Z" style="fill:#151516"/><path d="M25,28H22a1,1,0,0,0,0,2h3a1,1,0,0,0,0-2Z" style="fill:#151516"/></g></svg>