<svg xmlns="http://www.w3.org/2000/svg" viewBox="0 0 32 32"><title>Artboard-26</title><g id="Browser_Virus" data-name="Browser Virus"><path d="M15,20H14v1a1.993,1.993,0,0,0,1,1.722Z" style="fill:#151516"/><path d="M16,17a1,1,0,0,0-1,1h2A1,1,0,0,0,16,17Z" style="fill:#151516"/><path d="M30,10V8a4,4,0,0,0-4-4H6A4,4,0,0,0,2,8v2ZM13,6a1,1,0,1,1-1,1A1,1,0,0,1,13,6ZM10,6A1,1,0,1,1,9,7,1,1,0,0,1,10,6ZM7,6A1,1,0,1,1,6,7,1,1,0,0,1,7,6Z" style="fill:#151516"/><path d="M2,12V24a4,4,0,0,0,4,4H26a4,4,0,0,0,4-4V12ZM21.447,23.105a1,1,0,1,1-.894,1.79l-1.88-.94a3.941,3.941,0,0,1-5.346,0l-1.88.94a1,1,0,0,1-.894-1.79l1.673-.836c-.03-.089-.06-.178-.084-.269H11a1,1,0,0,1,0-2h1v-.382L10.553,18.9a1,1,0,0,1,.894-1.79l1.564.783a2.976,2.976,0,0,1,.681-1.782l-.4-.4a1,1,0,0,1,1.414-1.414l.761.761a2.648,2.648,0,0,1,1.064,0l.761-.761a1,1,0,0,1,1.414,1.414l-.4.4a2.976,2.976,0,0,1,.681,1.782l1.564-.783a1,1,0,1,1,.894,1.79L20,19.618V20h1a1,1,0,0,1,0,2H19.858c-.024.091-.054.18-.084.269Z" style="fill:#151516"/><path d="M17,20v2.722A1.993,1.993,0,0,0,18,21V20Z" style="fill:#151516"/></g></svg>