<svg xmlns="http://www.w3.org/2000/svg" viewBox="0 0 32 32"><title>Artboard-40</title><g id="Home_Internet" data-name="Home Internet"><path d="M14,9a2,2,0,1,1,3,1.73V23h2V15a1.033,1.033,0,0,1,.29-.71l.78-.78A1.7,1.7,0,0,1,20,13a2,2,0,1,1,2,2,1.766,1.766,0,0,1-.52-.07l-.48.48V23h2.78A3.119,3.119,0,0,0,27,20V9.618l.553.277a1,1,0,0,0,.894-1.79l-12-6a.979.979,0,0,0-.268-.063.9.9,0,0,0-.358,0,.979.979,0,0,0-.268.063l-12,6A1,1,0,1,0,4.447,9.9L5,9.618V20a3.119,3.119,0,0,0,3.22,3H11V15.41l-.48-.48A1.766,1.766,0,0,1,10,15a2,2,0,1,1,2-2,1.7,1.7,0,0,1-.07.51l.78.78A1.033,1.033,0,0,1,13,15v8h2V10.73A2,2,0,0,1,14,9Z" style="fill:#151516"/><path d="M29,26H18.816A3,3,0,0,0,17,24.184V23H15v1.184A3,3,0,0,0,13.184,26H3a1,1,0,0,0,0,2H13.184a2.982,2.982,0,0,0,5.632,0H29a1,1,0,0,0,0-2Z" style="fill:#151516"/></g></svg>