<svg xmlns="http://www.w3.org/2000/svg" viewBox="0 0 32 32"><title>Artboard-1</title><g id="Pin"><path d="M30,16a3,3,0,0,0-2-2.816V7.816A2.993,2.993,0,1,0,24.184,4H18.816a2.982,2.982,0,0,0-5.632,0H7.816A2.995,2.995,0,1,0,5,8a2.951,2.951,0,0,0,1.285-.3L13.3,14.715a2.893,2.893,0,0,0,0,2.57L6.285,24.3A2.746,2.746,0,0,0,6,24.184V18.816a3,3,0,1,0-2,0v5.368A2.995,2.995,0,1,0,8,27a2.951,2.951,0,0,0-.3-1.285L14.715,18.7A2.951,2.951,0,0,0,16,19a3,3,0,0,0,0-6,2.951,2.951,0,0,0-1.285.3L7.7,6.285A2.746,2.746,0,0,0,7.816,6h5.368a2.982,2.982,0,0,0,5.632,0h5.368A3,3,0,0,0,26,7.816v5.368a2.982,2.982,0,0,0,0,5.632v5.368A3,3,0,0,0,24.184,26H18.816a3,3,0,1,0,0,2h5.368A2.993,2.993,0,1,0,28,24.184V18.816A3,3,0,0,0,30,16Z" style="fill:#151516"/></g></svg>