<svg xmlns="http://www.w3.org/2000/svg" viewBox="0 0 32 32"><title>Artboard-29</title><g id="Eye"><path d="M16,12a4,4,0,1,0,4,4A4,4,0,0,0,16,12Zm0,3a1,1,0,0,0-1,1,1,1,0,0,1-2,0,3,3,0,0,1,3-3,1,1,0,0,1,0,2Z" style="fill:#151516"/><path d="M29.935,15.543C27.964,10.354,22.494,7,16,7S4.036,10.354,2.065,15.543A1,1,0,0,0,2,15.9V16a1,1,0,0,0,.065.355c1.983,5.221,7.484,8.594,14.014,8.594,6.458,0,11.9-3.333,13.856-8.492A1,1,0,0,0,30,16.1v-.2A1,1,0,0,0,29.935,15.543ZM16,22a6,6,0,1,1,6-6A6.006,6.006,0,0,1,16,22Z" style="fill:#151516"/></g></svg>