<svg xmlns="http://www.w3.org/2000/svg" viewBox="0 0 32 32"><title>Artboard-25</title><g id="Browser_Shield" data-name="Browser Shield"><path d="M30,10V8a4,4,0,0,0-4-4H6A4,4,0,0,0,2,8v2ZM13,6a1,1,0,1,1-1,1A1,1,0,0,1,13,6ZM10,6A1,1,0,1,1,9,7,1,1,0,0,1,10,6ZM7,6A1,1,0,1,1,6,7,1,1,0,0,1,7,6Z" style="fill:#151516"/><path d="M12.461,17.909c-.15.021-.3.036-.461.05v.979a4.975,4.975,0,0,0,3.143,4.642l.857.343.857-.343A4.975,4.975,0,0,0,20,18.938V17.96A6.946,6.946,0,0,1,16,16.5,6.714,6.714,0,0,1,12.461,17.909Z" style="fill:#151516"/><path d="M2,12V24a4,4,0,0,0,4,4H26a4,4,0,0,0,4-4V12Zm20,6.938a6.97,6.97,0,0,1-4.4,6.5l-1.229.491a1,1,0,0,1-.742,0L14.4,25.438a6.97,6.97,0,0,1-4.4-6.5V17a1,1,0,0,1,1-1,9.275,9.275,0,0,0,1.2-.073c2.26-.294,2.89-1.353,2.916-1.4a1.025,1.025,0,0,1,.876-.516h.027a1,1,0,0,1,.874.539C16.917,14.59,17.761,16,21,16a1,1,0,0,1,1,1Z" style="fill:#151516"/></g></svg>