<svg xmlns="http://www.w3.org/2000/svg" viewBox="0 0 32 32"><title>Artboard-4</title><g id="Web"><path d="M15,7.816V9.08a6.29,6.29,0,0,1,2,0V7.816a3,3,0,1,0-2,0Z" style="fill:#151516"/><path d="M17,24.184V22.92a6.29,6.29,0,0,1-2,0v1.264a3,3,0,1,0,2,0Z" style="fill:#151516"/><path d="M27,13a3,3,0,0,0-2.816,2H22.92a6.29,6.29,0,0,1,0,2h1.264A2.995,2.995,0,1,0,27,13Z" style="fill:#151516"/><path d="M9.08,15H7.816a3,3,0,1,0,0,2H9.08a6.29,6.29,0,0,1,0-2Z" style="fill:#151516"/><path d="M16,21.97A10.006,10.006,0,0,0,17.95,17h-3.9A10.006,10.006,0,0,0,16,21.97Z" style="fill:#151516"/><path d="M16,10.03A10.006,10.006,0,0,0,14.05,15h3.9A10.006,10.006,0,0,0,16,10.03Z" style="fill:#151516"/><path d="M12.05,17H9.08a6.967,6.967,0,0,0,4.97,5.71A12.008,12.008,0,0,1,12.05,17Z" style="fill:#151516"/><path d="M14.05,9.29A6.967,6.967,0,0,0,9.08,15h2.97A12.008,12.008,0,0,1,14.05,9.29Z" style="fill:#151516"/><path d="M17.95,22.71A6.967,6.967,0,0,0,22.92,17H19.95A12.008,12.008,0,0,1,17.95,22.71Z" style="fill:#151516"/><path d="M17.95,9.29a12.008,12.008,0,0,1,2,5.71h2.97A6.967,6.967,0,0,0,17.95,9.29Z" style="fill:#151516"/></g></svg>