<svg xmlns="http://www.w3.org/2000/svg" viewBox="0 0 32 32"><title>Artboard-10</title><g id="Shield_Yes" data-name="Shield Yes"><path d="M29.84,9.46a1,1,0,0,0-1.38-.3l-.46.3V7a1,1,0,0,0-1-1C18.51,6,15.84,2.46,15.82,2.43A1,1,0,0,0,15.01,2a1.061,1.061,0,0,0-.83.42C14.16,2.46,11.49,6,3,6A1,1,0,0,0,2,7v8.76c0,9.25,7.11,12.01,11.36,13.66.45.18.87.34,1.26.5a.943.943,0,0,0,.76,0c.39-.16.81-.32,1.26-.5C20.89,27.77,28,25.01,28,15.76V14.29L17.04,21.34a.949.949,0,0,1-.54.16,1.024,1.024,0,0,1-.71-.29l-3-3a1,1,0,0,1,1.42-1.42l2.43,2.43c10.806-6.944,12.762-8.291,12.9-8.38A1,1,0,0,0,29.84,9.46Z" style="fill:#151516"/></g></svg>