<svg xmlns="http://www.w3.org/2000/svg" viewBox="0 0 32 32"><title>Artboard-32</title><g id="Bell_Disable" data-name="Bell Disable"><path d="M26.707,7.293a1,1,0,0,0-1.414,0L23.1,9.487A8.987,8.987,0,0,0,18.64,6.4a3,3,0,1,0-5.28,0A9.012,9.012,0,0,0,7,15v3.53a6.206,6.206,0,0,1-3.45,5.58A1,1,0,0,0,4,26H6.586L5.293,27.293a1,1,0,0,0,1.414,1.414l20-20A1,1,0,0,0,26.707,7.293ZM16,4a1,1,0,1,1-1,1A1,1,0,0,1,16,4Z" style="fill:#151516"/><path d="M28.45,24.11A6.206,6.206,0,0,1,25,18.53V15a8.55,8.55,0,0,0-.44-2.74L10.82,26H28a1,1,0,0,0,.45-1.89Z" style="fill:#151516"/><path d="M16,30a4,4,0,0,0,3.858-3H12.142A4,4,0,0,0,16,30Z" style="fill:#151516"/></g></svg>