<svg xmlns="http://www.w3.org/2000/svg" viewBox="0 0 32 32"><title>Artboard-13</title><g id="Kunci"><path d="M16,2A14,14,0,1,0,30,16,14.015,14.015,0,0,0,16,2Zm4.46,22.942a9.93,9.93,0,0,1-8.92,0,1,1,0,0,1-.511-1.17l2.038-7.051a4,4,0,1,1,5.867,0l2.037,7.051A1,1,0,0,1,20.46,24.942Zm2.751-2.018a1,1,0,1,1-1.441-1.387,8,8,0,1,0-11.54,0,1,1,0,1,1-1.441,1.387,10,10,0,1,1,14.422,0Z" style="fill:#151516"/><path d="M17.2,15.6a2,2,0,1,0-2.4,0,1,1,0,0,1,.359,1.076l-1.968,6.811a8,8,0,0,0,5.614,0l-1.968-6.811A1,1,0,0,1,17.2,15.6Z" style="fill:#151516"/></g></svg>