<svg xmlns="http://www.w3.org/2000/svg" viewBox="0 0 32 32"><title>Artboard-27</title><g id="Browser_Samar" data-name="Browser Samar"><path d="M30,10V8a4,4,0,0,0-4-4H6A4,4,0,0,0,2,8v2ZM13,6a1,1,0,1,1-1,1A1,1,0,0,1,13,6ZM10,6A1,1,0,1,1,9,7,1,1,0,0,1,10,6ZM7,6A1,1,0,1,1,6,7,1,1,0,0,1,7,6Z" style="fill:#151516"/><circle cx="12" cy="23" r="1" style="fill:#151516"/><polygon points="17.279 16 14.721 16 14.387 17 17.613 17 17.279 16" style="fill:#151516"/><circle cx="20" cy="23" r="1" style="fill:#151516"/><path d="M2,12V24a4,4,0,0,0,4,4H26a4,4,0,0,0,4-4V12Zm9,5h1.279l.772-2.316A1,1,0,0,1,14,14h4a1,1,0,0,1,.949.684L19.721,17H21a1,1,0,0,1,0,2H11a1,1,0,0,1,0-2Zm9,9a3,3,0,0,1-2.816-2H14.816a3,3,0,1,1,0-2h2.368A2.995,2.995,0,1,1,20,26Z" style="fill:#151516"/></g></svg>