<svg xmlns="http://www.w3.org/2000/svg" viewBox="0 0 32 32"><title>Artboard-38</title><g id="Home_Lock" data-name="Home Lock"><path d="M16,12a2,2,0,0,0-2,2h4A2,2,0,0,0,16,12Z" style="fill:#151516"/><path d="M12,16v6h8l0-6Zm4,5a2,2,0,1,1,2-2A2,2,0,0,1,16,21Z" style="fill:#151516"/><path d="M28.447,10.105l-12-6a1,1,0,0,0-.894,0l-12,6a1,1,0,1,0,.894,1.79L5,11.618V25a3,3,0,0,0,3,3H24a3,3,0,0,0,3-3V11.618l.553.277a1,1,0,0,0,.894-1.79ZM22,22a2,2,0,0,1-2,2H12a2,2,0,0,1-2-2V16a2,2,0,0,1,2-2,4,4,0,0,1,8,0,2,2,0,0,1,2,2Z" style="fill:#151516"/></g></svg>