<svg xmlns="http://www.w3.org/2000/svg" viewBox="0 0 32 32"><title>Artboard-11</title><g id="Shield_Lock" data-name="Shield Lock"><circle cx="16" cy="14" r="1" style="fill:#151516"/><path d="M28,6C19.509,6,16.842,2.458,16.822,2.431a1,1,0,0,0-.814-.426.985.985,0,0,0-.824.417C15.158,2.458,12.491,6,4,6A1,1,0,0,0,3,7v8.759c0,9.254,7.108,12.014,11.355,13.664.451.175.874.34,1.26.5a1,1,0,0,0,.77,0c.386-.16.809-.325,1.26-.5C21.892,27.773,29,25.013,29,15.759V7A1,1,0,0,0,28,6ZM17,16.816V20a1,1,0,0,1-2,0V16.816a3,3,0,1,1,2,0Z" style="fill:#151516"/></g></svg>