<svg xmlns="http://www.w3.org/2000/svg" viewBox="0 0 32 32"><title>Artboard-22</title><g id="Card_Yes" data-name="Card Yes"><path d="M28,9v1H2V9A3.009,3.009,0,0,1,5,6H25A3.009,3.009,0,0,1,28,9Z" style="fill:#151516"/><path d="M2,13v8a3.009,3.009,0,0,0,3,3H21.28A1.932,1.932,0,0,1,21,23a1.994,1.994,0,0,1,3.41-1.41l.59.58,2.59-2.58a1.53,1.53,0,0,1,.41-.31V13Zm9,7H7a1,1,0,0,1,0-2h4a1,1,0,0,1,0,2Z" style="fill:#151516"/><path d="M25,26a1,1,0,0,1-.707-.293l-2-2a1,1,0,0,1,1.414-1.414L25,23.586l3.293-3.293a1,1,0,0,1,1.414,1.414l-4,4A1,1,0,0,1,25,26Z" style="fill:#151516"/></g></svg>