<svg xmlns="http://www.w3.org/2000/svg" viewBox="0 0 32 32"><title>Artboard-17</title><g id="Password"><path d="M17,16H5a3.009,3.009,0,0,0-3,3v3a3.009,3.009,0,0,0,3,3H18.36A3.984,3.984,0,0,1,17,22ZM6.854,21.146a.5.5,0,1,1-.708.708L5.5,21.207l-.646.647a.5.5,0,0,1-.708-.708l.647-.646-.647-.646a.5.5,0,0,1,.708-.708l.646.647.646-.647a.5.5,0,0,1,.708.708l-.647.646Zm4,0a.5.5,0,0,1-.708.708L9.5,21.207l-.646.647a.5.5,0,0,1-.708-.708l.647-.646-.647-.646a.5.5,0,0,1,.708-.708l.646.647.646-.647a.5.5,0,0,1,.708.708l-.647.646Zm4,0a.5.5,0,0,1-.708.708l-.646-.647-.646.647a.5.5,0,0,1-.708-.708l.647-.646-.647-.646a.5.5,0,0,1,.708-.708l.646.647.646-.647a.5.5,0,0,1,.708.708l-.647.646Z" style="fill:#151516"/><path d="M28,13.184V11a4,4,0,0,0-8,0v2.184A3,3,0,0,0,18,16v6a3,3,0,0,0,3,3h6a3,3,0,0,0,3-3V16A3,3,0,0,0,28,13.184ZM22,11a2,2,0,0,1,4,0v2H22Zm3,8.722V21a1,1,0,0,1-2,0V19.722a2,2,0,1,1,2,0Z" style="fill:#151516"/></g></svg>