<svg xmlns="http://www.w3.org/2000/svg" viewBox="0 0 32 32"><title>Artboard-30</title><g id="Eye_Disable" data-name="Eye Disable"><path d="M25.707,6.293a1,1,0,0,0-1.414,0L22.37,8.216A17.085,17.085,0,0,0,16,7C9.51,7,4.04,10.35,2.07,15.54A.922.922,0,0,0,2,15.9V16a.922.922,0,0,0,.07.36,12.652,12.652,0,0,0,5.688,6.468L6.293,24.293a1,1,0,1,0,1.414,1.414l18-18A1,1,0,0,0,25.707,6.293ZM10,16a5.994,5.994,0,0,1,9.473-4.887l-1.454,1.454a3.973,3.973,0,0,0-5.452,5.452l-1.454,1.454A5.949,5.949,0,0,1,10,16Z" style="fill:#151516"/><path d="M16,20a4,4,0,0,0,4-4,3.955,3.955,0,0,0-.14-1.04l-4.9,4.9A3.955,3.955,0,0,0,16,20Z" style="fill:#151516"/><path d="M29.93,15.54a12.523,12.523,0,0,0-4.76-5.89l-3.76,3.76A5.9,5.9,0,0,1,22,16a6,6,0,0,1-6,6,5.9,5.9,0,0,1-2.59-.59L10.7,24.12a17.467,17.467,0,0,0,5.38.83c6.46,0,11.9-3.33,13.85-8.49A.922.922,0,0,0,30,16.1v-.2A.922.922,0,0,0,29.93,15.54Z" style="fill:#151516"/></g></svg>