<svg xmlns="http://www.w3.org/2000/svg" viewBox="0 0 32 32"><title>Artboard-8</title><g id="Shield_Lock-2" data-name="Shield Lock"><path d="M28,6C19.51,6,16.842,2.458,16.822,2.431a1,1,0,0,0-.814-.426.927.927,0,0,0-.824.417C15.158,2.458,12.491,6,4,6A1,1,0,0,0,3,7v8.759c0,9.254,7.108,12.014,11.355,13.664.451.175.874.34,1.26.5a1,1,0,0,0,.77,0c.386-.16.809-.325,1.26-.5C21.892,27.773,29,25.013,29,15.759V7A1,1,0,0,0,28,6ZM21,20a3,3,0,0,1-3,3H14a3,3,0,0,1-3-3V16a3,3,0,0,1,2-2.816V12a3,3,0,0,1,6,0v1.184A3,3,0,0,1,21,16Z" style="fill:#151516"/><path d="M18,15H14a1,1,0,0,0-1,1v4a1,1,0,0,0,1,1h4a1,1,0,0,0,1-1V16A1,1,0,0,0,18,15Zm-2,5a2,2,0,1,1,2-2A2,2,0,0,1,16,20Z" style="fill:#151516"/><path d="M17,12a1,1,0,0,0-2,0v1h2Z" style="fill:#151516"/></g></svg>