<svg xmlns="http://www.w3.org/2000/svg" viewBox="0 0 32 32"><title>Artboard-36</title><g id="Minimize"><path d="M27,12H21.414l6.293-6.293a1,1,0,1,0-1.414-1.414L20,10.586V5a1,1,0,0,0-2,0v8a1.01,1.01,0,0,0,.077.382,1,1,0,0,0,.541.541A1.01,1.01,0,0,0,19,14h8a1,1,0,0,0,0-2Z" style="fill:#151516"/><path d="M13,4a1,1,0,0,0-1,1v5.586L5.707,4.293A1,1,0,0,0,4.293,5.707L10.586,12H5a1,1,0,0,0,0,2h8a1.01,1.01,0,0,0,.382-.077,1,1,0,0,0,.541-.541A1.01,1.01,0,0,0,14,13V5A1,1,0,0,0,13,4Z" style="fill:#151516"/><path d="M28,19a1,1,0,0,0-1-1H19a1,1,0,0,0-.923.618A1.01,1.01,0,0,0,18,19v8a1,1,0,0,0,2,0V21.414l6.293,6.293a1,1,0,0,0,1.414-1.414L21.414,20H27A1,1,0,0,0,28,19Z" style="fill:#151516"/><path d="M13.382,18.077A.991.991,0,0,0,13,18H5a1,1,0,0,0,0,2h5.586L4.293,26.293a1,1,0,1,0,1.414,1.414L12,21.414V27a1,1,0,0,0,2,0V19a1.01,1.01,0,0,0-.077-.382A1,1,0,0,0,13.382,18.077Z" style="fill:#151516"/></g></svg>