<svg xmlns="http://www.w3.org/2000/svg" viewBox="0 0 32 32"><title>Artboard-9</title><g id="Shiled_Cancel" data-name="Shiled Cancel"><path d="M28,6C19.51,6,16.842,2.458,16.822,2.431a1,1,0,0,0-.814-.426,1.053,1.053,0,0,0-.824.417C15.158,2.458,12.49,6,4,6A1,1,0,0,0,3,7v8.759c0,9.254,7.108,12.014,11.355,13.664.451.175.874.34,1.26.5a1,1,0,0,0,.77,0c.386-.16.809-.325,1.26-.5C21.892,27.773,29,25.013,29,15.759V7A1,1,0,0,0,28,6ZM19.707,18.293a1,1,0,0,1-1.414,1.414L16,17.414l-2.293,2.293a1,1,0,0,1-1.414-1.414L14.586,16l-2.293-2.293a1,1,0,0,1,1.414-1.414L16,14.586l2.293-2.293a1,1,0,0,1,1.414,1.414L17.414,16Z" style="fill:#151516"/></g></svg>