<svg xmlns="http://www.w3.org/2000/svg" viewBox="0 0 32 32"><title>Artboard-21</title><g id="Card_Cancel" data-name="Card Cancel"><path d="M28,10V9a3.009,3.009,0,0,0-3-3H5A3.009,3.009,0,0,0,2,9v1Z" style="fill:#151516"/><path d="M2,13v8a3.009,3.009,0,0,0,3,3H23.28a6.1,6.1,0,0,1,.89-1l-.58-.59a1.994,1.994,0,1,1,2.82-2.82l.59.58a6.1,6.1,0,0,1,1-.89V13Zm9,7H7a1,1,0,0,1,0-2h4a1,1,0,0,1,0,2Z" style="fill:#151516"/><path d="M28.414,23l1.293-1.293a1,1,0,0,0-1.414-1.414L27,21.586l-1.293-1.293a1,1,0,0,0-1.414,1.414L25.586,23l-1.293,1.293a1,1,0,1,0,1.414,1.414L27,24.414l1.293,1.293a1,1,0,0,0,1.414-1.414Z" style="fill:#151516"/></g></svg>