<svg xmlns="http://www.w3.org/2000/svg" viewBox="0 0 32 32"><title>Artboard-35</title><g id="Full_Screen" data-name="Full Screen"><path d="M29.923,2.618A1,1,0,0,0,29,2H21a1,1,0,0,0,0,2h5.586l-8.293,8.293a1,1,0,1,0,1.414,1.414L28,5.414V11a1,1,0,0,0,2,0V3A.991.991,0,0,0,29.923,2.618Z" style="fill:#151516"/><path d="M5.414,4H11a1,1,0,0,0,0-2H3A1,1,0,0,0,2,3v8a1,1,0,0,0,2,0V5.414l8.293,8.293a1,1,0,0,0,1.414-1.414Z" style="fill:#151516"/><path d="M29,20a1,1,0,0,0-1,1v5.586l-8.293-8.293a1,1,0,0,0-1.414,1.414L26.586,28H21a1,1,0,0,0,0,2h8a1,1,0,0,0,1-1V21A1,1,0,0,0,29,20Z" style="fill:#151516"/><path d="M12.293,18.293,4,26.586V21a1,1,0,0,0-2,0v8a1,1,0,0,0,1,1h8a1,1,0,0,0,0-2H5.414l8.293-8.293a1,1,0,0,0-1.414-1.414Z" style="fill:#151516"/></g></svg>