<svg xmlns="http://www.w3.org/2000/svg" viewBox="0 0 32 32"><title>Artboard-28</title><g id="Focus"><path d="M16,12a4,4,0,1,0,4,4A4,4,0,0,0,16,12Zm0,3a1,1,0,0,0-1,1,1,1,0,0,1-2,0,3,3,0,0,1,3-3,1,1,0,0,1,0,2Z" style="fill:#151516"/><path d="M16,7C9.506,7,4.037,10.354,2.065,15.543A1,1,0,0,0,2,15.9v.2a1,1,0,0,0,.065.355C4.037,21.646,9.506,25,16,25s11.964-3.354,13.935-8.543A1,1,0,0,0,30,16.1v-.2a1,1,0,0,0-.065-.355C27.964,10.354,22.494,7,16,7Zm0,15a6,6,0,1,1,6-6A6.006,6.006,0,0,1,16,22Z" style="fill:#151516"/><path d="M3,8A1,1,0,0,0,4,7V4H7A1,1,0,0,0,7,2H3A1,1,0,0,0,2,3V7A1,1,0,0,0,3,8Z" style="fill:#151516"/><path d="M29,2H25a1,1,0,0,0,0,2h3V7a1,1,0,0,0,2,0V3A1,1,0,0,0,29,2Z" style="fill:#151516"/><path d="M7,28H4V25a1,1,0,0,0-2,0v4a1,1,0,0,0,1,1H7a1,1,0,0,0,0-2Z" style="fill:#151516"/><path d="M29,24a1,1,0,0,0-1,1v3H25a1,1,0,0,0,0,2h4a1,1,0,0,0,1-1V25A1,1,0,0,0,29,24Z" style="fill:#151516"/></g></svg>