<svg xmlns="http://www.w3.org/2000/svg" viewBox="0 0 32 32"><title>Artboard-15</title><g id="Box_Money" data-name="Box Money"><circle cx="12" cy="14" r="3" style="fill:#151516"/><path d="M26,4H6A3,3,0,0,0,3,7V21a3,3,0,0,0,3,3H26a3,3,0,0,0,3-3V7A3,3,0,0,0,26,4ZM12,19a5,5,0,1,1,5-5A5.006,5.006,0,0,1,12,19Zm12-5.278V17a1,1,0,0,1-2,0V13.722a2,2,0,1,1,2,0Z" style="fill:#151516"/><path d="M11,26H7a1,1,0,0,0,0,2h4a1,1,0,0,0,0-2Z" style="fill:#151516"/><path d="M25,26H21a1,1,0,0,0,0,2h4a1,1,0,0,0,0-2Z" style="fill:#151516"/></g></svg>