<svg xmlns="http://www.w3.org/2000/svg" viewBox="0 0 32 32"><title>Artboard-23</title><g id="Card_Lock" data-name="Card Lock"><path d="M25,5H5A3.009,3.009,0,0,0,2,8H28A3.009,3.009,0,0,0,25,5Z" style="fill:#151516"/><path d="M21,16a4,4,0,0,1,7-2.64V11H2v9a3.009,3.009,0,0,0,3,3H19V19a3,3,0,0,1,2-2.82ZM11,19H7a1,1,0,0,1,0-2h4a1,1,0,0,1,0,2Z" style="fill:#151516"/><path d="M28,17V16a3,3,0,0,0-6,0v1a2,2,0,0,0-2,2v6a2,2,0,0,0,2,2h6a2,2,0,0,0,2-2V19A2,2,0,0,0,28,17Zm-4-1a1,1,0,0,1,2,0v1H24Zm1,8a2,2,0,1,1,2-2A2,2,0,0,1,25,24Z" style="fill:#151516"/></g></svg>