<svg xmlns="http://www.w3.org/2000/svg" viewBox="0 0 32 32"><title>Artboard-37</title><g id="Home_Shield" data-name="Home Shield"><path d="M12.46,15.909c-.149.021-.3.036-.46.05v.979a4.977,4.977,0,0,0,3.143,4.642l.857.343.857-.343A4.977,4.977,0,0,0,20,16.938V15.96A6.94,6.94,0,0,1,16,14.5,6.722,6.722,0,0,1,12.46,15.909Z" style="fill:#151516"/><path d="M28.447,10.105l-12-6a1,1,0,0,0-.894,0l-12,6a1,1,0,1,0,.894,1.79L5,11.618V25a3,3,0,0,0,3,3H24a3,3,0,0,0,3-3V11.618l.553.277a1,1,0,0,0,.894-1.79ZM22,16.938a6.969,6.969,0,0,1-4.4,6.5l-1.229.491a1,1,0,0,1-.742,0L14.4,23.438a6.969,6.969,0,0,1-4.4-6.5V15a1,1,0,0,1,1-1,9.275,9.275,0,0,0,1.2-.073c2.26-.294,2.89-1.353,2.916-1.4a.935.935,0,0,1,.9-.515,1,1,0,0,1,.874.539C16.917,12.59,17.761,14,21,14a1,1,0,0,1,1,1Z" style="fill:#151516"/></g></svg>