<svg width="60" height="60" viewBox="0 0 60 60" fill="none" xmlns="http://www.w3.org/2000/svg">
<path d="M37.5 33.5C36.2815 32.5159 34.738 32.0252 33.175 32.125H22.5V43.05H33.35C34.8647 43.0945 36.3426 42.5781 37.5 41.6C38.0486 41.0716 38.4793 40.4332 38.7637 39.7265C39.048 39.0199 39.1797 38.2611 39.15 37.5C39.1766 36.7541 39.0431 36.0112 38.7585 35.3212C38.4739 34.6312 38.0448 34.0102 37.5 33.5V33.5ZM36 26.45C36.5041 26.0009 36.9006 25.4441 37.1603 24.8209C37.4199 24.1978 37.536 23.5241 37.5 22.85C37.5736 22.1694 37.4926 21.481 37.2632 20.8361C37.0338 20.1911 36.6618 19.6062 36.175 19.125C35.1053 18.3646 33.8109 17.9859 32.5 18.05H22.5V27.7H32.5C33.8106 27.7257 35.0873 27.2824 36.1 26.45H36ZM50 0H10C7.34784 0 4.8043 1.05357 2.92893 2.92893C1.05357 4.8043 0 7.34784 0 10V50C0 52.6522 1.05357 55.1957 2.92893 57.0711C4.8043 58.9464 7.34784 60 10 60H50C52.6522 60 55.1957 58.9464 57.0711 57.0711C58.9464 55.1957 60 52.6522 60 50V10C60 7.34784 58.9464 4.8043 57.0711 2.92893C55.1957 1.05357 52.6522 0 50 0V0ZM44.525 42.125C44.0419 43.3413 43.249 44.41 42.225 45.225C41.035 46.1723 39.666 46.8695 38.2 47.275C36.3099 47.8319 34.345 48.0933 32.375 48.05H16.3V13.05H33.3C35.969 12.917 38.6068 13.6732 40.8 15.2C41.7701 15.9736 42.5367 16.9723 43.0334 18.1094C43.53 19.2465 43.7417 20.4876 43.65 21.725C43.7426 23.3158 43.3409 24.8964 42.5 26.25C41.5703 27.5574 40.2867 28.5722 38.8 29.175C39.7933 29.3287 40.7464 29.6774 41.6045 30.2008C42.4626 30.7242 43.2087 31.4122 43.8 32.225C44.9603 33.9873 45.5455 36.0662 45.475 38.175C45.4377 39.5436 45.1141 40.8891 44.525 42.125Z" fill="#7952B3"/>
</svg>
