<svg width="60" height="60" viewBox="0 0 60 60" fill="none" xmlns="http://www.w3.org/2000/svg">
<path d="M59.9997 0H0V60H59.9997V0Z" fill="#F0DB4F"/>
<path d="M32.6518 46.7947C32.6518 52.6339 29.2231 55.2991 24.2275 55.2991C19.7143 55.2991 17.1027 52.9689 15.7632 50.1431L20.3569 47.3707C21.2409 48.9376 22.0445 50.2634 23.9864 50.2634C25.8345 50.2634 27.0134 49.5403 27.0134 46.7145V27.5491H32.6518V46.7947Z" fill="#323330"/>
<path d="M45.991 55.2991C40.7544 55.2991 37.3661 52.8079 35.7187 49.5403L40.3125 46.8883C41.5178 48.8572 43.098 50.3169 45.8704 50.3169C48.2008 50.3169 49.7005 49.1518 49.7005 47.5314C49.7005 45.6027 48.1739 44.92 45.5892 43.7814L44.183 43.1788C40.1116 41.4511 37.4195 39.268 37.4195 34.6744C37.4195 30.4422 40.6472 27.2279 45.6693 27.2279C49.2586 27.2279 51.83 28.4734 53.6783 31.7413L49.2854 34.5538C48.3212 32.826 47.2765 32.1432 45.656 32.1432C44.0086 32.1432 42.964 33.188 42.964 34.5538C42.964 36.2413 44.0086 36.9246 46.4327 37.9823L47.8388 38.585C52.6335 40.6341 55.3254 42.737 55.3254 47.4512C55.3257 52.5134 51.3345 55.2991 45.991 55.2991Z" fill="#323330"/>
</svg>
