<svg width="60" height="60" viewBox="0 0 60 60" fill="none" xmlns="http://www.w3.org/2000/svg">
<g clip-path="url(#clip0_1_33)">
<path d="M59.1094 13.5738C59.1002 13.5466 59.0892 13.52 59.0766 13.4941C59.0598 13.4437 59.039 13.3948 59.0145 13.3477C58.9955 13.3184 58.9743 13.2906 58.9512 13.2645C58.9254 13.226 58.8972 13.1892 58.8668 13.1543C58.8399 13.1285 58.8059 13.1074 58.7766 13.084C58.7432 13.0552 58.7079 13.0286 58.6711 13.0043L47.3907 6.50977C47.2481 6.42748 47.0865 6.38417 46.9219 6.38417C46.7573 6.38417 46.5957 6.42748 46.4532 6.50977L35.1703 13.0078C35.1341 13.0323 35.0997 13.0594 35.0672 13.0887C35.0353 13.1101 35.0047 13.1336 34.9758 13.159C34.9451 13.1933 34.9169 13.2297 34.8914 13.268C34.8715 13.2961 34.8457 13.3207 34.8282 13.3512C34.8045 13.3985 34.7841 13.4475 34.7672 13.4977C34.7578 13.5246 34.7426 13.5492 34.7344 13.5773C34.7129 13.6568 34.7019 13.7388 34.7016 13.8211V26.1539L25.3008 31.5668V7.43438C25.301 7.35163 25.29 7.26923 25.268 7.18945C25.261 7.16133 25.2446 7.13672 25.2352 7.10977C25.2188 7.05977 25.1984 7.01117 25.1742 6.96445C25.1578 6.93399 25.1309 6.90938 25.111 6.88008C25.0852 6.84162 25.057 6.80482 25.0266 6.76992C24.9974 6.74492 24.9669 6.72145 24.9352 6.69961C24.9023 6.67112 24.8679 6.64451 24.8321 6.61992V6.61992L13.5481 0.125391C13.4056 0.0431086 13.2439 -0.000209808 13.0793 -0.000209808C12.9148 -0.000209808 12.7531 0.0431086 12.6106 0.125391L1.32893 6.61992C1.29231 6.64387 1.25781 6.67093 1.22581 6.70078C1.19349 6.72223 1.16257 6.74572 1.13323 6.77109C1.10292 6.80538 1.07512 6.8418 1.05003 6.88008C1.02893 6.90938 1.00315 6.93399 0.985575 6.96445C0.961561 7.01111 0.941567 7.05972 0.925809 7.10977C0.91301 7.13528 0.901664 7.16149 0.891825 7.18828C0.870266 7.26854 0.859236 7.35127 0.859012 7.43438V46.0711C0.858563 46.2361 0.901668 46.3983 0.983974 46.5413C1.06628 46.6843 1.18487 46.803 1.32776 46.8855L23.8864 59.8746C23.9365 59.8999 23.9886 59.9211 24.0422 59.9379C24.0668 59.9473 24.0903 59.9613 24.116 59.9684C24.2734 60.0105 24.4391 60.0105 24.5965 59.9684C24.6199 59.9625 24.6399 59.9496 24.661 59.9426C24.7175 59.9248 24.7724 59.902 24.825 59.8746L47.3907 46.8855C47.5335 46.803 47.6521 46.6843 47.7344 46.5413C47.8167 46.3983 47.8599 46.2361 47.8594 46.0711V33.7359L58.6688 27.5121C58.8125 27.4291 58.9317 27.3094 59.014 27.1653C59.0964 27.0212 59.139 26.8578 59.1375 26.6918V13.8188C59.1382 13.7363 59.1287 13.654 59.1094 13.5738V13.5738ZM13.0782 2.025L22.4754 7.4332L13.077 12.8449L3.68089 7.43438L13.0782 2.025ZM23.42 9.05625V32.6484L17.9672 35.7879L14.0192 38.0613V14.4727L19.4719 11.3332L23.42 9.05625ZM23.42 57.4289L2.7387 45.5273V9.06094L6.68675 11.332L12.1383 14.4727V39.6891C12.1407 39.7245 12.1454 39.7597 12.1524 39.7945C12.1552 39.841 12.1614 39.8873 12.1711 39.9328V39.9328C12.183 39.9691 12.1979 40.0044 12.2157 40.0383C12.2287 40.0787 12.2452 40.1179 12.2649 40.1555C12.2865 40.1873 12.31 40.2178 12.3352 40.2469C12.3586 40.2815 12.3845 40.3144 12.4125 40.3453V40.3453C12.4395 40.3711 12.4735 40.3898 12.5028 40.4133C12.5348 40.4411 12.5684 40.4669 12.6035 40.4906V40.4906L23.4071 46.6055L23.42 57.4289ZM24.3575 44.9871L14.9754 39.6762L24.8297 34.0031L35.6414 27.7793L45.0317 33.1852L38.141 37.118L24.3575 44.9871ZM45.9809 45.5227L25.2985 57.4348V46.6172L40.6172 37.875L45.9809 34.8105V45.5227ZM45.9809 31.5621L42.0328 29.2969L36.5801 26.1574V15.4441L40.5282 17.7176L45.9809 20.8594V31.5621ZM46.9184 19.2246L37.52 13.8141L46.9184 8.40469L56.3145 13.8129L46.9184 19.2246ZM47.8559 31.5621V20.8594L53.3203 17.7176L57.2672 15.4441V26.1539L47.8559 31.5621Z" fill="#FF2D20"/>
</g>
<defs>
<clipPath id="clip0_1_33">
<rect width="60" height="60" fill="white"/>
</clipPath>
</defs>
</svg>
