<svg width="60" height="60" viewBox="0 0 60 60" fill="none" xmlns="http://www.w3.org/2000/svg">
<path d="M13.025 59.7863H0.213623V17.0818H13.025V59.7863ZM60 59.7863H47.1886V36.9735C47.1886 31.0291 45.0705 28.0696 40.8726 28.0696C37.5459 28.0696 35.4363 29.7266 34.3773 33.0447C34.3773 38.434 34.3773 59.7863 34.3773 59.7863H21.5659C21.5659 59.7863 21.7367 21.3522 21.5659 17.0818H31.6783L32.4598 25.6227H32.7246C35.3509 21.3522 39.5488 18.4569 45.3053 18.4569C49.6826 18.4569 53.2228 19.6739 55.926 22.7316C58.6462 25.7935 60 29.9017 60 35.6711V59.7863Z" fill="#0F314D"/>
<path d="M6.6192 12.8114C10.2749 12.8114 13.2384 9.94344 13.2384 6.40568C13.2384 2.86792 10.2749 0 6.6192 0C2.96352 0 0 2.86792 0 6.40568C0 9.94344 2.96352 12.8114 6.6192 12.8114Z" fill="#0F314D"/>
</svg>
