<svg width="60" height="60" viewBox="0 0 60 60" fill="none" xmlns="http://www.w3.org/2000/svg">
<path d="M51.6537 33.8599C49.5542 33.8692 47.7361 34.3754 46.2178 35.1253C45.6648 34.0097 45.0929 33.0351 44.9992 32.3041C44.887 31.4511 44.7649 30.9451 44.8962 29.9329C45.0276 28.9205 45.6178 27.4865 45.6085 27.3835C45.5993 27.2805 45.4773 26.7649 44.2683 26.7555C43.0593 26.7462 42.0191 26.9898 41.8971 27.3084C41.775 27.6271 41.541 28.3489 41.4004 29.0986C41.1848 30.1952 38.9821 34.113 37.7356 36.1561C37.3233 35.3597 36.9766 34.6565 36.9014 34.0942C36.789 33.2412 36.6672 32.7352 36.7984 31.723C36.9296 30.7106 37.52 29.2766 37.5106 29.1736C37.5012 29.0706 37.3793 28.555 36.1705 28.5456C34.9613 28.5363 33.9212 28.7799 33.7991 29.0986C33.6773 29.4172 33.5461 30.167 33.3024 30.889C33.0589 31.6103 30.1251 38.1335 29.3566 39.8301C28.9628 40.6922 28.6257 41.3858 28.3819 41.8546C28.3446 41.9295 28.3164 41.9765 28.2976 42.014C28.3257 41.9672 28.3446 41.9201 28.3446 41.9391C28.1383 42.3419 28.0164 42.5669 28.0164 42.5669V42.5762C27.857 42.8761 27.679 43.1478 27.5947 43.1478C27.5383 43.1478 27.4166 42.3607 27.6229 41.2828C28.0632 39.0146 29.1036 35.4909 29.0942 35.3688C29.0848 35.3032 29.2909 34.6941 28.4099 34.3659C27.5571 34.0566 27.2477 34.5723 27.1729 34.5723C27.098 34.5723 27.0416 34.7598 27.0416 34.7598C27.0416 34.7598 27.9883 30.7858 25.2234 30.7858C23.4989 30.7858 21.0996 32.6792 19.9188 34.3943C19.1783 34.7974 17.5755 35.669 15.8886 36.5968C15.2419 36.953 14.5764 37.3183 13.9485 37.6653C13.9017 37.6182 13.8641 37.5714 13.8173 37.5245C10.4619 33.9445 4.26674 31.4139 4.52931 26.6056C4.62296 24.8529 5.23223 20.2513 16.4416 14.6652C25.6267 10.0915 32.9745 11.3475 34.24 14.1404C36.058 18.1238 30.3127 25.5373 20.7717 26.6056C17.1352 27.0087 15.2234 25.6028 14.7453 25.0781C14.2485 24.5252 14.1735 24.4969 13.986 24.6C13.6767 24.7687 13.8736 25.2561 13.986 25.5466C14.2673 26.287 15.4387 27.5991 17.4352 28.2552C19.1876 28.8269 23.4522 29.1457 28.6069 27.1493C34.399 24.9186 38.9073 18.7046 37.5857 13.5031C36.2362 8.21715 27.473 6.48313 19.1784 9.42603C14.2392 11.1787 8.89696 13.9343 5.05418 17.5238C0.489838 21.7977 -0.241125 25.5184 0.0586165 27.0744C1.12715 32.5946 8.73743 36.1937 11.7835 38.8554C11.6335 38.9398 11.4929 39.0148 11.3618 39.0898C9.83414 39.8488 4.03261 42.8855 2.57981 46.0912C0.939842 49.7276 2.85151 52.3329 4.10748 52.6893C8.02512 53.7763 12.0366 51.8176 14.1923 48.6027C16.3477 45.3881 16.0854 41.1893 15.092 39.2772C15.0825 39.2492 15.0638 39.2306 15.0546 39.2022C15.4481 38.9681 15.851 38.7337 16.2542 38.4994C17.032 38.0402 17.7913 37.6182 18.4566 37.253C18.0816 38.2653 17.8099 39.4832 17.6693 41.2455C17.5006 43.3073 18.3536 45.9785 19.4595 47.0282C19.9467 47.4875 20.5372 47.497 20.9028 47.497C22.1962 47.497 22.7772 46.4284 23.4239 45.1537C24.2206 43.5976 24.9235 41.7888 24.9235 41.7888C24.9235 41.7888 24.0425 46.6815 26.4512 46.6815C27.3321 46.6815 28.2133 45.5474 28.6067 44.9663V44.9756C28.6067 44.9756 28.6257 44.9383 28.6725 44.8634C28.7661 44.7227 28.813 44.6383 28.813 44.6383V44.61C29.1691 44.0008 29.9471 42.6042 31.1184 40.2988C32.637 37.3182 34.0895 33.5972 34.0895 33.5972C34.0895 33.5972 34.2207 34.5066 34.6708 36.0155C34.9332 36.9059 35.4861 37.8806 35.9265 38.8273C35.5706 39.3146 35.3548 39.5959 35.3548 39.5959C35.3548 39.5959 35.3548 39.6051 35.364 39.6145C35.0829 39.9897 34.7644 40.3927 34.4363 40.7864C33.2366 42.2108 31.8119 43.8418 31.6246 44.3103C31.3995 44.8634 31.4559 45.2754 31.8871 45.5944C32.2056 45.8381 32.768 45.8754 33.3584 45.8287C34.4363 45.7535 35.1955 45.4913 35.5609 45.3223C36.1419 45.1164 36.8169 44.7881 37.4542 44.329C38.6258 43.4669 39.3382 42.2298 39.2724 40.5989C39.2349 39.6992 38.9442 38.7993 38.5881 37.956C38.6913 37.8059 38.8038 37.6464 38.9069 37.4874C40.7629 34.7783 42.1967 31.8077 42.1967 31.8077C42.1967 31.8077 42.328 32.7165 42.7777 34.2256C43.0027 34.9848 43.4432 35.819 43.8461 36.6342C42.1028 38.0495 41.0252 39.6899 40.6502 40.7674C39.9565 42.7639 40.5002 43.6634 41.5217 43.87C41.981 43.9636 42.6371 43.7479 43.1245 43.5417C43.7337 43.3355 44.4648 43.0074 45.1489 42.5013C46.3205 41.6393 47.4546 40.43 47.3797 38.7899C47.3514 38.0494 47.1453 37.3091 46.8735 36.5968C48.3448 35.9784 50.2572 35.6407 52.6938 35.922C57.9143 36.5311 58.9357 39.7927 58.7389 41.1516C58.5423 42.5201 57.4457 43.27 57.0801 43.4949C56.7144 43.7199 56.6021 43.8043 56.6304 43.9729C56.6771 44.2166 56.8457 44.2073 57.155 44.1508C57.5864 44.0759 59.8918 43.0449 59.9947 40.5237C60.145 37.337 57.0804 33.8319 51.6537 33.8599ZM11.418 47.4218C9.69366 49.3056 7.27551 50.018 6.23528 49.4181C5.11992 48.7716 5.56041 45.9973 7.68795 43.9914C8.98135 42.7732 10.6496 41.6485 11.7556 40.955C12.0086 40.8051 12.3742 40.5801 12.8241 40.3083C12.8991 40.2617 12.9366 40.2428 12.9366 40.2428C13.0208 40.1863 13.1146 40.1397 13.2084 40.0833C13.986 42.9325 13.2363 45.4442 11.418 47.4218ZM24.0146 38.8554C23.4147 40.3267 22.1494 44.0758 21.3811 43.879C20.725 43.7102 20.3218 40.8517 21.2499 38.0402C21.7184 36.6248 22.7118 34.9379 23.3024 34.2819C24.2489 33.2226 25.2892 32.8852 25.533 33.307C25.8609 33.8599 24.3894 37.937 24.0146 38.8554ZM34.4178 43.823C34.1649 43.9541 33.9305 44.0384 33.818 43.9728C33.7338 43.9259 33.9212 43.7478 33.9212 43.7478C33.9212 43.7478 35.2238 42.3513 35.7394 41.7138C36.0392 41.339 36.3859 40.8984 36.7609 40.4112C36.7609 40.4578 36.7701 40.505 36.7701 40.561C36.7611 42.2389 35.149 43.3732 34.4178 43.823ZM42.4408 41.9952C42.2533 41.864 42.2813 41.4235 42.9093 40.055C43.1531 39.5207 43.7155 38.6211 44.69 37.7588C44.8026 38.1149 44.8681 38.4522 44.8681 38.7709C44.8585 40.8797 43.3498 41.6671 42.4408 41.9952Z" fill="#CF649A"/>
</svg>
