<svg width="60" height="60" viewBox="0 0 60 60" fill="none" xmlns="http://www.w3.org/2000/svg">
<path d="M57.2605 43.5284C54.7722 40.9719 47.6993 36.1827 43.0636 36.1827C41.9898 36.1827 41.0524 36.4213 40.2855 36.9156C38.0188 38.3643 36.2122 39.4891 35.343 39.4891C34.8658 39.4891 34.3545 39.063 33.2296 38.0916L33.0421 37.9211C29.9232 35.2113 29.2585 34.5125 28.0485 33.2513L27.7417 32.9275C27.5201 32.7059 27.3327 32.5014 27.1452 32.3139C26.0885 31.2232 25.3216 30.4392 22.6117 27.3714L22.4924 27.235C21.1971 25.7693 20.3449 24.8149 20.2938 24.1161C20.2427 23.4344 20.8392 22.3266 22.356 20.2644C24.1967 17.7761 24.2649 14.7083 22.5776 11.1463C21.2312 8.33413 19.0326 5.6413 17.0897 3.2723L16.9193 3.06778C15.249 1.02259 13.3061 0 11.1416 0C8.73852 0 6.74447 1.29528 5.68779 1.97701C5.60257 2.02814 5.51736 2.09631 5.43214 2.14744C3.06313 3.64725 1.34177 5.70948 0.694127 7.80579C-0.277336 10.9588 -0.924978 15.0492 3.72782 23.5537C7.75002 30.9164 11.3973 35.8589 17.192 41.807C22.6458 47.3972 25.0659 49.2037 30.4857 53.1237C36.519 57.4867 42.3136 59.9921 46.3699 59.9921C50.1365 59.9921 53.102 59.9921 57.3287 54.8962C61.7599 49.5446 59.9193 46.2723 57.2605 43.5284Z" fill="#0F314D"/>
</svg>
