<svg width="60" height="60" viewBox="0 0 60 60" fill="none" xmlns="http://www.w3.org/2000/svg">
<path fill-rule="evenodd" clip-rule="evenodd" d="M30.5264 32.6227L21.5241 58.7775C24.2128 59.5687 27.0553 60 29.9995 60C33.4927 60 36.8433 59.3963 39.9619 58.2994C39.8831 58.17 39.8081 58.035 39.7481 57.8869L30.5264 32.6227ZM56.325 15.6066C56.4544 16.5628 56.5275 17.5866 56.5275 18.6909C56.5275 21.7341 55.9575 25.1559 54.2456 29.4366L45.082 55.9289C54.0019 50.7295 60 41.0653 60 29.9991C60 24.7828 58.6669 19.8797 56.325 15.6066ZM50.2519 28.4855C50.2519 24.7767 48.9188 22.2098 47.7788 20.213C46.2581 17.7398 44.8312 15.6473 44.8312 13.1761C44.8312 10.418 46.9219 7.85109 49.8694 7.85109C50.0025 7.85109 50.1281 7.86797 50.2575 7.87547C44.9213 2.985 37.8089 0 29.9995 0C19.5178 0 10.298 5.3775 4.93359 13.5206C5.63859 13.5431 6.30234 13.5563 6.86484 13.5563C10.0017 13.5563 14.8603 13.1756 14.8603 13.1756C16.4766 13.08 16.6678 15.4575 15.0516 15.6469C15.0516 15.6469 13.4259 15.8381 11.6184 15.9338L22.5427 48.428L29.1089 28.7381L24.4359 15.9338C22.8197 15.8381 21.2878 15.6469 21.2878 15.6469C19.6716 15.5513 19.8609 13.08 21.4791 13.1756C21.4791 13.1756 26.4328 13.5563 29.3808 13.5563C32.5177 13.5563 37.3763 13.1756 37.3763 13.1756C38.9944 13.08 39.1837 15.4575 37.5675 15.6469C37.5675 15.6469 35.94 15.8381 34.1344 15.9338L44.9761 48.1805L47.9705 38.183C49.2637 34.0317 50.2519 31.0523 50.2519 28.4855ZM0 29.9986C0 41.873 6.9 52.1353 16.9073 56.9972L2.59687 17.79C0.93375 21.5198 0 25.6486 0 29.9986Z" fill="#00759D"/>
</svg>
