<?xml version="1.0" encoding="utf-8"?>
<!-- Generator: Adobe Illustrator 16.0.0, SVG Export Plug-In . SVG Version: 6.00 Build 0)  -->
<!DOCTYPE svg PUBLIC "-//W3C//DTD SVG 1.1//EN" "http://www.w3.org/Graphics/SVG/1.1/DTD/svg11.dtd">
<svg version="1.1" xmlns="http://www.w3.org/2000/svg" xmlns:xlink="http://www.w3.org/1999/xlink" x="0px" y="0px" width="64px"
	 height="64px" viewBox="0 0 64 64" enable-background="new 0 0 64 64" xml:space="preserve">
<g id="_x35_0_document_x2C__optimization_x2C__documentation_x2C__business_x2C__office_x2C__corporation_x2C__job">
</g>
<g id="_x34_9_human_x2C__resource_x2C__conveyor_x2C__business_x2C__office_x2C__corporation_x2C__job">
</g>
<g id="_x34_8_knowledge_x2C__training_x2C__growth_x2C__book_x2C__business_x2C__office_x2C__corporation">
</g>
<g id="_x34_7_skill_x2C__competence_x2C__experience_x2C__business_x2C__office_x2C__corporation_x2C__job">
</g>
<g id="_x34_6_target_x2C__success_x2C__victory_x2C__business_x2C__office_x2C__corporation_x2C__job">
</g>
<g id="_x34_5_inbox_x2C__letter_x2C__email_x2C__business_x2C__office_x2C__corporation_x2C__job">
</g>
<g id="_x34_4_document_x2C__workflow_x2C__sharing_x2C__business_x2C__office_x2C__corporation_x2C__job">
</g>
<g id="_x34_3_budget_x2C__allocation_x2C__money_x2C__business_x2C__office_x2C__corporation_x2C__job">
</g>
<g id="_x34_2_case_x2C__task_x2C__project_x2C__business_x2C__office_x2C__corporation_x2C__job">
</g>
<g id="_x34_1_structure_x2C__structuring_x2C__tasks_x2C__business_x2C__office_x2C__corporation_x2C__job">
</g>
<g id="_x34_0_choice_x2C__dilemma_x2C__question_x2C__business_x2C__office_x2C__corporation_x2C__job">
</g>
<g id="_x33_9_workplace_x2C__table_x2C__laptop_x2C__business_x2C__office_x2C__corporation_x2C__job">
</g>
<g id="_x33_8_bribe_x2C__bag_x2C__money_x2C__business_x2C__office_x2C__corporation_x2C__job">
</g>
<g id="_x33_7_corruption_x2C__forage_x2C__money_x2C__business_x2C__office_x2C__corporation_x2C__job">
</g>
<g id="_x33_6_career_x2C__ladder_x2C__success_x2C__business_x2C__office_x2C__corporation_x2C__job">
</g>
<g id="_x33_5_review_x2C__feedback_x2C__rating_x2C__business_x2C__office_x2C__corporation_x2C__job">
</g>
<g id="_x33_4_manipulation_x2C__thread_x2C__puppet_x2C__business_x2C__office_x2C__corporation_x2C__job">
</g>
<g id="_x33_3_location_x2C__map_x2C__pin_x2C__business_x2C__office_x2C__corporation_x2C__job">
</g>
<g id="_x33_2_retirement_x2C__old_x2C__man_x2C__door_x2C__business_x2C__office_x2C__corporation">
</g>
<g id="_x33_1_victory_x2C__success_x2C__medal_x2C__reward_x2C__business_x2C__office_x2C__corporation">
</g>
<g id="_x33_0_dismissal_x2C__box_x2C__door_x2C__business_x2C__office_x2C__corporation_x2C__job">
</g>
<g id="_x32_9_meeting_x2C__discussion_x2C__question_x2C__business_x2C__office_x2C__corporation_x2C__job">
</g>
<g id="_x32_8_strategy_x2C__vision_x2C__eye_x2C__chess_x2C__business_x2C__office_x2C__corporation">
</g>
<g id="_x32_7_board_x2C__task_x2C__process_x2C__business_x2C__office_x2C__corporation_x2C__job">
</g>
<g id="_x32_6_scheme_x2C__board_x2C__structure_x2C__business_x2C__office_x2C__corporation_x2C__job">
</g>
<g id="_x32_5_conflict_x2C__dialog_x2C__discussion_x2C__business_x2C__office_x2C__corporation_x2C__job">
</g>
<g id="_x32_4_documentation_x2C__document_x2C__repository_x2C__business_x2C__office_x2C__corporation_x2C__job">
</g>
<g id="_x32_3_sprint_x2C__programming_x2C__code_x2C__business_x2C__office_x2C__corporation_x2C__job">
</g>
<g id="_x32_2_cram_x2C__tablet_x2C__work_x2C__business_x2C__office_x2C__corporation_x2C__job">
</g>
<g id="_x32_1_leader_x2C__discoverer_x2C__flag_x2C__business_x2C__office_x2C__corporation_x2C__job">
</g>
<g id="_x32_0_rally_x2C__collective_x2C__arm_x2C__business_x2C__office_x2C__corporation_x2C__job">
</g>
<g id="_x31_9_consolidation_x2C__portfolio_x2C__puzzle_x2C__business_x2C__office_x2C__corporation_x2C__job">
</g>
<g id="_x31_8_idea_x2C__creative_x2C__work_x2C__business_x2C__office_x2C__corporation_x2C__job">
</g>
<g id="_x31_7_problem_x2C__stress_x2C__resistance_x2C__business_x2C__office_x2C__corporation_x2C__job">
</g>
<g id="_x31_6_hard_x2C__skills_x2C__skill_x2C__portfolio_x2C__book_x2C__business_x2C__office">
</g>
<g id="_x31_5_time_x2C__management_x2C__clock_x2C__deadline_x2C__business_x2C__office_x2C__corporation">
</g>
<g id="_x31_4_multitasking_x2C__task_x2C__work_x2C__business_x2C__office_x2C__corporation_x2C__job">
</g>
<g id="_x31_3_tranquility_x2C__yoga_x2C__lotus_x2C__posture_x2C__business_x2C__office_x2C__corporation">
</g>
<g id="_x31_2_corporate_x2C__party_x2C__business_x2C__office_x2C__corporation_x2C__job">
</g>
<g id="_x31_1_dialog_x2C__discussion_x2C__work_x2C__business_x2C__office_x2C__corporation_x2C__job">
	<g>
		<g>
			<g>
				<path d="M36,60c-0.553,0-1-0.447-1-1c0-3.309,2.691-6,6-6c0.553,0,1,0.447,1,1s-0.447,1-1,1c-2.206,0-4,1.794-4,4
					C37,59.553,36.553,60,36,60z"/>
			</g>
			<g>
				<path d="M44,55h-3c-0.553,0-1-0.447-1-1s0.447-1,1-1h3c0.553,0,1,0.447,1,1S44.553,55,44,55z"/>
			</g>
			<g>
				<path d="M36,63c-0.553,0-1-0.447-1-1v-3c0-0.553,0.447-1,1-1s1,0.447,1,1v3C37,62.553,36.553,63,36,63z"/>
			</g>
			<g>
				<path d="M37,64c-1.103,0-2-0.897-2-2c0-0.531,0.418-0.914,0.948-0.943c0.557-0.024,0.992,0.416,1.052,0.942c0.552,0,1,0.448,1,1
					C38,63.552,37.553,64,37,64z"/>
			</g>
			<g>
				<path d="M60,60c-0.553,0-1-0.447-1-1c0-2.206-1.794-4-4-4c-0.553,0-1-0.447-1-1s0.447-1,1-1c3.309,0,6,2.691,6,6
					C61,59.553,60.553,60,60,60z"/>
			</g>
			<g>
				<path d="M55,55h-3c-0.553,0-1-0.447-1-1s0.447-1,1-1h3c0.553,0,1,0.447,1,1S55.553,55,55,55z"/>
			</g>
			<g>
				<path d="M60,63c-0.553,0-1-0.447-1-1v-3c0-0.553,0.447-1,1-1s1,0.447,1,1v3C61,62.553,60.553,63,60,63z"/>
			</g>
			<g>
				<path d="M59,64c-0.553,0-1-0.447-1-1s0.447-1,1-1c0-0.553,0.447-1,1-1s1,0.447,1,1C61,63.103,60.103,64,59,64z"/>
			</g>
			<g>
				<path d="M59,64H37c-0.553,0-1-0.447-1-1s0.447-1,1-1h22c0.553,0,1,0.447,1,1S59.553,64,59,64z"/>
			</g>
			<g>
				<path d="M44,55c-0.553,0-1-0.447-1-1v-3.936c0-0.553,0.447-1,1-1s1,0.447,1,1V54C45,54.553,44.553,55,44,55z"/>
			</g>
			<g>
				<path d="M52,55c-0.553,0-1-0.447-1-1v-3.936c0-0.553,0.447-1,1-1s1,0.447,1,1V54C53,54.553,52.553,55,52,55z"/>
			</g>
			<g>
				<path d="M53,29h-6c-0.553,0-1-0.447-1-1s0.447-1,1-1h6c0.553,0,1,0.447,1,1S53.553,29,53,29z"/>
			</g>
			<g>
				<g>
					<path d="M47.999,52C42.485,52,38,47.515,38,42.002c0-0.553,0.447-1,1-1s1,0.447,1,1C40,46.412,43.588,50,47.999,50
						C52.411,50,56,46.412,56,42.002c0-0.553,0.447-1,1-1s1,0.447,1,1C58,47.515,53.514,52,47.999,52z"/>
				</g>
				<g>
					<path d="M39,43.051c-0.553,0-1-0.447-1-1V36c0-0.553,0.447-1,1-1s1,0.447,1,1v6.051C40,42.604,39.553,43.051,39,43.051z"/>
				</g>
				<g>
					<path d="M57,43.002c-0.553,0-1-0.447-1-1V36c0-0.553,0.447-1,1-1s1,0.447,1,1v6.002C58,42.555,57.553,43.002,57,43.002z"/>
				</g>
				<g>
					<path d="M57,36.999c-0.553,0-1-0.447-1-1C56,34.346,54.654,33,53,33c-0.553,0-1-0.447-1-1s0.447-1,1-1c2.757,0,5,2.242,5,4.999
						C58,36.552,57.553,36.999,57,36.999z"/>
				</g>
				<g>
					<path d="M53,33c-0.553,0-1-0.447-1-1v-4c0-0.553,0.447-1,1-1s1,0.447,1,1v4C54,32.553,53.553,33,53,33z"/>
				</g>
				<g>
					<path d="M39,37c-0.553,0-1-0.447-1-1c0-4.963,4.037-9,9-9c0.553,0,1,0.447,1,1s-0.447,1-1,1c-3.859,0-7,3.141-7,7
						C40,36.553,39.553,37,39,37z"/>
				</g>
				<g>
					<g>
						<path d="M56.999,40.025c-0.192,0-0.387-0.056-0.559-0.171l-3-2.025c-0.458-0.31-0.578-0.931-0.27-1.389
							c0.309-0.457,0.929-0.576,1.389-0.27l3,2.025c0.458,0.31,0.578,0.931,0.27,1.389C57.636,39.871,57.32,40.025,56.999,40.025z"
							/>
					</g>
					<g>
						<path d="M48.5,39c-3.612,0-6.687-1.008-6.815-1.051c-0.523-0.175-0.807-0.74-0.634-1.264c0.174-0.523,0.738-0.807,1.264-0.635
							C42.344,36.061,45.223,37,48.5,37c3.178,0,5.04-0.888,5.059-0.897c0.494-0.239,1.094-0.038,1.337,0.457
							c0.243,0.494,0.043,1.09-0.449,1.336C54.355,37.94,52.186,39,48.5,39z"/>
					</g>
					<g>
						<path d="M39.001,40.025c-0.321,0-0.637-0.154-0.83-0.44c-0.309-0.458-0.188-1.079,0.27-1.389l3-2.025
							c0.459-0.307,1.079-0.188,1.389,0.27c0.309,0.458,0.188,1.079-0.27,1.389l-3,2.025C39.388,39.97,39.193,40.025,39.001,40.025z
							"/>
					</g>
				</g>
			</g>
			<g>
				<path d="M45.999,56c-0.15,0-0.303-0.034-0.446-0.105l-2-1c-0.494-0.247-0.694-0.848-0.447-1.342s0.848-0.693,1.342-0.447l2,1
					c0.494,0.247,0.694,0.848,0.447,1.342C46.719,55.798,46.366,56,45.999,56z"/>
			</g>
			<g>
				<path d="M46.001,56c-0.367,0-0.72-0.202-0.896-0.553c-0.247-0.494-0.047-1.095,0.447-1.342l2-1
					c0.494-0.246,1.095-0.047,1.342,0.447s0.047,1.095-0.447,1.342l-2,1C46.304,55.966,46.151,56,46.001,56z"/>
			</g>
			<g>
				<path d="M50.001,56c-0.367,0-0.72-0.202-0.896-0.553c-0.247-0.494-0.047-1.095,0.447-1.342l2-1
					c0.493-0.246,1.094-0.047,1.342,0.447c0.247,0.494,0.047,1.095-0.447,1.342l-2,1C50.304,55.966,50.151,56,50.001,56z"/>
			</g>
			<g>
				<path d="M49.999,56c-0.15,0-0.303-0.034-0.446-0.105l-2-1c-0.494-0.247-0.694-0.848-0.447-1.342
					c0.248-0.494,0.847-0.693,1.342-0.447l2,1c0.494,0.247,0.694,0.848,0.447,1.342C50.719,55.798,50.366,56,49.999,56z"/>
			</g>
		</g>
		<g>
			<path d="M48,24c-0.256,0-0.512-0.098-0.707-0.293L45.586,22H18.414l-1.707,1.707c-0.391,0.391-1.023,0.391-1.414,0L13.586,22H4
				c-0.553,0-1-0.447-1-1V1c0-0.553,0.447-1,1-1h56c0.553,0,1,0.447,1,1v20c0,0.553-0.447,1-1,1h-9.586l-1.707,1.707
				C48.512,23.902,48.256,24,48,24z M18,20h28c0.266,0,0.52,0.105,0.707,0.293L48,21.586l1.293-1.293C49.48,20.105,49.734,20,50,20
				h9V2H5v18h9c0.266,0,0.52,0.105,0.707,0.293L16,21.586l1.293-1.293C17.48,20.105,17.734,20,18,20z"/>
		</g>
		<g>
			<g>
				<g>
					<path d="M7,42.96c-0.553,0-1-0.447-1-1V36c0-0.553,0.447-1,1-1s1,0.447,1,1v5.96C8,42.513,7.553,42.96,7,42.96z"/>
				</g>
				<g>
					<path d="M25,43c-0.553,0-1-0.447-1-1v-1.995c0-0.553,0.447-1,1-1s1,0.447,1,1V42C26,42.553,25.553,43,25,43z"/>
				</g>
				<g>
					<path d="M5,59c-0.553,0-1-0.447-1-1c0-2.757,2.243-5,5-5c0.553,0,1,0.447,1,1s-0.447,1-1,1c-1.654,0-3,1.346-3,3
						C6,58.553,5.553,59,5,59z"/>
				</g>
				<g>
					<path d="M13,55H9c-0.553,0-1-0.447-1-1s0.447-1,1-1h4c0.553,0,1,0.447,1,1S13.553,55,13,55z"/>
				</g>
				<g>
					<path d="M5,63c-0.553,0-1-0.447-1-1v-4c0-0.553,0.447-1,1-1s1,0.447,1,1v4C6,62.553,5.553,63,5,63z"/>
				</g>
				<g>
					<path d="M6,64c-1.103,0-2-0.897-2-2c0-0.531,0.418-0.914,0.948-0.943C5.516,61.032,5.94,61.473,6,61.999c0.552,0,1,0.448,1,1
						C7,63.552,6.553,64,6,64z"/>
				</g>
				<g>
					<path d="M27,59c-0.553,0-1-0.447-1-1c0-1.654-1.346-3-3-3c-0.553,0-1-0.447-1-1s0.447-1,1-1c2.757,0,5,2.243,5,5
						C28,58.553,27.553,59,27,59z"/>
				</g>
				<g>
					<path d="M23,55h-4c-0.553,0-1-0.447-1-1s0.447-1,1-1h4c0.553,0,1,0.447,1,1S23.553,55,23,55z"/>
				</g>
				<g>
					<path d="M27,63c-0.553,0-1-0.447-1-1v-4c0-0.553,0.447-1,1-1s1,0.447,1,1v4C28,62.553,27.553,63,27,63z"/>
				</g>
				<g>
					<path d="M26,64c-0.553,0-1-0.447-1-1s0.447-1,1-1c0-0.553,0.447-1,1-1s1,0.447,1,1C28,63.103,27.103,64,26,64z"/>
				</g>
				<g>
					<path d="M26,64H6c-0.553,0-1-0.447-1-1s0.447-1,1-1h20c0.553,0,1,0.447,1,1S26.553,64,26,64z"/>
				</g>
				<g>
					<path d="M13,55c-0.553,0-1-0.447-1-1v-3.514c0-0.553,0.447-1,1-1s1,0.447,1,1V54C14,54.553,13.553,55,13,55z"/>
				</g>
				<g>
					<path d="M19,55c-0.553,0-1-0.447-1-1v-3.514c0-0.553,0.447-1,1-1s1,0.447,1,1V54C20,54.553,19.553,55,19,55z"/>
				</g>
				<g>
					<path d="M15.999,52C10.485,52,6,47.515,6,42.002c0-0.553,0.447-1,1-1s1,0.447,1,1C8,46.412,11.588,50,15.999,50
						C20.411,50,24,46.412,24,42.002c0-0.553,0.447-1,1-1s1,0.447,1,1C26,47.515,21.514,52,15.999,52z"/>
				</g>
				<g>
					<path d="M16,58c-0.256,0-0.512-0.098-0.707-0.293l-3-3c-0.391-0.391-0.391-1.023,0-1.414s1.023-0.391,1.414,0l3,3
						c0.391,0.391,0.391,1.023,0,1.414C16.512,57.902,16.256,58,16,58z"/>
				</g>
				<g>
					<path d="M16,58c-0.256,0-0.512-0.098-0.707-0.293c-0.391-0.391-0.391-1.023,0-1.414l3-3c0.391-0.391,1.023-0.391,1.414,0
						s0.391,1.023,0,1.414l-3,3C16.512,57.902,16.256,58,16,58z"/>
				</g>
			</g>
			<g>
				<path d="M13,37c-2.206,0-4-1.794-4-4c0-0.553,0.447-1,1-1s1,0.447,1,1c0,1.103,0.897,2,2,2c0.553,0,1,0.447,1,1S13.553,37,13,37
					z"/>
			</g>
			<g>
				<path d="M7,37c-0.553,0-1-0.447-1-1s0.447-1,1-1c1.103,0,2-0.897,2-2c0-0.553,0.447-1,1-1s1,0.447,1,1C11,35.206,9.206,37,7,37z
					"/>
			</g>
			<g>
				<path d="M7,33c-0.553,0-1-0.447-1-1c0-2.206,1.794-4,4-4c0.553,0,1,0.447,1,1s-0.447,1-1,1c-1.103,0-2,0.897-2,2
					C8,32.553,7.553,33,7,33z"/>
			</g>
			<g>
				<path d="M27,47c-0.553,0-1-0.447-1-1v-9c0-0.553,0.447-1,1-1s1,0.447,1,1v9C28,46.553,27.553,47,27,47z"/>
			</g>
			<g>
				<path d="M7,37c-0.553,0-1-0.447-1-1v-4c0-0.553,0.447-1,1-1s1,0.447,1,1v4C8,36.553,7.553,37,7,37z"/>
			</g>
			<g>
				<path d="M17,37h-4c-0.553,0-1-0.447-1-1s0.447-1,1-1h4c0.553,0,1,0.447,1,1S17.553,37,17,37z"/>
			</g>
			<g>
				<path d="M27,38c-0.553,0-1-0.447-1-1c0-4.963-4.037-9-9-9c-1.949,0-3.803,0.613-5.362,1.772
					c-0.446,0.328-1.071,0.236-1.399-0.206c-0.329-0.443-0.237-1.069,0.206-1.399C12.352,26.749,14.618,26,17,26
					c6.065,0,11,4.935,11,11C28,37.553,27.553,38,27,38z"/>
			</g>
			<g>
				<path d="M27,47.002c-0.553,0-1-0.447-1-1c0-4.963-4.037-9-9-9c-0.553,0-1-0.447-1-1s0.447-1,1-1c6.065,0,11,4.935,11,11
					C28,46.555,27.553,47.002,27,47.002z"/>
			</g>
			<g>
				<path d="M11.041,29.97H10c-0.553,0-1-0.447-1-1s0.447-1,1-1h1.041c0.553,0,1,0.447,1,1S11.594,29.97,11.041,29.97z"/>
			</g>
			<g>
				<path d="M10,34c-0.553,0-1-0.447-1-1v-4.03c0-0.553,0.447-1,1-1s1,0.447,1,1V33C11,33.553,10.553,34,10,34z"/>
			</g>
			<g>
				<path d="M17.999,64c-0.136,0-0.273-0.027-0.405-0.086c-0.505-0.225-0.731-0.815-0.508-1.32l4-9
					c0.225-0.503,0.817-0.732,1.32-0.508c0.505,0.225,0.731,0.815,0.508,1.32l-4,9C18.748,63.778,18.383,64,17.999,64z"/>
			</g>
			<g>
				<path d="M14.001,64c-0.384,0-0.749-0.221-0.915-0.594l-4-9c-0.224-0.505,0.003-1.096,0.508-1.32
					c0.506-0.225,1.097,0.004,1.32,0.508l4,9c0.224,0.505-0.003,1.096-0.508,1.32C14.274,63.973,14.137,64,14.001,64z"/>
			</g>
		</g>
		<g>
			<path d="M17,6H8C7.447,6,7,5.553,7,5s0.447-1,1-1h9c0.553,0,1,0.447,1,1S17.553,6,17,6z"/>
		</g>
		<g>
			<path d="M49,10h-9c-0.553,0-1-0.447-1-1s0.447-1,1-1h9c0.553,0,1,0.447,1,1S49.553,10,49,10z"/>
		</g>
		<g>
			<path d="M27,10H8c-0.553,0-1-0.447-1-1s0.447-1,1-1h19c0.553,0,1,0.447,1,1S27.553,10,27,10z"/>
		</g>
		<g>
			<path d="M24,6h-3c-0.553,0-1-0.447-1-1s0.447-1,1-1h3c0.553,0,1,0.447,1,1S24.553,6,24,6z"/>
		</g>
		<g>
			<path d="M44,6H28c-0.553,0-1-0.447-1-1s0.447-1,1-1h16c0.553,0,1,0.447,1,1S44.553,6,44,6z"/>
		</g>
		<g>
			<path d="M56,6h-8c-0.553,0-1-0.447-1-1s0.447-1,1-1h8c0.553,0,1,0.447,1,1S56.553,6,56,6z"/>
		</g>
		<g>
			<path d="M17,18H8c-0.553,0-1-0.447-1-1s0.447-1,1-1h9c0.553,0,1,0.447,1,1S17.553,18,17,18z"/>
		</g>
		<g>
			<path d="M24,18h-3c-0.553,0-1-0.447-1-1s0.447-1,1-1h3c0.553,0,1,0.447,1,1S24.553,18,24,18z"/>
		</g>
		<g>
			<path d="M44,18H28c-0.553,0-1-0.447-1-1s0.447-1,1-1h16c0.553,0,1,0.447,1,1S44.553,18,44,18z"/>
		</g>
		<g>
			<path d="M56,18h-8c-0.553,0-1-0.447-1-1s0.447-1,1-1h8c0.553,0,1,0.447,1,1S56.553,18,56,18z"/>
		</g>
		<g>
			<path d="M11,14H8c-0.553,0-1-0.447-1-1s0.447-1,1-1h3c0.553,0,1,0.447,1,1S11.553,14,11,14z"/>
		</g>
		<g>
			<path d="M30,14H15c-0.553,0-1-0.447-1-1s0.447-1,1-1h15c0.553,0,1,0.447,1,1S30.553,14,30,14z"/>
		</g>
		<g>
			<path d="M42,14h-8c-0.553,0-1-0.447-1-1s0.447-1,1-1h8c0.553,0,1,0.447,1,1S42.553,14,42,14z"/>
		</g>
		<g>
			<path d="M56,14H46c-0.553,0-1-0.447-1-1s0.447-1,1-1h10c0.553,0,1,0.447,1,1S56.553,14,56,14z"/>
		</g>
		<g>
			<path d="M36,10h-5c-0.553,0-1-0.447-1-1s0.447-1,1-1h5c0.553,0,1,0.447,1,1S36.553,10,36,10z"/>
		</g>
		<g>
			<path d="M56,10h-3c-0.553,0-1-0.447-1-1s0.447-1,1-1h3c0.553,0,1,0.447,1,1S56.553,10,56,10z"/>
		</g>
	</g>
</g>
<g id="_x31_0_listening_x2C__skill_x2C__dialog_x2C__business_x2C__office_x2C__corporation_x2C__job">
</g>
<g id="_x39__training_x2C__book_x2C__lesson_x2C__business_x2C__office_x2C__corporation_x2C__job">
</g>
<g id="_x38__dress_x2C__code_x2C__shirt_x2C__business_x2C__office_x2C__corporation_x2C__job">
</g>
<g id="_x37__task_x2C__program_x2C__ticket_x2C__business_x2C__office_x2C__corporation_x2C__job">
</g>
<g id="_x36__plan_x2C__graph_x2C__stage_x2C__business_x2C__office_x2C__corporation_x2C__job">
</g>
<g id="_x35__boss_x2C__king_x2C__crown_x2C__business_x2C__office_x2C__corporation_x2C__job">
</g>
<g id="_x34__structure_x2C__structuring_x2C__business_x2C__office_x2C__corporation_x2C__job">
</g>
<g id="_x33__soft_x2C__skills_x2C__communication_x2C__business_x2C__office_x2C__corporation_x2C__job">
</g>
<g id="_x32__office_x2C__house_x2C__portfolio_x2C__business_x2C__corporation_x2C__job">
</g>
<g id="_x31__corporate_x2C__rules_x2C__book_x2C__business_x2C__office_x2C__corporation_x2C__job">
</g>
</svg>
