<?xml version="1.0" encoding="utf-8"?>
<!-- Generator: Adobe Illustrator 16.0.0, SVG Export Plug-In . SVG Version: 6.00 Build 0)  -->
<!DOCTYPE svg PUBLIC "-//W3C//DTD SVG 1.1//EN" "http://www.w3.org/Graphics/SVG/1.1/DTD/svg11.dtd">
<svg version="1.1" xmlns="http://www.w3.org/2000/svg" xmlns:xlink="http://www.w3.org/1999/xlink" x="0px" y="0px" width="64px"
	 height="64px" viewBox="0 0 64 64" enable-background="new 0 0 64 64" xml:space="preserve">
<g id="_x35_0_document_x2C__optimization_x2C__documentation_x2C__business_x2C__office_x2C__corporation_x2C__job">
</g>
<g id="_x34_9_human_x2C__resource_x2C__conveyor_x2C__business_x2C__office_x2C__corporation_x2C__job">
</g>
<g id="_x34_8_knowledge_x2C__training_x2C__growth_x2C__book_x2C__business_x2C__office_x2C__corporation">
</g>
<g id="_x34_7_skill_x2C__competence_x2C__experience_x2C__business_x2C__office_x2C__corporation_x2C__job">
</g>
<g id="_x34_6_target_x2C__success_x2C__victory_x2C__business_x2C__office_x2C__corporation_x2C__job">
</g>
<g id="_x34_5_inbox_x2C__letter_x2C__email_x2C__business_x2C__office_x2C__corporation_x2C__job">
</g>
<g id="_x34_4_document_x2C__workflow_x2C__sharing_x2C__business_x2C__office_x2C__corporation_x2C__job">
</g>
<g id="_x34_3_budget_x2C__allocation_x2C__money_x2C__business_x2C__office_x2C__corporation_x2C__job">
</g>
<g id="_x34_2_case_x2C__task_x2C__project_x2C__business_x2C__office_x2C__corporation_x2C__job">
</g>
<g id="_x34_1_structure_x2C__structuring_x2C__tasks_x2C__business_x2C__office_x2C__corporation_x2C__job">
</g>
<g id="_x34_0_choice_x2C__dilemma_x2C__question_x2C__business_x2C__office_x2C__corporation_x2C__job">
</g>
<g id="_x33_9_workplace_x2C__table_x2C__laptop_x2C__business_x2C__office_x2C__corporation_x2C__job">
</g>
<g id="_x33_8_bribe_x2C__bag_x2C__money_x2C__business_x2C__office_x2C__corporation_x2C__job">
</g>
<g id="_x33_7_corruption_x2C__forage_x2C__money_x2C__business_x2C__office_x2C__corporation_x2C__job">
</g>
<g id="_x33_6_career_x2C__ladder_x2C__success_x2C__business_x2C__office_x2C__corporation_x2C__job">
</g>
<g id="_x33_5_review_x2C__feedback_x2C__rating_x2C__business_x2C__office_x2C__corporation_x2C__job">
</g>
<g id="_x33_4_manipulation_x2C__thread_x2C__puppet_x2C__business_x2C__office_x2C__corporation_x2C__job">
</g>
<g id="_x33_3_location_x2C__map_x2C__pin_x2C__business_x2C__office_x2C__corporation_x2C__job">
</g>
<g id="_x33_2_retirement_x2C__old_x2C__man_x2C__door_x2C__business_x2C__office_x2C__corporation">
</g>
<g id="_x33_1_victory_x2C__success_x2C__medal_x2C__reward_x2C__business_x2C__office_x2C__corporation">
</g>
<g id="_x33_0_dismissal_x2C__box_x2C__door_x2C__business_x2C__office_x2C__corporation_x2C__job">
</g>
<g id="_x32_9_meeting_x2C__discussion_x2C__question_x2C__business_x2C__office_x2C__corporation_x2C__job">
</g>
<g id="_x32_8_strategy_x2C__vision_x2C__eye_x2C__chess_x2C__business_x2C__office_x2C__corporation">
</g>
<g id="_x32_7_board_x2C__task_x2C__process_x2C__business_x2C__office_x2C__corporation_x2C__job">
</g>
<g id="_x32_6_scheme_x2C__board_x2C__structure_x2C__business_x2C__office_x2C__corporation_x2C__job">
</g>
<g id="_x32_5_conflict_x2C__dialog_x2C__discussion_x2C__business_x2C__office_x2C__corporation_x2C__job">
</g>
<g id="_x32_4_documentation_x2C__document_x2C__repository_x2C__business_x2C__office_x2C__corporation_x2C__job">
</g>
<g id="_x32_3_sprint_x2C__programming_x2C__code_x2C__business_x2C__office_x2C__corporation_x2C__job">
</g>
<g id="_x32_2_cram_x2C__tablet_x2C__work_x2C__business_x2C__office_x2C__corporation_x2C__job">
</g>
<g id="_x32_1_leader_x2C__discoverer_x2C__flag_x2C__business_x2C__office_x2C__corporation_x2C__job">
</g>
<g id="_x32_0_rally_x2C__collective_x2C__arm_x2C__business_x2C__office_x2C__corporation_x2C__job">
</g>
<g id="_x31_9_consolidation_x2C__portfolio_x2C__puzzle_x2C__business_x2C__office_x2C__corporation_x2C__job">
</g>
<g id="_x31_8_idea_x2C__creative_x2C__work_x2C__business_x2C__office_x2C__corporation_x2C__job">
</g>
<g id="_x31_7_problem_x2C__stress_x2C__resistance_x2C__business_x2C__office_x2C__corporation_x2C__job">
</g>
<g id="_x31_6_hard_x2C__skills_x2C__skill_x2C__portfolio_x2C__book_x2C__business_x2C__office">
</g>
<g id="_x31_5_time_x2C__management_x2C__clock_x2C__deadline_x2C__business_x2C__office_x2C__corporation">
</g>
<g id="_x31_4_multitasking_x2C__task_x2C__work_x2C__business_x2C__office_x2C__corporation_x2C__job">
</g>
<g id="_x31_3_tranquility_x2C__yoga_x2C__lotus_x2C__posture_x2C__business_x2C__office_x2C__corporation">
</g>
<g id="_x31_2_corporate_x2C__party_x2C__business_x2C__office_x2C__corporation_x2C__job">
	<g>
		<g>
			<path d="M3,34.5c-0.553,0-1-0.447-1-1v-3.868c0-0.553,0.447-1,1-1s1,0.447,1,1V33.5C4,34.053,3.553,34.5,3,34.5z"/>
		</g>
		<g>
			<path d="M17,34.5c-0.553,0-1-0.447-1-1v-4.501c0-0.553,0.447-1,1-1s1,0.447,1,1V33.5C18,34.053,17.553,34.5,17,34.5z"/>
		</g>
		<g>
			<path d="M17,29.999c-0.553,0-1-0.447-1-1c0-3.584-2.916-6.499-6.501-6.499C5.915,22.5,3,25.415,3,28.999c0,0.553-0.447,1-1,1
				s-1-0.447-1-1C1,24.313,4.813,20.5,9.499,20.5c4.688,0,8.501,3.813,8.501,8.499C18,29.552,17.553,29.999,17,29.999z"/>
		</g>
		<g>
			<path d="M17.001,31.37c-0.301,0-0.598-0.135-0.795-0.392c-1.93-2.522-2.455-2.315-4.414-1.538
				c-1.878,0.745-4.716,1.87-9.948,1.042c-0.545-0.086-0.918-0.598-0.831-1.144c0.086-0.545,0.602-0.918,1.144-0.831
				c4.691,0.739,7.123-0.224,8.899-0.927c2.411-0.956,4.027-1.359,6.738,2.181c0.336,0.438,0.253,1.066-0.186,1.402
				C17.427,31.303,17.213,31.37,17.001,31.37z"/>
		</g>
		<g>
			<path d="M12.999,28.976c-0.147,0-0.298-0.033-0.44-0.103c-0.495-0.243-0.699-0.843-0.456-1.338l2-4.071
				c0.242-0.496,0.839-0.7,1.339-0.457c0.495,0.243,0.699,0.843,0.456,1.338l-2,4.071C13.724,28.771,13.368,28.976,12.999,28.976z"
				/>
		</g>
		<g>
			<path d="M1,47.495c-0.553,0-1-0.447-1-1c0-2.205,1.794-3.999,4-3.999c0.553,0,1,0.447,1,1s-0.447,1-1,1c-1.103,0-2,0.896-2,1.999
				C2,47.048,1.553,47.495,1,47.495z"/>
		</g>
		<g>
			<path d="M7,44.502H4c-0.553,0-1-0.447-1-1s0.447-1,1-1h3c0.553,0,1,0.447,1,1S7.553,44.502,7,44.502z"/>
		</g>
		<g>
			<path d="M1,51.5c-0.553,0-1-0.447-1-1v-4.005c0-0.553,0.447-1,1-1s1,0.447,1,1V50.5C2,51.053,1.553,51.5,1,51.5z"/>
		</g>
		<g>
			<path d="M19,47.495c-0.553,0-1-0.447-1-1c0-1.103-0.897-1.999-2-1.999c-0.553,0-1-0.447-1-1s0.447-1,1-1c2.206,0,4,1.794,4,3.999
				C20,47.048,19.553,47.495,19,47.495z"/>
		</g>
		<g>
			<path d="M16,44.502h-3c-0.553,0-1-0.447-1-1s0.447-1,1-1h3c0.553,0,1,0.447,1,1S16.553,44.502,16,44.502z"/>
		</g>
		<g>
			<path d="M19,51.5c-0.553,0-1-0.447-1-1v-4.005c0-0.553,0.447-1,1-1s1,0.447,1,1V50.5C20,51.053,19.553,51.5,19,51.5z"/>
		</g>
		<g>
			<path d="M19,51.5H1c-0.553,0-1-0.447-1-1s0.447-1,1-1h18c0.553,0,1,0.447,1,1S19.553,51.5,19,51.5z"/>
		</g>
		<g>
			<path d="M7,44.502c-0.553,0-1-0.447-1-1v-3.684c0-0.553,0.447-1,1-1s1,0.447,1,1v3.684C8,44.055,7.553,44.502,7,44.502z"/>
		</g>
		<g>
			<path d="M13,44.495c-0.553,0-1-0.447-1-1v-3.677c0-0.553,0.447-1,1-1s1,0.447,1,1v3.677C14,44.048,13.553,44.495,13,44.495z"/>
		</g>
		<g>
			<path d="M10,41.492c-4.411,0-8-3.588-8-7.997c0-0.553,0.447-1,1-1s1,0.447,1,1c0,3.307,2.691,5.997,6,5.997s6-2.69,6-5.997
				c0-0.553,0.447-1,1-1s1,0.447,1,1C18,37.904,14.411,41.492,10,41.492z"/>
		</g>
		<g>
			<path d="M8.001,45.495c-0.367,0-0.72-0.202-0.896-0.553c-0.247-0.494-0.047-1.095,0.447-1.342l2-1
				c0.494-0.246,1.094-0.047,1.342,0.447c0.247,0.494,0.047,1.095-0.447,1.342l-2,1C8.304,45.461,8.151,45.495,8.001,45.495z"/>
		</g>
		<g>
			<path d="M12,45.495c-0.256,0-0.512-0.098-0.707-0.293c-0.391-0.391-0.391-1.023,0-1.414l1-1c0.391-0.391,1.023-0.391,1.414,0
				s0.391,1.023,0,1.414l-1,1C12.512,45.397,12.256,45.495,12,45.495z"/>
		</g>
		<g>
			<path d="M8,45.495c-0.256,0-0.512-0.098-0.707-0.293l-1-1c-0.391-0.391-0.391-1.023,0-1.414s1.023-0.391,1.414,0l1,1
				c0.391,0.391,0.391,1.023,0,1.414C8.512,45.397,8.256,45.495,8,45.495z"/>
		</g>
		<g>
			<path d="M11.999,45.495c-0.15,0-0.303-0.034-0.446-0.105l-2-1c-0.494-0.247-0.694-0.848-0.447-1.342
				c0.248-0.494,0.849-0.693,1.342-0.447l2,1c0.494,0.247,0.694,0.848,0.447,1.342C12.719,45.293,12.366,45.495,11.999,45.495z"/>
		</g>
		<g>
			<path d="M47,34.5c-0.553,0-1-0.447-1-1v-8.005c0-0.553,0.447-1,1-1s1,0.447,1,1V33.5C48,34.053,47.553,34.5,47,34.5z"/>
		</g>
		<g>
			<path d="M61,34.5c-0.553,0-1-0.447-1-1v-0.294c0-0.553,0.447-1,1-1s1,0.447,1,1V33.5C62,34.053,61.553,34.5,61,34.5z"/>
		</g>
		<g>
			<path d="M45,47.495c-0.553,0-1-0.447-1-1c0-2.205,1.794-3.999,4-3.999c0.553,0,1,0.447,1,1s-0.447,1-1,1
				c-1.103,0-2,0.896-2,1.999C46,47.048,45.553,47.495,45,47.495z"/>
		</g>
		<g>
			<path d="M51,44.502h-3c-0.553,0-1-0.447-1-1s0.447-1,1-1h3c0.553,0,1,0.447,1,1S51.553,44.502,51,44.502z"/>
		</g>
		<g>
			<path d="M45,51.5c-0.553,0-1-0.447-1-1v-4.005c0-0.553,0.447-1,1-1s1,0.447,1,1V50.5C46,51.053,45.553,51.5,45,51.5z"/>
		</g>
		<g>
			<path d="M63,47.495c-0.553,0-1-0.447-1-1c0-1.103-0.897-1.999-2-1.999c-0.553,0-1-0.447-1-1s0.447-1,1-1c2.206,0,4,1.794,4,3.999
				C64,47.048,63.553,47.495,63,47.495z"/>
		</g>
		<g>
			<path d="M60,44.502h-3c-0.553,0-1-0.447-1-1s0.447-1,1-1h3c0.553,0,1,0.447,1,1S60.553,44.502,60,44.502z"/>
		</g>
		<g>
			<path d="M63,51.5c-0.553,0-1-0.447-1-1v-4.005c0-0.553,0.447-1,1-1s1,0.447,1,1V50.5C64,51.053,63.553,51.5,63,51.5z"/>
		</g>
		<g>
			<path d="M63,51.5H45c-0.553,0-1-0.447-1-1s0.447-1,1-1h18c0.553,0,1,0.447,1,1S63.553,51.5,63,51.5z"/>
		</g>
		<g>
			<path d="M51,44.502c-0.553,0-1-0.447-1-1v-3.684c0-0.553,0.447-1,1-1s1,0.447,1,1v3.684C52,44.055,51.553,44.502,51,44.502z"/>
		</g>
		<g>
			<path d="M57,44.495c-0.553,0-1-0.447-1-1v-3.677c0-0.553,0.447-1,1-1s1,0.447,1,1v3.677C58,44.048,57.553,44.495,57,44.495z"/>
		</g>
		<g>
			<path d="M54,41.492c-4.411,0-8-3.588-8-7.997c0-0.553,0.447-1,1-1s1,0.447,1,1c0,3.307,2.691,5.997,6,5.997s6-2.69,6-5.997
				c0-0.553,0.447-1,1-1s1,0.447,1,1C62,37.904,58.411,41.492,54,41.492z"/>
		</g>
		<g>
			<path d="M53.999,46.495c-0.19,0-0.383-0.055-0.554-0.168l-3-2c-0.46-0.307-0.584-0.927-0.277-1.387
				c0.306-0.46,0.925-0.584,1.387-0.277l3,2c0.46,0.307,0.584,0.927,0.277,1.387C54.64,46.339,54.322,46.495,53.999,46.495z"/>
		</g>
		<g>
			<path d="M54.001,46.495c-0.323,0-0.641-0.156-0.833-0.445c-0.307-0.46-0.183-1.08,0.277-1.387l3-2
				c0.461-0.307,1.081-0.183,1.387,0.277c0.307,0.46,0.183,1.08-0.277,1.387l-3,2C54.384,46.44,54.191,46.495,54.001,46.495z"/>
		</g>
		<g>
			<path d="M20,58.5c-0.553,0-1-0.447-1-1c0-3.309,2.691-6,6-6c0.553,0,1,0.447,1,1s-0.447,1-1,1c-2.206,0-4,1.794-4,4
				C21,58.053,20.553,58.5,20,58.5z"/>
		</g>
		<g>
			<path d="M28,53.5h-3c-0.553,0-1-0.447-1-1s0.447-1,1-1h3c0.553,0,1,0.447,1,1S28.553,53.5,28,53.5z"/>
		</g>
		<g>
			<path d="M20,62.5c-0.553,0-1-0.447-1-1v-4c0-0.553,0.447-1,1-1s1,0.447,1,1v4C21,62.053,20.553,62.5,20,62.5z"/>
		</g>
		<g>
			<path d="M21,63.5c-1.103,0-2-0.897-2-2c0-0.531,0.418-0.914,0.948-0.943c0.568-0.032,0.992,0.416,1.052,0.942
				c0.552,0,1,0.448,1,1C22,63.052,21.553,63.5,21,63.5z"/>
		</g>
		<g>
			<path d="M44,58.5c-0.553,0-1-0.447-1-1c0-2.206-1.794-4-4-4c-0.553,0-1-0.447-1-1s0.447-1,1-1c3.309,0,6,2.691,6,6
				C45,58.053,44.553,58.5,44,58.5z"/>
		</g>
		<g>
			<path d="M39,53.5h-3c-0.553,0-1-0.447-1-1s0.447-1,1-1h3c0.553,0,1,0.447,1,1S39.553,53.5,39,53.5z"/>
		</g>
		<g>
			<path d="M44,62.5c-0.553,0-1-0.447-1-1v-4c0-0.553,0.447-1,1-1s1,0.447,1,1v4C45,62.053,44.553,62.5,44,62.5z"/>
		</g>
		<g>
			<path d="M43,63.5c-0.553,0-1-0.447-1-1s0.447-1,1-1c0-0.553,0.447-1,1-1s1,0.447,1,1C45,62.603,44.103,63.5,43,63.5z"/>
		</g>
		<g>
			<path d="M43,63.5H21c-0.553,0-1-0.447-1-1s0.447-1,1-1h22c0.553,0,1,0.447,1,1S43.553,63.5,43,63.5z"/>
		</g>
		<g>
			<path d="M28,53.5c-0.553,0-1-0.447-1-1v-3.936c0-0.553,0.447-1,1-1s1,0.447,1,1V52.5C29,53.053,28.553,53.5,28,53.5z"/>
		</g>
		<g>
			<path d="M36,53.5c-0.553,0-1-0.447-1-1v-3.936c0-0.553,0.447-1,1-1s1,0.447,1,1V52.5C37,53.053,36.553,53.5,36,53.5z"/>
		</g>
		<g>
			<path d="M31.999,50.5C26.485,50.5,22,46.015,22,40.502c0-0.553,0.447-1,1-1s1,0.447,1,1c0,4.41,3.588,7.998,7.999,7.998
				c4.412,0,8.001-3.588,8.001-7.998c0-0.553,0.447-1,1-1s1,0.447,1,1C42,46.015,37.514,50.5,31.999,50.5z"/>
		</g>
		<g>
			<path d="M41,37.498c-0.553,0-1-0.447-1-1c0-3.01-1.664-5.736-4.342-7.116c-0.491-0.253-0.684-0.855-0.431-1.347
				c0.252-0.492,0.856-0.686,1.347-0.431C39.921,29.328,42,32.735,42,36.498C42,37.051,41.553,37.498,41,37.498z"/>
		</g>
		<g>
			<path d="M23,37.498c-0.553,0-1-0.447-1-1c0-3.757,2.075-7.162,5.415-8.888c0.489-0.252,1.094-0.061,1.348,0.43
				c0.253,0.491,0.061,1.094-0.43,1.348C25.66,30.768,24,33.492,24,36.498C24,37.051,23.553,37.498,23,37.498z"/>
		</g>
		<g>
			<path d="M23,41.551c-0.553,0-1-0.447-1-1v-4.053c0-0.553,0.447-1,1-1s1,0.447,1,1v4.053C24,41.104,23.553,41.551,23,41.551z"/>
		</g>
		<g>
			<path d="M41,41.502c-0.553,0-1-0.447-1-1v-4.004c0-0.553,0.447-1,1-1s1,0.447,1,1v4.004C42,41.055,41.553,41.502,41,41.502z"/>
		</g>
		<g>
			<g>
				<path d="M40.999,37.525c-0.192,0-0.387-0.056-0.559-0.171l-3-2.025c-0.458-0.31-0.578-0.931-0.27-1.389
					c0.31-0.457,0.929-0.577,1.389-0.27l3,2.025c0.458,0.31,0.578,0.931,0.27,1.389C41.636,37.371,41.32,37.525,40.999,37.525z"/>
			</g>
			<g>
				<path d="M32.5,36.5c-3.612,0-6.687-1.008-6.815-1.051c-0.523-0.175-0.807-0.74-0.634-1.264c0.174-0.523,0.739-0.809,1.264-0.635
					c0.029,0.01,2.908,0.949,6.186,0.949c3.178,0,5.04-0.888,5.059-0.897c0.493-0.239,1.094-0.037,1.337,0.457
					s0.043,1.09-0.449,1.336C38.355,35.44,36.186,36.5,32.5,36.5z"/>
			</g>
			<g>
				<path d="M23.001,37.525c-0.321,0-0.637-0.154-0.83-0.44c-0.309-0.458-0.188-1.079,0.27-1.389l3-2.025
					c0.459-0.308,1.079-0.188,1.389,0.27c0.309,0.458,0.188,1.079-0.27,1.389l-3,2.025C23.388,37.47,23.193,37.525,23.001,37.525z"
					/>
			</g>
		</g>
		<g>
			<path d="M30,55.5c-0.256,0-0.512-0.098-0.707-0.293l-2-2c-0.391-0.391-0.391-1.023,0-1.414s1.023-0.391,1.414,0l2,2
				c0.391,0.391,0.391,1.023,0,1.414C30.512,55.402,30.256,55.5,30,55.5z"/>
		</g>
		<g>
			<path d="M30.001,55.5c-0.367,0-0.72-0.202-0.896-0.553c-0.247-0.494-0.047-1.095,0.447-1.342l2-1
				c0.494-0.245,1.094-0.047,1.342,0.447c0.247,0.494,0.047,1.095-0.447,1.342l-2,1C30.304,55.466,30.151,55.5,30.001,55.5z"/>
		</g>
		<g>
			<path d="M34,55.5c-0.256,0-0.512-0.098-0.707-0.293c-0.391-0.391-0.391-1.023,0-1.414l2-2c0.391-0.391,1.023-0.391,1.414,0
				s0.391,1.023,0,1.414l-2,2C34.512,55.402,34.256,55.5,34,55.5z"/>
		</g>
		<g>
			<path d="M33.999,55.5c-0.15,0-0.303-0.034-0.446-0.105l-2-1c-0.494-0.247-0.694-0.848-0.447-1.342
				c0.248-0.494,0.848-0.692,1.342-0.447l2,1c0.494,0.247,0.694,0.848,0.447,1.342C34.719,55.298,34.366,55.5,33.999,55.5z"/>
		</g>
		<g>
			<path d="M63,29.495c-0.553,0-1-0.447-1-1c0-3.859-3.141-7-7-7c-1.78,0-3.361,0.968-4.374,1.78
				c-0.431,0.346-1.062,0.276-1.406-0.154c-0.346-0.432-0.276-1.061,0.154-1.406c1.812-1.452,3.757-2.22,5.626-2.22
				c4.963,0,9,4.037,9,9C64,29.048,63.553,29.495,63,29.495z"/>
		</g>
		<g>
			<path d="M63,39.495c-0.553,0-1-0.447-1-1c0-3.859-3.141-7-7-7c-0.553,0-1-0.447-1-1s0.447-1,1-1c4.963,0,9,4.037,9,9
				C64,39.048,63.553,39.495,63,39.495z"/>
		</g>
		<g>
			<path d="M47,31.495c-0.553,0-1-0.447-1-1s0.447-1,1-1c1.103,0,2-0.897,2-2c0-0.553,0.447-1,1-1s1,0.447,1,1
				C51,29.701,49.206,31.495,47,31.495z"/>
		</g>
		<g>
			<path d="M47,26.495c-0.553,0-1-0.447-1-1c0-2.206,1.794-4,4-4c0.553,0,1,0.447,1,1s-0.447,1-1,1c-1.103,0-2,0.897-2,2
				C48,26.048,47.553,26.495,47,26.495z"/>
		</g>
		<g>
			<path d="M53,31.495c-2.206,0-4-1.794-4-4c0-0.553,0.447-1,1-1s1,0.447,1,1c0,1.103,0.897,2,2,2c0.553,0,1,0.447,1,1
				S53.553,31.495,53,31.495z"/>
		</g>
		<g>
			<path d="M50,28.495c-0.553,0-1-0.447-1-1v-5c0-0.553,0.447-1,1-1s1,0.447,1,1v5C51,28.048,50.553,28.495,50,28.495z"/>
		</g>
		<g>
			<path d="M63,39.495c-0.553,0-1-0.447-1-1v-10c0-0.553,0.447-1,1-1s1,0.447,1,1v10C64,39.048,63.553,39.495,63,39.495z"/>
		</g>
		<g>
			<path d="M55,31.495h-2c-0.553,0-1-0.447-1-1s0.447-1,1-1h2c0.553,0,1,0.447,1,1S55.553,31.495,55,31.495z"/>
		</g>
		<g>
			<path d="M37,29.5H27c-0.553,0-1-0.447-1-1s0.447-1,1-1h10c0.553,0,1,0.447,1,1S37.553,29.5,37,29.5z"/>
		</g>
		<g>
			<path d="M27,29.5c-0.111,0-0.225-0.019-0.336-0.059c-0.521-0.186-0.792-0.758-0.605-1.277l5-14.005
				c0.185-0.521,0.753-0.796,1.277-0.605c0.521,0.186,0.792,0.758,0.605,1.277l-5,14.005C27.796,29.245,27.411,29.5,27,29.5z"/>
		</g>
		<g>
			<path d="M37,29.5c-0.411,0-0.796-0.255-0.941-0.664l-5-14.005c-0.187-0.52,0.085-1.092,0.605-1.277
				c0.518-0.189,1.092,0.085,1.277,0.605l5,14.005c0.187,0.52-0.085,1.092-0.605,1.277C37.226,29.481,37.111,29.5,37,29.5z"/>
		</g>
		<g>
			<path d="M35.57,25.495H28.43c-0.553,0-1-0.447-1-1s0.447-1,1-1h7.141c0.553,0,1,0.447,1,1S36.123,25.495,35.57,25.495z"/>
		</g>
		<g>
			<path d="M34.144,21.5L34.144,21.5l-4.287-0.005c-0.553-0.001-1-0.449-0.999-1.001s0.448-0.999,1-0.999h0.001l4.286,0.005
				c0.553,0.001,1,0.449,0.999,1.001S34.695,21.5,34.144,21.5z"/>
		</g>
		<g>
			<g>
				<path d="M16,12.5c-0.256,0-0.512-0.098-0.707-0.293c-0.391-0.391-0.391-1.023,0-1.414l2-2c0.391-0.391,1.023-0.391,1.414,0
					s0.391,1.023,0,1.414l-2,2C16.512,12.402,16.256,12.5,16,12.5z"/>
			</g>
			<g>
				<path d="M18,14.5c-0.256,0-0.512-0.098-0.707-0.293l-2-2c-0.391-0.391-0.391-1.023,0-1.414s1.023-0.391,1.414,0l2,2
					c0.391,0.391,0.391,1.023,0,1.414C18.512,14.402,18.256,14.5,18,14.5z"/>
			</g>
			<g>
				<path d="M16,16.5c-0.256,0-0.512-0.098-0.707-0.293c-0.391-0.391-0.391-1.023,0-1.414l2-2c0.391-0.391,1.023-0.391,1.414,0
					s0.391,1.023,0,1.414l-2,2C16.512,16.402,16.256,16.5,16,16.5z"/>
			</g>
			<g>
				<path d="M18,18.5c-0.256,0-0.512-0.098-0.707-0.293l-2-2c-0.391-0.391-0.391-1.023,0-1.414s1.023-0.391,1.414,0l2,2
					c0.391,0.391,0.391,1.023,0,1.414C18.512,18.402,18.256,18.5,18,18.5z"/>
			</g>
			<g>
				<path d="M41.001,14.5c-0.256,0-0.512-0.098-0.707-0.293c-0.391-0.391-0.391-1.023,0-1.414l2-2c0.391-0.391,1.023-0.391,1.414,0
					s0.391,1.023,0,1.414l-2,2C41.513,14.402,41.257,14.5,41.001,14.5z"/>
			</g>
			<g>
				<path d="M43.001,12.5c-0.256,0-0.512-0.098-0.707-0.293l-2-2c-0.391-0.391-0.391-1.023,0-1.414s1.023-0.391,1.414,0l2,2
					c0.391,0.391,0.391,1.023,0,1.414C43.513,12.402,43.257,12.5,43.001,12.5z"/>
			</g>
			<g>
				<path d="M41.001,18.5c-0.256,0-0.512-0.098-0.707-0.293c-0.391-0.391-0.391-1.023,0-1.414l2-2c0.391-0.391,1.023-0.391,1.414,0
					s0.391,1.023,0,1.414l-2,2C41.513,18.402,41.257,18.5,41.001,18.5z"/>
			</g>
			<g>
				<path d="M43.001,16.5c-0.256,0-0.512-0.098-0.707-0.293l-2-2c-0.391-0.391-0.391-1.023,0-1.414s1.023-0.391,1.414,0l2,2
					c0.391,0.391,0.391,1.023,0,1.414C43.513,16.402,43.257,16.5,43.001,16.5z"/>
			</g>
			<g>
				<path d="M41.001,10.5c-0.256,0-0.512-0.098-0.707-0.293c-0.391-0.391-0.391-1.023,0-1.414l2-2c0.391-0.391,1.023-0.391,1.414,0
					s0.391,1.023,0,1.414l-2,2C41.513,10.402,41.257,10.5,41.001,10.5z"/>
			</g>
			<g>
				<path d="M43.001,8.5c-0.256,0-0.512-0.098-0.707-0.293l-2-2c-0.391-0.391-0.391-1.023,0-1.414s1.023-0.391,1.414,0l2,2
					c0.391,0.391,0.391,1.023,0,1.414C43.513,8.402,43.257,8.5,43.001,8.5z"/>
			</g>
			<g>
				<path d="M3.03,15.5c-0.553,0-1.005-0.447-1.005-1s0.442-1,0.994-1H3.03c0.552,0,1,0.447,1,1S3.582,15.5,3.03,15.5z"/>
			</g>
			<g>
				<path d="M9.03,4.5c-0.553,0-1.005-0.447-1.005-1s0.442-1,0.994-1H9.03c0.552,0,1,0.447,1,1S9.582,4.5,9.03,4.5z"/>
			</g>
			<g>
				<path d="M61.03,4.5c-0.553,0-1.005-0.447-1.005-1s0.442-1,0.994-1h0.011c0.552,0,1,0.447,1,1S61.582,4.5,61.03,4.5z"/>
			</g>
			<g>
				<path d="M27,6.5c-0.553,0-1-0.447-1-1v-4c0-0.553,0.447-1,1-1s1,0.447,1,1v4C28,6.053,27.553,6.5,27,6.5z"/>
			</g>
			<g>
				<path d="M28,4.5h-2c-0.553,0-1-0.447-1-1s0.447-1,1-1h2c0.553,0,1,0.447,1,1S28.553,4.5,28,4.5z"/>
			</g>
			<g>
				<path d="M54,13.5c-0.553,0-1-0.447-1-1v-4c0-0.553,0.447-1,1-1s1,0.447,1,1v4C55,13.053,54.553,13.5,54,13.5z"/>
			</g>
			<g>
				<path d="M55,11.5h-2c-0.553,0-1-0.447-1-1s0.447-1,1-1h2c0.553,0,1,0.447,1,1S55.553,11.5,55,11.5z"/>
			</g>
		</g>
	</g>
</g>
<g id="_x31_1_dialog_x2C__discussion_x2C__work_x2C__business_x2C__office_x2C__corporation_x2C__job">
</g>
<g id="_x31_0_listening_x2C__skill_x2C__dialog_x2C__business_x2C__office_x2C__corporation_x2C__job">
</g>
<g id="_x39__training_x2C__book_x2C__lesson_x2C__business_x2C__office_x2C__corporation_x2C__job">
</g>
<g id="_x38__dress_x2C__code_x2C__shirt_x2C__business_x2C__office_x2C__corporation_x2C__job">
</g>
<g id="_x37__task_x2C__program_x2C__ticket_x2C__business_x2C__office_x2C__corporation_x2C__job">
</g>
<g id="_x36__plan_x2C__graph_x2C__stage_x2C__business_x2C__office_x2C__corporation_x2C__job">
</g>
<g id="_x35__boss_x2C__king_x2C__crown_x2C__business_x2C__office_x2C__corporation_x2C__job">
</g>
<g id="_x34__structure_x2C__structuring_x2C__business_x2C__office_x2C__corporation_x2C__job">
</g>
<g id="_x33__soft_x2C__skills_x2C__communication_x2C__business_x2C__office_x2C__corporation_x2C__job">
</g>
<g id="_x32__office_x2C__house_x2C__portfolio_x2C__business_x2C__corporation_x2C__job">
</g>
<g id="_x31__corporate_x2C__rules_x2C__book_x2C__business_x2C__office_x2C__corporation_x2C__job">
</g>
</svg>
