<?xml version="1.0" encoding="utf-8"?>
<!-- Generator: Adobe Illustrator 16.0.0, SVG Export Plug-In . SVG Version: 6.00 Build 0)  -->
<!DOCTYPE svg PUBLIC "-//W3C//DTD SVG 1.1//EN" "http://www.w3.org/Graphics/SVG/1.1/DTD/svg11.dtd">
<svg version="1.1" xmlns="http://www.w3.org/2000/svg" xmlns:xlink="http://www.w3.org/1999/xlink" x="0px" y="0px" width="64px"
	 height="64px" viewBox="0 0 64 64" enable-background="new 0 0 64 64" xml:space="preserve">
<g id="_x35_0_document_x2C__optimization_x2C__documentation_x2C__business_x2C__office_x2C__corporation_x2C__job">
</g>
<g id="_x34_9_human_x2C__resource_x2C__conveyor_x2C__business_x2C__office_x2C__corporation_x2C__job">
</g>
<g id="_x34_8_knowledge_x2C__training_x2C__growth_x2C__book_x2C__business_x2C__office_x2C__corporation">
</g>
<g id="_x34_7_skill_x2C__competence_x2C__experience_x2C__business_x2C__office_x2C__corporation_x2C__job">
</g>
<g id="_x34_6_target_x2C__success_x2C__victory_x2C__business_x2C__office_x2C__corporation_x2C__job">
</g>
<g id="_x34_5_inbox_x2C__letter_x2C__email_x2C__business_x2C__office_x2C__corporation_x2C__job">
</g>
<g id="_x34_4_document_x2C__workflow_x2C__sharing_x2C__business_x2C__office_x2C__corporation_x2C__job">
</g>
<g id="_x34_3_budget_x2C__allocation_x2C__money_x2C__business_x2C__office_x2C__corporation_x2C__job">
</g>
<g id="_x34_2_case_x2C__task_x2C__project_x2C__business_x2C__office_x2C__corporation_x2C__job">
</g>
<g id="_x34_1_structure_x2C__structuring_x2C__tasks_x2C__business_x2C__office_x2C__corporation_x2C__job">
</g>
<g id="_x34_0_choice_x2C__dilemma_x2C__question_x2C__business_x2C__office_x2C__corporation_x2C__job">
</g>
<g id="_x33_9_workplace_x2C__table_x2C__laptop_x2C__business_x2C__office_x2C__corporation_x2C__job">
</g>
<g id="_x33_8_bribe_x2C__bag_x2C__money_x2C__business_x2C__office_x2C__corporation_x2C__job">
</g>
<g id="_x33_7_corruption_x2C__forage_x2C__money_x2C__business_x2C__office_x2C__corporation_x2C__job">
</g>
<g id="_x33_6_career_x2C__ladder_x2C__success_x2C__business_x2C__office_x2C__corporation_x2C__job">
</g>
<g id="_x33_5_review_x2C__feedback_x2C__rating_x2C__business_x2C__office_x2C__corporation_x2C__job">
</g>
<g id="_x33_4_manipulation_x2C__thread_x2C__puppet_x2C__business_x2C__office_x2C__corporation_x2C__job">
</g>
<g id="_x33_3_location_x2C__map_x2C__pin_x2C__business_x2C__office_x2C__corporation_x2C__job">
</g>
<g id="_x33_2_retirement_x2C__old_x2C__man_x2C__door_x2C__business_x2C__office_x2C__corporation">
</g>
<g id="_x33_1_victory_x2C__success_x2C__medal_x2C__reward_x2C__business_x2C__office_x2C__corporation">
</g>
<g id="_x33_0_dismissal_x2C__box_x2C__door_x2C__business_x2C__office_x2C__corporation_x2C__job">
</g>
<g id="_x32_9_meeting_x2C__discussion_x2C__question_x2C__business_x2C__office_x2C__corporation_x2C__job">
</g>
<g id="_x32_8_strategy_x2C__vision_x2C__eye_x2C__chess_x2C__business_x2C__office_x2C__corporation">
</g>
<g id="_x32_7_board_x2C__task_x2C__process_x2C__business_x2C__office_x2C__corporation_x2C__job">
</g>
<g id="_x32_6_scheme_x2C__board_x2C__structure_x2C__business_x2C__office_x2C__corporation_x2C__job">
</g>
<g id="_x32_5_conflict_x2C__dialog_x2C__discussion_x2C__business_x2C__office_x2C__corporation_x2C__job">
</g>
<g id="_x32_4_documentation_x2C__document_x2C__repository_x2C__business_x2C__office_x2C__corporation_x2C__job">
</g>
<g id="_x32_3_sprint_x2C__programming_x2C__code_x2C__business_x2C__office_x2C__corporation_x2C__job">
</g>
<g id="_x32_2_cram_x2C__tablet_x2C__work_x2C__business_x2C__office_x2C__corporation_x2C__job">
</g>
<g id="_x32_1_leader_x2C__discoverer_x2C__flag_x2C__business_x2C__office_x2C__corporation_x2C__job">
</g>
<g id="_x32_0_rally_x2C__collective_x2C__arm_x2C__business_x2C__office_x2C__corporation_x2C__job">
</g>
<g id="_x31_9_consolidation_x2C__portfolio_x2C__puzzle_x2C__business_x2C__office_x2C__corporation_x2C__job">
</g>
<g id="_x31_8_idea_x2C__creative_x2C__work_x2C__business_x2C__office_x2C__corporation_x2C__job">
</g>
<g id="_x31_7_problem_x2C__stress_x2C__resistance_x2C__business_x2C__office_x2C__corporation_x2C__job">
</g>
<g id="_x31_6_hard_x2C__skills_x2C__skill_x2C__portfolio_x2C__book_x2C__business_x2C__office">
</g>
<g id="_x31_5_time_x2C__management_x2C__clock_x2C__deadline_x2C__business_x2C__office_x2C__corporation">
</g>
<g id="_x31_4_multitasking_x2C__task_x2C__work_x2C__business_x2C__office_x2C__corporation_x2C__job">
</g>
<g id="_x31_3_tranquility_x2C__yoga_x2C__lotus_x2C__posture_x2C__business_x2C__office_x2C__corporation">
	<g>
		<g>
			<g>
				<path d="M40.999,11c-0.192,0-0.387-0.056-0.559-0.171l-3-2.025c-0.458-0.31-0.578-0.931-0.27-1.389
					c0.309-0.457,0.93-0.577,1.389-0.27l3,2.025c0.458,0.31,0.578,0.931,0.27,1.389C41.636,10.846,41.32,11,40.999,11z"/>
			</g>
			<g>
				<path d="M32.5,9.975c-3.612,0-6.687-1.008-6.815-1.051c-0.523-0.175-0.807-0.74-0.634-1.264
					c0.174-0.523,0.739-0.808,1.264-0.635c0.029,0.01,2.908,0.949,6.186,0.949c3.178,0,5.04-0.888,5.059-0.897
					c0.494-0.239,1.094-0.038,1.337,0.457c0.243,0.494,0.043,1.09-0.449,1.336C38.355,8.915,36.186,9.975,32.5,9.975z"/>
			</g>
			<g>
				<path d="M23.001,11c-0.321,0-0.637-0.154-0.83-0.44c-0.309-0.458-0.188-1.079,0.27-1.389l3-2.025
					c0.459-0.308,1.079-0.188,1.389,0.27c0.309,0.458,0.188,1.079-0.27,1.389l-3,2.025C23.388,10.944,23.193,11,23.001,11z"/>
			</g>
		</g>
		<g>
			<path d="M32.03,33c-0.553,0-1.005-0.447-1.005-1s0.442-1,0.994-1h0.011c0.552,0,1,0.447,1,1S32.582,33,32.03,33z"/>
		</g>
		<g>
			<path d="M32.03,38c-0.553,0-1.005-0.447-1.005-1s0.442-1,0.994-1h0.011c0.552,0,1,0.447,1,1S32.582,38,32.03,38z"/>
		</g>
		<g>
			<path d="M32.03,43c-0.553,0-1.005-0.447-1.005-1s0.442-1,0.994-1h0.011c0.552,0,1,0.447,1,1S32.582,43,32.03,43z"/>
		</g>
		<g>
			<path d="M32.03,48c-0.553,0-1.005-0.447-1.005-1s0.442-1,0.994-1h0.011c0.552,0,1,0.447,1,1S32.582,48,32.03,48z"/>
		</g>
		<g>
			<g>
				<path d="M41,11c-0.553,0-1-0.447-1-1c0-4.411-3.589-8-8-8s-8,3.589-8,8c0,0.553-0.447,1-1,1s-1-0.447-1-1
					c0-5.514,4.486-10,10-10s10,4.486,10,10C42,10.553,41.553,11,41,11z"/>
			</g>
			<g>
				<path d="M32,25c-5.514,0-10-4.486-10-10c0-0.553,0.447-1,1-1s1,0.447,1,1c0,4.411,3.589,8,8,8s8-3.589,8-8c0-0.553,0.447-1,1-1
					s1,0.447,1,1C42,20.514,37.514,25,32,25z"/>
			</g>
			<g>
				<path d="M23,16c-0.553,0-1-0.447-1-1v-5c0-0.553,0.447-1,1-1s1,0.447,1,1v5C24,15.553,23.553,16,23,16z"/>
			</g>
			<g>
				<path d="M41,16c-0.553,0-1-0.447-1-1v-5c0-0.553,0.447-1,1-1s1,0.447,1,1v5C42,15.553,41.553,16,41,16z"/>
			</g>
		</g>
		<g>
			<path d="M47.999,60c-0.553,0-1-0.447-1-1s0.447-1,1-1C49.653,58,51,56.653,51,54.999s-1.347-3.001-3.001-3.001
				c-0.553,0-1-0.447-1-1s0.447-1,1-1c2.758,0,5.001,2.243,5.001,5.001S50.757,60,47.999,60z"/>
		</g>
		<g>
			<path d="M32,60c-2.757,0-5-2.243-5-5s2.243-5,5-5c0.553,0,1,0.447,1,1s-0.447,1-1,1c-1.654,0-3,1.346-3,3s1.346,3,3,3
				c0.553,0,1,0.447,1,1S32.553,60,32,60z"/>
		</g>
		<g>
			<path d="M17,60c-2.757,0-5-2.243-5-5s2.243-5,5-5c0.553,0,1,0.447,1,1s-0.447,1-1,1c-1.654,0-3,1.346-3,3s1.346,3,3,3
				c0.553,0,1,0.447,1,1S17.553,60,17,60z"/>
		</g>
		<g>
			<g>
				<path d="M11,45c-0.553,0-1-0.447-1-1s0.447-1,1-1c3.309,0,6-2.691,6-6c0-0.553,0.447-1,1-1s1,0.447,1,1
					C19,41.411,15.411,45,11,45z"/>
			</g>
			<g>
				<path d="M18,36c-0.553,0-1-0.447-1-1c0-5.514,4.486-9.999,10-9.999c0.553,0,1,0.447,1,1s-0.447,1-1,1c-4.411,0-8,3.588-8,7.999
					C19,35.553,18.553,36,18,36z"/>
			</g>
			<g>
				<path d="M11,50c-0.553,0-1-0.447-1-1s0.447-1,1-1c6.065,0,11-4.935,11-11c0-0.553,0.447-1,1-1s1,0.447,1,1
					C24,44.168,18.168,50,11,50z"/>
			</g>
			<g>
				<path d="M10.5,50C8.57,50,7,48.43,7,46.5S8.57,43,10.5,43c0.553,0,1,0.447,1,1s-0.447,1-1,1C9.673,45,9,45.673,9,46.5
					S9.673,48,10.5,48c0.553,0,1,0.447,1,1S11.053,50,10.5,50z"/>
			</g>
			<g>
				<path d="M18,38c-0.553,0-1-0.447-1-1v-2c0-0.553,0.447-1,1-1s1,0.447,1,1v2C19,37.553,18.553,38,18,38z"/>
			</g>
			<g>
				<path d="M28,27.001h-1c-0.553,0-1-0.447-1-1s0.447-1,1-1h1c0.553,0,1,0.447,1,1S28.553,27.001,28,27.001z"/>
			</g>
			<g>
				<path d="M23,51c-0.553,0-1-0.447-1-1V37c0-0.553,0.447-1,1-1s1,0.447,1,1v13C24,50.553,23.553,51,23,51z"/>
			</g>
			<g>
				<path d="M11,50h-0.5c-0.553,0-1-0.447-1-1s0.447-1,1-1H11c0.553,0,1,0.447,1,1S11.553,50,11,50z"/>
			</g>
			<g>
				<path d="M11,45h-0.5c-0.553,0-1-0.447-1-1s0.447-1,1-1H11c0.553,0,1,0.447,1,1S11.553,45,11,45z"/>
			</g>
		</g>
		<g>
			<g>
				<path d="M53,45c-4.411,0-8-3.589-8-8c0-0.553,0.447-1,1-1s1,0.447,1,1c0,3.309,2.691,6,6,6c0.553,0,1,0.447,1,1S53.553,45,53,45
					z"/>
			</g>
			<g>
				<path d="M46,36c-0.553,0-1-0.447-1-1c0-4.411-3.589-7.999-8-7.999c-0.553,0-1-0.447-1-1s0.447-1,1-1c5.514,0,10,4.485,10,9.999
					C47,35.553,46.553,36,46,36z"/>
			</g>
			<g>
				<path d="M53,50c-7.168,0-13-5.832-13-13c0-0.553,0.447-1,1-1s1,0.447,1,1c0,6.065,4.935,11,11,11c0.553,0,1,0.447,1,1
					S53.553,50,53,50z"/>
			</g>
			<g>
				<path d="M53.5,50c-0.553,0-1-0.447-1-1s0.447-1,1-1c0.827,0,1.5-0.673,1.5-1.5S54.327,45,53.5,45c-0.553,0-1-0.447-1-1
					s0.447-1,1-1c1.93,0,3.5,1.57,3.5,3.5S55.43,50,53.5,50z"/>
			</g>
			<g>
				<path d="M46,38c-0.553,0-1-0.447-1-1v-2c0-0.553,0.447-1,1-1s1,0.447,1,1v2C47,37.553,46.553,38,46,38z"/>
			</g>
			<g>
				<path d="M37,27.001h-1c-0.553,0-1-0.447-1-1s0.447-1,1-1h1c0.553,0,1,0.447,1,1S37.553,27.001,37,27.001z"/>
			</g>
			<g>
				<path d="M41,51c-0.553,0-1-0.447-1-1V37c0-0.553,0.447-1,1-1s1,0.447,1,1v13C42,50.553,41.553,51,41,51z"/>
			</g>
			<g>
				<path d="M53.5,50H53c-0.553,0-1-0.447-1-1s0.447-1,1-1h0.5c0.553,0,1,0.447,1,1S54.053,50,53.5,50z"/>
			</g>
			<g>
				<path d="M53.5,45H53c-0.553,0-1-0.447-1-1s0.447-1,1-1h0.5c0.553,0,1,0.447,1,1S54.053,45,53.5,45z"/>
			</g>
		</g>
		<g>
			<path d="M34,29c-0.256,0-0.512-0.098-0.707-0.293c-0.391-0.391-0.391-1.023,0-1.414l2-2c0.391-0.391,1.023-0.391,1.414,0
				s0.391,1.023,0,1.414l-2,2C34.512,28.902,34.256,29,34,29z"/>
		</g>
		<g>
			<path d="M33.999,29c-0.15,0-0.303-0.034-0.446-0.105l-2-1c-0.494-0.247-0.694-0.848-0.447-1.342
				c0.248-0.494,0.847-0.693,1.342-0.447l2,1c0.494,0.247,0.694,0.848,0.447,1.342C34.719,28.798,34.366,29,33.999,29z"/>
		</g>
		<g>
			<path d="M30.001,29c-0.367,0-0.72-0.202-0.896-0.553c-0.247-0.494-0.047-1.095,0.447-1.342l2-1
				c0.494-0.246,1.094-0.047,1.342,0.447c0.247,0.494,0.047,1.095-0.447,1.342l-2,1C30.304,28.966,30.151,29,30.001,29z"/>
		</g>
		<g>
			<path d="M30,29c-0.256,0-0.512-0.098-0.707-0.293l-2-2c-0.391-0.391-0.391-1.023,0-1.414s1.023-0.391,1.414,0l2,2
				c0.391,0.391,0.391,1.023,0,1.414C30.512,28.902,30.256,29,30,29z"/>
		</g>
		<g>
			<path d="M28,27c-0.553,0-1-0.447-1-1v-2.937c0-0.553,0.447-1,1-1s1,0.447,1,1V26C29,26.553,28.553,27,28,27z"/>
		</g>
		<g>
			<path d="M36,27c-0.553,0-1-0.447-1-1v-2.937c0-0.553,0.447-1,1-1s1,0.447,1,1V26C37,26.553,36.553,27,36,27z"/>
		</g>
		<g>
			<path d="M17,52c-0.552,0-1-0.447-1-1c0-0.552,0.447-1,1-1l30.999-0.002c0.552,0,1,0.447,1,1c0,0.552-0.447,1-1,1L17,52z"/>
		</g>
		<g>
			<path d="M47.999,60H17c-0.553,0-1-0.447-1-1s0.447-1,1-1h30.999c0.553,0,1,0.447,1,1S48.552,60,47.999,60z"/>
		</g>
		<g>
			<path d="M47,64H17c-0.553,0-1-0.447-1-1s0.447-1,1-1h30c0.553,0,1,0.447,1,1S47.553,64,47,64z"/>
		</g>
	</g>
</g>
<g id="_x31_2_corporate_x2C__party_x2C__business_x2C__office_x2C__corporation_x2C__job">
</g>
<g id="_x31_1_dialog_x2C__discussion_x2C__work_x2C__business_x2C__office_x2C__corporation_x2C__job">
</g>
<g id="_x31_0_listening_x2C__skill_x2C__dialog_x2C__business_x2C__office_x2C__corporation_x2C__job">
</g>
<g id="_x39__training_x2C__book_x2C__lesson_x2C__business_x2C__office_x2C__corporation_x2C__job">
</g>
<g id="_x38__dress_x2C__code_x2C__shirt_x2C__business_x2C__office_x2C__corporation_x2C__job">
</g>
<g id="_x37__task_x2C__program_x2C__ticket_x2C__business_x2C__office_x2C__corporation_x2C__job">
</g>
<g id="_x36__plan_x2C__graph_x2C__stage_x2C__business_x2C__office_x2C__corporation_x2C__job">
</g>
<g id="_x35__boss_x2C__king_x2C__crown_x2C__business_x2C__office_x2C__corporation_x2C__job">
</g>
<g id="_x34__structure_x2C__structuring_x2C__business_x2C__office_x2C__corporation_x2C__job">
</g>
<g id="_x33__soft_x2C__skills_x2C__communication_x2C__business_x2C__office_x2C__corporation_x2C__job">
</g>
<g id="_x32__office_x2C__house_x2C__portfolio_x2C__business_x2C__corporation_x2C__job">
</g>
<g id="_x31__corporate_x2C__rules_x2C__book_x2C__business_x2C__office_x2C__corporation_x2C__job">
</g>
</svg>
