<?xml version="1.0" encoding="utf-8"?>
<!-- Generator: Adobe Illustrator 16.0.0, SVG Export Plug-In . SVG Version: 6.00 Build 0)  -->
<!DOCTYPE svg PUBLIC "-//W3C//DTD SVG 1.1//EN" "http://www.w3.org/Graphics/SVG/1.1/DTD/svg11.dtd">
<svg version="1.1" xmlns="http://www.w3.org/2000/svg" xmlns:xlink="http://www.w3.org/1999/xlink" x="0px" y="0px" width="64px"
	 height="64px" viewBox="0 0 64 64" enable-background="new 0 0 64 64" xml:space="preserve">
<g id="_x35_0_document_x2C__optimization_x2C__documentation_x2C__business_x2C__office_x2C__corporation_x2C__job">
</g>
<g id="_x34_9_human_x2C__resource_x2C__conveyor_x2C__business_x2C__office_x2C__corporation_x2C__job">
</g>
<g id="_x34_8_knowledge_x2C__training_x2C__growth_x2C__book_x2C__business_x2C__office_x2C__corporation">
</g>
<g id="_x34_7_skill_x2C__competence_x2C__experience_x2C__business_x2C__office_x2C__corporation_x2C__job">
</g>
<g id="_x34_6_target_x2C__success_x2C__victory_x2C__business_x2C__office_x2C__corporation_x2C__job">
</g>
<g id="_x34_5_inbox_x2C__letter_x2C__email_x2C__business_x2C__office_x2C__corporation_x2C__job">
</g>
<g id="_x34_4_document_x2C__workflow_x2C__sharing_x2C__business_x2C__office_x2C__corporation_x2C__job">
</g>
<g id="_x34_3_budget_x2C__allocation_x2C__money_x2C__business_x2C__office_x2C__corporation_x2C__job">
</g>
<g id="_x34_2_case_x2C__task_x2C__project_x2C__business_x2C__office_x2C__corporation_x2C__job">
</g>
<g id="_x34_1_structure_x2C__structuring_x2C__tasks_x2C__business_x2C__office_x2C__corporation_x2C__job">
</g>
<g id="_x34_0_choice_x2C__dilemma_x2C__question_x2C__business_x2C__office_x2C__corporation_x2C__job">
</g>
<g id="_x33_9_workplace_x2C__table_x2C__laptop_x2C__business_x2C__office_x2C__corporation_x2C__job">
</g>
<g id="_x33_8_bribe_x2C__bag_x2C__money_x2C__business_x2C__office_x2C__corporation_x2C__job">
</g>
<g id="_x33_7_corruption_x2C__forage_x2C__money_x2C__business_x2C__office_x2C__corporation_x2C__job">
</g>
<g id="_x33_6_career_x2C__ladder_x2C__success_x2C__business_x2C__office_x2C__corporation_x2C__job">
</g>
<g id="_x33_5_review_x2C__feedback_x2C__rating_x2C__business_x2C__office_x2C__corporation_x2C__job">
</g>
<g id="_x33_4_manipulation_x2C__thread_x2C__puppet_x2C__business_x2C__office_x2C__corporation_x2C__job">
</g>
<g id="_x33_3_location_x2C__map_x2C__pin_x2C__business_x2C__office_x2C__corporation_x2C__job">
</g>
<g id="_x33_2_retirement_x2C__old_x2C__man_x2C__door_x2C__business_x2C__office_x2C__corporation">
</g>
<g id="_x33_1_victory_x2C__success_x2C__medal_x2C__reward_x2C__business_x2C__office_x2C__corporation">
</g>
<g id="_x33_0_dismissal_x2C__box_x2C__door_x2C__business_x2C__office_x2C__corporation_x2C__job">
</g>
<g id="_x32_9_meeting_x2C__discussion_x2C__question_x2C__business_x2C__office_x2C__corporation_x2C__job">
</g>
<g id="_x32_8_strategy_x2C__vision_x2C__eye_x2C__chess_x2C__business_x2C__office_x2C__corporation">
</g>
<g id="_x32_7_board_x2C__task_x2C__process_x2C__business_x2C__office_x2C__corporation_x2C__job">
</g>
<g id="_x32_6_scheme_x2C__board_x2C__structure_x2C__business_x2C__office_x2C__corporation_x2C__job">
</g>
<g id="_x32_5_conflict_x2C__dialog_x2C__discussion_x2C__business_x2C__office_x2C__corporation_x2C__job">
</g>
<g id="_x32_4_documentation_x2C__document_x2C__repository_x2C__business_x2C__office_x2C__corporation_x2C__job">
</g>
<g id="_x32_3_sprint_x2C__programming_x2C__code_x2C__business_x2C__office_x2C__corporation_x2C__job">
</g>
<g id="_x32_2_cram_x2C__tablet_x2C__work_x2C__business_x2C__office_x2C__corporation_x2C__job">
</g>
<g id="_x32_1_leader_x2C__discoverer_x2C__flag_x2C__business_x2C__office_x2C__corporation_x2C__job">
</g>
<g id="_x32_0_rally_x2C__collective_x2C__arm_x2C__business_x2C__office_x2C__corporation_x2C__job">
	<g>
		<g>
			<g>
				<g>
					<path d="M63,6c-0.553,0-1-0.447-1-1c0-0.552-0.448-1-1-1s-1,0.448-1,1c0,0.553-0.447,1-1,1s-1-0.447-1-1c0-1.654,1.346-3,3-3
						s3,1.346,3,3C64,5.553,63.553,6,63,6z"/>
				</g>
				<g>
					<path d="M63,20c-0.553,0-1-0.447-1-1V5c0-0.553,0.447-1,1-1s1,0.447,1,1v14C64,19.553,63.553,20,63,20z"/>
				</g>
				<g>
					<path d="M59,11c-0.553,0-1-0.447-1-1V5c0-0.553,0.447-1,1-1s1,0.447,1,1v5C60,10.553,59.553,11,59,11z"/>
				</g>
				<g>
					<path d="M59,6c-0.553,0-1-0.447-1-1c0-0.552-0.448-1-1-1s-1,0.448-1,1c0,0.553-0.447,1-1,1s-1-0.447-1-1c0-1.654,1.346-3,3-3
						s3,1.346,3,3C60,5.553,59.553,6,59,6z"/>
				</g>
				<g>
					<path d="M47,14c-0.553,0-1-0.447-1-1V5c0-0.553,0.447-1,1-1s1,0.447,1,1v8C48,13.553,47.553,14,47,14z"/>
				</g>
				<g>
					<path d="M51,6c-0.553,0-1-0.447-1-1c0-0.552-0.448-1-1-1s-1,0.448-1,1c0,0.553-0.447,1-1,1s-1-0.447-1-1c0-1.654,1.346-3,3-3
						s3,1.346,3,3C52,5.553,51.553,6,51,6z"/>
				</g>
				<g>
					<path d="M55,11c-0.553,0-1-0.447-1-1V5c0-0.553,0.447-1,1-1s1,0.447,1,1v5C56,10.553,55.553,11,55,11z"/>
				</g>
				<g>
					<path d="M55,6c-0.553,0-1-0.447-1-1c0-0.552-0.448-1-1-1s-1,0.448-1,1c0,0.553-0.447,1-1,1s-1-0.447-1-1c0-1.654,1.346-3,3-3
						s3,1.346,3,3C56,5.553,55.553,6,55,6z"/>
				</g>
				<g>
					<path d="M51,11c-0.553,0-1-0.447-1-1V5c0-0.553,0.447-1,1-1s1,0.447,1,1v5C52,10.553,51.553,11,51,11z"/>
				</g>
				<g>
					<path d="M57.034,27.739c-0.443,0-0.849-0.297-0.966-0.746c-0.141-0.534,0.179-1.081,0.713-1.221C59.854,24.965,62,22.181,62,19
						c0-0.553,0.447-1,1-1s1,0.447,1,1c0,4.089-2.76,7.669-6.711,8.706C57.204,27.729,57.118,27.739,57.034,27.739z"/>
				</g>
				<g>
					<path d="M53.032,27.727c-0.091,0-0.183-0.012-0.274-0.038c-2.161-0.613-4.124-2.143-5.676-4.422
						c-0.312-0.456-0.193-1.078,0.264-1.389c0.455-0.312,1.078-0.192,1.389,0.264c0.896,1.315,2.417,3.012,4.57,3.623
						c0.531,0.15,0.84,0.704,0.688,1.235C53.868,27.439,53.468,27.727,53.032,27.727z"/>
				</g>
				<g>
					<path d="M47.909,23.704c-0.338,0-0.667-0.171-0.855-0.479l-5.908-9.704c-0.287-0.473-0.138-1.088,0.334-1.375
						c0.476-0.287,1.089-0.136,1.375,0.334l5.908,9.704c0.287,0.473,0.138,1.088-0.334,1.375
						C48.266,23.657,48.086,23.704,47.909,23.704z"/>
				</g>
			</g>
			<g>
				<path d="M59,48c-0.553,0-1-0.447-1-1V25.93c0-0.553,0.447-1,1-1s1,0.447,1,1V47C60,47.553,59.553,48,59,48z"/>
			</g>
			<g>
				<path d="M51,48c-0.553,0-1-0.447-1-1V25.805c0-0.553,0.447-1,1-1s1,0.447,1,1V47C52,47.553,51.553,48,51,48z"/>
			</g>
		</g>
		<g>
			<g>
				<g>
					<path d="M5,6C3.346,6,2,4.654,2,3s1.346-3,3-3c0.553,0,1,0.447,1,1S5.553,2,5,2C4.448,2,4,2.448,4,3s0.448,1,1,1
						c0.553,0,1,0.447,1,1S5.553,6,5,6z"/>
				</g>
				<g>
					<path d="M19,2H5C4.447,2,4,1.553,4,1s0.447-1,1-1h14c0.553,0,1,0.447,1,1S19.553,2,19,2z"/>
				</g>
				<g>
					<path d="M10,6H5C4.447,6,4,5.553,4,5s0.447-1,1-1h5c0.553,0,1,0.447,1,1S10.553,6,10,6z"/>
				</g>
				<g>
					<path d="M5,10c-1.654,0-3-1.346-3-3s1.346-3,3-3c0.553,0,1,0.447,1,1S5.553,6,5,6C4.448,6,4,6.448,4,7s0.448,1,1,1
						c0.553,0,1,0.447,1,1S5.553,10,5,10z"/>
				</g>
				<g>
					<path d="M13,18H5c-0.553,0-1-0.447-1-1s0.447-1,1-1h8c0.553,0,1,0.447,1,1S13.553,18,13,18z"/>
				</g>
				<g>
					<path d="M5,18c-1.654,0-3-1.346-3-3s1.346-3,3-3c0.553,0,1,0.447,1,1s-0.447,1-1,1c-0.552,0-1,0.448-1,1s0.448,1,1,1
						c0.553,0,1,0.447,1,1S5.553,18,5,18z"/>
				</g>
				<g>
					<path d="M10,10H5c-0.553,0-1-0.447-1-1s0.447-1,1-1h5c0.553,0,1,0.447,1,1S10.553,10,10,10z"/>
				</g>
				<g>
					<path d="M5,14c-1.654,0-3-1.346-3-3s1.346-3,3-3c0.553,0,1,0.447,1,1s-0.447,1-1,1c-0.552,0-1,0.448-1,1s0.448,1,1,1
						c0.553,0,1,0.447,1,1S5.553,14,5,14z"/>
				</g>
				<g>
					<path d="M10,14H5c-0.553,0-1-0.447-1-1s0.447-1,1-1h5c0.553,0,1,0.447,1,1S10.553,14,10,14z"/>
				</g>
				<g>
					<path d="M26.738,7.965c-0.443,0-0.849-0.297-0.966-0.746C24.965,4.146,22.181,2,19,2c-0.553,0-1-0.447-1-1s0.447-1,1-1
						c4.089,0,7.669,2.76,8.706,6.711c0.141,0.534-0.179,1.081-0.713,1.221C26.908,7.954,26.822,7.965,26.738,7.965z"/>
				</g>
				<g>
					<path d="M22.705,17.092c-0.319,0-0.634-0.153-0.827-0.438c-0.312-0.456-0.193-1.078,0.264-1.389
						c1.315-0.896,3.012-2.417,3.623-4.57c0.151-0.531,0.701-0.842,1.235-0.688c0.531,0.15,0.84,0.704,0.688,1.235
						c-0.613,2.161-2.143,4.124-4.422,5.676C23.095,17.035,22.898,17.092,22.705,17.092z"/>
				</g>
				<g>
					<path d="M13.001,23c-0.338,0-0.667-0.171-0.855-0.479c-0.287-0.473-0.138-1.088,0.334-1.375l9.704-5.908
						c0.475-0.287,1.089-0.136,1.375,0.334c0.287,0.473,0.138,1.088-0.334,1.375l-9.704,5.908C13.357,22.953,13.178,23,13.001,23z"
						/>
				</g>
			</g>
			<g>
				<path d="M47,6H25.93c-0.553,0-1-0.447-1-1s0.447-1,1-1H47c0.553,0,1,0.447,1,1S47.553,6,47,6z"/>
			</g>
			<g>
				<path d="M47,14H25.805c-0.553,0-1-0.447-1-1s0.447-1,1-1H47c0.553,0,1,0.447,1,1S47.553,14,47,14z"/>
			</g>
		</g>
		<g>
			<g>
				<g>
					<path d="M3,62c-1.654,0-3-1.346-3-3c0-0.553,0.447-1,1-1s1,0.447,1,1c0,0.552,0.448,1,1,1s1-0.448,1-1c0-0.553,0.447-1,1-1
						s1,0.447,1,1C6,60.654,4.654,62,3,62z"/>
				</g>
				<g>
					<path d="M1,60c-0.553,0-1-0.447-1-1V45c0-0.553,0.447-1,1-1s1,0.447,1,1v14C2,59.553,1.553,60,1,60z"/>
				</g>
				<g>
					<path d="M5,60c-0.553,0-1-0.447-1-1v-5c0-0.553,0.447-1,1-1s1,0.447,1,1v5C6,59.553,5.553,60,5,60z"/>
				</g>
				<g>
					<path d="M7,62c-1.654,0-3-1.346-3-3c0-0.553,0.447-1,1-1s1,0.447,1,1c0,0.552,0.448,1,1,1s1-0.448,1-1c0-0.553,0.447-1,1-1
						s1,0.447,1,1C10,60.654,8.654,62,7,62z"/>
				</g>
				<g>
					<path d="M17,60c-0.553,0-1-0.447-1-1v-8c0-0.553,0.447-1,1-1s1,0.447,1,1v8C18,59.553,17.553,60,17,60z"/>
				</g>
				<g>
					<path d="M15,62c-1.654,0-3-1.346-3-3c0-0.553,0.447-1,1-1s1,0.447,1,1c0,0.552,0.448,1,1,1s1-0.448,1-1c0-0.553,0.447-1,1-1
						s1,0.447,1,1C18,60.654,16.654,62,15,62z"/>
				</g>
				<g>
					<path d="M9,60c-0.553,0-1-0.447-1-1v-5c0-0.553,0.447-1,1-1s1,0.447,1,1v5C10,59.553,9.553,60,9,60z"/>
				</g>
				<g>
					<path d="M11,62c-1.654,0-3-1.346-3-3c0-0.553,0.447-1,1-1s1,0.447,1,1c0,0.552,0.448,1,1,1s1-0.448,1-1c0-0.553,0.447-1,1-1
						s1,0.447,1,1C14,60.654,12.654,62,11,62z"/>
				</g>
				<g>
					<path d="M13,60c-0.553,0-1-0.447-1-1v-5c0-0.553,0.447-1,1-1s1,0.447,1,1v5C14,59.553,13.553,60,13,60z"/>
				</g>
				<g>
					<path d="M1,46c-0.553,0-1-0.447-1-1c0-4.089,2.76-7.669,6.711-8.706c0.534-0.142,1.081,0.179,1.221,0.713
						c0.141,0.534-0.179,1.081-0.713,1.221C4.146,39.035,2,41.819,2,45C2,45.553,1.553,46,1,46z"/>
				</g>
				<g>
					<path d="M16.093,42.296c-0.319,0-0.634-0.153-0.827-0.438c-0.896-1.315-2.417-3.012-4.57-3.623
						c-0.531-0.15-0.84-0.704-0.688-1.235c0.15-0.531,0.702-0.843,1.235-0.688c2.161,0.613,4.124,2.143,5.676,4.422
						c0.312,0.456,0.193,1.078-0.264,1.389C16.482,42.239,16.286,42.296,16.093,42.296z"/>
				</g>
				<g>
					<path d="M22.001,52c-0.338,0-0.667-0.171-0.855-0.479l-5.908-9.704c-0.287-0.473-0.138-1.088,0.334-1.375
						c0.475-0.286,1.088-0.136,1.375,0.334l5.908,9.704c0.287,0.473,0.138,1.088-0.334,1.375C22.357,51.953,22.178,52,22.001,52z"/>
				</g>
			</g>
			<g>
				<path d="M5,39.07c-0.553,0-1-0.447-1-1V17c0-0.553,0.447-1,1-1s1,0.447,1,1v21.07C6,38.623,5.553,39.07,5,39.07z"/>
			</g>
			<g>
				<path d="M13,39.195c-0.553,0-1-0.447-1-1V17c0-0.553,0.447-1,1-1s1,0.447,1,1v21.195C14,38.748,13.553,39.195,13,39.195z"/>
			</g>
		</g>
		<g>
			<g>
				<g>
					<path d="M59,64c-0.553,0-1-0.447-1-1s0.447-1,1-1c0.552,0,1-0.448,1-1s-0.448-1-1-1c-0.553,0-1-0.447-1-1s0.447-1,1-1
						c1.654,0,3,1.346,3,3S60.654,64,59,64z"/>
				</g>
				<g>
					<path d="M59,64H45c-0.553,0-1-0.447-1-1s0.447-1,1-1h14c0.553,0,1,0.447,1,1S59.553,64,59,64z"/>
				</g>
				<g>
					<path d="M59,60h-5c-0.553,0-1-0.447-1-1s0.447-1,1-1h5c0.553,0,1,0.447,1,1S59.553,60,59,60z"/>
				</g>
				<g>
					<path d="M59,60c-0.553,0-1-0.447-1-1s0.447-1,1-1c0.552,0,1-0.448,1-1s-0.448-1-1-1c-0.553,0-1-0.447-1-1s0.447-1,1-1
						c1.654,0,3,1.346,3,3S60.654,60,59,60z"/>
				</g>
				<g>
					<path d="M59,48h-8c-0.553,0-1-0.447-1-1s0.447-1,1-1h8c0.553,0,1,0.447,1,1S59.553,48,59,48z"/>
				</g>
				<g>
					<path d="M59,52c-0.553,0-1-0.447-1-1s0.447-1,1-1c0.552,0,1-0.448,1-1s-0.448-1-1-1c-0.553,0-1-0.447-1-1s0.447-1,1-1
						c1.654,0,3,1.346,3,3S60.654,52,59,52z"/>
				</g>
				<g>
					<path d="M59,56h-5c-0.553,0-1-0.447-1-1s0.447-1,1-1h5c0.553,0,1,0.447,1,1S59.553,56,59,56z"/>
				</g>
				<g>
					<path d="M59,56c-0.553,0-1-0.447-1-1s0.447-1,1-1c0.552,0,1-0.448,1-1s-0.448-1-1-1c-0.553,0-1-0.447-1-1s0.447-1,1-1
						c1.654,0,3,1.346,3,3S60.654,56,59,56z"/>
				</g>
				<g>
					<path d="M59,52h-5c-0.553,0-1-0.447-1-1s0.447-1,1-1h5c0.553,0,1,0.447,1,1S59.553,52,59,52z"/>
				</g>
				<g>
					<path d="M45,64c-4.089,0-7.669-2.76-8.706-6.711c-0.141-0.534,0.179-1.081,0.713-1.221c0.533-0.141,1.081,0.179,1.221,0.713
						C39.035,59.854,41.819,62,45,62c0.553,0,1,0.447,1,1S45.553,64,45,64z"/>
				</g>
				<g>
					<path d="M37.274,54.031c-0.091,0-0.184-0.012-0.275-0.038c-0.531-0.151-0.839-0.705-0.688-1.236
						c0.227-0.794,0.576-1.566,1.04-2.294c0.804-1.263,1.941-2.4,3.382-3.381c0.457-0.312,1.078-0.192,1.389,0.264
						c0.312,0.456,0.193,1.078-0.264,1.389c-1.214,0.827-2.163,1.771-2.819,2.803c-0.36,0.565-0.631,1.16-0.804,1.769
						C38.11,53.745,37.709,54.031,37.274,54.031z"/>
				</g>
				<g>
					<path d="M41.297,48.908c-0.338,0-0.667-0.171-0.855-0.479c-0.287-0.473-0.138-1.088,0.334-1.375l9.704-5.908
						c0.477-0.286,1.089-0.136,1.375,0.334c0.287,0.473,0.138,1.088-0.334,1.375l-9.704,5.908
						C41.653,48.861,41.474,48.908,41.297,48.908z"/>
				</g>
			</g>
			<g>
				<path d="M38.07,60H17c-0.553,0-1-0.447-1-1s0.447-1,1-1h21.07c0.553,0,1,0.447,1,1S38.623,60,38.07,60z"/>
			</g>
			<g>
				<path d="M38.195,52H17c-0.553,0-1-0.447-1-1s0.447-1,1-1h21.195c0.553,0,1,0.447,1,1S38.748,52,38.195,52z"/>
			</g>
		</g>
	</g>
</g>
<g id="_x31_9_consolidation_x2C__portfolio_x2C__puzzle_x2C__business_x2C__office_x2C__corporation_x2C__job">
</g>
<g id="_x31_8_idea_x2C__creative_x2C__work_x2C__business_x2C__office_x2C__corporation_x2C__job">
</g>
<g id="_x31_7_problem_x2C__stress_x2C__resistance_x2C__business_x2C__office_x2C__corporation_x2C__job">
</g>
<g id="_x31_6_hard_x2C__skills_x2C__skill_x2C__portfolio_x2C__book_x2C__business_x2C__office">
</g>
<g id="_x31_5_time_x2C__management_x2C__clock_x2C__deadline_x2C__business_x2C__office_x2C__corporation">
</g>
<g id="_x31_4_multitasking_x2C__task_x2C__work_x2C__business_x2C__office_x2C__corporation_x2C__job">
</g>
<g id="_x31_3_tranquility_x2C__yoga_x2C__lotus_x2C__posture_x2C__business_x2C__office_x2C__corporation">
</g>
<g id="_x31_2_corporate_x2C__party_x2C__business_x2C__office_x2C__corporation_x2C__job">
</g>
<g id="_x31_1_dialog_x2C__discussion_x2C__work_x2C__business_x2C__office_x2C__corporation_x2C__job">
</g>
<g id="_x31_0_listening_x2C__skill_x2C__dialog_x2C__business_x2C__office_x2C__corporation_x2C__job">
</g>
<g id="_x39__training_x2C__book_x2C__lesson_x2C__business_x2C__office_x2C__corporation_x2C__job">
</g>
<g id="_x38__dress_x2C__code_x2C__shirt_x2C__business_x2C__office_x2C__corporation_x2C__job">
</g>
<g id="_x37__task_x2C__program_x2C__ticket_x2C__business_x2C__office_x2C__corporation_x2C__job">
</g>
<g id="_x36__plan_x2C__graph_x2C__stage_x2C__business_x2C__office_x2C__corporation_x2C__job">
</g>
<g id="_x35__boss_x2C__king_x2C__crown_x2C__business_x2C__office_x2C__corporation_x2C__job">
</g>
<g id="_x34__structure_x2C__structuring_x2C__business_x2C__office_x2C__corporation_x2C__job">
</g>
<g id="_x33__soft_x2C__skills_x2C__communication_x2C__business_x2C__office_x2C__corporation_x2C__job">
</g>
<g id="_x32__office_x2C__house_x2C__portfolio_x2C__business_x2C__corporation_x2C__job">
</g>
<g id="_x31__corporate_x2C__rules_x2C__book_x2C__business_x2C__office_x2C__corporation_x2C__job">
</g>
</svg>
