<?xml version="1.0" encoding="utf-8"?>
<!-- Generator: Adobe Illustrator 16.0.0, SVG Export Plug-In . SVG Version: 6.00 Build 0)  -->
<!DOCTYPE svg PUBLIC "-//W3C//DTD SVG 1.1//EN" "http://www.w3.org/Graphics/SVG/1.1/DTD/svg11.dtd">
<svg version="1.1" xmlns="http://www.w3.org/2000/svg" xmlns:xlink="http://www.w3.org/1999/xlink" x="0px" y="0px" width="64px"
	 height="64px" viewBox="0 0 64 64" enable-background="new 0 0 64 64" xml:space="preserve">
<g id="_x35_0_document_x2C__optimization_x2C__documentation_x2C__business_x2C__office_x2C__corporation_x2C__job">
</g>
<g id="_x34_9_human_x2C__resource_x2C__conveyor_x2C__business_x2C__office_x2C__corporation_x2C__job">
</g>
<g id="_x34_8_knowledge_x2C__training_x2C__growth_x2C__book_x2C__business_x2C__office_x2C__corporation">
</g>
<g id="_x34_7_skill_x2C__competence_x2C__experience_x2C__business_x2C__office_x2C__corporation_x2C__job">
</g>
<g id="_x34_6_target_x2C__success_x2C__victory_x2C__business_x2C__office_x2C__corporation_x2C__job">
</g>
<g id="_x34_5_inbox_x2C__letter_x2C__email_x2C__business_x2C__office_x2C__corporation_x2C__job">
</g>
<g id="_x34_4_document_x2C__workflow_x2C__sharing_x2C__business_x2C__office_x2C__corporation_x2C__job">
</g>
<g id="_x34_3_budget_x2C__allocation_x2C__money_x2C__business_x2C__office_x2C__corporation_x2C__job">
</g>
<g id="_x34_2_case_x2C__task_x2C__project_x2C__business_x2C__office_x2C__corporation_x2C__job">
</g>
<g id="_x34_1_structure_x2C__structuring_x2C__tasks_x2C__business_x2C__office_x2C__corporation_x2C__job">
</g>
<g id="_x34_0_choice_x2C__dilemma_x2C__question_x2C__business_x2C__office_x2C__corporation_x2C__job">
</g>
<g id="_x33_9_workplace_x2C__table_x2C__laptop_x2C__business_x2C__office_x2C__corporation_x2C__job">
</g>
<g id="_x33_8_bribe_x2C__bag_x2C__money_x2C__business_x2C__office_x2C__corporation_x2C__job">
</g>
<g id="_x33_7_corruption_x2C__forage_x2C__money_x2C__business_x2C__office_x2C__corporation_x2C__job">
</g>
<g id="_x33_6_career_x2C__ladder_x2C__success_x2C__business_x2C__office_x2C__corporation_x2C__job">
</g>
<g id="_x33_5_review_x2C__feedback_x2C__rating_x2C__business_x2C__office_x2C__corporation_x2C__job">
</g>
<g id="_x33_4_manipulation_x2C__thread_x2C__puppet_x2C__business_x2C__office_x2C__corporation_x2C__job">
</g>
<g id="_x33_3_location_x2C__map_x2C__pin_x2C__business_x2C__office_x2C__corporation_x2C__job">
</g>
<g id="_x33_2_retirement_x2C__old_x2C__man_x2C__door_x2C__business_x2C__office_x2C__corporation">
</g>
<g id="_x33_1_victory_x2C__success_x2C__medal_x2C__reward_x2C__business_x2C__office_x2C__corporation">
</g>
<g id="_x33_0_dismissal_x2C__box_x2C__door_x2C__business_x2C__office_x2C__corporation_x2C__job">
</g>
<g id="_x32_9_meeting_x2C__discussion_x2C__question_x2C__business_x2C__office_x2C__corporation_x2C__job">
</g>
<g id="_x32_8_strategy_x2C__vision_x2C__eye_x2C__chess_x2C__business_x2C__office_x2C__corporation">
</g>
<g id="_x32_7_board_x2C__task_x2C__process_x2C__business_x2C__office_x2C__corporation_x2C__job">
</g>
<g id="_x32_6_scheme_x2C__board_x2C__structure_x2C__business_x2C__office_x2C__corporation_x2C__job">
</g>
<g id="_x32_5_conflict_x2C__dialog_x2C__discussion_x2C__business_x2C__office_x2C__corporation_x2C__job">
</g>
<g id="_x32_4_documentation_x2C__document_x2C__repository_x2C__business_x2C__office_x2C__corporation_x2C__job">
</g>
<g id="_x32_3_sprint_x2C__programming_x2C__code_x2C__business_x2C__office_x2C__corporation_x2C__job">
</g>
<g id="_x32_2_cram_x2C__tablet_x2C__work_x2C__business_x2C__office_x2C__corporation_x2C__job">
</g>
<g id="_x32_1_leader_x2C__discoverer_x2C__flag_x2C__business_x2C__office_x2C__corporation_x2C__job">
	<g>
		<g>
			<g>
				<g>
					<path d="M18,59.999c-0.553,0-1-0.447-1-1C17,55.14,20.141,52,24,52c0.553,0,1,0.447,1,1s-0.447,1-1,1c-2.757,0-5,2.242-5,4.999
						C19,59.552,18.553,59.999,18,59.999z"/>
				</g>
				<g>
					<path d="M28,54.001L28,54.001L24,54c-0.553,0-1-0.448-1-1c0-0.553,0.448-1,1-1l0,0l4,0.001c0.553,0,1,0.448,1,1
						C29,53.554,28.552,54.001,28,54.001z"/>
				</g>
				<g>
					<path d="M18,64c-0.553,0-1-0.447-1-1v-3.714c0-0.553,0.447-1,1-1s1,0.447,1,1V63C19,63.553,18.553,64,18,64z"/>
				</g>
				<g>
					<path d="M48,59.999c-0.553,0-1-0.447-1-1C47,56.242,44.757,54,42,54c-0.553,0-1-0.447-1-1s0.447-1,1-1c3.859,0,7,3.14,7,6.999
						C49,59.552,48.553,59.999,48,59.999z"/>
				</g>
				<g>
					<path d="M38,54.001c-0.552,0-1-0.447-1-1c0-0.552,0.447-1,1-1L42,52c0.552,0,1,0.447,1,1c0,0.552-0.447,1-1,1L38,54.001z"/>
				</g>
				<g>
					<path d="M48,64c-0.553,0-1-0.447-1-1v-3.714c0-0.553,0.447-1,1-1s1,0.447,1,1V63C49,63.553,48.553,64,48,64z"/>
				</g>
				<g>
					<path d="M28,54.001c-0.553,0-1-0.447-1-1V49.8c0-0.553,0.447-1,1-1s1,0.447,1,1v3.201C29,53.554,28.553,54.001,28,54.001z"/>
				</g>
				<g>
					<path d="M38,54c-0.553,0-1-0.447-1-1v-3.2c0-0.553,0.447-1,1-1s1,0.447,1,1V53C39,53.553,38.553,54,38,54z"/>
				</g>
				<g>
					<path d="M33,52c-6.617,0-12-5.383-12-12c0-0.553,0.447-1,1-1s1,0.447,1,1c0,5.514,4.486,10,10,10s10-4.486,10-10
						c0-0.553,0.447-1,1-1s1,0.447,1,1C45,46.617,39.617,52,33,52z"/>
				</g>
				<g>
					<path d="M22,41.001c-0.553,0-1-0.447-1-1V31c0-0.553,0.447-1,1-1s1,0.447,1,1v9.001C23,40.554,22.553,41.001,22,41.001z"/>
				</g>
				<g>
					<path d="M44,41.002c-0.553,0-1-0.447-1-1V31c0-0.553,0.447-1,1-1s1,0.447,1,1v9.002C45,40.555,44.553,41.002,44,41.002z"/>
				</g>
				<g>
					<path d="M44,32c-0.553,0-1-0.447-1-1c0-2.206-1.794-4-4-4c-0.553,0-1-0.447-1-1s0.447-1,1-1c3.309,0,6,2.691,6,6
						C45,31.553,44.553,32,44,32z"/>
				</g>
				<g>
					<path d="M39,27c-0.553,0-1-0.447-1-1v-4c0-0.553,0.447-1,1-1s1,0.447,1,1v4C40,26.553,39.553,27,39,27z"/>
				</g>
				<g>
					<path d="M39,23h-8c-0.553,0-1-0.447-1-1s0.447-1,1-1h8c0.553,0,1,0.447,1,1S39.553,23,39,23z"/>
				</g>
				<g>
					<path d="M22,32c-0.553,0-1-0.447-1-1c0-5.514,4.486-9.999,10-9.999c0.553,0,1,0.447,1,1s-0.447,1-1,1c-4.411,0-8,3.588-8,7.999
						C23,31.553,22.553,32,22,32z"/>
				</g>
				<g>
					<g>
						<path d="M44,37c-0.256,0-0.512-0.098-0.707-0.293l-3-3c-0.391-0.391-0.391-1.023,0-1.414s1.023-0.391,1.414,0l3,3
							c0.391,0.391,0.391,1.023,0,1.414C44.512,36.902,44.256,37,44,37z"/>
					</g>
					<g>
						<path d="M33,36c-4.485,0-8.313-2.033-8.474-2.119c-0.486-0.262-0.668-0.867-0.407-1.354c0.261-0.485,0.865-0.672,1.354-0.408
							C25.508,32.138,29.032,34,33,34c3.987,0,7.491-1.861,7.526-1.881c0.484-0.262,1.092-0.079,1.354,0.407
							c0.262,0.486,0.079,1.093-0.407,1.354C41.313,33.967,37.485,36,33,36z"/>
					</g>
					<g>
						<path d="M22,37c-0.256,0-0.512-0.098-0.707-0.293c-0.391-0.391-0.391-1.023,0-1.414l3-3c0.391-0.391,1.023-0.391,1.414,0
							s0.391,1.023,0,1.414l-3,3C22.512,36.902,22.256,37,22,37z"/>
					</g>
				</g>
				<g>
					<path d="M30,56c-0.256,0-0.512-0.098-0.707-0.293l-2-1.999c-0.391-0.391-0.391-1.023,0-1.414s1.023-0.391,1.414,0l2,1.999
						c0.391,0.391,0.391,1.023,0,1.414C30.512,55.902,30.256,56,30,56z"/>
				</g>
				<g>
					<path d="M30,56c-0.419,0-0.809-0.265-0.948-0.684c-0.175-0.524,0.108-1.091,0.632-1.265l3-1
						c0.528-0.176,1.09,0.108,1.265,0.632c0.175,0.524-0.108,1.091-0.632,1.265l-3,1C30.211,55.983,30.104,56,30,56z"/>
				</g>
				<g>
					<path d="M36,56c-0.256,0-0.512-0.098-0.707-0.293c-0.391-0.391-0.391-1.023,0-1.414l2-1.999c0.391-0.391,1.023-0.391,1.414,0
						s0.391,1.023,0,1.414l-2,1.999C36.512,55.902,36.256,56,36,56z"/>
				</g>
				<g>
					<path d="M36,56c-0.104,0-0.211-0.017-0.316-0.052l-3-1c-0.523-0.174-0.807-0.74-0.632-1.265
						c0.175-0.523,0.736-0.808,1.265-0.632l3,1c0.523,0.174,0.807,0.74,0.632,1.265C36.809,55.735,36.419,56,36,56z"/>
				</g>
			</g>
			<g>
				<path d="M33.03,59c-0.553,0-1.005-0.447-1.005-1s0.442-1,0.994-1h0.011c0.552,0,1,0.447,1,1S33.582,59,33.03,59z"/>
			</g>
			<g>
				<path d="M33.03,63c-0.553,0-1.005-0.447-1.005-1s0.442-1,0.994-1h0.011c0.552,0,1,0.447,1,1S33.582,63,33.03,63z"/>
			</g>
		</g>
		<g>
			<g>
				<path d="M12,64c-0.553,0-1-0.447-1-1V1c0-0.553,0.447-1,1-1s1,0.447,1,1v62C13,63.553,12.553,64,12,64z"/>
			</g>
			<g>
				<path d="M9,64c-0.553,0-1-0.447-1-1V1c0-0.553,0.447-1,1-1s1,0.447,1,1v62C10,63.553,9.553,64,9,64z"/>
			</g>
			<g>
				<path d="M35,4H12c-0.553,0-1-0.447-1-1s0.447-1,1-1h23c0.553,0,1,0.447,1,1S35.553,4,35,4z"/>
			</g>
			<g>
				<path d="M35,12H12c-0.553,0-1-0.447-1-1s0.447-1,1-1h23c0.553,0,1,0.447,1,1S35.553,12,35,12z"/>
			</g>
			<g>
				<path d="M35,12c-0.553,0-1-0.447-1-1V3c0-0.553,0.447-1,1-1s1,0.447,1,1v8C36,11.553,35.553,12,35,12z"/>
			</g>
			<g>
				<path d="M55,9H35c-0.553,0-1-0.447-1-1s0.447-1,1-1h20c0.553,0,1,0.447,1,1S55.553,9,55,9z"/>
			</g>
			<g>
				<path d="M55,17H30c-0.553,0-1-0.447-1-1s0.447-1,1-1h25c0.553,0,1,0.447,1,1S55.553,17,55,17z"/>
			</g>
			<g>
				<path d="M55.001,17c-0.305,0-0.604-0.138-0.801-0.4l-3-4c-0.267-0.355-0.267-0.844,0-1.199l3-4
					c0.331-0.442,0.958-0.53,1.399-0.2c0.442,0.331,0.532,0.958,0.2,1.399L53.25,12l2.55,3.4c0.332,0.441,0.242,1.068-0.2,1.399
					C55.42,16.935,55.21,17,55.001,17z"/>
			</g>
			<g>
				<path d="M12,2H9C8.447,2,8,1.553,8,1s0.447-1,1-1h3c0.553,0,1,0.447,1,1S12.553,2,12,2z"/>
			</g>
			<g>
				<path d="M30,17c-0.256,0-0.512-0.098-0.707-0.293c-0.391-0.391-0.391-1.023,0-1.414l5-5c0.391-0.391,1.023-0.391,1.414,0
					s0.391,1.023,0,1.414l-5,5C30.512,16.902,30.256,17,30,17z"/>
			</g>
		</g>
	</g>
</g>
<g id="_x32_0_rally_x2C__collective_x2C__arm_x2C__business_x2C__office_x2C__corporation_x2C__job">
</g>
<g id="_x31_9_consolidation_x2C__portfolio_x2C__puzzle_x2C__business_x2C__office_x2C__corporation_x2C__job">
</g>
<g id="_x31_8_idea_x2C__creative_x2C__work_x2C__business_x2C__office_x2C__corporation_x2C__job">
</g>
<g id="_x31_7_problem_x2C__stress_x2C__resistance_x2C__business_x2C__office_x2C__corporation_x2C__job">
</g>
<g id="_x31_6_hard_x2C__skills_x2C__skill_x2C__portfolio_x2C__book_x2C__business_x2C__office">
</g>
<g id="_x31_5_time_x2C__management_x2C__clock_x2C__deadline_x2C__business_x2C__office_x2C__corporation">
</g>
<g id="_x31_4_multitasking_x2C__task_x2C__work_x2C__business_x2C__office_x2C__corporation_x2C__job">
</g>
<g id="_x31_3_tranquility_x2C__yoga_x2C__lotus_x2C__posture_x2C__business_x2C__office_x2C__corporation">
</g>
<g id="_x31_2_corporate_x2C__party_x2C__business_x2C__office_x2C__corporation_x2C__job">
</g>
<g id="_x31_1_dialog_x2C__discussion_x2C__work_x2C__business_x2C__office_x2C__corporation_x2C__job">
</g>
<g id="_x31_0_listening_x2C__skill_x2C__dialog_x2C__business_x2C__office_x2C__corporation_x2C__job">
</g>
<g id="_x39__training_x2C__book_x2C__lesson_x2C__business_x2C__office_x2C__corporation_x2C__job">
</g>
<g id="_x38__dress_x2C__code_x2C__shirt_x2C__business_x2C__office_x2C__corporation_x2C__job">
</g>
<g id="_x37__task_x2C__program_x2C__ticket_x2C__business_x2C__office_x2C__corporation_x2C__job">
</g>
<g id="_x36__plan_x2C__graph_x2C__stage_x2C__business_x2C__office_x2C__corporation_x2C__job">
</g>
<g id="_x35__boss_x2C__king_x2C__crown_x2C__business_x2C__office_x2C__corporation_x2C__job">
</g>
<g id="_x34__structure_x2C__structuring_x2C__business_x2C__office_x2C__corporation_x2C__job">
</g>
<g id="_x33__soft_x2C__skills_x2C__communication_x2C__business_x2C__office_x2C__corporation_x2C__job">
</g>
<g id="_x32__office_x2C__house_x2C__portfolio_x2C__business_x2C__corporation_x2C__job">
</g>
<g id="_x31__corporate_x2C__rules_x2C__book_x2C__business_x2C__office_x2C__corporation_x2C__job">
</g>
</svg>
