<?xml version="1.0" encoding="utf-8"?>
<!-- Generator: Adobe Illustrator 16.0.0, SVG Export Plug-In . SVG Version: 6.00 Build 0)  -->
<!DOCTYPE svg PUBLIC "-//W3C//DTD SVG 1.1//EN" "http://www.w3.org/Graphics/SVG/1.1/DTD/svg11.dtd">
<svg version="1.1" xmlns="http://www.w3.org/2000/svg" xmlns:xlink="http://www.w3.org/1999/xlink" x="0px" y="0px" width="64px"
	 height="64px" viewBox="0 0 64 64" enable-background="new 0 0 64 64" xml:space="preserve">
<g id="_x35_0_document_x2C__optimization_x2C__documentation_x2C__business_x2C__office_x2C__corporation_x2C__job">
</g>
<g id="_x34_9_human_x2C__resource_x2C__conveyor_x2C__business_x2C__office_x2C__corporation_x2C__job">
</g>
<g id="_x34_8_knowledge_x2C__training_x2C__growth_x2C__book_x2C__business_x2C__office_x2C__corporation">
</g>
<g id="_x34_7_skill_x2C__competence_x2C__experience_x2C__business_x2C__office_x2C__corporation_x2C__job">
</g>
<g id="_x34_6_target_x2C__success_x2C__victory_x2C__business_x2C__office_x2C__corporation_x2C__job">
</g>
<g id="_x34_5_inbox_x2C__letter_x2C__email_x2C__business_x2C__office_x2C__corporation_x2C__job">
</g>
<g id="_x34_4_document_x2C__workflow_x2C__sharing_x2C__business_x2C__office_x2C__corporation_x2C__job">
</g>
<g id="_x34_3_budget_x2C__allocation_x2C__money_x2C__business_x2C__office_x2C__corporation_x2C__job">
</g>
<g id="_x34_2_case_x2C__task_x2C__project_x2C__business_x2C__office_x2C__corporation_x2C__job">
</g>
<g id="_x34_1_structure_x2C__structuring_x2C__tasks_x2C__business_x2C__office_x2C__corporation_x2C__job">
</g>
<g id="_x34_0_choice_x2C__dilemma_x2C__question_x2C__business_x2C__office_x2C__corporation_x2C__job">
</g>
<g id="_x33_9_workplace_x2C__table_x2C__laptop_x2C__business_x2C__office_x2C__corporation_x2C__job">
</g>
<g id="_x33_8_bribe_x2C__bag_x2C__money_x2C__business_x2C__office_x2C__corporation_x2C__job">
</g>
<g id="_x33_7_corruption_x2C__forage_x2C__money_x2C__business_x2C__office_x2C__corporation_x2C__job">
</g>
<g id="_x33_6_career_x2C__ladder_x2C__success_x2C__business_x2C__office_x2C__corporation_x2C__job">
</g>
<g id="_x33_5_review_x2C__feedback_x2C__rating_x2C__business_x2C__office_x2C__corporation_x2C__job">
</g>
<g id="_x33_4_manipulation_x2C__thread_x2C__puppet_x2C__business_x2C__office_x2C__corporation_x2C__job">
</g>
<g id="_x33_3_location_x2C__map_x2C__pin_x2C__business_x2C__office_x2C__corporation_x2C__job">
</g>
<g id="_x33_2_retirement_x2C__old_x2C__man_x2C__door_x2C__business_x2C__office_x2C__corporation">
</g>
<g id="_x33_1_victory_x2C__success_x2C__medal_x2C__reward_x2C__business_x2C__office_x2C__corporation">
</g>
<g id="_x33_0_dismissal_x2C__box_x2C__door_x2C__business_x2C__office_x2C__corporation_x2C__job">
</g>
<g id="_x32_9_meeting_x2C__discussion_x2C__question_x2C__business_x2C__office_x2C__corporation_x2C__job">
</g>
<g id="_x32_8_strategy_x2C__vision_x2C__eye_x2C__chess_x2C__business_x2C__office_x2C__corporation">
</g>
<g id="_x32_7_board_x2C__task_x2C__process_x2C__business_x2C__office_x2C__corporation_x2C__job">
</g>
<g id="_x32_6_scheme_x2C__board_x2C__structure_x2C__business_x2C__office_x2C__corporation_x2C__job">
</g>
<g id="_x32_5_conflict_x2C__dialog_x2C__discussion_x2C__business_x2C__office_x2C__corporation_x2C__job">
</g>
<g id="_x32_4_documentation_x2C__document_x2C__repository_x2C__business_x2C__office_x2C__corporation_x2C__job">
</g>
<g id="_x32_3_sprint_x2C__programming_x2C__code_x2C__business_x2C__office_x2C__corporation_x2C__job">
	<g>
		<g>
			<g>
				<g>
					<path d="M4.03,15c-0.553,0-1.005-0.447-1.005-1s0.442-1,0.994-1H4.03c0.552,0,1,0.447,1,1S4.582,15,4.03,15z"/>
				</g>
				<g>
					<path d="M7.03,15c-0.553,0-1.005-0.447-1.005-1s0.442-1,0.994-1H7.03c0.552,0,1,0.447,1,1S7.582,15,7.03,15z"/>
				</g>
				<g>
					<path d="M10.03,15c-0.553,0-1.005-0.447-1.005-1s0.442-1,0.994-1h0.011c0.552,0,1,0.447,1,1S10.582,15,10.03,15z"/>
				</g>
				<g>
					<path d="M33,53H1c-0.553,0-1-0.447-1-1V16c0-0.553,0.447-1,1-1h45c0.553,0,1,0.447,1,1v7c0,0.553-0.447,1-1,1s-1-0.447-1-1v-6
						H2v34h31c0.553,0,1,0.447,1,1S33.553,53,33,53z"/>
				</g>
				<g>
					<path d="M1,15c-0.553,0-1-0.447-1-1c0-1.654,1.346-3,3-3c0.553,0,1,0.447,1,1s-0.447,1-1,1c-0.552,0-1,0.448-1,1
						C2,14.553,1.553,15,1,15z"/>
				</g>
				<g>
					<path d="M1,17c-0.553,0-1-0.447-1-1v-2c0-0.553,0.447-1,1-1s1,0.447,1,1v2C2,16.553,1.553,17,1,17z"/>
				</g>
				<g>
					<path d="M46,15c-0.553,0-1-0.447-1-1c0-0.552-0.448-1-1-1c-0.553,0-1-0.447-1-1s0.447-1,1-1c1.654,0,3,1.346,3,3
						C47,14.553,46.553,15,46,15z"/>
				</g>
				<g>
					<path d="M46,17c-0.553,0-1-0.447-1-1v-2c0-0.553,0.447-1,1-1s1,0.447,1,1v2C47,16.553,46.553,17,46,17z"/>
				</g>
				<g>
					<path d="M44,13H3c-0.553,0-1-0.447-1-1s0.447-1,1-1h41c0.553,0,1,0.447,1,1S44.553,13,44,13z"/>
				</g>
			</g>
			<g>
				<path d="M4,53c-0.553,0-1-0.447-1-1V16c0-0.553,0.447-1,1-1s1,0.447,1,1v36C5,52.553,4.553,53,4,53z"/>
			</g>
			<g>
				<g>
					<path d="M25,21H8c-0.553,0-1-0.447-1-1s0.447-1,1-1h17c0.553,0,1,0.447,1,1S25.553,21,25,21z"/>
				</g>
				<g>
					<path d="M21,25H10c-0.553,0-1-0.447-1-1s0.447-1,1-1h11c0.553,0,1,0.447,1,1S21.553,25,21,25z"/>
				</g>
				<g>
					<path d="M20,45.012H10c-0.553,0-1-0.447-1-1s0.447-1,1-1h10c0.553,0,1,0.447,1,1S20.553,45.012,20,45.012z"/>
				</g>
				<g>
					<path d="M27,25h-2c-0.553,0-1-0.447-1-1s0.447-1,1-1h2c0.553,0,1,0.447,1,1S27.553,25,27,25z"/>
				</g>
				<g>
					<path d="M14,49H8c-0.553,0-1-0.447-1-1s0.447-1,1-1h6c0.553,0,1,0.447,1,1S14.553,49,14,49z"/>
				</g>
				<g>
					<path d="M16,29h-4c-0.553,0-1-0.447-1-1s0.447-1,1-1h4c0.553,0,1,0.447,1,1S16.553,29,16,29z"/>
				</g>
				<g>
					<path d="M30,29H20c-0.553,0-1-0.447-1-1s0.447-1,1-1h10c0.553,0,1,0.447,1,1S30.553,29,30,29z"/>
				</g>
				<g>
					<path d="M29,33H12c-0.553,0-1-0.447-1-1s0.447-1,1-1h17c0.553,0,1,0.447,1,1S29.553,33,29,33z"/>
				</g>
				<g>
					<path d="M23,37H12c-0.553,0-1-0.447-1-1s0.447-1,1-1h11c0.553,0,1,0.447,1,1S23.553,37,23,37z"/>
				</g>
				<g>
					<path d="M28,41H18c-0.553,0-1-0.447-1-1s0.447-1,1-1h10c0.553,0,1,0.447,1,1S28.553,41,28,41z"/>
				</g>
				<g>
					<path d="M14,41h-2c-0.553,0-1-0.447-1-1s0.447-1,1-1h2c0.553,0,1,0.447,1,1S14.553,41,14,41z"/>
				</g>
			</g>
		</g>
		<g>
			<path d="M63,53h-8.958c-0.553,0-1-0.447-1-1s0.447-1,1-1H63c0.553,0,1,0.447,1,1S63.553,53,63,53z"/>
		</g>
		<g>
			<path d="M54.042,53c-0.256,0-0.511-0.098-0.706-0.292l-16.042-16c-0.392-0.39-0.392-1.023-0.002-1.414
				c0.391-0.392,1.023-0.391,1.414-0.002l16.042,16c0.392,0.39,0.392,1.023,0.002,1.414C54.555,52.902,54.299,53,54.042,53z"/>
		</g>
		<g>
			<path d="M63,50h-6.958c-0.553,0-1-0.447-1-1s0.447-1,1-1H63c0.553,0,1,0.447,1,1S63.553,50,63,50z"/>
		</g>
		<g>
			<path d="M56.042,50c-0.256,0-0.511-0.098-0.706-0.292L39.795,34.207c-0.392-0.39-0.392-1.023-0.002-1.414
				c0.391-0.393,1.023-0.391,1.414-0.002l15.541,15.501c0.392,0.39,0.392,1.023,0.002,1.414C56.555,49.902,56.298,50,56.042,50z"/>
		</g>
		<g>
			<path d="M63,53c-0.553,0-1-0.447-1-1v-3c0-0.553,0.447-1,1-1s1,0.447,1,1v3C64,52.553,63.553,53,63,53z"/>
		</g>
		<g>
			<path d="M38,37c-0.256,0-0.512-0.098-0.707-0.293c-0.391-0.391-0.391-1.023,0-1.414l2.501-2.501c0.391-0.391,1.023-0.391,1.414,0
				s0.391,1.023,0,1.414l-2.501,2.501C38.512,36.902,38.256,37,38,37z"/>
		</g>
		<g>
			<path d="M40.501,34.499c-0.256,0-0.512-0.098-0.707-0.293c-0.391-0.391-0.391-1.023,0-1.414l8.499-8.499
				c0.391-0.391,1.023-0.391,1.414,0s0.391,1.023,0,1.414l-8.499,8.499C41.013,34.401,40.757,34.499,40.501,34.499z"/>
		</g>
		<g>
			<path d="M63,50c-0.553,0-1-0.447-1-1c0-2.757-2.243-5-5-5c-0.553,0-1-0.447-1-1s0.447-1,1-1c3.859,0,7,3.141,7,7
				C64,49.553,63.553,50,63,50z"/>
		</g>
		<g>
			<path d="M57,44c-0.553,0-1-0.447-1-1V33c0-0.553,0.447-1,1-1s1,0.447,1,1v10C58,43.553,57.553,44,57,44z"/>
		</g>
		<g>
			<path d="M57,34c-0.256,0-0.512-0.098-0.707-0.293l-8-8c-0.391-0.391-0.391-1.023,0-1.414s1.023-0.391,1.414,0l8,8
				c0.391,0.391,0.391,1.023,0,1.414C57.512,33.902,57.256,34,57,34z"/>
		</g>
		<g>
			<path d="M57,37h-2c-0.553,0-1-0.447-1-1s0.447-1,1-1h2c0.553,0,1,0.447,1,1S57.553,37,57,37z"/>
		</g>
		<g>
			<path d="M57,41h-2c-0.553,0-1-0.447-1-1s0.447-1,1-1h2c0.553,0,1,0.447,1,1S57.553,41,57,41z"/>
		</g>
		<g>
			<path d="M54.042,53H37c-0.553,0-1-0.447-1-1s0.447-1,1-1h17.042c0.553,0,1,0.447,1,1S54.595,53,54.042,53z"/>
		</g>
		<g>
			<path d="M43,49h-7c-0.553,0-1-0.447-1-1s0.447-1,1-1h7c0.553,0,1,0.447,1,1S43.553,49,43,49z"/>
		</g>
		<g>
			<path d="M41,45h-6c-0.553,0-1-0.447-1-1s0.447-1,1-1h6c0.553,0,1,0.447,1,1S41.553,45,41,45z"/>
		</g>
	</g>
</g>
<g id="_x32_2_cram_x2C__tablet_x2C__work_x2C__business_x2C__office_x2C__corporation_x2C__job">
</g>
<g id="_x32_1_leader_x2C__discoverer_x2C__flag_x2C__business_x2C__office_x2C__corporation_x2C__job">
</g>
<g id="_x32_0_rally_x2C__collective_x2C__arm_x2C__business_x2C__office_x2C__corporation_x2C__job">
</g>
<g id="_x31_9_consolidation_x2C__portfolio_x2C__puzzle_x2C__business_x2C__office_x2C__corporation_x2C__job">
</g>
<g id="_x31_8_idea_x2C__creative_x2C__work_x2C__business_x2C__office_x2C__corporation_x2C__job">
</g>
<g id="_x31_7_problem_x2C__stress_x2C__resistance_x2C__business_x2C__office_x2C__corporation_x2C__job">
</g>
<g id="_x31_6_hard_x2C__skills_x2C__skill_x2C__portfolio_x2C__book_x2C__business_x2C__office">
</g>
<g id="_x31_5_time_x2C__management_x2C__clock_x2C__deadline_x2C__business_x2C__office_x2C__corporation">
</g>
<g id="_x31_4_multitasking_x2C__task_x2C__work_x2C__business_x2C__office_x2C__corporation_x2C__job">
</g>
<g id="_x31_3_tranquility_x2C__yoga_x2C__lotus_x2C__posture_x2C__business_x2C__office_x2C__corporation">
</g>
<g id="_x31_2_corporate_x2C__party_x2C__business_x2C__office_x2C__corporation_x2C__job">
</g>
<g id="_x31_1_dialog_x2C__discussion_x2C__work_x2C__business_x2C__office_x2C__corporation_x2C__job">
</g>
<g id="_x31_0_listening_x2C__skill_x2C__dialog_x2C__business_x2C__office_x2C__corporation_x2C__job">
</g>
<g id="_x39__training_x2C__book_x2C__lesson_x2C__business_x2C__office_x2C__corporation_x2C__job">
</g>
<g id="_x38__dress_x2C__code_x2C__shirt_x2C__business_x2C__office_x2C__corporation_x2C__job">
</g>
<g id="_x37__task_x2C__program_x2C__ticket_x2C__business_x2C__office_x2C__corporation_x2C__job">
</g>
<g id="_x36__plan_x2C__graph_x2C__stage_x2C__business_x2C__office_x2C__corporation_x2C__job">
</g>
<g id="_x35__boss_x2C__king_x2C__crown_x2C__business_x2C__office_x2C__corporation_x2C__job">
</g>
<g id="_x34__structure_x2C__structuring_x2C__business_x2C__office_x2C__corporation_x2C__job">
</g>
<g id="_x33__soft_x2C__skills_x2C__communication_x2C__business_x2C__office_x2C__corporation_x2C__job">
</g>
<g id="_x32__office_x2C__house_x2C__portfolio_x2C__business_x2C__corporation_x2C__job">
</g>
<g id="_x31__corporate_x2C__rules_x2C__book_x2C__business_x2C__office_x2C__corporation_x2C__job">
</g>
</svg>
