<?xml version="1.0" encoding="utf-8"?>
<!-- Generator: Adobe Illustrator 16.0.0, SVG Export Plug-In . SVG Version: 6.00 Build 0)  -->
<!DOCTYPE svg PUBLIC "-//W3C//DTD SVG 1.1//EN" "http://www.w3.org/Graphics/SVG/1.1/DTD/svg11.dtd">
<svg version="1.1" xmlns="http://www.w3.org/2000/svg" xmlns:xlink="http://www.w3.org/1999/xlink" x="0px" y="0px" width="64px"
	 height="64px" viewBox="0 0 64 64" enable-background="new 0 0 64 64" xml:space="preserve">
<g id="_x35_0_document_x2C__optimization_x2C__documentation_x2C__business_x2C__office_x2C__corporation_x2C__job">
</g>
<g id="_x34_9_human_x2C__resource_x2C__conveyor_x2C__business_x2C__office_x2C__corporation_x2C__job">
</g>
<g id="_x34_8_knowledge_x2C__training_x2C__growth_x2C__book_x2C__business_x2C__office_x2C__corporation">
</g>
<g id="_x34_7_skill_x2C__competence_x2C__experience_x2C__business_x2C__office_x2C__corporation_x2C__job">
</g>
<g id="_x34_6_target_x2C__success_x2C__victory_x2C__business_x2C__office_x2C__corporation_x2C__job">
</g>
<g id="_x34_5_inbox_x2C__letter_x2C__email_x2C__business_x2C__office_x2C__corporation_x2C__job">
</g>
<g id="_x34_4_document_x2C__workflow_x2C__sharing_x2C__business_x2C__office_x2C__corporation_x2C__job">
</g>
<g id="_x34_3_budget_x2C__allocation_x2C__money_x2C__business_x2C__office_x2C__corporation_x2C__job">
</g>
<g id="_x34_2_case_x2C__task_x2C__project_x2C__business_x2C__office_x2C__corporation_x2C__job">
</g>
<g id="_x34_1_structure_x2C__structuring_x2C__tasks_x2C__business_x2C__office_x2C__corporation_x2C__job">
</g>
<g id="_x34_0_choice_x2C__dilemma_x2C__question_x2C__business_x2C__office_x2C__corporation_x2C__job">
</g>
<g id="_x33_9_workplace_x2C__table_x2C__laptop_x2C__business_x2C__office_x2C__corporation_x2C__job">
</g>
<g id="_x33_8_bribe_x2C__bag_x2C__money_x2C__business_x2C__office_x2C__corporation_x2C__job">
</g>
<g id="_x33_7_corruption_x2C__forage_x2C__money_x2C__business_x2C__office_x2C__corporation_x2C__job">
</g>
<g id="_x33_6_career_x2C__ladder_x2C__success_x2C__business_x2C__office_x2C__corporation_x2C__job">
</g>
<g id="_x33_5_review_x2C__feedback_x2C__rating_x2C__business_x2C__office_x2C__corporation_x2C__job">
</g>
<g id="_x33_4_manipulation_x2C__thread_x2C__puppet_x2C__business_x2C__office_x2C__corporation_x2C__job">
</g>
<g id="_x33_3_location_x2C__map_x2C__pin_x2C__business_x2C__office_x2C__corporation_x2C__job">
</g>
<g id="_x33_2_retirement_x2C__old_x2C__man_x2C__door_x2C__business_x2C__office_x2C__corporation">
</g>
<g id="_x33_1_victory_x2C__success_x2C__medal_x2C__reward_x2C__business_x2C__office_x2C__corporation">
</g>
<g id="_x33_0_dismissal_x2C__box_x2C__door_x2C__business_x2C__office_x2C__corporation_x2C__job">
</g>
<g id="_x32_9_meeting_x2C__discussion_x2C__question_x2C__business_x2C__office_x2C__corporation_x2C__job">
</g>
<g id="_x32_8_strategy_x2C__vision_x2C__eye_x2C__chess_x2C__business_x2C__office_x2C__corporation">
</g>
<g id="_x32_7_board_x2C__task_x2C__process_x2C__business_x2C__office_x2C__corporation_x2C__job">
</g>
<g id="_x32_6_scheme_x2C__board_x2C__structure_x2C__business_x2C__office_x2C__corporation_x2C__job">
</g>
<g id="_x32_5_conflict_x2C__dialog_x2C__discussion_x2C__business_x2C__office_x2C__corporation_x2C__job">
</g>
<g id="_x32_4_documentation_x2C__document_x2C__repository_x2C__business_x2C__office_x2C__corporation_x2C__job">
	<g>
		<g>
			<path d="M52.5,61h-41c-0.553,0-1-0.447-1-1V10c0-0.553,0.447-1,1-1s1,0.447,1,1v49h39V10c0-0.553,0.447-1,1-1s1,0.447,1,1v50
				C53.5,60.553,53.053,61,52.5,61z"/>
		</g>
		<g>
			<path d="M48.5,34h-33c-0.553,0-1-0.447-1-1V14c0-0.553,0.447-1,1-1h33c0.553,0,1,0.447,1,1v19C49.5,33.553,49.053,34,48.5,34z
				 M16.5,32h31V15h-31V32z"/>
		</g>
		<g>
			<path d="M48.5,57h-33c-0.553,0-1-0.447-1-1V37c0-0.553,0.447-1,1-1h33c0.553,0,1,0.447,1,1v19C49.5,56.553,49.053,57,48.5,57z
				 M16.5,55h31V38h-31V55z"/>
		</g>
		<g>
			<path d="M18.5,15c-0.553,0-1-0.447-1-1V7c0-0.553,0.447-1,1-1s1,0.447,1,1v7C19.5,14.553,19.053,15,18.5,15z"/>
		</g>
		<g>
			<path d="M45.5,15c-0.553,0-1-0.447-1-1V9c0-0.553,0.447-1,1-1s1,0.447,1,1v5C46.5,14.553,46.053,15,45.5,15z"/>
		</g>
		<g>
			<path d="M45.5,10h-19c-0.553,0-1-0.447-1-1s0.447-1,1-1h19c0.553,0,1,0.447,1,1S46.053,10,45.5,10z"/>
		</g>
		<g>
			<path d="M26.5,10c-0.256,0-0.512-0.098-0.707-0.293l-2-2c-0.391-0.391-0.391-1.023,0-1.414s1.023-0.391,1.414,0l2,2
				c0.391,0.391,0.391,1.023,0,1.414C27.012,9.902,26.756,10,26.5,10z"/>
		</g>
		<g>
			<path d="M24.5,8h-6c-0.553,0-1-0.447-1-1s0.447-1,1-1h6c0.553,0,1,0.447,1,1S25.053,8,24.5,8z"/>
		</g>
		<g>
			<path d="M20.5,8c-0.553,0-1-0.447-1-1V1c0-0.553,0.447-1,1-1s1,0.447,1,1v6C21.5,7.553,21.053,8,20.5,8z"/>
		</g>
		<g>
			<path d="M38.5,2h-18c-0.553,0-1-0.447-1-1s0.447-1,1-1h18c0.553,0,1,0.447,1,1S39.053,2,38.5,2z"/>
		</g>
		<g>
			<path d="M43.5,9c-0.553,0-1-0.447-1-1V6c0-0.553,0.447-1,1-1s1,0.447,1,1v2C44.5,8.553,44.053,9,43.5,9z"/>
		</g>
		<g>
			<path d="M43.5,7c-0.256,0-0.512-0.098-0.707-0.293l-5-5c-0.391-0.391-0.391-1.023,0-1.414s1.023-0.391,1.414,0l5,5
				c0.391,0.391,0.391,1.023,0,1.414C44.012,6.902,43.756,7,43.5,7z"/>
		</g>
		<g>
			<path d="M43.5,7h-5c-0.553,0-1-0.447-1-1s0.447-1,1-1h5c0.553,0,1,0.447,1,1S44.053,7,43.5,7z"/>
		</g>
		<g>
			<path d="M38.5,7c-0.553,0-1-0.447-1-1V1c0-0.553,0.447-1,1-1s1,0.447,1,1v5C39.5,6.553,39.053,7,38.5,7z"/>
		</g>
		<g>
			<path d="M18.5,11h-7c-0.553,0-1-0.447-1-1s0.447-1,1-1h7c0.553,0,1,0.447,1,1S19.053,11,18.5,11z"/>
		</g>
		<g>
			<path d="M52.5,11h-7c-0.553,0-1-0.447-1-1s0.447-1,1-1h7c0.553,0,1,0.447,1,1S53.053,11,52.5,11z"/>
		</g>
		<g>
			<path d="M15.5,64c-0.553,0-1-0.447-1-1v-3c0-0.553,0.447-1,1-1s1,0.447,1,1v3C16.5,63.553,16.053,64,15.5,64z"/>
		</g>
		<g>
			<path d="M23.5,64c-0.553,0-1-0.447-1-1v-3c0-0.553,0.447-1,1-1s1,0.447,1,1v3C24.5,63.553,24.053,64,23.5,64z"/>
		</g>
		<g>
			<path d="M23.5,64h-8c-0.553,0-1-0.447-1-1s0.447-1,1-1h8c0.553,0,1,0.447,1,1S24.053,64,23.5,64z"/>
		</g>
		<g>
			<path d="M40.5,64c-0.553,0-1-0.447-1-1v-3c0-0.553,0.447-1,1-1s1,0.447,1,1v3C41.5,63.553,41.053,64,40.5,64z"/>
		</g>
		<g>
			<path d="M48.5,64c-0.553,0-1-0.447-1-1v-3c0-0.553,0.447-1,1-1s1,0.447,1,1v3C49.5,63.553,49.053,64,48.5,64z"/>
		</g>
		<g>
			<path d="M48.5,64h-8c-0.553,0-1-0.447-1-1s0.447-1,1-1h8c0.553,0,1,0.447,1,1S49.053,64,48.5,64z"/>
		</g>
		<g>
			<g>
				<path d="M28.5,23.5c-0.553,0-1-0.447-1-1c0-0.275-0.225-0.5-0.5-0.5s-0.5,0.225-0.5,0.5c0,0.553-0.447,1-1,1s-1-0.447-1-1
					c0-1.379,1.121-2.5,2.5-2.5s2.5,1.121,2.5,2.5C29.5,23.053,29.053,23.5,28.5,23.5z"/>
			</g>
			<g>
				<path d="M38.5,23.5c-0.553,0-1-0.447-1-1c0-0.275-0.225-0.5-0.5-0.5s-0.5,0.225-0.5,0.5c0,0.553-0.447,1-1,1s-1-0.447-1-1
					c0-1.379,1.121-2.5,2.5-2.5s2.5,1.121,2.5,2.5C39.5,23.053,39.053,23.5,38.5,23.5z"/>
			</g>
			<g>
				<path d="M37,27c-0.553,0-1-0.447-1-1s0.447-1,1-1c0.275,0,0.5-0.225,0.5-0.5c0-0.553,0.447-1,1-1s1,0.447,1,1
					C39.5,25.879,38.379,27,37,27z"/>
			</g>
			<g>
				<path d="M38.5,25.5c-0.553,0-1-0.447-1-1v-2c0-0.553,0.447-1,1-1s1,0.447,1,1v2C39.5,25.053,39.053,25.5,38.5,25.5z"/>
			</g>
			<g>
				<path d="M27,27c-1.379,0-2.5-1.121-2.5-2.5c0-0.553,0.447-1,1-1s1,0.447,1,1c0,0.275,0.225,0.5,0.5,0.5c0.553,0,1,0.447,1,1
					S27.553,27,27,27z"/>
			</g>
			<g>
				<path d="M25.5,25.5c-0.553,0-1-0.447-1-1v-2c0-0.553,0.447-1,1-1s1,0.447,1,1v2C26.5,25.053,26.053,25.5,25.5,25.5z"/>
			</g>
			<g>
				<path d="M35.5,24c-0.553,0-1-0.447-1-1v-0.5c0-0.553,0.447-1,1-1s1,0.447,1,1V23C36.5,23.553,36.053,24,35.5,24z"/>
			</g>
			<g>
				<path d="M37,27h-9.5c-0.553,0-1-0.447-1-1s0.447-1,1-1H37c0.553,0,1,0.447,1,1S37.553,27,37,27z"/>
			</g>
			<g>
				<path d="M28.5,24c-0.553,0-1-0.447-1-1v-0.5c0-0.553,0.447-1,1-1s1,0.447,1,1V23C29.5,23.553,29.053,24,28.5,24z"/>
			</g>
			<g>
				<path d="M35.5,24h-7c-0.553,0-1-0.447-1-1s0.447-1,1-1h7c0.553,0,1,0.447,1,1S36.053,24,35.5,24z"/>
			</g>
		</g>
		<g>
			<g>
				<path d="M28.5,46.5c-0.553,0-1-0.447-1-1c0-0.275-0.225-0.5-0.5-0.5s-0.5,0.225-0.5,0.5c0,0.553-0.447,1-1,1s-1-0.447-1-1
					c0-1.379,1.121-2.5,2.5-2.5s2.5,1.121,2.5,2.5C29.5,46.053,29.053,46.5,28.5,46.5z"/>
			</g>
			<g>
				<path d="M38.5,46.5c-0.553,0-1-0.447-1-1c0-0.275-0.225-0.5-0.5-0.5s-0.5,0.225-0.5,0.5c0,0.553-0.447,1-1,1s-1-0.447-1-1
					c0-1.379,1.121-2.5,2.5-2.5s2.5,1.121,2.5,2.5C39.5,46.053,39.053,46.5,38.5,46.5z"/>
			</g>
			<g>
				<path d="M37,50c-0.553,0-1-0.447-1-1s0.447-1,1-1c0.275,0,0.5-0.225,0.5-0.5c0-0.553,0.447-1,1-1s1,0.447,1,1
					C39.5,48.879,38.379,50,37,50z"/>
			</g>
			<g>
				<path d="M38.5,48.5c-0.553,0-1-0.447-1-1v-2c0-0.553,0.447-1,1-1s1,0.447,1,1v2C39.5,48.053,39.053,48.5,38.5,48.5z"/>
			</g>
			<g>
				<path d="M27,50c-1.379,0-2.5-1.121-2.5-2.5c0-0.553,0.447-1,1-1s1,0.447,1,1c0,0.275,0.225,0.5,0.5,0.5c0.553,0,1,0.447,1,1
					S27.553,50,27,50z"/>
			</g>
			<g>
				<path d="M25.5,48.5c-0.553,0-1-0.447-1-1v-2c0-0.553,0.447-1,1-1s1,0.447,1,1v2C26.5,48.053,26.053,48.5,25.5,48.5z"/>
			</g>
			<g>
				<path d="M35.5,47c-0.553,0-1-0.447-1-1v-0.5c0-0.553,0.447-1,1-1s1,0.447,1,1V46C36.5,46.553,36.053,47,35.5,47z"/>
			</g>
			<g>
				<path d="M37,50h-9.5c-0.553,0-1-0.447-1-1s0.447-1,1-1H37c0.553,0,1,0.447,1,1S37.553,50,37,50z"/>
			</g>
			<g>
				<path d="M28.5,47c-0.553,0-1-0.447-1-1v-0.5c0-0.553,0.447-1,1-1s1,0.447,1,1V46C29.5,46.553,29.053,47,28.5,47z"/>
			</g>
			<g>
				<path d="M35.5,47h-7c-0.553,0-1-0.447-1-1s0.447-1,1-1h7c0.553,0,1,0.447,1,1S36.053,47,35.5,47z"/>
			</g>
		</g>
	</g>
</g>
<g id="_x32_3_sprint_x2C__programming_x2C__code_x2C__business_x2C__office_x2C__corporation_x2C__job">
</g>
<g id="_x32_2_cram_x2C__tablet_x2C__work_x2C__business_x2C__office_x2C__corporation_x2C__job">
</g>
<g id="_x32_1_leader_x2C__discoverer_x2C__flag_x2C__business_x2C__office_x2C__corporation_x2C__job">
</g>
<g id="_x32_0_rally_x2C__collective_x2C__arm_x2C__business_x2C__office_x2C__corporation_x2C__job">
</g>
<g id="_x31_9_consolidation_x2C__portfolio_x2C__puzzle_x2C__business_x2C__office_x2C__corporation_x2C__job">
</g>
<g id="_x31_8_idea_x2C__creative_x2C__work_x2C__business_x2C__office_x2C__corporation_x2C__job">
</g>
<g id="_x31_7_problem_x2C__stress_x2C__resistance_x2C__business_x2C__office_x2C__corporation_x2C__job">
</g>
<g id="_x31_6_hard_x2C__skills_x2C__skill_x2C__portfolio_x2C__book_x2C__business_x2C__office">
</g>
<g id="_x31_5_time_x2C__management_x2C__clock_x2C__deadline_x2C__business_x2C__office_x2C__corporation">
</g>
<g id="_x31_4_multitasking_x2C__task_x2C__work_x2C__business_x2C__office_x2C__corporation_x2C__job">
</g>
<g id="_x31_3_tranquility_x2C__yoga_x2C__lotus_x2C__posture_x2C__business_x2C__office_x2C__corporation">
</g>
<g id="_x31_2_corporate_x2C__party_x2C__business_x2C__office_x2C__corporation_x2C__job">
</g>
<g id="_x31_1_dialog_x2C__discussion_x2C__work_x2C__business_x2C__office_x2C__corporation_x2C__job">
</g>
<g id="_x31_0_listening_x2C__skill_x2C__dialog_x2C__business_x2C__office_x2C__corporation_x2C__job">
</g>
<g id="_x39__training_x2C__book_x2C__lesson_x2C__business_x2C__office_x2C__corporation_x2C__job">
</g>
<g id="_x38__dress_x2C__code_x2C__shirt_x2C__business_x2C__office_x2C__corporation_x2C__job">
</g>
<g id="_x37__task_x2C__program_x2C__ticket_x2C__business_x2C__office_x2C__corporation_x2C__job">
</g>
<g id="_x36__plan_x2C__graph_x2C__stage_x2C__business_x2C__office_x2C__corporation_x2C__job">
</g>
<g id="_x35__boss_x2C__king_x2C__crown_x2C__business_x2C__office_x2C__corporation_x2C__job">
</g>
<g id="_x34__structure_x2C__structuring_x2C__business_x2C__office_x2C__corporation_x2C__job">
</g>
<g id="_x33__soft_x2C__skills_x2C__communication_x2C__business_x2C__office_x2C__corporation_x2C__job">
</g>
<g id="_x32__office_x2C__house_x2C__portfolio_x2C__business_x2C__corporation_x2C__job">
</g>
<g id="_x31__corporate_x2C__rules_x2C__book_x2C__business_x2C__office_x2C__corporation_x2C__job">
</g>
</svg>
