<?xml version="1.0" encoding="utf-8"?>
<!-- Generator: Adobe Illustrator 16.0.0, SVG Export Plug-In . SVG Version: 6.00 Build 0)  -->
<!DOCTYPE svg PUBLIC "-//W3C//DTD SVG 1.1//EN" "http://www.w3.org/Graphics/SVG/1.1/DTD/svg11.dtd">
<svg version="1.1" xmlns="http://www.w3.org/2000/svg" xmlns:xlink="http://www.w3.org/1999/xlink" x="0px" y="0px" width="64px"
	 height="64px" viewBox="0 0 64 64" enable-background="new 0 0 64 64" xml:space="preserve">
<g id="_x35_0_document_x2C__optimization_x2C__documentation_x2C__business_x2C__office_x2C__corporation_x2C__job">
</g>
<g id="_x34_9_human_x2C__resource_x2C__conveyor_x2C__business_x2C__office_x2C__corporation_x2C__job">
</g>
<g id="_x34_8_knowledge_x2C__training_x2C__growth_x2C__book_x2C__business_x2C__office_x2C__corporation">
</g>
<g id="_x34_7_skill_x2C__competence_x2C__experience_x2C__business_x2C__office_x2C__corporation_x2C__job">
</g>
<g id="_x34_6_target_x2C__success_x2C__victory_x2C__business_x2C__office_x2C__corporation_x2C__job">
</g>
<g id="_x34_5_inbox_x2C__letter_x2C__email_x2C__business_x2C__office_x2C__corporation_x2C__job">
</g>
<g id="_x34_4_document_x2C__workflow_x2C__sharing_x2C__business_x2C__office_x2C__corporation_x2C__job">
</g>
<g id="_x34_3_budget_x2C__allocation_x2C__money_x2C__business_x2C__office_x2C__corporation_x2C__job">
</g>
<g id="_x34_2_case_x2C__task_x2C__project_x2C__business_x2C__office_x2C__corporation_x2C__job">
</g>
<g id="_x34_1_structure_x2C__structuring_x2C__tasks_x2C__business_x2C__office_x2C__corporation_x2C__job">
</g>
<g id="_x34_0_choice_x2C__dilemma_x2C__question_x2C__business_x2C__office_x2C__corporation_x2C__job">
</g>
<g id="_x33_9_workplace_x2C__table_x2C__laptop_x2C__business_x2C__office_x2C__corporation_x2C__job">
</g>
<g id="_x33_8_bribe_x2C__bag_x2C__money_x2C__business_x2C__office_x2C__corporation_x2C__job">
</g>
<g id="_x33_7_corruption_x2C__forage_x2C__money_x2C__business_x2C__office_x2C__corporation_x2C__job">
</g>
<g id="_x33_6_career_x2C__ladder_x2C__success_x2C__business_x2C__office_x2C__corporation_x2C__job">
</g>
<g id="_x33_5_review_x2C__feedback_x2C__rating_x2C__business_x2C__office_x2C__corporation_x2C__job">
</g>
<g id="_x33_4_manipulation_x2C__thread_x2C__puppet_x2C__business_x2C__office_x2C__corporation_x2C__job">
</g>
<g id="_x33_3_location_x2C__map_x2C__pin_x2C__business_x2C__office_x2C__corporation_x2C__job">
</g>
<g id="_x33_2_retirement_x2C__old_x2C__man_x2C__door_x2C__business_x2C__office_x2C__corporation">
</g>
<g id="_x33_1_victory_x2C__success_x2C__medal_x2C__reward_x2C__business_x2C__office_x2C__corporation">
</g>
<g id="_x33_0_dismissal_x2C__box_x2C__door_x2C__business_x2C__office_x2C__corporation_x2C__job">
</g>
<g id="_x32_9_meeting_x2C__discussion_x2C__question_x2C__business_x2C__office_x2C__corporation_x2C__job">
	<g>
		<g>
			<path d="M32,10c-2.757,0-5-2.243-5-5s2.243-5,5-5s5,2.243,5,5S34.757,10,32,10z M32,2c-1.654,0-3,1.346-3,3s1.346,3,3,3
				s3-1.346,3-3S33.654,2,32,2z"/>
		</g>
		<g>
			<path d="M38.993,15.329c-0.019,0-0.036,0-0.055-0.001c-0.552-0.03-0.975-0.501-0.945-1.053C37.998,14.184,38,14.093,38,14
				c0-2.313-1.354-4.445-3.448-5.431c-0.5-0.235-0.714-0.831-0.479-1.331c0.236-0.5,0.83-0.714,1.331-0.479
				C38.195,8.073,40,10.916,40,14c0,0.128-0.002,0.256-0.009,0.383C39.962,14.916,39.521,15.329,38.993,15.329z"/>
		</g>
		<g>
			<path d="M25.006,15.329c-0.531,0-0.974-0.419-0.998-0.955C24.002,14.249,24,14.125,24,14c0-3.073,1.794-5.911,4.571-7.229
				c0.5-0.235,1.096-0.024,1.332,0.475c0.237,0.499,0.024,1.095-0.475,1.332C27.346,9.566,26,11.694,26,14
				c0,0.096,0.002,0.19,0.006,0.284c0.024,0.552-0.402,1.02-0.954,1.044C25.036,15.329,25.021,15.329,25.006,15.329z"/>
		</g>
		<g>
			<path d="M32,64c-2.757,0-5-2.243-5-5s2.243-5,5-5s5,2.243,5,5S34.757,64,32,64z M32,56c-1.654,0-3,1.346-3,3s1.346,3,3,3
				s3-1.346,3-3S33.654,56,32,56z"/>
		</g>
		<g>
			<path d="M29.021,57.336c-0.143,0-0.287-0.03-0.425-0.095C25.805,55.927,24,53.084,24,50c0-0.128,0.002-0.256,0.009-0.383
				c0.03-0.552,0.504-0.977,1.053-0.945c0.552,0.03,0.975,0.501,0.945,1.053C26.002,49.816,26,49.907,26,50
				c0,2.313,1.354,4.445,3.448,5.431c0.5,0.235,0.714,0.831,0.479,1.331C29.757,57.124,29.397,57.336,29.021,57.336z"/>
		</g>
		<g>
			<path d="M35.001,57.326c-0.374,0-0.733-0.211-0.904-0.571c-0.237-0.499-0.024-1.095,0.475-1.332C36.654,54.434,38,52.306,38,50
				c0-0.096-0.002-0.19-0.006-0.284c-0.024-0.552,0.402-1.02,0.954-1.044c0.536-0.029,1.019,0.402,1.044,0.954
				C39.998,49.751,40,49.875,40,50c0,3.073-1.794,5.911-4.571,7.229C35.29,57.295,35.145,57.326,35.001,57.326z"/>
		</g>
		<g>
			<path d="M31.978,52.002c-3.49,0-6.94-0.928-9.978-2.681c-4.624-2.67-7.933-6.983-9.316-12.146
				C11.301,32.014,12.009,26.624,14.679,22c3.562-6.169,10.208-10.002,17.344-10.002c3.49,0,6.94,0.928,9.978,2.681
				c4.624,2.67,7.933,6.983,9.316,12.146c1.383,5.162,0.675,10.552-1.995,15.176C45.76,48.169,39.113,52.002,31.978,52.002z
				 M32.022,13.998c-6.424,0-12.406,3.449-15.611,9.002c-2.403,4.161-3.04,9.012-1.796,13.658c1.245,4.646,4.223,8.528,8.385,10.931
				c2.733,1.578,5.838,2.413,8.978,2.413c6.424,0,12.406-3.449,15.611-9.002c2.403-4.161,3.04-9.012,1.796-13.658
				C48.14,22.695,45.162,18.813,41,16.411C38.267,14.833,35.162,13.998,32.022,13.998z"/>
		</g>
		<g>
			<path d="M8.612,23.501c-0.872,0-1.735-0.231-2.495-0.67c-2.388-1.38-3.208-4.444-1.83-6.831c0.891-1.542,2.551-2.5,4.334-2.5
				c0.873,0,1.736,0.231,2.496,0.67c2.387,1.378,3.208,4.442,1.831,6.83C12.057,22.543,10.396,23.501,8.612,23.501z M8.621,15.5
				c-1.07,0-2.067,0.574-2.602,1.5c-0.827,1.433-0.335,3.271,1.098,4.099c0.456,0.263,0.973,0.402,1.495,0.402
				c1.071,0,2.069-0.575,2.604-1.501c0.826-1.433,0.334-3.271-1.099-4.098C9.661,15.639,9.144,15.5,8.621,15.5z"/>
		</g>
		<g>
			<path d="M12.414,18.254c-0.316,0-0.628-0.149-0.822-0.43c-0.315-0.453-0.203-1.076,0.251-1.392
				c2.534-1.761,5.897-1.902,8.569-0.361c0.115,0.067,0.225,0.133,0.332,0.203c0.461,0.305,0.588,0.925,0.284,1.386
				c-0.304,0.46-0.924,0.587-1.386,0.284c-0.076-0.051-0.154-0.097-0.233-0.143c-2.003-1.155-4.523-1.048-6.426,0.273
				C12.81,18.196,12.611,18.254,12.414,18.254z"/>
		</g>
		<g>
			<path d="M13.199,30.221c-0.156,0-0.315-0.037-0.464-0.114c-0.107-0.057-0.213-0.115-0.319-0.176
				c-2.666-1.539-4.227-4.512-3.979-7.576c0.045-0.55,0.512-0.949,1.078-0.916c0.55,0.045,0.96,0.527,0.916,1.078
				c-0.187,2.298,0.984,4.527,2.981,5.68c0.081,0.047,0.167,0.094,0.253,0.139c0.489,0.257,0.678,0.861,0.421,1.351
				C13.906,30.026,13.559,30.221,13.199,30.221z"/>
		</g>
		<g>
			<path d="M55.378,50.501c-0.872,0-1.735-0.231-2.495-0.67c-2.387-1.379-3.208-4.443-1.831-6.831c0.892-1.542,2.553-2.5,4.335-2.5
				c0.873,0,1.736,0.231,2.496,0.67c2.388,1.379,3.208,4.442,1.83,6.83C58.822,49.543,57.161,50.501,55.378,50.501z M55.387,42.5
				c-1.07,0-2.068,0.574-2.603,1.5c-0.826,1.433-0.333,3.271,1.099,4.099c0.456,0.263,0.973,0.402,1.495,0.402
				c1.071,0,2.068-0.575,2.603-1.501c0.827-1.433,0.335-3.271-1.098-4.098C56.427,42.639,55.909,42.5,55.387,42.5z"/>
		</g>
		<g>
			<path d="M47.584,48.994c-1.38,0-2.762-0.354-3.996-1.065c-0.116-0.068-0.225-0.133-0.331-0.203
				c-0.461-0.305-0.588-0.925-0.284-1.386c0.305-0.461,0.924-0.587,1.386-0.284c0.077,0.051,0.156,0.098,0.236,0.145
				c1.996,1.153,4.521,1.047,6.421-0.275c0.455-0.315,1.077-0.204,1.393,0.25s0.203,1.077-0.25,1.393
				C50.794,48.515,49.19,48.994,47.584,48.994z"/>
		</g>
		<g>
			<path d="M54.567,42.564c-0.027,0-0.054-0.001-0.082-0.003c-0.55-0.045-0.96-0.527-0.916-1.078
				c0.187-2.298-0.984-4.527-2.981-5.68c-0.083-0.048-0.167-0.095-0.252-0.139c-0.489-0.257-0.678-0.861-0.421-1.351
				c0.258-0.489,0.861-0.674,1.351-0.421c0.108,0.058,0.216,0.116,0.322,0.178c2.662,1.537,4.223,4.51,3.976,7.574
				C55.521,42.168,55.083,42.564,54.567,42.564z"/>
		</g>
		<g>
			<path d="M8.622,50.501c-1.783,0-3.444-0.958-4.335-2.501c-1.378-2.387-0.558-5.451,1.83-6.83c0.76-0.438,1.623-0.67,2.496-0.67
				c1.782,0,3.443,0.958,4.335,2.499c1.376,2.389,0.556,5.452-1.829,6.832C10.357,50.27,9.495,50.501,8.622,50.501z M8.613,42.5
				c-0.522,0-1.04,0.139-1.496,0.402C5.685,43.729,5.192,45.567,6.02,47c0.534,0.926,1.531,1.501,2.603,1.501
				c0.522,0,1.04-0.14,1.497-0.402c1.43-0.827,1.923-2.666,1.097-4.1C10.681,43.075,9.684,42.5,8.613,42.5z"/>
		</g>
		<g>
			<path d="M9.435,42.59c-0.515,0-0.952-0.395-0.995-0.917c-0.258-3.076,1.302-6.06,3.973-7.602
				c0.129-0.073,0.235-0.134,0.346-0.188c0.495-0.245,1.094-0.041,1.34,0.453c0.245,0.495,0.042,1.095-0.453,1.34
				c-0.074,0.036-0.146,0.078-0.218,0.119c-2.018,1.165-3.188,3.403-2.995,5.712c0.047,0.55-0.362,1.033-0.913,1.079
				C9.49,42.589,9.462,42.59,9.435,42.59z"/>
		</g>
		<g>
			<path d="M16.412,48.993c-1.598,0-3.19-0.474-4.547-1.409c-0.454-0.314-0.568-0.937-0.255-1.392
				c0.313-0.456,0.936-0.567,1.392-0.255c1.896,1.311,4.413,1.411,6.41,0.259l0.25-0.151c0.467-0.294,1.084-0.152,1.378,0.315
				s0.152,1.085-0.315,1.378l-0.303,0.185C19.182,48.639,17.795,48.993,16.412,48.993z"/>
		</g>
		<g>
			<path d="M55.388,23.501c-1.782,0-3.444-0.958-4.336-2.5c-1.377-2.39-0.556-5.453,1.831-6.831c0.76-0.438,1.623-0.67,2.496-0.67
				c1.783,0,3.443,0.958,4.334,2.5c1.378,2.387,0.558,5.451-1.83,6.831C57.123,23.269,56.261,23.501,55.388,23.501z M55.379,15.5
				c-0.522,0-1.04,0.139-1.496,0.402c-1.432,0.826-1.925,2.665-1.099,4.099c0.535,0.925,1.532,1.5,2.604,1.5
				c0.522,0,1.04-0.14,1.495-0.402c1.433-0.827,1.925-2.666,1.098-4.099C57.446,16.074,56.449,15.5,55.379,15.5z"/>
		</g>
		<g>
			<path d="M50.8,30.22c-0.367,0-0.72-0.202-0.896-0.553c-0.247-0.494-0.047-1.095,0.447-1.342c0.081-0.041,0.159-0.084,0.236-0.129
				c2.004-1.156,3.174-3.396,2.98-5.702c-0.047-0.551,0.362-1.034,0.912-1.08c0.548-0.056,1.035,0.362,1.08,0.912
				c0.259,3.076-1.301,6.06-3.973,7.603c-0.112,0.064-0.224,0.127-0.342,0.186C51.103,30.186,50.95,30.22,50.8,30.22z"/>
		</g>
		<g>
			<path d="M51.565,18.239c-0.196,0-0.394-0.058-0.567-0.177c-1.896-1.311-4.413-1.411-6.41-0.259
				c-0.083,0.048-0.165,0.098-0.246,0.149c-0.468,0.295-1.084,0.155-1.38-0.312c-0.295-0.467-0.155-1.085,0.312-1.38
				c0.104-0.065,0.208-0.129,0.314-0.19c2.663-1.536,6.018-1.4,8.547,0.345c0.454,0.314,0.568,0.937,0.255,1.392
				C52.195,18.089,51.883,18.239,51.565,18.239z"/>
		</g>
		<g>
			<path d="M32,40c-0.553,0-1-0.447-1-1c0-3.515,2.082-5.002,3.919-6.313C36.641,31.457,38,30.485,38,28c0-3.309-2.691-6-6-6
				s-6,2.691-6,6c0,0.553-0.447,1-1,1s-1-0.447-1-1c0-4.411,3.589-8,8-8s8,3.589,8,8c0,3.515-2.082,5.002-3.919,6.313
				C34.359,35.543,33,36.515,33,39C33,39.553,32.553,40,32,40z"/>
		</g>
		<g>
			<path d="M32.03,45c-0.553,0-1.005-0.447-1.005-1s0.442-1,0.994-1h0.011c0.552,0,1,0.447,1,1S32.582,45,32.03,45z"/>
		</g>
	</g>
</g>
<g id="_x32_8_strategy_x2C__vision_x2C__eye_x2C__chess_x2C__business_x2C__office_x2C__corporation">
</g>
<g id="_x32_7_board_x2C__task_x2C__process_x2C__business_x2C__office_x2C__corporation_x2C__job">
</g>
<g id="_x32_6_scheme_x2C__board_x2C__structure_x2C__business_x2C__office_x2C__corporation_x2C__job">
</g>
<g id="_x32_5_conflict_x2C__dialog_x2C__discussion_x2C__business_x2C__office_x2C__corporation_x2C__job">
</g>
<g id="_x32_4_documentation_x2C__document_x2C__repository_x2C__business_x2C__office_x2C__corporation_x2C__job">
</g>
<g id="_x32_3_sprint_x2C__programming_x2C__code_x2C__business_x2C__office_x2C__corporation_x2C__job">
</g>
<g id="_x32_2_cram_x2C__tablet_x2C__work_x2C__business_x2C__office_x2C__corporation_x2C__job">
</g>
<g id="_x32_1_leader_x2C__discoverer_x2C__flag_x2C__business_x2C__office_x2C__corporation_x2C__job">
</g>
<g id="_x32_0_rally_x2C__collective_x2C__arm_x2C__business_x2C__office_x2C__corporation_x2C__job">
</g>
<g id="_x31_9_consolidation_x2C__portfolio_x2C__puzzle_x2C__business_x2C__office_x2C__corporation_x2C__job">
</g>
<g id="_x31_8_idea_x2C__creative_x2C__work_x2C__business_x2C__office_x2C__corporation_x2C__job">
</g>
<g id="_x31_7_problem_x2C__stress_x2C__resistance_x2C__business_x2C__office_x2C__corporation_x2C__job">
</g>
<g id="_x31_6_hard_x2C__skills_x2C__skill_x2C__portfolio_x2C__book_x2C__business_x2C__office">
</g>
<g id="_x31_5_time_x2C__management_x2C__clock_x2C__deadline_x2C__business_x2C__office_x2C__corporation">
</g>
<g id="_x31_4_multitasking_x2C__task_x2C__work_x2C__business_x2C__office_x2C__corporation_x2C__job">
</g>
<g id="_x31_3_tranquility_x2C__yoga_x2C__lotus_x2C__posture_x2C__business_x2C__office_x2C__corporation">
</g>
<g id="_x31_2_corporate_x2C__party_x2C__business_x2C__office_x2C__corporation_x2C__job">
</g>
<g id="_x31_1_dialog_x2C__discussion_x2C__work_x2C__business_x2C__office_x2C__corporation_x2C__job">
</g>
<g id="_x31_0_listening_x2C__skill_x2C__dialog_x2C__business_x2C__office_x2C__corporation_x2C__job">
</g>
<g id="_x39__training_x2C__book_x2C__lesson_x2C__business_x2C__office_x2C__corporation_x2C__job">
</g>
<g id="_x38__dress_x2C__code_x2C__shirt_x2C__business_x2C__office_x2C__corporation_x2C__job">
</g>
<g id="_x37__task_x2C__program_x2C__ticket_x2C__business_x2C__office_x2C__corporation_x2C__job">
</g>
<g id="_x36__plan_x2C__graph_x2C__stage_x2C__business_x2C__office_x2C__corporation_x2C__job">
</g>
<g id="_x35__boss_x2C__king_x2C__crown_x2C__business_x2C__office_x2C__corporation_x2C__job">
</g>
<g id="_x34__structure_x2C__structuring_x2C__business_x2C__office_x2C__corporation_x2C__job">
</g>
<g id="_x33__soft_x2C__skills_x2C__communication_x2C__business_x2C__office_x2C__corporation_x2C__job">
</g>
<g id="_x32__office_x2C__house_x2C__portfolio_x2C__business_x2C__corporation_x2C__job">
</g>
<g id="_x31__corporate_x2C__rules_x2C__book_x2C__business_x2C__office_x2C__corporation_x2C__job">
</g>
</svg>
