<?xml version="1.0" encoding="utf-8"?>
<!-- Generator: Adobe Illustrator 16.0.0, SVG Export Plug-In . SVG Version: 6.00 Build 0)  -->
<!DOCTYPE svg PUBLIC "-//W3C//DTD SVG 1.1//EN" "http://www.w3.org/Graphics/SVG/1.1/DTD/svg11.dtd">
<svg version="1.1" xmlns="http://www.w3.org/2000/svg" xmlns:xlink="http://www.w3.org/1999/xlink" x="0px" y="0px" width="64px"
	 height="64px" viewBox="0 0 64 64" enable-background="new 0 0 64 64" xml:space="preserve">
<g id="_x35_0_document_x2C__optimization_x2C__documentation_x2C__business_x2C__office_x2C__corporation_x2C__job">
</g>
<g id="_x34_9_human_x2C__resource_x2C__conveyor_x2C__business_x2C__office_x2C__corporation_x2C__job">
</g>
<g id="_x34_8_knowledge_x2C__training_x2C__growth_x2C__book_x2C__business_x2C__office_x2C__corporation">
</g>
<g id="_x34_7_skill_x2C__competence_x2C__experience_x2C__business_x2C__office_x2C__corporation_x2C__job">
</g>
<g id="_x34_6_target_x2C__success_x2C__victory_x2C__business_x2C__office_x2C__corporation_x2C__job">
</g>
<g id="_x34_5_inbox_x2C__letter_x2C__email_x2C__business_x2C__office_x2C__corporation_x2C__job">
</g>
<g id="_x34_4_document_x2C__workflow_x2C__sharing_x2C__business_x2C__office_x2C__corporation_x2C__job">
</g>
<g id="_x34_3_budget_x2C__allocation_x2C__money_x2C__business_x2C__office_x2C__corporation_x2C__job">
</g>
<g id="_x34_2_case_x2C__task_x2C__project_x2C__business_x2C__office_x2C__corporation_x2C__job">
</g>
<g id="_x34_1_structure_x2C__structuring_x2C__tasks_x2C__business_x2C__office_x2C__corporation_x2C__job">
</g>
<g id="_x34_0_choice_x2C__dilemma_x2C__question_x2C__business_x2C__office_x2C__corporation_x2C__job">
</g>
<g id="_x33_9_workplace_x2C__table_x2C__laptop_x2C__business_x2C__office_x2C__corporation_x2C__job">
</g>
<g id="_x33_8_bribe_x2C__bag_x2C__money_x2C__business_x2C__office_x2C__corporation_x2C__job">
</g>
<g id="_x33_7_corruption_x2C__forage_x2C__money_x2C__business_x2C__office_x2C__corporation_x2C__job">
</g>
<g id="_x33_6_career_x2C__ladder_x2C__success_x2C__business_x2C__office_x2C__corporation_x2C__job">
</g>
<g id="_x33_5_review_x2C__feedback_x2C__rating_x2C__business_x2C__office_x2C__corporation_x2C__job">
</g>
<g id="_x33_4_manipulation_x2C__thread_x2C__puppet_x2C__business_x2C__office_x2C__corporation_x2C__job">
</g>
<g id="_x33_3_location_x2C__map_x2C__pin_x2C__business_x2C__office_x2C__corporation_x2C__job">
</g>
<g id="_x33_2_retirement_x2C__old_x2C__man_x2C__door_x2C__business_x2C__office_x2C__corporation">
</g>
<g id="_x33_1_victory_x2C__success_x2C__medal_x2C__reward_x2C__business_x2C__office_x2C__corporation">
</g>
<g id="_x33_0_dismissal_x2C__box_x2C__door_x2C__business_x2C__office_x2C__corporation_x2C__job">
	<g>
		<g id="_x33_7_avatar_x2C__man_x2C__style_x2C__people_x2C__hairstyle_x2C__barbershop_3_">
			<g>
				<g>
					<g>
						<path d="M1,54.003c-0.553,0-1-0.447-1-1c0-4.964,4.038-9.002,9.002-9.002c0.553,0,1,0.447,1,1s-0.447,1-1,1
							C5.141,46.001,2,49.142,2,53.003C2,53.556,1.553,54.003,1,54.003z"/>
					</g>
					<g>
						<path d="M45,54.002c-0.553,0-1-0.447-1-1c0-3.859-3.141-7-7-7c-0.553,0-1-0.447-1-1s0.447-1,1-1c4.963,0,9,4.037,9,9
							C46,53.555,45.553,54.002,45,54.002z"/>
					</g>
					<g>
						<path d="M16,46.002L16,46.002l-6.998-0.001c-0.553,0-1-0.448-1-1c0-0.553,0.448-1,1-1l0,0L16,44.002c0.553,0,1,0.448,1,1
							C17,45.555,16.552,46.002,16,46.002z"/>
					</g>
					<g>
						<path d="M37,46.002L37,46.002l-7-0.001c-0.553,0-1-0.448-1-1c0-0.553,0.448-1,1-1l0,0l7,0.001c0.553,0,1,0.448,1,1
							C38,45.555,37.552,46.002,37,46.002z"/>
					</g>
					<g>
						<path d="M1.001,63c-0.552,0-1-0.447-1-1L0,53.003c0-0.552,0.447-1,1-1c0.552,0,1,0.447,1,1L2.001,62
							C2.001,62.552,1.554,63,1.001,63z"/>
					</g>
					<g>
						<path d="M45,63c-0.553,0-1-0.447-1-1v-8.998c0-0.553,0.447-1,1-1s1,0.447,1,1V62C46,62.553,45.553,63,45,63z"/>
					</g>
				</g>
				<g>
					<path d="M16,46.002c-0.553,0-1-0.447-1-1v-5.731c0-0.553,0.447-1,1-1s1,0.447,1,1v5.731C17,45.555,16.553,46.002,16,46.002z"/>
				</g>
				<g>
					<path d="M30,46.001c-0.553,0-1-0.447-1-1v-5.73c0-0.553,0.447-1,1-1s1,0.447,1,1v5.73C31,45.554,30.553,46.001,30,46.001z"/>
				</g>
				<g>
					<path d="M23,42.001c-8.822,0-16-7.178-16-16c0-0.553,0.447-1,1-1s1,0.447,1,1c0,7.72,6.28,14,14,14s14-6.28,14-14
						c0-0.553,0.447-1,1-1s1,0.447,1,1C39,34.823,31.822,42.001,23,42.001z"/>
				</g>
				<g>
					<path d="M8,27.001c-0.553,0-1-0.447-1-1V19c0-0.553,0.447-1,1-1s1,0.447,1,1v7.001C9,26.554,8.553,27.001,8,27.001z"/>
				</g>
				<g>
					<path d="M38,27.001c-0.553,0-1-0.447-1-1v-3.539c0-0.553,0.447-1,1-1s1,0.447,1,1v3.539C39,26.554,38.553,27.001,38,27.001z"/>
				</g>
			</g>
			<g>
				<path d="M40,19c-0.553,0-1-0.447-1-1c0-8.271-6.729-15-15-15c-0.553,0-1-0.447-1-1s0.447-1,1-1c9.374,0,17,7.626,17,17
					C41,18.553,40.553,19,40,19z"/>
			</g>
			<g>
				<path d="M8,20c-0.553,0-1-0.447-1-1C7,7.852,10.015,2.699,10.143,2.485c0.224-0.37,0.657-0.558,1.08-0.46l5,1.141
					c0.538,0.122,0.875,0.658,0.752,1.197c-0.122,0.538-0.661,0.877-1.197,0.752l-4.235-0.966C10.799,5.784,9,10.608,9,19
					C9,19.553,8.553,20,8,20z"/>
			</g>
			<g>
				<path d="M16.001,5.141c-0.346,0-0.682-0.179-0.866-0.499c-0.277-0.479-0.113-1.09,0.364-1.366C18.072,1.787,21.012,1,24,1
					c0.553,0,1,0.447,1,1s-0.447,1-1,1c-2.637,0-5.23,0.693-7.499,2.006C16.343,5.098,16.171,5.141,16.001,5.141z"/>
			</g>
			<g>
				<path d="M40,24c-0.553,0-1-0.447-1-1v-5c0-0.553,0.447-1,1-1s1,0.447,1,1v5C41,23.553,40.553,24,40,24z"/>
			</g>
			<g>
				<path d="M40.001,24c-0.086,0-0.174-0.011-0.261-0.034l-26-7c-0.533-0.144-0.85-0.692-0.706-1.226
					c0.145-0.533,0.696-0.848,1.226-0.706l26,7c0.533,0.144,0.85,0.692,0.706,1.226C40.846,23.706,40.441,24,40.001,24z"/>
			</g>
			<g>
				<path d="M8.001,21c-0.323,0-0.641-0.156-0.833-0.445c-0.307-0.46-0.183-1.08,0.277-1.387l6-4
					c0.461-0.306,1.08-0.183,1.387,0.277s0.183,1.08-0.277,1.387l-6,4C8.384,20.945,8.191,21,8.001,21z"/>
			</g>
			<g>
				<path d="M23,49.002c-5.473,0-7.738-3.305-7.832-3.445c-0.307-0.46-0.183-1.08,0.277-1.387c0.46-0.304,1.075-0.182,1.383,0.271
					c0.078,0.112,1.826,2.561,6.172,2.561c4.414,0,6.151-2.529,6.168-2.555c0.306-0.46,0.926-0.584,1.387-0.277
					c0.46,0.307,0.584,0.927,0.277,1.387C30.738,45.697,28.473,49.002,23,49.002z"/>
			</g>
		</g>
		<g>
			<path d="M8,63c-0.553,0-1-0.447-1-1v-7c0-0.553,0.447-1,1-1s1,0.447,1,1v7C9,62.553,8.553,63,8,63z"/>
		</g>
		<g>
			<path d="M38,56H8c-0.553,0-1-0.447-1-1s0.447-1,1-1h30c0.553,0,1,0.447,1,1S38.553,56,38,56z"/>
		</g>
		<g>
			<path d="M38,63c-0.553,0-1-0.447-1-1v-7c0-0.553,0.447-1,1-1s1,0.447,1,1v7C39,62.553,38.553,63,38,63z"/>
		</g>
		<g>
			<path d="M8,56c-0.256,0-0.512-0.098-0.707-0.293c-0.391-0.391-0.391-1.023,0-1.414l3-3c0.391-0.391,1.023-0.391,1.414,0
				s0.391,1.023,0,1.414l-3,3C8.512,55.902,8.256,56,8,56z"/>
		</g>
		<g>
			<path d="M38.001,56c-0.323,0-0.641-0.156-0.833-0.445l-2-3c-0.307-0.46-0.183-1.08,0.277-1.387
				c0.461-0.307,1.081-0.183,1.387,0.277l2,3c0.307,0.46,0.183,1.08-0.277,1.387C38.384,55.945,38.191,56,38.001,56z"/>
		</g>
		<g>
			<path d="M36,53H11c-0.553,0-1-0.447-1-1s0.447-1,1-1h25c0.553,0,1,0.447,1,1S36.553,53,36,53z"/>
		</g>
		<g>
			<path d="M27.001,63h-8c-1.654,0-3-1.346-3-3c0-1.653,1.346-2.999,3-2.999h8C28.654,57.001,30,58.347,30,60
				C30,61.654,28.654,63,27.001,63z M19.001,59.001c-0.552,0-1,0.448-1,0.999c0,0.552,0.448,1,1,1h8C27.552,61,28,60.552,28,60
				c0-0.551-0.448-0.999-0.999-0.999H19.001z"/>
		</g>
		<g>
			<path d="M45,36c-0.553,0-1-0.447-1-1V8c0-0.553,0.447-1,1-1s1,0.447,1,1v27C46,35.553,45.553,36,45,36z"/>
		</g>
		<g>
			<path d="M51,39c-0.553,0-1-0.447-1-1V5c0-0.553,0.447-1,1-1s1,0.447,1,1v33C52,38.553,51.553,39,51,39z"/>
		</g>
		<g>
			<path d="M50.999,39c-0.448,0-0.855-0.303-0.969-0.758c-0.135-0.535,0.191-1.078,0.728-1.212l12-3
				c0.533-0.136,1.078,0.191,1.212,0.728c0.135,0.535-0.191,1.078-0.728,1.212l-12,3C51.161,38.99,51.079,39,50.999,39z"/>
		</g>
		<g>
			<path d="M63.001,9c-0.08,0-0.162-0.01-0.243-0.03l-12-3c-0.536-0.134-0.862-0.677-0.728-1.212
				c0.133-0.536,0.677-0.865,1.212-0.728l12,3c0.536,0.134,0.862,0.677,0.728,1.212C63.856,8.697,63.449,9,63.001,9z"/>
		</g>
		<g>
			<path d="M54,24c-0.553,0-1-0.447-1-1v-3c0-0.553,0.447-1,1-1s1,0.447,1,1v3C55,23.553,54.553,24,54,24z"/>
		</g>
		<g>
			<path d="M63,36c-0.553,0-1-0.447-1-1V8c0-0.553,0.447-1,1-1s1,0.447,1,1v27C64,35.553,63.553,36,63,36z"/>
		</g>
		<g>
			<path d="M51,9h-6c-0.553,0-1-0.447-1-1s0.447-1,1-1h6c0.553,0,1,0.447,1,1S51.553,9,51,9z"/>
		</g>
		<g>
			<path d="M51,36h-6c-0.553,0-1-0.447-1-1s0.447-1,1-1h6c0.553,0,1,0.447,1,1S51.553,36,51,36z"/>
		</g>
	</g>
</g>
<g id="_x32_9_meeting_x2C__discussion_x2C__question_x2C__business_x2C__office_x2C__corporation_x2C__job">
</g>
<g id="_x32_8_strategy_x2C__vision_x2C__eye_x2C__chess_x2C__business_x2C__office_x2C__corporation">
</g>
<g id="_x32_7_board_x2C__task_x2C__process_x2C__business_x2C__office_x2C__corporation_x2C__job">
</g>
<g id="_x32_6_scheme_x2C__board_x2C__structure_x2C__business_x2C__office_x2C__corporation_x2C__job">
</g>
<g id="_x32_5_conflict_x2C__dialog_x2C__discussion_x2C__business_x2C__office_x2C__corporation_x2C__job">
</g>
<g id="_x32_4_documentation_x2C__document_x2C__repository_x2C__business_x2C__office_x2C__corporation_x2C__job">
</g>
<g id="_x32_3_sprint_x2C__programming_x2C__code_x2C__business_x2C__office_x2C__corporation_x2C__job">
</g>
<g id="_x32_2_cram_x2C__tablet_x2C__work_x2C__business_x2C__office_x2C__corporation_x2C__job">
</g>
<g id="_x32_1_leader_x2C__discoverer_x2C__flag_x2C__business_x2C__office_x2C__corporation_x2C__job">
</g>
<g id="_x32_0_rally_x2C__collective_x2C__arm_x2C__business_x2C__office_x2C__corporation_x2C__job">
</g>
<g id="_x31_9_consolidation_x2C__portfolio_x2C__puzzle_x2C__business_x2C__office_x2C__corporation_x2C__job">
</g>
<g id="_x31_8_idea_x2C__creative_x2C__work_x2C__business_x2C__office_x2C__corporation_x2C__job">
</g>
<g id="_x31_7_problem_x2C__stress_x2C__resistance_x2C__business_x2C__office_x2C__corporation_x2C__job">
</g>
<g id="_x31_6_hard_x2C__skills_x2C__skill_x2C__portfolio_x2C__book_x2C__business_x2C__office">
</g>
<g id="_x31_5_time_x2C__management_x2C__clock_x2C__deadline_x2C__business_x2C__office_x2C__corporation">
</g>
<g id="_x31_4_multitasking_x2C__task_x2C__work_x2C__business_x2C__office_x2C__corporation_x2C__job">
</g>
<g id="_x31_3_tranquility_x2C__yoga_x2C__lotus_x2C__posture_x2C__business_x2C__office_x2C__corporation">
</g>
<g id="_x31_2_corporate_x2C__party_x2C__business_x2C__office_x2C__corporation_x2C__job">
</g>
<g id="_x31_1_dialog_x2C__discussion_x2C__work_x2C__business_x2C__office_x2C__corporation_x2C__job">
</g>
<g id="_x31_0_listening_x2C__skill_x2C__dialog_x2C__business_x2C__office_x2C__corporation_x2C__job">
</g>
<g id="_x39__training_x2C__book_x2C__lesson_x2C__business_x2C__office_x2C__corporation_x2C__job">
</g>
<g id="_x38__dress_x2C__code_x2C__shirt_x2C__business_x2C__office_x2C__corporation_x2C__job">
</g>
<g id="_x37__task_x2C__program_x2C__ticket_x2C__business_x2C__office_x2C__corporation_x2C__job">
</g>
<g id="_x36__plan_x2C__graph_x2C__stage_x2C__business_x2C__office_x2C__corporation_x2C__job">
</g>
<g id="_x35__boss_x2C__king_x2C__crown_x2C__business_x2C__office_x2C__corporation_x2C__job">
</g>
<g id="_x34__structure_x2C__structuring_x2C__business_x2C__office_x2C__corporation_x2C__job">
</g>
<g id="_x33__soft_x2C__skills_x2C__communication_x2C__business_x2C__office_x2C__corporation_x2C__job">
</g>
<g id="_x32__office_x2C__house_x2C__portfolio_x2C__business_x2C__corporation_x2C__job">
</g>
<g id="_x31__corporate_x2C__rules_x2C__book_x2C__business_x2C__office_x2C__corporation_x2C__job">
</g>
</svg>
