<?xml version="1.0" encoding="utf-8"?>
<!-- Generator: Adobe Illustrator 16.0.0, SVG Export Plug-In . SVG Version: 6.00 Build 0)  -->
<!DOCTYPE svg PUBLIC "-//W3C//DTD SVG 1.1//EN" "http://www.w3.org/Graphics/SVG/1.1/DTD/svg11.dtd">
<svg version="1.1" xmlns="http://www.w3.org/2000/svg" xmlns:xlink="http://www.w3.org/1999/xlink" x="0px" y="0px" width="64px"
	 height="64px" viewBox="0 0 64 64" enable-background="new 0 0 64 64" xml:space="preserve">
<g id="_x35_0_document_x2C__optimization_x2C__documentation_x2C__business_x2C__office_x2C__corporation_x2C__job">
</g>
<g id="_x34_9_human_x2C__resource_x2C__conveyor_x2C__business_x2C__office_x2C__corporation_x2C__job">
</g>
<g id="_x34_8_knowledge_x2C__training_x2C__growth_x2C__book_x2C__business_x2C__office_x2C__corporation">
</g>
<g id="_x34_7_skill_x2C__competence_x2C__experience_x2C__business_x2C__office_x2C__corporation_x2C__job">
</g>
<g id="_x34_6_target_x2C__success_x2C__victory_x2C__business_x2C__office_x2C__corporation_x2C__job">
</g>
<g id="_x34_5_inbox_x2C__letter_x2C__email_x2C__business_x2C__office_x2C__corporation_x2C__job">
</g>
<g id="_x34_4_document_x2C__workflow_x2C__sharing_x2C__business_x2C__office_x2C__corporation_x2C__job">
</g>
<g id="_x34_3_budget_x2C__allocation_x2C__money_x2C__business_x2C__office_x2C__corporation_x2C__job">
</g>
<g id="_x34_2_case_x2C__task_x2C__project_x2C__business_x2C__office_x2C__corporation_x2C__job">
</g>
<g id="_x34_1_structure_x2C__structuring_x2C__tasks_x2C__business_x2C__office_x2C__corporation_x2C__job">
</g>
<g id="_x34_0_choice_x2C__dilemma_x2C__question_x2C__business_x2C__office_x2C__corporation_x2C__job">
</g>
<g id="_x33_9_workplace_x2C__table_x2C__laptop_x2C__business_x2C__office_x2C__corporation_x2C__job">
</g>
<g id="_x33_8_bribe_x2C__bag_x2C__money_x2C__business_x2C__office_x2C__corporation_x2C__job">
</g>
<g id="_x33_7_corruption_x2C__forage_x2C__money_x2C__business_x2C__office_x2C__corporation_x2C__job">
</g>
<g id="_x33_6_career_x2C__ladder_x2C__success_x2C__business_x2C__office_x2C__corporation_x2C__job">
</g>
<g id="_x33_5_review_x2C__feedback_x2C__rating_x2C__business_x2C__office_x2C__corporation_x2C__job">
</g>
<g id="_x33_4_manipulation_x2C__thread_x2C__puppet_x2C__business_x2C__office_x2C__corporation_x2C__job">
</g>
<g id="_x33_3_location_x2C__map_x2C__pin_x2C__business_x2C__office_x2C__corporation_x2C__job">
</g>
<g id="_x33_2_retirement_x2C__old_x2C__man_x2C__door_x2C__business_x2C__office_x2C__corporation">
	<g>
		<g id="_x34_1_avatar_x2C__man_x2C__style_x2C__people_x2C__hairstyle_x2C__barbershop_3_">
			<g>
				<g>
					<path d="M1,53.003c-0.553,0-1-0.447-1-1c0-4.964,4.038-9.002,9.002-9.002c0.553,0,1,0.447,1,1s-0.447,1-1,1
						C5.141,45.001,2,48.142,2,52.003C2,52.556,1.553,53.003,1,53.003z"/>
				</g>
				<g>
					<path d="M45,53.002c-0.553,0-1-0.447-1-1c0-3.859-3.141-7-7-7c-0.553,0-1-0.447-1-1s0.447-1,1-1c4.963,0,9,4.037,9,9
						C46,52.555,45.553,53.002,45,53.002z"/>
				</g>
				<g>
					<path d="M16,45.002L16,45.002l-6.998-0.001c-0.553,0-1-0.448-1-1c0-0.553,0.448-1,1-1l0,0L16,43.002c0.553,0,1,0.448,1,1
						C17,44.555,16.552,45.002,16,45.002z"/>
				</g>
				<g>
					<path d="M37,45.002L37,45.002l-7-0.001c-0.553,0-1-0.448-1-1c0-0.553,0.448-1,1-1l0,0l7,0.001c0.553,0,1,0.448,1,1
						C38,44.555,37.552,45.002,37,45.002z"/>
				</g>
				<g>
					<path d="M1.001,62c-0.552,0-1-0.447-1-1L0,52.003c0-0.552,0.447-1,1-1c0.552,0,1,0.447,1,1L2.001,61
						C2.001,61.552,1.554,62,1.001,62z"/>
				</g>
				<g>
					<path d="M45,62c-0.553,0-1-0.447-1-1v-8.998c0-0.553,0.447-1,1-1s1,0.447,1,1V61C46,61.553,45.553,62,45,62z"/>
				</g>
			</g>
			<g>
				<path d="M16,45.002c-0.553,0-1-0.447-1-1v-5.731c0-0.553,0.447-1,1-1s1,0.447,1,1v5.731C17,44.555,16.553,45.002,16,45.002z"/>
			</g>
			<g>
				<path d="M30,45.001c-0.553,0-1-0.447-1-1v-5.73c0-0.553,0.447-1,1-1s1,0.447,1,1v5.73C31,44.554,30.553,45.001,30,45.001z"/>
			</g>
			<g>
				<path d="M23,41.001c-8.822,0-16-7.178-16-16c0-0.553,0.447-1,1-1s1,0.447,1,1c0,7.72,6.28,14,14,14s14-6.28,14-14
					c0-0.553,0.447-1,1-1s1,0.447,1,1C39,33.823,31.822,41.001,23,41.001z"/>
			</g>
			<g>
				<path d="M38,19c-0.553,0-1-0.447-1-1c0-7.72-6.28-14-14-14S9,10.28,9,18c0,0.553-0.447,1-1,1s-1-0.447-1-1
					C7,9.178,14.178,2,23,2s16,7.178,16,16C39,18.553,38.553,19,38,19z"/>
			</g>
			<g>
				<path d="M8,26.001c-0.553,0-1-0.447-1-1V18c0-0.553,0.447-1,1-1s1,0.447,1,1v7.001C9,25.554,8.553,26.001,8,26.001z"/>
			</g>
			<g>
				<path d="M38,26.001c-0.553,0-1-0.447-1-1V18c0-0.553,0.447-1,1-1s1,0.447,1,1v7.001C39,25.554,38.553,26.001,38,26.001z"/>
			</g>
			<g>
				<path d="M8,20c-0.553,0-1-0.447-1-1c0-4.963,4.037-9,9-9c0.553,0,1,0.447,1,1s-0.447,1-1,1c-3.859,0-7,3.141-7,7
					C9,19.553,8.553,20,8,20z"/>
			</g>
			<g>
				<path d="M16,12c-0.553,0-1-0.447-1-1V4.731c0-0.553,0.447-1,1-1s1,0.447,1,1V11C17,11.553,16.553,12,16,12z"/>
			</g>
			<g>
				<path d="M38,20c-0.553,0-1-0.447-1-1c0-3.859-3.141-7-7-7c-0.553,0-1-0.447-1-1s0.447-1,1-1c4.963,0,9,4.037,9,9
					C39,19.553,38.553,20,38,20z"/>
			</g>
			<g>
				<path d="M30,12c-0.553,0-1-0.447-1-1V4.731c0-0.553,0.447-1,1-1s1,0.447,1,1V11C31,11.553,30.553,12,30,12z"/>
			</g>
			<g>
				<path d="M27,7.684c-0.11,0-0.224-0.019-0.333-0.058c-2.352-0.83-4.982-0.83-7.334,0c-0.518,0.186-1.092-0.088-1.275-0.609
					c-0.185-0.521,0.088-1.092,0.609-1.275c2.779-0.984,5.887-0.984,8.666,0c0.521,0.184,0.794,0.755,0.609,1.275
					C27.798,7.428,27.412,7.684,27,7.684z"/>
			</g>
			<g>
				<path d="M26.997,10.937c-0.149,0-0.302-0.033-0.444-0.104c-2.22-1.104-4.89-1.104-7.107,0c-0.493,0.248-1.095,0.044-1.341-0.45
					s-0.044-1.095,0.45-1.341c2.775-1.38,6.11-1.382,8.889,0c0.494,0.246,0.696,0.847,0.45,1.341
					C27.719,10.733,27.365,10.937,26.997,10.937z"/>
			</g>
			<g>
				<g>
					<path d="M21,24h-8c-0.553,0-1-0.447-1-1v-4c0-0.553,0.447-1,1-1h8c0.553,0,1,0.447,1,1v4C22,23.553,21.553,24,21,24z M14,22h6
						v-2h-6V22z"/>
				</g>
				<g>
					<path d="M33,24h-8c-0.553,0-1-0.447-1-1v-4c0-0.553,0.447-1,1-1h8c0.553,0,1,0.447,1,1v4C34,23.553,33.553,24,33,24z M26,22h6
						v-2h-6V22z"/>
				</g>
				<g>
					<path d="M25,22h-4c-0.553,0-1-0.447-1-1s0.447-1,1-1h4c0.553,0,1,0.447,1,1S25.553,22,25,22z"/>
				</g>
			</g>
			<g>
				<path d="M19.999,47c-0.15,0-0.303-0.034-0.446-0.105l-4-1.998c-0.494-0.247-0.694-0.848-0.447-1.342
					c0.246-0.494,0.848-0.692,1.342-0.447l4,1.998c0.494,0.247,0.694,0.848,0.447,1.342C20.72,46.798,20.366,47,19.999,47z"/>
			</g>
			<g>
				<path d="M20,47c-0.419,0-0.809-0.265-0.948-0.684c-0.175-0.524,0.108-1.091,0.632-1.265l3-1c0.529-0.177,1.09,0.108,1.265,0.632
					c0.175,0.524-0.108,1.091-0.632,1.265l-3,1C20.211,46.983,20.104,47,20,47z"/>
			</g>
			<g>
				<path d="M26,47c-0.104,0-0.211-0.017-0.316-0.052l-3-1c-0.523-0.174-0.807-0.74-0.632-1.265
					c0.174-0.523,0.735-0.809,1.265-0.632l3,1c0.523,0.174,0.807,0.74,0.632,1.265C26.809,46.735,26.419,47,26,47z"/>
			</g>
			<g>
				<path d="M26.001,47c-0.367,0-0.721-0.202-0.896-0.553c-0.247-0.494-0.047-1.095,0.447-1.342l4-1.999
					c0.494-0.244,1.095-0.047,1.342,0.447s0.047,1.095-0.447,1.342l-4,1.999C26.304,46.966,26.151,47,26.001,47z"/>
			</g>
		</g>
		<g>
			<path d="M59,51c-0.553,0-1-0.447-1-1c0-2.206-1.794-4-4-4s-4,1.794-4,4c0,0.553-0.447,1-1,1s-1-0.447-1-1c0-3.309,2.691-6,6-6
				s6,2.691,6,6C60,50.553,59.553,51,59,51z"/>
		</g>
		<g>
			<path d="M56,51c-0.553,0-1-0.447-1-1c0-0.552-0.448-1-1-1s-1,0.448-1,1c0,0.553-0.447,1-1,1s-1-0.447-1-1c0-1.654,1.346-3,3-3
				s3,1.346,3,3C57,50.553,56.553,51,56,51z"/>
		</g>
		<g>
			<path d="M49,62c-0.553,0-1-0.447-1-1V50c0-0.553,0.447-1,1-1s1,0.447,1,1v11C50,61.553,49.553,62,49,62z"/>
		</g>
		<g>
			<path d="M52,62c-0.553,0-1-0.447-1-1V50c0-0.553,0.447-1,1-1s1,0.447,1,1v11C53,61.553,52.553,62,52,62z"/>
		</g>
		<g>
			<path d="M57.5,53c-1.379,0-2.5-1.121-2.5-2.5c0-0.553,0.447-1,1-1s1,0.447,1,1c0,0.275,0.225,0.5,0.5,0.5s0.5-0.225,0.5-0.5
				c0-0.553,0.447-1,1-1s1,0.447,1,1C60,51.879,58.879,53,57.5,53z"/>
		</g>
		<g>
			<path d="M59,51.5c-0.553,0-1-0.447-1-1V50c0-0.553,0.447-1,1-1s1,0.447,1,1v0.5C60,51.053,59.553,51.5,59,51.5z"/>
		</g>
		<g>
			<path d="M56,51.5c-0.553,0-1-0.447-1-1V50c0-0.553,0.447-1,1-1s1,0.447,1,1v0.5C57,51.053,56.553,51.5,56,51.5z"/>
		</g>
		<g>
			<g>
				<path d="M8,62c-0.553,0-1-0.447-1-1v-7c0-0.553,0.447-1,1-1s1,0.447,1,1v7C9,61.553,8.553,62,8,62z"/>
			</g>
			<g>
				<path d="M38,55H8c-0.553,0-1-0.447-1-1s0.447-1,1-1h30c0.553,0,1,0.447,1,1S38.553,55,38,55z"/>
			</g>
			<g>
				<path d="M38,62c-0.553,0-1-0.447-1-1v-7c0-0.553,0.447-1,1-1s1,0.447,1,1v7C39,61.553,38.553,62,38,62z"/>
			</g>
			<g>
				<path d="M8,55c-0.256,0-0.512-0.098-0.707-0.293c-0.391-0.391-0.391-1.023,0-1.414l3-3c0.391-0.391,1.023-0.391,1.414,0
					s0.391,1.023,0,1.414l-3,3C8.512,54.902,8.256,55,8,55z"/>
			</g>
			<g>
				<path d="M38.001,55c-0.323,0-0.641-0.156-0.833-0.445l-2-3c-0.307-0.46-0.183-1.08,0.277-1.387
					c0.461-0.306,1.08-0.183,1.387,0.277l2,3c0.307,0.46,0.183,1.08-0.277,1.387C38.384,54.945,38.191,55,38.001,55z"/>
			</g>
			<g>
				<path d="M36,52H11c-0.553,0-1-0.447-1-1s0.447-1,1-1h25c0.553,0,1,0.447,1,1S36.553,52,36,52z"/>
			</g>
			<g>
				<path d="M27.001,62h-8c-1.654,0-3-1.346-3-3c0-1.653,1.346-2.999,3-2.999h8C28.654,56.001,30,57.347,30,59
					C30,60.654,28.654,62,27.001,62z M19.001,58.001c-0.552,0-1,0.448-1,0.999c0,0.552,0.448,1,1,1h8C27.552,60,28,59.552,28,59
					c0-0.551-0.448-0.999-0.999-0.999H19.001z"/>
			</g>
			<g>
				<path d="M45,34c-0.553,0-1-0.447-1-1V6c0-0.553,0.447-1,1-1s1,0.447,1,1v27C46,33.553,45.553,34,45,34z"/>
			</g>
			<g>
				<path d="M51,37c-0.553,0-1-0.447-1-1V3c0-0.553,0.447-1,1-1s1,0.447,1,1v33C52,36.553,51.553,37,51,37z"/>
			</g>
			<g>
				<path d="M50.999,37c-0.448,0-0.855-0.303-0.969-0.758c-0.135-0.535,0.191-1.078,0.728-1.212l12-3
					c0.535-0.138,1.078,0.19,1.212,0.728c0.135,0.535-0.191,1.078-0.728,1.212l-12,3C51.161,36.99,51.079,37,50.999,37z"/>
			</g>
			<g>
				<path d="M63.001,7c-0.08,0-0.162-0.01-0.243-0.03l-12-3c-0.536-0.134-0.862-0.677-0.728-1.212
					c0.134-0.536,0.676-0.864,1.212-0.728l12,3c0.536,0.134,0.862,0.677,0.728,1.212C63.856,6.697,63.449,7,63.001,7z"/>
			</g>
			<g>
				<path d="M54,22c-0.553,0-1-0.447-1-1v-3c0-0.553,0.447-1,1-1s1,0.447,1,1v3C55,21.553,54.553,22,54,22z"/>
			</g>
			<g>
				<path d="M63,34c-0.553,0-1-0.447-1-1V6c0-0.553,0.447-1,1-1s1,0.447,1,1v27C64,33.553,63.553,34,63,34z"/>
			</g>
			<g>
				<path d="M51,7h-6c-0.553,0-1-0.447-1-1s0.447-1,1-1h6c0.553,0,1,0.447,1,1S51.553,7,51,7z"/>
			</g>
			<g>
				<path d="M51,34h-6c-0.553,0-1-0.447-1-1s0.447-1,1-1h6c0.553,0,1,0.447,1,1S51.553,34,51,34z"/>
			</g>
		</g>
	</g>
</g>
<g id="_x33_1_victory_x2C__success_x2C__medal_x2C__reward_x2C__business_x2C__office_x2C__corporation">
</g>
<g id="_x33_0_dismissal_x2C__box_x2C__door_x2C__business_x2C__office_x2C__corporation_x2C__job">
</g>
<g id="_x32_9_meeting_x2C__discussion_x2C__question_x2C__business_x2C__office_x2C__corporation_x2C__job">
</g>
<g id="_x32_8_strategy_x2C__vision_x2C__eye_x2C__chess_x2C__business_x2C__office_x2C__corporation">
</g>
<g id="_x32_7_board_x2C__task_x2C__process_x2C__business_x2C__office_x2C__corporation_x2C__job">
</g>
<g id="_x32_6_scheme_x2C__board_x2C__structure_x2C__business_x2C__office_x2C__corporation_x2C__job">
</g>
<g id="_x32_5_conflict_x2C__dialog_x2C__discussion_x2C__business_x2C__office_x2C__corporation_x2C__job">
</g>
<g id="_x32_4_documentation_x2C__document_x2C__repository_x2C__business_x2C__office_x2C__corporation_x2C__job">
</g>
<g id="_x32_3_sprint_x2C__programming_x2C__code_x2C__business_x2C__office_x2C__corporation_x2C__job">
</g>
<g id="_x32_2_cram_x2C__tablet_x2C__work_x2C__business_x2C__office_x2C__corporation_x2C__job">
</g>
<g id="_x32_1_leader_x2C__discoverer_x2C__flag_x2C__business_x2C__office_x2C__corporation_x2C__job">
</g>
<g id="_x32_0_rally_x2C__collective_x2C__arm_x2C__business_x2C__office_x2C__corporation_x2C__job">
</g>
<g id="_x31_9_consolidation_x2C__portfolio_x2C__puzzle_x2C__business_x2C__office_x2C__corporation_x2C__job">
</g>
<g id="_x31_8_idea_x2C__creative_x2C__work_x2C__business_x2C__office_x2C__corporation_x2C__job">
</g>
<g id="_x31_7_problem_x2C__stress_x2C__resistance_x2C__business_x2C__office_x2C__corporation_x2C__job">
</g>
<g id="_x31_6_hard_x2C__skills_x2C__skill_x2C__portfolio_x2C__book_x2C__business_x2C__office">
</g>
<g id="_x31_5_time_x2C__management_x2C__clock_x2C__deadline_x2C__business_x2C__office_x2C__corporation">
</g>
<g id="_x31_4_multitasking_x2C__task_x2C__work_x2C__business_x2C__office_x2C__corporation_x2C__job">
</g>
<g id="_x31_3_tranquility_x2C__yoga_x2C__lotus_x2C__posture_x2C__business_x2C__office_x2C__corporation">
</g>
<g id="_x31_2_corporate_x2C__party_x2C__business_x2C__office_x2C__corporation_x2C__job">
</g>
<g id="_x31_1_dialog_x2C__discussion_x2C__work_x2C__business_x2C__office_x2C__corporation_x2C__job">
</g>
<g id="_x31_0_listening_x2C__skill_x2C__dialog_x2C__business_x2C__office_x2C__corporation_x2C__job">
</g>
<g id="_x39__training_x2C__book_x2C__lesson_x2C__business_x2C__office_x2C__corporation_x2C__job">
</g>
<g id="_x38__dress_x2C__code_x2C__shirt_x2C__business_x2C__office_x2C__corporation_x2C__job">
</g>
<g id="_x37__task_x2C__program_x2C__ticket_x2C__business_x2C__office_x2C__corporation_x2C__job">
</g>
<g id="_x36__plan_x2C__graph_x2C__stage_x2C__business_x2C__office_x2C__corporation_x2C__job">
</g>
<g id="_x35__boss_x2C__king_x2C__crown_x2C__business_x2C__office_x2C__corporation_x2C__job">
</g>
<g id="_x34__structure_x2C__structuring_x2C__business_x2C__office_x2C__corporation_x2C__job">
</g>
<g id="_x33__soft_x2C__skills_x2C__communication_x2C__business_x2C__office_x2C__corporation_x2C__job">
</g>
<g id="_x32__office_x2C__house_x2C__portfolio_x2C__business_x2C__corporation_x2C__job">
</g>
<g id="_x31__corporate_x2C__rules_x2C__book_x2C__business_x2C__office_x2C__corporation_x2C__job">
</g>
</svg>
