<?xml version="1.0" encoding="utf-8"?>
<!-- Generator: Adobe Illustrator 16.0.0, SVG Export Plug-In . SVG Version: 6.00 Build 0)  -->
<!DOCTYPE svg PUBLIC "-//W3C//DTD SVG 1.1//EN" "http://www.w3.org/Graphics/SVG/1.1/DTD/svg11.dtd">
<svg version="1.1" xmlns="http://www.w3.org/2000/svg" xmlns:xlink="http://www.w3.org/1999/xlink" x="0px" y="0px" width="64px"
	 height="64px" viewBox="0 0 64 64" enable-background="new 0 0 64 64" xml:space="preserve">
<g id="_x35_0_document_x2C__optimization_x2C__documentation_x2C__business_x2C__office_x2C__corporation_x2C__job">
</g>
<g id="_x34_9_human_x2C__resource_x2C__conveyor_x2C__business_x2C__office_x2C__corporation_x2C__job">
</g>
<g id="_x34_8_knowledge_x2C__training_x2C__growth_x2C__book_x2C__business_x2C__office_x2C__corporation">
</g>
<g id="_x34_7_skill_x2C__competence_x2C__experience_x2C__business_x2C__office_x2C__corporation_x2C__job">
</g>
<g id="_x34_6_target_x2C__success_x2C__victory_x2C__business_x2C__office_x2C__corporation_x2C__job">
</g>
<g id="_x34_5_inbox_x2C__letter_x2C__email_x2C__business_x2C__office_x2C__corporation_x2C__job">
</g>
<g id="_x34_4_document_x2C__workflow_x2C__sharing_x2C__business_x2C__office_x2C__corporation_x2C__job">
</g>
<g id="_x34_3_budget_x2C__allocation_x2C__money_x2C__business_x2C__office_x2C__corporation_x2C__job">
</g>
<g id="_x34_2_case_x2C__task_x2C__project_x2C__business_x2C__office_x2C__corporation_x2C__job">
</g>
<g id="_x34_1_structure_x2C__structuring_x2C__tasks_x2C__business_x2C__office_x2C__corporation_x2C__job">
</g>
<g id="_x34_0_choice_x2C__dilemma_x2C__question_x2C__business_x2C__office_x2C__corporation_x2C__job">
</g>
<g id="_x33_9_workplace_x2C__table_x2C__laptop_x2C__business_x2C__office_x2C__corporation_x2C__job">
</g>
<g id="_x33_8_bribe_x2C__bag_x2C__money_x2C__business_x2C__office_x2C__corporation_x2C__job">
</g>
<g id="_x33_7_corruption_x2C__forage_x2C__money_x2C__business_x2C__office_x2C__corporation_x2C__job">
</g>
<g id="_x33_6_career_x2C__ladder_x2C__success_x2C__business_x2C__office_x2C__corporation_x2C__job">
</g>
<g id="_x33_5_review_x2C__feedback_x2C__rating_x2C__business_x2C__office_x2C__corporation_x2C__job">
</g>
<g id="_x33_4_manipulation_x2C__thread_x2C__puppet_x2C__business_x2C__office_x2C__corporation_x2C__job">
	<g>
		<g>
			<g>
				<g>
					<path d="M32,47c-5.514,0-10-4.486-10-10c0-0.553,0.447-1,1-1s1,0.447,1,1c0,4.411,3.589,8,8,8s8-3.589,8-8c0-0.553,0.447-1,1-1
						s1,0.447,1,1C42,42.514,37.514,47,32,47z"/>
				</g>
				<g>
					<path d="M23,38c-0.553,0-1-0.447-1-1v-7c0-0.553,0.447-1,1-1s1,0.447,1,1v7C24,37.553,23.553,38,23,38z"/>
				</g>
				<g>
					<path d="M41,38c-0.553,0-1-0.447-1-1v-7.001c0-0.553,0.447-1,1-1s1,0.447,1,1V37C42,37.553,41.553,38,41,38z"/>
				</g>
			</g>
			<g>
				<path d="M23,64c-0.553,0-1-0.447-1-1V53c0-0.553,0.447-1,1-1s1,0.447,1,1v10C24,63.553,23.553,64,23,64z"/>
			</g>
			<g>
				<path d="M41,64c-0.553,0-1-0.447-1-1V53c0-0.553,0.447-1,1-1s1,0.447,1,1v10C42,63.553,41.553,64,41,64z"/>
			</g>
			<g>
				<path d="M28,49c-0.553,0-1-0.447-1-1v-2.937c0-0.553,0.447-1,1-1s1,0.447,1,1V48C29,48.553,28.553,49,28,49z"/>
			</g>
			<g>
				<path d="M36,49c-0.553,0-1-0.447-1-1v-2.937c0-0.553,0.447-1,1-1s1,0.447,1,1V48C37,48.553,36.553,49,36,49z"/>
			</g>
			<g>
				<g>
					<g>
						<path d="M53.999,56c-0.553,0-1-0.447-1-1c0-0.552-0.448-1-1-1c-0.553,0-1-0.447-1-1s0.447-1,1-1c1.654,0,3,1.346,3,3
							C54.999,55.553,54.552,56,53.999,56z"/>
					</g>
					<g>
						<path d="M59,56c-0.553,0-1-0.447-1-1c0-3.309-2.691-6-6-6c-0.553,0-1-0.447-1-1s0.447-1,1-1c4.411,0,8,3.589,8,8
							C60,55.553,59.553,56,59,56z"/>
					</g>
					<g>
						<path d="M56.5,59c-1.93,0-3.5-1.57-3.5-3.5c0-0.553,0.447-1,1-1s1,0.447,1,1c0,0.827,0.673,1.5,1.5,1.5s1.5-0.673,1.5-1.5
							c0-0.553,0.447-1,1-1s1,0.447,1,1C60,57.43,58.43,59,56.5,59z"/>
					</g>
					<g>
						<path d="M59,56.5c-0.553,0-1-0.447-1-1V55c0-0.553,0.447-1,1-1s1,0.447,1,1v0.5C60,56.053,59.553,56.5,59,56.5z"/>
					</g>
					<g>
						<path d="M54,56.5c-0.553,0-1-0.447-1-1V55c0-0.553,0.447-1,1-1s1,0.447,1,1v0.5C55,56.053,54.553,56.5,54,56.5z"/>
					</g>
				</g>
				<g>
					<path d="M52,49.001H36c-0.553,0-1-0.447-1-1s0.447-1,1-1h16c0.553,0,1,0.447,1,1S52.553,49.001,52,49.001z"/>
				</g>
				<g>
					<path d="M52,54H41.065c-0.553,0-1-0.447-1-1s0.447-1,1-1H52c0.553,0,1,0.447,1,1S52.553,54,52,54z"/>
				</g>
			</g>
			<g>
				<g>
					<g>
						<path d="M10.001,56c-0.553,0-1-0.447-1-1c0-1.654,1.346-3,3-3c0.553,0,1,0.447,1,1s-0.447,1-1,1c-0.552,0-1,0.448-1,1
							C11.001,55.553,10.554,56,10.001,56z"/>
					</g>
					<g>
						<path d="M5,56c-0.553,0-1-0.447-1-1c0-4.411,3.589-8,8-8c0.553,0,1,0.447,1,1s-0.447,1-1,1c-3.309,0-6,2.691-6,6
							C6,55.553,5.553,56,5,56z"/>
					</g>
					<g>
						<path d="M7.5,59C5.57,59,4,57.43,4,55.5c0-0.553,0.447-1,1-1s1,0.447,1,1C6,56.327,6.673,57,7.5,57S9,56.327,9,55.5
							c0-0.553,0.447-1,1-1s1,0.447,1,1C11,57.43,9.43,59,7.5,59z"/>
					</g>
					<g>
						<path d="M5,56.5c-0.553,0-1-0.447-1-1V55c0-0.553,0.447-1,1-1s1,0.447,1,1v0.5C6,56.053,5.553,56.5,5,56.5z"/>
					</g>
					<g>
						<path d="M10,56.5c-0.553,0-1-0.447-1-1V55c0-0.553,0.447-1,1-1s1,0.447,1,1v0.5C11,56.053,10.553,56.5,10,56.5z"/>
					</g>
				</g>
				<g>
					<path d="M28,49.001H12c-0.553,0-1-0.447-1-1s0.447-1,1-1h16c0.553,0,1,0.447,1,1S28.553,49.001,28,49.001z"/>
				</g>
				<g>
					<path d="M22.935,54H12c-0.553,0-1-0.447-1-1s0.447-1,1-1h10.935c0.553,0,1,0.447,1,1S23.487,54,22.935,54z"/>
				</g>
			</g>
			<g>
				<g>
					<path d="M41,30.999c-0.553,0-1-0.447-1-1C40,28.346,38.654,27,37,27c-0.553,0-1-0.447-1-1s0.447-1,1-1c2.757,0,5,2.242,5,4.999
						C42,30.552,41.553,30.999,41,30.999z"/>
				</g>
				<g>
					<path d="M37,27c-0.553,0-1-0.447-1-1v-4c0-0.553,0.447-1,1-1s1,0.447,1,1v4C38,26.553,37.553,27,37,27z"/>
				</g>
				<g>
					<path d="M23,31c-0.553,0-1-0.447-1-1c0-4.963,4.037-9,9-9c0.553,0,1,0.447,1,1s-0.447,1-1,1c-3.859,0-7,3.141-7,7
						C24,30.553,23.553,31,23,31z"/>
				</g>
				<g>
					<g>
						<path d="M40.999,34.025c-0.192,0-0.387-0.056-0.559-0.171l-3-2.025c-0.458-0.31-0.578-0.931-0.27-1.389
							c0.31-0.457,0.93-0.577,1.389-0.27l3,2.025c0.458,0.31,0.578,0.931,0.27,1.389C41.636,33.871,41.32,34.025,40.999,34.025z"/>
					</g>
					<g>
						<path d="M32.5,33c-3.612,0-6.687-1.008-6.815-1.051c-0.523-0.175-0.807-0.74-0.634-1.264c0.174-0.523,0.74-0.809,1.264-0.635
							C26.344,30.061,29.223,31,32.5,31c3.178,0,5.04-0.888,5.059-0.897c0.493-0.24,1.094-0.037,1.337,0.457s0.043,1.09-0.449,1.336
							C38.355,31.94,36.186,33,32.5,33z"/>
					</g>
					<g>
						<path d="M23.001,34.025c-0.321,0-0.637-0.154-0.83-0.44c-0.309-0.458-0.188-1.079,0.27-1.389l3-2.025
							c0.46-0.308,1.08-0.188,1.389,0.27c0.309,0.458,0.188,1.079-0.27,1.389l-3,2.025C23.388,33.97,23.193,34.025,23.001,34.025z"
							/>
					</g>
				</g>
			</g>
			<g>
				<path d="M37,23h-6c-0.553,0-1-0.447-1-1s0.447-1,1-1h6c0.553,0,1,0.447,1,1S37.553,23,37,23z"/>
			</g>
		</g>
		<g>
			<path d="M52,54c-0.553,0-1-0.447-1-1V9c0-0.553,0.447-1,1-1s1,0.447,1,1v44C53,53.553,52.553,54,52,54z"/>
		</g>
		<g>
			<path d="M12,54c-0.553,0-1-0.447-1-1V9c0-0.553,0.447-1,1-1s1,0.447,1,1v44C13,53.553,12.553,54,12,54z"/>
		</g>
		<g>
			<path d="M31,10H8c-0.553,0-1-0.447-1-1V5c0-0.553,0.447-1,1-1h19c0.553,0,1,0.447,1,1s-0.447,1-1,1H9v2h22c0.553,0,1,0.447,1,1
				S31.553,10,31,10z"/>
		</g>
		<g>
			<path d="M56,10H37c-0.553,0-1-0.447-1-1s0.447-1,1-1h18V6H33c-0.553,0-1-0.447-1-1s0.447-1,1-1h23c0.553,0,1,0.447,1,1v4
				C57,9.553,56.553,10,56,10z"/>
		</g>
		<g>
			<path d="M41,14h-6c-0.266,0-0.52-0.105-0.707-0.293l-12-12c-0.286-0.286-0.372-0.716-0.217-1.09C22.23,0.243,22.596,0,23,0h6
				c0.266,0,0.52,0.105,0.707,0.293l12,12c0.286,0.286,0.372,0.716,0.217,1.09C41.77,13.757,41.404,14,41,14z M35.414,12h3.172
				l-10-10h-3.172L35.414,12z"/>
		</g>
		<g>
			<path d="M32,23c-0.553,0-1-0.447-1-1V10.6c0-0.553,0.447-1,1-1s1,0.447,1,1V22C33,22.553,32.553,23,32,23z"/>
		</g>
		<g>
			<path d="M32.03,56c-0.553,0-1.005-0.447-1.005-1s0.442-1,0.994-1h0.011c0.552,0,1,0.447,1,1S32.582,56,32.03,56z"/>
		</g>
		<g>
			<path d="M32.03,61c-0.553,0-1.005-0.447-1.005-1s0.442-1,0.994-1h0.011c0.552,0,1,0.447,1,1S32.582,61,32.03,61z"/>
		</g>
		<g>
			<path d="M34,51c-0.256,0-0.512-0.098-0.707-0.293c-0.391-0.391-0.391-1.023,0-1.414l2-2c0.391-0.391,1.023-0.391,1.414,0
				s0.391,1.023,0,1.414l-2,2C34.512,50.902,34.256,51,34,51z"/>
		</g>
		<g>
			<path d="M33.999,51c-0.15,0-0.303-0.034-0.446-0.105l-2-1c-0.494-0.247-0.694-0.848-0.447-1.342
				c0.248-0.494,0.849-0.693,1.342-0.447l2,1c0.494,0.247,0.694,0.848,0.447,1.342C34.719,50.798,34.366,51,33.999,51z"/>
		</g>
		<g>
			<path d="M30.001,51c-0.367,0-0.72-0.202-0.896-0.553c-0.247-0.494-0.047-1.095,0.447-1.342l2-1
				c0.493-0.246,1.094-0.047,1.342,0.447c0.247,0.494,0.047,1.095-0.447,1.342l-2,1C30.304,50.966,30.151,51,30.001,51z"/>
		</g>
		<g>
			<path d="M30,51c-0.256,0-0.512-0.098-0.707-0.293l-2-2c-0.391-0.391-0.391-1.023,0-1.414s1.023-0.391,1.414,0l2,2
				c0.391,0.391,0.391,1.023,0,1.414C30.512,50.902,30.256,51,30,51z"/>
		</g>
	</g>
</g>
<g id="_x33_3_location_x2C__map_x2C__pin_x2C__business_x2C__office_x2C__corporation_x2C__job">
</g>
<g id="_x33_2_retirement_x2C__old_x2C__man_x2C__door_x2C__business_x2C__office_x2C__corporation">
</g>
<g id="_x33_1_victory_x2C__success_x2C__medal_x2C__reward_x2C__business_x2C__office_x2C__corporation">
</g>
<g id="_x33_0_dismissal_x2C__box_x2C__door_x2C__business_x2C__office_x2C__corporation_x2C__job">
</g>
<g id="_x32_9_meeting_x2C__discussion_x2C__question_x2C__business_x2C__office_x2C__corporation_x2C__job">
</g>
<g id="_x32_8_strategy_x2C__vision_x2C__eye_x2C__chess_x2C__business_x2C__office_x2C__corporation">
</g>
<g id="_x32_7_board_x2C__task_x2C__process_x2C__business_x2C__office_x2C__corporation_x2C__job">
</g>
<g id="_x32_6_scheme_x2C__board_x2C__structure_x2C__business_x2C__office_x2C__corporation_x2C__job">
</g>
<g id="_x32_5_conflict_x2C__dialog_x2C__discussion_x2C__business_x2C__office_x2C__corporation_x2C__job">
</g>
<g id="_x32_4_documentation_x2C__document_x2C__repository_x2C__business_x2C__office_x2C__corporation_x2C__job">
</g>
<g id="_x32_3_sprint_x2C__programming_x2C__code_x2C__business_x2C__office_x2C__corporation_x2C__job">
</g>
<g id="_x32_2_cram_x2C__tablet_x2C__work_x2C__business_x2C__office_x2C__corporation_x2C__job">
</g>
<g id="_x32_1_leader_x2C__discoverer_x2C__flag_x2C__business_x2C__office_x2C__corporation_x2C__job">
</g>
<g id="_x32_0_rally_x2C__collective_x2C__arm_x2C__business_x2C__office_x2C__corporation_x2C__job">
</g>
<g id="_x31_9_consolidation_x2C__portfolio_x2C__puzzle_x2C__business_x2C__office_x2C__corporation_x2C__job">
</g>
<g id="_x31_8_idea_x2C__creative_x2C__work_x2C__business_x2C__office_x2C__corporation_x2C__job">
</g>
<g id="_x31_7_problem_x2C__stress_x2C__resistance_x2C__business_x2C__office_x2C__corporation_x2C__job">
</g>
<g id="_x31_6_hard_x2C__skills_x2C__skill_x2C__portfolio_x2C__book_x2C__business_x2C__office">
</g>
<g id="_x31_5_time_x2C__management_x2C__clock_x2C__deadline_x2C__business_x2C__office_x2C__corporation">
</g>
<g id="_x31_4_multitasking_x2C__task_x2C__work_x2C__business_x2C__office_x2C__corporation_x2C__job">
</g>
<g id="_x31_3_tranquility_x2C__yoga_x2C__lotus_x2C__posture_x2C__business_x2C__office_x2C__corporation">
</g>
<g id="_x31_2_corporate_x2C__party_x2C__business_x2C__office_x2C__corporation_x2C__job">
</g>
<g id="_x31_1_dialog_x2C__discussion_x2C__work_x2C__business_x2C__office_x2C__corporation_x2C__job">
</g>
<g id="_x31_0_listening_x2C__skill_x2C__dialog_x2C__business_x2C__office_x2C__corporation_x2C__job">
</g>
<g id="_x39__training_x2C__book_x2C__lesson_x2C__business_x2C__office_x2C__corporation_x2C__job">
</g>
<g id="_x38__dress_x2C__code_x2C__shirt_x2C__business_x2C__office_x2C__corporation_x2C__job">
</g>
<g id="_x37__task_x2C__program_x2C__ticket_x2C__business_x2C__office_x2C__corporation_x2C__job">
</g>
<g id="_x36__plan_x2C__graph_x2C__stage_x2C__business_x2C__office_x2C__corporation_x2C__job">
</g>
<g id="_x35__boss_x2C__king_x2C__crown_x2C__business_x2C__office_x2C__corporation_x2C__job">
</g>
<g id="_x34__structure_x2C__structuring_x2C__business_x2C__office_x2C__corporation_x2C__job">
</g>
<g id="_x33__soft_x2C__skills_x2C__communication_x2C__business_x2C__office_x2C__corporation_x2C__job">
</g>
<g id="_x32__office_x2C__house_x2C__portfolio_x2C__business_x2C__corporation_x2C__job">
</g>
<g id="_x31__corporate_x2C__rules_x2C__book_x2C__business_x2C__office_x2C__corporation_x2C__job">
</g>
</svg>
