<?xml version="1.0" encoding="utf-8"?>
<!-- Generator: Adobe Illustrator 16.0.0, SVG Export Plug-In . SVG Version: 6.00 Build 0)  -->
<!DOCTYPE svg PUBLIC "-//W3C//DTD SVG 1.1//EN" "http://www.w3.org/Graphics/SVG/1.1/DTD/svg11.dtd">
<svg version="1.1" xmlns="http://www.w3.org/2000/svg" xmlns:xlink="http://www.w3.org/1999/xlink" x="0px" y="0px" width="64px"
	 height="64px" viewBox="0 0 64 64" enable-background="new 0 0 64 64" xml:space="preserve">
<g id="_x35_0_document_x2C__optimization_x2C__documentation_x2C__business_x2C__office_x2C__corporation_x2C__job">
</g>
<g id="_x34_9_human_x2C__resource_x2C__conveyor_x2C__business_x2C__office_x2C__corporation_x2C__job">
</g>
<g id="_x34_8_knowledge_x2C__training_x2C__growth_x2C__book_x2C__business_x2C__office_x2C__corporation">
</g>
<g id="_x34_7_skill_x2C__competence_x2C__experience_x2C__business_x2C__office_x2C__corporation_x2C__job">
</g>
<g id="_x34_6_target_x2C__success_x2C__victory_x2C__business_x2C__office_x2C__corporation_x2C__job">
</g>
<g id="_x34_5_inbox_x2C__letter_x2C__email_x2C__business_x2C__office_x2C__corporation_x2C__job">
</g>
<g id="_x34_4_document_x2C__workflow_x2C__sharing_x2C__business_x2C__office_x2C__corporation_x2C__job">
</g>
<g id="_x34_3_budget_x2C__allocation_x2C__money_x2C__business_x2C__office_x2C__corporation_x2C__job">
</g>
<g id="_x34_2_case_x2C__task_x2C__project_x2C__business_x2C__office_x2C__corporation_x2C__job">
</g>
<g id="_x34_1_structure_x2C__structuring_x2C__tasks_x2C__business_x2C__office_x2C__corporation_x2C__job">
</g>
<g id="_x34_0_choice_x2C__dilemma_x2C__question_x2C__business_x2C__office_x2C__corporation_x2C__job">
	<g>
		<g>
			<g>
				<path d="M57.53,30c-0.553,0-1.005-0.447-1.005-1s0.442-1,0.994-1h0.011c0.552,0,1,0.447,1,1S58.082,30,57.53,30z"/>
			</g>
			<g>
				<path d="M57.5,27c-0.553,0-1-0.447-1-1c0-2.254,1.469-3.306,2.649-4.151C60.41,20.945,61.5,20.166,61.5,18c0-2.206-1.794-4-4-4
					s-4,1.794-4,4c0,0.553-0.447,1-1,1s-1-0.447-1-1c0-3.309,2.691-6,6-6s6,2.691,6,6c0,3.193-1.767,4.459-3.187,5.475
					C59.122,24.328,58.5,24.828,58.5,26C58.5,26.553,58.053,27,57.5,27z"/>
			</g>
		</g>
		<g>
			<g>
				<path d="M6.53,30c-0.553,0-1.005-0.447-1.005-1s0.442-1,0.994-1H6.53c0.552,0,1,0.447,1,1S7.082,30,6.53,30z"/>
			</g>
			<g>
				<path d="M6.5,27c-0.553,0-1-0.447-1-1c0-2.254,1.469-3.306,2.649-4.151C9.41,20.945,10.5,20.166,10.5,18c0-2.206-1.794-4-4-4
					s-4,1.794-4,4c0,0.553-0.447,1-1,1s-1-0.447-1-1c0-3.309,2.691-6,6-6s6,2.691,6,6c0,3.193-1.767,4.459-3.187,5.475
					C8.122,24.328,7.5,24.828,7.5,26C7.5,26.553,7.053,27,6.5,27z"/>
			</g>
		</g>
		<g>
			<path d="M50.5,48c-0.553,0-1-0.447-1-1c0-3.309-2.691-6-6-6c-0.553,0-1-0.447-1-1s0.447-1,1-1c4.411,0,8,3.589,8,8
				C51.5,47.553,51.053,48,50.5,48z"/>
		</g>
		<g>
			<path d="M43.5,41h-5c-0.553,0-1-0.447-1-1s0.447-1,1-1h5c0.553,0,1,0.447,1,1S44.053,41,43.5,41z"/>
		</g>
		<g>
			<path d="M50.5,58c-0.553,0-1-0.447-1-1v-9.855c0-0.553,0.447-1,1-1s1,0.447,1,1V57C51.5,57.553,51.053,58,50.5,58z"/>
		</g>
		<g>
			<path d="M14.5,48c-0.553,0-1-0.447-1-1c0-4.411,3.589-8,8-8c0.553,0,1,0.447,1,1s-0.447,1-1,1c-3.309,0-6,2.691-6,6
				C15.5,47.553,15.053,48,14.5,48z"/>
		</g>
		<g>
			<path d="M26.5,41h-5c-0.553,0-1-0.447-1-1s0.447-1,1-1h5c0.553,0,1,0.447,1,1S27.053,41,26.5,41z"/>
		</g>
		<g>
			<path d="M14.5,58c-0.553,0-1-0.447-1-1v-9.855c0-0.553,0.447-1,1-1s1,0.447,1,1V57C15.5,57.553,15.053,58,14.5,58z"/>
		</g>
		<g>
			<path d="M26.5,41c-0.553,0-1-0.447-1-1v-4.348c0-0.553,0.447-1,1-1s1,0.447,1,1V40C27.5,40.553,27.053,41,26.5,41z"/>
		</g>
		<g>
			<path d="M38.5,41c-0.553,0-1-0.447-1-1v-4.348c0-0.553,0.447-1,1-1s1,0.447,1,1V40C39.5,40.553,39.053,41,38.5,41z"/>
		</g>
		<g>
			<path d="M32.5,38c-8.271,0-15-6.729-15-15c0-0.553,0.447-1,1-1s1,0.447,1,1c0,7.168,5.832,13,13,13s13-5.832,13-13
				c0-0.553,0.447-1,1-1s1,0.447,1,1C47.5,31.271,40.771,38,32.5,38z"/>
		</g>
		<g>
			<path d="M18.5,23.977c-0.553,0-1-0.447-1-1V13c0-0.553,0.447-1,1-1s1,0.447,1,1v9.977C19.5,23.529,19.053,23.977,18.5,23.977z"/>
		</g>
		<g>
			<path d="M46.5,24.001c-0.553,0-1-0.447-1-1v-11c0-0.553,0.447-1,1-1s1,0.447,1,1v11C47.5,23.554,47.053,24.001,46.5,24.001z"/>
		</g>
		<g>
			<path d="M46.5,13c-0.553,0-1-0.447-1-1c0-2.757-2.243-5-5-5c-0.553,0-1-0.447-1-1s0.447-1,1-1c3.859,0,7,3.141,7,7
				C47.5,12.553,47.053,13,46.5,13z"/>
		</g>
		<g>
			<path d="M40.5,7c-0.553,0-1-0.447-1-1V1c0-0.553,0.447-1,1-1s1,0.447,1,1v5C41.5,6.553,41.053,7,40.5,7z"/>
		</g>
		<g>
			<path d="M40.5,2h-10c-0.553,0-1-0.447-1-1s0.447-1,1-1h10c0.553,0,1,0.447,1,1S41.053,2,40.5,2z"/>
		</g>
		<g>
			<path d="M18.5,14c-0.553,0-1-0.447-1-1c0-7.168,5.832-13,13-13c0.553,0,1,0.447,1,1s-0.447,1-1,1c-6.065,0-11,4.935-11,11
				C19.5,13.553,19.053,14,18.5,14z"/>
		</g>
		<g>
			<g>
				<path d="M46.5,19c-0.256,0-0.512-0.098-0.707-0.293l-4-4c-0.391-0.391-0.391-1.023,0-1.414s1.023-0.391,1.414,0l4,4
					c0.391,0.391,0.391,1.023,0,1.414C47.012,18.902,46.756,19,46.5,19z"/>
			</g>
			<g>
				<path d="M32.5,17c-5.574,0-10.206-1.999-10.4-2.084c-0.506-0.221-0.736-0.811-0.516-1.316s0.808-0.737,1.316-0.516
					C22.944,13.103,27.359,15,32.5,15c5.16,0,9.556-1.897,9.6-1.916c0.506-0.224,1.096,0.01,1.316,0.516
					c0.222,0.506-0.009,1.095-0.516,1.316C42.706,15.001,38.074,17,32.5,17z"/>
			</g>
			<g>
				<path d="M18.5,18.988c-0.257,0-0.513-0.098-0.708-0.294c-0.39-0.391-0.39-1.024,0.002-1.414l4-3.988
					c0.392-0.39,1.024-0.39,1.414,0.002c0.39,0.391,0.39,1.024-0.002,1.414l-4,3.988C19.011,18.891,18.756,18.988,18.5,18.988z"/>
			</g>
		</g>
		<g>
			<path d="M29.499,43c-0.19,0-0.383-0.055-0.554-0.168l-3-2c-0.46-0.307-0.584-0.927-0.277-1.387
				c0.306-0.46,0.925-0.584,1.387-0.277l3,2c0.46,0.307,0.584,0.927,0.277,1.387C30.14,42.844,29.822,43,29.499,43z"/>
		</g>
		<g>
			<path d="M29.5,43c-0.419,0-0.809-0.265-0.948-0.684c-0.175-0.524,0.108-1.091,0.632-1.265l3-1
				c0.529-0.176,1.091,0.108,1.265,0.632c0.175,0.524-0.108,1.091-0.632,1.265l-3,1C29.711,42.983,29.604,43,29.5,43z"/>
		</g>
		<g>
			<path d="M35.501,43c-0.323,0-0.641-0.156-0.833-0.445c-0.307-0.46-0.183-1.08,0.277-1.387l3-2c0.46-0.307,1.08-0.183,1.387,0.277
				s0.183,1.08-0.277,1.387l-3,2C35.884,42.945,35.691,43,35.501,43z"/>
		</g>
		<g>
			<path d="M35.5,43c-0.104,0-0.211-0.017-0.316-0.052l-3-1c-0.523-0.174-0.807-0.74-0.632-1.265
				c0.175-0.523,0.735-0.808,1.265-0.632l3,1c0.523,0.174,0.807,0.74,0.632,1.265C36.309,42.735,35.919,43,35.5,43z"/>
		</g>
		<g>
			<path d="M32.53,47c-0.553,0-1.005-0.447-1.005-1s0.442-1,0.994-1h0.011c0.552,0,1,0.447,1,1S33.082,47,32.53,47z"/>
		</g>
		<g>
			<path d="M32.53,52c-0.553,0-1.005-0.447-1.005-1s0.442-1,0.994-1h0.011c0.552,0,1,0.447,1,1S33.082,52,32.53,52z"/>
		</g>
		<g>
			<g>
				<path d="M35.5,62c-2.206,0-4-1.794-4-4c0-0.553,0.447-1,1-1s1,0.447,1,1c0,1.103,0.897,2,2,2c0.553,0,1,0.447,1,1
					S36.053,62,35.5,62z"/>
			</g>
			<g>
				<path d="M58.5,62h-23c-0.553,0-1-0.447-1-1s0.447-1,1-1h23c0.553,0,1,0.447,1,1S59.053,62,58.5,62z"/>
			</g>
			<g>
				<path d="M56.5,64c-0.256,0-0.512-0.098-0.707-0.293c-0.391-0.391-0.391-1.023,0-1.414l2-2c0.391-0.391,1.023-0.391,1.414,0
					s0.391,1.023,0,1.414l-2,2C57.012,63.902,56.756,64,56.5,64z"/>
			</g>
			<g>
				<path d="M58.5,62c-0.256,0-0.512-0.098-0.707-0.293l-2-2c-0.391-0.391-0.391-1.023,0-1.414s1.023-0.391,1.414,0l2,2
					c0.391,0.391,0.391,1.023,0,1.414C59.012,61.902,58.756,62,58.5,62z"/>
			</g>
			<g>
				<path d="M32.5,59c-0.553,0-1-0.447-1-1v-2c0-0.553,0.447-1,1-1s1,0.447,1,1v2C33.5,58.553,33.053,59,32.5,59z"/>
			</g>
		</g>
		<g>
			<g>
				<path d="M29.5,62c-0.553,0-1-0.447-1-1s0.447-1,1-1c1.103,0,2-0.897,2-2c0-0.553,0.447-1,1-1s1,0.447,1,1
					C33.5,60.206,31.706,62,29.5,62z"/>
			</g>
			<g>
				<path d="M29.5,62h-23c-0.553,0-1-0.447-1-1s0.447-1,1-1h23c0.553,0,1,0.447,1,1S30.053,62,29.5,62z"/>
			</g>
			<g>
				<path d="M8.5,64c-0.256,0-0.512-0.098-0.707-0.293l-2-2c-0.391-0.391-0.391-1.023,0-1.414s1.023-0.391,1.414,0l2,2
					c0.391,0.391,0.391,1.023,0,1.414C9.012,63.902,8.756,64,8.5,64z"/>
			</g>
			<g>
				<path d="M6.5,62c-0.256,0-0.512-0.098-0.707-0.293c-0.391-0.391-0.391-1.023,0-1.414l2-2c0.391-0.391,1.023-0.391,1.414,0
					s0.391,1.023,0,1.414l-2,2C7.012,61.902,6.756,62,6.5,62z"/>
			</g>
		</g>
	</g>
</g>
<g id="_x33_9_workplace_x2C__table_x2C__laptop_x2C__business_x2C__office_x2C__corporation_x2C__job">
</g>
<g id="_x33_8_bribe_x2C__bag_x2C__money_x2C__business_x2C__office_x2C__corporation_x2C__job">
</g>
<g id="_x33_7_corruption_x2C__forage_x2C__money_x2C__business_x2C__office_x2C__corporation_x2C__job">
</g>
<g id="_x33_6_career_x2C__ladder_x2C__success_x2C__business_x2C__office_x2C__corporation_x2C__job">
</g>
<g id="_x33_5_review_x2C__feedback_x2C__rating_x2C__business_x2C__office_x2C__corporation_x2C__job">
</g>
<g id="_x33_4_manipulation_x2C__thread_x2C__puppet_x2C__business_x2C__office_x2C__corporation_x2C__job">
</g>
<g id="_x33_3_location_x2C__map_x2C__pin_x2C__business_x2C__office_x2C__corporation_x2C__job">
</g>
<g id="_x33_2_retirement_x2C__old_x2C__man_x2C__door_x2C__business_x2C__office_x2C__corporation">
</g>
<g id="_x33_1_victory_x2C__success_x2C__medal_x2C__reward_x2C__business_x2C__office_x2C__corporation">
</g>
<g id="_x33_0_dismissal_x2C__box_x2C__door_x2C__business_x2C__office_x2C__corporation_x2C__job">
</g>
<g id="_x32_9_meeting_x2C__discussion_x2C__question_x2C__business_x2C__office_x2C__corporation_x2C__job">
</g>
<g id="_x32_8_strategy_x2C__vision_x2C__eye_x2C__chess_x2C__business_x2C__office_x2C__corporation">
</g>
<g id="_x32_7_board_x2C__task_x2C__process_x2C__business_x2C__office_x2C__corporation_x2C__job">
</g>
<g id="_x32_6_scheme_x2C__board_x2C__structure_x2C__business_x2C__office_x2C__corporation_x2C__job">
</g>
<g id="_x32_5_conflict_x2C__dialog_x2C__discussion_x2C__business_x2C__office_x2C__corporation_x2C__job">
</g>
<g id="_x32_4_documentation_x2C__document_x2C__repository_x2C__business_x2C__office_x2C__corporation_x2C__job">
</g>
<g id="_x32_3_sprint_x2C__programming_x2C__code_x2C__business_x2C__office_x2C__corporation_x2C__job">
</g>
<g id="_x32_2_cram_x2C__tablet_x2C__work_x2C__business_x2C__office_x2C__corporation_x2C__job">
</g>
<g id="_x32_1_leader_x2C__discoverer_x2C__flag_x2C__business_x2C__office_x2C__corporation_x2C__job">
</g>
<g id="_x32_0_rally_x2C__collective_x2C__arm_x2C__business_x2C__office_x2C__corporation_x2C__job">
</g>
<g id="_x31_9_consolidation_x2C__portfolio_x2C__puzzle_x2C__business_x2C__office_x2C__corporation_x2C__job">
</g>
<g id="_x31_8_idea_x2C__creative_x2C__work_x2C__business_x2C__office_x2C__corporation_x2C__job">
</g>
<g id="_x31_7_problem_x2C__stress_x2C__resistance_x2C__business_x2C__office_x2C__corporation_x2C__job">
</g>
<g id="_x31_6_hard_x2C__skills_x2C__skill_x2C__portfolio_x2C__book_x2C__business_x2C__office">
</g>
<g id="_x31_5_time_x2C__management_x2C__clock_x2C__deadline_x2C__business_x2C__office_x2C__corporation">
</g>
<g id="_x31_4_multitasking_x2C__task_x2C__work_x2C__business_x2C__office_x2C__corporation_x2C__job">
</g>
<g id="_x31_3_tranquility_x2C__yoga_x2C__lotus_x2C__posture_x2C__business_x2C__office_x2C__corporation">
</g>
<g id="_x31_2_corporate_x2C__party_x2C__business_x2C__office_x2C__corporation_x2C__job">
</g>
<g id="_x31_1_dialog_x2C__discussion_x2C__work_x2C__business_x2C__office_x2C__corporation_x2C__job">
</g>
<g id="_x31_0_listening_x2C__skill_x2C__dialog_x2C__business_x2C__office_x2C__corporation_x2C__job">
</g>
<g id="_x39__training_x2C__book_x2C__lesson_x2C__business_x2C__office_x2C__corporation_x2C__job">
</g>
<g id="_x38__dress_x2C__code_x2C__shirt_x2C__business_x2C__office_x2C__corporation_x2C__job">
</g>
<g id="_x37__task_x2C__program_x2C__ticket_x2C__business_x2C__office_x2C__corporation_x2C__job">
</g>
<g id="_x36__plan_x2C__graph_x2C__stage_x2C__business_x2C__office_x2C__corporation_x2C__job">
</g>
<g id="_x35__boss_x2C__king_x2C__crown_x2C__business_x2C__office_x2C__corporation_x2C__job">
</g>
<g id="_x34__structure_x2C__structuring_x2C__business_x2C__office_x2C__corporation_x2C__job">
</g>
<g id="_x33__soft_x2C__skills_x2C__communication_x2C__business_x2C__office_x2C__corporation_x2C__job">
</g>
<g id="_x32__office_x2C__house_x2C__portfolio_x2C__business_x2C__corporation_x2C__job">
</g>
<g id="_x31__corporate_x2C__rules_x2C__book_x2C__business_x2C__office_x2C__corporation_x2C__job">
</g>
</svg>
