<?xml version="1.0" encoding="utf-8"?>
<!-- Generator: Adobe Illustrator 16.0.0, SVG Export Plug-In . SVG Version: 6.00 Build 0)  -->
<!DOCTYPE svg PUBLIC "-//W3C//DTD SVG 1.1//EN" "http://www.w3.org/Graphics/SVG/1.1/DTD/svg11.dtd">
<svg version="1.1" xmlns="http://www.w3.org/2000/svg" xmlns:xlink="http://www.w3.org/1999/xlink" x="0px" y="0px" width="64px"
	 height="64px" viewBox="0 0 64 64" enable-background="new 0 0 64 64" xml:space="preserve">
<g id="_x35_0_document_x2C__optimization_x2C__documentation_x2C__business_x2C__office_x2C__corporation_x2C__job">
</g>
<g id="_x34_9_human_x2C__resource_x2C__conveyor_x2C__business_x2C__office_x2C__corporation_x2C__job">
</g>
<g id="_x34_8_knowledge_x2C__training_x2C__growth_x2C__book_x2C__business_x2C__office_x2C__corporation">
</g>
<g id="_x34_7_skill_x2C__competence_x2C__experience_x2C__business_x2C__office_x2C__corporation_x2C__job">
</g>
<g id="_x34_6_target_x2C__success_x2C__victory_x2C__business_x2C__office_x2C__corporation_x2C__job">
</g>
<g id="_x34_5_inbox_x2C__letter_x2C__email_x2C__business_x2C__office_x2C__corporation_x2C__job">
</g>
<g id="_x34_4_document_x2C__workflow_x2C__sharing_x2C__business_x2C__office_x2C__corporation_x2C__job">
</g>
<g id="_x34_3_budget_x2C__allocation_x2C__money_x2C__business_x2C__office_x2C__corporation_x2C__job">
</g>
<g id="_x34_2_case_x2C__task_x2C__project_x2C__business_x2C__office_x2C__corporation_x2C__job">
	<g>
		<g>
			<path d="M47.5,52c-0.122,0-0.243-0.022-0.359-0.066l-13-5C33.755,46.785,33.5,46.414,33.5,46s0.255-0.785,0.641-0.934l13-5
				c0.232-0.088,0.486-0.088,0.719,0l13,5C61.245,45.215,61.5,45.586,61.5,46s-0.255,0.785-0.641,0.934l-13,5
				C47.743,51.978,47.622,52,47.5,52z M37.286,46L47.5,49.929L57.714,46L47.5,42.071L37.286,46z"/>
		</g>
		<g>
			<path d="M47.5,58c-0.122,0-0.243-0.022-0.359-0.066l-13-5C33.755,52.785,33.5,52.414,33.5,52s0.255-0.785,0.641-0.934l7.799-3
				c0.516-0.198,1.094,0.059,1.293,0.574c0.198,0.516-0.06,1.095-0.574,1.293L37.285,52L47.5,55.929L57.714,52l-5.375-2.066
				c-0.515-0.198-0.772-0.777-0.574-1.293s0.776-0.772,1.293-0.574l7.802,3C61.245,51.215,61.5,51.586,61.5,52
				s-0.255,0.785-0.641,0.934l-13,5C47.743,57.978,47.622,58,47.5,58z"/>
		</g>
		<g>
			<path d="M47.5,64c-0.122,0-0.243-0.022-0.359-0.066l-13-5C33.755,58.785,33.5,58.414,33.5,58s0.255-0.785,0.641-0.934l7.799-3
				c0.516-0.197,1.094,0.059,1.293,0.574c0.198,0.516-0.06,1.095-0.574,1.293L37.285,58L47.5,61.929L57.714,58l-5.375-2.066
				c-0.515-0.198-0.772-0.777-0.574-1.293s0.776-0.771,1.293-0.574l7.802,3C61.245,57.215,61.5,57.586,61.5,58
				s-0.255,0.785-0.641,0.934l-13,5C47.743,63.978,47.622,64,47.5,64z"/>
		</g>
		<g>
			<g>
				<path d="M27.5,8c-0.553,0-1-0.447-1-1V1c0-0.553,0.447-1,1-1s1,0.447,1,1v6C28.5,7.553,28.053,8,27.5,8z"/>
			</g>
			<g>
				<path d="M37.5,2h-10c-0.553,0-1-0.447-1-1s0.447-1,1-1h10c0.553,0,1,0.447,1,1S38.053,2,37.5,2z"/>
			</g>
			<g>
				<path d="M37.5,8c-0.553,0-1-0.447-1-1V1c0-0.553,0.447-1,1-1s1,0.447,1,1v6C38.5,7.553,38.053,8,37.5,8z"/>
			</g>
		</g>
		<g>
			<path d="M37.5,5h-10c-0.553,0-1-0.447-1-1s0.447-1,1-1h10c0.553,0,1,0.447,1,1S38.053,5,37.5,5z"/>
		</g>
		<g>
			<path d="M40.5,16h-16c-0.553,0-1-0.447-1-1s0.447-1,1-1h16c0.553,0,1,0.447,1,1S41.053,16,40.5,16z"/>
		</g>
		<g>
			<path d="M40.5,22h-16c-0.553,0-1-0.447-1-1s0.447-1,1-1h16c0.553,0,1,0.447,1,1S41.053,22,40.5,22z"/>
		</g>
		<g>
			<path d="M45.5,30h-27c-1.99,0-3-1.346-3-4V10c0-2.206,1.794-4,4-4h26c2.206,0,4,1.794,4,4v16C49.5,28.206,47.706,30,45.5,30z
				 M19.5,8c-1.103,0-2,0.897-2,2v16c0,2,0.555,2,1,2h27c1.103,0,2-0.897,2-2V10c0-1.103-0.897-2-2-2H19.5z"/>
		</g>
		<g>
			<path d="M32.5,35c-0.553,0-1-0.447-1-1v-5c0-0.553,0.447-1,1-1s1,0.447,1,1v5C33.5,34.553,33.053,35,32.5,35z"/>
		</g>
		<g>
			<path d="M47.5,35h-15c-0.553,0-1-0.447-1-1s0.447-1,1-1h15c0.553,0,1,0.447,1,1S48.053,35,47.5,35z"/>
		</g>
		<g>
			<path d="M47.5,38c-0.553,0-1-0.447-1-1v-3c0-0.553,0.447-1,1-1s1,0.447,1,1v3C48.5,37.553,48.053,38,47.5,38z"/>
		</g>
		<g>
			<path d="M16.5,52c-0.122,0-0.243-0.022-0.359-0.066l-13-5C2.755,46.785,2.5,46.414,2.5,46s0.255-0.785,0.641-0.934l13-5
				c0.232-0.088,0.486-0.088,0.719,0l13,5C30.245,45.215,30.5,45.586,30.5,46s-0.255,0.785-0.641,0.934l-13,5
				C16.743,51.978,16.622,52,16.5,52z M6.286,46L16.5,49.929L26.714,46L16.5,42.071L6.286,46z"/>
		</g>
		<g>
			<path d="M16.5,58c-0.122,0-0.243-0.022-0.359-0.066l-13-5C2.755,52.785,2.5,52.414,2.5,52s0.255-0.785,0.641-0.934l7.802-3
				c0.515-0.198,1.094,0.059,1.293,0.574c0.198,0.516-0.06,1.095-0.574,1.293L6.286,52L16.5,55.929L26.715,52l-5.373-2.066
				c-0.515-0.198-0.772-0.777-0.574-1.293c0.199-0.516,0.775-0.772,1.293-0.574l7.799,3C30.245,51.215,30.5,51.586,30.5,52
				s-0.255,0.785-0.641,0.934l-13,5C16.743,57.978,16.622,58,16.5,58z"/>
		</g>
		<g>
			<path d="M16.5,64c-0.122,0-0.243-0.022-0.359-0.066l-13-5C2.755,58.785,2.5,58.414,2.5,58s0.255-0.785,0.641-0.934l7.802-3
				c0.515-0.197,1.094,0.059,1.293,0.574c0.198,0.516-0.06,1.095-0.574,1.293L6.286,58L16.5,61.929L26.715,58l-5.373-2.066
				c-0.515-0.198-0.772-0.777-0.574-1.293c0.199-0.516,0.775-0.771,1.293-0.574l7.799,3C30.245,57.215,30.5,57.586,30.5,58
				s-0.255,0.785-0.641,0.934l-13,5C16.743,63.978,16.622,64,16.5,64z"/>
		</g>
		<g>
			<path d="M32.5,35h-16c-0.553,0-1-0.447-1-1s0.447-1,1-1h16c0.553,0,1,0.447,1,1S33.053,35,32.5,35z"/>
		</g>
		<g>
			<path d="M16.5,38c-0.553,0-1-0.447-1-1v-3c0-0.553,0.447-1,1-1s1,0.447,1,1v3C17.5,37.553,17.053,38,16.5,38z"/>
		</g>
	</g>
</g>
<g id="_x34_1_structure_x2C__structuring_x2C__tasks_x2C__business_x2C__office_x2C__corporation_x2C__job">
</g>
<g id="_x34_0_choice_x2C__dilemma_x2C__question_x2C__business_x2C__office_x2C__corporation_x2C__job">
</g>
<g id="_x33_9_workplace_x2C__table_x2C__laptop_x2C__business_x2C__office_x2C__corporation_x2C__job">
</g>
<g id="_x33_8_bribe_x2C__bag_x2C__money_x2C__business_x2C__office_x2C__corporation_x2C__job">
</g>
<g id="_x33_7_corruption_x2C__forage_x2C__money_x2C__business_x2C__office_x2C__corporation_x2C__job">
</g>
<g id="_x33_6_career_x2C__ladder_x2C__success_x2C__business_x2C__office_x2C__corporation_x2C__job">
</g>
<g id="_x33_5_review_x2C__feedback_x2C__rating_x2C__business_x2C__office_x2C__corporation_x2C__job">
</g>
<g id="_x33_4_manipulation_x2C__thread_x2C__puppet_x2C__business_x2C__office_x2C__corporation_x2C__job">
</g>
<g id="_x33_3_location_x2C__map_x2C__pin_x2C__business_x2C__office_x2C__corporation_x2C__job">
</g>
<g id="_x33_2_retirement_x2C__old_x2C__man_x2C__door_x2C__business_x2C__office_x2C__corporation">
</g>
<g id="_x33_1_victory_x2C__success_x2C__medal_x2C__reward_x2C__business_x2C__office_x2C__corporation">
</g>
<g id="_x33_0_dismissal_x2C__box_x2C__door_x2C__business_x2C__office_x2C__corporation_x2C__job">
</g>
<g id="_x32_9_meeting_x2C__discussion_x2C__question_x2C__business_x2C__office_x2C__corporation_x2C__job">
</g>
<g id="_x32_8_strategy_x2C__vision_x2C__eye_x2C__chess_x2C__business_x2C__office_x2C__corporation">
</g>
<g id="_x32_7_board_x2C__task_x2C__process_x2C__business_x2C__office_x2C__corporation_x2C__job">
</g>
<g id="_x32_6_scheme_x2C__board_x2C__structure_x2C__business_x2C__office_x2C__corporation_x2C__job">
</g>
<g id="_x32_5_conflict_x2C__dialog_x2C__discussion_x2C__business_x2C__office_x2C__corporation_x2C__job">
</g>
<g id="_x32_4_documentation_x2C__document_x2C__repository_x2C__business_x2C__office_x2C__corporation_x2C__job">
</g>
<g id="_x32_3_sprint_x2C__programming_x2C__code_x2C__business_x2C__office_x2C__corporation_x2C__job">
</g>
<g id="_x32_2_cram_x2C__tablet_x2C__work_x2C__business_x2C__office_x2C__corporation_x2C__job">
</g>
<g id="_x32_1_leader_x2C__discoverer_x2C__flag_x2C__business_x2C__office_x2C__corporation_x2C__job">
</g>
<g id="_x32_0_rally_x2C__collective_x2C__arm_x2C__business_x2C__office_x2C__corporation_x2C__job">
</g>
<g id="_x31_9_consolidation_x2C__portfolio_x2C__puzzle_x2C__business_x2C__office_x2C__corporation_x2C__job">
</g>
<g id="_x31_8_idea_x2C__creative_x2C__work_x2C__business_x2C__office_x2C__corporation_x2C__job">
</g>
<g id="_x31_7_problem_x2C__stress_x2C__resistance_x2C__business_x2C__office_x2C__corporation_x2C__job">
</g>
<g id="_x31_6_hard_x2C__skills_x2C__skill_x2C__portfolio_x2C__book_x2C__business_x2C__office">
</g>
<g id="_x31_5_time_x2C__management_x2C__clock_x2C__deadline_x2C__business_x2C__office_x2C__corporation">
</g>
<g id="_x31_4_multitasking_x2C__task_x2C__work_x2C__business_x2C__office_x2C__corporation_x2C__job">
</g>
<g id="_x31_3_tranquility_x2C__yoga_x2C__lotus_x2C__posture_x2C__business_x2C__office_x2C__corporation">
</g>
<g id="_x31_2_corporate_x2C__party_x2C__business_x2C__office_x2C__corporation_x2C__job">
</g>
<g id="_x31_1_dialog_x2C__discussion_x2C__work_x2C__business_x2C__office_x2C__corporation_x2C__job">
</g>
<g id="_x31_0_listening_x2C__skill_x2C__dialog_x2C__business_x2C__office_x2C__corporation_x2C__job">
</g>
<g id="_x39__training_x2C__book_x2C__lesson_x2C__business_x2C__office_x2C__corporation_x2C__job">
</g>
<g id="_x38__dress_x2C__code_x2C__shirt_x2C__business_x2C__office_x2C__corporation_x2C__job">
</g>
<g id="_x37__task_x2C__program_x2C__ticket_x2C__business_x2C__office_x2C__corporation_x2C__job">
</g>
<g id="_x36__plan_x2C__graph_x2C__stage_x2C__business_x2C__office_x2C__corporation_x2C__job">
</g>
<g id="_x35__boss_x2C__king_x2C__crown_x2C__business_x2C__office_x2C__corporation_x2C__job">
</g>
<g id="_x34__structure_x2C__structuring_x2C__business_x2C__office_x2C__corporation_x2C__job">
</g>
<g id="_x33__soft_x2C__skills_x2C__communication_x2C__business_x2C__office_x2C__corporation_x2C__job">
</g>
<g id="_x32__office_x2C__house_x2C__portfolio_x2C__business_x2C__corporation_x2C__job">
</g>
<g id="_x31__corporate_x2C__rules_x2C__book_x2C__business_x2C__office_x2C__corporation_x2C__job">
</g>
</svg>
