<?xml version="1.0" encoding="utf-8"?>
<!-- Generator: Adobe Illustrator 16.0.0, SVG Export Plug-In . SVG Version: 6.00 Build 0)  -->
<!DOCTYPE svg PUBLIC "-//W3C//DTD SVG 1.1//EN" "http://www.w3.org/Graphics/SVG/1.1/DTD/svg11.dtd">
<svg version="1.1" xmlns="http://www.w3.org/2000/svg" xmlns:xlink="http://www.w3.org/1999/xlink" x="0px" y="0px" width="64px"
	 height="64px" viewBox="0 0 64 64" enable-background="new 0 0 64 64" xml:space="preserve">
<g id="_x35_0_document_x2C__optimization_x2C__documentation_x2C__business_x2C__office_x2C__corporation_x2C__job">
</g>
<g id="_x34_9_human_x2C__resource_x2C__conveyor_x2C__business_x2C__office_x2C__corporation_x2C__job">
</g>
<g id="_x34_8_knowledge_x2C__training_x2C__growth_x2C__book_x2C__business_x2C__office_x2C__corporation">
</g>
<g id="_x34_7_skill_x2C__competence_x2C__experience_x2C__business_x2C__office_x2C__corporation_x2C__job">
	<g>
		<g id="_x31_0_avatar_x2C__woman_x2C__style_x2C__people_x2C__hairstyle_x2C__beauty_x2C__saloon">
			<g>
				<path d="M1,53.003c-0.553,0-1-0.447-1-1c0-3.861,3.141-7.002,7.002-7.002c0.553,0,1,0.447,1,1s-0.447,1-1,1
					C4.244,47.001,2,49.245,2,52.003C2,52.556,1.553,53.003,1,53.003z"/>
			</g>
			<g>
				<path d="M39,53.002c-0.553,0-1-0.447-1-1c0-2.757-2.243-5-5-5c-0.553,0-1-0.447-1-1s0.447-1,1-1c3.859,0,7,3.141,7,7
					C40,52.555,39.553,53.002,39,53.002z"/>
			</g>
			<g>
				<path d="M11.999,47.002L11.999,47.002l-4.997-0.001c-0.553,0-1-0.448-1-1c0-0.553,0.448-1,1-1l0,0l4.997,0.001
					c0.553,0,1,0.448,1,1C12.999,46.555,12.551,47.002,11.999,47.002z"/>
			</g>
			<g>
				<path d="M33,47.002L33,47.002l-4.999-0.001c-0.553,0-1-0.448-1-1c0-0.553,0.448-1,1-1l0,0L33,45.002c0.553,0,1,0.448,1,1
					C34,46.555,33.552,47.002,33,47.002z"/>
			</g>
			<g>
				<path d="M1.001,62c-0.552,0-1-0.447-1-1L0,52.003c0-0.552,0.447-1,1-1c0.552,0,1,0.447,1,1L2.001,61
					C2.001,61.552,1.554,62,1.001,62z"/>
			</g>
			<g>
				<path d="M2.001,63c-1.103,0-2-0.897-2-2c0-0.553,0.447-1,1-1s1,0.447,1,1v0.002c0.553,0,1,0.446,1,0.999
					C3.001,62.553,2.554,63,2.001,63z"/>
			</g>
			<g>
				<path d="M38,63c-0.553,0-1-0.447-1-1s0.447-1,1-1h0.002c0-0.553,0.446-1,0.999-1C39.553,60,40,60.447,40,61
					C40,62.103,39.103,63,38,63z"/>
			</g>
			<g>
				<path d="M39,62c-0.553,0-1-0.447-1-1v-8.998c0-0.553,0.447-1,1-1s1,0.447,1,1V61C40,61.553,39.553,62,39,62z"/>
			</g>
			<g>
				<path d="M38,63H2.001c-0.553,0-1-0.447-1-1s0.447-1,1-1H38c0.553,0,1,0.447,1,1S38.553,63,38,63z"/>
			</g>
			<g>
				<path d="M14,45c-0.553,0-1-0.447-1-1v-2.248c0-0.553,0.447-1,1-1s1,0.447,1,1V44C15,44.553,14.553,45,14,45z"/>
			</g>
			<g>
				<path d="M26,45c-0.553,0-1-0.447-1-1v-2.248c0-0.553,0.447-1,1-1s1,0.447,1,1V44C27,44.553,26.553,45,26,45z"/>
			</g>
			<g>
				<path d="M20,44.001c-8.822,0-16-7.178-16-16c0-0.553,0.447-1,1-1s1,0.447,1,1c0,7.72,6.28,14,14,14s14-6.28,14-14
					c0-0.553,0.447-1,1-1s1,0.447,1,1C36,36.823,28.822,44.001,20,44.001z"/>
			</g>
			<g>
				<path d="M5,29.001c-0.553,0-1-0.447-1-1V10c0-0.553,0.447-1,1-1s1,0.447,1,1v18.001C6,28.554,5.553,29.001,5,29.001z"/>
			</g>
			<g>
				<path d="M20.03,51c-0.553,0-1.005-0.447-1.005-1s0.442-1,0.994-1h0.011c0.552,0,1,0.447,1,1S20.582,51,20.03,51z"/>
			</g>
			<g>
				<path d="M20.03,55c-0.553,0-1.005-0.447-1.005-1s0.442-1,0.994-1h0.011c0.552,0,1,0.447,1,1S20.582,55,20.03,55z"/>
			</g>
			<g>
				<path d="M38,21c-0.553,0-1-0.447-1-1c0-9.374-7.626-17-17-17c-0.553,0-1-0.447-1-1s0.447-1,1-1c10.477,0,19,8.523,19,19
					C39,20.553,38.553,21,38,21z"/>
			</g>
			<g>
				<path d="M10.001,6.031c-0.322,0-0.64-0.155-0.832-0.444C8.861,5.128,8.984,4.507,9.444,4.2C12.572,2.106,16.223,1,20,1
					c0.553,0,1,0.447,1,1s-0.447,1-1,1c-3.38,0-6.646,0.99-9.444,2.862C10.386,5.977,10.192,6.031,10.001,6.031z"/>
			</g>
			<g>
				<path d="M38,37c-0.553,0-1-0.447-1-1V20c0-0.553,0.447-1,1-1s1,0.447,1,1v16C39,36.553,38.553,37,38,37z"/>
			</g>
			<g>
				<path d="M38,37c-0.553,0-1-0.447-1-1c0-12.397-11.964-15-22-15c-0.553,0-1-0.447-1-1s0.447-1,1-1c15.477,0,24,6.037,24,17
					C39,36.553,38.553,37,38,37z"/>
			</g>
			<g>
				<path d="M35,29.001c-0.553,0-1-0.447-1-1v-1.26c0-0.553,0.447-1,1-1s1,0.447,1,1v1.26C36,28.554,35.553,29.001,35,29.001z"/>
			</g>
			<g>
				<path d="M10,16c-0.553,0-1-0.447-1-1V5.031c0-0.553,0.447-1,1-1s1,0.447,1,1V15C11,15.553,10.553,16,10,16z"/>
			</g>
			<g>
				<path d="M5,21c-0.553,0-1-0.447-1-1s0.447-1,1-1c2.206,0,4-1.794,4-4c0-0.553,0.447-1,1-1s1,0.447,1,1C11,18.309,8.309,21,5,21z
					"/>
			</g>
			<g>
				<path d="M15,21c-3.309,0-6-2.691-6-6c0-0.553,0.447-1,1-1s1,0.447,1,1c0,2.206,1.794,4,4,4c0.553,0,1,0.447,1,1S15.553,21,15,21
					z"/>
			</g>
			<g>
				<path d="M5,11c-0.553,0-1-0.447-1-1c0-3.309,2.691-6,6-6c0.553,0,1,0.447,1,1s-0.447,1-1,1c-2.206,0-4,1.794-4,4
					C6,10.553,5.553,11,5,11z"/>
			</g>
			<g>
				<path d="M15.558,49.002c-0.382,0-0.746-0.219-0.913-0.589c-0.227-0.504-0.002-1.096,0.501-1.323l4.443-2.002
					c0.506-0.227,1.097-0.002,1.323,0.501c0.227,0.504,0.002,1.096-0.501,1.323l-4.443,2.002
					C15.834,48.974,15.694,49.002,15.558,49.002z"/>
			</g>
			<g>
				<path d="M24.443,49c-0.137,0-0.276-0.028-0.409-0.088l-4.444-2c-0.504-0.227-0.729-0.818-0.502-1.322
					c0.228-0.504,0.82-0.727,1.322-0.502l4.444,2c0.504,0.227,0.729,0.818,0.502,1.322C25.189,48.781,24.825,49,24.443,49z"/>
			</g>
			<g>
				<g>
					<path d="M10,49.002c-0.256,0-0.512-0.098-0.707-0.293c-0.391-0.391-0.391-1.023,0-1.414l4-4.002
						c0.391-0.391,1.023-0.391,1.414,0s0.391,1.023,0,1.414l-4,4.002C10.512,48.904,10.256,49.002,10,49.002z"/>
				</g>
				<g>
					<path d="M13.001,53c-0.304,0-0.604-0.138-0.801-0.399l-3-3.998c-0.331-0.442-0.242-1.069,0.199-1.4
						c0.444-0.329,1.07-0.242,1.4,0.199l3,3.998c0.331,0.442,0.242,1.069-0.199,1.4C13.42,52.935,13.21,53,13.001,53z"/>
				</g>
				<g>
					<path d="M11,55c-0.256,0-0.512-0.098-0.707-0.293c-0.391-0.391-0.391-1.023,0-1.414l2-2c0.391-0.391,1.023-0.391,1.414,0
						s0.391,1.023,0,1.414l-2,2C11.512,54.902,11.256,55,11,55z"/>
				</g>
				<g>
					<path d="M17.001,63c-0.305,0-0.604-0.138-0.801-0.4l-6-8c-0.332-0.441-0.242-1.068,0.2-1.399
						c0.441-0.332,1.067-0.243,1.399,0.2l6,8c0.332,0.441,0.242,1.068-0.2,1.399C17.42,62.935,17.21,63,17.001,63z"/>
				</g>
				<g>
					<path d="M18.999,63c-0.438,0-0.84-0.29-0.963-0.732l-5-18c-0.147-0.532,0.164-1.083,0.696-1.231
						c0.531-0.146,1.084,0.164,1.231,0.696l5,18c0.147,0.532-0.164,1.083-0.696,1.231C19.178,62.988,19.088,63,18.999,63z"/>
				</g>
			</g>
			<g>
				<g>
					<path d="M30,49.002c-0.256,0-0.512-0.098-0.707-0.293l-4-4.002c-0.391-0.391-0.391-1.023,0-1.414s1.023-0.391,1.414,0l4,4.002
						c0.391,0.391,0.391,1.023,0,1.414C30.512,48.904,30.256,49.002,30,49.002z"/>
				</g>
				<g>
					<path d="M26.999,53c-0.209,0-0.419-0.065-0.6-0.2c-0.441-0.331-0.53-0.958-0.199-1.4l3-3.998
						c0.331-0.442,0.957-0.529,1.4-0.199c0.441,0.331,0.53,0.958,0.199,1.4l-3,3.998C27.604,52.862,27.303,53,26.999,53z"/>
				</g>
				<g>
					<path d="M29,55c-0.256,0-0.512-0.098-0.707-0.293l-2-2c-0.391-0.391-0.391-1.023,0-1.414s1.023-0.391,1.414,0l2,2
						c0.391,0.391,0.391,1.023,0,1.414C29.512,54.902,29.256,55,29,55z"/>
				</g>
				<g>
					<path d="M22.999,63c-0.209,0-0.419-0.065-0.599-0.2c-0.442-0.331-0.532-0.958-0.2-1.399l6-8c0.332-0.442,0.958-0.531,1.399-0.2
						c0.442,0.331,0.532,0.958,0.2,1.399l-6,8C23.604,62.862,23.304,63,22.999,63z"/>
				</g>
				<g>
					<path d="M21.001,63c-0.089,0-0.179-0.012-0.269-0.036c-0.532-0.148-0.844-0.699-0.696-1.231l5-18
						c0.148-0.532,0.7-0.842,1.231-0.696c0.532,0.148,0.844,0.699,0.696,1.231l-5,18C21.841,62.71,21.438,63,21.001,63z"/>
				</g>
			</g>
		</g>
		<g>
			<g>
				<path d="M63,28.999H43c-0.553,0-1-0.447-1-1v-4c0-0.553,0.447-1,1-1h20c0.553,0,1,0.447,1,1v4
					C64,28.552,63.553,28.999,63,28.999z M44,26.999h18v-2H44V26.999z"/>
			</g>
			<g>
				<path d="M63,36.999H43c-0.553,0-1-0.447-1-1v-4c0-0.553,0.447-1,1-1h20c0.553,0,1,0.447,1,1v4
					C64,36.552,63.553,36.999,63,36.999z M44,34.999h18v-2H44V34.999z"/>
			</g>
			<g>
				<path d="M63,44.999H43c-0.553,0-1-0.447-1-1v-4c0-0.553,0.447-1,1-1h20c0.553,0,1,0.447,1,1v4
					C64,44.552,63.553,44.999,63,44.999z M44,42.999h18v-2H44V42.999z"/>
			</g>
			<g>
				<path d="M56,28.999c-0.256,0-0.512-0.098-0.707-0.293c-0.391-0.391-0.391-1.023,0-1.414l4-4c0.391-0.391,1.023-0.391,1.414,0
					s0.391,1.023,0,1.414l-4,4C56.512,28.901,56.256,28.999,56,28.999z"/>
			</g>
			<g>
				<path d="M49,36.999c-0.256,0-0.512-0.098-0.707-0.293c-0.391-0.391-0.391-1.023,0-1.414l4-4c0.391-0.391,1.023-0.391,1.414,0
					s0.391,1.023,0,1.414l-4,4C49.512,36.901,49.256,36.999,49,36.999z"/>
			</g>
			<g>
				<path d="M53,44.999c-0.256,0-0.512-0.098-0.707-0.293c-0.391-0.391-0.391-1.023,0-1.414l4-4c0.391-0.391,1.023-0.391,1.414,0
					s0.391,1.023,0,1.414l-4,4C53.512,44.901,53.256,44.999,53,44.999z"/>
			</g>
			<g>
				<path d="M63,20.999H43c-0.553,0-1-0.447-1-1v-4c0-0.553,0.447-1,1-1h20c0.553,0,1,0.447,1,1v4
					C64,20.552,63.553,20.999,63,20.999z M44,18.999h18v-2H44V18.999z"/>
			</g>
			<g>
				<path d="M51,20.999c-0.256,0-0.512-0.098-0.707-0.293c-0.391-0.391-0.391-1.023,0-1.414l4-4c0.391-0.391,1.023-0.391,1.414,0
					s0.391,1.023,0,1.414l-4,4C51.512,20.901,51.256,20.999,51,20.999z"/>
			</g>
		</g>
	</g>
</g>
<g id="_x34_6_target_x2C__success_x2C__victory_x2C__business_x2C__office_x2C__corporation_x2C__job">
</g>
<g id="_x34_5_inbox_x2C__letter_x2C__email_x2C__business_x2C__office_x2C__corporation_x2C__job">
</g>
<g id="_x34_4_document_x2C__workflow_x2C__sharing_x2C__business_x2C__office_x2C__corporation_x2C__job">
</g>
<g id="_x34_3_budget_x2C__allocation_x2C__money_x2C__business_x2C__office_x2C__corporation_x2C__job">
</g>
<g id="_x34_2_case_x2C__task_x2C__project_x2C__business_x2C__office_x2C__corporation_x2C__job">
</g>
<g id="_x34_1_structure_x2C__structuring_x2C__tasks_x2C__business_x2C__office_x2C__corporation_x2C__job">
</g>
<g id="_x34_0_choice_x2C__dilemma_x2C__question_x2C__business_x2C__office_x2C__corporation_x2C__job">
</g>
<g id="_x33_9_workplace_x2C__table_x2C__laptop_x2C__business_x2C__office_x2C__corporation_x2C__job">
</g>
<g id="_x33_8_bribe_x2C__bag_x2C__money_x2C__business_x2C__office_x2C__corporation_x2C__job">
</g>
<g id="_x33_7_corruption_x2C__forage_x2C__money_x2C__business_x2C__office_x2C__corporation_x2C__job">
</g>
<g id="_x33_6_career_x2C__ladder_x2C__success_x2C__business_x2C__office_x2C__corporation_x2C__job">
</g>
<g id="_x33_5_review_x2C__feedback_x2C__rating_x2C__business_x2C__office_x2C__corporation_x2C__job">
</g>
<g id="_x33_4_manipulation_x2C__thread_x2C__puppet_x2C__business_x2C__office_x2C__corporation_x2C__job">
</g>
<g id="_x33_3_location_x2C__map_x2C__pin_x2C__business_x2C__office_x2C__corporation_x2C__job">
</g>
<g id="_x33_2_retirement_x2C__old_x2C__man_x2C__door_x2C__business_x2C__office_x2C__corporation">
</g>
<g id="_x33_1_victory_x2C__success_x2C__medal_x2C__reward_x2C__business_x2C__office_x2C__corporation">
</g>
<g id="_x33_0_dismissal_x2C__box_x2C__door_x2C__business_x2C__office_x2C__corporation_x2C__job">
</g>
<g id="_x32_9_meeting_x2C__discussion_x2C__question_x2C__business_x2C__office_x2C__corporation_x2C__job">
</g>
<g id="_x32_8_strategy_x2C__vision_x2C__eye_x2C__chess_x2C__business_x2C__office_x2C__corporation">
</g>
<g id="_x32_7_board_x2C__task_x2C__process_x2C__business_x2C__office_x2C__corporation_x2C__job">
</g>
<g id="_x32_6_scheme_x2C__board_x2C__structure_x2C__business_x2C__office_x2C__corporation_x2C__job">
</g>
<g id="_x32_5_conflict_x2C__dialog_x2C__discussion_x2C__business_x2C__office_x2C__corporation_x2C__job">
</g>
<g id="_x32_4_documentation_x2C__document_x2C__repository_x2C__business_x2C__office_x2C__corporation_x2C__job">
</g>
<g id="_x32_3_sprint_x2C__programming_x2C__code_x2C__business_x2C__office_x2C__corporation_x2C__job">
</g>
<g id="_x32_2_cram_x2C__tablet_x2C__work_x2C__business_x2C__office_x2C__corporation_x2C__job">
</g>
<g id="_x32_1_leader_x2C__discoverer_x2C__flag_x2C__business_x2C__office_x2C__corporation_x2C__job">
</g>
<g id="_x32_0_rally_x2C__collective_x2C__arm_x2C__business_x2C__office_x2C__corporation_x2C__job">
</g>
<g id="_x31_9_consolidation_x2C__portfolio_x2C__puzzle_x2C__business_x2C__office_x2C__corporation_x2C__job">
</g>
<g id="_x31_8_idea_x2C__creative_x2C__work_x2C__business_x2C__office_x2C__corporation_x2C__job">
</g>
<g id="_x31_7_problem_x2C__stress_x2C__resistance_x2C__business_x2C__office_x2C__corporation_x2C__job">
</g>
<g id="_x31_6_hard_x2C__skills_x2C__skill_x2C__portfolio_x2C__book_x2C__business_x2C__office">
</g>
<g id="_x31_5_time_x2C__management_x2C__clock_x2C__deadline_x2C__business_x2C__office_x2C__corporation">
</g>
<g id="_x31_4_multitasking_x2C__task_x2C__work_x2C__business_x2C__office_x2C__corporation_x2C__job">
</g>
<g id="_x31_3_tranquility_x2C__yoga_x2C__lotus_x2C__posture_x2C__business_x2C__office_x2C__corporation">
</g>
<g id="_x31_2_corporate_x2C__party_x2C__business_x2C__office_x2C__corporation_x2C__job">
</g>
<g id="_x31_1_dialog_x2C__discussion_x2C__work_x2C__business_x2C__office_x2C__corporation_x2C__job">
</g>
<g id="_x31_0_listening_x2C__skill_x2C__dialog_x2C__business_x2C__office_x2C__corporation_x2C__job">
</g>
<g id="_x39__training_x2C__book_x2C__lesson_x2C__business_x2C__office_x2C__corporation_x2C__job">
</g>
<g id="_x38__dress_x2C__code_x2C__shirt_x2C__business_x2C__office_x2C__corporation_x2C__job">
</g>
<g id="_x37__task_x2C__program_x2C__ticket_x2C__business_x2C__office_x2C__corporation_x2C__job">
</g>
<g id="_x36__plan_x2C__graph_x2C__stage_x2C__business_x2C__office_x2C__corporation_x2C__job">
</g>
<g id="_x35__boss_x2C__king_x2C__crown_x2C__business_x2C__office_x2C__corporation_x2C__job">
</g>
<g id="_x34__structure_x2C__structuring_x2C__business_x2C__office_x2C__corporation_x2C__job">
</g>
<g id="_x33__soft_x2C__skills_x2C__communication_x2C__business_x2C__office_x2C__corporation_x2C__job">
</g>
<g id="_x32__office_x2C__house_x2C__portfolio_x2C__business_x2C__corporation_x2C__job">
</g>
<g id="_x31__corporate_x2C__rules_x2C__book_x2C__business_x2C__office_x2C__corporation_x2C__job">
</g>
</svg>
