<?xml version="1.0" encoding="utf-8"?>
<!-- Generator: Adobe Illustrator 16.0.0, SVG Export Plug-In . SVG Version: 6.00 Build 0)  -->
<!DOCTYPE svg PUBLIC "-//W3C//DTD SVG 1.1//EN" "http://www.w3.org/Graphics/SVG/1.1/DTD/svg11.dtd">
<svg version="1.1" xmlns="http://www.w3.org/2000/svg" xmlns:xlink="http://www.w3.org/1999/xlink" x="0px" y="0px" width="64px"
	 height="64px" viewBox="0 0 64 64" enable-background="new 0 0 64 64" xml:space="preserve">
<g id="_x35_0_document_x2C__optimization_x2C__documentation_x2C__business_x2C__office_x2C__corporation_x2C__job">
</g>
<g id="_x34_9_human_x2C__resource_x2C__conveyor_x2C__business_x2C__office_x2C__corporation_x2C__job">
</g>
<g id="_x34_8_knowledge_x2C__training_x2C__growth_x2C__book_x2C__business_x2C__office_x2C__corporation">
</g>
<g id="_x34_7_skill_x2C__competence_x2C__experience_x2C__business_x2C__office_x2C__corporation_x2C__job">
</g>
<g id="_x34_6_target_x2C__success_x2C__victory_x2C__business_x2C__office_x2C__corporation_x2C__job">
</g>
<g id="_x34_5_inbox_x2C__letter_x2C__email_x2C__business_x2C__office_x2C__corporation_x2C__job">
</g>
<g id="_x34_4_document_x2C__workflow_x2C__sharing_x2C__business_x2C__office_x2C__corporation_x2C__job">
</g>
<g id="_x34_3_budget_x2C__allocation_x2C__money_x2C__business_x2C__office_x2C__corporation_x2C__job">
</g>
<g id="_x34_2_case_x2C__task_x2C__project_x2C__business_x2C__office_x2C__corporation_x2C__job">
</g>
<g id="_x34_1_structure_x2C__structuring_x2C__tasks_x2C__business_x2C__office_x2C__corporation_x2C__job">
</g>
<g id="_x34_0_choice_x2C__dilemma_x2C__question_x2C__business_x2C__office_x2C__corporation_x2C__job">
</g>
<g id="_x33_9_workplace_x2C__table_x2C__laptop_x2C__business_x2C__office_x2C__corporation_x2C__job">
</g>
<g id="_x33_8_bribe_x2C__bag_x2C__money_x2C__business_x2C__office_x2C__corporation_x2C__job">
</g>
<g id="_x33_7_corruption_x2C__forage_x2C__money_x2C__business_x2C__office_x2C__corporation_x2C__job">
</g>
<g id="_x33_6_career_x2C__ladder_x2C__success_x2C__business_x2C__office_x2C__corporation_x2C__job">
</g>
<g id="_x33_5_review_x2C__feedback_x2C__rating_x2C__business_x2C__office_x2C__corporation_x2C__job">
</g>
<g id="_x33_4_manipulation_x2C__thread_x2C__puppet_x2C__business_x2C__office_x2C__corporation_x2C__job">
</g>
<g id="_x33_3_location_x2C__map_x2C__pin_x2C__business_x2C__office_x2C__corporation_x2C__job">
</g>
<g id="_x33_2_retirement_x2C__old_x2C__man_x2C__door_x2C__business_x2C__office_x2C__corporation">
</g>
<g id="_x33_1_victory_x2C__success_x2C__medal_x2C__reward_x2C__business_x2C__office_x2C__corporation">
</g>
<g id="_x33_0_dismissal_x2C__box_x2C__door_x2C__business_x2C__office_x2C__corporation_x2C__job">
</g>
<g id="_x32_9_meeting_x2C__discussion_x2C__question_x2C__business_x2C__office_x2C__corporation_x2C__job">
</g>
<g id="_x32_8_strategy_x2C__vision_x2C__eye_x2C__chess_x2C__business_x2C__office_x2C__corporation">
</g>
<g id="_x32_7_board_x2C__task_x2C__process_x2C__business_x2C__office_x2C__corporation_x2C__job">
</g>
<g id="_x32_6_scheme_x2C__board_x2C__structure_x2C__business_x2C__office_x2C__corporation_x2C__job">
</g>
<g id="_x32_5_conflict_x2C__dialog_x2C__discussion_x2C__business_x2C__office_x2C__corporation_x2C__job">
</g>
<g id="_x32_4_documentation_x2C__document_x2C__repository_x2C__business_x2C__office_x2C__corporation_x2C__job">
</g>
<g id="_x32_3_sprint_x2C__programming_x2C__code_x2C__business_x2C__office_x2C__corporation_x2C__job">
</g>
<g id="_x32_2_cram_x2C__tablet_x2C__work_x2C__business_x2C__office_x2C__corporation_x2C__job">
</g>
<g id="_x32_1_leader_x2C__discoverer_x2C__flag_x2C__business_x2C__office_x2C__corporation_x2C__job">
</g>
<g id="_x32_0_rally_x2C__collective_x2C__arm_x2C__business_x2C__office_x2C__corporation_x2C__job">
</g>
<g id="_x31_9_consolidation_x2C__portfolio_x2C__puzzle_x2C__business_x2C__office_x2C__corporation_x2C__job">
</g>
<g id="_x31_8_idea_x2C__creative_x2C__work_x2C__business_x2C__office_x2C__corporation_x2C__job">
</g>
<g id="_x31_7_problem_x2C__stress_x2C__resistance_x2C__business_x2C__office_x2C__corporation_x2C__job">
</g>
<g id="_x31_6_hard_x2C__skills_x2C__skill_x2C__portfolio_x2C__book_x2C__business_x2C__office">
</g>
<g id="_x31_5_time_x2C__management_x2C__clock_x2C__deadline_x2C__business_x2C__office_x2C__corporation">
</g>
<g id="_x31_4_multitasking_x2C__task_x2C__work_x2C__business_x2C__office_x2C__corporation_x2C__job">
</g>
<g id="_x31_3_tranquility_x2C__yoga_x2C__lotus_x2C__posture_x2C__business_x2C__office_x2C__corporation">
</g>
<g id="_x31_2_corporate_x2C__party_x2C__business_x2C__office_x2C__corporation_x2C__job">
</g>
<g id="_x31_1_dialog_x2C__discussion_x2C__work_x2C__business_x2C__office_x2C__corporation_x2C__job">
</g>
<g id="_x31_0_listening_x2C__skill_x2C__dialog_x2C__business_x2C__office_x2C__corporation_x2C__job">
</g>
<g id="_x39__training_x2C__book_x2C__lesson_x2C__business_x2C__office_x2C__corporation_x2C__job">
</g>
<g id="_x38__dress_x2C__code_x2C__shirt_x2C__business_x2C__office_x2C__corporation_x2C__job">
</g>
<g id="_x37__task_x2C__program_x2C__ticket_x2C__business_x2C__office_x2C__corporation_x2C__job">
</g>
<g id="_x36__plan_x2C__graph_x2C__stage_x2C__business_x2C__office_x2C__corporation_x2C__job">
</g>
<g id="_x35__boss_x2C__king_x2C__crown_x2C__business_x2C__office_x2C__corporation_x2C__job">
	<g>
		<g>
			<g>
				<path d="M32,43.996c-8.822,0-16-7.178-16-16c0-0.552,0.447-1,1-1s1,0.448,1,1c0,7.72,6.28,14,14,14s14-6.28,14-14
					c0-0.552,0.447-1,1-1s1,0.448,1,1C48,36.818,40.822,43.996,32,43.996z"/>
			</g>
			<g>
				<path d="M17,28.996c-0.553,0-1-0.448-1-1v-8.001c0-0.552,0.447-1,1-1s1,0.448,1,1v8.001C18,28.548,17.553,28.996,17,28.996z"/>
			</g>
			<g>
				<path d="M47,28.996c-0.553,0-1-0.448-1-1v-8.001c0-0.552,0.447-1,1-1s1,0.448,1,1v8.001C48,28.548,47.553,28.996,47,28.996z"/>
			</g>
		</g>
		<g>
			<g>
				<path d="M35,38.988c-0.256,0-0.512-0.098-0.707-0.293l-0.707-0.707h-3.172l-0.707,0.707c-0.391,0.391-1.023,0.391-1.414,0
					s-0.391-1.023,0-1.414l1-1c0.188-0.188,0.441-0.293,0.707-0.293h4c0.266,0,0.52,0.105,0.707,0.293l1,1
					c0.391,0.391,0.391,1.023,0,1.414C35.512,38.891,35.256,38.988,35,38.988z"/>
			</g>
			<g>
				<path d="M29,38.988c-5.514,0-10-4.485-10-10c0-0.552,0.447-1,1-1s1,0.448,1,1c0,4.411,3.589,8,8,8c0.553,0,1,0.447,1,1
					S29.553,38.988,29,38.988z"/>
			</g>
			<g>
				<path d="M20,29.989c-0.553,0-1-0.448-1-1c0-1.103-0.897-2-2-2c-0.553,0-1-0.448-1-1s0.447-1,1-1c2.206,0,4,1.794,4,4
					C21,29.541,20.553,29.989,20,29.989z"/>
			</g>
			<g>
				<path d="M35,38.988c-0.553,0-1-0.447-1-1s0.447-1,1-1c4.411,0,8-3.589,8-8c0-0.552,0.447-1,1-1s1,0.448,1,1
					C45,34.503,40.514,38.988,35,38.988z"/>
			</g>
			<g>
				<path d="M44,29.989c-0.553,0-1-0.448-1-1c0-2.206,1.794-4,4-4c0.553,0,1,0.448,1,1s-0.447,1-1,1c-1.103,0-2,0.897-2,2
					C45,29.541,44.553,29.989,44,29.989z"/>
			</g>
		</g>
		<g>
			<path d="M47,21.995H17c-0.553,0-1-0.448-1-1s0.447-1,1-1h30c0.553,0,1,0.448,1,1S47.553,21.995,47,21.995z"/>
		</g>
		<g>
			<path d="M47,18.995H17c-0.553,0-1-0.448-1-1s0.447-1,1-1h30c0.553,0,1,0.448,1,1S47.553,18.995,47,18.995z"/>
		</g>
		<g>
			<path d="M47,20.995c-0.553,0-1-0.448-1-1v-13c0-0.552,0.447-1,1-1s1,0.448,1,1v13C48,20.547,47.553,20.995,47,20.995z"/>
		</g>
		<g>
			<path d="M17,20.995c-0.553,0-1-0.448-1-1v-13c0-0.552,0.447-1,1-1s1,0.448,1,1v13C18,20.547,17.553,20.995,17,20.995z"/>
		</g>
		<g>
			<path d="M22.999,10.995c-0.15,0-0.303-0.034-0.446-0.105l-6-3c-0.494-0.247-0.694-0.848-0.447-1.342
				c0.248-0.494,0.849-0.695,1.342-0.447l6,3c0.494,0.247,0.694,0.848,0.447,1.342C23.719,10.792,23.366,10.995,22.999,10.995z"/>
		</g>
		<g>
			<path d="M41.001,10.995c-0.367,0-0.72-0.202-0.896-0.553c-0.247-0.494-0.047-1.095,0.447-1.342l6-3
				c0.495-0.248,1.094-0.046,1.342,0.447c0.247,0.494,0.047,1.095-0.447,1.342l-6,3C41.304,10.961,41.151,10.995,41.001,10.995z"/>
		</g>
		<g>
			<path d="M23,10.995c-0.256,0-0.512-0.098-0.707-0.293c-0.391-0.391-0.391-1.023,0-1.414l9-9c0.391-0.391,1.023-0.391,1.414,0
				s0.391,1.023,0,1.414l-9,9C23.512,10.897,23.256,10.995,23,10.995z"/>
		</g>
		<g>
			<path d="M41,10.995c-0.256,0-0.512-0.098-0.707-0.293l-9-9c-0.391-0.391-0.391-1.023,0-1.414s1.023-0.391,1.414,0l9,9
				c0.391,0.391,0.391,1.023,0,1.414C41.512,10.897,41.256,10.995,41,10.995z"/>
		</g>
		<g>
			<path d="M33,14.995h-2c-0.379,0-0.725-0.214-0.895-0.553l-1-2C29.036,12.303,29,12.15,29,11.995v-1
				c0-0.155,0.036-0.309,0.105-0.447l1-2c0.17-0.339,0.516-0.553,0.895-0.553h2c0.379,0,0.725,0.214,0.895,0.553l1,2
				C34.964,10.686,35,10.839,35,10.995v1c0,0.155-0.036,0.309-0.105,0.447l-1,2C33.725,14.781,33.379,14.995,33,14.995z
				 M31.618,12.995h0.764L33,11.759V11.23l-0.618-1.236h-0.764L31,11.23v0.528L31.618,12.995z"/>
		</g>
		<g>
			<path d="M47.03,4.995c-0.553,0-1.005-0.448-1.005-1s0.442-1,0.994-1h0.011c0.552,0,1,0.448,1,1S47.582,4.995,47.03,4.995z"/>
		</g>
		<g>
			<path d="M17.03,4.995c-0.553,0-1.005-0.448-1.005-1s0.442-1,0.994-1h0.011c0.552,0,1,0.448,1,1S17.582,4.995,17.03,4.995z"/>
		</g>
		<g id="_x35__avatar_x2C__man_x2C__style_x2C__people_x2C__hairstyle_x2C__barbershop_3_">
			<g>
				<path d="M10,56.008c-0.553,0-1-0.447-1-1c0-4.964,4.038-9.002,9.002-9.002c0.553,0,1,0.447,1,1s-0.447,1-1,1
					c-3.861,0-7.002,3.141-7.002,7.002C11,55.561,10.553,56.008,10,56.008z"/>
			</g>
			<g>
				<path d="M54,56.008c-0.553,0-1-0.447-1-1c0-3.859-3.141-7-7-7c-0.553,0-1-0.447-1-1s0.447-1,1-1c4.963,0,9,4.037,9,9
					C55,55.561,54.553,56.008,54,56.008z"/>
			</g>
			<g>
				<path d="M23.001,48.006h-4.999c-0.553,0-1-0.447-1-1s0.447-1,1-1h4.999c0.553,0,1,0.447,1,1S23.554,48.006,23.001,48.006z"/>
			</g>
			<g>
				<path d="M10.001,63.006c-0.552,0-1-0.447-1-1L9,55.008c0-0.552,0.447-1,1-1c0.552,0,1,0.447,1,1l0.001,6.998
					C11.001,62.558,10.554,63.006,10.001,63.006z"/>
			</g>
			<g>
				<path d="M11.001,64.006c-1.103,0-2-0.897-2-2c0-0.553,0.447-1,1-1s1,0.447,1,1v0.002c0.553,0,1,0.446,1,0.999
					C12.001,63.559,11.554,64.006,11.001,64.006z"/>
			</g>
			<g>
				<path d="M53,64.006c-0.553,0-1-0.447-1-1s0.447-1,1-1h0.002c0-0.553,0.446-1,0.999-1c0.552,0,0.999,0.447,0.999,1
					C55,63.108,54.103,64.006,53,64.006z"/>
			</g>
			<g>
				<path d="M54,63.006c-0.553,0-1-0.447-1-1v-6.998c0-0.553,0.447-1,1-1s1,0.447,1,1v6.998C55,62.559,54.553,63.006,54,63.006z"/>
			</g>
			<g>
				<path d="M53,64.006H11.001c-0.553,0-1-0.447-1-1s0.447-1,1-1H53c0.553,0,1,0.447,1,1S53.553,64.006,53,64.006z"/>
			</g>
			<g>
				<path d="M25,46.006c-0.553,0-1-0.447-1-1v-3.73c0-0.553,0.447-1,1-1s1,0.447,1,1v3.73C26,45.559,25.553,46.006,25,46.006z"/>
			</g>
			<g>
				<path d="M39,46.006c-0.553,0-1-0.447-1-1v-3.73c0-0.553,0.447-1,1-1s1,0.447,1,1v3.73C40,45.559,39.553,46.006,39,46.006z"/>
			</g>
			<g>
				<path d="M26.558,50.008c-0.353,0-0.694-0.187-0.877-0.517c-0.267-0.484-0.091-1.093,0.393-1.359l5.443-3.002
					c0.484-0.266,1.093-0.091,1.359,0.393c0.267,0.484,0.091,1.093-0.393,1.359l-5.443,3.002
					C26.887,49.968,26.721,50.008,26.558,50.008z"/>
			</g>
			<g>
				<path d="M37.442,50.008c-0.163,0-0.329-0.04-0.482-0.124l-5.443-3.002c-0.483-0.267-0.659-0.875-0.393-1.359
					c0.268-0.483,0.875-0.658,1.359-0.393l5.443,3.002c0.483,0.267,0.659,0.875,0.393,1.359
					C38.137,49.821,37.795,50.008,37.442,50.008z"/>
			</g>
			<g>
				<g>
					<path d="M21,50.008c-0.256,0-0.512-0.098-0.707-0.293c-0.391-0.391-0.391-1.023,0-1.414l4-4.002
						c0.391-0.391,1.023-0.391,1.414,0s0.391,1.023,0,1.414l-4,4.002C21.512,49.91,21.256,50.008,21,50.008z"/>
				</g>
				<g>
					<path d="M25,54.006c-0.256,0-0.512-0.098-0.707-0.293l-4-3.998c-0.391-0.391-0.391-1.023,0-1.414s1.023-0.391,1.414,0l4,3.998
						c0.391,0.391,0.391,1.023,0,1.414C25.512,53.908,25.256,54.006,25,54.006z"/>
				</g>
				<g>
					<path d="M23,56.006c-0.256,0-0.512-0.098-0.707-0.293c-0.391-0.391-0.391-1.023,0-1.414l2-2c0.391-0.391,1.023-0.391,1.414,0
						s0.391,1.023,0,1.414l-2,2C23.512,55.908,23.256,56.006,23,56.006z"/>
				</g>
				<g>
					<path d="M29.001,64.006c-0.305,0-0.604-0.138-0.801-0.4l-6-8c-0.332-0.441-0.242-1.068,0.2-1.399
						c0.441-0.332,1.068-0.243,1.399,0.2l6,8c0.332,0.441,0.242,1.068-0.2,1.399C29.42,63.94,29.21,64.006,29.001,64.006z"/>
				</g>
				<g>
					<path d="M32,64.006c-0.4,0-0.778-0.242-0.932-0.638l-7-18c-0.2-0.515,0.055-1.094,0.569-1.294
						c0.514-0.2,1.095,0.055,1.294,0.569l7,18c0.2,0.515-0.055,1.094-0.569,1.294C32.243,63.984,32.121,64.006,32,64.006z"/>
				</g>
			</g>
			<g>
				<g>
					<path d="M43,50.008c-0.256,0-0.512-0.098-0.707-0.293l-4-4.002c-0.391-0.391-0.391-1.023,0-1.414s1.023-0.391,1.414,0l4,4.002
						c0.391,0.391,0.391,1.023,0,1.414C43.512,49.91,43.256,50.008,43,50.008z"/>
				</g>
				<g>
					<path d="M39,54.006c-0.256,0-0.512-0.098-0.707-0.293c-0.391-0.391-0.391-1.023,0-1.414l4-3.998
						c0.391-0.391,1.023-0.391,1.414,0s0.391,1.023,0,1.414l-4,3.998C39.512,53.908,39.256,54.006,39,54.006z"/>
				</g>
				<g>
					<path d="M41,56.006c-0.256,0-0.512-0.098-0.707-0.293l-2-2c-0.391-0.391-0.391-1.023,0-1.414s1.023-0.391,1.414,0l2,2
						c0.391,0.391,0.391,1.023,0,1.414C41.512,55.908,41.256,56.006,41,56.006z"/>
				</g>
				<g>
					<path d="M34.999,64.006c-0.209,0-0.419-0.065-0.599-0.2c-0.442-0.331-0.532-0.958-0.2-1.399l6-8
						c0.331-0.442,0.958-0.531,1.399-0.2c0.442,0.331,0.532,0.958,0.2,1.399l-6,8C35.604,63.868,35.304,64.006,34.999,64.006z"/>
				</g>
				<g>
					<path d="M32,64.006c-0.121,0-0.243-0.021-0.362-0.068c-0.515-0.2-0.77-0.779-0.569-1.294l7-18
						c0.2-0.515,0.779-0.771,1.294-0.569c0.515,0.2,0.77,0.779,0.569,1.294l-7,18C32.778,63.764,32.4,64.006,32,64.006z"/>
				</g>
			</g>
			<g>
				<path d="M46,48.008h-5c-0.553,0-1-0.447-1-1s0.447-1,1-1h5c0.553,0,1,0.447,1,1S46.553,48.008,46,48.008z"/>
			</g>
			<g>
				<path d="M28.889,56.006c-0.13,0-0.262-0.025-0.389-0.079c-0.509-0.215-0.747-0.802-0.532-1.31l2.111-4.998
					c0.215-0.509,0.802-0.748,1.31-0.532c0.509,0.215,0.747,0.802,0.532,1.31l-2.111,4.998
					C29.648,55.776,29.278,56.006,28.889,56.006z"/>
			</g>
			<g>
				<path d="M35.111,56.006c-0.39,0-0.76-0.229-0.921-0.611l-2.111-5c-0.215-0.509,0.023-1.095,0.532-1.31
					c0.508-0.214,1.095,0.023,1.31,0.532l2.111,5c0.215,0.509-0.023,1.095-0.532,1.31C35.373,55.98,35.241,56.006,35.111,56.006z"/>
			</g>
			<g>
				<path d="M33,51.008h-2c-0.553,0-1-0.447-1-1s0.447-1,1-1h2c0.553,0,1,0.447,1,1S33.553,51.008,33,51.008z"/>
			</g>
			<g>
				<path d="M33,51.008c-0.229,0-0.46-0.078-0.648-0.239c-0.421-0.357-0.471-0.989-0.112-1.409l2-2.348
					c0.357-0.421,0.989-0.472,1.409-0.112c0.421,0.357,0.471,0.989,0.112,1.409l-2,2.348C33.563,50.889,33.282,51.008,33,51.008z"/>
			</g>
			<g>
				<path d="M31,51.008c-0.282,0-0.563-0.119-0.761-0.352l-2-2.348c-0.358-0.42-0.309-1.052,0.112-1.409
					c0.42-0.359,1.052-0.309,1.409,0.112l2,2.348c0.358,0.42,0.309,1.052-0.112,1.409C31.46,50.93,31.229,51.008,31,51.008z"/>
			</g>
		</g>
	</g>
</g>
<g id="_x34__structure_x2C__structuring_x2C__business_x2C__office_x2C__corporation_x2C__job">
</g>
<g id="_x33__soft_x2C__skills_x2C__communication_x2C__business_x2C__office_x2C__corporation_x2C__job">
</g>
<g id="_x32__office_x2C__house_x2C__portfolio_x2C__business_x2C__corporation_x2C__job">
</g>
<g id="_x31__corporate_x2C__rules_x2C__book_x2C__business_x2C__office_x2C__corporation_x2C__job">
</g>
</svg>
