<?xml version="1.0" encoding="utf-8"?>
<!-- Generator: Adobe Illustrator 16.0.0, SVG Export Plug-In . SVG Version: 6.00 Build 0)  -->
<!DOCTYPE svg PUBLIC "-//W3C//DTD SVG 1.1//EN" "http://www.w3.org/Graphics/SVG/1.1/DTD/svg11.dtd">
<svg version="1.1" xmlns="http://www.w3.org/2000/svg" xmlns:xlink="http://www.w3.org/1999/xlink" x="0px" y="0px" width="64px"
	 height="64px" viewBox="0 0 64 64" enable-background="new 0 0 64 64" xml:space="preserve">
<g id="_x35_0_document_x2C__optimization_x2C__documentation_x2C__business_x2C__office_x2C__corporation_x2C__job">
</g>
<g id="_x34_9_human_x2C__resource_x2C__conveyor_x2C__business_x2C__office_x2C__corporation_x2C__job">
</g>
<g id="_x34_8_knowledge_x2C__training_x2C__growth_x2C__book_x2C__business_x2C__office_x2C__corporation">
</g>
<g id="_x34_7_skill_x2C__competence_x2C__experience_x2C__business_x2C__office_x2C__corporation_x2C__job">
</g>
<g id="_x34_6_target_x2C__success_x2C__victory_x2C__business_x2C__office_x2C__corporation_x2C__job">
</g>
<g id="_x34_5_inbox_x2C__letter_x2C__email_x2C__business_x2C__office_x2C__corporation_x2C__job">
</g>
<g id="_x34_4_document_x2C__workflow_x2C__sharing_x2C__business_x2C__office_x2C__corporation_x2C__job">
</g>
<g id="_x34_3_budget_x2C__allocation_x2C__money_x2C__business_x2C__office_x2C__corporation_x2C__job">
</g>
<g id="_x34_2_case_x2C__task_x2C__project_x2C__business_x2C__office_x2C__corporation_x2C__job">
</g>
<g id="_x34_1_structure_x2C__structuring_x2C__tasks_x2C__business_x2C__office_x2C__corporation_x2C__job">
</g>
<g id="_x34_0_choice_x2C__dilemma_x2C__question_x2C__business_x2C__office_x2C__corporation_x2C__job">
</g>
<g id="_x33_9_workplace_x2C__table_x2C__laptop_x2C__business_x2C__office_x2C__corporation_x2C__job">
</g>
<g id="_x33_8_bribe_x2C__bag_x2C__money_x2C__business_x2C__office_x2C__corporation_x2C__job">
</g>
<g id="_x33_7_corruption_x2C__forage_x2C__money_x2C__business_x2C__office_x2C__corporation_x2C__job">
</g>
<g id="_x33_6_career_x2C__ladder_x2C__success_x2C__business_x2C__office_x2C__corporation_x2C__job">
</g>
<g id="_x33_5_review_x2C__feedback_x2C__rating_x2C__business_x2C__office_x2C__corporation_x2C__job">
</g>
<g id="_x33_4_manipulation_x2C__thread_x2C__puppet_x2C__business_x2C__office_x2C__corporation_x2C__job">
</g>
<g id="_x33_3_location_x2C__map_x2C__pin_x2C__business_x2C__office_x2C__corporation_x2C__job">
</g>
<g id="_x33_2_retirement_x2C__old_x2C__man_x2C__door_x2C__business_x2C__office_x2C__corporation">
</g>
<g id="_x33_1_victory_x2C__success_x2C__medal_x2C__reward_x2C__business_x2C__office_x2C__corporation">
</g>
<g id="_x33_0_dismissal_x2C__box_x2C__door_x2C__business_x2C__office_x2C__corporation_x2C__job">
</g>
<g id="_x32_9_meeting_x2C__discussion_x2C__question_x2C__business_x2C__office_x2C__corporation_x2C__job">
</g>
<g id="_x32_8_strategy_x2C__vision_x2C__eye_x2C__chess_x2C__business_x2C__office_x2C__corporation">
</g>
<g id="_x32_7_board_x2C__task_x2C__process_x2C__business_x2C__office_x2C__corporation_x2C__job">
</g>
<g id="_x32_6_scheme_x2C__board_x2C__structure_x2C__business_x2C__office_x2C__corporation_x2C__job">
</g>
<g id="_x32_5_conflict_x2C__dialog_x2C__discussion_x2C__business_x2C__office_x2C__corporation_x2C__job">
</g>
<g id="_x32_4_documentation_x2C__document_x2C__repository_x2C__business_x2C__office_x2C__corporation_x2C__job">
</g>
<g id="_x32_3_sprint_x2C__programming_x2C__code_x2C__business_x2C__office_x2C__corporation_x2C__job">
</g>
<g id="_x32_2_cram_x2C__tablet_x2C__work_x2C__business_x2C__office_x2C__corporation_x2C__job">
</g>
<g id="_x32_1_leader_x2C__discoverer_x2C__flag_x2C__business_x2C__office_x2C__corporation_x2C__job">
</g>
<g id="_x32_0_rally_x2C__collective_x2C__arm_x2C__business_x2C__office_x2C__corporation_x2C__job">
</g>
<g id="_x31_9_consolidation_x2C__portfolio_x2C__puzzle_x2C__business_x2C__office_x2C__corporation_x2C__job">
</g>
<g id="_x31_8_idea_x2C__creative_x2C__work_x2C__business_x2C__office_x2C__corporation_x2C__job">
</g>
<g id="_x31_7_problem_x2C__stress_x2C__resistance_x2C__business_x2C__office_x2C__corporation_x2C__job">
</g>
<g id="_x31_6_hard_x2C__skills_x2C__skill_x2C__portfolio_x2C__book_x2C__business_x2C__office">
</g>
<g id="_x31_5_time_x2C__management_x2C__clock_x2C__deadline_x2C__business_x2C__office_x2C__corporation">
</g>
<g id="_x31_4_multitasking_x2C__task_x2C__work_x2C__business_x2C__office_x2C__corporation_x2C__job">
</g>
<g id="_x31_3_tranquility_x2C__yoga_x2C__lotus_x2C__posture_x2C__business_x2C__office_x2C__corporation">
</g>
<g id="_x31_2_corporate_x2C__party_x2C__business_x2C__office_x2C__corporation_x2C__job">
</g>
<g id="_x31_1_dialog_x2C__discussion_x2C__work_x2C__business_x2C__office_x2C__corporation_x2C__job">
</g>
<g id="_x31_0_listening_x2C__skill_x2C__dialog_x2C__business_x2C__office_x2C__corporation_x2C__job">
	<g>
		<polygon fill="#94C1FF" points="47,4.5 47,20.5 42,20.5 42,22.5 38,20.5 22,20.5 22,4.5 		"/>
	</g>
	<g>
		<path fill="#94C1FF" d="M59.98,34v1.5c-1.941-2.53-3.35-3.13-4.98-2.97l2.98-4.36C59.24,29.78,59.98,31.81,59.98,34z"/>
	</g>
	<g>
		<path fill="#94C1FF" d="M57.98,28.17L55,32.53c-2.66,0.26-5.92,2.49-13.02,1.611c-0.32-0.041-0.66-0.091-1-0.141
			c0-5.25,4.25-9.5,9.5-9.5C53.529,24.5,56.25,25.94,57.98,28.17z"/>
	</g>
	<g>
		<path fill="#5C9EFF" d="M57.98,28.17l-2.33,3.406c0.084,0.315,0.162,0.633,0.213,0.959c0.596,0.058,1.184,0.26,1.797,0.66
			c0.066,0.043,0.133,0.084,0.201,0.132c0.102,0.073,0.205,0.155,0.309,0.239c0.094,0.078,0.189,0.159,0.287,0.246
			c0.092,0.083,0.184,0.168,0.277,0.26c0.121,0.12,0.246,0.254,0.371,0.391c0.078,0.083,0.152,0.161,0.23,0.251
			c0.209,0.239,0.422,0.497,0.645,0.786V34C59.98,31.81,59.24,29.78,57.98,28.17z"/>
	</g>
	<g>
		<path fill="#5C9EFF" d="M49.426,24.562c-0.326,0.037-0.646,0.089-0.961,0.157h-0.002c2.229,0.475,4.174,1.72,5.518,3.451
			c0.777,0.994,1.342,2.153,1.67,3.406l2.33-3.406c-1.73-2.23-4.451-3.67-7.5-3.67c-0.346,0-0.686,0.02-1.021,0.057
			C49.447,24.558,49.438,24.561,49.426,24.562z"/>
	</g>
	<g>
		<path fill="#D7E9FF" d="M59.98,35.5v3c0,3.53-2.041,6.59-5,8.06c-1.201,0.601-2.561,0.94-4,0.94c-1.441,0-2.801-0.34-4-0.94
			c-2.961-1.47-5-4.529-5-8.06v-0.04v-4.319C49.08,35.02,52.34,32.79,55,32.53C56.631,32.37,58.039,32.97,59.98,35.5z"/>
	</g>
	<g>
		<path fill="#94C1FF" d="M56,32.55v5.977c0,3.53-2.041,6.59-5,8.06c-0.607,0.304-1.256,0.539-1.934,0.699
			c0.617,0.135,1.256,0.214,1.914,0.214c1.439,0,2.799-0.34,4-0.94c2.959-1.47,5-4.529,5-8.06v-3
			C58.445,33.499,57.242,32.715,56,32.55z"/>
	</g>
	<g>
		<path fill="#FFFFFF" d="M50.98,47.5c1.439,0,2.799-0.34,4-0.94v3.94l-2,1l-2-1l-2,1l-2-1v-3.94
			C48.18,47.16,49.539,47.5,50.98,47.5z"/>
	</g>
	<g>
		<path fill="#FFFFFF" d="M62.98,55.5v3c0,0.55-0.441,1-1,1h-22c-0.551,0-1-0.45-1-1v-3c0-2.76,2.24-5,5-5h3l2,1l2-1l2,1l2-1h3
			C60.75,50.5,62.98,52.74,62.98,55.5z"/>
	</g>
	<g>
		<g>
			<path fill="#D7E9FF" d="M57.98,50.5h-3l-0.168,0.084c2.369,0.397,4.168,2.44,4.168,4.916v3c0,0.55-0.441,1-1,1h4
				c0.559,0,1-0.45,1-1v-3C62.98,52.74,60.75,50.5,57.98,50.5z"/>
		</g>
	</g>
	<g>
		<path fill="#FFFFFF" d="M13.02,47.5c1.439,0,2.801-0.34,4-0.94v3.94l-2,1l-2-1l-2,1l-2-1v-3.94
			C10.221,47.16,11.58,47.5,13.02,47.5z"/>
	</g>
	<g>
		<path fill="#5D9CEC" d="M25.02,58.5c0,0.55-0.449,1-1,1h-22c-0.549,0-1-0.45-1-1v-3c0-2.76,2.23-5,5-5h3l2,1l2-1l2,1l2-1h3
			c2.76,0,5,2.24,5,5V58.5z"/>
	</g>
	<g>
		<g>
			<path fill="#4A89DC" d="M20.02,50.5h-3l-0.168,0.084c2.363,0.398,4.168,2.441,4.168,4.916v3c0,0.55-0.449,1-1,1h4
				c0.551,0,1-0.45,1-1v-3C25.02,52.74,22.779,50.5,20.02,50.5z"/>
		</g>
	</g>
	<g>
		<path fill="#D7E9FF" d="M22.02,35.53v2.97c0,3.53-2.039,6.59-5,8.06c-1.199,0.601-2.561,0.94-4,0.94s-2.799-0.34-4-0.94
			c-2.949-1.46-4.98-4.5-5-8.01V38.5v-2.97l3-2.03c0,0,3.01,1,6.5,1s5.5-1,5.5-1L22.02,35.53z"/>
	</g>
	<g>
		<path fill="#94C1FF" d="M19.02,33.5c0,0-0.357,0.17-1,0.369V38.5c0,3.53-2.039,6.59-5,8.06c-0.627,0.313-1.297,0.551-2,0.711
			c0.643,0.147,1.313,0.229,2,0.229c1.439,0,2.801-0.34,4-0.94c2.961-1.47,5-4.529,5-8.06v-2.97L19.02,33.5z"/>
	</g>
	<g>
		<path fill="#94C1FF" d="M22.02,32.5v3.03l-3-2.03c0,0-2.01,1-5.5,1s-6.5-1-6.5-1l-3,2.03V32.5c0-4.42,3.58-8,8-8h6v4
			C20.23,28.5,22.02,30.29,22.02,32.5z"/>
	</g>
	<g>
		<g>
			<path fill="#5C9EFF" d="M18.02,28.5v-4h-4v6c2.211,0,4,0.79,4,3v0.369c0.643-0.199,1-0.369,1-0.369l3,2.03V32.5
				C22.02,30.29,20.23,28.5,18.02,28.5z"/>
		</g>
	</g>
	<g>
		<rect x="42.99" y="4.5" fill="#5C9EFF" width="4" height="16"/>
	</g>
	<g>
		<g>
			<g>
				<path fill="#116FFF" d="M1.018,56.5c-0.553,0-1-0.447-1-1c0-3.309,2.691-6,6-6c0.553,0,1,0.447,1,1s-0.447,1-1,1
					c-2.206,0-4,1.794-4,4C2.018,56.053,1.57,56.5,1.018,56.5z"/>
			</g>
			<g>
				<path fill="#116FFF" d="M9.018,51.5h-3c-0.553,0-1-0.447-1-1s0.447-1,1-1h3c0.553,0,1,0.447,1,1S9.57,51.5,9.018,51.5z"/>
			</g>
			<g>
				<path fill="#116FFF" d="M1.018,59.5c-0.553,0-1-0.447-1-1v-3c0-0.553,0.447-1,1-1s1,0.447,1,1v3
					C2.018,59.053,1.57,59.5,1.018,59.5z"/>
			</g>
			<g>
				<path fill="#116FFF" d="M2.018,60.5c-1.103,0-2-0.897-2-2c0-0.531,0.418-0.914,0.948-0.943c0.558-0.037,0.992,0.416,1.052,0.942
					c0.552,0,1,0.448,1,1C3.018,60.052,2.57,60.5,2.018,60.5z"/>
			</g>
			<g>
				<path fill="#116FFF" d="M25.018,56.5c-0.553,0-1-0.447-1-1c0-2.206-1.794-4-4-4c-0.553,0-1-0.447-1-1s0.447-1,1-1
					c3.309,0,6,2.691,6,6C26.018,56.053,25.57,56.5,25.018,56.5z"/>
			</g>
			<g>
				<path fill="#116FFF" d="M20.018,51.5h-3c-0.553,0-1-0.447-1-1s0.447-1,1-1h3c0.553,0,1,0.447,1,1S20.57,51.5,20.018,51.5z"/>
			</g>
			<g>
				<path fill="#116FFF" d="M25.018,59.5c-0.553,0-1-0.447-1-1v-3c0-0.553,0.447-1,1-1s1,0.447,1,1v3
					C26.018,59.053,25.57,59.5,25.018,59.5z"/>
			</g>
			<g>
				<path fill="#116FFF" d="M24.018,60.5c-0.553,0-1-0.447-1-1s0.447-1,1-1c0-0.553,0.447-1,1-1s1,0.447,1,1
					C26.018,59.603,25.12,60.5,24.018,60.5z"/>
			</g>
			<g>
				<path fill="#116FFF" d="M24.018,60.5h-22c-0.553,0-1-0.447-1-1s0.447-1,1-1h22c0.553,0,1,0.447,1,1S24.57,60.5,24.018,60.5z"/>
			</g>
			<g>
				<path fill="#116FFF" d="M9.018,51.5c-0.553,0-1-0.447-1-1v-3.936c0-0.553,0.447-1,1-1s1,0.447,1,1V50.5
					C10.018,51.053,9.57,51.5,9.018,51.5z"/>
			</g>
			<g>
				<path fill="#116FFF" d="M17.018,51.5c-0.553,0-1-0.447-1-1v-3.936c0-0.553,0.447-1,1-1s1,0.447,1,1V50.5
					C18.018,51.053,17.57,51.5,17.018,51.5z"/>
			</g>
			<g>
				<path fill="#116FFF" d="M13.017,48.5c-5.514,0-9.999-4.485-9.999-9.998c0-0.553,0.447-1,1-1s1,0.447,1,1
					c0,4.41,3.588,7.998,7.999,7.998c4.412,0,8.001-3.588,8.001-7.998c0-0.553,0.447-1,1-1s1,0.447,1,1
					C23.018,44.015,18.531,48.5,13.017,48.5z"/>
			</g>
			<g>
				<path fill="#116FFF" d="M4.018,39.551c-0.553,0-1-0.447-1-1V32.5c0-0.552,0.447-1,1-1s1,0.448,1,1v6.051
					C5.018,39.104,4.57,39.551,4.018,39.551z"/>
			</g>
			<g>
				<path fill="#116FFF" d="M22.018,39.502c-0.553,0-1-0.447-1-1V32.5c0-0.552,0.447-1,1-1s1,0.448,1,1v6.002
					C23.018,39.055,22.57,39.502,22.018,39.502z"/>
			</g>
			<g>
				<path fill="#116FFF" d="M22.018,33.499c-0.553,0-1-0.447-1-1c0-1.654-1.346-2.999-3-2.999c-0.553,0-1-0.448-1-1s0.447-1,1-1
					c2.757,0,5,2.243,5,4.999C23.018,33.052,22.57,33.499,22.018,33.499z"/>
			</g>
			<g>
				<path fill="#116FFF" d="M18.018,29.5c-0.553,0-1-0.448-1-1v-4c0-0.552,0.447-1,1-1s1,0.448,1,1v4
					C19.018,29.052,18.57,29.5,18.018,29.5z"/>
			</g>
			<g>
				<path fill="#116FFF" d="M18.018,25.5h-6c-0.553,0-1-0.448-1-1s0.447-1,1-1h6c0.553,0,1,0.448,1,1S18.57,25.5,18.018,25.5z"/>
			</g>
			<g>
				<path fill="#116FFF" d="M4.018,33.5c-0.553,0-1-0.447-1-1c0-4.962,4.037-9,9-9c0.553,0,1,0.448,1,1s-0.447,1-1,1
					c-3.859,0-7,3.14-7,7C5.018,33.053,4.57,33.5,4.018,33.5z"/>
			</g>
			<g>
				<g>
					<path fill="#116FFF" d="M22.017,36.525c-0.192,0-0.387-0.056-0.559-0.171l-3-2.025c-0.458-0.31-0.578-0.931-0.27-1.389
						c0.309-0.457,0.931-0.579,1.389-0.269l3,2.025c0.458,0.31,0.578,0.931,0.27,1.389C22.653,36.371,22.338,36.525,22.017,36.525z"
						/>
				</g>
				<g>
					<path fill="#116FFF" d="M13.518,35.5c-3.612,0-6.687-1.008-6.815-1.051c-0.523-0.175-0.807-0.74-0.634-1.264
						c0.174-0.524,0.739-0.811,1.264-0.635c0.029,0.01,2.908,0.949,6.186,0.949c3.178,0,5.04-0.888,5.059-0.897
						c0.494-0.242,1.094-0.038,1.337,0.457c0.243,0.494,0.043,1.09-0.449,1.336C19.373,34.44,17.203,35.5,13.518,35.5z"/>
				</g>
				<g>
					<path fill="#116FFF" d="M4.019,36.525c-0.321,0-0.637-0.154-0.83-0.44C2.88,35.627,3,35.006,3.458,34.696l3-2.025
						c0.459-0.31,1.08-0.188,1.389,0.269c0.309,0.458,0.188,1.079-0.27,1.389l-3,2.025C4.405,36.47,4.211,36.525,4.019,36.525z"/>
				</g>
			</g>
			<g>
				<path fill="#116FFF" d="M11.017,52.5c-0.15,0-0.303-0.034-0.446-0.105l-2-1c-0.494-0.247-0.694-0.848-0.447-1.342
					s0.848-0.691,1.342-0.447l2,1c0.494,0.247,0.694,0.848,0.447,1.342C11.736,52.298,11.384,52.5,11.017,52.5z"/>
			</g>
			<g>
				<path fill="#116FFF" d="M11.019,52.5c-0.367,0-0.72-0.202-0.896-0.553c-0.247-0.494-0.047-1.095,0.447-1.342l2-1
					c0.494-0.244,1.095-0.047,1.342,0.447s0.047,1.095-0.447,1.342l-2,1C11.321,52.466,11.169,52.5,11.019,52.5z"/>
			</g>
			<g>
				<path fill="#116FFF" d="M15.019,52.5c-0.367,0-0.72-0.202-0.896-0.553c-0.247-0.494-0.047-1.095,0.447-1.342l2-1
					c0.493-0.244,1.094-0.047,1.342,0.447c0.247,0.494,0.047,1.095-0.447,1.342l-2,1C15.321,52.466,15.169,52.5,15.019,52.5z"/>
			</g>
			<g>
				<path fill="#116FFF" d="M15.017,52.5c-0.15,0-0.303-0.034-0.446-0.105l-2-1c-0.494-0.247-0.694-0.848-0.447-1.342
					c0.248-0.494,0.847-0.691,1.342-0.447l2,1c0.494,0.247,0.694,0.848,0.447,1.342C15.736,52.298,15.384,52.5,15.017,52.5z"/>
			</g>
		</g>
		<g>
			<g>
				<path fill="#116FFF" d="M41.982,39.46c-0.553,0-1-0.447-1-1v-4.32c0-0.553,0.447-1,1-1s1,0.447,1,1v4.32
					C42.982,39.013,42.535,39.46,41.982,39.46z"/>
			</g>
			<g>
				<path fill="#116FFF" d="M59.982,39.5c-0.553,0-1-0.447-1-1v-4.501c0-0.553,0.447-1,1-1s1,0.447,1,1V38.5
					C60.982,39.053,60.535,39.5,59.982,39.5z"/>
			</g>
			<g>
				<path fill="#116FFF" d="M59.982,34.999c-0.553,0-1-0.447-1-1c0-4.687-3.813-8.499-8.501-8.499c-4.687,0-8.499,3.813-8.499,8.499
					c0,0.553-0.447,1-1,1s-1-0.447-1-1c0-5.789,4.71-10.499,10.499-10.499c5.79,0,10.501,4.71,10.501,10.499
					C60.982,34.552,60.535,34.999,59.982,34.999z"/>
			</g>
			<g>
				<path fill="#116FFF" d="M59.983,36.5c-0.301,0-0.598-0.135-0.795-0.392c-2.46-3.213-3.567-2.883-6.524-2.001
					c-2.545,0.758-6.032,1.798-11.838,0.879c-0.545-0.086-0.918-0.598-0.831-1.144c0.086-0.545,0.596-0.922,1.144-0.831
					c5.356,0.844,8.591-0.119,10.954-0.821c3.131-0.931,5.39-1.602,8.684,2.701c0.336,0.438,0.253,1.066-0.186,1.402
					C60.409,36.433,60.195,36.5,59.983,36.5z"/>
			</g>
			<g>
				<path fill="#116FFF" d="M55.003,33.528c-0.194,0-0.391-0.057-0.563-0.174c-0.456-0.312-0.573-0.934-0.262-1.39l2.979-4.36
					c0.313-0.456,0.935-0.573,1.391-0.262s0.573,0.934,0.262,1.39l-2.979,4.361C55.636,33.376,55.322,33.528,55.003,33.528z"/>
			</g>
			<g>
				<path fill="#116FFF" d="M38.982,56.5c-0.553,0-1-0.447-1-1c0-3.309,2.691-6,6-6c0.553,0,1,0.447,1,1s-0.447,1-1,1
					c-2.206,0-4,1.794-4,4C39.982,56.053,39.535,56.5,38.982,56.5z"/>
			</g>
			<g>
				<path fill="#116FFF" d="M46.982,51.5h-3c-0.553,0-1-0.447-1-1s0.447-1,1-1h3c0.553,0,1,0.447,1,1S47.535,51.5,46.982,51.5z"/>
			</g>
			<g>
				<path fill="#116FFF" d="M38.982,59.5c-0.553,0-1-0.447-1-1v-3c0-0.553,0.447-1,1-1s1,0.447,1,1v3
					C39.982,59.053,39.535,59.5,38.982,59.5z"/>
			</g>
			<g>
				<path fill="#116FFF" d="M39.982,60.5c-1.103,0-2-0.897-2-2c0-0.531,0.418-0.914,0.948-0.943
					c0.547-0.037,0.993,0.416,1.052,0.942c0.552,0,1,0.448,1,1C40.982,60.052,40.535,60.5,39.982,60.5z"/>
			</g>
			<g>
				<path fill="#116FFF" d="M62.982,56.5c-0.553,0-1-0.447-1-1c0-2.206-1.794-4-4-4c-0.553,0-1-0.447-1-1s0.447-1,1-1
					c3.309,0,6,2.691,6,6C63.982,56.053,63.535,56.5,62.982,56.5z"/>
			</g>
			<g>
				<path fill="#116FFF" d="M57.982,51.5h-3c-0.553,0-1-0.447-1-1s0.447-1,1-1h3c0.553,0,1,0.447,1,1S58.535,51.5,57.982,51.5z"/>
			</g>
			<g>
				<path fill="#116FFF" d="M62.982,59.5c-0.553,0-1-0.447-1-1v-3c0-0.553,0.447-1,1-1s1,0.447,1,1v3
					C63.982,59.053,63.535,59.5,62.982,59.5z"/>
			</g>
			<g>
				<path fill="#116FFF" d="M61.982,60.5c-0.553,0-1-0.447-1-1s0.447-1,1-1c0-0.553,0.447-1,1-1s1,0.447,1,1
					C63.982,59.603,63.085,60.5,61.982,60.5z"/>
			</g>
			<g>
				<path fill="#116FFF" d="M61.982,60.5h-22c-0.553,0-1-0.447-1-1s0.447-1,1-1h22c0.553,0,1,0.447,1,1S62.535,60.5,61.982,60.5z"/>
			</g>
			<g>
				<path fill="#116FFF" d="M46.982,51.5c-0.553,0-1-0.447-1-1v-3.936c0-0.553,0.447-1,1-1s1,0.447,1,1V50.5
					C47.982,51.053,47.535,51.5,46.982,51.5z"/>
			</g>
			<g>
				<path fill="#116FFF" d="M54.982,51.5c-0.553,0-1-0.447-1-1v-3.936c0-0.553,0.447-1,1-1s1,0.447,1,1V50.5
					C55.982,51.053,55.535,51.5,54.982,51.5z"/>
			</g>
			<g>
				<path fill="#116FFF" d="M50.981,48.5c-5.514,0-9.999-4.485-9.999-9.998c0-0.553,0.447-1,1-1s1,0.447,1,1
					c0,4.41,3.588,7.998,7.999,7.998c4.412,0,8.001-3.588,8.001-7.998c0-0.553,0.447-1,1-1s1,0.447,1,1
					C60.982,44.015,56.496,48.5,50.981,48.5z"/>
			</g>
			<g>
				<path fill="#116FFF" d="M48.981,52.5c-0.15,0-0.303-0.034-0.446-0.105l-2-1c-0.494-0.247-0.694-0.848-0.447-1.342
					s0.848-0.691,1.342-0.447l2,1c0.494,0.247,0.694,0.848,0.447,1.342C49.701,52.298,49.349,52.5,48.981,52.5z"/>
			</g>
			<g>
				<path fill="#116FFF" d="M48.983,52.5c-0.367,0-0.72-0.202-0.896-0.553c-0.247-0.494-0.047-1.095,0.447-1.342l2-1
					c0.494-0.244,1.095-0.047,1.342,0.447s0.047,1.095-0.447,1.342l-2,1C49.286,52.466,49.134,52.5,48.983,52.5z"/>
			</g>
			<g>
				<path fill="#116FFF" d="M52.983,52.5c-0.367,0-0.72-0.202-0.896-0.553c-0.247-0.494-0.047-1.095,0.447-1.342l2-1
					c0.493-0.244,1.094-0.047,1.342,0.447c0.247,0.494,0.047,1.095-0.447,1.342l-2,1C53.286,52.466,53.134,52.5,52.983,52.5z"/>
			</g>
			<g>
				<path fill="#116FFF" d="M52.981,52.5c-0.15,0-0.303-0.034-0.446-0.105l-2-1c-0.494-0.247-0.694-0.848-0.447-1.342
					c0.248-0.494,0.847-0.691,1.342-0.447l2,1c0.494,0.247,0.694,0.848,0.447,1.342C53.701,52.298,53.349,52.5,52.981,52.5z"/>
			</g>
		</g>
		<g>
			<g>
				<path fill="#116FFF" d="M25.129,38.611c-0.256,0-0.512-0.098-0.707-0.293c-0.391-0.391-0.391-1.023,0-1.414
					c0.378-0.378,0.586-0.88,0.586-1.414s-0.208-1.036-0.586-1.414c-0.391-0.39-0.391-1.023,0-1.414s1.023-0.39,1.414,0
					c0.756,0.755,1.172,1.759,1.172,2.829c0,1.068-0.416,2.072-1.172,2.828C25.641,38.514,25.385,38.611,25.129,38.611z"/>
			</g>
			<g>
				<path fill="#116FFF" d="M27.957,41.44c-0.256,0-0.512-0.098-0.707-0.293c-0.391-0.391-0.391-1.023,0-1.414
					c2.34-2.34,2.34-6.146,0-8.486c-0.391-0.391-0.391-1.023,0-1.414s1.023-0.391,1.414,0c3.119,3.119,3.119,8.195,0,11.314
					C28.469,41.343,28.213,41.44,27.957,41.44z"/>
			</g>
			<g>
				<path fill="#116FFF" d="M30.786,44.269c-0.256,0-0.512-0.098-0.707-0.293c-0.391-0.391-0.391-1.023,0-1.414
					c3.899-3.899,3.899-10.244,0-14.143c-0.391-0.391-0.391-1.023,0-1.414s1.023-0.391,1.414,0c4.679,4.679,4.679,12.292,0,16.971
					C31.298,44.171,31.042,44.269,30.786,44.269z"/>
			</g>
		</g>
		<g>
			<path fill="#116FFF" d="M42,23.5c-0.153,0-0.306-0.035-0.447-0.105L37.764,21.5H22c-0.553,0-1-0.448-1-1v-16c0-0.552,0.447-1,1-1
				h25c0.553,0,1,0.448,1,1v16c0,0.552-0.447,1-1,1h-4v1c0,0.347-0.18,0.668-0.475,0.851C42.365,23.45,42.183,23.5,42,23.5z
				 M23,19.5h15c0.155,0,0.309,0.036,0.447,0.105L41,20.882V20.5c0-0.552,0.447-1,1-1h4v-14H23V19.5z"/>
		</g>
		<g>
			<path fill="#116FFF" d="M39,9.5H25.983c-0.553,0-1-0.448-1-1s0.447-1,1-1H39c0.553,0,1,0.448,1,1S39.553,9.5,39,9.5z"/>
		</g>
		<g>
			<path fill="#116FFF" d="M43,9.5h-1c-0.553,0-1-0.448-1-1s0.447-1,1-1h1c0.553,0,1,0.448,1,1S43.553,9.5,43,9.5z"/>
		</g>
		<g>
			<path fill="#116FFF" d="M33,13.5h-7.017c-0.553,0-1-0.448-1-1s0.447-1,1-1H33c0.553,0,1,0.448,1,1S33.553,13.5,33,13.5z"/>
		</g>
		<g>
			<path fill="#116FFF" d="M43,13.5h-7c-0.553,0-1-0.448-1-1s0.447-1,1-1h7c0.553,0,1,0.448,1,1S43.553,13.5,43,13.5z"/>
		</g>
		<g>
			<path fill="#116FFF" d="M37,17.5H25.983c-0.553,0-1-0.448-1-1s0.447-1,1-1H37c0.553,0,1,0.448,1,1S37.553,17.5,37,17.5z"/>
		</g>
		<g>
			<path fill="#116FFF" d="M43,17.5h-3c-0.553,0-1-0.448-1-1s0.447-1,1-1h3c0.553,0,1,0.448,1,1S43.553,17.5,43,17.5z"/>
		</g>
	</g>
</g>
<g id="_x39__training_x2C__book_x2C__lesson_x2C__business_x2C__office_x2C__corporation_x2C__job">
</g>
<g id="_x38__dress_x2C__code_x2C__shirt_x2C__business_x2C__office_x2C__corporation_x2C__job">
</g>
<g id="_x37__task_x2C__program_x2C__ticket_x2C__business_x2C__office_x2C__corporation_x2C__job">
</g>
<g id="_x36__plan_x2C__graph_x2C__stage_x2C__business_x2C__office_x2C__corporation_x2C__job">
</g>
<g id="_x35__boss_x2C__king_x2C__crown_x2C__business_x2C__office_x2C__corporation_x2C__job">
</g>
<g id="_x34__structure_x2C__structuring_x2C__business_x2C__office_x2C__corporation_x2C__job">
</g>
<g id="_x33__soft_x2C__skills_x2C__communication_x2C__business_x2C__office_x2C__corporation_x2C__job">
</g>
<g id="_x32__office_x2C__house_x2C__portfolio_x2C__business_x2C__corporation_x2C__job">
</g>
<g id="_x31__corporate_x2C__rules_x2C__book_x2C__business_x2C__office_x2C__corporation_x2C__job">
</g>
</svg>
