<?xml version="1.0" encoding="utf-8"?>
<!-- Generator: Adobe Illustrator 16.0.0, SVG Export Plug-In . SVG Version: 6.00 Build 0)  -->
<!DOCTYPE svg PUBLIC "-//W3C//DTD SVG 1.1//EN" "http://www.w3.org/Graphics/SVG/1.1/DTD/svg11.dtd">
<svg version="1.1" xmlns="http://www.w3.org/2000/svg" xmlns:xlink="http://www.w3.org/1999/xlink" x="0px" y="0px" width="64px"
	 height="64px" viewBox="0 0 64 64" enable-background="new 0 0 64 64" xml:space="preserve">
<g id="_x35_0_document_x2C__optimization_x2C__documentation_x2C__business_x2C__office_x2C__corporation_x2C__job">
</g>
<g id="_x34_9_human_x2C__resource_x2C__conveyor_x2C__business_x2C__office_x2C__corporation_x2C__job">
</g>
<g id="_x34_8_knowledge_x2C__training_x2C__growth_x2C__book_x2C__business_x2C__office_x2C__corporation">
</g>
<g id="_x34_7_skill_x2C__competence_x2C__experience_x2C__business_x2C__office_x2C__corporation_x2C__job">
</g>
<g id="_x34_6_target_x2C__success_x2C__victory_x2C__business_x2C__office_x2C__corporation_x2C__job">
</g>
<g id="_x34_5_inbox_x2C__letter_x2C__email_x2C__business_x2C__office_x2C__corporation_x2C__job">
</g>
<g id="_x34_4_document_x2C__workflow_x2C__sharing_x2C__business_x2C__office_x2C__corporation_x2C__job">
</g>
<g id="_x34_3_budget_x2C__allocation_x2C__money_x2C__business_x2C__office_x2C__corporation_x2C__job">
</g>
<g id="_x34_2_case_x2C__task_x2C__project_x2C__business_x2C__office_x2C__corporation_x2C__job">
</g>
<g id="_x34_1_structure_x2C__structuring_x2C__tasks_x2C__business_x2C__office_x2C__corporation_x2C__job">
</g>
<g id="_x34_0_choice_x2C__dilemma_x2C__question_x2C__business_x2C__office_x2C__corporation_x2C__job">
</g>
<g id="_x33_9_workplace_x2C__table_x2C__laptop_x2C__business_x2C__office_x2C__corporation_x2C__job">
</g>
<g id="_x33_8_bribe_x2C__bag_x2C__money_x2C__business_x2C__office_x2C__corporation_x2C__job">
</g>
<g id="_x33_7_corruption_x2C__forage_x2C__money_x2C__business_x2C__office_x2C__corporation_x2C__job">
</g>
<g id="_x33_6_career_x2C__ladder_x2C__success_x2C__business_x2C__office_x2C__corporation_x2C__job">
</g>
<g id="_x33_5_review_x2C__feedback_x2C__rating_x2C__business_x2C__office_x2C__corporation_x2C__job">
</g>
<g id="_x33_4_manipulation_x2C__thread_x2C__puppet_x2C__business_x2C__office_x2C__corporation_x2C__job">
</g>
<g id="_x33_3_location_x2C__map_x2C__pin_x2C__business_x2C__office_x2C__corporation_x2C__job">
</g>
<g id="_x33_2_retirement_x2C__old_x2C__man_x2C__door_x2C__business_x2C__office_x2C__corporation">
</g>
<g id="_x33_1_victory_x2C__success_x2C__medal_x2C__reward_x2C__business_x2C__office_x2C__corporation">
</g>
<g id="_x33_0_dismissal_x2C__box_x2C__door_x2C__business_x2C__office_x2C__corporation_x2C__job">
</g>
<g id="_x32_9_meeting_x2C__discussion_x2C__question_x2C__business_x2C__office_x2C__corporation_x2C__job">
</g>
<g id="_x32_8_strategy_x2C__vision_x2C__eye_x2C__chess_x2C__business_x2C__office_x2C__corporation">
</g>
<g id="_x32_7_board_x2C__task_x2C__process_x2C__business_x2C__office_x2C__corporation_x2C__job">
</g>
<g id="_x32_6_scheme_x2C__board_x2C__structure_x2C__business_x2C__office_x2C__corporation_x2C__job">
</g>
<g id="_x32_5_conflict_x2C__dialog_x2C__discussion_x2C__business_x2C__office_x2C__corporation_x2C__job">
</g>
<g id="_x32_4_documentation_x2C__document_x2C__repository_x2C__business_x2C__office_x2C__corporation_x2C__job">
</g>
<g id="_x32_3_sprint_x2C__programming_x2C__code_x2C__business_x2C__office_x2C__corporation_x2C__job">
</g>
<g id="_x32_2_cram_x2C__tablet_x2C__work_x2C__business_x2C__office_x2C__corporation_x2C__job">
</g>
<g id="_x32_1_leader_x2C__discoverer_x2C__flag_x2C__business_x2C__office_x2C__corporation_x2C__job">
</g>
<g id="_x32_0_rally_x2C__collective_x2C__arm_x2C__business_x2C__office_x2C__corporation_x2C__job">
</g>
<g id="_x31_9_consolidation_x2C__portfolio_x2C__puzzle_x2C__business_x2C__office_x2C__corporation_x2C__job">
</g>
<g id="_x31_8_idea_x2C__creative_x2C__work_x2C__business_x2C__office_x2C__corporation_x2C__job">
</g>
<g id="_x31_7_problem_x2C__stress_x2C__resistance_x2C__business_x2C__office_x2C__corporation_x2C__job">
	<g>
		<path fill="#94C1FF" d="M29,54.002l3-1l3,1l2-2h4c3.32,0,6,2.691,6,6v0.291v2.709c0,1.111-0.89,2-2,2H19c-1.1,0-2-0.889-2-2
			v-2.709v-0.291c0-3.309,2.68-6,6-6h4L29,54.002z"/>
	</g>
	<g>
		<g>
			<path fill="#5C9EFF" d="M41,52.002h-4c3.32,0,6,2.691,6,6v0.291v2.709c0,1.111-0.89,2-2,2h4c1.11,0,2-0.889,2-2v-2.709v-0.291
				C47,54.693,44.32,52.002,41,52.002z"/>
		</g>
	</g>
	<g>
		<path fill="#FFFFFF" d="M32,50.002c1.8,0,3.5-0.43,5-1.199v3.199l-2,2l-3-1l-3,1l-2-2v-3.199C28.5,49.572,30.2,50.002,32,50.002z"
			/>
	</g>
	<g>
		<path fill="#D7E9FF" d="M43,35.002v4v0.01c0,4.271-2.44,7.971-6,9.791c-1.5,0.77-3.2,1.199-5,1.199s-3.5-0.43-5-1.199
			c-3.56-1.82-6-5.52-6-9.801v-4l3-3c0,0,3.72,2,8,2c4.29,0,8-2,8-2L43,35.002z"/>
	</g>
	<g>
		<path fill="#94C1FF" d="M40,32.002c0,0-0.366,0.197-1,0.469v6.531v0.01c0,4.271-2.44,7.971-6,9.791c-0.929,0.477-1.941,0.805-3,1
			c0.65,0.119,1.314,0.199,2,0.199c1.8,0,3.5-0.43,5-1.199c3.56-1.82,6-5.52,6-9.791v-0.01v-4L40,32.002z"/>
	</g>
	<g>
		<path fill="#94C1FF" d="M24,32.002l-3,3v-5c0-4.969,4.03-9,9-9h8v4c2.76,0,5,2.24,5,5v5l-3-3c0,0-3.71,2-8,2
			C27.72,34.002,24,32.002,24,32.002z"/>
	</g>
	<g>
		<g>
			<path fill="#5C9EFF" d="M38,25.002v-4h-4v6c2.76,0,5,1.24,5,4v1.469c0.634-0.271,1-0.469,1-0.469l3,3v-5
				C43,27.242,40.76,25.002,38,25.002z"/>
		</g>
	</g>
	<g>
		<path fill="#94C1FF" d="M56,26.002c3.32,0,6,2.691,6,6c0,3.32-2.68,6-6,6c-3.31,0-6-2.68-6-6C50,28.693,52.69,26.002,56,26.002z"
			/>
	</g>
	<g>
		<path fill="#94C1FF" d="M49.68,8.322c3.311,0,6,2.689,6,6c0,3.32-2.689,6-6,6.01c-1.66,0-3.16-0.67-4.239-1.76
			c-1.091-1.09-1.761-2.59-1.761-4.25C43.68,11.012,46.37,8.322,49.68,8.322z"/>
	</g>
	<g>
		<path fill="#5C9EFF" d="M49.68,8.322c-0.702,0-1.373,0.127-2,0.35c2.327,0.826,4,3.043,4,5.65c0,2.619-1.677,4.834-4.008,5.66
			c0.628,0.223,1.302,0.35,2.008,0.35c3.311-0.01,6-2.689,6-6.01C55.68,11.012,52.99,8.322,49.68,8.322z"/>
	</g>
	<g>
		<path fill="#5C9EFF" d="M56,25.998c-0.702,0-1.373,0.127-2,0.35c2.327,0.824,4,3.041,4,5.65c0,2.617-1.677,4.832-4.008,5.658
			c0.628,0.223,1.302,0.352,2.008,0.352c3.311-0.01,6-2.691,6-6.01C62,28.688,59.311,25.998,56,25.998z"/>
	</g>
	<g>
		<path fill="#94C1FF" d="M32,1.002c3.32,0,6,2.691,6,6c0,3.311-2.69,6-6,6s-6-2.689-6-6C26,3.693,28.69,1.002,32,1.002z"/>
	</g>
	<g>
		<path fill="#94C1FF" d="M8,26.002c3.31,0,6,2.691,6,6c0,3.32-2.69,6-6,6s-6-2.68-6-6C2,28.693,4.69,26.002,8,26.002z"/>
	</g>
	<g>
		<path fill="#94C1FF" d="M14.32,8.322c3.319,0,6,2.689,6,6c0,3.32-2.681,6-6,6c-3.311,0-6-2.68-5.99-6
			C8.33,11.012,11.01,8.322,14.32,8.322z"/>
	</g>
	<g>
		<path fill="#5C9EFF" d="M32,0.998c-0.702,0-1.373,0.127-2,0.35c2.327,0.824,4,3.041,4,5.65c0,2.617-1.677,4.832-4.008,5.658
			c0.628,0.223,1.302,0.352,2.008,0.352c3.311-0.01,6-2.691,6-6.01C38,3.688,35.311,0.998,32,0.998z"/>
	</g>
	<g>
		<path fill="#5C9EFF" d="M14.32,8.318c-0.702,0-1.373,0.127-2,0.35c2.327,0.824,4,3.041,4,5.65c0,2.617-1.677,4.832-4.008,5.658
			c0.628,0.223,1.302,0.352,2.008,0.352c3.311-0.01,6-2.691,6-6.01C20.32,11.008,17.631,8.318,14.32,8.318z"/>
	</g>
	<g>
		<path fill="#5C9EFF" d="M8,25.998c-0.702,0-1.373,0.127-2,0.35c2.327,0.824,4,3.041,4,5.65c0,2.617-1.677,4.832-4.008,5.658
			C6.62,37.879,7.294,38.008,8,38.008c3.311-0.01,6-2.691,6-6.01C14,28.688,11.311,25.998,8,25.998z"/>
	</g>
	<g>
		<g>
			<g>
				<g>
					<path fill="#116FFF" d="M17,59.001c-0.553,0-1-0.447-1-1c0-3.859,3.141-6.999,7-6.999c0.553,0,1,0.447,1,1s-0.447,1-1,1
						c-2.757,0-5,2.242-5,4.999C18,58.554,17.553,59.001,17,59.001z"/>
				</g>
				<g>
					<path fill="#116FFF" d="M27,53.003L27,53.003l-4-0.001c-0.553,0-1-0.448-1-1c0-0.553,0.448-1,1-1l0,0l4,0.001
						c0.553,0,1,0.448,1,1C28,52.556,27.552,53.003,27,53.003z"/>
				</g>
				<g>
					<path fill="#116FFF" d="M17,62.002c-0.553,0-1-0.447-1-1v-2.714c0-0.553,0.447-1,1-1s1,0.447,1,1v2.714
						C18,61.555,17.553,62.002,17,62.002z"/>
				</g>
				<g>
					<path fill="#116FFF" d="M47,59.001c-0.553,0-1-0.447-1-1c0-2.757-2.243-4.999-5-4.999c-0.553,0-1-0.447-1-1s0.447-1,1-1
						c3.859,0,7,3.14,7,6.999C48,58.554,47.553,59.001,47,59.001z"/>
				</g>
				<g>
					<path fill="#116FFF" d="M37,53.003c-0.552,0-1-0.447-1-1c0-0.552,0.447-1,1-1l4-0.001c0.552,0,1,0.447,1,1c0,0.552-0.447,1-1,1
						L37,53.003z"/>
				</g>
				<g>
					<path fill="#116FFF" d="M47,62.002c-0.553,0-1-0.447-1-1v-2.714c0-0.553,0.447-1,1-1s1,0.447,1,1v2.714
						C48,61.555,47.553,62.002,47,62.002z"/>
				</g>
				<g>
					<path fill="#116FFF" d="M45,64.002H19c-0.553,0-1-0.447-1-1s0.447-1,1-1h26c0.553,0,1,0.447,1,1S45.553,64.002,45,64.002z"/>
				</g>
				<g>
					<path fill="#116FFF" d="M27,53.003c-0.553,0-1-0.447-1-1v-3.201c0-0.553,0.447-1,1-1s1,0.447,1,1v3.201
						C28,52.556,27.553,53.003,27,53.003z"/>
				</g>
				<g>
					<path fill="#116FFF" d="M37,53.002c-0.553,0-1-0.447-1-1v-3.2c0-0.553,0.447-1,1-1s1,0.447,1,1v3.2
						C38,52.555,37.553,53.002,37,53.002z"/>
				</g>
				<g>
					<path fill="#116FFF" d="M32,51.002c-6.617,0-12-5.383-12-12c0-0.553,0.447-1,1-1s1,0.447,1,1c0,5.514,4.486,10,10,10
						s10-4.486,10-10c0-0.553,0.447-1,1-1s1,0.447,1,1C44,45.619,38.617,51.002,32,51.002z"/>
				</g>
				<g>
					<path fill="#116FFF" d="M21,40.003c-0.553,0-1-0.447-1-1v-9.001c0-0.553,0.447-1,1-1s1,0.447,1,1v9.001
						C22,39.556,21.553,40.003,21,40.003z"/>
				</g>
				<g>
					<path fill="#116FFF" d="M43,40.004c-0.553,0-1-0.447-1-1v-9.002c0-0.553,0.447-1,1-1s1,0.447,1,1v9.002
						C44,39.557,43.553,40.004,43,40.004z"/>
				</g>
				<g>
					<path fill="#116FFF" d="M43,31.002c-0.553,0-1-0.447-1-1c0-2.206-1.794-4-4-4c-0.553,0-1-0.447-1-1s0.447-1,1-1
						c3.309,0,6,2.691,6,6C44,30.555,43.553,31.002,43,31.002z"/>
				</g>
				<g>
					<path fill="#116FFF" d="M38,26.002c-0.553,0-1-0.447-1-1v-4c0-0.553,0.447-1,1-1s1,0.447,1,1v4
						C39,25.555,38.553,26.002,38,26.002z"/>
				</g>
				<g>
					<path fill="#116FFF" d="M38,22.002h-8c-0.553,0-1-0.447-1-1s0.447-1,1-1h8c0.553,0,1,0.447,1,1S38.553,22.002,38,22.002z"/>
				</g>
				<g>
					<path fill="#116FFF" d="M21,31.002c-0.553,0-1-0.447-1-1c0-5.514,4.486-9.999,10-9.999c0.553,0,1,0.447,1,1s-0.447,1-1,1
						c-4.411,0-8,3.588-8,7.999C22,30.555,21.553,31.002,21,31.002z"/>
				</g>
				<g>
					<g>
						<path fill="#116FFF" d="M43,36.002c-0.256,0-0.512-0.098-0.707-0.293l-3-3c-0.391-0.391-0.391-1.023,0-1.414
							s1.023-0.391,1.414,0l3,3c0.391,0.391,0.391,1.023,0,1.414C43.512,35.904,43.256,36.002,43,36.002z"/>
					</g>
					<g>
						<path fill="#116FFF" d="M32,35.002c-4.485,0-8.313-2.033-8.474-2.119c-0.486-0.262-0.668-0.867-0.407-1.354
							c0.261-0.485,0.865-0.672,1.354-0.408c0.035,0.019,3.56,1.881,7.527,1.881c3.987,0,7.491-1.861,7.526-1.881
							c0.485-0.261,1.093-0.079,1.354,0.407s0.079,1.093-0.407,1.354C40.313,32.969,36.485,35.002,32,35.002z"/>
					</g>
					<g>
						<path fill="#116FFF" d="M21,36.002c-0.256,0-0.512-0.098-0.707-0.293c-0.391-0.391-0.391-1.023,0-1.414l3-3
							c0.391-0.391,1.023-0.391,1.414,0s0.391,1.023,0,1.414l-3,3C21.512,35.904,21.256,36.002,21,36.002z"/>
					</g>
				</g>
				<g>
					<path fill="#116FFF" d="M29,55.002c-0.256,0-0.512-0.098-0.707-0.293l-2-1.999c-0.391-0.391-0.391-1.023,0-1.414
						s1.023-0.391,1.414,0l2,1.999c0.391,0.391,0.391,1.023,0,1.414C29.512,54.904,29.256,55.002,29,55.002z"/>
				</g>
				<g>
					<path fill="#116FFF" d="M29,55.002c-0.419,0-0.809-0.265-0.948-0.684c-0.175-0.524,0.108-1.091,0.632-1.265l3-1
						c0.527-0.176,1.09,0.108,1.265,0.632c0.175,0.524-0.108,1.091-0.632,1.265l-3,1C29.211,54.985,29.104,55.002,29,55.002z"/>
				</g>
				<g>
					<path fill="#116FFF" d="M35,55.002c-0.256,0-0.512-0.098-0.707-0.293c-0.391-0.391-0.391-1.023,0-1.414l2-1.999
						c0.391-0.391,1.023-0.391,1.414,0s0.391,1.023,0,1.414l-2,1.999C35.512,54.904,35.256,55.002,35,55.002z"/>
				</g>
				<g>
					<path fill="#116FFF" d="M35,55.002c-0.104,0-0.211-0.017-0.316-0.052l-3-1c-0.523-0.174-0.807-0.74-0.632-1.265
						c0.175-0.523,0.736-0.808,1.265-0.632l3,1c0.523,0.174,0.807,0.74,0.632,1.265C35.809,54.737,35.419,55.002,35,55.002z"/>
				</g>
				<g>
					<path fill="#116FFF" d="M45,64.002c-0.553,0-1-0.447-1-1s0.447-1,1-1c0.552,0,1-0.448,1-1c0-0.553,0.447-1,1-1s1,0.447,1,1
						C48,62.656,46.654,64.002,45,64.002z"/>
				</g>
				<g>
					<path fill="#116FFF" d="M19,64.002c-1.654,0-3-1.346-3-3c0-0.553,0.447-1,1-1s1,0.447,1,1c0,0.552,0.448,1,1,1
						c0.553,0,1,0.447,1,1S19.553,64.002,19,64.002z"/>
				</g>
			</g>
			<g>
				<path fill="#116FFF" d="M32.03,59.002c-0.553,0-1.005-0.447-1.005-1s0.442-1,0.994-1h0.011c0.552,0,1,0.447,1,1
					S32.582,59.002,32.03,59.002z"/>
			</g>
		</g>
		<g>
			<g>
				<g>
					<path fill="#116FFF" d="M8.03,35.999c-0.553,0-1.005-0.447-1.005-1s0.442-1,0.994-1H8.03c0.552,0,1,0.447,1,1
						S8.582,35.999,8.03,35.999z"/>
				</g>
				<g>
					<path fill="#116FFF" d="M8,39.001c-3.859,0-7-3.141-7-7s3.14-7,7-7.001c1.87,0,3.628,0.729,4.95,2.05
						C14.272,28.372,15,30.13,15,32C15,35.86,11.859,39.001,8,39.001z M8.002,27C5.244,27.001,3,29.244,3,32.001s2.243,5,5,5
						s5-2.243,5-5.001C13,29.243,10.758,27,8.002,27z"/>
				</g>
				<g>
					<path fill="#116FFF" d="M8,33.001c-0.553,0-1-0.447-1-1v-3.002c0-0.553,0.447-1,1-1s1,0.447,1,1v3.002
						C9,32.554,8.553,33.001,8,33.001z"/>
				</g>
			</g>
			<g>
				<path fill="#116FFF" d="M17,33.002h-2.999c-0.553,0-1-0.447-1-1s0.447-1,1-1H17c0.553,0,1,0.447,1,1S17.553,33.002,17,33.002z"
					/>
			</g>
		</g>
		<g>
			<g>
				<g>
					<path fill="#116FFF" d="M56.031,36.001c-0.553,0-1.005-0.447-1.005-1s0.442-1,0.994-1h0.011c0.552,0,1,0.447,1,1
						S56.583,36.001,56.031,36.001z"/>
				</g>
				<g>
					<path fill="#116FFF" d="M56.001,39.002L56.001,39.002c-3.859,0-7-3.141-7-7.002c0-3.859,3.14-6.999,6.999-6.999s7,3.141,7,7
						C62.999,35.86,59.859,39.001,56.001,39.002z M56,27.001c-2.757,0-4.999,2.242-4.999,4.999c0,2.758,2.243,5.002,5,5.002
						c2.756-0.001,4.998-2.244,4.999-5.001C61,29.244,58.757,27.001,56,27.001z"/>
				</g>
				<g>
					<path fill="#116FFF" d="M56.001,33.002c-0.552,0-1-0.447-1-1L55,29.001c0-0.552,0.447-1,1-1l0,0c0.552,0,1,0.447,1,1
						l0.001,3.001C57.001,32.554,56.554,33.002,56.001,33.002L56.001,33.002z"/>
				</g>
			</g>
			<g>
				<path fill="#116FFF" d="M50,33.003L50,33.003l-3-0.001c-0.553,0-1-0.448-1-1c0-0.553,0.448-1,1-1l0,0l3,0.001
					c0.553,0,1,0.448,1,1C51,32.556,50.552,33.003,50,33.003z"/>
			</g>
		</g>
		<g>
			<g>
				<g>
					<path fill="#116FFF" d="M49.71,18.323c-0.553,0-1.005-0.447-1.005-1s0.442-1,0.994-1h0.011c0.552,0,1,0.447,1,1
						S50.262,18.323,49.71,18.323z"/>
				</g>
				<g>
					<path fill="#116FFF" d="M49.68,21.324C49.679,21.324,49.679,21.324,49.68,21.324c-3.86,0-7-3.141-7-7.002
						c0-3.859,3.14-7,6.999-7s6.999,3.141,6.999,7C56.678,18.181,53.538,21.322,49.68,21.324z M49.679,9.322
						c-2.757,0-4.999,2.243-4.999,5c0,2.758,2.242,5.002,4.999,5.002c2.756-0.002,4.999-2.245,4.999-5.002
						S52.436,9.322,49.679,9.322z"/>
				</g>
				<g>
					<path fill="#116FFF" d="M49.68,15.324c-0.552,0-1-0.447-1-0.999l-0.002-3.001c0-0.553,0.447-1.001,0.999-1.001
						c0.001,0,0.001,0,0.001,0c0.552,0,1,0.447,1,0.999l0.002,3.001C50.68,14.876,50.232,15.324,49.68,15.324
						C49.68,15.324,49.68,15.324,49.68,15.324z"/>
				</g>
			</g>
			<g>
				<path fill="#116FFF" d="M43.314,21.688c-0.256,0-0.512-0.098-0.707-0.293c-0.391-0.391-0.391-1.024,0-1.414l2.122-2.12
					c0.391-0.391,1.023-0.391,1.414,0s0.391,1.024,0,1.414l-2.122,2.12C43.826,21.59,43.57,21.688,43.314,21.688z"/>
			</g>
		</g>
		<g>
			<g>
				<g>
					<path fill="#116FFF" d="M32.032,10.998c-0.553,0-1.005-0.447-1.005-1s0.442-1,0.994-1h0.011c0.552,0,1,0.447,1,1
						S32.584,10.998,32.032,10.998z"/>
				</g>
				<g>
					<path fill="#116FFF" d="M32.001,14C32,14,32,14,32.001,14C28.141,14,25,10.859,25,6.998c0-3.859,3.141-7,7-7s7,3.141,7,7
						C39,10.856,35.86,13.998,32.001,14z M32,1.998c-2.757,0-5,2.243-5,5C27,9.756,29.243,12,32,12c2.757-0.002,5-2.245,5-5.002
						S34.757,1.998,32,1.998z"/>
				</g>
				<g>
					<path fill="#116FFF" d="M32,8c-0.553,0-1-0.447-1-1V3.998c0-0.553,0.447-1,1-1s1,0.447,1,1V7C33,7.553,32.553,8,32,8z"/>
				</g>
			</g>
			<g>
				<path fill="#116FFF" d="M32.002,17c-0.553,0-1-0.447-1-1v-3c0-0.553,0.447-1,1-1s1,0.447,1,1v3
					C33.002,16.553,32.555,17,32.002,17z"/>
			</g>
		</g>
		<g>
			<g>
				<g>
					<path fill="#116FFF" d="M14.356,18.319c-0.553,0-1.005-0.447-1.005-1s0.442-1,0.994-1h0.011c0.552,0,1,0.447,1,1
						S14.908,18.319,14.356,18.319z"/>
				</g>
				<g>
					<path fill="#116FFF" d="M14.324,21.322L14.324,21.322c-1.871,0-3.629-0.729-4.951-2.052c-1.321-1.322-2.05-3.081-2.049-4.95
						c0-3.859,3.14-7,6.999-7s6.999,3.141,6.999,7C21.323,18.178,18.184,21.319,14.324,21.322z M14.323,9.32
						c-2.757,0-4.999,2.243-4.999,5c0,1.336,0.52,2.592,1.464,3.537c0.943,0.944,2.199,1.465,3.534,1.465
						c2.758-0.002,5.001-2.246,5-5.002C19.322,11.563,17.08,9.32,14.323,9.32z"/>
				</g>
				<g>
					<path fill="#116FFF" d="M14.323,15.321c-0.553,0-1-0.447-1-1V11.32c0-0.553,0.447-1,1-1s1,0.447,1,1v3.001
						C15.323,14.874,14.876,15.321,14.323,15.321z"/>
				</g>
			</g>
			<g>
				<path fill="#116FFF" d="M20.688,21.686c-0.256,0-0.512-0.098-0.707-0.293l-2.121-2.121c-0.391-0.391-0.391-1.023,0-1.414
					s1.023-0.391,1.414,0l2.121,2.121c0.391,0.391,0.391,1.023,0,1.414C21.199,21.588,20.943,21.686,20.688,21.686z"/>
			</g>
		</g>
	</g>
</g>
<g id="_x31_6_hard_x2C__skills_x2C__skill_x2C__portfolio_x2C__book_x2C__business_x2C__office">
</g>
<g id="_x31_5_time_x2C__management_x2C__clock_x2C__deadline_x2C__business_x2C__office_x2C__corporation">
</g>
<g id="_x31_4_multitasking_x2C__task_x2C__work_x2C__business_x2C__office_x2C__corporation_x2C__job">
</g>
<g id="_x31_3_tranquility_x2C__yoga_x2C__lotus_x2C__posture_x2C__business_x2C__office_x2C__corporation">
</g>
<g id="_x31_2_corporate_x2C__party_x2C__business_x2C__office_x2C__corporation_x2C__job">
</g>
<g id="_x31_1_dialog_x2C__discussion_x2C__work_x2C__business_x2C__office_x2C__corporation_x2C__job">
</g>
<g id="_x31_0_listening_x2C__skill_x2C__dialog_x2C__business_x2C__office_x2C__corporation_x2C__job">
</g>
<g id="_x39__training_x2C__book_x2C__lesson_x2C__business_x2C__office_x2C__corporation_x2C__job">
</g>
<g id="_x38__dress_x2C__code_x2C__shirt_x2C__business_x2C__office_x2C__corporation_x2C__job">
</g>
<g id="_x37__task_x2C__program_x2C__ticket_x2C__business_x2C__office_x2C__corporation_x2C__job">
</g>
<g id="_x36__plan_x2C__graph_x2C__stage_x2C__business_x2C__office_x2C__corporation_x2C__job">
</g>
<g id="_x35__boss_x2C__king_x2C__crown_x2C__business_x2C__office_x2C__corporation_x2C__job">
</g>
<g id="_x34__structure_x2C__structuring_x2C__business_x2C__office_x2C__corporation_x2C__job">
</g>
<g id="_x33__soft_x2C__skills_x2C__communication_x2C__business_x2C__office_x2C__corporation_x2C__job">
</g>
<g id="_x32__office_x2C__house_x2C__portfolio_x2C__business_x2C__corporation_x2C__job">
</g>
<g id="_x31__corporate_x2C__rules_x2C__book_x2C__business_x2C__office_x2C__corporation_x2C__job">
</g>
</svg>
