<?xml version="1.0" encoding="utf-8"?>
<!-- Generator: Adobe Illustrator 16.0.0, SVG Export Plug-In . SVG Version: 6.00 Build 0)  -->
<!DOCTYPE svg PUBLIC "-//W3C//DTD SVG 1.1//EN" "http://www.w3.org/Graphics/SVG/1.1/DTD/svg11.dtd">
<svg version="1.1" xmlns="http://www.w3.org/2000/svg" xmlns:xlink="http://www.w3.org/1999/xlink" x="0px" y="0px" width="64px"
	 height="64px" viewBox="0 0 64 64" enable-background="new 0 0 64 64" xml:space="preserve">
<g id="_x35_0_document_x2C__optimization_x2C__documentation_x2C__business_x2C__office_x2C__corporation_x2C__job">
</g>
<g id="_x34_9_human_x2C__resource_x2C__conveyor_x2C__business_x2C__office_x2C__corporation_x2C__job">
</g>
<g id="_x34_8_knowledge_x2C__training_x2C__growth_x2C__book_x2C__business_x2C__office_x2C__corporation">
</g>
<g id="_x34_7_skill_x2C__competence_x2C__experience_x2C__business_x2C__office_x2C__corporation_x2C__job">
</g>
<g id="_x34_6_target_x2C__success_x2C__victory_x2C__business_x2C__office_x2C__corporation_x2C__job">
</g>
<g id="_x34_5_inbox_x2C__letter_x2C__email_x2C__business_x2C__office_x2C__corporation_x2C__job">
</g>
<g id="_x34_4_document_x2C__workflow_x2C__sharing_x2C__business_x2C__office_x2C__corporation_x2C__job">
</g>
<g id="_x34_3_budget_x2C__allocation_x2C__money_x2C__business_x2C__office_x2C__corporation_x2C__job">
</g>
<g id="_x34_2_case_x2C__task_x2C__project_x2C__business_x2C__office_x2C__corporation_x2C__job">
</g>
<g id="_x34_1_structure_x2C__structuring_x2C__tasks_x2C__business_x2C__office_x2C__corporation_x2C__job">
</g>
<g id="_x34_0_choice_x2C__dilemma_x2C__question_x2C__business_x2C__office_x2C__corporation_x2C__job">
</g>
<g id="_x33_9_workplace_x2C__table_x2C__laptop_x2C__business_x2C__office_x2C__corporation_x2C__job">
</g>
<g id="_x33_8_bribe_x2C__bag_x2C__money_x2C__business_x2C__office_x2C__corporation_x2C__job">
</g>
<g id="_x33_7_corruption_x2C__forage_x2C__money_x2C__business_x2C__office_x2C__corporation_x2C__job">
</g>
<g id="_x33_6_career_x2C__ladder_x2C__success_x2C__business_x2C__office_x2C__corporation_x2C__job">
</g>
<g id="_x33_5_review_x2C__feedback_x2C__rating_x2C__business_x2C__office_x2C__corporation_x2C__job">
</g>
<g id="_x33_4_manipulation_x2C__thread_x2C__puppet_x2C__business_x2C__office_x2C__corporation_x2C__job">
</g>
<g id="_x33_3_location_x2C__map_x2C__pin_x2C__business_x2C__office_x2C__corporation_x2C__job">
</g>
<g id="_x33_2_retirement_x2C__old_x2C__man_x2C__door_x2C__business_x2C__office_x2C__corporation">
</g>
<g id="_x33_1_victory_x2C__success_x2C__medal_x2C__reward_x2C__business_x2C__office_x2C__corporation">
</g>
<g id="_x33_0_dismissal_x2C__box_x2C__door_x2C__business_x2C__office_x2C__corporation_x2C__job">
</g>
<g id="_x32_9_meeting_x2C__discussion_x2C__question_x2C__business_x2C__office_x2C__corporation_x2C__job">
</g>
<g id="_x32_8_strategy_x2C__vision_x2C__eye_x2C__chess_x2C__business_x2C__office_x2C__corporation">
</g>
<g id="_x32_7_board_x2C__task_x2C__process_x2C__business_x2C__office_x2C__corporation_x2C__job">
</g>
<g id="_x32_6_scheme_x2C__board_x2C__structure_x2C__business_x2C__office_x2C__corporation_x2C__job">
</g>
<g id="_x32_5_conflict_x2C__dialog_x2C__discussion_x2C__business_x2C__office_x2C__corporation_x2C__job">
	<g>
		<path fill="#94C1FF" d="M22,36.5V38c-1.941-2.53-3.35-3.13-4.98-2.971L20,30.67C21.26,32.279,22,34.311,22,36.5z"/>
	</g>
	<g>
		<path fill="#94C1FF" d="M20,30.67l-2.98,4.359C14.359,35.29,11.1,37.52,4,36.641C3.68,36.6,3.34,36.55,3,36.5
			c0-5.25,4.25-9.5,9.5-9.5C15.549,27,18.27,28.439,20,30.67z"/>
	</g>
	<g>
		<path fill="#5C9EFF" d="M20,30.67l-2.33,3.406c0.084,0.315,0.162,0.633,0.213,0.959c0.596,0.059,1.184,0.26,1.797,0.66
			c0.066,0.043,0.133,0.084,0.201,0.132c0.102,0.073,0.205,0.155,0.309,0.239c0.094,0.078,0.189,0.159,0.287,0.246
			c0.092,0.083,0.184,0.168,0.277,0.26c0.121,0.12,0.246,0.254,0.371,0.391c0.078,0.083,0.152,0.161,0.23,0.251
			C21.564,37.453,21.777,37.711,22,38v-1.5C22,34.311,21.26,32.279,20,30.67z"/>
	</g>
	<g>
		<path fill="#5C9EFF" d="M11.445,27.062c-0.326,0.037-0.646,0.089-0.961,0.157h-0.002c2.229,0.475,4.174,1.72,5.518,3.451
			c0.777,0.994,1.342,2.153,1.67,3.406L20,30.67c-1.73-2.23-4.451-3.67-7.5-3.67c-0.346,0-0.686,0.02-1.021,0.057
			C11.467,27.058,11.457,27.061,11.445,27.062z"/>
	</g>
	<g>
		<path fill="#D7E9FF" d="M22,38v3c0,3.53-2.041,6.59-5,8.06C15.799,49.66,14.439,50,13,50c-1.441,0-2.801-0.34-4-0.94
			C6.039,47.59,4,44.53,4,41v-0.04v-4.319c7.1,0.879,10.359-1.351,13.02-1.611C18.65,34.87,20.059,35.47,22,38z"/>
	</g>
	<g>
		<path fill="#94C1FF" d="M18.02,35.051v5.977c0,3.53-2.041,6.59-5,8.06c-0.607,0.304-1.256,0.539-1.934,0.699
			C11.703,49.921,12.342,50,13,50c1.439,0,2.799-0.34,4-0.94c2.959-1.47,5-4.529,5-8.06v-3
			C20.465,35.999,19.262,35.215,18.02,35.051z"/>
	</g>
	<g>
		<path fill="#FFFFFF" d="M13,50c1.439,0,2.799-0.34,4-0.94V53l-2,1l-2-1l-2,1l-2-1v-3.94C10.199,49.66,11.559,50,13,50z"/>
	</g>
	<g>
		<path fill="#FFFFFF" d="M25,58v3c0,0.55-0.441,1-1,1H2c-0.551,0-1-0.45-1-1v-3c0-2.76,2.24-5,5-5h3l2,1l2-1l2,1l2-1h3
			C22.77,53,25,55.24,25,58z"/>
	</g>
	<g>
		<g>
			<path fill="#D7E9FF" d="M20,53h-3l-0.168,0.084C19.201,53.481,21,55.524,21,58v3c0,0.55-0.441,1-1,1h4c0.559,0,1-0.45,1-1v-3
				C25,55.24,22.77,53,20,53z"/>
		</g>
	</g>
	<g>
		<path fill="#FFFFFF" d="M51,50c1.439,0,2.801-0.34,4-0.94V53l-2,1l-2-1l-2,1l-2-1v-3.94C48.201,49.66,49.561,50,51,50z"/>
	</g>
	<g>
		<path fill="#94C1FF" d="M63,61c0,0.55-0.449,1-1,1H40c-0.549,0-1-0.45-1-1v-3c0-2.76,2.23-5,5-5h3l2,1l2-1l2,1l2-1h3
			c2.76,0,5,2.24,5,5V61z"/>
	</g>
	<g>
		<g>
			<path fill="#5C9EFF" d="M58,53h-3l-0.168,0.084C57.195,53.482,59,55.525,59,58v3c0,0.55-0.449,1-1,1h4c0.551,0,1-0.45,1-1v-3
				C63,55.24,60.76,53,58,53z"/>
		</g>
	</g>
	<g>
		<path fill="#D7E9FF" d="M60,38.03V41c0,3.53-2.039,6.59-5,8.06C53.801,49.66,52.439,50,51,50s-2.799-0.34-4-0.94
			c-2.949-1.46-4.98-4.5-5-8.01V41v-2.97L45,36c0,0,3.01,1,6.5,1s5.5-1,5.5-1L60,38.03z"/>
	</g>
	<g>
		<path fill="#94C1FF" d="M57,36c0,0-0.357,0.17-1,0.369V41c0,3.53-2.039,6.59-5,8.06c-0.627,0.313-1.297,0.551-2,0.711
			C49.643,49.918,50.313,50,51,50c1.439,0,2.801-0.34,4-0.94c2.961-1.47,5-4.529,5-8.06v-2.97L57,36z"/>
	</g>
	<g>
		<path fill="#94C1FF" d="M60,35v3.03L57,36c0,0-2.01,1-5.5,1S45,36,45,36l-3,2.03V35c0-4.42,3.58-8,8-8h6v4
			C58.211,31,60,32.79,60,35z"/>
	</g>
	<g>
		<g>
			<path fill="#5C9EFF" d="M56,31v-4h-4v6c2.211,0,4,0.79,4,3v0.369C56.643,36.17,57,36,57,36l3,2.03V35C60,32.79,58.211,31,56,31z"
				/>
		</g>
	</g>
	<g>
		<path fill="#94C1FF" d="M32,26c3.31,0,6,2.69,6,6s-2.69,6-6,6s-6-2.69-6-6S28.69,26,32,26z"/>
	</g>
	<g>
		<path fill="#5C9EFF" d="M32,26c-0.702,0-1.373,0.127-2,0.35c2.327,0.826,4,3.043,4,5.65s-1.673,4.824-4,5.65
			c0.627,0.223,1.298,0.35,2,0.35c3.31,0,6-2.69,6-6S35.31,26,32,26z"/>
	</g>
	<g>
		<polygon fill="#D7E9FF" points="49,22 34,22 36,20 34,18 36,16 34,14 36,12 34,10 36,8 34,6 36,4 34,2 63,2 63,22 53,22 51,24 		
			"/>
	</g>
	<g>
		<polygon fill="#D7E9FF" points="30,4 28,6 30,8 28,10 30,12 28,14 30,16 28,18 30,20 28,22 15,22 13,24 11,22 1,22 1,2 28,2 		"/>
	</g>
	<g>
		<rect x="59.001" y="2" fill="#94C1FF" width="3.999" height="20"/>
	</g>
	<g>
		<g>
			<g>
				<path fill="#116FFF" d="M39,59c-0.553,0-1-0.447-1-1c0-3.309,2.691-6,6-6c0.553,0,1,0.447,1,1s-0.447,1-1,1
					c-2.206,0-4,1.794-4,4C40,58.553,39.553,59,39,59z"/>
			</g>
			<g>
				<path fill="#116FFF" d="M47,54h-3c-0.553,0-1-0.447-1-1s0.447-1,1-1h3c0.553,0,1,0.447,1,1S47.553,54,47,54z"/>
			</g>
			<g>
				<path fill="#116FFF" d="M39,62c-0.553,0-1-0.447-1-1v-3c0-0.553,0.447-1,1-1s1,0.447,1,1v3C40,61.553,39.553,62,39,62z"/>
			</g>
			<g>
				<path fill="#116FFF" d="M40,63c-1.103,0-2-0.897-2-2c0-0.531,0.418-0.914,0.948-0.943c0.548-0.034,0.993,0.416,1.052,0.942
					c0.552,0,1,0.448,1,1C41,62.552,40.553,63,40,63z"/>
			</g>
			<g>
				<path fill="#116FFF" d="M63,59c-0.553,0-1-0.447-1-1c0-2.206-1.794-4-4-4c-0.553,0-1-0.447-1-1s0.447-1,1-1c3.309,0,6,2.691,6,6
					C64,58.553,63.553,59,63,59z"/>
			</g>
			<g>
				<path fill="#116FFF" d="M58,54h-3c-0.553,0-1-0.447-1-1s0.447-1,1-1h3c0.553,0,1,0.447,1,1S58.553,54,58,54z"/>
			</g>
			<g>
				<path fill="#116FFF" d="M63,62c-0.553,0-1-0.447-1-1v-3c0-0.553,0.447-1,1-1s1,0.447,1,1v3C64,61.553,63.553,62,63,62z"/>
			</g>
			<g>
				<path fill="#116FFF" d="M62,63c-0.553,0-1-0.447-1-1s0.447-1,1-1c0-0.553,0.447-1,1-1s1,0.447,1,1C64,62.103,63.103,63,62,63z"
					/>
			</g>
			<g>
				<path fill="#116FFF" d="M62,63H40c-0.553,0-1-0.447-1-1s0.447-1,1-1h22c0.553,0,1,0.447,1,1S62.553,63,62,63z"/>
			</g>
			<g>
				<path fill="#116FFF" d="M47,54c-0.553,0-1-0.447-1-1v-3.936c0-0.553,0.447-1,1-1s1,0.447,1,1V53C48,53.553,47.553,54,47,54z"/>
			</g>
			<g>
				<path fill="#116FFF" d="M55,54c-0.553,0-1-0.447-1-1v-3.936c0-0.553,0.447-1,1-1s1,0.447,1,1V53C56,53.553,55.553,54,55,54z"/>
			</g>
			<g>
				<path fill="#116FFF" d="M50.999,51C45.485,51,41,46.515,41,41.002c0-0.553,0.447-1,1-1s1,0.447,1,1
					C43,45.412,46.588,49,50.999,49C55.411,49,59,45.412,59,41.002c0-0.553,0.447-1,1-1s1,0.447,1,1C61,46.515,56.514,51,50.999,51z
					"/>
			</g>
			<g>
				<path fill="#116FFF" d="M42,42.051c-0.553,0-1-0.447-1-1V35c0-0.553,0.447-1,1-1s1,0.447,1,1v6.051
					C43,41.604,42.553,42.051,42,42.051z"/>
			</g>
			<g>
				<path fill="#116FFF" d="M60,42.002c-0.553,0-1-0.447-1-1V35c0-0.553,0.447-1,1-1s1,0.447,1,1v6.002
					C61,41.555,60.553,42.002,60,42.002z"/>
			</g>
			<g>
				<path fill="#116FFF" d="M60,35.999c-0.553,0-1-0.447-1-1C59,33.346,57.654,32,56,32c-0.553,0-1-0.447-1-1s0.447-1,1-1
					c2.757,0,5,2.242,5,4.999C61,35.552,60.553,35.999,60,35.999z"/>
			</g>
			<g>
				<path fill="#116FFF" d="M56,32c-0.553,0-1-0.447-1-1v-4c0-0.553,0.447-1,1-1s1,0.447,1,1v4C57,31.553,56.553,32,56,32z"/>
			</g>
			<g>
				<path fill="#116FFF" d="M56,28h-6c-0.553,0-1-0.447-1-1s0.447-1,1-1h6c0.553,0,1,0.447,1,1S56.553,28,56,28z"/>
			</g>
			<g>
				<path fill="#116FFF" d="M42,36c-0.553,0-1-0.447-1-1c0-4.963,4.037-9,9-9c0.553,0,1,0.447,1,1s-0.447,1-1,1
					c-3.859,0-7,3.141-7,7C43,35.553,42.553,36,42,36z"/>
			</g>
			<g>
				<g>
					<path fill="#116FFF" d="M59.999,39.025c-0.192,0-0.387-0.056-0.559-0.171l-3-2.025c-0.458-0.31-0.578-0.931-0.27-1.389
						c0.31-0.457,0.93-0.577,1.389-0.27l3,2.025c0.458,0.31,0.578,0.931,0.27,1.389C60.636,38.871,60.32,39.025,59.999,39.025z"/>
				</g>
				<g>
					<path fill="#116FFF" d="M51.5,38c-3.612,0-6.687-1.008-6.815-1.051c-0.523-0.175-0.807-0.74-0.634-1.264
						c0.174-0.523,0.739-0.81,1.264-0.635C45.344,35.061,48.223,36,51.5,36c3.178,0,5.04-0.888,5.059-0.897
						c0.494-0.24,1.095-0.037,1.337,0.457c0.243,0.494,0.043,1.09-0.449,1.336C57.355,36.94,55.186,38,51.5,38z"/>
				</g>
				<g>
					<path fill="#116FFF" d="M42.001,39.025c-0.321,0-0.637-0.154-0.83-0.44c-0.309-0.458-0.188-1.079,0.27-1.389l3-2.025
						c0.458-0.308,1.079-0.188,1.389,0.27c0.309,0.458,0.188,1.079-0.27,1.389l-3,2.025C42.388,38.97,42.193,39.025,42.001,39.025z"
						/>
				</g>
			</g>
			<g>
				<path fill="#116FFF" d="M48.999,55c-0.15,0-0.303-0.034-0.446-0.105l-2-1c-0.494-0.247-0.694-0.848-0.447-1.342
					s0.848-0.691,1.342-0.447l2,1c0.494,0.247,0.694,0.848,0.447,1.342C49.719,54.798,49.366,55,48.999,55z"/>
			</g>
			<g>
				<path fill="#116FFF" d="M49.001,55c-0.367,0-0.72-0.202-0.896-0.553c-0.247-0.494-0.047-1.095,0.447-1.342l2-1
					c0.494-0.244,1.095-0.047,1.342,0.447s0.047,1.095-0.447,1.342l-2,1C49.304,54.966,49.151,55,49.001,55z"/>
			</g>
			<g>
				<path fill="#116FFF" d="M53.001,55c-0.367,0-0.72-0.202-0.896-0.553c-0.247-0.494-0.047-1.095,0.447-1.342l2-1
					c0.494-0.244,1.095-0.047,1.342,0.447s0.047,1.095-0.447,1.342l-2,1C53.304,54.966,53.151,55,53.001,55z"/>
			</g>
			<g>
				<path fill="#116FFF" d="M52.999,55c-0.15,0-0.303-0.034-0.446-0.105l-2-1c-0.494-0.247-0.694-0.848-0.447-1.342
					c0.248-0.494,0.848-0.691,1.342-0.447l2,1c0.494,0.247,0.694,0.848,0.447,1.342C53.719,54.798,53.366,55,52.999,55z"/>
			</g>
		</g>
		<g>
			<path fill="#116FFF" d="M51,25c-0.256,0-0.512-0.098-0.707-0.293l-2-2c-0.391-0.391-0.391-1.023,0-1.414s1.023-0.391,1.414,0
				L51,22.586l1.293-1.293C52.48,21.105,52.734,21,53,21h9V2c0-0.553,0.447-1,1-1s1,0.447,1,1v20c0,0.553-0.447,1-1,1h-9.586
				l-1.707,1.707C51.512,24.902,51.256,25,51,25z"/>
		</g>
		<g>
			<path fill="#116FFF" d="M13,25c-0.256,0-0.512-0.098-0.707-0.293L10.586,23H1c-0.553,0-1-0.447-1-1V2c0-0.553,0.447-1,1-1
				s1,0.447,1,1v19h9c0.266,0,0.52,0.105,0.707,0.293L13,22.586l1.293-1.293c0.391-0.391,1.023-0.391,1.414,0s0.391,1.023,0,1.414
				l-2,2C13.512,24.902,13.256,25,13,25z"/>
		</g>
		<g>
			<path fill="#116FFF" d="M15,7H5C4.447,7,4,6.553,4,6s0.447-1,1-1h10c0.553,0,1,0.447,1,1S15.553,7,15,7z"/>
		</g>
		<g>
			<path fill="#116FFF" d="M51,11H40c-0.553,0-1-0.447-1-1s0.447-1,1-1h11c0.553,0,1,0.447,1,1S51.553,11,51,11z"/>
		</g>
		<g>
			<path fill="#116FFF" d="M24,11H5c-0.553,0-1-0.447-1-1s0.447-1,1-1h19c0.553,0,1,0.447,1,1S24.553,11,24,11z"/>
		</g>
		<g>
			<path fill="#116FFF" d="M24,7h-5c-0.553,0-1-0.447-1-1s0.447-1,1-1h5c0.553,0,1,0.447,1,1S24.553,7,24,7z"/>
		</g>
		<g>
			<path fill="#116FFF" d="M46,7h-6c-0.553,0-1-0.447-1-1s0.447-1,1-1h6c0.553,0,1,0.447,1,1S46.553,7,46,7z"/>
		</g>
		<g>
			<path fill="#116FFF" d="M59,7h-9c-0.553,0-1-0.447-1-1s0.447-1,1-1h9c0.553,0,1,0.447,1,1S59.553,7,59,7z"/>
		</g>
		<g>
			<path fill="#116FFF" d="M15,19H5c-0.553,0-1-0.447-1-1s0.447-1,1-1h10c0.553,0,1,0.447,1,1S15.553,19,15,19z"/>
		</g>
		<g>
			<path fill="#116FFF" d="M24,19h-5c-0.553,0-1-0.447-1-1s0.447-1,1-1h5c0.553,0,1,0.447,1,1S24.553,19,24,19z"/>
		</g>
		<g>
			<path fill="#116FFF" d="M46,19h-6c-0.553,0-1-0.447-1-1s0.447-1,1-1h6c0.553,0,1,0.447,1,1S46.553,19,46,19z"/>
		</g>
		<g>
			<path fill="#116FFF" d="M59,19h-9c-0.553,0-1-0.447-1-1s0.447-1,1-1h9c0.553,0,1,0.447,1,1S59.553,19,59,19z"/>
		</g>
		<g>
			<path fill="#116FFF" d="M9,15H5c-0.553,0-1-0.447-1-1s0.447-1,1-1h4c0.553,0,1,0.447,1,1S9.553,15,9,15z"/>
		</g>
		<g>
			<path fill="#116FFF" d="M24,15H13c-0.553,0-1-0.447-1-1s0.447-1,1-1h11c0.553,0,1,0.447,1,1S24.553,15,24,15z"/>
		</g>
		<g>
			<path fill="#116FFF" d="M44,15h-4c-0.553,0-1-0.447-1-1s0.447-1,1-1h4c0.553,0,1,0.447,1,1S44.553,15,44,15z"/>
		</g>
		<g>
			<path fill="#116FFF" d="M59,15H48c-0.553,0-1-0.447-1-1s0.447-1,1-1h11c0.553,0,1,0.447,1,1S59.553,15,59,15z"/>
		</g>
		<g>
			<path fill="#116FFF" d="M59,11h-4c-0.553,0-1-0.447-1-1s0.447-1,1-1h4c0.553,0,1,0.447,1,1S59.553,11,59,11z"/>
		</g>
		<g>
			<path fill="#116FFF" d="M28,23c-0.256,0-0.512-0.098-0.707-0.293c-0.391-0.391-0.391-1.023,0-1.414l2-2
				c0.391-0.391,1.023-0.391,1.414,0s0.391,1.023,0,1.414l-2,2C28.512,22.902,28.256,23,28,23z"/>
		</g>
		<g>
			<path fill="#116FFF" d="M30,21c-0.256,0-0.512-0.098-0.707-0.293l-2-2c-0.391-0.391-0.391-1.023,0-1.414s1.023-0.391,1.414,0l2,2
				c0.391,0.391,0.391,1.023,0,1.414C30.512,20.902,30.256,21,30,21z"/>
		</g>
		<g>
			<path fill="#116FFF" d="M28,19c-0.256,0-0.512-0.098-0.707-0.293c-0.391-0.391-0.391-1.023,0-1.414l2-2
				c0.391-0.391,1.023-0.391,1.414,0s0.391,1.023,0,1.414l-2,2C28.512,18.902,28.256,19,28,19z"/>
		</g>
		<g>
			<path fill="#116FFF" d="M30,17c-0.256,0-0.512-0.098-0.707-0.293l-2-2c-0.391-0.391-0.391-1.023,0-1.414s1.023-0.391,1.414,0l2,2
				c0.391,0.391,0.391,1.023,0,1.414C30.512,16.902,30.256,17,30,17z"/>
		</g>
		<g>
			<path fill="#116FFF" d="M28,15c-0.256,0-0.512-0.098-0.707-0.293c-0.391-0.391-0.391-1.023,0-1.414l2-2
				c0.391-0.391,1.023-0.391,1.414,0s0.391,1.023,0,1.414l-2,2C28.512,14.902,28.256,15,28,15z"/>
		</g>
		<g>
			<path fill="#116FFF" d="M30,13c-0.256,0-0.512-0.098-0.707-0.293l-2-2c-0.391-0.391-0.391-1.023,0-1.414s1.023-0.391,1.414,0l2,2
				c0.391,0.391,0.391,1.023,0,1.414C30.512,12.902,30.256,13,30,13z"/>
		</g>
		<g>
			<path fill="#116FFF" d="M28,11c-0.256,0-0.512-0.098-0.707-0.293c-0.391-0.391-0.391-1.023,0-1.414l2-2
				c0.391-0.391,1.023-0.391,1.414,0s0.391,1.023,0,1.414l-2,2C28.512,10.902,28.256,11,28,11z"/>
		</g>
		<g>
			<path fill="#116FFF" d="M30,9c-0.256,0-0.512-0.098-0.707-0.293l-2-2c-0.391-0.391-0.391-1.023,0-1.414s1.023-0.391,1.414,0l2,2
				c0.391,0.391,0.391,1.023,0,1.414C30.512,8.902,30.256,9,30,9z"/>
		</g>
		<g>
			<path fill="#116FFF" d="M28,7c-0.256,0-0.512-0.098-0.707-0.293c-0.391-0.391-0.391-1.023,0-1.414l2-2
				c0.391-0.391,1.023-0.391,1.414,0s0.391,1.023,0,1.414l-2,2C28.512,6.902,28.256,7,28,7z"/>
		</g>
		<g>
			<path fill="#116FFF" d="M30,5c-0.256,0-0.512-0.098-0.707-0.293l-2-2c-0.391-0.391-0.391-1.023,0-1.414s1.023-0.391,1.414,0l2,2
				c0.391,0.391,0.391,1.023,0,1.414C30.512,4.902,30.256,5,30,5z"/>
		</g>
		<g>
			<path fill="#116FFF" d="M34,7c-0.256,0-0.512-0.098-0.707-0.293c-0.391-0.391-0.391-1.023,0-1.414l2-2
				c0.391-0.391,1.023-0.391,1.414,0s0.391,1.023,0,1.414l-2,2C34.512,6.902,34.256,7,34,7z"/>
		</g>
		<g>
			<path fill="#116FFF" d="M36,9c-0.256,0-0.512-0.098-0.707-0.293l-2-2c-0.391-0.391-0.391-1.023,0-1.414s1.023-0.391,1.414,0l2,2
				c0.391,0.391,0.391,1.023,0,1.414C36.512,8.902,36.256,9,36,9z"/>
		</g>
		<g>
			<path fill="#116FFF" d="M34,11c-0.256,0-0.512-0.098-0.707-0.293c-0.391-0.391-0.391-1.023,0-1.414l2-2
				c0.391-0.391,1.023-0.391,1.414,0s0.391,1.023,0,1.414l-2,2C34.512,10.902,34.256,11,34,11z"/>
		</g>
		<g>
			<path fill="#116FFF" d="M36,13c-0.256,0-0.512-0.098-0.707-0.293l-2-2c-0.391-0.391-0.391-1.023,0-1.414s1.023-0.391,1.414,0l2,2
				c0.391,0.391,0.391,1.023,0,1.414C36.512,12.902,36.256,13,36,13z"/>
		</g>
		<g>
			<path fill="#116FFF" d="M34,15c-0.256,0-0.512-0.098-0.707-0.293c-0.391-0.391-0.391-1.023,0-1.414l2-2
				c0.391-0.391,1.023-0.391,1.414,0s0.391,1.023,0,1.414l-2,2C34.512,14.902,34.256,15,34,15z"/>
		</g>
		<g>
			<path fill="#116FFF" d="M36,17c-0.256,0-0.512-0.098-0.707-0.293l-2-2c-0.391-0.391-0.391-1.023,0-1.414s1.023-0.391,1.414,0l2,2
				c0.391,0.391,0.391,1.023,0,1.414C36.512,16.902,36.256,17,36,17z"/>
		</g>
		<g>
			<path fill="#116FFF" d="M34,19c-0.256,0-0.512-0.098-0.707-0.293c-0.391-0.391-0.391-1.023,0-1.414l2-2
				c0.391-0.391,1.023-0.391,1.414,0s0.391,1.023,0,1.414l-2,2C34.512,18.902,34.256,19,34,19z"/>
		</g>
		<g>
			<path fill="#116FFF" d="M36,21c-0.256,0-0.512-0.098-0.707-0.293l-2-2c-0.391-0.391-0.391-1.023,0-1.414s1.023-0.391,1.414,0l2,2
				c0.391,0.391,0.391,1.023,0,1.414C36.512,20.902,36.256,21,36,21z"/>
		</g>
		<g>
			<path fill="#116FFF" d="M34,23c-0.256,0-0.512-0.098-0.707-0.293c-0.391-0.391-0.391-1.023,0-1.414l2-2
				c0.391-0.391,1.023-0.391,1.414,0s0.391,1.023,0,1.414l-2,2C34.512,22.902,34.256,23,34,23z"/>
		</g>
		<g>
			<path fill="#116FFF" d="M36,5c-0.256,0-0.512-0.098-0.707-0.293l-2-2c-0.391-0.391-0.391-1.023,0-1.414s1.023-0.391,1.414,0l2,2
				c0.391,0.391,0.391,1.023,0,1.414C36.512,4.902,36.256,5,36,5z"/>
		</g>
		<g>
			<path fill="#116FFF" d="M28,23H15c-0.553,0-1-0.447-1-1s0.447-1,1-1h13c0.553,0,1,0.447,1,1S28.553,23,28,23z"/>
		</g>
		<g>
			<path fill="#116FFF" d="M28,3H1C0.447,3,0,2.553,0,2s0.447-1,1-1h27c0.553,0,1,0.447,1,1S28.553,3,28,3z"/>
		</g>
		<g>
			<path fill="#116FFF" d="M63,3H34c-0.553,0-1-0.447-1-1s0.447-1,1-1h29c0.553,0,1,0.447,1,1S63.553,3,63,3z"/>
		</g>
		<g>
			<path fill="#116FFF" d="M49,23H34c-0.553,0-1-0.447-1-1s0.447-1,1-1h15c0.553,0,1,0.447,1,1S49.553,23,49,23z"/>
		</g>
		<g>
			<g>
				<path fill="#116FFF" d="M32.03,36c-0.553,0-1.005-0.447-1.005-1s0.442-1,0.994-1h0.011c0.552,0,1,0.447,1,1S32.582,36,32.03,36z
					"/>
			</g>
			<g>
				<path fill="#116FFF" d="M32,39c-3.859,0-7-3.141-7-7s3.141-7,7-7s7,3.141,7,7S35.859,39,32,39z M32,27c-2.757,0-5,2.243-5,5
					s2.243,5,5,5s5-2.243,5-5S34.757,27,32,27z"/>
			</g>
			<g>
				<path fill="#116FFF" d="M32,33c-0.553,0-1-0.447-1-1v-3c0-0.553,0.447-1,1-1s1,0.447,1,1v3C33,32.553,32.553,33,32,33z"/>
			</g>
		</g>
		<g>
			<g>
				<path fill="#116FFF" d="M4,41.96c-0.553,0-1-0.447-1-1v-4.32c0-0.553,0.447-1,1-1s1,0.447,1,1v4.32
					C5,41.513,4.553,41.96,4,41.96z"/>
			</g>
			<g>
				<path fill="#116FFF" d="M22,42c-0.553,0-1-0.447-1-1v-4.501c0-0.553,0.447-1,1-1s1,0.447,1,1V41C23,41.553,22.553,42,22,42z"/>
			</g>
			<g>
				<path fill="#116FFF" d="M22,37.499c-0.553,0-1-0.447-1-1C21,31.813,17.187,28,12.499,28C7.813,28,4,31.813,4,36.499
					c0,0.553-0.447,1-1,1s-1-0.447-1-1C2,30.71,6.71,26,12.499,26C18.289,26,23,30.71,23,36.499C23,37.052,22.553,37.499,22,37.499z
					"/>
			</g>
			<g>
				<path fill="#116FFF" d="M22.001,39c-0.301,0-0.598-0.135-0.795-0.392c-2.46-3.213-3.567-2.882-6.524-2.001
					c-2.546,0.758-6.032,1.798-11.838,0.879c-0.545-0.086-0.918-0.598-0.831-1.144c0.086-0.545,0.601-0.922,1.144-0.831
					c5.356,0.843,8.592-0.118,10.954-0.821c3.131-0.93,5.389-1.602,8.684,2.701c0.336,0.438,0.253,1.066-0.186,1.402
					C22.427,38.933,22.213,39,22.001,39z"/>
			</g>
			<g>
				<path fill="#116FFF" d="M17.021,36.028c-0.194,0-0.391-0.057-0.563-0.174c-0.456-0.312-0.573-0.935-0.262-1.391l2.979-4.36
					c0.313-0.455,0.934-0.572,1.391-0.262c0.456,0.312,0.573,0.935,0.262,1.391l-2.979,4.36
					C17.653,35.876,17.34,36.028,17.021,36.028z"/>
			</g>
			<g>
				<path fill="#116FFF" d="M1,59c-0.553,0-1-0.447-1-1c0-3.309,2.691-6,6-6c0.553,0,1,0.447,1,1s-0.447,1-1,1c-2.206,0-4,1.794-4,4
					C2,58.553,1.553,59,1,59z"/>
			</g>
			<g>
				<path fill="#116FFF" d="M9,54H6c-0.553,0-1-0.447-1-1s0.447-1,1-1h3c0.553,0,1,0.447,1,1S9.553,54,9,54z"/>
			</g>
			<g>
				<path fill="#116FFF" d="M1,62c-0.553,0-1-0.447-1-1v-3c0-0.553,0.447-1,1-1s1,0.447,1,1v3C2,61.553,1.553,62,1,62z"/>
			</g>
			<g>
				<path fill="#116FFF" d="M2,63c-1.103,0-2-0.897-2-2c0-0.531,0.418-0.914,0.948-0.943C1.509,60.022,1.94,60.473,2,60.999
					c0.552,0,1,0.448,1,1C3,62.552,2.553,63,2,63z"/>
			</g>
			<g>
				<path fill="#116FFF" d="M25,59c-0.553,0-1-0.447-1-1c0-2.206-1.794-4-4-4c-0.553,0-1-0.447-1-1s0.447-1,1-1c3.309,0,6,2.691,6,6
					C26,58.553,25.553,59,25,59z"/>
			</g>
			<g>
				<path fill="#116FFF" d="M20,54h-3c-0.553,0-1-0.447-1-1s0.447-1,1-1h3c0.553,0,1,0.447,1,1S20.553,54,20,54z"/>
			</g>
			<g>
				<path fill="#116FFF" d="M25,62c-0.553,0-1-0.447-1-1v-3c0-0.553,0.447-1,1-1s1,0.447,1,1v3C26,61.553,25.553,62,25,62z"/>
			</g>
			<g>
				<path fill="#116FFF" d="M24,63c-0.553,0-1-0.447-1-1s0.447-1,1-1c0-0.553,0.447-1,1-1s1,0.447,1,1C26,62.103,25.103,63,24,63z"
					/>
			</g>
			<g>
				<path fill="#116FFF" d="M24,63H2c-0.553,0-1-0.447-1-1s0.447-1,1-1h22c0.553,0,1,0.447,1,1S24.553,63,24,63z"/>
			</g>
			<g>
				<path fill="#116FFF" d="M9,54c-0.553,0-1-0.447-1-1v-3.936c0-0.553,0.447-1,1-1s1,0.447,1,1V53C10,53.553,9.553,54,9,54z"/>
			</g>
			<g>
				<path fill="#116FFF" d="M17,54c-0.553,0-1-0.447-1-1v-3.936c0-0.553,0.447-1,1-1s1,0.447,1,1V53C18,53.553,17.553,54,17,54z"/>
			</g>
			<g>
				<path fill="#116FFF" d="M12.999,51C7.485,51,3,46.515,3,41.002c0-0.553,0.447-1,1-1s1,0.447,1,1C5,45.412,8.588,49,12.999,49
					C17.411,49,21,45.412,21,41.002c0-0.553,0.447-1,1-1s1,0.447,1,1C23,46.515,18.514,51,12.999,51z"/>
			</g>
			<g>
				<path fill="#116FFF" d="M10.999,55c-0.15,0-0.303-0.034-0.446-0.105l-2-1c-0.494-0.247-0.694-0.848-0.447-1.342
					c0.248-0.494,0.848-0.691,1.342-0.447l2,1c0.494,0.247,0.694,0.848,0.447,1.342C11.719,54.798,11.366,55,10.999,55z"/>
			</g>
			<g>
				<path fill="#116FFF" d="M11.001,55c-0.367,0-0.72-0.202-0.896-0.553c-0.247-0.494-0.047-1.095,0.447-1.342l2-1
					c0.494-0.244,1.094-0.047,1.342,0.447c0.247,0.494,0.047,1.095-0.447,1.342l-2,1C11.304,54.966,11.151,55,11.001,55z"/>
			</g>
			<g>
				<path fill="#116FFF" d="M15.001,55c-0.367,0-0.72-0.202-0.896-0.553c-0.247-0.494-0.047-1.095,0.447-1.342l2-1
					c0.494-0.244,1.094-0.047,1.342,0.447c0.247,0.494,0.047,1.095-0.447,1.342l-2,1C15.304,54.966,15.151,55,15.001,55z"/>
			</g>
			<g>
				<path fill="#116FFF" d="M14.999,55c-0.15,0-0.303-0.034-0.446-0.105l-2-1c-0.494-0.247-0.694-0.848-0.447-1.342
					c0.248-0.494,0.848-0.691,1.342-0.447l2,1c0.494,0.247,0.694,0.848,0.447,1.342C15.719,54.798,15.366,55,14.999,55z"/>
			</g>
		</g>
	</g>
</g>
<g id="_x32_4_documentation_x2C__document_x2C__repository_x2C__business_x2C__office_x2C__corporation_x2C__job">
</g>
<g id="_x32_3_sprint_x2C__programming_x2C__code_x2C__business_x2C__office_x2C__corporation_x2C__job">
</g>
<g id="_x32_2_cram_x2C__tablet_x2C__work_x2C__business_x2C__office_x2C__corporation_x2C__job">
</g>
<g id="_x32_1_leader_x2C__discoverer_x2C__flag_x2C__business_x2C__office_x2C__corporation_x2C__job">
</g>
<g id="_x32_0_rally_x2C__collective_x2C__arm_x2C__business_x2C__office_x2C__corporation_x2C__job">
</g>
<g id="_x31_9_consolidation_x2C__portfolio_x2C__puzzle_x2C__business_x2C__office_x2C__corporation_x2C__job">
</g>
<g id="_x31_8_idea_x2C__creative_x2C__work_x2C__business_x2C__office_x2C__corporation_x2C__job">
</g>
<g id="_x31_7_problem_x2C__stress_x2C__resistance_x2C__business_x2C__office_x2C__corporation_x2C__job">
</g>
<g id="_x31_6_hard_x2C__skills_x2C__skill_x2C__portfolio_x2C__book_x2C__business_x2C__office">
</g>
<g id="_x31_5_time_x2C__management_x2C__clock_x2C__deadline_x2C__business_x2C__office_x2C__corporation">
</g>
<g id="_x31_4_multitasking_x2C__task_x2C__work_x2C__business_x2C__office_x2C__corporation_x2C__job">
</g>
<g id="_x31_3_tranquility_x2C__yoga_x2C__lotus_x2C__posture_x2C__business_x2C__office_x2C__corporation">
</g>
<g id="_x31_2_corporate_x2C__party_x2C__business_x2C__office_x2C__corporation_x2C__job">
</g>
<g id="_x31_1_dialog_x2C__discussion_x2C__work_x2C__business_x2C__office_x2C__corporation_x2C__job">
</g>
<g id="_x31_0_listening_x2C__skill_x2C__dialog_x2C__business_x2C__office_x2C__corporation_x2C__job">
</g>
<g id="_x39__training_x2C__book_x2C__lesson_x2C__business_x2C__office_x2C__corporation_x2C__job">
</g>
<g id="_x38__dress_x2C__code_x2C__shirt_x2C__business_x2C__office_x2C__corporation_x2C__job">
</g>
<g id="_x37__task_x2C__program_x2C__ticket_x2C__business_x2C__office_x2C__corporation_x2C__job">
</g>
<g id="_x36__plan_x2C__graph_x2C__stage_x2C__business_x2C__office_x2C__corporation_x2C__job">
</g>
<g id="_x35__boss_x2C__king_x2C__crown_x2C__business_x2C__office_x2C__corporation_x2C__job">
</g>
<g id="_x34__structure_x2C__structuring_x2C__business_x2C__office_x2C__corporation_x2C__job">
</g>
<g id="_x33__soft_x2C__skills_x2C__communication_x2C__business_x2C__office_x2C__corporation_x2C__job">
</g>
<g id="_x32__office_x2C__house_x2C__portfolio_x2C__business_x2C__corporation_x2C__job">
</g>
<g id="_x31__corporate_x2C__rules_x2C__book_x2C__business_x2C__office_x2C__corporation_x2C__job">
</g>
</svg>
