<?xml version="1.0" encoding="utf-8"?>
<!-- Generator: Adobe Illustrator 16.0.0, SVG Export Plug-In . SVG Version: 6.00 Build 0)  -->
<!DOCTYPE svg PUBLIC "-//W3C//DTD SVG 1.1//EN" "http://www.w3.org/Graphics/SVG/1.1/DTD/svg11.dtd">
<svg version="1.1" xmlns="http://www.w3.org/2000/svg" xmlns:xlink="http://www.w3.org/1999/xlink" x="0px" y="0px" width="64px"
	 height="64px" viewBox="0 0 64 64" enable-background="new 0 0 64 64" xml:space="preserve">
<g id="_x35_0_document_x2C__optimization_x2C__documentation_x2C__business_x2C__office_x2C__corporation_x2C__job">
</g>
<g id="_x34_9_human_x2C__resource_x2C__conveyor_x2C__business_x2C__office_x2C__corporation_x2C__job">
</g>
<g id="_x34_8_knowledge_x2C__training_x2C__growth_x2C__book_x2C__business_x2C__office_x2C__corporation">
</g>
<g id="_x34_7_skill_x2C__competence_x2C__experience_x2C__business_x2C__office_x2C__corporation_x2C__job">
</g>
<g id="_x34_6_target_x2C__success_x2C__victory_x2C__business_x2C__office_x2C__corporation_x2C__job">
</g>
<g id="_x34_5_inbox_x2C__letter_x2C__email_x2C__business_x2C__office_x2C__corporation_x2C__job">
</g>
<g id="_x34_4_document_x2C__workflow_x2C__sharing_x2C__business_x2C__office_x2C__corporation_x2C__job">
</g>
<g id="_x34_3_budget_x2C__allocation_x2C__money_x2C__business_x2C__office_x2C__corporation_x2C__job">
</g>
<g id="_x34_2_case_x2C__task_x2C__project_x2C__business_x2C__office_x2C__corporation_x2C__job">
</g>
<g id="_x34_1_structure_x2C__structuring_x2C__tasks_x2C__business_x2C__office_x2C__corporation_x2C__job">
</g>
<g id="_x34_0_choice_x2C__dilemma_x2C__question_x2C__business_x2C__office_x2C__corporation_x2C__job">
</g>
<g id="_x33_9_workplace_x2C__table_x2C__laptop_x2C__business_x2C__office_x2C__corporation_x2C__job">
</g>
<g id="_x33_8_bribe_x2C__bag_x2C__money_x2C__business_x2C__office_x2C__corporation_x2C__job">
</g>
<g id="_x33_7_corruption_x2C__forage_x2C__money_x2C__business_x2C__office_x2C__corporation_x2C__job">
</g>
<g id="_x33_6_career_x2C__ladder_x2C__success_x2C__business_x2C__office_x2C__corporation_x2C__job">
</g>
<g id="_x33_5_review_x2C__feedback_x2C__rating_x2C__business_x2C__office_x2C__corporation_x2C__job">
</g>
<g id="_x33_4_manipulation_x2C__thread_x2C__puppet_x2C__business_x2C__office_x2C__corporation_x2C__job">
</g>
<g id="_x33_3_location_x2C__map_x2C__pin_x2C__business_x2C__office_x2C__corporation_x2C__job">
</g>
<g id="_x33_2_retirement_x2C__old_x2C__man_x2C__door_x2C__business_x2C__office_x2C__corporation">
</g>
<g id="_x33_1_victory_x2C__success_x2C__medal_x2C__reward_x2C__business_x2C__office_x2C__corporation">
</g>
<g id="_x33_0_dismissal_x2C__box_x2C__door_x2C__business_x2C__office_x2C__corporation_x2C__job">
</g>
<g id="_x32_9_meeting_x2C__discussion_x2C__question_x2C__business_x2C__office_x2C__corporation_x2C__job">
</g>
<g id="_x32_8_strategy_x2C__vision_x2C__eye_x2C__chess_x2C__business_x2C__office_x2C__corporation">
	<g>
		<circle fill="#94C1FF" cx="32" cy="15" r="5"/>
	</g>
	<g>
		<path fill="#FFFFFF" d="M36,22.46C34.73,22.81,33.39,23,32,23s-2.73-0.19-4-0.54c-4.04-1.11-7.33-3.88-9-7.46
			c2.19-4.71,7.18-8,13-8s10.81,3.29,13,8C43.33,18.58,40.04,21.35,36,22.46z M37,15c0-2.76-2.24-5-5-5s-5,2.24-5,5s2.24,5,5,5
			S37,17.76,37,15z"/>
	</g>
	<g>
		<path fill="#D7E9FF" d="M36,22.46V27h-8v-4.54c1.27,0.35,2.61,0.54,4,0.54S34.73,22.81,36,22.46z"/>
	</g>
	<g>
		<g>
			<path fill="#94C1FF" d="M32,23v4h4v-4.54C34.73,22.81,33.39,23,32,23z"/>
		</g>
	</g>
	<g>
		<path fill="#D7E9FF" d="M36.5,27c0.83,0,1.5,0.67,1.5,1.5S37.33,30,36.5,30H36h-8h-0.5c-0.83,0-1.5-0.67-1.5-1.5s0.67-1.5,1.5-1.5
			H28h8H36.5z"/>
	</g>
	<g>
		<path fill="#94C1FF" d="M36.5,27H36h-3.5c0.83,0,1.5,0.67,1.5,1.5S33.33,30,32.5,30H36h0.5c0.83,0,1.5-0.67,1.5-1.5
			S37.33,27,36.5,27z"/>
	</g>
	<g>
		<path fill="#D7E9FF" d="M39,48H25h-2v-2c2.76,0,5-2.24,5-5V30h8v11c0,2.76,2.24,5,5,5v2H39z"/>
	</g>
	<g>
		<path fill="#94C1FF" d="M36,41V30h-4v13c0,2.76,2.24,5,5,5l0,0h2h2v-2C38.24,46,36,43.76,36,41z"/>
	</g>
	<g>
		<rect x="25" y="48" fill="#94C1FF" width="14" height="3"/>
	</g>
	<g>
		<rect x="35" y="48" fill="#5C9EFF" width="4" height="3"/>
	</g>
	<g>
		<path fill="#D7E9FF" d="M25,51h14h2c2.21,0,4,1.79,4,4s-1.79,4-4,4H23c-2.21,0-4-1.79-4-4s1.79-4,4-4H25z"/>
	</g>
	<g>
		<path fill="#94C1FF" d="M41,51h-2h-2c2.21,0,4,1.79,4,4s-1.79,4-4,4h4c2.21,0,4-1.79,4-4S43.21,51,41,51z"/>
	</g>
	<g>
		<path fill="#D7E9FF" d="M44,59c1.1,0,2,0.9,2,2s-0.9,2-2,2H20c-1.1,0-2-0.9-2-2s0.9-2,2-2h3h18H44z"/>
	</g>
	<g>
		<path fill="#94C1FF" d="M44,59h-3h-1c1.1,0,2,0.9,2,2s-0.9,2-2,2h4c1.1,0,2-0.9,2-2S45.1,59,44,59z"/>
	</g>
	<g>
		<g>
			<path fill="#116FFF" d="M25,52c-0.553,0-1-0.447-1-1v-3c0-0.553,0.447-1,1-1s1,0.447,1,1v3C26,51.553,25.553,52,25,52z"/>
		</g>
		<g>
			<path fill="#116FFF" d="M39,52c-0.553,0-1-0.447-1-1v-3c0-0.553,0.447-1,1-1s1,0.447,1,1v3C40,51.553,39.553,52,39,52z"/>
		</g>
		<g>
			<path fill="#116FFF" d="M41,49H23c-0.553,0-1-0.447-1-1s0.447-1,1-1h18c0.553,0,1,0.447,1,1S41.553,49,41,49z"/>
		</g>
		<g>
			<path fill="#116FFF" d="M23,47c-0.553,0-1-0.447-1-1s0.447-1,1-1c2.206,0,4-1.794,4-4c0-0.553,0.447-1,1-1s1,0.447,1,1
				C29,44.309,26.309,47,23,47z"/>
		</g>
		<g>
			<path fill="#116FFF" d="M41,47c-3.309,0-6-2.691-6-6c0-0.553,0.447-1,1-1s1,0.447,1,1c0,2.206,1.794,4,4,4c0.553,0,1,0.447,1,1
				S41.553,47,41,47z"/>
		</g>
		<g>
			<path fill="#116FFF" d="M28,28c-0.553,0-1-0.447-1-1v-4.538c0-0.553,0.447-1,1-1s1,0.447,1,1V27C29,27.553,28.553,28,28,28z"/>
		</g>
		<g>
			<path fill="#116FFF" d="M36,28c-0.553,0-1-0.447-1-1v-4.568c0-0.553,0.447-1,1-1s1,0.447,1,1V27C37,27.553,36.553,28,36,28z"/>
		</g>
		<g>
			<path fill="#116FFF" d="M32,8c-0.553,0-1-0.447-1-1V1c0-0.553,0.447-1,1-1s1,0.447,1,1v6C33,7.553,32.553,8,32,8z"/>
		</g>
		<g>
			<path fill="#116FFF" d="M34,4h-4c-0.553,0-1-0.447-1-1s0.447-1,1-1h4c0.553,0,1,0.447,1,1S34.553,4,34,4z"/>
		</g>
		<g>
			<path fill="#116FFF" d="M23,49c-0.553,0-1-0.447-1-1v-2c0-0.553,0.447-1,1-1s1,0.447,1,1v2C24,48.553,23.553,49,23,49z"/>
		</g>
		<g>
			<path fill="#116FFF" d="M41.001,49c-0.553,0-1-0.447-1-1v-2c0-0.553,0.447-1,1-1s1,0.447,1,1v2
				C42.001,48.553,41.554,49,41.001,49z"/>
		</g>
		<g>
			<path fill="#116FFF" d="M23,60c-2.757,0-5-2.243-5-5s2.243-5,5-5c0.553,0,1,0.447,1,1s-0.447,1-1,1c-1.654,0-3,1.346-3,3
				s1.346,3,3,3c0.553,0,1,0.447,1,1S23.553,60,23,60z"/>
		</g>
		<g>
			<path fill="#116FFF" d="M41,60c-0.553,0-1-0.447-1-1s0.447-1,1-1c1.654,0,3-1.346,3-3s-1.346-3-3-3c-0.553,0-1-0.447-1-1
				s0.447-1,1-1c2.757,0,5,2.243,5,5S43.757,60,41,60z"/>
		</g>
		<g>
			<path fill="#116FFF" d="M41,52H23c-0.553,0-1-0.447-1-1s0.447-1,1-1h18c0.553,0,1,0.447,1,1S41.553,52,41,52z"/>
		</g>
		<g>
			<path fill="#116FFF" d="M44,60H20c-0.553,0-1-0.447-1-1s0.447-1,1-1h24c0.553,0,1,0.447,1,1S44.553,60,44,60z"/>
		</g>
		<g>
			<path fill="#116FFF" d="M20,64c-1.654,0-3-1.346-3-3s1.346-3,3-3c0.553,0,1,0.447,1,1s-0.447,1-1,1c-0.552,0-1,0.448-1,1
				s0.448,1,1,1c0.553,0,1,0.447,1,1S20.553,64,20,64z"/>
		</g>
		<g>
			<path fill="#116FFF" d="M44,64c-0.553,0-1-0.447-1-1s0.447-1,1-1c0.552,0,1-0.448,1-1s-0.448-1-1-1c-0.553,0-1-0.447-1-1
				s0.447-1,1-1c1.654,0,3,1.346,3,3S45.654,64,44,64z"/>
		</g>
		<g>
			<path fill="#116FFF" d="M44,64H20c-0.553,0-1-0.447-1-1s0.447-1,1-1h24c0.553,0,1,0.447,1,1S44.553,64,44,64z"/>
		</g>
		<g>
			<path fill="#116FFF" d="M32,24c-6.024,0-11.483-3.367-13.907-8.578c-0.124-0.268-0.124-0.576,0-0.844C20.517,9.367,25.976,6,32,6
				s11.483,3.367,13.907,8.578c0.124,0.268,0.124,0.576,0,0.844C43.483,20.633,38.024,24,32,24z M20.113,15
				c2.19,4.268,6.803,7,11.887,7s9.696-2.732,11.887-7C41.696,10.732,37.084,8,32,8S22.304,10.732,20.113,15z"/>
		</g>
		<g>
			<path fill="#116FFF" d="M36.5,28h-9c-0.553,0-1-0.447-1-1s0.447-1,1-1h9c0.553,0,1,0.447,1,1S37.053,28,36.5,28z"/>
		</g>
		<g>
			<path fill="#116FFF" d="M32,21c-3.309,0-6-2.691-6-6s2.691-6,6-6s6,2.691,6,6S35.309,21,32,21z M32,11c-2.206,0-4,1.794-4,4
				s1.794,4,4,4s4-1.794,4-4S34.206,11,32,11z"/>
		</g>
		<g>
			<path fill="#116FFF" d="M27.5,31c-1.379,0-2.5-1.121-2.5-2.5s1.121-2.5,2.5-2.5c0.553,0,1,0.447,1,1s-0.447,1-1,1
				c-0.275,0-0.5,0.225-0.5,0.5s0.225,0.5,0.5,0.5c0.553,0,1,0.447,1,1S28.053,31,27.5,31z"/>
		</g>
		<g>
			<path fill="#116FFF" d="M36.5,31c-0.553,0-1-0.447-1-1s0.447-1,1-1c0.275,0,0.5-0.225,0.5-0.5S36.775,28,36.5,28
				c-0.553,0-1-0.447-1-1s0.447-1,1-1c1.379,0,2.5,1.121,2.5,2.5S37.879,31,36.5,31z"/>
		</g>
		<g>
			<path fill="#116FFF" d="M36.5,31h-9c-0.553,0-1-0.447-1-1s0.447-1,1-1h9c0.553,0,1,0.447,1,1S37.053,31,36.5,31z"/>
		</g>
		<g>
			<path fill="#116FFF" d="M28,42c-0.553,0-1-0.447-1-1V30c0-0.553,0.447-1,1-1s1,0.447,1,1v11C29,41.553,28.553,42,28,42z"/>
		</g>
		<g>
			<path fill="#116FFF" d="M36,42c-0.553,0-1-0.447-1-1V30c0-0.553,0.447-1,1-1s1,0.447,1,1v11C37,41.553,36.553,42,36,42z"/>
		</g>
	</g>
</g>
<g id="_x32_7_board_x2C__task_x2C__process_x2C__business_x2C__office_x2C__corporation_x2C__job">
</g>
<g id="_x32_6_scheme_x2C__board_x2C__structure_x2C__business_x2C__office_x2C__corporation_x2C__job">
</g>
<g id="_x32_5_conflict_x2C__dialog_x2C__discussion_x2C__business_x2C__office_x2C__corporation_x2C__job">
</g>
<g id="_x32_4_documentation_x2C__document_x2C__repository_x2C__business_x2C__office_x2C__corporation_x2C__job">
</g>
<g id="_x32_3_sprint_x2C__programming_x2C__code_x2C__business_x2C__office_x2C__corporation_x2C__job">
</g>
<g id="_x32_2_cram_x2C__tablet_x2C__work_x2C__business_x2C__office_x2C__corporation_x2C__job">
</g>
<g id="_x32_1_leader_x2C__discoverer_x2C__flag_x2C__business_x2C__office_x2C__corporation_x2C__job">
</g>
<g id="_x32_0_rally_x2C__collective_x2C__arm_x2C__business_x2C__office_x2C__corporation_x2C__job">
</g>
<g id="_x31_9_consolidation_x2C__portfolio_x2C__puzzle_x2C__business_x2C__office_x2C__corporation_x2C__job">
</g>
<g id="_x31_8_idea_x2C__creative_x2C__work_x2C__business_x2C__office_x2C__corporation_x2C__job">
</g>
<g id="_x31_7_problem_x2C__stress_x2C__resistance_x2C__business_x2C__office_x2C__corporation_x2C__job">
</g>
<g id="_x31_6_hard_x2C__skills_x2C__skill_x2C__portfolio_x2C__book_x2C__business_x2C__office">
</g>
<g id="_x31_5_time_x2C__management_x2C__clock_x2C__deadline_x2C__business_x2C__office_x2C__corporation">
</g>
<g id="_x31_4_multitasking_x2C__task_x2C__work_x2C__business_x2C__office_x2C__corporation_x2C__job">
</g>
<g id="_x31_3_tranquility_x2C__yoga_x2C__lotus_x2C__posture_x2C__business_x2C__office_x2C__corporation">
</g>
<g id="_x31_2_corporate_x2C__party_x2C__business_x2C__office_x2C__corporation_x2C__job">
</g>
<g id="_x31_1_dialog_x2C__discussion_x2C__work_x2C__business_x2C__office_x2C__corporation_x2C__job">
</g>
<g id="_x31_0_listening_x2C__skill_x2C__dialog_x2C__business_x2C__office_x2C__corporation_x2C__job">
</g>
<g id="_x39__training_x2C__book_x2C__lesson_x2C__business_x2C__office_x2C__corporation_x2C__job">
</g>
<g id="_x38__dress_x2C__code_x2C__shirt_x2C__business_x2C__office_x2C__corporation_x2C__job">
</g>
<g id="_x37__task_x2C__program_x2C__ticket_x2C__business_x2C__office_x2C__corporation_x2C__job">
</g>
<g id="_x36__plan_x2C__graph_x2C__stage_x2C__business_x2C__office_x2C__corporation_x2C__job">
</g>
<g id="_x35__boss_x2C__king_x2C__crown_x2C__business_x2C__office_x2C__corporation_x2C__job">
</g>
<g id="_x34__structure_x2C__structuring_x2C__business_x2C__office_x2C__corporation_x2C__job">
</g>
<g id="_x33__soft_x2C__skills_x2C__communication_x2C__business_x2C__office_x2C__corporation_x2C__job">
</g>
<g id="_x32__office_x2C__house_x2C__portfolio_x2C__business_x2C__corporation_x2C__job">
</g>
<g id="_x31__corporate_x2C__rules_x2C__book_x2C__business_x2C__office_x2C__corporation_x2C__job">
</g>
</svg>
