<?xml version="1.0" encoding="utf-8"?>
<!-- Generator: Adobe Illustrator 16.0.0, SVG Export Plug-In . SVG Version: 6.00 Build 0)  -->
<!DOCTYPE svg PUBLIC "-//W3C//DTD SVG 1.1//EN" "http://www.w3.org/Graphics/SVG/1.1/DTD/svg11.dtd">
<svg version="1.1" xmlns="http://www.w3.org/2000/svg" xmlns:xlink="http://www.w3.org/1999/xlink" x="0px" y="0px" width="64px"
	 height="64px" viewBox="0 0 64 64" enable-background="new 0 0 64 64" xml:space="preserve">
<g id="_x35_0_document_x2C__optimization_x2C__documentation_x2C__business_x2C__office_x2C__corporation_x2C__job">
</g>
<g id="_x34_9_human_x2C__resource_x2C__conveyor_x2C__business_x2C__office_x2C__corporation_x2C__job">
</g>
<g id="_x34_8_knowledge_x2C__training_x2C__growth_x2C__book_x2C__business_x2C__office_x2C__corporation">
</g>
<g id="_x34_7_skill_x2C__competence_x2C__experience_x2C__business_x2C__office_x2C__corporation_x2C__job">
</g>
<g id="_x34_6_target_x2C__success_x2C__victory_x2C__business_x2C__office_x2C__corporation_x2C__job">
</g>
<g id="_x34_5_inbox_x2C__letter_x2C__email_x2C__business_x2C__office_x2C__corporation_x2C__job">
</g>
<g id="_x34_4_document_x2C__workflow_x2C__sharing_x2C__business_x2C__office_x2C__corporation_x2C__job">
</g>
<g id="_x34_3_budget_x2C__allocation_x2C__money_x2C__business_x2C__office_x2C__corporation_x2C__job">
</g>
<g id="_x34_2_case_x2C__task_x2C__project_x2C__business_x2C__office_x2C__corporation_x2C__job">
</g>
<g id="_x34_1_structure_x2C__structuring_x2C__tasks_x2C__business_x2C__office_x2C__corporation_x2C__job">
</g>
<g id="_x34_0_choice_x2C__dilemma_x2C__question_x2C__business_x2C__office_x2C__corporation_x2C__job">
</g>
<g id="_x33_9_workplace_x2C__table_x2C__laptop_x2C__business_x2C__office_x2C__corporation_x2C__job">
</g>
<g id="_x33_8_bribe_x2C__bag_x2C__money_x2C__business_x2C__office_x2C__corporation_x2C__job">
</g>
<g id="_x33_7_corruption_x2C__forage_x2C__money_x2C__business_x2C__office_x2C__corporation_x2C__job">
</g>
<g id="_x33_6_career_x2C__ladder_x2C__success_x2C__business_x2C__office_x2C__corporation_x2C__job">
</g>
<g id="_x33_5_review_x2C__feedback_x2C__rating_x2C__business_x2C__office_x2C__corporation_x2C__job">
</g>
<g id="_x33_4_manipulation_x2C__thread_x2C__puppet_x2C__business_x2C__office_x2C__corporation_x2C__job">
</g>
<g id="_x33_3_location_x2C__map_x2C__pin_x2C__business_x2C__office_x2C__corporation_x2C__job">
</g>
<g id="_x33_2_retirement_x2C__old_x2C__man_x2C__door_x2C__business_x2C__office_x2C__corporation">
</g>
<g id="_x33_1_victory_x2C__success_x2C__medal_x2C__reward_x2C__business_x2C__office_x2C__corporation">
</g>
<g id="_x33_0_dismissal_x2C__box_x2C__door_x2C__business_x2C__office_x2C__corporation_x2C__job">
</g>
<g id="_x32_9_meeting_x2C__discussion_x2C__question_x2C__business_x2C__office_x2C__corporation_x2C__job">
	<g>
		<path fill="#EAC6BB" d="M32.001,1.002c2.21,0,4,1.789,4,4c0,1.02-0.38,1.949-1.021,2.66c-0.72,0.82-1.79,1.34-2.979,1.34
			c-1.19,0-2.261-0.52-2.99-1.34c-0.63-0.711-1.01-1.641-1.01-2.66C28.001,2.791,29.791,1.002,32.001,1.002z"/>
	</g>
	<g>
		<path fill="#ED5565" d="M29.001,7.672l0.01-0.01c0.729,0.82,1.8,1.34,2.99,1.34c1.189,0,2.26-0.52,2.979-1.34
			c2.37,1.119,4.021,3.539,4.021,6.34c0,0.109,0,0.219-0.011,0.33c-4.59-1.82-9.59-1.73-13.979,0.01v-0.01
			c-0.01-0.111-0.01-0.221-0.01-0.33C25.001,11.211,26.641,8.801,29.001,7.672z"/>
	</g>
	<g>
		<path fill="#EAC6BB" d="M12.41,17.252c0.351,1.049,0.271,2.23-0.329,3.25c-0.591,1.029-1.58,1.699-2.66,1.91
			c-0.92,0.199-1.92,0.059-2.8-0.451c-1.921-1.1-2.57-3.549-1.471-5.459c1.11-1.91,3.55-2.57,5.471-1.461
			C11.501,15.551,12.121,16.352,12.41,17.252z"/>
	</g>
	<g>
		<path fill="#AC92EC" d="M20.2,17.121c-1.829,1.43-3.42,3.24-4.649,5.381c-1.24,2.139-2.01,4.41-2.351,6.719
			c-0.1-0.049-0.189-0.1-0.29-0.16c-2.42-1.389-3.689-4.02-3.479-6.619l-0.01-0.029c1.08-0.211,2.069-0.881,2.66-1.91
			c0.6-1.02,0.68-2.201,0.329-3.25c2.16-1.5,5.08-1.711,7.5-0.311c0.101,0.051,0.19,0.109,0.28,0.17L20.2,17.121z"/>
	</g>
	<g>
		<path fill="#5D9CEC" d="M13.211,34.781c0.689,4.67,3.109,9.041,6.979,12.109c-0.09,0.061-0.18,0.121-0.28,0.17
			c-2.42,1.4-5.319,1.191-7.479-0.299l-0.021-0.01c0.351-1.051,0.271-2.23-0.329-3.25c-0.591-1.02-1.57-1.691-2.641-1.91
			c-0.22-2.621,1.05-5.25,3.47-6.65c0.101-0.061,0.19-0.109,0.29-0.16H13.211z"/>
	</g>
	<g>
		<path fill="#EAC6BB" d="M12.081,43.502c0.6,1.02,0.68,2.199,0.329,3.25c-0.289,0.9-0.909,1.699-1.789,2.209
			c-1.921,1.111-4.36,0.451-5.471-1.459c-1.1-1.91-0.439-4.361,1.471-5.461c0.89-0.52,1.89-0.65,2.819-0.449
			C10.511,41.811,11.49,42.482,12.081,43.502z"/>
	</g>
	<g>
		<path fill="#48CFAD" d="M39.001,50.002c0,2.789-1.63,5.199-4,6.33l-0.011,0.01c-0.729-0.82-1.8-1.34-2.989-1.34
			c-1.19,0-2.261,0.52-2.98,1.34c-2.37-1.121-4.02-3.541-4.02-6.34c0-0.111,0-0.221,0.01-0.33c4.59,1.82,9.59,1.73,13.979-0.01v0.01
			C39.001,49.781,39.001,49.891,39.001,50.002z"/>
	</g>
	<g>
		<path fill="#EAC6BB" d="M34.99,56.342c0.631,0.709,1.011,1.641,1.011,2.66c0,2.209-1.79,4-4,4s-4-1.791-4-4
			c0-1.02,0.38-1.951,1.02-2.66c0.72-0.82,1.79-1.34,2.98-1.34C33.19,55.002,34.261,55.521,34.99,56.342z"/>
	</g>
	<g>
		<path fill="#A0D468" d="M43.801,46.881c1.83-1.43,3.42-3.24,4.66-5.379c1.229-2.141,2-4.42,2.34-6.721
			c0.1,0.051,0.189,0.1,0.29,0.16c2.42,1.391,3.689,4.02,3.479,6.619l0.011,0.031c-1.08,0.209-2.07,0.879-2.66,1.91
			c-0.601,1.02-0.681,2.199-0.33,3.25c-2.16,1.5-5.08,1.709-7.5,0.309c-0.101-0.049-0.19-0.109-0.28-0.17L43.801,46.881z"/>
	</g>
	<g>
		<path fill="#EAC6BB" d="M57.381,42.041c1.92,1.1,2.569,3.551,1.47,5.461c-1.11,1.91-3.55,2.57-5.47,1.459
			c-0.88-0.51-1.5-1.309-1.79-2.209c-0.351-1.051-0.271-2.23,0.33-3.25c0.59-1.031,1.58-1.701,2.66-1.91
			C55.501,41.391,56.501,41.531,57.381,42.041z"/>
	</g>
	<g>
		<path fill="#EAC6BB" d="M58.851,16.502c1.1,1.91,0.45,4.359-1.47,5.459c-0.891,0.521-1.891,0.65-2.82,0.451
			c-1.07-0.221-2.05-0.891-2.64-1.91c-0.601-1.02-0.681-2.201-0.33-3.25c0.29-0.9,0.91-1.701,1.79-2.211
			C55.301,13.932,57.74,14.592,58.851,16.502z"/>
	</g>
	<g>
		<path fill="#FFCE54" d="M51.591,17.252c-0.351,1.049-0.271,2.23,0.33,3.25c0.59,1.02,1.569,1.689,2.64,1.91
			c0.22,2.619-1.05,5.25-3.47,6.648c-0.101,0.061-0.19,0.111-0.29,0.16H50.78c-0.68-4.67-3.1-9.039-6.97-12.109
			c0.09-0.061,0.18-0.119,0.28-0.17c2.42-1.4,5.319-1.189,7.479,0.301L51.591,17.252z"/>
	</g>
	<g>
		<path fill="#FFD2A6" d="M13.2,29.221c0.341-2.309,1.11-4.58,2.351-6.719c1.229-2.141,2.82-3.951,4.649-5.381
			c1.471-1.17,3.091-2.1,4.811-2.779c4.39-1.74,9.39-1.83,13.979-0.01c0.851,0.34,1.69,0.74,2.511,1.209
			c0.819,0.471,1.59,1,2.31,1.57c3.87,3.07,6.29,7.439,6.97,12.109c0.29,1.83,0.29,3.701,0.021,5.561
			c-0.34,2.301-1.11,4.58-2.34,6.721c-1.24,2.139-2.83,3.949-4.66,5.379c-1.47,1.18-3.09,2.111-4.811,2.781
			c-4.39,1.74-9.39,1.83-13.979,0.01c-0.851-0.34-1.69-0.74-2.51-1.211c-0.82-0.469-1.591-1-2.311-1.57
			c-3.87-3.068-6.29-7.439-6.979-12.109C12.94,32.951,12.931,31.072,13.2,29.221z"/>
	</g>
	<g>
		<path fill="#EAC6BB" d="M5.154,16.5c1.105-1.914,3.551-2.568,5.465-1.463c0.883,0.51,1.498,1.303,1.793,2.213
			c0.351,1.033,0.266,2.221-0.33,3.25c-0.595,1.031-1.58,1.699-2.654,1.92c-0.931,0.191-1.926,0.055-2.809-0.455
			C4.705,20.859,4.049,18.414,5.154,16.5z"/>
	</g>
	<g>
		<path fill="#ED5565" d="M9.431,22.434L9.428,22.42c1.074-0.221,2.06-0.889,2.654-1.92c0.596-1.029,0.681-2.217,0.33-3.25
			c2.154-1.492,5.076-1.711,7.5-0.313c0.096,0.057,0.191,0.111,0.281,0.176c-3.871,3.064-6.294,7.439-6.981,12.111l-0.009-0.006
			c-0.1-0.047-0.195-0.102-0.291-0.156C10.496,27.668,9.229,25.043,9.431,22.434z"/>
	</g>
	<g>
		<path fill="#EAC6BB" d="M9.432,41.592c1.084,0.221,2.066,0.881,2.65,1.91c0.597,1.025,0.682,2.219,0.324,3.258
			c-0.287,0.896-0.908,1.693-1.79,2.199c-1.913,1.115-4.359,0.451-5.464-1.455c-1.1-1.916-0.451-4.359,1.471-5.469
			C7.505,41.529,8.508,41.391,9.432,41.592z"/>
	</g>
	<g>
		<path fill="#AC92EC" d="M13.215,34.779c0.323,2.299,1.096,4.582,2.334,6.717c1.232,2.145,2.814,3.945,4.645,5.396
			c-0.094,0.061-0.182,0.113-0.284,0.17c-2.413,1.402-5.325,1.186-7.472-0.295l-0.031-0.008c0.357-1.039,0.272-2.232-0.324-3.258
			c-0.584-1.029-1.566-1.689-2.65-1.91c-0.219-2.621,1.06-5.254,3.482-6.65c0.094-0.063,0.189-0.109,0.287-0.158L13.215,34.779z"/>
	</g>
	<g>
		<path fill="#5D9CEC" d="M25.014,49.664c4.389,1.736,9.384,1.826,13.977,0.01c0.008,0.107,0.015,0.215,0.008,0.328
			c0.002,2.795-1.629,5.201-4,6.326l-0.019,0.014c-0.733-0.828-1.796-1.35-2.979-1.34c-1.178,0.002-2.248,0.514-2.975,1.332
			c-2.379-1.121-4.021-3.535-4.023-6.33c-0.002-0.117,0-0.221,0.006-0.332L25.014,49.664z"/>
	</g>
	<g>
		<path fill="#EAC6BB" d="M32,55.002c1.184-0.01,2.246,0.512,2.979,1.34c0.636,0.699,1.019,1.637,1.02,2.654
			c0.001,2.219-1.79,4.002-4,4.008C29.795,63,28.004,61.203,28.006,59c-0.006-1.031,0.382-1.961,1.02-2.666
			C29.752,55.516,30.822,55.004,32,55.002z"/>
	</g>
	<g>
		<path fill="#48CFAD" d="M51.09,34.938c2.416,1.396,3.688,4.012,3.482,6.629l0.002,0.016c-1.074,0.221-2.06,0.889-2.654,1.918
			c-0.596,1.031-0.681,2.219-0.33,3.252c-2.155,1.492-5.076,1.711-7.5,0.311c-0.096-0.055-0.19-0.109-0.281-0.174
			c3.871-3.064,6.293-7.439,6.981-12.111l0.009,0.006C50.899,34.828,50.994,34.883,51.09,34.938z"/>
	</g>
	<g>
		<path fill="#EAC6BB" d="M54.574,41.582c0.931-0.191,1.927-0.055,2.81,0.455c1.914,1.104,2.569,3.549,1.464,5.463
			c-1.104,1.914-3.55,2.57-5.464,1.465c-0.883-0.51-1.499-1.305-1.794-2.213c-0.351-1.033-0.266-2.221,0.33-3.252
			C52.515,42.471,53.5,41.803,54.574,41.582z"/>
	</g>
	<g>
		<path fill="#A0D468" d="M50.787,29.221c-0.322-2.299-1.096-4.582-2.328-6.725c-1.238-2.135-2.828-3.943-4.65-5.387
			c0.094-0.061,0.182-0.115,0.284-0.172c2.413-1.4,5.325-1.186,7.472,0.297l0.031,0.006c-0.357,1.041-0.272,2.232,0.324,3.26
			c0.583,1.029,1.565,1.689,2.65,1.91c0.219,2.621-1.06,5.254-3.482,6.65c-0.094,0.063-0.189,0.109-0.287,0.156L50.787,29.221z"/>
	</g>
	<g>
		<path fill="#EAC6BB" d="M53.387,15.041c1.912-1.113,4.358-0.451,5.463,1.457c1.099,1.916,0.451,4.359-1.471,5.467
			c-0.881,0.508-1.885,0.645-2.809,0.445c-1.085-0.221-2.067-0.881-2.65-1.91c-0.597-1.027-0.682-2.219-0.324-3.26
			C51.883,16.344,52.504,15.547,53.387,15.041z"/>
	</g>
	<g>
		<path fill="#EAC6BB" d="M32.002,0.998C34.207,1,36.004,2.789,35.996,5c0.006,1.031-0.382,1.963-1.02,2.668
			C34.25,8.484,33.18,8.998,32.002,9c-1.184,0.01-2.246-0.512-2.98-1.34c-0.635-0.701-1.017-1.639-1.018-2.656
			C28.002,2.787,29.793,1.004,32.002,0.998z"/>
	</g>
	<g>
		<path fill="#FFCE54" d="M29.021,7.66c0.734,0.828,1.797,1.35,2.98,1.34c1.178-0.002,2.248-0.516,2.975-1.332
			c2.379,1.119,4.021,3.535,4.023,6.33c0.002,0.117,0,0.221-0.007,0.33l-0.011,0.02c-4.384-1.748-9.378-1.836-13.971-0.02
			c-0.008-0.107-0.015-0.215-0.008-0.328c-0.002-2.795,1.629-5.201,4-6.326L29.021,7.66z"/>
	</g>
	<g>
		<path fill="#FFD2A6" d="M20.193,46.893c-1.83-1.451-3.412-3.252-4.645-5.396c-1.238-2.135-2.011-4.418-2.334-6.717
			c-0.278-1.857-0.274-3.727-0.003-5.555c0.688-4.672,3.11-9.047,6.981-12.111c0.719-0.568,1.486-1.094,2.303-1.57
			c0.816-0.475,1.661-0.877,2.516-1.215c4.593-1.816,9.587-1.729,13.971,0.02c1.73,0.662,3.35,1.598,4.826,2.762
			c1.822,1.443,3.412,3.252,4.65,5.387c1.232,2.143,2.006,4.426,2.328,6.725c0.287,1.863,0.283,3.732,0.003,5.557
			c-0.688,4.672-3.11,9.047-6.981,12.111c-0.72,0.566-1.486,1.094-2.303,1.568c-0.816,0.477-1.662,0.879-2.516,1.217
			c-4.593,1.816-9.588,1.727-13.977-0.01C23.294,48.982,21.66,48.051,20.193,46.893z"/>
	</g>
	<g>
		<path fill="#EAC6BB" d="M5.152,47.5c-1.104-1.916-0.449-4.359,1.466-5.465c0.883-0.51,1.878-0.646,2.813-0.447
			c1.069,0.215,2.056,0.881,2.648,1.912c0.596,1.031,0.682,2.217,0.336,3.258c-0.299,0.902-0.916,1.695-1.799,2.205
			C8.703,50.068,6.258,49.414,5.152,47.5z"/>
	</g>
	<g>
		<path fill="#ED5565" d="M12.43,46.762l-0.014-0.004c0.346-1.041,0.26-2.227-0.336-3.258c-0.593-1.031-1.579-1.697-2.648-1.912
			c-0.216-2.611,1.056-5.25,3.479-6.65c0.097-0.055,0.191-0.109,0.292-0.156c0.719,4.885,3.296,9.17,6.998,12.102l-0.01,0.006
			c-0.09,0.063-0.186,0.117-0.28,0.174C17.495,48.457,14.588,48.242,12.43,46.762z"/>
	</g>
	<g>
		<path fill="#EAC6BB" d="M29.021,56.342c0.732-0.83,1.796-1.35,2.979-1.342c1.187-0.004,2.263,0.52,2.984,1.35
			c0.633,0.697,1.011,1.633,1.009,2.65c0.01,2.213-1.788,4-3.992,4.002c-2.209-0.004-4.001-1.787-4-4.006
			C28.004,57.979,28.387,57.041,29.021,56.342z"/>
	</g>
	<g>
		<path fill="#AC92EC" d="M25.014,49.658c2.152,0.869,4.517,1.342,6.984,1.338c2.473,0.004,4.824-0.465,6.995-1.324
			c0.005,0.111,0.008,0.215,0.006,0.33c0.007,2.791-1.636,5.205-3.992,6.324l-0.021,0.023c-0.722-0.83-1.798-1.354-2.984-1.35
			c-1.184-0.008-2.247,0.512-2.979,1.342c-2.379-1.121-4.02-3.545-4.018-6.342c-0.008-0.113,0-0.219,0.007-0.328L25.014,49.658z"/>
	</g>
	<g>
		<path fill="#5D9CEC" d="M43.803,46.883c3.699-2.932,6.273-7.213,6.997-12.1c0.097,0.047,0.194,0.096,0.288,0.158
			c2.422,1.395,3.689,4.01,3.479,6.627l0.003,0.021c-1.084,0.223-2.067,0.881-2.649,1.912c-0.588,1.02-0.68,2.203-0.334,3.242
			c-2.16,1.5-5.072,1.715-7.494,0.318c-0.103-0.057-0.191-0.109-0.283-0.17L43.803,46.883z"/>
	</g>
	<g>
		<path fill="#EAC6BB" d="M51.92,43.502c0.582-1.031,1.565-1.689,2.649-1.912c0.925-0.199,1.927-0.063,2.809,0.445
			c1.922,1.107,2.571,3.551,1.471,5.469c-1.104,1.906-3.556,2.559-5.464,1.455c-0.896-0.51-1.508-1.311-1.799-2.215
			C51.24,45.705,51.332,44.521,51.92,43.502z"/>
	</g>
	<g>
		<path fill="#48CFAD" d="M44.089,16.938c2.417-1.395,5.318-1.189,7.481,0.299l0.014,0.006c-0.346,1.039-0.26,2.227,0.334,3.256
			c0.596,1.033,1.582,1.699,2.651,1.912c0.215,2.613-1.056,5.252-3.481,6.65c-0.095,0.057-0.189,0.111-0.291,0.158
			c-0.718-4.885-3.296-9.17-6.998-12.104l0.01-0.004C43.898,17.047,43.992,16.992,44.089,16.938z"/>
	</g>
	<g>
		<path fill="#EAC6BB" d="M51.584,17.242c0.3-0.902,0.916-1.697,1.799-2.207c1.914-1.105,4.358-0.449,5.463,1.465
			c1.105,1.912,0.451,4.359-1.463,5.463c-0.883,0.51-1.879,0.646-2.813,0.447c-1.069-0.213-2.056-0.879-2.651-1.912
			C51.324,19.469,51.238,18.281,51.584,17.242z"/>
	</g>
	<g>
		<path fill="#A0D468" d="M38.986,14.342c-2.152-0.871-4.516-1.344-6.988-1.348c-2.469,0.006-4.828,0.479-6.99,1.334
			c-0.006-0.111-0.008-0.215-0.006-0.332c-0.008-2.789,1.636-5.203,3.992-6.322l0.021-0.023C29.737,8.48,30.813,9.002,32,8.998
			c1.183,0.01,2.246-0.51,2.979-1.34C37.358,8.779,39,11.203,38.997,14c0.007,0.111,0,0.219-0.007,0.326L38.986,14.342z"/>
	</g>
	<g>
		<path fill="#EAC6BB" d="M28.006,5c-0.008-2.213,1.789-4,3.992-4.004c2.209,0.008,4.002,1.789,4,4.008
			c-0.001,1.018-0.385,1.955-1.02,2.654c-0.732,0.83-1.796,1.35-2.979,1.34c-1.188,0.004-2.263-0.518-2.985-1.348
			C28.382,6.953,28.003,6.018,28.006,5z"/>
	</g>
	<g>
		<path fill="#EAC6BB" d="M5.151,16.498c1.104-1.908,3.552-2.57,5.464-1.459c0.896,0.512,1.508,1.313,1.8,2.217
			c0.345,1.039,0.253,2.223-0.333,3.242c-0.584,1.031-1.566,1.689-2.651,1.912c-0.925,0.199-1.927,0.061-2.808-0.447
			C4.701,20.855,4.053,18.414,5.151,16.498z"/>
	</g>
	<g>
		<path fill="#FFCE54" d="M9.431,22.41c1.085-0.223,2.067-0.881,2.651-1.912c0.586-1.02,0.678-2.203,0.333-3.242
			c2.159-1.5,5.072-1.715,7.493-0.318c0.104,0.057,0.191,0.109,0.283,0.172l0.012,0.018c-3.705,2.924-6.279,7.203-7.002,12.09
			c-0.098-0.047-0.193-0.096-0.289-0.158c-2.421-1.395-3.689-4.012-3.479-6.627L9.431,22.41z"/>
	</g>
	<g>
		<path fill="#FFD2A6" d="M38.993,49.672c-2.171,0.859-4.522,1.328-6.995,1.324c-2.468,0.004-4.832-0.469-6.984-1.338
			c-1.748-0.688-3.365-1.625-4.813-2.775c-3.702-2.932-6.279-7.217-6.998-12.102c-0.132-0.906-0.203-1.834-0.209-2.779
			c-0.002-0.943,0.072-1.877,0.207-2.785c0.723-4.887,3.297-9.166,7.002-12.09c1.439-1.168,3.059-2.102,4.805-2.799
			c2.162-0.855,4.521-1.328,6.99-1.334c2.473,0.004,4.836,0.477,6.988,1.348c1.756,0.682,3.373,1.619,4.813,2.773
			c3.702,2.934,6.28,7.219,6.998,12.104c0.132,0.906,0.205,1.834,0.208,2.777c0.004,0.945-0.071,1.879-0.205,2.787
			c-0.724,4.887-3.298,9.168-6.997,12.1C42.354,48.031,40.729,48.98,38.993,49.672z"/>
	</g>
	<g>
		<path fill="#D7E9FF" d="M31.998,63c-2.211,0-4-1.789-4-4c0-1.02,0.38-1.951,1.021-2.66c0.719-0.82,1.789-1.34,2.979-1.338
			c1.191,0,2.262,0.518,2.99,1.338c0.631,0.709,1.01,1.641,1.01,2.66C35.998,61.211,34.209,63,31.998,63z"/>
	</g>
	<g>
		<path fill="#94C1FF" d="M34.998,56.33l-0.01,0.01c-0.729-0.82-1.799-1.338-2.99-1.338C30.809,55,29.738,55.52,29.02,56.34
			C26.648,55.221,25,52.799,24.998,50C25,49.889,25,49.779,25.01,49.67c4.589,1.82,9.59,1.73,13.979-0.01l-0.001,0.012
			c0.01,0.107,0.01,0.219,0.011,0.328C38.998,52.791,37.359,55.201,34.998,56.33z"/>
	</g>
	<g>
		<path fill="#D7E9FF" d="M51.59,46.75c-0.352-1.049-0.271-2.23,0.329-3.25c0.59-1.029,1.581-1.701,2.66-1.91
			c0.92-0.199,1.919-0.059,2.8,0.451c1.921,1.098,2.57,3.549,1.471,5.459c-1.109,1.91-3.549,2.57-5.471,1.461
			C52.499,48.449,51.879,47.65,51.59,46.75z"/>
	</g>
	<g>
		<path fill="#94C1FF" d="M43.799,46.881c1.829-1.43,3.42-3.242,4.65-5.381c1.24-2.139,2.01-4.41,2.351-6.721
			c0.099,0.053,0.19,0.102,0.29,0.16c2.42,1.391,3.688,4.02,3.479,6.619l0.01,0.031c-1.079,0.209-2.07,0.881-2.66,1.91
			c-0.6,1.02-0.681,2.201-0.329,3.25c-2.16,1.5-5.079,1.709-7.5,0.309c-0.102-0.049-0.189-0.109-0.28-0.17L43.799,46.881z"/>
	</g>
	<g>
		<path fill="#94C1FF" d="M50.789,29.221c-0.689-4.67-3.109-9.039-6.98-12.109c0.09-0.061,0.181-0.121,0.281-0.172
			c2.42-1.398,5.318-1.189,7.479,0.303l0.021,0.008c-0.351,1.049-0.271,2.23,0.33,3.25c0.59,1.02,1.568,1.689,2.641,1.91
			c0.219,2.621-1.051,5.25-3.471,6.65c-0.101,0.059-0.191,0.109-0.289,0.16H50.789z"/>
	</g>
	<g>
		<path fill="#D7E9FF" d="M51.92,20.5c-0.602-1.02-0.681-2.201-0.33-3.25c0.289-0.9,0.908-1.701,1.789-2.211
			c1.92-1.109,4.36-0.451,5.471,1.461c1.1,1.91,0.438,4.359-1.471,5.459c-0.891,0.521-1.89,0.652-2.818,0.451
			C53.488,22.189,52.51,21.52,51.92,20.5z"/>
	</g>
	<g>
		<path fill="#94C1FF" d="M24.999,14c0.001-2.791,1.63-5.201,3.999-6.33l0.012-0.01C29.738,8.48,30.81,9,31.998,9
			c1.191,0,2.262-0.52,2.981-1.34c2.37,1.119,4.02,3.539,4.019,6.34c0.001,0.109,0.001,0.219-0.01,0.33
			c-4.589-1.82-9.589-1.73-13.979,0.01l0.001-0.01C24.998,14.219,24.998,14.111,24.999,14z"/>
	</g>
	<g>
		<path fill="#D7E9FF" d="M29.01,7.66C28.379,6.951,27.998,6.02,27.999,5c0-2.211,1.79-4,3.999-3.998C34.208,1,36,2.791,35.999,5
			c0,1.02-0.381,1.949-1.02,2.66C34.26,8.48,33.189,9,31.998,9C30.81,9,29.738,8.48,29.01,7.66z"/>
	</g>
	<g>
		<path fill="#94C1FF" d="M20.199,17.121c-1.83,1.428-3.42,3.238-4.66,5.377c-1.23,2.143-2,4.422-2.34,6.721
			c-0.1-0.049-0.189-0.1-0.291-0.16c-2.42-1.387-3.688-4.018-3.479-6.619l-0.01-0.029c1.08-0.211,2.07-0.881,2.661-1.91
			c0.6-1.02,0.68-2.201,0.328-3.25c2.161-1.5,5.08-1.711,7.501-0.309c0.101,0.049,0.189,0.109,0.28,0.168L20.199,17.121z"/>
	</g>
	<g>
		<path fill="#D7E9FF" d="M6.619,21.959c-1.92-1.1-2.569-3.549-1.471-5.459c1.111-1.91,3.551-2.57,5.471-1.461
			c0.881,0.51,1.5,1.311,1.789,2.211c0.352,1.049,0.271,2.23-0.328,3.25c-0.591,1.029-1.581,1.699-2.661,1.91
			C8.498,22.609,7.499,22.471,6.619,21.959z"/>
	</g>
	<g>
		<path fill="#D7E9FF" d="M5.149,47.5c-1.101-1.91-0.45-4.359,1.47-5.461c0.891-0.52,1.889-0.648,2.819-0.449
			c1.071,0.221,2.05,0.893,2.641,1.908c0.601,1.021,0.68,2.201,0.33,3.252c-0.29,0.902-0.911,1.699-1.791,2.209
			C8.699,50.07,6.26,49.41,5.149,47.5z"/>
	</g>
	<g>
		<path fill="#94C1FF" d="M12.409,46.75c0.35-1.051,0.271-2.23-0.33-3.252c-0.591-1.016-1.569-1.688-2.641-1.908
			c-0.22-2.621,1.05-5.25,3.47-6.648c0.102-0.063,0.191-0.111,0.291-0.16l0.021-0.002c0.679,4.672,3.099,9.041,6.969,12.109
			c-0.09,0.061-0.18,0.119-0.281,0.172c-2.418,1.398-5.318,1.189-7.479-0.301L12.409,46.75z"/>
	</g>
	<g>
		<path fill="#D7E9FF" d="M50.8,34.779c-0.341,2.311-1.11,4.582-2.351,6.721c-1.23,2.139-2.821,3.951-4.65,5.381
			c-1.471,1.168-3.09,2.102-4.81,2.779c-4.39,1.74-9.391,1.83-13.979,0.01c-0.851-0.34-1.69-0.742-2.512-1.209
			c-0.818-0.471-1.59-1.002-2.309-1.572c-3.87-3.068-6.29-7.438-6.969-12.109c-0.291-1.83-0.291-3.699-0.021-5.561
			c0.34-2.299,1.109-4.578,2.34-6.721c1.24-2.139,2.83-3.949,4.66-5.377c1.469-1.18,3.09-2.111,4.81-2.781
			c4.391-1.74,9.391-1.83,13.979-0.01c0.852,0.34,1.691,0.74,2.511,1.209s1.591,1.002,2.31,1.572
			c3.871,3.07,6.291,7.439,6.98,12.109C51.059,31.049,51.069,32.93,50.8,34.779z"/>
	</g>
	<g>
		<path fill="#94C1FF" d="M50.78,29.221c-0.68-4.67-3.1-9.039-6.97-12.109c-0.72-0.57-1.49-1.1-2.31-1.57
			c-0.82-0.469-1.66-0.869-2.511-1.209c-2.919-1.158-6.003-1.537-8.991-1.217c1.685,0.178,3.364,0.57,4.991,1.217
			c0.851,0.34,1.69,0.74,2.511,1.209c0.819,0.471,1.59,1,2.31,1.57c3.87,3.07,6.29,7.439,6.97,12.109
			c0.29,1.83,0.29,3.701,0.021,5.561c-0.34,2.301-1.11,4.58-2.34,6.721c-1.24,2.139-2.83,3.949-4.66,5.379
			c-1.47,1.18-3.09,2.111-4.811,2.781c-1.598,0.633-3.277,1.041-4.988,1.225c3.067,0.322,6.154-0.102,8.988-1.225
			c1.721-0.67,3.341-1.602,4.811-2.781c1.83-1.43,3.42-3.24,4.66-5.379c1.229-2.141,2-4.42,2.34-6.721
			C51.07,32.922,51.07,31.051,50.78,29.221z"/>
	</g>
	<g>
		<g>
			<path fill="#116FFF" d="M32,10c-2.757,0-5-2.243-5-5s2.243-5,5-5s5,2.243,5,5S34.757,10,32,10z M32,2c-1.654,0-3,1.346-3,3
				s1.346,3,3,3s3-1.346,3-3S33.654,2,32,2z"/>
		</g>
		<g>
			<path fill="#116FFF" d="M38.993,15.329c-0.019,0-0.036,0-0.055-0.001c-0.552-0.03-0.975-0.501-0.945-1.053
				C37.998,14.184,38,14.093,38,14c0-2.313-1.354-4.445-3.448-5.431c-0.5-0.235-0.714-0.831-0.479-1.331
				c0.236-0.5,0.83-0.714,1.331-0.479C38.195,8.073,40,10.916,40,14c0,0.128-0.002,0.256-0.009,0.383
				C39.962,14.916,39.521,15.329,38.993,15.329z"/>
		</g>
		<g>
			<path fill="#116FFF" d="M25.006,15.329c-0.531,0-0.974-0.419-0.998-0.955C24.002,14.249,24,14.125,24,14
				c0-3.073,1.794-5.911,4.571-7.229c0.5-0.235,1.096-0.024,1.332,0.475c0.237,0.499,0.024,1.095-0.475,1.332
				C27.346,9.566,26,11.694,26,14c0,0.096,0.002,0.19,0.006,0.284c0.024,0.552-0.402,1.02-0.954,1.044
				C25.036,15.329,25.021,15.329,25.006,15.329z"/>
		</g>
		<g>
			<path fill="#116FFF" d="M32,64c-2.757,0-5-2.243-5-5s2.243-5,5-5s5,2.243,5,5S34.757,64,32,64z M32,56c-1.654,0-3,1.346-3,3
				s1.346,3,3,3s3-1.346,3-3S33.654,56,32,56z"/>
		</g>
		<g>
			<path fill="#116FFF" d="M29.021,57.336c-0.143,0-0.287-0.03-0.425-0.095C25.805,55.927,24,53.084,24,50
				c0-0.128,0.002-0.256,0.009-0.383c0.03-0.552,0.504-0.977,1.053-0.945c0.552,0.03,0.975,0.501,0.945,1.053
				C26.002,49.816,26,49.907,26,50c0,2.313,1.354,4.445,3.448,5.431c0.5,0.235,0.714,0.831,0.479,1.331
				C29.757,57.124,29.397,57.336,29.021,57.336z"/>
		</g>
		<g>
			<path fill="#116FFF" d="M35.001,57.326c-0.374,0-0.733-0.211-0.904-0.571c-0.237-0.499-0.024-1.095,0.475-1.332
				C36.654,54.434,38,52.306,38,50c0-0.096-0.002-0.19-0.006-0.284c-0.024-0.552,0.402-1.02,0.954-1.044
				c0.536-0.029,1.019,0.402,1.044,0.954C39.998,49.751,40,49.875,40,50c0,3.073-1.794,5.911-4.571,7.229
				C35.29,57.295,35.145,57.326,35.001,57.326z"/>
		</g>
		<g>
			<path fill="#116FFF" d="M31.978,52.002c-3.49,0-6.94-0.928-9.978-2.681c-4.624-2.67-7.933-6.983-9.316-12.146
				C11.301,32.014,12.009,26.624,14.679,22c3.562-6.169,10.208-10.002,17.344-10.002c3.49,0,6.94,0.928,9.978,2.681
				c4.624,2.67,7.933,6.983,9.316,12.146c1.383,5.162,0.675,10.552-1.995,15.176C45.76,48.169,39.113,52.002,31.978,52.002z
				 M32.022,13.998c-6.424,0-12.406,3.449-15.611,9.002c-2.403,4.161-3.04,9.012-1.796,13.658c1.245,4.646,4.223,8.528,8.385,10.931
				c2.733,1.578,5.838,2.413,8.978,2.413c6.424,0,12.406-3.449,15.611-9.002c2.403-4.161,3.04-9.012,1.796-13.658
				C48.14,22.695,45.162,18.813,41,16.411C38.267,14.833,35.162,13.998,32.022,13.998z"/>
		</g>
		<g>
			<path fill="#116FFF" d="M8.612,23.501c-0.872,0-1.735-0.231-2.495-0.67c-2.388-1.38-3.208-4.444-1.83-6.831
				c0.891-1.542,2.551-2.5,4.334-2.5c0.873,0,1.736,0.231,2.496,0.67c2.387,1.378,3.208,4.442,1.831,6.83
				C12.057,22.543,10.396,23.501,8.612,23.501z M8.621,15.5c-1.07,0-2.067,0.574-2.602,1.5c-0.827,1.433-0.335,3.271,1.098,4.099
				c0.456,0.263,0.973,0.402,1.495,0.402c1.071,0,2.069-0.575,2.604-1.501c0.826-1.433,0.334-3.271-1.099-4.098
				C9.661,15.639,9.144,15.5,8.621,15.5z"/>
		</g>
		<g>
			<path fill="#116FFF" d="M12.414,18.254c-0.316,0-0.628-0.149-0.822-0.43c-0.315-0.453-0.203-1.076,0.251-1.392
				c2.534-1.761,5.897-1.902,8.569-0.361c0.115,0.067,0.225,0.133,0.332,0.203c0.461,0.305,0.588,0.925,0.284,1.386
				c-0.304,0.46-0.924,0.587-1.386,0.284c-0.076-0.051-0.154-0.097-0.233-0.143c-2.003-1.155-4.523-1.048-6.426,0.273
				C12.81,18.196,12.611,18.254,12.414,18.254z"/>
		</g>
		<g>
			<path fill="#116FFF" d="M13.199,30.221c-0.156,0-0.315-0.037-0.464-0.114c-0.107-0.057-0.213-0.115-0.319-0.176
				c-2.666-1.539-4.227-4.512-3.979-7.576c0.045-0.55,0.512-0.949,1.078-0.916c0.55,0.045,0.96,0.527,0.916,1.078
				c-0.187,2.298,0.984,4.527,2.981,5.68c0.081,0.047,0.167,0.094,0.253,0.139c0.489,0.257,0.678,0.861,0.421,1.351
				C13.906,30.026,13.559,30.221,13.199,30.221z"/>
		</g>
		<g>
			<path fill="#116FFF" d="M55.378,50.501c-0.872,0-1.735-0.231-2.495-0.67c-2.387-1.379-3.208-4.443-1.831-6.831
				c0.892-1.542,2.553-2.5,4.335-2.5c0.873,0,1.736,0.231,2.496,0.67c2.388,1.379,3.208,4.442,1.83,6.83
				C58.822,49.543,57.161,50.501,55.378,50.501z M55.387,42.5c-1.07,0-2.068,0.574-2.603,1.5c-0.826,1.433-0.333,3.271,1.099,4.099
				c0.456,0.263,0.973,0.402,1.495,0.402c1.071,0,2.068-0.575,2.603-1.501c0.827-1.433,0.335-3.271-1.098-4.098
				C56.427,42.639,55.909,42.5,55.387,42.5z"/>
		</g>
		<g>
			<path fill="#116FFF" d="M47.584,48.994c-1.38,0-2.762-0.354-3.996-1.065c-0.116-0.068-0.225-0.133-0.331-0.203
				c-0.461-0.305-0.588-0.925-0.284-1.386c0.305-0.461,0.924-0.587,1.386-0.284c0.077,0.051,0.156,0.098,0.236,0.145
				c1.996,1.153,4.521,1.047,6.421-0.275c0.455-0.315,1.077-0.204,1.393,0.25s0.203,1.077-0.25,1.393
				C50.794,48.515,49.19,48.994,47.584,48.994z"/>
		</g>
		<g>
			<path fill="#116FFF" d="M54.567,42.564c-0.027,0-0.054-0.001-0.082-0.003c-0.55-0.045-0.96-0.527-0.916-1.078
				c0.187-2.298-0.984-4.527-2.981-5.68c-0.083-0.048-0.167-0.095-0.252-0.139c-0.489-0.257-0.678-0.861-0.421-1.351
				c0.258-0.489,0.861-0.674,1.351-0.421c0.108,0.058,0.216,0.116,0.322,0.178c2.662,1.537,4.223,4.51,3.976,7.574
				C55.521,42.168,55.083,42.564,54.567,42.564z"/>
		</g>
		<g>
			<path fill="#116FFF" d="M8.622,50.501c-1.783,0-3.444-0.958-4.335-2.501c-1.378-2.387-0.558-5.451,1.83-6.83
				c0.76-0.438,1.623-0.67,2.496-0.67c1.782,0,3.443,0.958,4.335,2.499c1.376,2.389,0.556,5.452-1.829,6.832
				C10.357,50.27,9.495,50.501,8.622,50.501z M8.613,42.5c-0.522,0-1.04,0.139-1.496,0.402C5.685,43.729,5.192,45.567,6.02,47
				c0.534,0.926,1.531,1.501,2.603,1.501c0.522,0,1.04-0.14,1.497-0.402c1.43-0.827,1.923-2.666,1.097-4.1
				C10.681,43.075,9.684,42.5,8.613,42.5z"/>
		</g>
		<g>
			<path fill="#116FFF" d="M9.435,42.59c-0.515,0-0.952-0.395-0.995-0.917c-0.258-3.076,1.302-6.06,3.973-7.602
				c0.129-0.073,0.235-0.134,0.346-0.188c0.495-0.245,1.094-0.041,1.34,0.453c0.245,0.495,0.042,1.095-0.453,1.34
				c-0.074,0.036-0.146,0.078-0.218,0.119c-2.018,1.165-3.188,3.403-2.995,5.712c0.047,0.55-0.362,1.033-0.913,1.079
				C9.49,42.589,9.462,42.59,9.435,42.59z"/>
		</g>
		<g>
			<path fill="#116FFF" d="M16.412,48.993c-1.598,0-3.19-0.474-4.547-1.409c-0.454-0.314-0.568-0.937-0.255-1.392
				c0.313-0.456,0.936-0.567,1.392-0.255c1.896,1.311,4.413,1.411,6.41,0.259l0.25-0.151c0.467-0.294,1.084-0.152,1.378,0.315
				s0.152,1.085-0.315,1.378l-0.303,0.185C19.182,48.639,17.795,48.993,16.412,48.993z"/>
		</g>
		<g>
			<path fill="#116FFF" d="M55.388,23.501c-1.782,0-3.444-0.958-4.336-2.5c-1.377-2.39-0.556-5.453,1.831-6.831
				c0.76-0.438,1.623-0.67,2.496-0.67c1.783,0,3.443,0.958,4.334,2.5c1.378,2.387,0.558,5.451-1.83,6.831
				C57.123,23.269,56.261,23.501,55.388,23.501z M55.379,15.5c-0.522,0-1.04,0.139-1.496,0.402
				c-1.432,0.826-1.925,2.665-1.099,4.099c0.535,0.925,1.532,1.5,2.604,1.5c0.522,0,1.04-0.14,1.495-0.402
				c1.433-0.827,1.925-2.666,1.098-4.099C57.446,16.074,56.449,15.5,55.379,15.5z"/>
		</g>
		<g>
			<path fill="#116FFF" d="M50.8,30.22c-0.367,0-0.72-0.202-0.896-0.553c-0.247-0.494-0.047-1.095,0.447-1.342
				c0.081-0.041,0.159-0.084,0.236-0.129c2.004-1.156,3.174-3.396,2.98-5.702c-0.047-0.551,0.362-1.034,0.912-1.08
				c0.548-0.056,1.035,0.362,1.08,0.912c0.259,3.076-1.301,6.06-3.973,7.603c-0.112,0.064-0.224,0.127-0.342,0.186
				C51.103,30.186,50.95,30.22,50.8,30.22z"/>
		</g>
		<g>
			<path fill="#116FFF" d="M51.565,18.239c-0.196,0-0.394-0.058-0.567-0.177c-1.896-1.311-4.413-1.411-6.41-0.259
				c-0.083,0.048-0.165,0.098-0.246,0.149c-0.468,0.295-1.084,0.155-1.38-0.312c-0.295-0.467-0.155-1.085,0.312-1.38
				c0.104-0.065,0.208-0.129,0.314-0.19c2.663-1.536,6.018-1.4,8.547,0.345c0.454,0.314,0.568,0.937,0.255,1.392
				C52.195,18.089,51.883,18.239,51.565,18.239z"/>
		</g>
		<g>
			<path fill="#116FFF" d="M32,40c-0.553,0-1-0.447-1-1c0-3.515,2.082-5.002,3.919-6.313C36.641,31.457,38,30.485,38,28
				c0-3.309-2.691-6-6-6s-6,2.691-6,6c0,0.553-0.447,1-1,1s-1-0.447-1-1c0-4.411,3.589-8,8-8s8,3.589,8,8
				c0,3.515-2.082,5.002-3.919,6.313C34.359,35.543,33,36.515,33,39C33,39.553,32.553,40,32,40z"/>
		</g>
		<g>
			<path fill="#116FFF" d="M32.03,45c-0.553,0-1.005-0.447-1.005-1s0.442-1,0.994-1h0.011c0.552,0,1,0.447,1,1S32.582,45,32.03,45z"
				/>
		</g>
	</g>
</g>
<g id="_x32_8_strategy_x2C__vision_x2C__eye_x2C__chess_x2C__business_x2C__office_x2C__corporation">
</g>
<g id="_x32_7_board_x2C__task_x2C__process_x2C__business_x2C__office_x2C__corporation_x2C__job">
</g>
<g id="_x32_6_scheme_x2C__board_x2C__structure_x2C__business_x2C__office_x2C__corporation_x2C__job">
</g>
<g id="_x32_5_conflict_x2C__dialog_x2C__discussion_x2C__business_x2C__office_x2C__corporation_x2C__job">
</g>
<g id="_x32_4_documentation_x2C__document_x2C__repository_x2C__business_x2C__office_x2C__corporation_x2C__job">
</g>
<g id="_x32_3_sprint_x2C__programming_x2C__code_x2C__business_x2C__office_x2C__corporation_x2C__job">
</g>
<g id="_x32_2_cram_x2C__tablet_x2C__work_x2C__business_x2C__office_x2C__corporation_x2C__job">
</g>
<g id="_x32_1_leader_x2C__discoverer_x2C__flag_x2C__business_x2C__office_x2C__corporation_x2C__job">
</g>
<g id="_x32_0_rally_x2C__collective_x2C__arm_x2C__business_x2C__office_x2C__corporation_x2C__job">
</g>
<g id="_x31_9_consolidation_x2C__portfolio_x2C__puzzle_x2C__business_x2C__office_x2C__corporation_x2C__job">
</g>
<g id="_x31_8_idea_x2C__creative_x2C__work_x2C__business_x2C__office_x2C__corporation_x2C__job">
</g>
<g id="_x31_7_problem_x2C__stress_x2C__resistance_x2C__business_x2C__office_x2C__corporation_x2C__job">
</g>
<g id="_x31_6_hard_x2C__skills_x2C__skill_x2C__portfolio_x2C__book_x2C__business_x2C__office">
</g>
<g id="_x31_5_time_x2C__management_x2C__clock_x2C__deadline_x2C__business_x2C__office_x2C__corporation">
</g>
<g id="_x31_4_multitasking_x2C__task_x2C__work_x2C__business_x2C__office_x2C__corporation_x2C__job">
</g>
<g id="_x31_3_tranquility_x2C__yoga_x2C__lotus_x2C__posture_x2C__business_x2C__office_x2C__corporation">
</g>
<g id="_x31_2_corporate_x2C__party_x2C__business_x2C__office_x2C__corporation_x2C__job">
</g>
<g id="_x31_1_dialog_x2C__discussion_x2C__work_x2C__business_x2C__office_x2C__corporation_x2C__job">
</g>
<g id="_x31_0_listening_x2C__skill_x2C__dialog_x2C__business_x2C__office_x2C__corporation_x2C__job">
</g>
<g id="_x39__training_x2C__book_x2C__lesson_x2C__business_x2C__office_x2C__corporation_x2C__job">
</g>
<g id="_x38__dress_x2C__code_x2C__shirt_x2C__business_x2C__office_x2C__corporation_x2C__job">
</g>
<g id="_x37__task_x2C__program_x2C__ticket_x2C__business_x2C__office_x2C__corporation_x2C__job">
</g>
<g id="_x36__plan_x2C__graph_x2C__stage_x2C__business_x2C__office_x2C__corporation_x2C__job">
</g>
<g id="_x35__boss_x2C__king_x2C__crown_x2C__business_x2C__office_x2C__corporation_x2C__job">
</g>
<g id="_x34__structure_x2C__structuring_x2C__business_x2C__office_x2C__corporation_x2C__job">
</g>
<g id="_x33__soft_x2C__skills_x2C__communication_x2C__business_x2C__office_x2C__corporation_x2C__job">
</g>
<g id="_x32__office_x2C__house_x2C__portfolio_x2C__business_x2C__corporation_x2C__job">
</g>
<g id="_x31__corporate_x2C__rules_x2C__book_x2C__business_x2C__office_x2C__corporation_x2C__job">
</g>
</svg>
