<?xml version="1.0" encoding="utf-8"?>
<!-- Generator: Adobe Illustrator 16.0.0, SVG Export Plug-In . SVG Version: 6.00 Build 0)  -->
<!DOCTYPE svg PUBLIC "-//W3C//DTD SVG 1.1//EN" "http://www.w3.org/Graphics/SVG/1.1/DTD/svg11.dtd">
<svg version="1.1" xmlns="http://www.w3.org/2000/svg" xmlns:xlink="http://www.w3.org/1999/xlink" x="0px" y="0px" width="64px"
	 height="64px" viewBox="0 0 64 64" enable-background="new 0 0 64 64" xml:space="preserve">
<g id="_x35_0_document_x2C__optimization_x2C__documentation_x2C__business_x2C__office_x2C__corporation_x2C__job">
</g>
<g id="_x34_9_human_x2C__resource_x2C__conveyor_x2C__business_x2C__office_x2C__corporation_x2C__job">
</g>
<g id="_x34_8_knowledge_x2C__training_x2C__growth_x2C__book_x2C__business_x2C__office_x2C__corporation">
</g>
<g id="_x34_7_skill_x2C__competence_x2C__experience_x2C__business_x2C__office_x2C__corporation_x2C__job">
</g>
<g id="_x34_6_target_x2C__success_x2C__victory_x2C__business_x2C__office_x2C__corporation_x2C__job">
</g>
<g id="_x34_5_inbox_x2C__letter_x2C__email_x2C__business_x2C__office_x2C__corporation_x2C__job">
</g>
<g id="_x34_4_document_x2C__workflow_x2C__sharing_x2C__business_x2C__office_x2C__corporation_x2C__job">
</g>
<g id="_x34_3_budget_x2C__allocation_x2C__money_x2C__business_x2C__office_x2C__corporation_x2C__job">
</g>
<g id="_x34_2_case_x2C__task_x2C__project_x2C__business_x2C__office_x2C__corporation_x2C__job">
</g>
<g id="_x34_1_structure_x2C__structuring_x2C__tasks_x2C__business_x2C__office_x2C__corporation_x2C__job">
</g>
<g id="_x34_0_choice_x2C__dilemma_x2C__question_x2C__business_x2C__office_x2C__corporation_x2C__job">
</g>
<g id="_x33_9_workplace_x2C__table_x2C__laptop_x2C__business_x2C__office_x2C__corporation_x2C__job">
</g>
<g id="_x33_8_bribe_x2C__bag_x2C__money_x2C__business_x2C__office_x2C__corporation_x2C__job">
</g>
<g id="_x33_7_corruption_x2C__forage_x2C__money_x2C__business_x2C__office_x2C__corporation_x2C__job">
</g>
<g id="_x33_6_career_x2C__ladder_x2C__success_x2C__business_x2C__office_x2C__corporation_x2C__job">
	<g>
		<path fill="#D7E9FF" d="M49.24,14.01C46.23,7.51,39.64,3,32,3c-9.81,0-17.89,7.45-18.89,17H13.1H12C5.92,20,1,24.92,1,31
			s4.92,11,11,11h10h20h2.19H49c7.73,0,14-6.27,14-14C63,20.35,56.86,14.14,49.24,14.01z"/>
	</g>
	<g>
		<g>
			<path fill="#94C1FF" d="M49.24,14.01C46.23,7.51,39.64,3,32,3c-6.256,0-11.799,3.038-15.261,7.711C19.892,8.383,23.784,7,28,7
				c7.64,0,14.23,4.51,17.24,11.01C52.86,18.14,59,24.35,59,32c0,2.842-0.853,5.482-2.309,7.691C60.489,37.188,63,32.889,63,28
				C63,20.35,56.86,14.14,49.24,14.01z"/>
		</g>
	</g>
	<g>
		<path fill="#FFFFFF" d="M40,19c0,4.41-3.59,8-8,8s-8-3.59-8-8s3.59-8,8-8S40,14.59,40,19z"/>
	</g>
	<g>
		<path fill="#D7E9FF" d="M40,23c0,4.41-3.59,8-8,8s-8-3.59-8-8v-4c0,4.41,3.59,8,8,8s8-3.59,8-8V23z"/>
	</g>
	<g>
		<g>
			<g>
				<path fill="#116FFF" d="M12,43C5.383,43,0,37.617,0,31s5.383-12,12-12c0.553,0,1,0.447,1,1s-0.447,1-1,1C6.486,21,2,25.486,2,31
					s4.486,10,10,10c0.553,0,1,0.447,1,1S12.553,43,12,43z"/>
			</g>
			<g>
				<path fill="#116FFF" d="M49,43c-0.553,0-1-0.447-1-1s0.447-1,1-1c7.168,0,13-5.832,13-13c0-7.052-5.739-12.878-12.794-12.989
					c-0.553-0.009-0.993-0.464-0.984-1.016s0.467-1.03,1.016-0.984C57.378,13.139,64,19.863,64,28C64,36.271,57.271,43,49,43z"/>
			</g>
			<g>
				<path fill="#116FFF" d="M21.999,43H12c-0.553,0-1-0.447-1-1s0.447-1,1-1h9.999c0.553,0,1,0.447,1,1S22.552,43,21.999,43z"/>
			</g>
			<g>
				<path fill="#116FFF" d="M49,43h-6.999c-0.553,0-1-0.447-1-1s0.447-1,1-1H49c0.553,0,1,0.447,1,1S49.553,43,49,43z"/>
			</g>
			<g>
				<path fill="#116FFF" d="M51,23c-0.553,0-1-0.447-1-1c0-1.285-0.136-2.566-0.403-3.807C47.827,9.969,40.427,4,32,4
					c-9.925,0-18,8.075-18,18c0,0.553-0.447,1-1,1s-1-0.447-1-1c0-11.028,8.972-20,20-20c9.362,0,17.585,6.633,19.552,15.772
					C51.85,19.15,52,20.573,52,22C52,22.553,51.553,23,51,23z"/>
			</g>
			<g>
				<path fill="#116FFF" d="M13.104,21H12c-0.553,0-1-0.447-1-1s0.447-1,1-1h1.104c0.553,0,1,0.447,1,1S13.657,21,13.104,21z"/>
			</g>
		</g>
		<g>
			<path fill="#116FFF" d="M22,62c-0.553,0-1-0.447-1-1V33c0-0.553,0.447-1,1-1s1,0.447,1,1v28C23,61.553,22.553,62,22,62z"/>
		</g>
		<g>
			<path fill="#116FFF" d="M42,62c-0.553,0-1-0.447-1-1V33c0-0.553,0.447-1,1-1s1,0.447,1,1v28C43,61.553,42.553,62,42,62z"/>
		</g>
		<g>
			<path fill="#116FFF" d="M42.001,38H21.999c-0.553,0-1-0.447-1-1s0.447-1,1-1h20.002c0.553,0,1,0.447,1,1S42.554,38,42.001,38z"/>
		</g>
		<g>
			<path fill="#116FFF" d="M42.001,48H21.999c-0.553,0-1-0.447-1-1s0.447-1,1-1h20.002c0.553,0,1,0.447,1,1S42.554,48,42.001,48z"/>
		</g>
		<g>
			<path fill="#116FFF" d="M42.001,58H21.999c-0.553,0-1-0.447-1-1s0.447-1,1-1h20.002c0.553,0,1,0.447,1,1S42.554,58,42.001,58z"/>
		</g>
		<g>
			<path fill="#116FFF" d="M32,28c-4.963,0-9-4.037-9-9s4.037-9,9-9s9,4.037,9,9S36.963,28,32,28z M32,12c-3.859,0-7,3.141-7,7
				s3.141,7,7,7s7-3.141,7-7S35.859,12,32,12z"/>
		</g>
		<g>
			<path fill="#116FFF" d="M32,32c-4.963,0-9-4.037-9-9c0-0.553,0.447-1,1-1s1,0.447,1,1c0,3.859,3.141,7,7,7s7-3.141,7-7
				c0-0.553,0.447-1,1-1s1,0.447,1,1C41,27.963,36.963,32,32,32z"/>
		</g>
		<g>
			<path fill="#116FFF" d="M24,24c-0.553,0-1-0.447-1-1v-4c0-0.553,0.447-1,1-1s1,0.447,1,1v4C25,23.553,24.553,24,24,24z"/>
		</g>
		<g>
			<path fill="#116FFF" d="M40,24c-0.553,0-1-0.447-1-1v-4c0-0.553,0.447-1,1-1s1,0.447,1,1v4C41,23.553,40.553,24,40,24z"/>
		</g>
		<g>
			<path fill="#116FFF" d="M32,22c-0.553,0-1-0.447-1-1v-4c0-0.553,0.447-1,1-1s1,0.447,1,1v4C33,21.553,32.553,22,32,22z"/>
		</g>
	</g>
</g>
<g id="_x33_5_review_x2C__feedback_x2C__rating_x2C__business_x2C__office_x2C__corporation_x2C__job">
</g>
<g id="_x33_4_manipulation_x2C__thread_x2C__puppet_x2C__business_x2C__office_x2C__corporation_x2C__job">
</g>
<g id="_x33_3_location_x2C__map_x2C__pin_x2C__business_x2C__office_x2C__corporation_x2C__job">
</g>
<g id="_x33_2_retirement_x2C__old_x2C__man_x2C__door_x2C__business_x2C__office_x2C__corporation">
</g>
<g id="_x33_1_victory_x2C__success_x2C__medal_x2C__reward_x2C__business_x2C__office_x2C__corporation">
</g>
<g id="_x33_0_dismissal_x2C__box_x2C__door_x2C__business_x2C__office_x2C__corporation_x2C__job">
</g>
<g id="_x32_9_meeting_x2C__discussion_x2C__question_x2C__business_x2C__office_x2C__corporation_x2C__job">
</g>
<g id="_x32_8_strategy_x2C__vision_x2C__eye_x2C__chess_x2C__business_x2C__office_x2C__corporation">
</g>
<g id="_x32_7_board_x2C__task_x2C__process_x2C__business_x2C__office_x2C__corporation_x2C__job">
</g>
<g id="_x32_6_scheme_x2C__board_x2C__structure_x2C__business_x2C__office_x2C__corporation_x2C__job">
</g>
<g id="_x32_5_conflict_x2C__dialog_x2C__discussion_x2C__business_x2C__office_x2C__corporation_x2C__job">
</g>
<g id="_x32_4_documentation_x2C__document_x2C__repository_x2C__business_x2C__office_x2C__corporation_x2C__job">
</g>
<g id="_x32_3_sprint_x2C__programming_x2C__code_x2C__business_x2C__office_x2C__corporation_x2C__job">
</g>
<g id="_x32_2_cram_x2C__tablet_x2C__work_x2C__business_x2C__office_x2C__corporation_x2C__job">
</g>
<g id="_x32_1_leader_x2C__discoverer_x2C__flag_x2C__business_x2C__office_x2C__corporation_x2C__job">
</g>
<g id="_x32_0_rally_x2C__collective_x2C__arm_x2C__business_x2C__office_x2C__corporation_x2C__job">
</g>
<g id="_x31_9_consolidation_x2C__portfolio_x2C__puzzle_x2C__business_x2C__office_x2C__corporation_x2C__job">
</g>
<g id="_x31_8_idea_x2C__creative_x2C__work_x2C__business_x2C__office_x2C__corporation_x2C__job">
</g>
<g id="_x31_7_problem_x2C__stress_x2C__resistance_x2C__business_x2C__office_x2C__corporation_x2C__job">
</g>
<g id="_x31_6_hard_x2C__skills_x2C__skill_x2C__portfolio_x2C__book_x2C__business_x2C__office">
</g>
<g id="_x31_5_time_x2C__management_x2C__clock_x2C__deadline_x2C__business_x2C__office_x2C__corporation">
</g>
<g id="_x31_4_multitasking_x2C__task_x2C__work_x2C__business_x2C__office_x2C__corporation_x2C__job">
</g>
<g id="_x31_3_tranquility_x2C__yoga_x2C__lotus_x2C__posture_x2C__business_x2C__office_x2C__corporation">
</g>
<g id="_x31_2_corporate_x2C__party_x2C__business_x2C__office_x2C__corporation_x2C__job">
</g>
<g id="_x31_1_dialog_x2C__discussion_x2C__work_x2C__business_x2C__office_x2C__corporation_x2C__job">
</g>
<g id="_x31_0_listening_x2C__skill_x2C__dialog_x2C__business_x2C__office_x2C__corporation_x2C__job">
</g>
<g id="_x39__training_x2C__book_x2C__lesson_x2C__business_x2C__office_x2C__corporation_x2C__job">
</g>
<g id="_x38__dress_x2C__code_x2C__shirt_x2C__business_x2C__office_x2C__corporation_x2C__job">
</g>
<g id="_x37__task_x2C__program_x2C__ticket_x2C__business_x2C__office_x2C__corporation_x2C__job">
</g>
<g id="_x36__plan_x2C__graph_x2C__stage_x2C__business_x2C__office_x2C__corporation_x2C__job">
</g>
<g id="_x35__boss_x2C__king_x2C__crown_x2C__business_x2C__office_x2C__corporation_x2C__job">
</g>
<g id="_x34__structure_x2C__structuring_x2C__business_x2C__office_x2C__corporation_x2C__job">
</g>
<g id="_x33__soft_x2C__skills_x2C__communication_x2C__business_x2C__office_x2C__corporation_x2C__job">
</g>
<g id="_x32__office_x2C__house_x2C__portfolio_x2C__business_x2C__corporation_x2C__job">
</g>
<g id="_x31__corporate_x2C__rules_x2C__book_x2C__business_x2C__office_x2C__corporation_x2C__job">
</g>
</svg>
