<?xml version="1.0" encoding="utf-8"?>
<!-- Generator: Adobe Illustrator 16.0.0, SVG Export Plug-In . SVG Version: 6.00 Build 0)  -->
<!DOCTYPE svg PUBLIC "-//W3C//DTD SVG 1.1//EN" "http://www.w3.org/Graphics/SVG/1.1/DTD/svg11.dtd">
<svg version="1.1" xmlns="http://www.w3.org/2000/svg" xmlns:xlink="http://www.w3.org/1999/xlink" x="0px" y="0px" width="64px"
	 height="64px" viewBox="0 0 64 64" enable-background="new 0 0 64 64" xml:space="preserve">
<g id="_x35_0_document_x2C__optimization_x2C__documentation_x2C__business_x2C__office_x2C__corporation_x2C__job">
</g>
<g id="_x34_9_human_x2C__resource_x2C__conveyor_x2C__business_x2C__office_x2C__corporation_x2C__job">
</g>
<g id="_x34_8_knowledge_x2C__training_x2C__growth_x2C__book_x2C__business_x2C__office_x2C__corporation">
</g>
<g id="_x34_7_skill_x2C__competence_x2C__experience_x2C__business_x2C__office_x2C__corporation_x2C__job">
</g>
<g id="_x34_6_target_x2C__success_x2C__victory_x2C__business_x2C__office_x2C__corporation_x2C__job">
</g>
<g id="_x34_5_inbox_x2C__letter_x2C__email_x2C__business_x2C__office_x2C__corporation_x2C__job">
</g>
<g id="_x34_4_document_x2C__workflow_x2C__sharing_x2C__business_x2C__office_x2C__corporation_x2C__job">
</g>
<g id="_x34_3_budget_x2C__allocation_x2C__money_x2C__business_x2C__office_x2C__corporation_x2C__job">
</g>
<g id="_x34_2_case_x2C__task_x2C__project_x2C__business_x2C__office_x2C__corporation_x2C__job">
</g>
<g id="_x34_1_structure_x2C__structuring_x2C__tasks_x2C__business_x2C__office_x2C__corporation_x2C__job">
</g>
<g id="_x34_0_choice_x2C__dilemma_x2C__question_x2C__business_x2C__office_x2C__corporation_x2C__job">
</g>
<g id="_x33_9_workplace_x2C__table_x2C__laptop_x2C__business_x2C__office_x2C__corporation_x2C__job">
</g>
<g id="_x33_8_bribe_x2C__bag_x2C__money_x2C__business_x2C__office_x2C__corporation_x2C__job">
	<g>
		<path fill="#94C1FF" d="M29.42,30.84C35.06,34.93,39,40.44,39,47c0,8.83-7.16,16-16,16S7,55.83,7,47c0-6.56,3.94-11.91,9.58-16
			L29.42,30.84z"/>
	</g>
	<g>
		<g>
			<path fill="#5C9EFF" d="M29.42,30.84l-3.935,0.049C31.089,34.974,35,40.466,35,47c0,8.152-6.107,14.875-14,15.861
				C21.656,62.944,22.321,63,23,63c8.84,0,16-7.17,16-16C39,40.44,35.06,34.93,29.42,30.84z"/>
		</g>
	</g>
	<g>
		<path fill="#ED5565" d="M30,47c0-3.87-3.13-7-7-7s-7,3.13-7,7c0,3.851,3.13,7,7,7S30,50.851,30,47z"/>
	</g>
	<g>
		<path fill="#94C1FF" d="M28,6l-2,5h-6l-2-5c0,0,3-1,5,0S28,6,28,6z"/>
	</g>
	<g>
		<polygon fill="#FFFFFF" points="58,23 58,36 55,36 55,35 55,24 55,23 		"/>
	</g>
	<g>
		<path fill="#D7E9FF" d="M55,24v11h-7c-3.32,0-6-2.689-6-6V18.5v-15C42,2.11,43.12,1,44.5,1c1.21,0,2.21,0.851,2.45,1.99L52,23
			c0,0.55,0.45,1,1,1H55z"/>
	</g>
	<g>
		<path fill="#D7E9FF" d="M23,40c3.87,0,7,3.13,7,7c0,3.851-3.13,7-7,7s-7-3.149-7-7C16,43.13,19.13,40,23,40z"/>
	</g>
	<g>
		<path fill="#94C1FF" d="M23,40c-0.695,0-1.366,0.104-2,0.293c2.893,0.859,5,3.532,5,6.707c0,3.158-2.107,5.842-5,6.705
			C21.634,53.895,22.305,54,23,54c3.87,0,7-3.149,7-7C30,43.13,26.87,40,23,40z"/>
	</g>
	<g>
		<polygon fill="#FFFFFF" points="9,28 9,29 5,29 5,16 9,16 9,17 		"/>
	</g>
	<g>
		<path fill="#D7E9FF" d="M28.5,11c1.38,0,2.5,1.11,2.5,2.49s-1.12,2.5-2.5,2.5V16c1.38,0,2.5,1.11,2.5,2.49s-1.12,2.5-2.5,2.5V21
			c1.38,0,2.5,1.11,2.5,2.49s-1.12,2.5-2.5,2.5V26c1.38,0,2.5,1.11,2.5,2.49c0,1.08-0.68,2-1.64,2.35
			c-0.271,0.101-0.561,0.15-0.86,0.15V31H16.58H16l-5-3H9V17h2l6-6h3h6H28.5z"/>
	</g>
	<g>
		<rect x="1" y="14" fill="#94C1FF" width="4" height="17"/>
	</g>
	<g>
		<rect x="58" y="21" fill="#94C1FF" width="5" height="17"/>
	</g>
	<g>
		<g>
			<path fill="#116FFF" d="M42,4.5c-0.553,0-1-0.447-1-1C41,1.57,42.57,0,44.5,0c1.653,0,3.096,1.176,3.429,2.795
				c0.111,0.541-0.237,1.069-0.778,1.181c-0.541,0.11-1.069-0.236-1.181-0.778C45.827,2.504,45.209,2,44.5,2
				C43.673,2,43,2.673,43,3.5C43,4.053,42.553,4.5,42,4.5z"/>
		</g>
		<g>
			<path fill="#116FFF" d="M51.999,24c-0.447,0-0.854-0.302-0.969-0.755L45.979,3.241c-0.135-0.536,0.189-1.079,0.725-1.215
				c0.535-0.133,1.08,0.189,1.215,0.725l5.051,20.004c0.135,0.536-0.189,1.079-0.725,1.215C52.163,23.99,52.08,24,51.999,24z"/>
		</g>
		<g>
			<path fill="#116FFF" d="M53,25c-1.103,0-2-0.897-2-2c0-0.553,0.447-1,1-1s1,0.447,1,1v0.002c0.553,0,1,0.446,1,0.999
				C54,24.553,53.553,25,53,25z"/>
		</g>
		<g>
			<path fill="#116FFF" d="M42,30c-0.553,0-1-0.447-1-1V3.5c0-0.553,0.447-1,1-1s1,0.447,1,1V29C43,29.553,42.553,30,42,30z"/>
		</g>
		<g>
			<path fill="#116FFF" d="M48,36c-3.859,0-7-3.141-7-7c0-0.553,0.447-1,1-1s1,0.447,1,1c0,2.757,2.243,5,5,5c0.553,0,1,0.447,1,1
				S48.553,36,48,36z"/>
		</g>
		<g>
			<path fill="#116FFF" d="M55,36h-7c-0.553,0-1-0.447-1-1s0.447-1,1-1h7c0.553,0,1,0.447,1,1S55.553,36,55,36z"/>
		</g>
		<g>
			<path fill="#116FFF" d="M47,19.5c-0.553,0-1-0.447-1-1c0-0.827-0.673-1.5-1.5-1.5S43,17.673,43,18.5c0,0.553-0.447,1-1,1
				s-1-0.447-1-1c0-1.93,1.57-3.5,3.5-3.5s3.5,1.57,3.5,3.5C48,19.053,47.553,19.5,47,19.5z"/>
		</g>
		<g>
			<path fill="#116FFF" d="M28.501,16.998c-0.553,0-1-0.447-1-1s0.447-1,1-1c0.826,0,1.499-0.673,1.499-1.499S29.327,12,28.501,12
				c-0.553,0-1-0.447-1-1s0.447-1,1-1C30.431,10,32,11.569,32,13.499S30.431,16.998,28.501,16.998z"/>
		</g>
		<g>
			<path fill="#116FFF" d="M28.501,21.998c-0.553,0-1-0.447-1-1s0.447-1,1-1c0.826,0,1.499-0.673,1.499-1.499S29.327,17,28.501,17
				c-0.553,0-1-0.447-1-1s0.447-1,1-1C30.431,15,32,16.569,32,18.499S30.431,21.998,28.501,21.998z"/>
		</g>
		<g>
			<path fill="#116FFF" d="M28.501,26.998c-0.553,0-1-0.447-1-1s0.447-1,1-1c0.826,0,1.499-0.673,1.499-1.499S29.327,22,28.501,22
				c-0.553,0-1-0.447-1-1s0.447-1,1-1C30.431,20,32,21.569,32,23.499S30.431,26.998,28.501,26.998z"/>
		</g>
		<g>
			<path fill="#116FFF" d="M28.501,31.998c-0.553,0-1-0.447-1-1s0.447-1,1-1c0.826,0,1.499-0.673,1.499-1.499S29.327,27,28.501,27
				c-0.553,0-1-0.447-1-1s0.447-1,1-1C30.431,25,32,26.569,32,28.499S30.431,31.998,28.501,31.998z"/>
		</g>
		<g>
			<path fill="#116FFF" d="M47,26c-0.553,0-1-0.447-1-1v-6.5c0-0.553,0.447-1,1-1s1,0.447,1,1V25C48,25.553,47.553,26,47,26z"/>
		</g>
		<g>
			<path fill="#116FFF" d="M55,25h-2c-0.553,0-1-0.447-1-1s0.447-1,1-1h2c0.553,0,1,0.447,1,1S55.553,25,55,25z"/>
		</g>
		<g>
			<g>
				<path fill="#116FFF" d="M55,37c-0.553,0-1-0.447-1-1V23c0-0.553,0.447-1,1-1s1,0.447,1,1v13C56,36.553,55.553,37,55,37z"/>
			</g>
			<g>
				<path fill="#116FFF" d="M58,37h-3c-0.553,0-1-0.447-1-1s0.447-1,1-1h3c0.553,0,1,0.447,1,1S58.553,37,58,37z"/>
			</g>
			<g>
				<path fill="#116FFF" d="M58,24h-3c-0.553,0-1-0.447-1-1s0.447-1,1-1h3c0.553,0,1,0.447,1,1S58.553,24,58,24z"/>
			</g>
			<g>
				<path fill="#116FFF" d="M58,39c-0.553,0-1-0.447-1-1V21c0-0.553,0.447-1,1-1s1,0.447,1,1v17C59,38.553,58.553,39,58,39z"/>
			</g>
			<g>
				<path fill="#116FFF" d="M63,39h-5c-0.553,0-1-0.447-1-1s0.447-1,1-1h5c0.553,0,1,0.447,1,1S63.553,39,63,39z"/>
			</g>
			<g>
				<path fill="#116FFF" d="M63,22h-5c-0.553,0-1-0.447-1-1s0.447-1,1-1h5c0.553,0,1,0.447,1,1S63.553,22,63,22z"/>
			</g>
		</g>
		<g>
			<g>
				<path fill="#116FFF" d="M9,30c-0.553,0-1-0.447-1-1V16c0-0.553,0.447-1,1-1s1,0.447,1,1v13C10,29.553,9.553,30,9,30z"/>
			</g>
			<g>
				<path fill="#116FFF" d="M9,30H5c-0.553,0-1-0.447-1-1s0.447-1,1-1h4c0.553,0,1,0.447,1,1S9.553,30,9,30z"/>
			</g>
			<g>
				<path fill="#116FFF" d="M9,17H5c-0.553,0-1-0.447-1-1s0.447-1,1-1h4c0.553,0,1,0.447,1,1S9.553,17,9,17z"/>
			</g>
			<g>
				<path fill="#116FFF" d="M5,32c-0.553,0-1-0.447-1-1V14c0-0.553,0.447-1,1-1s1,0.447,1,1v17C6,31.553,5.553,32,5,32z"/>
			</g>
			<g>
				<path fill="#116FFF" d="M5,32H1c-0.553,0-1-0.447-1-1s0.447-1,1-1h4c0.553,0,1,0.447,1,1S5.553,32,5,32z"/>
			</g>
			<g>
				<path fill="#116FFF" d="M5,15H1c-0.553,0-1-0.447-1-1s0.447-1,1-1h4c0.553,0,1,0.447,1,1S5.553,15,5,15z"/>
			</g>
		</g>
		<g>
			<path fill="#116FFF" d="M11,18H9c-0.553,0-1-0.447-1-1s0.447-1,1-1h2c0.553,0,1,0.447,1,1S11.553,18,11,18z"/>
		</g>
		<g>
			<path fill="#116FFF" d="M11,29H9c-0.553,0-1-0.447-1-1s0.447-1,1-1h2c0.553,0,1,0.447,1,1S11.553,29,11,29z"/>
		</g>
		<g>
			<path fill="#116FFF" d="M11,18c-0.256,0-0.512-0.098-0.707-0.293c-0.391-0.391-0.391-1.023,0-1.414l6-6
				c0.391-0.391,1.023-0.391,1.414,0s0.391,1.023,0,1.414l-6,6C11.512,17.902,11.256,18,11,18z"/>
		</g>
		<g>
			<path fill="#116FFF" d="M28.501,12H17c-0.553,0-1-0.447-1-1s0.447-1,1-1h11.501c0.553,0,1,0.447,1,1S29.054,12,28.501,12z"/>
		</g>
		<g>
			<path fill="#116FFF" d="M28.501,32H16c-0.553,0-1-0.447-1-1s0.447-1,1-1h12.501c0.553,0,1,0.447,1,1S29.054,32,28.501,32z"/>
		</g>
		<g>
			<path fill="#116FFF" d="M15.999,32c-0.175,0-0.353-0.046-0.514-0.143l-5-3c-0.474-0.284-0.627-0.898-0.343-1.372
				c0.284-0.473,0.897-0.627,1.372-0.343l5,3c0.474,0.284,0.627,0.898,0.343,1.372C16.67,31.827,16.339,32,15.999,32z"/>
		</g>
		<g>
			<path fill="#116FFF" d="M20,12c-0.396,0-0.772-0.237-0.929-0.629l-2-5c-0.205-0.513,0.045-1.095,0.558-1.3
				c0.509-0.206,1.095,0.044,1.3,0.558l2,5c0.205,0.513-0.045,1.095-0.558,1.3C20.25,11.978,20.124,12,20,12z"/>
		</g>
		<g>
			<path fill="#116FFF" d="M26,12c-0.124,0-0.25-0.022-0.371-0.071c-0.513-0.205-0.763-0.787-0.558-1.3l2-5
				c0.205-0.515,0.792-0.764,1.3-0.558c0.513,0.205,0.763,0.787,0.558,1.3l-2,5C26.772,11.763,26.396,12,26,12z"/>
		</g>
		<g>
			<path fill="#116FFF" d="M25.189,7.44c-0.877,0-1.814-0.135-2.637-0.546c-1.337-0.669-3.512-0.188-4.236,0.054
				c-0.529,0.176-1.09-0.108-1.265-0.632c-0.175-0.524,0.108-1.091,0.632-1.265c0.138-0.046,3.419-1.118,5.764,0.054
				c1.337,0.669,3.512,0.188,4.236-0.054c0.528-0.176,1.09,0.108,1.265,0.632c0.175,0.524-0.108,1.091-0.632,1.265
				C28.227,6.979,26.813,7.44,25.189,7.44z"/>
		</g>
		<g>
			<path fill="#116FFF" d="M23,64c-9.374,0-17-7.626-17-17c0-6.251,3.457-12.063,9.997-16.81c0.446-0.325,1.071-0.226,1.396,0.223
				c0.324,0.446,0.225,1.072-0.223,1.396C11.086,36.226,8,41.337,8,47c0,8.271,6.729,15,15,15s15-6.729,15-15
				c0-7.189-4.987-12.319-9.171-15.355c-0.446-0.325-0.546-0.95-0.222-1.397c0.324-0.446,0.948-0.548,1.397-0.222
				C36.544,34.772,40,40.643,40,47C40,56.374,32.374,64,23,64z"/>
		</g>
		<g>
			<path fill="#116FFF" d="M23,55c-4.411,0-8-3.589-8-8s3.589-8,8-8s8,3.589,8,8S27.411,55,23,55z M23,41c-3.309,0-6,2.691-6,6
				s2.691,6,6,6s6-2.691,6-6S26.309,41,23,41z"/>
		</g>
		<g>
			<path fill="#116FFF" d="M23,50c-0.553,0-1-0.447-1-1v-4c0-0.553,0.447-1,1-1s1,0.447,1,1v4C24,49.553,23.553,50,23,50z"/>
		</g>
	</g>
</g>
<g id="_x33_7_corruption_x2C__forage_x2C__money_x2C__business_x2C__office_x2C__corporation_x2C__job">
</g>
<g id="_x33_6_career_x2C__ladder_x2C__success_x2C__business_x2C__office_x2C__corporation_x2C__job">
</g>
<g id="_x33_5_review_x2C__feedback_x2C__rating_x2C__business_x2C__office_x2C__corporation_x2C__job">
</g>
<g id="_x33_4_manipulation_x2C__thread_x2C__puppet_x2C__business_x2C__office_x2C__corporation_x2C__job">
</g>
<g id="_x33_3_location_x2C__map_x2C__pin_x2C__business_x2C__office_x2C__corporation_x2C__job">
</g>
<g id="_x33_2_retirement_x2C__old_x2C__man_x2C__door_x2C__business_x2C__office_x2C__corporation">
</g>
<g id="_x33_1_victory_x2C__success_x2C__medal_x2C__reward_x2C__business_x2C__office_x2C__corporation">
</g>
<g id="_x33_0_dismissal_x2C__box_x2C__door_x2C__business_x2C__office_x2C__corporation_x2C__job">
</g>
<g id="_x32_9_meeting_x2C__discussion_x2C__question_x2C__business_x2C__office_x2C__corporation_x2C__job">
</g>
<g id="_x32_8_strategy_x2C__vision_x2C__eye_x2C__chess_x2C__business_x2C__office_x2C__corporation">
</g>
<g id="_x32_7_board_x2C__task_x2C__process_x2C__business_x2C__office_x2C__corporation_x2C__job">
</g>
<g id="_x32_6_scheme_x2C__board_x2C__structure_x2C__business_x2C__office_x2C__corporation_x2C__job">
</g>
<g id="_x32_5_conflict_x2C__dialog_x2C__discussion_x2C__business_x2C__office_x2C__corporation_x2C__job">
</g>
<g id="_x32_4_documentation_x2C__document_x2C__repository_x2C__business_x2C__office_x2C__corporation_x2C__job">
</g>
<g id="_x32_3_sprint_x2C__programming_x2C__code_x2C__business_x2C__office_x2C__corporation_x2C__job">
</g>
<g id="_x32_2_cram_x2C__tablet_x2C__work_x2C__business_x2C__office_x2C__corporation_x2C__job">
</g>
<g id="_x32_1_leader_x2C__discoverer_x2C__flag_x2C__business_x2C__office_x2C__corporation_x2C__job">
</g>
<g id="_x32_0_rally_x2C__collective_x2C__arm_x2C__business_x2C__office_x2C__corporation_x2C__job">
</g>
<g id="_x31_9_consolidation_x2C__portfolio_x2C__puzzle_x2C__business_x2C__office_x2C__corporation_x2C__job">
</g>
<g id="_x31_8_idea_x2C__creative_x2C__work_x2C__business_x2C__office_x2C__corporation_x2C__job">
</g>
<g id="_x31_7_problem_x2C__stress_x2C__resistance_x2C__business_x2C__office_x2C__corporation_x2C__job">
</g>
<g id="_x31_6_hard_x2C__skills_x2C__skill_x2C__portfolio_x2C__book_x2C__business_x2C__office">
</g>
<g id="_x31_5_time_x2C__management_x2C__clock_x2C__deadline_x2C__business_x2C__office_x2C__corporation">
</g>
<g id="_x31_4_multitasking_x2C__task_x2C__work_x2C__business_x2C__office_x2C__corporation_x2C__job">
</g>
<g id="_x31_3_tranquility_x2C__yoga_x2C__lotus_x2C__posture_x2C__business_x2C__office_x2C__corporation">
</g>
<g id="_x31_2_corporate_x2C__party_x2C__business_x2C__office_x2C__corporation_x2C__job">
</g>
<g id="_x31_1_dialog_x2C__discussion_x2C__work_x2C__business_x2C__office_x2C__corporation_x2C__job">
</g>
<g id="_x31_0_listening_x2C__skill_x2C__dialog_x2C__business_x2C__office_x2C__corporation_x2C__job">
</g>
<g id="_x39__training_x2C__book_x2C__lesson_x2C__business_x2C__office_x2C__corporation_x2C__job">
</g>
<g id="_x38__dress_x2C__code_x2C__shirt_x2C__business_x2C__office_x2C__corporation_x2C__job">
</g>
<g id="_x37__task_x2C__program_x2C__ticket_x2C__business_x2C__office_x2C__corporation_x2C__job">
</g>
<g id="_x36__plan_x2C__graph_x2C__stage_x2C__business_x2C__office_x2C__corporation_x2C__job">
</g>
<g id="_x35__boss_x2C__king_x2C__crown_x2C__business_x2C__office_x2C__corporation_x2C__job">
</g>
<g id="_x34__structure_x2C__structuring_x2C__business_x2C__office_x2C__corporation_x2C__job">
</g>
<g id="_x33__soft_x2C__skills_x2C__communication_x2C__business_x2C__office_x2C__corporation_x2C__job">
</g>
<g id="_x32__office_x2C__house_x2C__portfolio_x2C__business_x2C__corporation_x2C__job">
</g>
<g id="_x31__corporate_x2C__rules_x2C__book_x2C__business_x2C__office_x2C__corporation_x2C__job">
</g>
</svg>
