<?xml version="1.0" encoding="utf-8"?>
<!-- Generator: Adobe Illustrator 16.0.0, SVG Export Plug-In . SVG Version: 6.00 Build 0)  -->
<!DOCTYPE svg PUBLIC "-//W3C//DTD SVG 1.1//EN" "http://www.w3.org/Graphics/SVG/1.1/DTD/svg11.dtd">
<svg version="1.1" xmlns="http://www.w3.org/2000/svg" xmlns:xlink="http://www.w3.org/1999/xlink" x="0px" y="0px" width="64px"
	 height="64px" viewBox="0 0 64 64" enable-background="new 0 0 64 64" xml:space="preserve">
<g id="_x35_0_document_x2C__optimization_x2C__documentation_x2C__business_x2C__office_x2C__corporation_x2C__job">
</g>
<g id="_x34_9_human_x2C__resource_x2C__conveyor_x2C__business_x2C__office_x2C__corporation_x2C__job">
</g>
<g id="_x34_8_knowledge_x2C__training_x2C__growth_x2C__book_x2C__business_x2C__office_x2C__corporation">
</g>
<g id="_x34_7_skill_x2C__competence_x2C__experience_x2C__business_x2C__office_x2C__corporation_x2C__job">
</g>
<g id="_x34_6_target_x2C__success_x2C__victory_x2C__business_x2C__office_x2C__corporation_x2C__job">
</g>
<g id="_x34_5_inbox_x2C__letter_x2C__email_x2C__business_x2C__office_x2C__corporation_x2C__job">
</g>
<g id="_x34_4_document_x2C__workflow_x2C__sharing_x2C__business_x2C__office_x2C__corporation_x2C__job">
</g>
<g id="_x34_3_budget_x2C__allocation_x2C__money_x2C__business_x2C__office_x2C__corporation_x2C__job">
</g>
<g id="_x34_2_case_x2C__task_x2C__project_x2C__business_x2C__office_x2C__corporation_x2C__job">
</g>
<g id="_x34_1_structure_x2C__structuring_x2C__tasks_x2C__business_x2C__office_x2C__corporation_x2C__job">
</g>
<g id="_x34_0_choice_x2C__dilemma_x2C__question_x2C__business_x2C__office_x2C__corporation_x2C__job">
</g>
<g id="_x33_9_workplace_x2C__table_x2C__laptop_x2C__business_x2C__office_x2C__corporation_x2C__job">
</g>
<g id="_x33_8_bribe_x2C__bag_x2C__money_x2C__business_x2C__office_x2C__corporation_x2C__job">
</g>
<g id="_x33_7_corruption_x2C__forage_x2C__money_x2C__business_x2C__office_x2C__corporation_x2C__job">
</g>
<g id="_x33_6_career_x2C__ladder_x2C__success_x2C__business_x2C__office_x2C__corporation_x2C__job">
</g>
<g id="_x33_5_review_x2C__feedback_x2C__rating_x2C__business_x2C__office_x2C__corporation_x2C__job">
</g>
<g id="_x33_4_manipulation_x2C__thread_x2C__puppet_x2C__business_x2C__office_x2C__corporation_x2C__job">
</g>
<g id="_x33_3_location_x2C__map_x2C__pin_x2C__business_x2C__office_x2C__corporation_x2C__job">
</g>
<g id="_x33_2_retirement_x2C__old_x2C__man_x2C__door_x2C__business_x2C__office_x2C__corporation">
</g>
<g id="_x33_1_victory_x2C__success_x2C__medal_x2C__reward_x2C__business_x2C__office_x2C__corporation">
</g>
<g id="_x33_0_dismissal_x2C__box_x2C__door_x2C__business_x2C__office_x2C__corporation_x2C__job">
</g>
<g id="_x32_9_meeting_x2C__discussion_x2C__question_x2C__business_x2C__office_x2C__corporation_x2C__job">
</g>
<g id="_x32_8_strategy_x2C__vision_x2C__eye_x2C__chess_x2C__business_x2C__office_x2C__corporation">
</g>
<g id="_x32_7_board_x2C__task_x2C__process_x2C__business_x2C__office_x2C__corporation_x2C__job">
</g>
<g id="_x32_6_scheme_x2C__board_x2C__structure_x2C__business_x2C__office_x2C__corporation_x2C__job">
</g>
<g id="_x32_5_conflict_x2C__dialog_x2C__discussion_x2C__business_x2C__office_x2C__corporation_x2C__job">
</g>
<g id="_x32_4_documentation_x2C__document_x2C__repository_x2C__business_x2C__office_x2C__corporation_x2C__job">
</g>
<g id="_x32_3_sprint_x2C__programming_x2C__code_x2C__business_x2C__office_x2C__corporation_x2C__job">
</g>
<g id="_x32_2_cram_x2C__tablet_x2C__work_x2C__business_x2C__office_x2C__corporation_x2C__job">
</g>
<g id="_x32_1_leader_x2C__discoverer_x2C__flag_x2C__business_x2C__office_x2C__corporation_x2C__job">
</g>
<g id="_x32_0_rally_x2C__collective_x2C__arm_x2C__business_x2C__office_x2C__corporation_x2C__job">
</g>
<g id="_x31_9_consolidation_x2C__portfolio_x2C__puzzle_x2C__business_x2C__office_x2C__corporation_x2C__job">
</g>
<g id="_x31_8_idea_x2C__creative_x2C__work_x2C__business_x2C__office_x2C__corporation_x2C__job">
</g>
<g id="_x31_7_problem_x2C__stress_x2C__resistance_x2C__business_x2C__office_x2C__corporation_x2C__job">
</g>
<g id="_x31_6_hard_x2C__skills_x2C__skill_x2C__portfolio_x2C__book_x2C__business_x2C__office">
</g>
<g id="_x31_5_time_x2C__management_x2C__clock_x2C__deadline_x2C__business_x2C__office_x2C__corporation">
</g>
<g id="_x31_4_multitasking_x2C__task_x2C__work_x2C__business_x2C__office_x2C__corporation_x2C__job">
</g>
<g id="_x31_3_tranquility_x2C__yoga_x2C__lotus_x2C__posture_x2C__business_x2C__office_x2C__corporation">
</g>
<g id="_x31_2_corporate_x2C__party_x2C__business_x2C__office_x2C__corporation_x2C__job">
</g>
<g id="_x31_1_dialog_x2C__discussion_x2C__work_x2C__business_x2C__office_x2C__corporation_x2C__job">
</g>
<g id="_x31_0_listening_x2C__skill_x2C__dialog_x2C__business_x2C__office_x2C__corporation_x2C__job">
</g>
<g id="_x39__training_x2C__book_x2C__lesson_x2C__business_x2C__office_x2C__corporation_x2C__job">
</g>
<g id="_x38__dress_x2C__code_x2C__shirt_x2C__business_x2C__office_x2C__corporation_x2C__job">
</g>
<g id="_x37__task_x2C__program_x2C__ticket_x2C__business_x2C__office_x2C__corporation_x2C__job">
</g>
<g id="_x36__plan_x2C__graph_x2C__stage_x2C__business_x2C__office_x2C__corporation_x2C__job">
</g>
<g id="_x35__boss_x2C__king_x2C__crown_x2C__business_x2C__office_x2C__corporation_x2C__job">
</g>
<g id="_x34__structure_x2C__structuring_x2C__business_x2C__office_x2C__corporation_x2C__job">
	<g>
		<path fill="#94C1FF" d="M41,22.5v1.22c-1.95-2.54-3.36-3.09-5-2.88v-0.01l3-4.16C40.26,18.28,41,20.31,41,22.5z"/>
	</g>
	<g>
		<path fill="#94C1FF" d="M39,16.67l-3,4.16v0.01c-2.66,0.34-5.91,2.67-13,1.8c-0.33-0.04-0.66-0.09-1-0.14c0-5.25,4.25-9.5,9.5-9.5
			C34.55,13,37.27,14.44,39,16.67z"/>
	</g>
	<g>
		<path fill="#5C9EFF" d="M39,16.67l-2.362,3.276c0.08,0.286,0.158,0.574,0.211,0.871h0.003c0.6,0.037,1.189,0.22,1.804,0.604
			c0.071,0.044,0.143,0.087,0.216,0.137c0.1,0.07,0.202,0.149,0.304,0.23c0.098,0.077,0.196,0.16,0.296,0.248
			c0.09,0.08,0.181,0.163,0.272,0.252c0.125,0.122,0.254,0.258,0.383,0.397c0.075,0.08,0.148,0.155,0.225,0.242
			c0.211,0.24,0.426,0.5,0.649,0.791V22.5C41,20.31,40.26,18.28,39,16.67z"/>
	</g>
	<g>
		<path fill="#5C9EFF" d="M30.446,13.062c-0.326,0.037-0.646,0.089-0.962,0.157h-0.001c2.229,0.475,4.173,1.72,5.517,3.451
			c0.751,0.96,1.304,2.073,1.638,3.276L39,16.67C37.27,14.44,34.55,13,31.5,13c-0.345,0-0.686,0.02-1.021,0.057
			C30.468,13.058,30.457,13.061,30.446,13.062z"/>
	</g>
	<g>
		<path fill="#FFFFFF" d="M32,39l-2,1l-2-1v-3.94C29.2,35.66,30.57,36,32,36s2.8-0.34,4-0.94V39l-2,1L32,39z"/>
	</g>
	<g>
		<path fill="#D7E9FF" d="M41,23.72V27c0,3.53-2.04,6.59-5,8.06C34.8,35.66,33.43,36,32,36s-2.8-0.34-4-0.94
			c-2.96-1.47-5-4.529-5-8.06v-0.04v-4.32c7.09,0.87,10.34-1.46,13-1.8C37.64,20.63,39.05,21.18,41,23.72z"/>
	</g>
	<g>
		<path fill="#94C1FF" d="M37,20.829V27c0,3.53-2.04,6.59-5,8.06c-0.625,0.313-1.298,0.551-2,0.711C30.646,35.918,31.315,36,32,36
			c1.43,0,2.8-0.34,4-0.94c2.96-1.47,5-4.529,5-8.06v-3.28C39.456,21.708,38.249,20.955,37,20.829z"/>
	</g>
	<g>
		<path fill="#D7E9FF" d="M4.16,29.01C5.75,29.09,7,30.39,7,32s-1.25,2.91-2.84,2.99C4.11,35,4.05,35,4,35c-1.66,0-3-1.34-3-3
			s1.34-3,3-3C4.05,29,4.11,29,4.16,29.01z"/>
	</g>
	<g>
		<path fill="#D7E9FF" d="M15.22,9.58c1.37,1.57,1.3,3.96-0.189,5.45c-1.49,1.489-3.88,1.56-5.45,0.18
			c-0.07-0.05-0.14-0.11-0.2-0.18C7.81,13.47,7.81,10.93,9.37,9.37c1.57-1.561,4.1-1.561,5.66,0C15.1,9.44,15.16,9.51,15.22,9.58z"
			/>
	</g>
	<g>
		<path fill="#D7E9FF" d="M35,4c0,0.05,0,0.11-0.01,0.16C34.91,5.75,33.61,7,32,7s-2.91-1.25-2.99-2.84C29,4.11,29,4.05,29,4
			c0-1.66,1.34-3,3-3S35,2.34,35,4z"/>
	</g>
	<g>
		<path fill="#D7E9FF" d="M54.27,9.72c1.37,1.37,1.37,3.59,0,4.96c-0.05,0.051-0.109,0.101-0.159,0.15
			c-1.37,1.21-3.471,1.16-4.79-0.16c-1.311-1.31-1.36-3.41-0.141-4.78c0.04-0.05,0.09-0.109,0.141-0.159
			C50.69,8.36,52.91,8.36,54.27,9.72z"/>
	</g>
	<g>
		<path fill="#D7E9FF" d="M60,29c1.66,0,3,1.34,3,3s-1.34,3-3,3c-0.05,0-0.11,0-0.16-0.01C58.25,34.91,57,33.61,57,32
			s1.25-2.91,2.84-2.99C59.89,29,59.95,29,60,29z"/>
	</g>
	<g>
		<path fill="#D7E9FF" d="M54.63,48.97c1.561,1.561,1.561,4.09,0,5.66c-1.56,1.561-4.09,1.561-5.66,0
			c-0.069-0.07-0.13-0.14-0.189-0.21c-1.37-1.57-1.3-3.96,0.189-5.45c1.5-1.489,3.88-1.56,5.45-0.189
			C54.49,48.84,54.56,48.9,54.63,48.97z"/>
	</g>
	<g>
		<path fill="#D7E9FF" d="M34.99,59.84C35,59.89,35,59.95,35,60c0,1.66-1.34,3-3,3s-3-1.34-3-3c0-0.05,0-0.11,0.01-0.16
			C29.09,58.25,30.39,57,32,57S34.91,58.25,34.99,59.84z"/>
	</g>
	<g>
		<path fill="#D7E9FF" d="M9.58,48.78c1.57-1.37,3.96-1.3,5.45,0.189c1.489,1.49,1.56,3.88,0.18,5.45c-0.05,0.07-0.11,0.14-0.18,0.2
			c-1.57,1.57-4.101,1.57-5.66,0.01c-1.561-1.57-1.561-4.1,0-5.66C9.44,48.9,9.51,48.84,9.58,48.78z"/>
	</g>
	<g>
		<path fill="#FFFFFF" d="M43,44v3c0,0.55-0.45,1-1,1H22c-0.55,0-1-0.45-1-1v-3c0-2.76,2.24-5,5-5h2l2,1l2-1l2,1l2-1h2
			C40.77,39,43,41.24,43,44z"/>
	</g>
	<g>
		<g>
			<path fill="#D7E9FF" d="M38,39h-2l-0.505,0.252C37.525,39.891,39,41.764,39,44v3c0,0.55-0.45,1-1,1h4c0.55,0,1-0.45,1-1v-3
				C43,41.24,40.77,39,38,39z"/>
		</g>
	</g>
	<g>
		<g>
			<g>
				<path fill="#116FFF" d="M23.002,27.96c-0.553,0-1-0.448-1-1v-4.32c0-0.552,0.447-1,1-1s1,0.448,1,1v4.32
					C24.002,27.512,23.555,27.96,23.002,27.96z"/>
			</g>
			<g>
				<path fill="#116FFF" d="M41.002,28c-0.553,0-1-0.448-1-1v-4.501c0-0.552,0.447-1,1-1s1,0.448,1,1V27
					C42.002,27.552,41.555,28,41.002,28z"/>
			</g>
			<g>
				<path fill="#116FFF" d="M41.002,23.499c-0.553,0-1-0.448-1-1c0-4.687-3.813-8.499-8.502-8.499c-4.686,0-8.498,3.813-8.498,8.499
					c0,0.552-0.447,1-1,1s-1-0.448-1-1C21.002,16.71,25.711,12,31.5,12c5.791,0,10.502,4.71,10.502,10.499
					C42.002,23.051,41.555,23.499,41.002,23.499z"/>
			</g>
			<g>
				<path fill="#116FFF" d="M41.003,24.716c-0.301,0-0.598-0.135-0.795-0.392c-2.425-3.165-3.515-2.813-6.423-1.87
					c-2.56,0.828-6.06,1.963-11.939,1.033c-0.545-0.086-0.918-0.598-0.831-1.144c0.086-0.545,0.599-0.918,1.144-0.832
					c5.398,0.852,8.645-0.194,11.011-0.96c2.985-0.966,5.344-1.729,8.627,2.557c0.336,0.438,0.253,1.066-0.186,1.402
					C41.429,24.648,41.215,24.716,41.003,24.716z"/>
			</g>
			<g>
				<path fill="#116FFF" d="M36.001,21.835c-0.202,0-0.406-0.061-0.583-0.188c-0.448-0.323-0.55-0.948-0.228-1.396l3-4.167
					c0.322-0.447,0.947-0.55,1.396-0.227c0.448,0.323,0.55,0.948,0.228,1.396l-3,4.167C36.618,21.69,36.312,21.835,36.001,21.835z"
					/>
			</g>
			<g>
				<path fill="#116FFF" d="M21.002,45c-0.553,0-1-0.447-1-1c0-3.309,2.691-6,6-6c0.553,0,1,0.447,1,1s-0.447,1-1,1
					c-2.206,0-4,1.794-4,4C22.002,44.553,21.555,45,21.002,45z"/>
			</g>
			<g>
				<path fill="#116FFF" d="M28.002,40h-2c-0.553,0-1-0.447-1-1s0.447-1,1-1h2c0.553,0,1,0.447,1,1S28.555,40,28.002,40z"/>
			</g>
			<g>
				<path fill="#116FFF" d="M21.002,48c-0.553,0-1-0.447-1-1v-3c0-0.553,0.447-1,1-1s1,0.447,1,1v3
					C22.002,47.553,21.555,48,21.002,48z"/>
			</g>
			<g>
				<path fill="#116FFF" d="M22.002,49c-1.103,0-2-0.897-2-2c0-0.531,0.418-0.914,0.948-0.943c0.563-0.025,0.992,0.416,1.052,0.942
					c0.552,0,1,0.448,1,1C23.002,48.552,22.555,49,22.002,49z"/>
			</g>
			<g>
				<path fill="#116FFF" d="M43.002,45c-0.553,0-1-0.447-1-1c0-2.206-1.794-4-4-4c-0.553,0-1-0.447-1-1s0.447-1,1-1
					c3.309,0,6,2.691,6,6C44.002,44.553,43.555,45,43.002,45z"/>
			</g>
			<g>
				<path fill="#116FFF" d="M38.002,40h-2c-0.553,0-1-0.447-1-1s0.447-1,1-1h2c0.553,0,1,0.447,1,1S38.555,40,38.002,40z"/>
			</g>
			<g>
				<path fill="#116FFF" d="M43.002,48c-0.553,0-1-0.447-1-1v-3c0-0.553,0.447-1,1-1s1,0.447,1,1v3
					C44.002,47.553,43.555,48,43.002,48z"/>
			</g>
			<g>
				<path fill="#116FFF" d="M42.002,49c-0.553,0-1-0.447-1-1s0.447-1,1-1c0-0.553,0.447-1,1-1s1,0.447,1,1
					C44.002,48.103,43.104,49,42.002,49z"/>
			</g>
			<g>
				<path fill="#116FFF" d="M42.002,49h-20c-0.553,0-1-0.447-1-1s0.447-1,1-1h20c0.553,0,1,0.447,1,1S42.555,49,42.002,49z"/>
			</g>
			<g>
				<path fill="#116FFF" d="M28.002,40c-0.553,0-1-0.447-1-1v-3.936c0-0.553,0.447-1,1-1s1,0.447,1,1V39
					C29.002,39.553,28.555,40,28.002,40z"/>
			</g>
			<g>
				<path fill="#116FFF" d="M36.002,40c-0.553,0-1-0.447-1-1v-3.936c0-0.553,0.447-1,1-1s1,0.447,1,1V39
					C37.002,39.553,36.555,40,36.002,40z"/>
			</g>
			<g>
				<path fill="#116FFF" d="M32,37c-5.513,0-9.998-4.485-9.998-9.998c0-0.552,0.447-1,1-1s1,0.448,1,1C24.002,31.412,27.59,35,32,35
					c4.412,0,8.002-3.588,8.002-7.998c0-0.552,0.447-1,1-1s1,0.448,1,1C42.002,32.515,37.515,37,32,37z"/>
			</g>
			<g>
				<path fill="#116FFF" d="M30.001,41c-0.15,0-0.303-0.034-0.446-0.105l-2-1c-0.494-0.247-0.694-0.848-0.447-1.342
					c0.248-0.495,0.847-0.693,1.342-0.447l2,1c0.494,0.247,0.694,0.848,0.447,1.342C30.721,40.798,30.368,41,30.001,41z"/>
			</g>
			<g>
				<path fill="#116FFF" d="M30.003,41c-0.367,0-0.72-0.202-0.896-0.553c-0.247-0.494-0.047-1.095,0.447-1.342l2-1
					c0.493-0.246,1.094-0.048,1.342,0.447c0.247,0.494,0.047,1.095-0.447,1.342l-2,1C30.306,40.966,30.153,41,30.003,41z"/>
			</g>
			<g>
				<path fill="#116FFF" d="M34.003,41c-0.367,0-0.72-0.202-0.896-0.553c-0.247-0.494-0.047-1.095,0.447-1.342l2-1
					c0.494-0.246,1.094-0.048,1.342,0.447c0.247,0.494,0.047,1.095-0.447,1.342l-2,1C34.306,40.966,34.153,41,34.003,41z"/>
			</g>
			<g>
				<path fill="#116FFF" d="M34.001,41c-0.15,0-0.303-0.034-0.446-0.105l-2-1c-0.494-0.247-0.694-0.848-0.447-1.342
					c0.248-0.495,0.849-0.693,1.342-0.447l2,1c0.494,0.247,0.694,0.848,0.447,1.342C34.721,40.798,34.368,41,34.001,41z"/>
			</g>
		</g>
		<g>
			<path fill="#116FFF" d="M32.002,8c-2.206,0-4-1.794-4-4s1.794-4,4-4s4,1.794,4,4S34.208,8,32.002,8z M32.002,2
				c-1.103,0-2,0.897-2,2s0.897,2,2,2s2-0.897,2-2S33.104,2,32.002,2z"/>
		</g>
		<g>
			<path fill="#116FFF" d="M32.002,64c-2.206,0-4-1.794-4-4s1.794-4,4-4s4,1.794,4,4S34.208,64,32.002,64z M32.002,58
				c-1.103,0-2,0.897-2,2s0.897,2,2,2s2-0.897,2-2S33.104,58,32.002,58z"/>
		</g>
		<g>
			<path fill="#116FFF" d="M12.203,17.2c-1.336,0-2.592-0.52-3.535-1.464c-0.944-0.944-1.465-2.2-1.466-3.535
				c-0.001-1.336,0.52-2.591,1.464-3.536s2.2-1.464,3.536-1.464s2.592,0.52,3.536,1.465c0.944,0.943,1.465,2.199,1.465,3.534
				c0,1.336-0.521,2.592-1.465,3.536C14.794,16.68,13.538,17.2,12.203,17.2z M12.202,9.201c-0.802,0-1.555,0.312-2.122,0.879
				c-0.566,0.566-0.878,1.319-0.878,2.12c0,0.801,0.313,1.555,0.88,2.122c1.132,1.131,3.108,1.133,4.242,0
				c0.566-0.566,0.879-1.32,0.879-2.122c0-0.801-0.312-1.554-0.879-2.12C13.757,9.513,13.004,9.201,12.202,9.201z"/>
		</g>
		<g>
			<path fill="#116FFF" d="M51.801,56.799c-1.335,0-2.591-0.521-3.535-1.465c-1.949-1.949-1.949-5.121,0-7.07
				c0.944-0.944,2.2-1.465,3.536-1.465c1.334,0,2.59,0.52,3.534,1.464c1.949,1.949,1.949,5.122,0,7.071
				C54.392,56.278,53.136,56.799,51.801,56.799z M51.802,48.799c-0.802,0-1.555,0.313-2.122,0.879c-1.17,1.17-1.17,3.072,0,4.242
				c1.135,1.133,3.109,1.133,4.242,0c1.17-1.17,1.17-3.073,0-4.243C53.355,49.11,52.603,48.799,51.802,48.799z"/>
		</g>
		<g>
			<path fill="#116FFF" d="M4.004,35.998C1.796,35.998,0,34.204,0,32c0-2.206,1.794-4.001,4-4.001c1.069,0,2.074,0.416,2.829,1.172
				C7.584,29.926,8,30.931,8,31.999C8,34.204,6.207,35.998,4.004,35.998z M4.002,29.999C2.898,29.999,2,30.896,2,32
				c0,1.102,0.898,1.998,2.002,1.998h0.002C5.104,33.998,6,33.102,6,31.999C6,30.896,5.104,29.999,4.002,29.999z"/>
		</g>
		<g>
			<path fill="#116FFF" d="M60,35.999c-2.204,0-3.998-1.794-3.998-3.999c0-2.206,1.794-4.001,3.998-4.001c2.206,0,4,1.794,4,4
				C64,34.205,62.206,35.999,60,35.999z M60,29.999c-1.102,0-1.998,0.897-1.998,2.001c0,1.103,0.896,1.999,1.998,1.999
				c1.103,0,2-0.897,2-2C62,30.896,61.103,29.999,60,29.999z"/>
		</g>
		<g>
			<path fill="#116FFF" d="M12.198,56.798c-1.335,0-2.59-0.52-3.533-1.464c-1.948-1.949-1.948-5.121,0.001-7.07
				c0.942-0.944,2.198-1.465,3.534-1.465s2.591,0.52,3.536,1.464c0.944,0.944,1.465,2.2,1.465,3.535
				c0,1.336-0.521,2.591-1.465,3.535C14.79,56.277,13.534,56.798,12.198,56.798z M12.2,48.799c-0.801,0-1.554,0.312-2.119,0.878
				C8.91,50.848,8.91,52.75,10.08,53.92c1.134,1.135,3.106,1.131,4.242-0.002c0.567-0.566,0.879-1.319,0.879-2.12
				s-0.313-1.554-0.879-2.121C13.756,49.11,13.002,48.799,12.2,48.799z"/>
		</g>
		<g>
			<path fill="#116FFF" d="M51.8,16.7c-1.201,0-2.332-0.468-3.183-1.318c-0.851-0.851-1.318-1.98-1.318-3.183
				c0-1.202,0.468-2.332,1.318-3.182S50.598,7.7,51.799,7.7c1.202,0,2.331,0.468,3.182,1.317c0.851,0.851,1.318,1.981,1.318,3.183
				s-0.468,2.333-1.318,3.183C54.131,16.232,53.002,16.7,51.8,16.7z M51.799,9.7c-0.667,0-1.295,0.26-1.768,0.732
				s-0.732,1.1-0.732,1.767c0,0.668,0.26,1.295,0.732,1.768c0.947,0.946,2.593,0.944,3.535,0.001
				c0.473-0.473,0.732-1.101,0.732-1.769s-0.26-1.296-0.732-1.769C53.095,9.96,52.467,9.7,51.799,9.7z"/>
		</g>
		<g>
			<path fill="#116FFF" d="M34.995,60.842c-0.505,0-0.938-0.381-0.993-0.895c-0.059-0.549,0.339-1.041,0.889-1.1
				c4.813-0.513,9.407-2.321,13.289-5.23c0.441-0.331,1.068-0.243,1.399,0.2c0.332,0.441,0.242,1.068-0.2,1.399
				c-4.169,3.126-9.106,5.069-14.277,5.619C35.066,60.84,35.03,60.842,34.995,60.842z"/>
		</g>
		<g>
			<path fill="#116FFF" d="M54.417,49.775c-0.209,0-0.419-0.065-0.599-0.2c-0.442-0.331-0.532-0.958-0.2-1.399
				c2.908-3.88,4.717-8.475,5.229-13.287c0.059-0.55,0.559-0.954,1.1-0.889c0.55,0.059,0.947,0.551,0.889,1.1
				c-0.551,5.172-2.493,10.108-5.618,14.275C55.021,49.638,54.722,49.775,54.417,49.775z"/>
		</g>
		<g>
			<path fill="#116FFF" d="M59.841,30.006c-0.505,0-0.938-0.381-0.993-0.895c-0.529-4.98-2.439-9.708-5.523-13.671
				c-0.339-0.436-0.261-1.064,0.175-1.403c0.438-0.339,1.065-0.26,1.403,0.175c3.313,4.258,5.365,9.337,5.934,14.688
				c0.059,0.549-0.339,1.042-0.889,1.1C59.911,30.004,59.876,30.006,59.841,30.006z"/>
		</g>
		<g>
			<path fill="#116FFF" d="M49.175,10.886c-0.214,0-0.431-0.069-0.613-0.21c-3.964-3.083-8.691-4.993-13.671-5.523
				c-0.55-0.058-0.947-0.551-0.889-1.1s0.556-0.952,1.1-0.888c5.351,0.569,10.43,2.621,14.688,5.932
				c0.436,0.339,0.515,0.967,0.175,1.403C49.768,10.753,49.473,10.886,49.175,10.886z"/>
		</g>
		<g>
			<path fill="#116FFF" d="M15.224,10.581c-0.305,0-0.604-0.138-0.801-0.4c-0.332-0.442-0.242-1.068,0.2-1.4
				c4.171-3.126,9.108-5.068,14.279-5.617c0.561-0.05,1.042,0.341,1.1,0.889c0.059,0.549-0.34,1.042-0.889,1.1
				c-4.813,0.51-9.408,2.318-13.291,5.229C15.643,10.516,15.432,10.581,15.224,10.581z"/>
		</g>
		<g>
			<path fill="#116FFF" d="M4.159,30.004c-0.035,0-0.071-0.002-0.106-0.006c-0.55-0.058-0.947-0.551-0.889-1.1
				c0.551-5.173,2.494-10.111,5.62-14.279c0.331-0.441,0.958-0.532,1.399-0.2c0.442,0.331,0.532,0.958,0.2,1.4
				c-2.91,3.88-4.719,8.476-5.231,13.291C5.098,29.623,4.664,30.004,4.159,30.004z"/>
		</g>
		<g>
			<path fill="#116FFF" d="M9.595,49.794c-0.304,0-0.604-0.138-0.801-0.399c-3.133-4.173-5.079-9.116-5.63-14.296
				c-0.059-0.549,0.339-1.041,0.889-1.1c0.546-0.059,1.041,0.34,1.1,0.889c0.513,4.82,2.325,9.421,5.241,13.306
				c0.331,0.442,0.242,1.068-0.199,1.4C10.014,49.729,9.804,49.794,9.595,49.794z"/>
		</g>
		<g>
			<path fill="#116FFF" d="M29.007,60.842c-0.035,0-0.071-0.002-0.106-0.006c-5.174-0.551-10.111-2.493-14.279-5.619
				c-0.442-0.331-0.532-0.958-0.2-1.399c0.331-0.442,0.959-0.53,1.399-0.2c3.88,2.909,8.476,4.718,13.291,5.23
				c0.55,0.059,0.947,0.551,0.889,1.1C29.945,60.461,29.512,60.842,29.007,60.842z"/>
		</g>
	</g>
</g>
<g id="_x33__soft_x2C__skills_x2C__communication_x2C__business_x2C__office_x2C__corporation_x2C__job">
</g>
<g id="_x32__office_x2C__house_x2C__portfolio_x2C__business_x2C__corporation_x2C__job">
</g>
<g id="_x31__corporate_x2C__rules_x2C__book_x2C__business_x2C__office_x2C__corporation_x2C__job">
</g>
</svg>
