<?xml version="1.0" encoding="utf-8"?>
<!-- Generator: Adobe Illustrator 16.0.0, SVG Export Plug-In . SVG Version: 6.00 Build 0)  -->
<!DOCTYPE svg PUBLIC "-//W3C//DTD SVG 1.1//EN" "http://www.w3.org/Graphics/SVG/1.1/DTD/svg11.dtd">
<svg version="1.1" xmlns="http://www.w3.org/2000/svg" xmlns:xlink="http://www.w3.org/1999/xlink" x="0px" y="0px" width="64px"
	 height="64px" viewBox="0 0 64 64" enable-background="new 0 0 64 64" xml:space="preserve">
<g id="_x35_0_document_x2C__optimization_x2C__documentation_x2C__business_x2C__office_x2C__corporation_x2C__job">
</g>
<g id="_x34_9_human_x2C__resource_x2C__conveyor_x2C__business_x2C__office_x2C__corporation_x2C__job">
</g>
<g id="_x34_8_knowledge_x2C__training_x2C__growth_x2C__book_x2C__business_x2C__office_x2C__corporation">
</g>
<g id="_x34_7_skill_x2C__competence_x2C__experience_x2C__business_x2C__office_x2C__corporation_x2C__job">
</g>
<g id="_x34_6_target_x2C__success_x2C__victory_x2C__business_x2C__office_x2C__corporation_x2C__job">
	<g>
		<polygon fill="#D7E9FF" points="46,7 52,1 52,5 46,11 		"/>
	</g>
	<g>
		<polygon fill="#D7E9FF" points="46,11 52,5 56,5 50,11 		"/>
	</g>
	<g>
		<path fill="#94C1FF" d="M32,28c0,1.66-1.34,3-3,3s-3-1.34-3-3c0-1.65,1.34-3,3-3c0.83,0,1.58,0.34,2.12,0.88
			C31.66,26.43,32,27.17,32,28z"/>
	</g>
	<g>
		<path fill="#D7E9FF" d="M31.12,25.88C30.58,25.34,29.83,25,29,25c-1.66,0-3,1.35-3,3c0,1.66,1.34,3,3,3s3-1.34,3-3
			C32,27.17,31.66,26.43,31.12,25.88z M35.36,21.64C36.99,23.27,38,25.51,38,28c0,4.97-4.03,9-9,9s-9-4.03-9-9s4.03-9,9-9
			C31.48,19,33.74,20.01,35.36,21.64z"/>
	</g>
	<g>
		<path fill="#94C1FF" d="M35.36,21.64C33.74,20.01,31.48,19,29,19c-4.97,0-9,4.03-9,9s4.03,9,9,9s9-4.03,9-9
			C38,25.51,36.99,23.27,35.36,21.64z M39.6,17.4C42.32,20.12,44,23.86,44,28c0,8.29-6.72,15-15,15s-15-6.71-15-15
			c0-8.28,6.72-15,15-15C33.14,13,36.9,14.68,39.6,17.4z"/>
	</g>
	<g>
		<path fill="#D7E9FF" d="M39.6,17.4C36.9,14.68,33.14,13,29,13c-8.28,0-15,6.72-15,15c0,8.29,6.72,15,15,15s15-6.71,15-15
			C44,23.86,42.32,20.12,39.6,17.4z M43.85,13.15C47.65,16.95,50,22.2,50,28c0,9.14-5.84,16.92-14,19.81C33.81,48.58,31.46,49,29,49
			s-4.81-0.42-7-1.19C13.84,44.92,8,37.14,8,28C8,16.4,17.4,7,29,7C34.8,7,40.05,9.35,43.85,13.15z"/>
	</g>
	<g>
		<path fill="#5C9EFF" d="M36,47.81V53l-3,2l-4-2l-4,2l-3-2v-5.19C24.19,48.58,26.54,49,29,49S33.81,48.58,36,47.81z"/>
	</g>
	<g>
		<path fill="#94C1FF" d="M50,63H8v-2c0-4.42,3.58-8,8-8h6l3,2l4-2l4,2l3-2h6c4.42,0,8,3.58,8,8V63z"/>
	</g>
	<g>
		<g>
			<path fill="#5C9EFF" d="M42,53h-4c4.42,0,8,3.58,8,8v2h4v-2C50,56.58,46.42,53,42,53z"/>
		</g>
	</g>
	<g>
		<g>
			<g>
				<g>
					<path fill="#116FFF" d="M29,50C16.869,50,7,40.131,7,28S16.869,6,29,6s22,9.869,22,22S41.131,50,29,50z M29,8
						C17.972,8,9,16.972,9,28s8.972,20,20,20s20-8.972,20-20S40.028,8,29,8z"/>
				</g>
			</g>
			<g>
				<g>
					<path fill="#116FFF" d="M29,44c-8.822,0-16-7.178-16-16s7.178-16,16-16s16,7.178,16,16S37.822,44,29,44z M29,14
						c-7.72,0-14,6.28-14,14s6.28,14,14,14s14-6.28,14-14S36.72,14,29,14z"/>
				</g>
			</g>
			<g>
				<g>
					<path fill="#116FFF" d="M29,38c-5.514,0-10-4.486-10-10s4.486-10,10-10s10,4.486,10,10S34.514,38,29,38z M29,20
						c-4.411,0-8,3.589-8,8s3.589,8,8,8s8-3.589,8-8S33.411,20,29,20z"/>
				</g>
			</g>
			<g>
				<g>
					<path fill="#116FFF" d="M29,32c-2.206,0-4-1.794-4-4s1.794-4,4-4s4,1.794,4,4S31.206,32,29,32z M29,26c-1.103,0-2,0.897-2,2
						s0.897,2,2,2s2-0.897,2-2S30.103,26,29,26z"/>
				</g>
			</g>
		</g>
		<g>
			<g>
				<path fill="#116FFF" d="M8,62.001c-0.553,0-1-0.447-1-1c0-4.963,4.037-9,9-9c0.553,0,1,0.447,1,1s-0.447,1-1,1
					c-3.859,0-7,3.141-7,7C9,61.554,8.553,62.001,8,62.001z"/>
			</g>
			<g>
				<path fill="#116FFF" d="M50,62.002c-0.553,0-1-0.447-1-1c0-3.859-3.141-7-7-7c-0.553,0-1-0.447-1-1s0.447-1,1-1
					c4.963,0,9,4.037,9,9C51,61.555,50.553,62.002,50,62.002z"/>
			</g>
			<g>
				<path fill="#116FFF" d="M22,54.002L22,54.002l-6-0.001c-0.553,0-1-0.448-1-1c0-0.553,0.448-1,1-1l0,0l6,0.001
					c0.553,0,1,0.448,1,1C23,53.555,22.552,54.002,22,54.002z"/>
			</g>
			<g>
				<path fill="#116FFF" d="M42,54.002L42,54.002L36,54c-0.553,0-1-0.448-1-1c0-0.553,0.448-1,1-1l0,0l6,0.002c0.553,0,1,0.448,1,1
					C43,53.555,42.552,54.002,42,54.002z"/>
			</g>
			<g>
				<path fill="#116FFF" d="M8.001,64c-0.552,0-1-0.447-1-0.999L7,61.002c0-0.553,0.447-1.001,0.999-1.001c0.001,0,0.001,0,0.001,0
					c0.552,0,1,0.447,1,1l0.001,1.998C9.001,63.552,8.554,64,8.001,64C8.001,64,8.001,64,8.001,64z"/>
			</g>
			<g>
				<path fill="#116FFF" d="M50,64c-0.553,0-1-0.447-1-1v-1.998c0-0.553,0.447-1,1-1s1,0.447,1,1V63C51,63.553,50.553,64,50,64z"/>
			</g>
		</g>
		<g>
			<path fill="#116FFF" d="M22,54.002c-0.553,0-1-0.447-1-1v-5.197c0-0.553,0.447-1,1-1s1,0.447,1,1v5.197
				C23,53.555,22.553,54.002,22,54.002z"/>
		</g>
		<g>
			<path fill="#116FFF" d="M36,54c-0.553,0-1-0.447-1-1v-5.195c0-0.553,0.447-1,1-1s1,0.447,1,1V53C37,53.553,36.553,54,36,54z"/>
		</g>
		<g>
			<path fill="#116FFF" d="M24.999,56c-0.19,0-0.383-0.055-0.554-0.168l-3-1.998c-0.459-0.306-0.584-0.927-0.277-1.387
				c0.305-0.46,0.925-0.584,1.387-0.277l3,1.998c0.459,0.306,0.584,0.927,0.277,1.387C25.64,55.844,25.322,56,24.999,56z"/>
		</g>
		<g>
			<path fill="#116FFF" d="M25.001,56c-0.367,0-0.72-0.202-0.896-0.553c-0.247-0.494-0.047-1.095,0.447-1.342l4-2
				c0.493-0.245,1.094-0.047,1.342,0.447c0.247,0.494,0.047,1.095-0.447,1.342l-4,2C25.304,55.966,25.151,56,25.001,56z"/>
		</g>
		<g>
			<path fill="#116FFF" d="M33.001,56c-0.323,0-0.641-0.156-0.833-0.445c-0.307-0.46-0.182-1.081,0.277-1.387l3-1.998
				c0.46-0.307,1.081-0.183,1.387,0.277c0.307,0.46,0.182,1.081-0.277,1.387l-3,1.998C33.384,55.945,33.191,56,33.001,56z"/>
		</g>
		<g>
			<path fill="#116FFF" d="M32.999,56c-0.15,0-0.303-0.034-0.446-0.105l-4-2c-0.494-0.247-0.694-0.848-0.447-1.342
				c0.248-0.494,0.849-0.692,1.342-0.447l4,2c0.494,0.247,0.694,0.848,0.447,1.342C33.719,55.798,33.366,56,32.999,56z"/>
		</g>
		<g>
			<path fill="#116FFF" d="M29.03,59c-0.553,0-1.005-0.447-1.005-1s0.442-1,0.994-1h0.011c0.552,0,1,0.447,1,1S29.582,59,29.03,59z"
				/>
		</g>
		<g>
			<path fill="#116FFF" d="M29.03,63c-0.553,0-1.005-0.447-1.005-1s0.442-1,0.994-1h0.011c0.552,0,1,0.447,1,1S29.582,63,29.03,63z"
				/>
		</g>
		<g>
			<path fill="#116FFF" d="M29,29c-0.256,0-0.512-0.098-0.707-0.293c-0.391-0.391-0.391-1.023,0-1.414l25.002-25
				c0.391-0.391,1.023-0.391,1.414,0s0.391,1.023,0,1.414l-25.002,25C29.512,28.902,29.256,29,29,29z"/>
		</g>
		<g>
			<g>
				<path fill="#116FFF" d="M50,12c-0.256,0-0.512-0.098-0.707-0.293c-0.391-0.391-0.391-1.023,0-1.414l6-6
					c0.391-0.391,1.023-0.391,1.414,0s0.391,1.023,0,1.414l-6,6C50.512,11.902,50.256,12,50,12z"/>
			</g>
			<g>
				<path fill="#116FFF" d="M46,12.001c-0.552,0-1-0.447-1-1c0-0.552,0.447-1,1-1L50,10c0.552,0,1,0.447,1,1c0,0.552-0.447,1-1,1
					L46,12.001z"/>
			</g>
			<g>
				<path fill="#116FFF" d="M56,6h-4c-0.553,0-1-0.447-1-1s0.447-1,1-1h4c0.553,0,1,0.447,1,1S56.553,6,56,6z"/>
			</g>
		</g>
		<g>
			<g>
				<path fill="#116FFF" d="M46.001,7.999c-0.256,0-0.512-0.098-0.707-0.293c-0.391-0.391-0.391-1.023,0-1.414l5.999-5.999
					c0.391-0.391,1.023-0.391,1.414,0s0.391,1.023,0,1.414l-5.999,5.999C46.513,7.901,46.257,7.999,46.001,7.999z"/>
			</g>
			<g>
				<path fill="#116FFF" d="M45.999,12L45.999,12c-0.553,0-1-0.448-1-1.001l0.002-4c0-0.553,0.448-1,1-1l0,0c0.553,0,1,0.448,1,1
					l-0.002,4.002C46.999,11.553,46.551,12,45.999,12z"/>
			</g>
			<g>
				<path fill="#116FFF" d="M52.001,6c-0.552,0-1-0.447-1-1L51,1c0-0.552,0.447-1,1-1c0.552,0,1,0.447,1,1l0.001,4
					C53.001,5.552,52.554,6,52.001,6z"/>
			</g>
		</g>
	</g>
</g>
<g id="_x34_5_inbox_x2C__letter_x2C__email_x2C__business_x2C__office_x2C__corporation_x2C__job">
</g>
<g id="_x34_4_document_x2C__workflow_x2C__sharing_x2C__business_x2C__office_x2C__corporation_x2C__job">
</g>
<g id="_x34_3_budget_x2C__allocation_x2C__money_x2C__business_x2C__office_x2C__corporation_x2C__job">
</g>
<g id="_x34_2_case_x2C__task_x2C__project_x2C__business_x2C__office_x2C__corporation_x2C__job">
</g>
<g id="_x34_1_structure_x2C__structuring_x2C__tasks_x2C__business_x2C__office_x2C__corporation_x2C__job">
</g>
<g id="_x34_0_choice_x2C__dilemma_x2C__question_x2C__business_x2C__office_x2C__corporation_x2C__job">
</g>
<g id="_x33_9_workplace_x2C__table_x2C__laptop_x2C__business_x2C__office_x2C__corporation_x2C__job">
</g>
<g id="_x33_8_bribe_x2C__bag_x2C__money_x2C__business_x2C__office_x2C__corporation_x2C__job">
</g>
<g id="_x33_7_corruption_x2C__forage_x2C__money_x2C__business_x2C__office_x2C__corporation_x2C__job">
</g>
<g id="_x33_6_career_x2C__ladder_x2C__success_x2C__business_x2C__office_x2C__corporation_x2C__job">
</g>
<g id="_x33_5_review_x2C__feedback_x2C__rating_x2C__business_x2C__office_x2C__corporation_x2C__job">
</g>
<g id="_x33_4_manipulation_x2C__thread_x2C__puppet_x2C__business_x2C__office_x2C__corporation_x2C__job">
</g>
<g id="_x33_3_location_x2C__map_x2C__pin_x2C__business_x2C__office_x2C__corporation_x2C__job">
</g>
<g id="_x33_2_retirement_x2C__old_x2C__man_x2C__door_x2C__business_x2C__office_x2C__corporation">
</g>
<g id="_x33_1_victory_x2C__success_x2C__medal_x2C__reward_x2C__business_x2C__office_x2C__corporation">
</g>
<g id="_x33_0_dismissal_x2C__box_x2C__door_x2C__business_x2C__office_x2C__corporation_x2C__job">
</g>
<g id="_x32_9_meeting_x2C__discussion_x2C__question_x2C__business_x2C__office_x2C__corporation_x2C__job">
</g>
<g id="_x32_8_strategy_x2C__vision_x2C__eye_x2C__chess_x2C__business_x2C__office_x2C__corporation">
</g>
<g id="_x32_7_board_x2C__task_x2C__process_x2C__business_x2C__office_x2C__corporation_x2C__job">
</g>
<g id="_x32_6_scheme_x2C__board_x2C__structure_x2C__business_x2C__office_x2C__corporation_x2C__job">
</g>
<g id="_x32_5_conflict_x2C__dialog_x2C__discussion_x2C__business_x2C__office_x2C__corporation_x2C__job">
</g>
<g id="_x32_4_documentation_x2C__document_x2C__repository_x2C__business_x2C__office_x2C__corporation_x2C__job">
</g>
<g id="_x32_3_sprint_x2C__programming_x2C__code_x2C__business_x2C__office_x2C__corporation_x2C__job">
</g>
<g id="_x32_2_cram_x2C__tablet_x2C__work_x2C__business_x2C__office_x2C__corporation_x2C__job">
</g>
<g id="_x32_1_leader_x2C__discoverer_x2C__flag_x2C__business_x2C__office_x2C__corporation_x2C__job">
</g>
<g id="_x32_0_rally_x2C__collective_x2C__arm_x2C__business_x2C__office_x2C__corporation_x2C__job">
</g>
<g id="_x31_9_consolidation_x2C__portfolio_x2C__puzzle_x2C__business_x2C__office_x2C__corporation_x2C__job">
</g>
<g id="_x31_8_idea_x2C__creative_x2C__work_x2C__business_x2C__office_x2C__corporation_x2C__job">
</g>
<g id="_x31_7_problem_x2C__stress_x2C__resistance_x2C__business_x2C__office_x2C__corporation_x2C__job">
</g>
<g id="_x31_6_hard_x2C__skills_x2C__skill_x2C__portfolio_x2C__book_x2C__business_x2C__office">
</g>
<g id="_x31_5_time_x2C__management_x2C__clock_x2C__deadline_x2C__business_x2C__office_x2C__corporation">
</g>
<g id="_x31_4_multitasking_x2C__task_x2C__work_x2C__business_x2C__office_x2C__corporation_x2C__job">
</g>
<g id="_x31_3_tranquility_x2C__yoga_x2C__lotus_x2C__posture_x2C__business_x2C__office_x2C__corporation">
</g>
<g id="_x31_2_corporate_x2C__party_x2C__business_x2C__office_x2C__corporation_x2C__job">
</g>
<g id="_x31_1_dialog_x2C__discussion_x2C__work_x2C__business_x2C__office_x2C__corporation_x2C__job">
</g>
<g id="_x31_0_listening_x2C__skill_x2C__dialog_x2C__business_x2C__office_x2C__corporation_x2C__job">
</g>
<g id="_x39__training_x2C__book_x2C__lesson_x2C__business_x2C__office_x2C__corporation_x2C__job">
</g>
<g id="_x38__dress_x2C__code_x2C__shirt_x2C__business_x2C__office_x2C__corporation_x2C__job">
</g>
<g id="_x37__task_x2C__program_x2C__ticket_x2C__business_x2C__office_x2C__corporation_x2C__job">
</g>
<g id="_x36__plan_x2C__graph_x2C__stage_x2C__business_x2C__office_x2C__corporation_x2C__job">
</g>
<g id="_x35__boss_x2C__king_x2C__crown_x2C__business_x2C__office_x2C__corporation_x2C__job">
</g>
<g id="_x34__structure_x2C__structuring_x2C__business_x2C__office_x2C__corporation_x2C__job">
</g>
<g id="_x33__soft_x2C__skills_x2C__communication_x2C__business_x2C__office_x2C__corporation_x2C__job">
</g>
<g id="_x32__office_x2C__house_x2C__portfolio_x2C__business_x2C__corporation_x2C__job">
</g>
<g id="_x31__corporate_x2C__rules_x2C__book_x2C__business_x2C__office_x2C__corporation_x2C__job">
</g>
</svg>
