<?xml version="1.0" encoding="utf-8"?>
<!-- Generator: Adobe Illustrator 16.0.0, SVG Export Plug-In . SVG Version: 6.00 Build 0)  -->
<!DOCTYPE svg PUBLIC "-//W3C//DTD SVG 1.1//EN" "http://www.w3.org/Graphics/SVG/1.1/DTD/svg11.dtd">
<svg version="1.1" xmlns="http://www.w3.org/2000/svg" xmlns:xlink="http://www.w3.org/1999/xlink" x="0px" y="0px" width="64px"
	 height="64px" viewBox="0 0 64 64" enable-background="new 0 0 64 64" xml:space="preserve">
<g id="_x35_0_document_x2C__optimization_x2C__documentation_x2C__business_x2C__office_x2C__corporation_x2C__job">
</g>
<g id="_x34_9_human_x2C__resource_x2C__conveyor_x2C__business_x2C__office_x2C__corporation_x2C__job">
</g>
<g id="_x34_8_knowledge_x2C__training_x2C__growth_x2C__book_x2C__business_x2C__office_x2C__corporation">
	<g>
		<polygon fill="#94C1FF" points="42,48 40,63 24,63 22,48 		"/>
	</g>
	<g>
		<polygon fill="#5C9EFF" points="38,48 36,63 40,63 42,48 		"/>
	</g>
	<g>
		<polygon fill="#94C1FF" points="44,44 44,48 42,48 22,48 20,48 20,44 32,44 		"/>
	</g>
	<g>
		<polygon fill="#5C9EFF" points="40,44 40,48 42,48 44,48 44,44 		"/>
	</g>
	<g>
		<path fill="#D7E9FF" d="M36,34h7c0,2.76-2.24,5-5,5h-6v-1C32,35.79,33.79,34,36,34z"/>
	</g>
	<g>
		<path fill="#D7E9FF" d="M32,33v1h-6c-2.76,0-5-2.24-5-5h7C30.21,29,32,30.79,32,33z"/>
	</g>
	<g>
		<path fill="#94C1FF" d="M29,20c1.66,0,3,1.34,3,3H18V4h3v16H29z"/>
	</g>
	<g>
		<path fill="#94C1FF" d="M46,23H32c0-1.66,1.34-3,3-3h8V4h3V23z"/>
	</g>
	<g>
		<path fill="#FFFFFF" d="M35,20c-1.66,0-3,1.34-3,3V4c0-1.66,1.34-3,3-3h8v3v16H35z"/>
	</g>
	<g>
		<path fill="#FFFFFF" d="M32,4v19c0-1.66-1.34-3-3-3h-8V4V1h8C30.66,1,32,2.34,32,4z"/>
	</g>
	<g>
		<g>
			<path fill="#116FFF" d="M46,24H32c-0.553,0-1-0.447-1-1s0.447-1,1-1h13V5h-2c-0.553,0-1-0.447-1-1s0.447-1,1-1h3
				c0.553,0,1,0.447,1,1v19C47,23.553,46.553,24,46,24z"/>
		</g>
		<g>
			<path fill="#116FFF" d="M32,24H18c-0.553,0-1-0.447-1-1V4c0-0.553,0.447-1,1-1h3c0.553,0,1,0.447,1,1s-0.447,1-1,1h-2v17h13
				c0.553,0,1,0.447,1,1S32.553,24,32,24z"/>
		</g>
		<g>
			<path fill="#116FFF" d="M32,24c-0.553,0-1-0.447-1-1V4c0-0.553,0.447-1,1-1s1,0.447,1,1v19C33,23.553,32.553,24,32,24z"/>
		</g>
		<g>
			<path fill="#116FFF" d="M32,24c-0.553,0-1-0.447-1-1c0-2.206,1.794-4,4-4c0.553,0,1,0.447,1,1s-0.447,1-1,1c-1.103,0-2,0.897-2,2
				C33,23.553,32.553,24,32,24z"/>
		</g>
		<g>
			<path fill="#116FFF" d="M32,5c-0.553,0-1-0.447-1-1c0-2.206,1.794-4,4-4c0.553,0,1,0.447,1,1s-0.447,1-1,1c-1.103,0-2,0.897-2,2
				C33,4.553,32.553,5,32,5z"/>
		</g>
		<g>
			<path fill="#116FFF" d="M43,2h-8c-0.553,0-1-0.447-1-1s0.447-1,1-1h8c0.553,0,1,0.447,1,1S43.553,2,43,2z"/>
		</g>
		<g>
			<path fill="#116FFF" d="M43,21c-0.553,0-1-0.447-1-1V1c0-0.553,0.447-1,1-1s1,0.447,1,1v19C44,20.553,43.553,21,43,21z"/>
		</g>
		<g>
			<path fill="#116FFF" d="M43,21h-8c-0.553,0-1-0.447-1-1s0.447-1,1-1h8c0.553,0,1,0.447,1,1S43.553,21,43,21z"/>
		</g>
		<g>
			<path fill="#116FFF" d="M32,24c-0.553,0-1-0.447-1-1c0-1.103-0.897-2-2-2c-0.553,0-1-0.447-1-1s0.447-1,1-1c2.206,0,4,1.794,4,4
				C33,23.553,32.553,24,32,24z"/>
		</g>
		<g>
			<path fill="#116FFF" d="M32,5c-0.553,0-1-0.447-1-1c0-1.103-0.897-2-2-2c-0.553,0-1-0.447-1-1s0.447-1,1-1c2.206,0,4,1.794,4,4
				C33,4.553,32.553,5,32,5z"/>
		</g>
		<g>
			<path fill="#116FFF" d="M29,2h-8c-0.553,0-1-0.447-1-1s0.447-1,1-1h8c0.553,0,1,0.447,1,1S29.553,2,29,2z"/>
		</g>
		<g>
			<path fill="#116FFF" d="M21,21c-0.553,0-1-0.447-1-1V1c0-0.553,0.447-1,1-1s1,0.447,1,1v19C22,20.553,21.553,21,21,21z"/>
		</g>
		<g>
			<path fill="#116FFF" d="M29,21h-8c-0.553,0-1-0.447-1-1s0.447-1,1-1h8c0.553,0,1,0.447,1,1S29.553,21,29,21z"/>
		</g>
		<g>
			<path fill="#116FFF" d="M32,45c-0.553,0-1-0.447-1-1V23c0-0.553,0.447-1,1-1s1,0.447,1,1v21C33,44.553,32.553,45,32,45z"/>
		</g>
		<g>
			<path fill="#116FFF" d="M44,49H20c-0.553,0-1-0.447-1-1v-4c0-0.553,0.447-1,1-1h24c0.553,0,1,0.447,1,1v4
				C45,48.553,44.553,49,44,49z M21,47h22v-2H21V47z"/>
		</g>
		<g>
			<path fill="#116FFF" d="M23.999,64c-0.494,0-0.923-0.365-0.99-0.868l-2-15c-0.073-0.547,0.312-1.05,0.859-1.123
				c0.555-0.071,1.049,0.312,1.123,0.859l2,15c0.073,0.547-0.312,1.05-0.859,1.123C24.087,63.997,24.043,64,23.999,64z"/>
		</g>
		<g>
			<path fill="#116FFF" d="M40.001,64c-0.044,0-0.088-0.003-0.133-0.009c-0.548-0.073-0.933-0.576-0.859-1.123l2-15
				c0.074-0.548,0.57-0.931,1.123-0.859c0.548,0.073,0.933,0.576,0.859,1.123l-2,15C40.924,63.635,40.495,64,40.001,64z"/>
		</g>
		<g>
			<path fill="#116FFF" d="M40,64H24c-0.553,0-1-0.447-1-1s0.447-1,1-1h16c0.553,0,1,0.447,1,1S40.553,64,40,64z"/>
		</g>
		<g>
			<path fill="#116FFF" d="M32,39c-0.553,0-1-0.447-1-1c0-2.757,2.243-5,5-5c0.553,0,1,0.447,1,1s-0.447,1-1,1c-1.654,0-3,1.346-3,3
				C33,38.553,32.553,39,32,39z"/>
		</g>
		<g>
			<path fill="#116FFF" d="M38,40c-0.553,0-1-0.447-1-1s0.447-1,1-1c2.206,0,4-1.794,4-4c0-0.553,0.447-1,1-1s1,0.447,1,1
				C44,37.309,41.309,40,38,40z"/>
		</g>
		<g>
			<path fill="#116FFF" d="M43,35h-7c-0.553,0-1-0.447-1-1s0.447-1,1-1h7c0.553,0,1,0.447,1,1S43.553,35,43,35z"/>
		</g>
		<g>
			<path fill="#116FFF" d="M38,40h-6c-0.553,0-1-0.447-1-1s0.447-1,1-1h6c0.553,0,1,0.447,1,1S38.553,40,38,40z"/>
		</g>
		<g>
			<path fill="#116FFF" d="M32,34c-0.553,0-1-0.447-1-1c0-1.654-1.346-3-3-3c-0.553,0-1-0.447-1-1s0.447-1,1-1c2.757,0,5,2.243,5,5
				C33,33.553,32.553,34,32,34z"/>
		</g>
		<g>
			<path fill="#116FFF" d="M26,35c-3.309,0-6-2.691-6-6c0-0.553,0.447-1,1-1s1,0.447,1,1c0,2.206,1.794,4,4,4c0.553,0,1,0.447,1,1
				S26.553,35,26,35z"/>
		</g>
		<g>
			<path fill="#116FFF" d="M28,30h-7c-0.553,0-1-0.447-1-1s0.447-1,1-1h7c0.553,0,1,0.447,1,1S28.553,30,28,30z"/>
		</g>
		<g>
			<path fill="#116FFF" d="M32,35h-6c-0.553,0-1-0.447-1-1s0.447-1,1-1h6c0.553,0,1,0.447,1,1S32.553,35,32,35z"/>
		</g>
	</g>
</g>
<g id="_x34_7_skill_x2C__competence_x2C__experience_x2C__business_x2C__office_x2C__corporation_x2C__job">
</g>
<g id="_x34_6_target_x2C__success_x2C__victory_x2C__business_x2C__office_x2C__corporation_x2C__job">
</g>
<g id="_x34_5_inbox_x2C__letter_x2C__email_x2C__business_x2C__office_x2C__corporation_x2C__job">
</g>
<g id="_x34_4_document_x2C__workflow_x2C__sharing_x2C__business_x2C__office_x2C__corporation_x2C__job">
</g>
<g id="_x34_3_budget_x2C__allocation_x2C__money_x2C__business_x2C__office_x2C__corporation_x2C__job">
</g>
<g id="_x34_2_case_x2C__task_x2C__project_x2C__business_x2C__office_x2C__corporation_x2C__job">
</g>
<g id="_x34_1_structure_x2C__structuring_x2C__tasks_x2C__business_x2C__office_x2C__corporation_x2C__job">
</g>
<g id="_x34_0_choice_x2C__dilemma_x2C__question_x2C__business_x2C__office_x2C__corporation_x2C__job">
</g>
<g id="_x33_9_workplace_x2C__table_x2C__laptop_x2C__business_x2C__office_x2C__corporation_x2C__job">
</g>
<g id="_x33_8_bribe_x2C__bag_x2C__money_x2C__business_x2C__office_x2C__corporation_x2C__job">
</g>
<g id="_x33_7_corruption_x2C__forage_x2C__money_x2C__business_x2C__office_x2C__corporation_x2C__job">
</g>
<g id="_x33_6_career_x2C__ladder_x2C__success_x2C__business_x2C__office_x2C__corporation_x2C__job">
</g>
<g id="_x33_5_review_x2C__feedback_x2C__rating_x2C__business_x2C__office_x2C__corporation_x2C__job">
</g>
<g id="_x33_4_manipulation_x2C__thread_x2C__puppet_x2C__business_x2C__office_x2C__corporation_x2C__job">
</g>
<g id="_x33_3_location_x2C__map_x2C__pin_x2C__business_x2C__office_x2C__corporation_x2C__job">
</g>
<g id="_x33_2_retirement_x2C__old_x2C__man_x2C__door_x2C__business_x2C__office_x2C__corporation">
</g>
<g id="_x33_1_victory_x2C__success_x2C__medal_x2C__reward_x2C__business_x2C__office_x2C__corporation">
</g>
<g id="_x33_0_dismissal_x2C__box_x2C__door_x2C__business_x2C__office_x2C__corporation_x2C__job">
</g>
<g id="_x32_9_meeting_x2C__discussion_x2C__question_x2C__business_x2C__office_x2C__corporation_x2C__job">
</g>
<g id="_x32_8_strategy_x2C__vision_x2C__eye_x2C__chess_x2C__business_x2C__office_x2C__corporation">
</g>
<g id="_x32_7_board_x2C__task_x2C__process_x2C__business_x2C__office_x2C__corporation_x2C__job">
</g>
<g id="_x32_6_scheme_x2C__board_x2C__structure_x2C__business_x2C__office_x2C__corporation_x2C__job">
</g>
<g id="_x32_5_conflict_x2C__dialog_x2C__discussion_x2C__business_x2C__office_x2C__corporation_x2C__job">
</g>
<g id="_x32_4_documentation_x2C__document_x2C__repository_x2C__business_x2C__office_x2C__corporation_x2C__job">
</g>
<g id="_x32_3_sprint_x2C__programming_x2C__code_x2C__business_x2C__office_x2C__corporation_x2C__job">
</g>
<g id="_x32_2_cram_x2C__tablet_x2C__work_x2C__business_x2C__office_x2C__corporation_x2C__job">
</g>
<g id="_x32_1_leader_x2C__discoverer_x2C__flag_x2C__business_x2C__office_x2C__corporation_x2C__job">
</g>
<g id="_x32_0_rally_x2C__collective_x2C__arm_x2C__business_x2C__office_x2C__corporation_x2C__job">
</g>
<g id="_x31_9_consolidation_x2C__portfolio_x2C__puzzle_x2C__business_x2C__office_x2C__corporation_x2C__job">
</g>
<g id="_x31_8_idea_x2C__creative_x2C__work_x2C__business_x2C__office_x2C__corporation_x2C__job">
</g>
<g id="_x31_7_problem_x2C__stress_x2C__resistance_x2C__business_x2C__office_x2C__corporation_x2C__job">
</g>
<g id="_x31_6_hard_x2C__skills_x2C__skill_x2C__portfolio_x2C__book_x2C__business_x2C__office">
</g>
<g id="_x31_5_time_x2C__management_x2C__clock_x2C__deadline_x2C__business_x2C__office_x2C__corporation">
</g>
<g id="_x31_4_multitasking_x2C__task_x2C__work_x2C__business_x2C__office_x2C__corporation_x2C__job">
</g>
<g id="_x31_3_tranquility_x2C__yoga_x2C__lotus_x2C__posture_x2C__business_x2C__office_x2C__corporation">
</g>
<g id="_x31_2_corporate_x2C__party_x2C__business_x2C__office_x2C__corporation_x2C__job">
</g>
<g id="_x31_1_dialog_x2C__discussion_x2C__work_x2C__business_x2C__office_x2C__corporation_x2C__job">
</g>
<g id="_x31_0_listening_x2C__skill_x2C__dialog_x2C__business_x2C__office_x2C__corporation_x2C__job">
</g>
<g id="_x39__training_x2C__book_x2C__lesson_x2C__business_x2C__office_x2C__corporation_x2C__job">
</g>
<g id="_x38__dress_x2C__code_x2C__shirt_x2C__business_x2C__office_x2C__corporation_x2C__job">
</g>
<g id="_x37__task_x2C__program_x2C__ticket_x2C__business_x2C__office_x2C__corporation_x2C__job">
</g>
<g id="_x36__plan_x2C__graph_x2C__stage_x2C__business_x2C__office_x2C__corporation_x2C__job">
</g>
<g id="_x35__boss_x2C__king_x2C__crown_x2C__business_x2C__office_x2C__corporation_x2C__job">
</g>
<g id="_x34__structure_x2C__structuring_x2C__business_x2C__office_x2C__corporation_x2C__job">
</g>
<g id="_x33__soft_x2C__skills_x2C__communication_x2C__business_x2C__office_x2C__corporation_x2C__job">
</g>
<g id="_x32__office_x2C__house_x2C__portfolio_x2C__business_x2C__corporation_x2C__job">
</g>
<g id="_x31__corporate_x2C__rules_x2C__book_x2C__business_x2C__office_x2C__corporation_x2C__job">
</g>
</svg>
