<?xml version="1.0" encoding="utf-8"?>
<!-- Generator: Adobe Illustrator 16.0.0, SVG Export Plug-In . SVG Version: 6.00 Build 0)  -->
<!DOCTYPE svg PUBLIC "-//W3C//DTD SVG 1.1//EN" "http://www.w3.org/Graphics/SVG/1.1/DTD/svg11.dtd">
<svg version="1.1" xmlns="http://www.w3.org/2000/svg" xmlns:xlink="http://www.w3.org/1999/xlink" x="0px" y="0px" width="64px"
	 height="64px" viewBox="0 0 64 64" enable-background="new 0 0 64 64" xml:space="preserve">
<g id="_x35_0_document_x2C__optimization_x2C__documentation_x2C__business_x2C__office_x2C__corporation_x2C__job">
</g>
<g id="_x34_9_human_x2C__resource_x2C__conveyor_x2C__business_x2C__office_x2C__corporation_x2C__job">
	<g>
		<path fill="#D7E9FF" d="M57,45c1.11,0,2,0.9,2,2s-0.89,2-2,2H1v-4H57z"/>
	</g>
	<g>
		<path fill="#94C1FF" d="M57,41h-7h-7h-7h-7h-7h-7H1v4h56c1.11,0,2,0.9,2,2s-0.89,2-2,2H1v3v1h7h7h7h7h7h7h7h7c3.32,0,6-2.68,6-6
			S60.32,41,57,41z"/>
	</g>
	<g>
		<path fill="#94C1FF" d="M54,31c1.66,0,3,1.34,3,3v4H41v-4c0-1.66,1.34-3,3-3h2l1,1l2-1l2,1l1-1H54z"/>
	</g>
	<g>
		<g>
			<path fill="#5C9EFF" d="M54,31h-2l-0.444,0.444C52.419,31.971,53,32.912,53,34v4h4v-4C57,32.34,55.66,31,54,31z"/>
		</g>
	</g>
	<g>
		<path fill="#FFFFFF" d="M49,29c1.07,0,2.09-0.24,3-0.68V31l-1,1l-2-1l-2,1l-1-1v-2.68C46.91,28.76,47.93,29,49,29z"/>
	</g>
	<g>
		<path fill="#D7E9FF" d="M56,19.91V22c0,2.8-1.63,5.2-4,6.32C51.09,28.76,50.07,29,49,29s-2.09-0.24-3-0.68
			C43.63,27.2,42,24.8,42,22v-2.09l2-1.891V18c0,0,2.67,1.09,5.39,1.09c2.551,0,4.37-0.97,4.591-1.09L54,18.01L56,19.91z"/>
	</g>
	<g>
		<path fill="#94C1FF" d="M56,19v0.91l-2-1.9L53.98,18c-0.221,0.12-2.04,1.09-4.591,1.09C46.67,19.09,44,18,44,18v0.02l-2,1.891V19
			c0-3.87,3.14-7,7-7C52.87,12,56,15.13,56,19z"/>
	</g>
	<g>
		<path fill="#94C1FF" d="M53.98,18c-0.135,0.073-0.871,0.463-2.001,0.755C51.982,18.838,52,18.917,52,19v0.91V22
			c0,2.8-1.63,5.2-4,6.32c-0.319,0.154-0.656,0.274-1,0.378c0.002,0,0.004,0.001,0.006,0.001c0.293,0.088,0.595,0.154,0.901,0.205
			c0.038,0.006,0.076,0.015,0.114,0.02C48.342,28.972,48.668,29,49,29c1.07,0,2.09-0.24,3-0.68c2.37-1.12,4-3.521,4-6.32v-2.09
			l-2-1.9L53.98,18z"/>
	</g>
	<g>
		<path fill="#5C9EFF" d="M49,12c-0.316,0-0.626,0.027-0.932,0.069c-0.064,0.009-0.128,0.019-0.191,0.029
			c-0.293,0.048-0.582,0.108-0.862,0.191c-0.004,0.001-0.008,0.002-0.012,0.003c2.815,0.838,4.87,3.398,4.977,6.462
			c1.13-0.292,1.866-0.682,2.001-0.755L54,18.01l2,1.9V19C56,15.13,52.87,12,49,12z"/>
	</g>
	<g>
		<path fill="#94C1FF" d="M36,19.91l-2-1.9L33.98,18c-0.221,0.12-2.04,1.09-4.591,1.09C26.67,19.09,24,18,24,18v0.02l-2,1.891V17
			c0-3.32,2.68-6,6-6h5v3c1.66,0,3,1.34,3,3V19.91z"/>
	</g>
	<g>
		<g>
			<path fill="#5C9EFF" d="M33,14v-3h-4v5c1.66,0,3,0.34,3,2v0.75c1.117-0.293,1.847-0.677,1.98-0.75L34,18.01l2,1.9V17
				C36,15.34,34.66,14,33,14z"/>
		</g>
	</g>
	<g>
		<path fill="#D7E9FF" d="M36,19.91V22c0,2.8-1.63,5.2-4,6.32C31.09,28.76,30.07,29,29,29s-2.09-0.24-3-0.68
			C23.63,27.2,22,24.8,22,22v-2.09l2-1.891V18c0,0,2.67,1.09,5.39,1.09c2.551,0,4.37-0.97,4.591-1.09L34,18.01L36,19.91z"/>
	</g>
	<g>
		<path fill="#94C1FF" d="M34,18.01L33.98,18c-0.134,0.073-0.863,0.457-1.98,0.75V22c0,2.8-1.63,5.2-4,6.32
			c-0.319,0.154-0.656,0.274-1,0.378C27.636,28.889,28.306,29,29,29c1.07,0,2.09-0.24,3-0.68c2.37-1.12,4-3.521,4-6.32v-2.09
			L34,18.01z"/>
	</g>
	<g>
		<path fill="#94C1FF" d="M29,29c1.07,0,2.09-0.24,3-0.68V31l-1,1l-2-1l-2,1l-1-1v-2.68C26.91,28.76,27.93,29,29,29z"/>
	</g>
	<g>
		<path fill="#94C1FF" d="M34,31c1.66,0,3,1.34,3,3v4H21v-4c0-1.66,1.34-3,3-3h2l1,1l2-1l2,1l1-1H34z"/>
	</g>
	<g>
		<g>
			<path fill="#5C9EFF" d="M34,31h-2l-0.444,0.444C32.419,31.971,33,32.912,33,34v4h4v-4C37,32.34,35.66,31,34,31z"/>
		</g>
	</g>
	<g>
		<path fill="#FFFFFF" d="M14,31c1.66,0,3,1.34,3,3v4H1v-4c0-1.66,1.34-3,3-3h2l1,1l2-1l2,1l1-1H14z"/>
	</g>
	<g>
		<g>
			<path fill="#D7E9FF" d="M14,31h-2l-0.444,0.444C12.419,31.971,13,32.912,13,34v4h4v-4C17,32.34,15.66,31,14,31z"/>
		</g>
	</g>
	<g>
		<path fill="#FFFFFF" d="M12,28.32V31l-1,1l-2-1l-2,1l-1-1v-2.68V28.31c0.91,0.44,1.93,0.681,3,0.681s2.09-0.24,3-0.681V28.32z"/>
	</g>
	<g>
		<path fill="#D7E9FF" d="M16,19.87V22c0,2.79-1.63,5.2-4,6.31c-0.91,0.44-1.93,0.681-3,0.681s-2.09-0.24-3-0.681
			C3.63,27.2,2,24.79,2,22v-2.86c5.81,0.67,8.13-1.27,10-1.659C13.24,17.22,14.28,17.63,16,19.87z"/>
	</g>
	<g>
		<path fill="#94C1FF" d="M12,17.48V22c0,2.79-1.63,5.2-4,6.31c-0.319,0.154-0.656,0.274-1,0.378c0.636,0.191,1.306,0.303,2,0.303
			c1.07,0,2.09-0.24,3-0.681c2.37-1.109,4-3.52,4-6.31v-2.13C14.28,17.63,13.24,17.22,12,17.48z"/>
	</g>
	<g>
		<path fill="#5C9EFF" d="M16,19.87c-1.72-2.24-2.76-2.65-4-2.39l1.99-4.07C15.24,14.74,16,16.54,16,18.5V19.87z"/>
	</g>
	<g>
		<path fill="#94C1FF" d="M2,19.14C1.68,19.1,1.35,19.06,1,19v-0.5C1,14.36,4.36,11,8.5,11c2.18,0,4.14,0.93,5.49,2.41L12,17.48
			C10.13,17.87,7.81,19.81,2,19.14z"/>
	</g>
	<g>
		<path fill="#5C9EFF" d="M8.5,11c-0.328,0-0.65,0.026-0.967,0.069c-0.046,0.006-0.091,0.015-0.137,0.021
			c-0.306,0.048-0.606,0.108-0.898,0.189c0,0-0.001,0-0.002,0C7.86,11.656,9.069,12.4,9.99,13.41c1.033,1.1,1.724,2.522,1.935,4.089
			c0.024-0.005,0.051-0.014,0.075-0.019l1.99-4.07C12.64,11.93,10.68,11,8.5,11z"/>
	</g>
	<g>
		<g>
			<g>
				<path fill="#116FFF" d="M57,50c-0.553,0-1-0.447-1-1s0.447-1,1-1c0.552,0,1-0.448,1-1s-0.448-1-1-1c-0.553,0-1-0.447-1-1
					s0.447-1,1-1c1.654,0,3,1.346,3,3S58.654,50,57,50z"/>
			</g>
			<g>
				<path fill="#116FFF" d="M57,54c-0.553,0-1-0.447-1-1s0.447-1,1-1c2.757,0,5-2.243,5-5s-2.243-5-5-5c-0.553,0-1-0.447-1-1
					s0.447-1,1-1c3.859,0,7,3.141,7,7S60.859,54,57,54z"/>
			</g>
			<g>
				<path fill="#116FFF" d="M57,42H1c-0.553,0-1-0.447-1-1s0.447-1,1-1h56c0.553,0,1,0.447,1,1S57.553,42,57,42z"/>
			</g>
			<g>
				<path fill="#116FFF" d="M57,54H1c-0.553,0-1-0.447-1-1s0.447-1,1-1h56c0.553,0,1,0.447,1,1S57.553,54,57,54z"/>
			</g>
			<g>
				<path fill="#116FFF" d="M57,54c-0.553,0-1-0.447-1-1v-1c0-0.553,0.447-1,1-1s1,0.447,1,1v1C58,53.553,57.553,54,57,54z"/>
			</g>
			<g>
				<path fill="#116FFF" d="M50,54c-0.553,0-1-0.447-1-1v-1c0-0.553,0.447-1,1-1s1,0.447,1,1v1C51,53.553,50.553,54,50,54z"/>
			</g>
			<g>
				<path fill="#116FFF" d="M43,54c-0.553,0-1-0.447-1-1v-1c0-0.553,0.447-1,1-1s1,0.447,1,1v1C44,53.553,43.553,54,43,54z"/>
			</g>
			<g>
				<path fill="#116FFF" d="M36,54c-0.553,0-1-0.447-1-1v-1c0-0.553,0.447-1,1-1s1,0.447,1,1v1C37,53.553,36.553,54,36,54z"/>
			</g>
			<g>
				<path fill="#116FFF" d="M29,54c-0.553,0-1-0.447-1-1v-1c0-0.553,0.447-1,1-1s1,0.447,1,1v1C30,53.553,29.553,54,29,54z"/>
			</g>
			<g>
				<path fill="#116FFF" d="M22,54c-0.553,0-1-0.447-1-1v-1c0-0.553,0.447-1,1-1s1,0.447,1,1v1C23,53.553,22.553,54,22,54z"/>
			</g>
			<g>
				<path fill="#116FFF" d="M15,54c-0.553,0-1-0.447-1-1v-1c0-0.553,0.447-1,1-1s1,0.447,1,1v1C16,53.553,15.553,54,15,54z"/>
			</g>
			<g>
				<path fill="#116FFF" d="M8,54c-0.553,0-1-0.447-1-1v-1c0-0.553,0.447-1,1-1s1,0.447,1,1v1C9,53.553,8.553,54,8,54z"/>
			</g>
			<g>
				<path fill="#116FFF" d="M1,54c-0.553,0-1-0.447-1-1v-1c0-0.553,0.447-1,1-1s1,0.447,1,1v1C2,53.553,1.553,54,1,54z"/>
			</g>
			<g>
				<path fill="#116FFF" d="M50,43c-0.553,0-1-0.447-1-1v-1c0-0.553,0.447-1,1-1s1,0.447,1,1v1C51,42.553,50.553,43,50,43z"/>
			</g>
			<g>
				<path fill="#116FFF" d="M43,43c-0.553,0-1-0.447-1-1v-1c0-0.553,0.447-1,1-1s1,0.447,1,1v1C44,42.553,43.553,43,43,43z"/>
			</g>
			<g>
				<path fill="#116FFF" d="M22,43c-0.553,0-1-0.447-1-1v-1c0-0.553,0.447-1,1-1s1,0.447,1,1v1C23,42.553,22.553,43,22,43z"/>
			</g>
			<g>
				<path fill="#116FFF" d="M15,43c-0.553,0-1-0.447-1-1v-1c0-0.553,0.447-1,1-1s1,0.447,1,1v1C16,42.553,15.553,43,15,43z"/>
			</g>
			<g>
				<path fill="#116FFF" d="M1,43c-0.553,0-1-0.447-1-1v-1c0-0.553,0.447-1,1-1s1,0.447,1,1v1C2,42.553,1.553,43,1,43z"/>
			</g>
			<g>
				<path fill="#116FFF" d="M63,48h-1c-0.553,0-1-0.447-1-1s0.447-1,1-1h1c0.553,0,1,0.447,1,1S63.553,48,63,48z"/>
			</g>
			<g>
				<path fill="#116FFF" d="M57,43c-0.553,0-1-0.447-1-1v-1c0-0.553,0.447-1,1-1s1,0.447,1,1v1C58,42.553,57.553,43,57,43z"/>
			</g>
			<g>
				<path fill="#116FFF" d="M36,43c-0.553,0-1-0.447-1-1v-1c0-0.553,0.447-1,1-1s1,0.447,1,1v1C37,42.553,36.553,43,36,43z"/>
			</g>
			<g>
				<path fill="#116FFF" d="M29,43c-0.553,0-1-0.447-1-1v-1c0-0.553,0.447-1,1-1s1,0.447,1,1v1C30,42.553,29.553,43,29,43z"/>
			</g>
			<g>
				<path fill="#116FFF" d="M8,43c-0.553,0-1-0.447-1-1v-1c0-0.553,0.447-1,1-1s1,0.447,1,1v1C9,42.553,8.553,43,8,43z"/>
			</g>
			<g>
				<path fill="#116FFF" d="M57,46H1c-0.553,0-1-0.447-1-1s0.447-1,1-1h56c0.553,0,1,0.447,1,1S57.553,46,57,46z"/>
			</g>
			<g>
				<path fill="#116FFF" d="M57,50H1c-0.553,0-1-0.447-1-1s0.447-1,1-1h56c0.553,0,1,0.447,1,1S57.553,50,57,50z"/>
			</g>
		</g>
		<g>
			<g>
				<path fill="#116FFF" d="M2,23c-0.553,0-1-0.447-1-1v-2.867c0-0.553,0.447-1,1-1s1,0.447,1,1V22C3,22.553,2.553,23,2,23z"/>
			</g>
			<g>
				<path fill="#116FFF" d="M16,23c-0.553,0-1-0.447-1-1v-3.5c0-0.553,0.447-1,1-1s1,0.447,1,1V22C17,22.553,16.553,23,16,23z"/>
			</g>
			<g>
				<path fill="#116FFF" d="M16,19.5c-0.553,0-1-0.447-1-1c0-3.584-2.916-6.5-6.5-6.5S2,14.916,2,18.5c0,0.553-0.447,1-1,1
					s-1-0.447-1-1C0,13.813,3.813,10,8.5,10s8.5,3.813,8.5,8.5C17,19.053,16.553,19.5,16,19.5z"/>
			</g>
			<g>
				<path fill="#116FFF" d="M16.001,20.871c-0.301,0-0.598-0.135-0.795-0.392c-1.931-2.523-2.456-2.313-4.414-1.538
					c-1.879,0.743-4.717,1.87-9.948,1.042c-0.545-0.086-0.918-0.598-0.831-1.144c0.085-0.545,0.6-0.921,1.144-0.831
					c4.693,0.741,7.123-0.224,8.899-0.927c2.408-0.955,4.024-1.363,6.738,2.181c0.336,0.438,0.253,1.066-0.186,1.402
					C16.427,20.804,16.213,20.871,16.001,20.871z"/>
			</g>
			<g>
				<path fill="#116FFF" d="M11.999,18.477c-0.147,0-0.298-0.033-0.439-0.103c-0.496-0.243-0.7-0.843-0.457-1.338l2-4.072
					c0.242-0.496,0.841-0.7,1.338-0.457c0.496,0.243,0.7,0.843,0.457,1.338l-2,4.072C12.724,18.271,12.368,18.477,11.999,18.477z"/>
			</g>
			<g>
				<path fill="#116FFF" d="M1,34.996c-0.553,0-1-0.447-1-1c0-2.206,1.794-4,4-4c0.553,0,1,0.447,1,1s-0.447,1-1,1
					c-1.103,0-2,0.897-2,2C2,34.549,1.553,34.996,1,34.996z"/>
			</g>
			<g>
				<path fill="#116FFF" d="M6,32.002H4c-0.553,0-1-0.447-1-1s0.447-1,1-1h2c0.553,0,1,0.447,1,1S6.553,32.002,6,32.002z"/>
			</g>
			<g>
				<path fill="#116FFF" d="M1,39c-0.553,0-1-0.447-1-1v-4.004c0-0.553,0.447-1,1-1s1,0.447,1,1V38C2,38.553,1.553,39,1,39z"/>
			</g>
			<g>
				<path fill="#116FFF" d="M17,34.996c-0.553,0-1-0.447-1-1c0-1.103-0.897-2-2-2c-0.553,0-1-0.447-1-1s0.447-1,1-1
					c2.206,0,4,1.794,4,4C18,34.549,17.553,34.996,17,34.996z"/>
			</g>
			<g>
				<path fill="#116FFF" d="M14,32.002h-2c-0.553,0-1-0.447-1-1s0.447-1,1-1h2c0.553,0,1,0.447,1,1S14.553,32.002,14,32.002z"/>
			</g>
			<g>
				<path fill="#116FFF" d="M17,39c-0.553,0-1-0.447-1-1v-4.004c0-0.553,0.447-1,1-1s1,0.447,1,1V38C18,38.553,17.553,39,17,39z"/>
			</g>
			<g>
				<path fill="#116FFF" d="M17,39H1c-0.553,0-1-0.447-1-1s0.447-1,1-1h16c0.553,0,1,0.447,1,1S17.553,39,17,39z"/>
			</g>
			<g>
				<path fill="#116FFF" d="M6,32.002c-0.553,0-1-0.447-1-1v-2.684c0-0.553,0.447-1,1-1s1,0.447,1,1v2.684
					C7,31.555,6.553,32.002,6,32.002z"/>
			</g>
			<g>
				<path fill="#116FFF" d="M12,31.996c-0.553,0-1-0.447-1-1v-2.678c0-0.553,0.447-1,1-1s1,0.447,1,1v2.678
					C13,31.549,12.553,31.996,12,31.996z"/>
			</g>
			<g>
				<path fill="#116FFF" d="M9,29.992c-4.411,0-8-3.587-8-7.996c0-0.553,0.447-1,1-1s1,0.447,1,1c0,3.307,2.691,5.996,6,5.996
					s6-2.689,6-5.996c0-0.553,0.447-1,1-1s1,0.447,1,1C17,26.405,13.411,29.992,9,29.992z"/>
			</g>
			<g>
				<path fill="#116FFF" d="M7.001,33c-0.367,0-0.72-0.202-0.896-0.553c-0.247-0.494-0.047-1.095,0.447-1.342l2-1
					c0.494-0.245,1.094-0.047,1.342,0.447c0.247,0.494,0.047,1.095-0.447,1.342l-2,1C7.304,32.966,7.151,33,7.001,33z"/>
			</g>
			<g>
				<path fill="#116FFF" d="M11,33c-0.255,0-0.511-0.097-0.706-0.292c-0.391-0.39-0.393-1.022-0.002-1.414l1-1.004
					c0.39-0.389,1.022-0.394,1.414-0.002c0.391,0.39,0.393,1.022,0.002,1.414l-1,1.004C11.513,32.901,11.257,33,11,33z"/>
			</g>
			<g>
				<path fill="#116FFF" d="M7,33c-0.257,0-0.513-0.098-0.708-0.294l-1-1.004c-0.391-0.392-0.389-1.024,0.002-1.414
					c0.392-0.394,1.024-0.39,1.414,0.002l1,1.004c0.391,0.392,0.389,1.024-0.002,1.414C7.511,32.903,7.255,33,7,33z"/>
			</g>
			<g>
				<path fill="#116FFF" d="M10.999,33c-0.15,0-0.303-0.034-0.446-0.105l-2-1c-0.494-0.247-0.694-0.848-0.447-1.342
					c0.248-0.494,0.847-0.692,1.342-0.447l2,1c0.494,0.247,0.694,0.848,0.447,1.342C11.719,32.798,11.366,33,10.999,33z"/>
			</g>
		</g>
		<g>
			<g>
				<path fill="#116FFF" d="M21,34.996c-0.553,0-1-0.447-1-1c0-2.206,1.794-4,4-4c0.553,0,1,0.447,1,1s-0.447,1-1,1
					c-1.103,0-2,0.897-2,2C22,34.549,21.553,34.996,21,34.996z"/>
			</g>
			<g>
				<path fill="#116FFF" d="M26,32.002h-2c-0.553,0-1-0.447-1-1s0.447-1,1-1h2c0.553,0,1,0.447,1,1S26.553,32.002,26,32.002z"/>
			</g>
			<g>
				<path fill="#116FFF" d="M21,39c-0.553,0-1-0.447-1-1v-4.004c0-0.553,0.447-1,1-1s1,0.447,1,1V38C22,38.553,21.553,39,21,39z"/>
			</g>
			<g>
				<path fill="#116FFF" d="M37,34.996c-0.553,0-1-0.447-1-1c0-1.103-0.897-2-2-2c-0.553,0-1-0.447-1-1s0.447-1,1-1
					c2.206,0,4,1.794,4,4C38,34.549,37.553,34.996,37,34.996z"/>
			</g>
			<g>
				<path fill="#116FFF" d="M34,32.002h-2c-0.553,0-1-0.447-1-1s0.447-1,1-1h2c0.553,0,1,0.447,1,1S34.553,32.002,34,32.002z"/>
			</g>
			<g>
				<path fill="#116FFF" d="M37,39c-0.553,0-1-0.447-1-1v-4.004c0-0.553,0.447-1,1-1s1,0.447,1,1V38C38,38.553,37.553,39,37,39z"/>
			</g>
			<g>
				<path fill="#116FFF" d="M37,39H21c-0.553,0-1-0.447-1-1s0.447-1,1-1h16c0.553,0,1,0.447,1,1S37.553,39,37,39z"/>
			</g>
			<g>
				<path fill="#116FFF" d="M26,32.002c-0.553,0-1-0.447-1-1v-2.684c0-0.553,0.447-1,1-1s1,0.447,1,1v2.684
					C27,31.555,26.553,32.002,26,32.002z"/>
			</g>
			<g>
				<path fill="#116FFF" d="M32,31.996c-0.553,0-1-0.447-1-1v-2.678c0-0.553,0.447-1,1-1s1,0.447,1,1v2.678
					C33,31.549,32.553,31.996,32,31.996z"/>
			</g>
			<g>
				<path fill="#116FFF" d="M27.001,32.996c-0.367,0-0.72-0.202-0.896-0.553c-0.247-0.494-0.047-1.095,0.447-1.342l2-1
					c0.494-0.245,1.094-0.047,1.342,0.447c0.247,0.494,0.047,1.095-0.447,1.342l-2,1C27.304,32.962,27.151,32.996,27.001,32.996z"/>
			</g>
			<g>
				<path fill="#116FFF" d="M31,32.996c-0.256,0-0.512-0.098-0.707-0.293c-0.391-0.391-0.391-1.023,0-1.414l1-1
					c0.391-0.391,1.023-0.391,1.414,0s0.391,1.023,0,1.414l-1,1C31.512,32.898,31.256,32.996,31,32.996z"/>
			</g>
			<g>
				<path fill="#116FFF" d="M27,32.996c-0.256,0-0.512-0.098-0.707-0.293l-1-1c-0.391-0.391-0.391-1.023,0-1.414
					s1.023-0.391,1.414,0l1,1c0.391,0.391,0.391,1.023,0,1.414C27.512,32.898,27.256,32.996,27,32.996z"/>
			</g>
			<g>
				<path fill="#116FFF" d="M30.999,32.996c-0.15,0-0.303-0.034-0.446-0.105l-2-1c-0.494-0.247-0.694-0.848-0.447-1.342
					c0.248-0.494,0.848-0.692,1.342-0.447l2,1c0.494,0.247,0.694,0.848,0.447,1.342C31.719,32.794,31.366,32.996,30.999,32.996z"/>
			</g>
			<g>
				<path fill="#116FFF" d="M29.389,20.091c-2.878,0-5.649-1.117-5.767-1.165c-0.511-0.208-0.756-0.791-0.548-1.303
					c0.208-0.511,0.791-0.762,1.303-0.549c0.025,0.01,2.535,1.017,5.012,1.017c2.39,0,4.096-0.957,4.112-0.967
					c0.477-0.274,1.089-0.11,1.364,0.368c0.274,0.478,0.113,1.086-0.363,1.362C34.415,18.905,32.341,20.091,29.389,20.091z"/>
			</g>
			<g>
				<g>
					<path fill="#116FFF" d="M29,30c-4.411,0-8-3.589-8-8c0-0.553,0.447-1,1-1s1,0.447,1,1c0,3.309,2.691,6,6,6s6-2.691,6-6
						c0-0.553,0.447-1,1-1s1,0.447,1,1C37,26.411,33.411,30,29,30z"/>
				</g>
				<g>
					<path fill="#116FFF" d="M22,23c-0.553,0-1-0.447-1-1v-5c0-0.553,0.447-1,1-1s1,0.447,1,1v5C23,22.553,22.553,23,22,23z"/>
				</g>
				<g>
					<path fill="#116FFF" d="M36,23L36,23c-0.553,0-1-0.448-1-1l0.002-4.999c0-0.553,0.448-1,1-1l0,0c0.553,0,1,0.448,1,1L37,22
						C37,22.553,36.552,23,36,23z"/>
				</g>
			</g>
			<g>
				<g>
					<path fill="#116FFF" d="M36.002,18.001c-0.553,0-1-0.447-1-1C35.002,15.897,34.104,15,33,15c-0.553,0-1-0.447-1-1s0.447-1,1-1
						c2.207,0,4.002,1.795,4.002,4.001C37.002,17.554,36.555,18.001,36.002,18.001z"/>
				</g>
				<g>
					<path fill="#116FFF" d="M33,15c-0.553,0-1-0.447-1-1v-3c0-0.553,0.447-1,1-1s1,0.447,1,1v3C34,14.553,33.553,15,33,15z"/>
				</g>
				<g>
					<path fill="#116FFF" d="M22,18c-0.553,0-1-0.447-1-1c0-3.859,3.141-7,7-7c0.553,0,1,0.447,1,1s-0.447,1-1,1
						c-2.757,0-5,2.243-5,5C23,17.553,22.553,18,22,18z"/>
				</g>
				<g>
					<g>
						<path fill="#116FFF" d="M36,20.908c-0.247,0-0.495-0.091-0.688-0.274l-2-1.898c-0.4-0.381-0.417-1.014-0.037-1.414
							c0.382-0.4,1.014-0.417,1.414-0.037l2,1.898c0.4,0.381,0.417,1.014,0.037,1.414C36.528,20.804,36.265,20.908,36,20.908z"/>
					</g>
					<g>
						<path fill="#116FFF" d="M22,20.908c-0.266,0-0.53-0.105-0.727-0.313c-0.38-0.401-0.361-1.034,0.04-1.414l2-1.889
							c0.401-0.378,1.035-0.359,1.413,0.041c0.38,0.401,0.361,1.034-0.04,1.414l-2,1.889C22.493,20.817,22.246,20.908,22,20.908z"/>
					</g>
				</g>
			</g>
			<g>
				<path fill="#116FFF" d="M33,12h-5c-0.553,0-1-0.447-1-1s0.447-1,1-1h5c0.553,0,1,0.447,1,1S33.553,12,33,12z"/>
			</g>
		</g>
		<g>
			<path fill="#116FFF" d="M41,34.996c-0.553,0-1-0.447-1-1c0-2.206,1.794-4,4-4c0.553,0,1,0.447,1,1s-0.447,1-1,1
				c-1.103,0-2,0.897-2,2C42,34.549,41.553,34.996,41,34.996z"/>
		</g>
		<g>
			<path fill="#116FFF" d="M46,32.002h-2c-0.553,0-1-0.447-1-1s0.447-1,1-1h2c0.553,0,1,0.447,1,1S46.553,32.002,46,32.002z"/>
		</g>
		<g>
			<path fill="#116FFF" d="M41,39c-0.553,0-1-0.447-1-1v-4.004c0-0.553,0.447-1,1-1s1,0.447,1,1V38C42,38.553,41.553,39,41,39z"/>
		</g>
		<g>
			<path fill="#116FFF" d="M57,34.996c-0.553,0-1-0.447-1-1c0-1.103-0.897-2-2-2c-0.553,0-1-0.447-1-1s0.447-1,1-1
				c2.206,0,4,1.794,4,4C58,34.549,57.553,34.996,57,34.996z"/>
		</g>
		<g>
			<path fill="#116FFF" d="M54,32.002h-2c-0.553,0-1-0.447-1-1s0.447-1,1-1h2c0.553,0,1,0.447,1,1S54.553,32.002,54,32.002z"/>
		</g>
		<g>
			<path fill="#116FFF" d="M57,39c-0.553,0-1-0.447-1-1v-4.004c0-0.553,0.447-1,1-1s1,0.447,1,1V38C58,38.553,57.553,39,57,39z"/>
		</g>
		<g>
			<path fill="#116FFF" d="M57,39H41c-0.553,0-1-0.447-1-1s0.447-1,1-1h16c0.553,0,1,0.447,1,1S57.553,39,57,39z"/>
		</g>
		<g>
			<path fill="#116FFF" d="M46,32.002c-0.553,0-1-0.447-1-1v-2.684c0-0.553,0.447-1,1-1s1,0.447,1,1v2.684
				C47,31.555,46.553,32.002,46,32.002z"/>
		</g>
		<g>
			<path fill="#116FFF" d="M52,31.996c-0.553,0-1-0.447-1-1v-2.678c0-0.553,0.447-1,1-1s1,0.447,1,1v2.678
				C53,31.549,52.553,31.996,52,31.996z"/>
		</g>
		<g>
			<path fill="#116FFF" d="M47.001,32.996c-0.367,0-0.72-0.202-0.896-0.553c-0.247-0.494-0.047-1.095,0.447-1.342l2-1
				c0.493-0.245,1.094-0.047,1.342,0.447c0.247,0.494,0.047,1.095-0.447,1.342l-2,1C47.304,32.962,47.151,32.996,47.001,32.996z"/>
		</g>
		<g>
			<path fill="#116FFF" d="M51,32.996c-0.256,0-0.512-0.098-0.707-0.293c-0.391-0.391-0.391-1.023,0-1.414l1-1
				c0.391-0.391,1.023-0.391,1.414,0s0.391,1.023,0,1.414l-1,1C51.512,32.898,51.256,32.996,51,32.996z"/>
		</g>
		<g>
			<path fill="#116FFF" d="M47,32.996c-0.256,0-0.512-0.098-0.707-0.293l-1-1c-0.391-0.391-0.391-1.023,0-1.414s1.023-0.391,1.414,0
				l1,1c0.391,0.391,0.391,1.023,0,1.414C47.512,32.898,47.256,32.996,47,32.996z"/>
		</g>
		<g>
			<path fill="#116FFF" d="M50.999,32.996c-0.15,0-0.303-0.034-0.446-0.105l-2-1c-0.494-0.247-0.694-0.848-0.447-1.342
				c0.248-0.494,0.849-0.692,1.342-0.447l2,1c0.494,0.247,0.694,0.848,0.447,1.342C51.719,32.794,51.366,32.996,50.999,32.996z"/>
		</g>
		<g>
			<path fill="#116FFF" d="M49.389,20.091c-2.878,0-5.649-1.117-5.767-1.165c-0.511-0.208-0.756-0.791-0.548-1.303
				c0.208-0.511,0.791-0.762,1.303-0.549c0.025,0.01,2.535,1.017,5.012,1.017c2.39,0,4.096-0.957,4.112-0.967
				c0.478-0.274,1.089-0.11,1.364,0.368c0.274,0.478,0.113,1.086-0.363,1.362C54.415,18.905,52.341,20.091,49.389,20.091z"/>
		</g>
		<g>
			<g>
				<path fill="#116FFF" d="M49,30c-4.411,0-8-3.589-8-8c0-0.553,0.447-1,1-1s1,0.447,1,1c0,3.309,2.691,6,6,6s6-2.691,6-6
					c0-0.553,0.447-1,1-1s1,0.447,1,1C57,26.411,53.411,30,49,30z"/>
			</g>
			<g>
				<path fill="#116FFF" d="M42,23c-0.553,0-1-0.447-1-1v-3c0-0.553,0.447-1,1-1s1,0.447,1,1v3C43,22.553,42.553,23,42,23z"/>
			</g>
			<g>
				<path fill="#116FFF" d="M56,23C56,23,56,23,56,23c-0.553,0-1-0.448-1-1.001L55.002,19c0-0.552,0.448-0.999,1-0.999
					c0,0,0,0,0.001,0c0.552,0,0.999,0.448,0.999,1.001L57,22.001C57,22.553,56.552,23,56,23z"/>
			</g>
		</g>
		<g>
			<path fill="#116FFF" d="M56.002,20c-0.553,0-1-0.447-1-1c0-3.309-2.691-6-6-6s-6,2.691-6,6c0,0.553-0.447,1-1,1s-1-0.447-1-1
				c0-4.411,3.589-8,8-8s8,3.589,8,8C57.002,19.553,56.555,20,56.002,20z"/>
		</g>
		<g>
			<g>
				<path fill="#116FFF" d="M56,20.908c-0.247,0-0.495-0.091-0.688-0.274l-2-1.898c-0.4-0.381-0.417-1.014-0.037-1.414
					c0.381-0.4,1.014-0.417,1.414-0.037l2,1.898c0.4,0.381,0.417,1.014,0.037,1.414C56.528,20.804,56.265,20.908,56,20.908z"/>
			</g>
			<g>
				<path fill="#116FFF" d="M42,20.908c-0.266,0-0.53-0.105-0.727-0.313c-0.38-0.401-0.361-1.034,0.04-1.414l2-1.889
					c0.402-0.378,1.035-0.359,1.413,0.041c0.38,0.401,0.361,1.034-0.04,1.414l-2,1.889C42.493,20.817,42.246,20.908,42,20.908z"/>
			</g>
		</g>
	</g>
</g>
<g id="_x34_8_knowledge_x2C__training_x2C__growth_x2C__book_x2C__business_x2C__office_x2C__corporation">
</g>
<g id="_x34_7_skill_x2C__competence_x2C__experience_x2C__business_x2C__office_x2C__corporation_x2C__job">
</g>
<g id="_x34_6_target_x2C__success_x2C__victory_x2C__business_x2C__office_x2C__corporation_x2C__job">
</g>
<g id="_x34_5_inbox_x2C__letter_x2C__email_x2C__business_x2C__office_x2C__corporation_x2C__job">
</g>
<g id="_x34_4_document_x2C__workflow_x2C__sharing_x2C__business_x2C__office_x2C__corporation_x2C__job">
</g>
<g id="_x34_3_budget_x2C__allocation_x2C__money_x2C__business_x2C__office_x2C__corporation_x2C__job">
</g>
<g id="_x34_2_case_x2C__task_x2C__project_x2C__business_x2C__office_x2C__corporation_x2C__job">
</g>
<g id="_x34_1_structure_x2C__structuring_x2C__tasks_x2C__business_x2C__office_x2C__corporation_x2C__job">
</g>
<g id="_x34_0_choice_x2C__dilemma_x2C__question_x2C__business_x2C__office_x2C__corporation_x2C__job">
</g>
<g id="_x33_9_workplace_x2C__table_x2C__laptop_x2C__business_x2C__office_x2C__corporation_x2C__job">
</g>
<g id="_x33_8_bribe_x2C__bag_x2C__money_x2C__business_x2C__office_x2C__corporation_x2C__job">
</g>
<g id="_x33_7_corruption_x2C__forage_x2C__money_x2C__business_x2C__office_x2C__corporation_x2C__job">
</g>
<g id="_x33_6_career_x2C__ladder_x2C__success_x2C__business_x2C__office_x2C__corporation_x2C__job">
</g>
<g id="_x33_5_review_x2C__feedback_x2C__rating_x2C__business_x2C__office_x2C__corporation_x2C__job">
</g>
<g id="_x33_4_manipulation_x2C__thread_x2C__puppet_x2C__business_x2C__office_x2C__corporation_x2C__job">
</g>
<g id="_x33_3_location_x2C__map_x2C__pin_x2C__business_x2C__office_x2C__corporation_x2C__job">
</g>
<g id="_x33_2_retirement_x2C__old_x2C__man_x2C__door_x2C__business_x2C__office_x2C__corporation">
</g>
<g id="_x33_1_victory_x2C__success_x2C__medal_x2C__reward_x2C__business_x2C__office_x2C__corporation">
</g>
<g id="_x33_0_dismissal_x2C__box_x2C__door_x2C__business_x2C__office_x2C__corporation_x2C__job">
</g>
<g id="_x32_9_meeting_x2C__discussion_x2C__question_x2C__business_x2C__office_x2C__corporation_x2C__job">
</g>
<g id="_x32_8_strategy_x2C__vision_x2C__eye_x2C__chess_x2C__business_x2C__office_x2C__corporation">
</g>
<g id="_x32_7_board_x2C__task_x2C__process_x2C__business_x2C__office_x2C__corporation_x2C__job">
</g>
<g id="_x32_6_scheme_x2C__board_x2C__structure_x2C__business_x2C__office_x2C__corporation_x2C__job">
</g>
<g id="_x32_5_conflict_x2C__dialog_x2C__discussion_x2C__business_x2C__office_x2C__corporation_x2C__job">
</g>
<g id="_x32_4_documentation_x2C__document_x2C__repository_x2C__business_x2C__office_x2C__corporation_x2C__job">
</g>
<g id="_x32_3_sprint_x2C__programming_x2C__code_x2C__business_x2C__office_x2C__corporation_x2C__job">
</g>
<g id="_x32_2_cram_x2C__tablet_x2C__work_x2C__business_x2C__office_x2C__corporation_x2C__job">
</g>
<g id="_x32_1_leader_x2C__discoverer_x2C__flag_x2C__business_x2C__office_x2C__corporation_x2C__job">
</g>
<g id="_x32_0_rally_x2C__collective_x2C__arm_x2C__business_x2C__office_x2C__corporation_x2C__job">
</g>
<g id="_x31_9_consolidation_x2C__portfolio_x2C__puzzle_x2C__business_x2C__office_x2C__corporation_x2C__job">
</g>
<g id="_x31_8_idea_x2C__creative_x2C__work_x2C__business_x2C__office_x2C__corporation_x2C__job">
</g>
<g id="_x31_7_problem_x2C__stress_x2C__resistance_x2C__business_x2C__office_x2C__corporation_x2C__job">
</g>
<g id="_x31_6_hard_x2C__skills_x2C__skill_x2C__portfolio_x2C__book_x2C__business_x2C__office">
</g>
<g id="_x31_5_time_x2C__management_x2C__clock_x2C__deadline_x2C__business_x2C__office_x2C__corporation">
</g>
<g id="_x31_4_multitasking_x2C__task_x2C__work_x2C__business_x2C__office_x2C__corporation_x2C__job">
</g>
<g id="_x31_3_tranquility_x2C__yoga_x2C__lotus_x2C__posture_x2C__business_x2C__office_x2C__corporation">
</g>
<g id="_x31_2_corporate_x2C__party_x2C__business_x2C__office_x2C__corporation_x2C__job">
</g>
<g id="_x31_1_dialog_x2C__discussion_x2C__work_x2C__business_x2C__office_x2C__corporation_x2C__job">
</g>
<g id="_x31_0_listening_x2C__skill_x2C__dialog_x2C__business_x2C__office_x2C__corporation_x2C__job">
</g>
<g id="_x39__training_x2C__book_x2C__lesson_x2C__business_x2C__office_x2C__corporation_x2C__job">
</g>
<g id="_x38__dress_x2C__code_x2C__shirt_x2C__business_x2C__office_x2C__corporation_x2C__job">
</g>
<g id="_x37__task_x2C__program_x2C__ticket_x2C__business_x2C__office_x2C__corporation_x2C__job">
</g>
<g id="_x36__plan_x2C__graph_x2C__stage_x2C__business_x2C__office_x2C__corporation_x2C__job">
</g>
<g id="_x35__boss_x2C__king_x2C__crown_x2C__business_x2C__office_x2C__corporation_x2C__job">
</g>
<g id="_x34__structure_x2C__structuring_x2C__business_x2C__office_x2C__corporation_x2C__job">
</g>
<g id="_x33__soft_x2C__skills_x2C__communication_x2C__business_x2C__office_x2C__corporation_x2C__job">
</g>
<g id="_x32__office_x2C__house_x2C__portfolio_x2C__business_x2C__corporation_x2C__job">
</g>
<g id="_x31__corporate_x2C__rules_x2C__book_x2C__business_x2C__office_x2C__corporation_x2C__job">
</g>
</svg>
