<?xml version="1.0" encoding="utf-8"?>
<!-- Generator: Adobe Illustrator 16.0.0, SVG Export Plug-In . SVG Version: 6.00 Build 0)  -->
<!DOCTYPE svg PUBLIC "-//W3C//DTD SVG 1.1//EN" "http://www.w3.org/Graphics/SVG/1.1/DTD/svg11.dtd">
<svg version="1.1" xmlns="http://www.w3.org/2000/svg" xmlns:xlink="http://www.w3.org/1999/xlink" x="0px" y="0px" width="64px"
	 height="64px" viewBox="0 0 64 64" enable-background="new 0 0 64 64" xml:space="preserve">
<g id="_x35_0_document_x2C__optimization_x2C__documentation_x2C__business_x2C__office_x2C__corporation_x2C__job">
</g>
<g id="_x34_9_human_x2C__resource_x2C__conveyor_x2C__business_x2C__office_x2C__corporation_x2C__job">
</g>
<g id="_x34_8_knowledge_x2C__training_x2C__growth_x2C__book_x2C__business_x2C__office_x2C__corporation">
</g>
<g id="_x34_7_skill_x2C__competence_x2C__experience_x2C__business_x2C__office_x2C__corporation_x2C__job">
</g>
<g id="_x34_6_target_x2C__success_x2C__victory_x2C__business_x2C__office_x2C__corporation_x2C__job">
</g>
<g id="_x34_5_inbox_x2C__letter_x2C__email_x2C__business_x2C__office_x2C__corporation_x2C__job">
</g>
<g id="_x34_4_document_x2C__workflow_x2C__sharing_x2C__business_x2C__office_x2C__corporation_x2C__job">
</g>
<g id="_x34_3_budget_x2C__allocation_x2C__money_x2C__business_x2C__office_x2C__corporation_x2C__job">
</g>
<g id="_x34_2_case_x2C__task_x2C__project_x2C__business_x2C__office_x2C__corporation_x2C__job">
</g>
<g id="_x34_1_structure_x2C__structuring_x2C__tasks_x2C__business_x2C__office_x2C__corporation_x2C__job">
</g>
<g id="_x34_0_choice_x2C__dilemma_x2C__question_x2C__business_x2C__office_x2C__corporation_x2C__job">
</g>
<g id="_x33_9_workplace_x2C__table_x2C__laptop_x2C__business_x2C__office_x2C__corporation_x2C__job">
</g>
<g id="_x33_8_bribe_x2C__bag_x2C__money_x2C__business_x2C__office_x2C__corporation_x2C__job">
</g>
<g id="_x33_7_corruption_x2C__forage_x2C__money_x2C__business_x2C__office_x2C__corporation_x2C__job">
</g>
<g id="_x33_6_career_x2C__ladder_x2C__success_x2C__business_x2C__office_x2C__corporation_x2C__job">
</g>
<g id="_x33_5_review_x2C__feedback_x2C__rating_x2C__business_x2C__office_x2C__corporation_x2C__job">
</g>
<g id="_x33_4_manipulation_x2C__thread_x2C__puppet_x2C__business_x2C__office_x2C__corporation_x2C__job">
</g>
<g id="_x33_3_location_x2C__map_x2C__pin_x2C__business_x2C__office_x2C__corporation_x2C__job">
</g>
<g id="_x33_2_retirement_x2C__old_x2C__man_x2C__door_x2C__business_x2C__office_x2C__corporation">
</g>
<g id="_x33_1_victory_x2C__success_x2C__medal_x2C__reward_x2C__business_x2C__office_x2C__corporation">
</g>
<g id="_x33_0_dismissal_x2C__box_x2C__door_x2C__business_x2C__office_x2C__corporation_x2C__job">
</g>
<g id="_x32_9_meeting_x2C__discussion_x2C__question_x2C__business_x2C__office_x2C__corporation_x2C__job">
</g>
<g id="_x32_8_strategy_x2C__vision_x2C__eye_x2C__chess_x2C__business_x2C__office_x2C__corporation">
</g>
<g id="_x32_7_board_x2C__task_x2C__process_x2C__business_x2C__office_x2C__corporation_x2C__job">
</g>
<g id="_x32_6_scheme_x2C__board_x2C__structure_x2C__business_x2C__office_x2C__corporation_x2C__job">
</g>
<g id="_x32_5_conflict_x2C__dialog_x2C__discussion_x2C__business_x2C__office_x2C__corporation_x2C__job">
</g>
<g id="_x32_4_documentation_x2C__document_x2C__repository_x2C__business_x2C__office_x2C__corporation_x2C__job">
</g>
<g id="_x32_3_sprint_x2C__programming_x2C__code_x2C__business_x2C__office_x2C__corporation_x2C__job">
</g>
<g id="_x32_2_cram_x2C__tablet_x2C__work_x2C__business_x2C__office_x2C__corporation_x2C__job">
</g>
<g id="_x32_1_leader_x2C__discoverer_x2C__flag_x2C__business_x2C__office_x2C__corporation_x2C__job">
</g>
<g id="_x32_0_rally_x2C__collective_x2C__arm_x2C__business_x2C__office_x2C__corporation_x2C__job">
</g>
<g id="_x31_9_consolidation_x2C__portfolio_x2C__puzzle_x2C__business_x2C__office_x2C__corporation_x2C__job">
</g>
<g id="_x31_8_idea_x2C__creative_x2C__work_x2C__business_x2C__office_x2C__corporation_x2C__job">
</g>
<g id="_x31_7_problem_x2C__stress_x2C__resistance_x2C__business_x2C__office_x2C__corporation_x2C__job">
</g>
<g id="_x31_6_hard_x2C__skills_x2C__skill_x2C__portfolio_x2C__book_x2C__business_x2C__office">
</g>
<g id="_x31_5_time_x2C__management_x2C__clock_x2C__deadline_x2C__business_x2C__office_x2C__corporation">
</g>
<g id="_x31_4_multitasking_x2C__task_x2C__work_x2C__business_x2C__office_x2C__corporation_x2C__job">
</g>
<g id="_x31_3_tranquility_x2C__yoga_x2C__lotus_x2C__posture_x2C__business_x2C__office_x2C__corporation">
</g>
<g id="_x31_2_corporate_x2C__party_x2C__business_x2C__office_x2C__corporation_x2C__job">
</g>
<g id="_x31_1_dialog_x2C__discussion_x2C__work_x2C__business_x2C__office_x2C__corporation_x2C__job">
</g>
<g id="_x31_0_listening_x2C__skill_x2C__dialog_x2C__business_x2C__office_x2C__corporation_x2C__job">
</g>
<g id="_x39__training_x2C__book_x2C__lesson_x2C__business_x2C__office_x2C__corporation_x2C__job">
</g>
<g id="_x38__dress_x2C__code_x2C__shirt_x2C__business_x2C__office_x2C__corporation_x2C__job">
</g>
<g id="_x37__task_x2C__program_x2C__ticket_x2C__business_x2C__office_x2C__corporation_x2C__job">
	<g>
		<rect x="1.01" y="6" fill="#FFFFFF" width="51.99" height="46"/>
	</g>
	<g>
		<rect x="49" y="6" fill="#D7E9FF" width="4" height="46"/>
	</g>
	<g>
		<path fill="#D7E9FF" d="M53,4v2H1.01H1V4c0-1.11,0.89-2,2-2h48C52.1,2,53,2.89,53,4z"/>
	</g>
	<g>
		<path fill="#94C1FF" d="M51,2h-4c1.1,0,2,0.89,2,2v2h4V4C53,2.89,52.1,2,51,2z"/>
	</g>
	<g>
		<rect x="45" y="10" fill="#94C1FF" width="4" height="4"/>
	</g>
	<g>
		<rect x="5" y="10" fill="#FFFFFF" width="40" height="4"/>
	</g>
	<g>
		<path fill="#FFFFFF" d="M49,18v13H29V18H49z M38,24.5c0-1.38-1.12-2.5-2.5-2.5S33,23.12,33,24.5s1.12,2.5,2.5,2.5
			S38,25.88,38,24.5z"/>
	</g>
	<g>
		<circle fill="#94C1FF" cx="35.5" cy="24.5" r="2.5"/>
	</g>
	<g>
		<path fill="#FFFFFF" d="M25,18v13H5V18H25z M14,24.5c0-1.38-1.12-2.5-2.5-2.5S9,23.12,9,24.5s1.12,2.5,2.5,2.5S14,25.88,14,24.5z"
			/>
	</g>
	<g>
		<circle fill="#94C1FF" cx="11.5" cy="24.5" r="2.5"/>
	</g>
	<g>
		<circle fill="#94C1FF" cx="11.5" cy="41.5" r="2.5"/>
	</g>
	<g>
		<path fill="#FFFFFF" d="M25,35v13H5V35H25z M14,41.5c0-1.38-1.12-2.5-2.5-2.5S9,40.12,9,41.5s1.12,2.5,2.5,2.5S14,42.88,14,41.5z"
			/>
	</g>
	<g>
		<circle fill="#94C1FF" cx="35.5" cy="41.5" r="2.5"/>
	</g>
	<g>
		<path fill="#FFFFFF" d="M49,42.83v0.01c-2.31,1-4.16,2.851-5.16,5.16H29V35h20V42.83z M38,41.5c0-1.38-1.12-2.5-2.5-2.5
			S33,40.12,33,41.5s1.12,2.5,2.5,2.5S38,42.88,38,41.5z"/>
	</g>
	<g>
		<path fill="#94C1FF" d="M53.01,42C58.54,42.01,63,46.48,63,52s-4.47,10-10,10c-5.52,0-10-4.48-10-10c0-1.42,0.3-2.78,0.84-4
			c1-2.31,2.851-4.16,5.16-5.16C50.22,42.3,51.58,42,53,42H53.01z"/>
	</g>
	<g>
		<path fill="#5C9EFF" d="M53.01,42H53c-0.68,0-1.345,0.072-1.988,0.204C55.577,43.136,59,47.165,59,52s-3.431,8.872-7.998,9.799
			C51.647,61.931,52.315,62,53,62c5.53,0,10-4.48,10-10S58.54,42.01,53.01,42z"/>
	</g>
	<g>
		<g>
			<g>
				<g>
					<path fill="#116FFF" d="M4.026,5C3.474,5,3.021,4.552,3.021,4s0.442-1,0.994-1h0.011c0.552,0,1,0.448,1,1S4.578,5,4.026,5z"/>
				</g>
				<g>
					<path fill="#116FFF" d="M7.026,5C6.474,5,6.021,4.552,6.021,4s0.442-1,0.994-1h0.011c0.552,0,1,0.448,1,1S7.578,5,7.026,5z"/>
				</g>
				<g>
					<path fill="#116FFF" d="M10.026,5C9.474,5,9.021,4.552,9.021,4s0.442-1,0.994-1h0.011c0.552,0,1,0.448,1,1S10.578,5,10.026,5z"
						/>
				</g>
				<g>
					<path fill="#116FFF" d="M43.004,53H1.014c-0.553,0-1-0.447-1-1V6c0-0.552,0.447-1,1-1h52c0.553,0,1,0.448,1,1v36
						c0,0.553-0.447,1-1,1s-1-0.447-1-1V7h-50v44h40.99c0.553,0,1,0.447,1,1S43.557,53,43.004,53z"/>
				</g>
				<g>
					<path fill="#116FFF" d="M0.996,5c-0.553,0-1-0.448-1-1c0-1.654,1.346-3,3-3c0.553,0,1,0.448,1,1s-0.447,1-1,1
						c-0.552,0-1,0.449-1,1C1.996,4.552,1.549,5,0.996,5z"/>
				</g>
				<g>
					<path fill="#116FFF" d="M0.996,7c-0.553,0-1-0.448-1-1V4c0-0.552,0.447-1,1-1s1,0.448,1,1v2C1.996,6.552,1.549,7,0.996,7z"/>
				</g>
				<g>
					<path fill="#116FFF" d="M52.996,5c-0.553,0-1-0.448-1-1c0-0.551-0.448-1-1-1c-0.553,0-1-0.448-1-1s0.447-1,1-1
						c1.654,0,3,1.346,3,3C53.996,4.552,53.549,5,52.996,5z"/>
				</g>
				<g>
					<path fill="#116FFF" d="M52.996,7c-0.553,0-1-0.448-1-1V4c0-0.552,0.447-1,1-1s1,0.448,1,1v2C53.996,6.552,53.549,7,52.996,7z"
						/>
				</g>
				<g>
					<path fill="#116FFF" d="M50.996,3h-48c-0.553,0-1-0.448-1-1s0.447-1,1-1h48c0.553,0,1,0.448,1,1S51.549,3,50.996,3z"/>
				</g>
			</g>
		</g>
		<g>
			<g>
				<path fill="#116FFF" d="M43.838,49H29.004c-0.553,0-1-0.447-1-1V35c0-0.553,0.447-1,1-1h20c0.553,0,1,0.447,1,1v7.833
					c0,0.553-0.447,1-1,1s-1-0.447-1-1V36h-18v11h13.834c0.553,0,1,0.447,1,1S44.391,49,43.838,49z"/>
			</g>
			<g>
				<path fill="#116FFF" d="M35.504,45c-1.93,0-3.5-1.57-3.5-3.5s1.57-3.5,3.5-3.5s3.5,1.57,3.5,3.5S37.434,45,35.504,45z
					 M35.504,40c-0.827,0-1.5,0.673-1.5,1.5s0.673,1.5,1.5,1.5s1.5-0.673,1.5-1.5S36.331,40,35.504,40z"/>
			</g>
			<g>
				<path fill="#116FFF" d="M45.004,41h-4c-0.553,0-1-0.447-1-1s0.447-1,1-1h4c0.553,0,1,0.447,1,1S45.557,41,45.004,41z"/>
			</g>
			<g>
				<path fill="#116FFF" d="M43.004,44h-2c-0.553,0-1-0.447-1-1s0.447-1,1-1h2c0.553,0,1,0.447,1,1S43.557,44,43.004,44z"/>
			</g>
		</g>
		<g>
			<g>
				<path fill="#116FFF" d="M49.004,32h-20c-0.553,0-1-0.448-1-1V18c0-0.552,0.447-1,1-1h20c0.553,0,1,0.448,1,1v13
					C50.004,31.552,49.557,32,49.004,32z M30.004,30h18V19h-18V30z"/>
			</g>
			<g>
				<path fill="#116FFF" d="M35.504,28c-1.93,0-3.5-1.57-3.5-3.5s1.57-3.5,3.5-3.5s3.5,1.57,3.5,3.5S37.434,28,35.504,28z
					 M35.504,23c-0.827,0-1.5,0.673-1.5,1.5s0.673,1.5,1.5,1.5s1.5-0.673,1.5-1.5S36.331,23,35.504,23z"/>
			</g>
			<g>
				<path fill="#116FFF" d="M45.004,24h-4c-0.553,0-1-0.448-1-1s0.447-1,1-1h4c0.553,0,1,0.448,1,1S45.557,24,45.004,24z"/>
			</g>
			<g>
				<path fill="#116FFF" d="M43.004,27h-2c-0.553,0-1-0.448-1-1s0.447-1,1-1h2c0.553,0,1,0.448,1,1S43.557,27,43.004,27z"/>
			</g>
		</g>
		<g>
			<g>
				<path fill="#116FFF" d="M25.004,49h-20c-0.553,0-1-0.447-1-1V35c0-0.553,0.447-1,1-1h20c0.553,0,1,0.447,1,1v13
					C26.004,48.553,25.557,49,25.004,49z M6.004,47h18V36h-18V47z"/>
			</g>
			<g>
				<path fill="#116FFF" d="M11.504,45c-1.93,0-3.5-1.57-3.5-3.5s1.57-3.5,3.5-3.5s3.5,1.57,3.5,3.5S13.434,45,11.504,45z
					 M11.504,40c-0.827,0-1.5,0.673-1.5,1.5s0.673,1.5,1.5,1.5s1.5-0.673,1.5-1.5S12.331,40,11.504,40z"/>
			</g>
			<g>
				<path fill="#116FFF" d="M21.004,41h-4c-0.553,0-1-0.447-1-1s0.447-1,1-1h4c0.553,0,1,0.447,1,1S21.557,41,21.004,41z"/>
			</g>
			<g>
				<path fill="#116FFF" d="M19.004,44h-2c-0.553,0-1-0.447-1-1s0.447-1,1-1h2c0.553,0,1,0.447,1,1S19.557,44,19.004,44z"/>
			</g>
		</g>
		<g>
			<g>
				<path fill="#116FFF" d="M25.004,32h-20c-0.553,0-1-0.448-1-1V18c0-0.552,0.447-1,1-1h20c0.553,0,1,0.448,1,1v13
					C26.004,31.552,25.557,32,25.004,32z M6.004,30h18V19h-18V30z"/>
			</g>
			<g>
				<path fill="#116FFF" d="M11.504,28c-1.93,0-3.5-1.57-3.5-3.5s1.57-3.5,3.5-3.5s3.5,1.57,3.5,3.5S13.434,28,11.504,28z
					 M11.504,23c-0.827,0-1.5,0.673-1.5,1.5s0.673,1.5,1.5,1.5s1.5-0.673,1.5-1.5S12.331,23,11.504,23z"/>
			</g>
			<g>
				<path fill="#116FFF" d="M21.004,24h-4c-0.553,0-1-0.448-1-1s0.447-1,1-1h4c0.553,0,1,0.448,1,1S21.557,24,21.004,24z"/>
			</g>
			<g>
				<path fill="#116FFF" d="M19.004,27h-2c-0.553,0-1-0.448-1-1s0.447-1,1-1h2c0.553,0,1,0.448,1,1S19.557,27,19.004,27z"/>
			</g>
		</g>
		<g>
			<path fill="#116FFF" d="M53.004,63c-6.065,0-11-4.935-11-11s4.935-11,11-11s11,4.935,11,11S59.069,63,53.004,63z M53.004,43
				c-4.963,0-9,4.037-9,9s4.037,9,9,9s9-4.037,9-9S57.967,43,53.004,43z"/>
		</g>
		<g>
			<path fill="#116FFF" d="M49.004,15h-44c-0.553,0-1-0.448-1-1v-4c0-0.552,0.447-1,1-1h44c0.553,0,1,0.448,1,1v4
				C50.004,14.552,49.557,15,49.004,15z M6.004,13h42v-2h-42V13z"/>
		</g>
		<g>
			<path fill="#116FFF" d="M45.004,15c-0.553,0-1-0.448-1-1v-4c0-0.552,0.447-1,1-1s1,0.448,1,1v4
				C46.004,14.552,45.557,15,45.004,15z"/>
		</g>
		<g>
			<path fill="#116FFF" d="M53.004,53c-0.553,0-1-0.447-1-1v-6c0-0.553,0.447-1,1-1s1,0.447,1,1v6
				C54.004,52.553,53.557,53,53.004,53z"/>
		</g>
		<g>
			<path fill="#116FFF" d="M57.246,57.242c-0.256,0-0.512-0.098-0.707-0.293l-4.242-4.242c-0.391-0.391-0.391-1.023,0-1.414
				s1.023-0.391,1.414,0l4.242,4.242c0.391,0.391,0.391,1.023,0,1.414C57.758,57.145,57.502,57.242,57.246,57.242z"/>
		</g>
	</g>
</g>
<g id="_x36__plan_x2C__graph_x2C__stage_x2C__business_x2C__office_x2C__corporation_x2C__job">
</g>
<g id="_x35__boss_x2C__king_x2C__crown_x2C__business_x2C__office_x2C__corporation_x2C__job">
</g>
<g id="_x34__structure_x2C__structuring_x2C__business_x2C__office_x2C__corporation_x2C__job">
</g>
<g id="_x33__soft_x2C__skills_x2C__communication_x2C__business_x2C__office_x2C__corporation_x2C__job">
</g>
<g id="_x32__office_x2C__house_x2C__portfolio_x2C__business_x2C__corporation_x2C__job">
</g>
<g id="_x31__corporate_x2C__rules_x2C__book_x2C__business_x2C__office_x2C__corporation_x2C__job">
</g>
</svg>
