<?xml version="1.0" encoding="utf-8"?>
<!-- Generator: Adobe Illustrator 16.0.0, SVG Export Plug-In . SVG Version: 6.00 Build 0)  -->
<!DOCTYPE svg PUBLIC "-//W3C//DTD SVG 1.1//EN" "http://www.w3.org/Graphics/SVG/1.1/DTD/svg11.dtd">
<svg version="1.1" xmlns="http://www.w3.org/2000/svg" xmlns:xlink="http://www.w3.org/1999/xlink" x="0px" y="0px" width="64px"
	 height="64px" viewBox="0 0 64 64" enable-background="new 0 0 64 64" xml:space="preserve">
<g id="_x35_0_document_x2C__optimization_x2C__documentation_x2C__business_x2C__office_x2C__corporation_x2C__job">
</g>
<g id="_x34_9_human_x2C__resource_x2C__conveyor_x2C__business_x2C__office_x2C__corporation_x2C__job">
</g>
<g id="_x34_8_knowledge_x2C__training_x2C__growth_x2C__book_x2C__business_x2C__office_x2C__corporation">
</g>
<g id="_x34_7_skill_x2C__competence_x2C__experience_x2C__business_x2C__office_x2C__corporation_x2C__job">
</g>
<g id="_x34_6_target_x2C__success_x2C__victory_x2C__business_x2C__office_x2C__corporation_x2C__job">
</g>
<g id="_x34_5_inbox_x2C__letter_x2C__email_x2C__business_x2C__office_x2C__corporation_x2C__job">
</g>
<g id="_x34_4_document_x2C__workflow_x2C__sharing_x2C__business_x2C__office_x2C__corporation_x2C__job">
</g>
<g id="_x34_3_budget_x2C__allocation_x2C__money_x2C__business_x2C__office_x2C__corporation_x2C__job">
</g>
<g id="_x34_2_case_x2C__task_x2C__project_x2C__business_x2C__office_x2C__corporation_x2C__job">
</g>
<g id="_x34_1_structure_x2C__structuring_x2C__tasks_x2C__business_x2C__office_x2C__corporation_x2C__job">
</g>
<g id="_x34_0_choice_x2C__dilemma_x2C__question_x2C__business_x2C__office_x2C__corporation_x2C__job">
</g>
<g id="_x33_9_workplace_x2C__table_x2C__laptop_x2C__business_x2C__office_x2C__corporation_x2C__job">
</g>
<g id="_x33_8_bribe_x2C__bag_x2C__money_x2C__business_x2C__office_x2C__corporation_x2C__job">
</g>
<g id="_x33_7_corruption_x2C__forage_x2C__money_x2C__business_x2C__office_x2C__corporation_x2C__job">
</g>
<g id="_x33_6_career_x2C__ladder_x2C__success_x2C__business_x2C__office_x2C__corporation_x2C__job">
</g>
<g id="_x33_5_review_x2C__feedback_x2C__rating_x2C__business_x2C__office_x2C__corporation_x2C__job">
</g>
<g id="_x33_4_manipulation_x2C__thread_x2C__puppet_x2C__business_x2C__office_x2C__corporation_x2C__job">
</g>
<g id="_x33_3_location_x2C__map_x2C__pin_x2C__business_x2C__office_x2C__corporation_x2C__job">
</g>
<g id="_x33_2_retirement_x2C__old_x2C__man_x2C__door_x2C__business_x2C__office_x2C__corporation">
</g>
<g id="_x33_1_victory_x2C__success_x2C__medal_x2C__reward_x2C__business_x2C__office_x2C__corporation">
</g>
<g id="_x33_0_dismissal_x2C__box_x2C__door_x2C__business_x2C__office_x2C__corporation_x2C__job">
</g>
<g id="_x32_9_meeting_x2C__discussion_x2C__question_x2C__business_x2C__office_x2C__corporation_x2C__job">
</g>
<g id="_x32_8_strategy_x2C__vision_x2C__eye_x2C__chess_x2C__business_x2C__office_x2C__corporation">
</g>
<g id="_x32_7_board_x2C__task_x2C__process_x2C__business_x2C__office_x2C__corporation_x2C__job">
</g>
<g id="_x32_6_scheme_x2C__board_x2C__structure_x2C__business_x2C__office_x2C__corporation_x2C__job">
</g>
<g id="_x32_5_conflict_x2C__dialog_x2C__discussion_x2C__business_x2C__office_x2C__corporation_x2C__job">
</g>
<g id="_x32_4_documentation_x2C__document_x2C__repository_x2C__business_x2C__office_x2C__corporation_x2C__job">
</g>
<g id="_x32_3_sprint_x2C__programming_x2C__code_x2C__business_x2C__office_x2C__corporation_x2C__job">
</g>
<g id="_x32_2_cram_x2C__tablet_x2C__work_x2C__business_x2C__office_x2C__corporation_x2C__job">
</g>
<g id="_x32_1_leader_x2C__discoverer_x2C__flag_x2C__business_x2C__office_x2C__corporation_x2C__job">
</g>
<g id="_x32_0_rally_x2C__collective_x2C__arm_x2C__business_x2C__office_x2C__corporation_x2C__job">
</g>
<g id="_x31_9_consolidation_x2C__portfolio_x2C__puzzle_x2C__business_x2C__office_x2C__corporation_x2C__job">
</g>
<g id="_x31_8_idea_x2C__creative_x2C__work_x2C__business_x2C__office_x2C__corporation_x2C__job">
</g>
<g id="_x31_7_problem_x2C__stress_x2C__resistance_x2C__business_x2C__office_x2C__corporation_x2C__job">
</g>
<g id="_x31_6_hard_x2C__skills_x2C__skill_x2C__portfolio_x2C__book_x2C__business_x2C__office">
</g>
<g id="_x31_5_time_x2C__management_x2C__clock_x2C__deadline_x2C__business_x2C__office_x2C__corporation">
</g>
<g id="_x31_4_multitasking_x2C__task_x2C__work_x2C__business_x2C__office_x2C__corporation_x2C__job">
</g>
<g id="_x31_3_tranquility_x2C__yoga_x2C__lotus_x2C__posture_x2C__business_x2C__office_x2C__corporation">
</g>
<g id="_x31_2_corporate_x2C__party_x2C__business_x2C__office_x2C__corporation_x2C__job">
</g>
<g id="_x31_1_dialog_x2C__discussion_x2C__work_x2C__business_x2C__office_x2C__corporation_x2C__job">
</g>
<g id="_x31_0_listening_x2C__skill_x2C__dialog_x2C__business_x2C__office_x2C__corporation_x2C__job">
</g>
<g id="_x39__training_x2C__book_x2C__lesson_x2C__business_x2C__office_x2C__corporation_x2C__job">
	<g>
		<path fill="#94C1FF" d="M51,18.5c2.76,0,5,2.24,5,5s-2.24,7-5,7h-1c-0.55,0-1-0.45-1-1c0,0.55-0.45,1-1,1h-1c-2.76,0-5-4.24-5-7
			s2.24-5,5-5h1c0.37,0,0.71,0.11,1,0.28c0.29-0.17,0.63-0.28,1-0.28H51z"/>
	</g>
	<g>
		<path fill="#D7E9FF" d="M61,44.5v10H40c-2.76,0-5-2.24-5-5s2.24-5,5-5H61z"/>
	</g>
	<g>
		<path fill="#D7E9FF" d="M57,33.5c2.21,0,4,1.79,4,4s-1.79,4-4,4H40v-8H57z"/>
	</g>
	<g>
		<path fill="#94C1FF" d="M8,20.5l-3,3v-5c0-4.97,4.03-9,9-9h8v4c2.76,0,5,2.24,5,5v5l-3-3c0,0-3.71,2-8,2S8,20.5,8,20.5z"/>
	</g>
	<g>
		<path fill="#5C9EFF" d="M22,13.5v-4h-4v6c2.76,0,5,1.24,5,4v1.467c0.634-0.27,1-0.467,1-0.467l3,3v-5C27,15.74,24.76,13.5,22,13.5
			z"/>
	</g>
	<g>
		<path fill="#D7E9FF" d="M27,23.5v4c0,4.27-2.44,7.98-6,9.8c-1.5,0.771-3.2,1.2-5,1.2s-3.5-0.43-5-1.2c-3.56-1.819-6-5.53-6-9.8v-4
			l3-3c0,0,3.71,2,8,2s8-2,8-2L27,23.5z"/>
	</g>
	<g>
		<path fill="#94C1FF" d="M24,20.5c0,0-0.366,0.197-1,0.467V27.5c0,4.27-2.44,7.98-6,9.8c-0.929,0.478-1.941,0.806-3,0.999
			c0.65,0.12,1.314,0.201,2,0.201c1.8,0,3.5-0.43,5-1.2c3.56-1.819,6-5.53,6-9.8v-4L24,20.5z"/>
	</g>
	<g>
		<path fill="#FFFFFF" d="M16,41.5l-3,1l-2-2v-3.2c1.5,0.771,3.2,1.2,5,1.2s3.5-0.43,5-1.2v3.2l-2,2L16,41.5z"/>
	</g>
	<g>
		<path fill="#94C1FF" d="M13,42.5l3-1l3,1l2-2h4c3.32,0,6,2.68,6,6v0.29v5.71c0,1.109-0.89,2-2,2H3c-1.11,0-2-0.891-2-2v-5.71V46.5
			c0-3.32,2.68-6,6-6h4L13,42.5z"/>
	</g>
	<g>
		<g>
			<path fill="#5C9EFF" d="M25,40.5h-4c3.32,0,6,2.68,6,6v0.29v5.71c0,1.109-0.89,2-2,2h4c1.11,0,2-0.891,2-2v-5.71V46.5
				C31,43.18,28.32,40.5,25,40.5z"/>
		</g>
	</g>
	<g>
		<g>
			<g>
				<g>
					<path fill="#116FFF" d="M1,47.499c-0.553,0-1-0.447-1-1C0,42.64,3.141,39.5,7,39.5c0.553,0,1,0.447,1,1s-0.447,1-1,1
						c-2.757,0-5,2.242-5,4.999C2,47.052,1.553,47.499,1,47.499z"/>
				</g>
				<g>
					<path fill="#116FFF" d="M11,41.501L11,41.501L7,41.5c-0.553,0-1-0.448-1-1c0-0.553,0.448-1,1-1l0,0l4,0.001
						c0.553,0,1,0.448,1,1C12,41.054,11.552,41.501,11,41.501z"/>
				</g>
				<g>
					<path fill="#116FFF" d="M1,53.5c-0.553,0-1-0.447-1-1v-5.714c0-0.553,0.447-1,1-1s1,0.447,1,1V52.5C2,53.053,1.553,53.5,1,53.5
						z"/>
				</g>
				<g>
					<path fill="#116FFF" d="M31,47.499c-0.553,0-1-0.447-1-1c0-2.757-2.243-4.999-5-4.999c-0.553,0-1-0.447-1-1s0.447-1,1-1
						c3.859,0,7,3.14,7,6.999C32,47.052,31.553,47.499,31,47.499z"/>
				</g>
				<g>
					<path fill="#116FFF" d="M21,41.501c-0.552,0-1-0.447-1-1c0-0.552,0.447-1,1-1l4-0.001c0.552,0,1,0.447,1,1c0,0.552-0.447,1-1,1
						L21,41.501z"/>
				</g>
				<g>
					<path fill="#116FFF" d="M31,53.5c-0.553,0-1-0.447-1-1v-5.714c0-0.553,0.447-1,1-1s1,0.447,1,1V52.5
						C32,53.053,31.553,53.5,31,53.5z"/>
				</g>
				<g>
					<path fill="#116FFF" d="M29,55.5H3c-0.553,0-1-0.447-1-1s0.447-1,1-1h26c0.553,0,1,0.447,1,1S29.553,55.5,29,55.5z"/>
				</g>
				<g>
					<path fill="#116FFF" d="M11,41.501c-0.553,0-1-0.447-1-1V37.3c0-0.553,0.447-1,1-1s1,0.447,1,1v3.201
						C12,41.054,11.553,41.501,11,41.501z"/>
				</g>
				<g>
					<path fill="#116FFF" d="M21,41.5c-0.553,0-1-0.447-1-1v-3.2c0-0.553,0.447-1,1-1s1,0.447,1,1v3.2
						C22,41.053,21.553,41.5,21,41.5z"/>
				</g>
				<g>
					<path fill="#116FFF" d="M16,39.5c-6.617,0-12-5.383-12-12c0-0.552,0.447-1,1-1s1,0.448,1,1c0,5.514,4.486,10,10,10
						s10-4.486,10-10c0-0.552,0.447-1,1-1s1,0.448,1,1C28,34.117,22.617,39.5,16,39.5z"/>
				</g>
				<g>
					<path fill="#116FFF" d="M5,28.501c-0.553,0-1-0.448-1-1V18.5c0-0.552,0.447-1,1-1s1,0.448,1,1v9.001
						C6,28.053,5.553,28.501,5,28.501z"/>
				</g>
				<g>
					<path fill="#116FFF" d="M27,28.502c-0.553,0-1-0.448-1-1V18.5c0-0.552,0.447-1,1-1s1,0.448,1,1v9.002
						C28,28.054,27.553,28.502,27,28.502z"/>
				</g>
				<g>
					<path fill="#116FFF" d="M27,19.5c-0.553,0-1-0.448-1-1c0-2.206-1.794-4-4-4c-0.553,0-1-0.448-1-1s0.447-1,1-1
						c3.309,0,6,2.691,6,6C28,19.052,27.553,19.5,27,19.5z"/>
				</g>
				<g>
					<path fill="#116FFF" d="M22,14.5c-0.553,0-1-0.448-1-1v-4c0-0.552,0.447-1,1-1s1,0.448,1,1v4C23,14.052,22.553,14.5,22,14.5z"
						/>
				</g>
				<g>
					<path fill="#116FFF" d="M22,10.5h-8c-0.553,0-1-0.448-1-1s0.447-1,1-1h8c0.553,0,1,0.448,1,1S22.553,10.5,22,10.5z"/>
				</g>
				<g>
					<path fill="#116FFF" d="M5,19.5c-0.553,0-1-0.448-1-1c0-5.514,4.486-9.999,10-9.999c0.553,0,1,0.448,1,1s-0.447,1-1,1
						c-4.411,0-8,3.588-8,7.999C6,19.052,5.553,19.5,5,19.5z"/>
				</g>
				<g>
					<g>
						<path fill="#116FFF" d="M27,24.5c-0.256,0-0.512-0.098-0.707-0.293l-3-3c-0.391-0.391-0.391-1.023,0-1.414
							s1.023-0.391,1.414,0l3,3c0.391,0.391,0.391,1.023,0,1.414C27.512,24.402,27.256,24.5,27,24.5z"/>
					</g>
					<g>
						<path fill="#116FFF" d="M16,23.5c-4.485,0-8.313-2.033-8.474-2.12c-0.486-0.261-0.668-0.867-0.407-1.353
							c0.262-0.485,0.864-0.67,1.354-0.408C8.508,19.638,12.032,21.5,16,21.5c3.987,0,7.491-1.862,7.526-1.88
							c0.485-0.262,1.093-0.08,1.354,0.406c0.262,0.486,0.079,1.093-0.407,1.354C24.313,21.467,20.485,23.5,16,23.5z"/>
					</g>
					<g>
						<path fill="#116FFF" d="M5,24.5c-0.256,0-0.512-0.098-0.707-0.293c-0.391-0.391-0.391-1.023,0-1.414l3-3
							c0.391-0.391,1.023-0.391,1.414,0s0.391,1.023,0,1.414l-3,3C5.512,24.402,5.256,24.5,5,24.5z"/>
					</g>
				</g>
				<g>
					<path fill="#116FFF" d="M13,43.5c-0.256,0-0.512-0.098-0.707-0.293l-2-1.999c-0.391-0.391-0.391-1.023,0-1.414
						s1.023-0.391,1.414,0l2,1.999c0.391,0.391,0.391,1.023,0,1.414C13.512,43.402,13.256,43.5,13,43.5z"/>
				</g>
				<g>
					<path fill="#116FFF" d="M13,43.5c-0.419,0-0.809-0.265-0.948-0.684c-0.175-0.524,0.108-1.091,0.632-1.265l3-1
						c0.529-0.177,1.09,0.108,1.265,0.632c0.175,0.524-0.108,1.091-0.632,1.265l-3,1C13.211,43.483,13.104,43.5,13,43.5z"/>
				</g>
				<g>
					<path fill="#116FFF" d="M19,43.5c-0.256,0-0.512-0.098-0.707-0.293c-0.391-0.391-0.391-1.023,0-1.414l2-1.999
						c0.391-0.391,1.023-0.391,1.414,0s0.391,1.023,0,1.414l-2,1.999C19.512,43.402,19.256,43.5,19,43.5z"/>
				</g>
				<g>
					<path fill="#116FFF" d="M19,43.5c-0.104,0-0.211-0.017-0.316-0.052l-3-1c-0.523-0.174-0.807-0.74-0.632-1.265
						c0.175-0.523,0.737-0.809,1.265-0.632l3,1c0.523,0.174,0.807,0.74,0.632,1.265C19.809,43.235,19.419,43.5,19,43.5z"/>
				</g>
				<g>
					<path fill="#116FFF" d="M29,55.5c-0.553,0-1-0.447-1-1s0.447-1,1-1c0.552,0,1-0.448,1-1c0-0.553,0.447-1,1-1s1,0.447,1,1
						C32,54.154,30.654,55.5,29,55.5z"/>
				</g>
				<g>
					<path fill="#116FFF" d="M3,55.5c-1.654,0-3-1.346-3-3c0-0.553,0.447-1,1-1s1,0.447,1,1c0,0.552,0.448,1,1,1
						c0.553,0,1,0.447,1,1S3.553,55.5,3,55.5z"/>
				</g>
			</g>
			<g>
				<path fill="#116FFF" d="M16.03,47.5c-0.553,0-1.005-0.447-1.005-1s0.442-1,0.994-1h0.011c0.552,0,1,0.447,1,1
					S16.582,47.5,16.03,47.5z"/>
			</g>
			<g>
				<path fill="#116FFF" d="M16.03,51.5c-0.553,0-1.005-0.447-1.005-1s0.442-1,0.994-1h0.011c0.552,0,1,0.447,1,1
					S16.582,51.5,16.03,51.5z"/>
			</g>
		</g>
		<g>
			<path fill="#116FFF" d="M40,55.5c-3.309,0-6-2.691-6-6s2.691-6,6-6c0.553,0,1,0.447,1,1s-0.447,1-1,1c-2.206,0-4,1.794-4,4
				s1.794,4,4,4c0.553,0,1,0.447,1,1S40.553,55.5,40,55.5z"/>
		</g>
		<g>
			<path fill="#116FFF" d="M63,45.5H40c-0.553,0-1-0.447-1-1s0.447-1,1-1h23c0.553,0,1,0.447,1,1S63.553,45.5,63,45.5z"/>
		</g>
		<g>
			<path fill="#116FFF" d="M63,55.5H40c-0.553,0-1-0.447-1-1s0.447-1,1-1h23c0.553,0,1,0.447,1,1S63.553,55.5,63,55.5z"/>
		</g>
		<g>
			<path fill="#116FFF" d="M61,55.5c-0.553,0-1-0.447-1-1v-10c0-0.553,0.447-1,1-1s1,0.447,1,1v10C62,55.053,61.553,55.5,61,55.5z"
				/>
		</g>
		<g>
			<path fill="#116FFF" d="M57,42.5c-0.553,0-1-0.447-1-1s0.447-1,1-1c1.654,0,3-1.346,3-3s-1.346-3-3-3c-0.553,0-1-0.447-1-1
				c0-0.552,0.447-1,1-1c2.757,0,5,2.243,5,5S59.757,42.5,57,42.5z"/>
		</g>
		<g>
			<path fill="#116FFF" d="M57,42.5H38c-0.553,0-1-0.447-1-1s0.447-1,1-1h19c0.553,0,1,0.447,1,1S57.553,42.5,57,42.5z"/>
		</g>
		<g>
			<path fill="#116FFF" d="M57,34.5H38c-0.553,0-1-0.447-1-1c0-0.552,0.447-1,1-1h19c0.553,0,1,0.448,1,1
				C58,34.053,57.553,34.5,57,34.5z"/>
		</g>
		<g>
			<path fill="#116FFF" d="M40,42.5c-0.553,0-1-0.447-1-1v-8c0-0.552,0.447-1,1-1s1,0.448,1,1v8C41,42.053,40.553,42.5,40,42.5z"/>
		</g>
		<g>
			<path fill="#116FFF" d="M47,31.5c-3.48,0-6-4.778-6-8c0-3.309,2.691-6,6-6c0.553,0,1,0.448,1,1s-0.447,1-1,1
				c-2.206,0-4,1.794-4,4c0,2.479,2.068,6,4,6c0.553,0,1,0.448,1,1S47.553,31.5,47,31.5z"/>
		</g>
		<g>
			<path fill="#116FFF" d="M51,31.5c-0.553,0-1-0.448-1-1s0.447-1,1-1c1.932,0,4-3.521,4-6c0-2.206-1.794-4-4-4
				c-0.553,0-1-0.448-1-1s0.447-1,1-1c3.309,0,6,2.691,6,6C57,26.722,54.48,31.5,51,31.5z"/>
		</g>
		<g>
			<path fill="#116FFF" d="M48,31.5c-0.553,0-1-0.448-1-1s0.447-1,1-1c0-0.552,0.447-1,1-1s1,0.448,1,1
				C50,30.603,49.103,31.5,48,31.5z"/>
		</g>
		<g>
			<path fill="#116FFF" d="M50,31.5c-1.103,0-2-0.897-2-2c0-0.552,0.447-1,1-1s1,0.448,1,1v0.001c0.553,0,1,0.447,1,1
				S50.553,31.5,50,31.5z"/>
		</g>
		<g>
			<path fill="#116FFF" d="M48,31.5h-1c-0.553,0-1-0.448-1-1s0.447-1,1-1h1c0.553,0,1,0.448,1,1S48.553,31.5,48,31.5z"/>
		</g>
		<g>
			<path fill="#116FFF" d="M51,31.5h-1c-0.553,0-1-0.448-1-1s0.447-1,1-1h1c0.553,0,1,0.448,1,1S51.553,31.5,51,31.5z"/>
		</g>
		<g>
			<path fill="#116FFF" d="M49.001,19.5c-0.08,0-0.162-0.009-0.243-0.03c-0.536-0.134-0.862-0.677-0.728-1.213l1-4
				c0.133-0.536,0.676-0.865,1.212-0.728c0.536,0.134,0.862,0.677,0.728,1.213l-1,4C49.856,19.197,49.449,19.5,49.001,19.5z"/>
		</g>
		<g>
			<path fill="#116FFF" d="M49,19.777c-0.174,0-0.348-0.045-0.504-0.136C48.336,19.547,48.169,19.5,48,19.5c-0.553,0-1-0.448-1-1
				s0.447-1,1-1c0.339,0,0.677,0.061,1,0.178c0.323-0.117,0.661-0.178,1-0.178c0.553,0,1,0.448,1,1s-0.447,1-1,1
				c-0.169,0-0.336,0.047-0.496,0.141C49.348,19.732,49.174,19.777,49,19.777z"/>
		</g>
		<g>
			<path fill="#116FFF" d="M51,19.5h-1c-0.553,0-1-0.448-1-1s0.447-1,1-1h1c0.553,0,1,0.448,1,1S51.553,19.5,51,19.5z"/>
		</g>
		<g>
			<path fill="#116FFF" d="M48,19.5h-1c-0.553,0-1-0.448-1-1s0.447-1,1-1h1c0.553,0,1,0.448,1,1S48.553,19.5,48,19.5z"/>
		</g>
	</g>
</g>
<g id="_x38__dress_x2C__code_x2C__shirt_x2C__business_x2C__office_x2C__corporation_x2C__job">
</g>
<g id="_x37__task_x2C__program_x2C__ticket_x2C__business_x2C__office_x2C__corporation_x2C__job">
</g>
<g id="_x36__plan_x2C__graph_x2C__stage_x2C__business_x2C__office_x2C__corporation_x2C__job">
</g>
<g id="_x35__boss_x2C__king_x2C__crown_x2C__business_x2C__office_x2C__corporation_x2C__job">
</g>
<g id="_x34__structure_x2C__structuring_x2C__business_x2C__office_x2C__corporation_x2C__job">
</g>
<g id="_x33__soft_x2C__skills_x2C__communication_x2C__business_x2C__office_x2C__corporation_x2C__job">
</g>
<g id="_x32__office_x2C__house_x2C__portfolio_x2C__business_x2C__corporation_x2C__job">
</g>
<g id="_x31__corporate_x2C__rules_x2C__book_x2C__business_x2C__office_x2C__corporation_x2C__job">
</g>
</svg>
