<svg xmlns="http://www.w3.org/2000/svg" viewBox="0 0 64 64"><title>Artboard-27</title><g id="Shopping_Online" data-name="Shopping Online"><path d="M37,59a4.0042,4.0042,0,0,1-4-4V50a1,1,0,0,0-1-1H20a1,1,0,0,0-1,1v5a4.0042,4.0042,0,0,1-4,4,1,1,0,0,0,0,2H37a1,1,0,0,0,0-2Z" style="fill:#376cfb"/><path d="M47,11H5a5.0059,5.0059,0,0,0-5,5V46a5.0059,5.0059,0,0,0,5,5H51a1,1,0,0,0,1-1V16A5.0059,5.0059,0,0,0,47,11Z" style="fill:#e6ecff"/><path d="M32,19H20a1,1,0,0,1-1-1V10a7,7,0,0,1,14,0v8A1,1,0,0,1,32,19ZM21,17H31V10a5,5,0,0,0-10,0Z" style="fill:#2946ed"/><path d="M39,17H13a1,1,0,0,0-1,1V45H40V18A1,1,0,0,0,39,17Z" style="fill:#376cfb"/><path d="M26,31a7.0081,7.0081,0,0,1-7-7V22a1,1,0,0,1,2,0v2a5,5,0,0,0,10,0V22a1,1,0,0,1,2,0v2A7.0081,7.0081,0,0,1,26,31Z" style="fill:#2946ed"/><path d="M0,43v3a5.0059,5.0059,0,0,0,5,5H51a1,1,0,0,0,1-1V43Z" style="fill:#4294ff"/><path d="M7,48H5a1,1,0,0,1,0-2H7a1,1,0,0,1,0,2Z" style="fill:#376cfb"/><path d="M16,48H10a1,1,0,0,1,0-2h6a1,1,0,0,1,0,2Z" style="fill:#376cfb"/><path d="M63.4473,35.1055l-12-6a1.0008,1.0008,0,0,0-.8946,0l-12,6A1,1,0,0,0,38,36v9.667a14.96,14.96,0,0,0,9.2305,13.8457l3.3847,1.41a.9988.9988,0,0,0,.77,0l3.3847-1.41A14.96,14.96,0,0,0,64,45.667V36A1,1,0,0,0,63.4473,35.1055Z" style="fill:#d0dbf7"/><path d="M60.4473,36.96l-9-4.5a1.0008,1.0008,0,0,0-.8946,0l-9,4.5A1,1,0,0,0,41,37.8545V45.667a11.9657,11.9657,0,0,0,7.3843,11.0762l2.2309.93a.9988.9988,0,0,0,.77,0l2.2309-.93A11.9657,11.9657,0,0,0,61,45.667V37.8545A1,1,0,0,0,60.4473,36.96Z" style="fill:#e6ecff"/><path d="M50,48.0264a.9967.9967,0,0,1-.707-.293l-2-2a1,1,0,0,1,1.414-1.4141L50,45.6123l3.293-3.293a1,1,0,0,1,1.414,1.4141l-4,4A.9967.9967,0,0,1,50,48.0264Z" style="fill:#4294ff"/></g></svg>