<svg xmlns="http://www.w3.org/2000/svg" viewBox="0 0 64 64"><title>Artboard-29</title><g id="Password"><path d="M37,21H27a1,1,0,0,1-1-1V16a6,6,0,0,1,12,0v4A1,1,0,0,1,37,21Zm-9-2h8V16a4,4,0,0,0-8,0Z" style="fill:#376cfb"/><path d="M56,40H8A7,7,0,0,0,8,54H56a7,7,0,0,0,0-14Z" style="fill:#e6ecff"/><path d="M56,40H49V54h7a7,7,0,0,0,0-14Z" style="fill:#4294ff"/><path d="M28.707,45.707a1,1,0,0,0-1.414-1.414L26,45.5859,24.707,44.293a1,1,0,0,0-1.414,1.414L24.5859,47l-.2929.293-1,1a1,1,0,0,0,1.414,1.414L26,48.4141l1.293,1.2929a1,1,0,0,0,1.414-1.414L27.4141,47Z" style="fill:#4294ff"/><path d="M36.707,45.707a1,1,0,0,0-1.414-1.414L34,45.5859,32.707,44.293a1,1,0,0,0-1.414,1.414L32.5859,47,31.293,48.293a1,1,0,0,0,1.414,1.414L34,48.4141l1.293,1.2929a1,1,0,0,0,1.414-1.414L35.4141,47Z" style="fill:#4294ff"/><path d="M43.4141,47l1.2929-1.293a1,1,0,0,0-1.414-1.414L42,45.5859,40.707,44.293a1,1,0,0,0-1.414,1.414L40.5859,47,39.293,48.293a1,1,0,0,0,1.414,1.414L42,48.4141l1.293,1.2929a1,1,0,0,0,1.414-1.414Z" style="fill:#4294ff"/><path d="M20.707,45.707a1,1,0,0,0-1.414-1.414L18,45.5859,16.707,44.293a1,1,0,0,0-1.414,1.414L16.5859,47,15.293,48.293a1,1,0,0,0,1.414,1.414L18,48.4141l1.293,1.2929a1,1,0,0,0,1.414-1.414L19.4141,47Z" style="fill:#4294ff"/><path d="M12.707,45.707a1,1,0,0,0-1.414-1.414L10,45.5859,8.707,44.293a1,1,0,1,0-1.414,1.414L8.5859,47,7.293,48.293a1,1,0,1,0,1.414,1.414L10,48.4141l1.293,1.2929a1,1,0,0,0,1.414-1.414L11.4141,47Z" style="fill:#4294ff"/><path d="M58.7217,48.2783,57.71,47.2659A2.9682,2.9682,0,0,0,58,46a3,3,0,1,0-3,3,2.9634,2.9634,0,0,0,1.3047-.3112l1.0029,1.0036a1,1,0,0,0,1.4141-1.4141ZM54,46a1,1,0,1,1,1,1A1.0006,1.0006,0,0,1,54,46Z" style="fill:#376cfb"/><rect x="22" y="19" width="20" height="19" rx="3" ry="3" style="fill:#4294ff"/><circle cx="32" cy="27" r="3" style="fill:#376cfb"/><path d="M32,33a1,1,0,0,1-1-1V29a1,1,0,0,1,2,0v3A1,1,0,0,1,32,33Z" style="fill:#376cfb"/></g></svg>