<svg xmlns="http://www.w3.org/2000/svg" viewBox="0 0 64 64"><title>Artboard-10</title><g id="Smartphone"><rect x="12" width="40" height="64" rx="5" ry="5" style="fill:#4294ff"/><rect x="12" y="8" width="40" height="48" style="fill:#e6ecff"/><path d="M47,5H46a1,1,0,0,1,0-2h1a1,1,0,0,1,0,2Z" style="fill:#376cfb"/><path d="M43,5H39a1,1,0,0,1,0-2h4a1,1,0,0,1,0,2Z" style="fill:#376cfb"/><path d="M34,61H30a1,1,0,0,1,0-2h4a1,1,0,0,1,0,2Z" style="fill:#376cfb"/><path d="M42,42a1,1,0,0,1-1-1V34a1,1,0,0,1,2,0v7A1,1,0,0,1,42,42Z" style="fill:#4294ff"/><path d="M42,32a1,1,0,0,1-1-1,8.988,8.988,0,0,0-2.1973-5.8853,1,1,0,1,1,1.5118-1.3095A10.9892,10.9892,0,0,1,43,31,1,1,0,0,1,42,32Z" style="fill:#4294ff"/><path d="M22,34a1,1,0,0,1-1-1V31a10.9968,10.9968,0,0,1,16.6494-9.436A1,1,0,1,1,36.62,23.2788,8.9968,8.9968,0,0,0,23,31v2A1,1,0,0,1,22,34Z" style="fill:#4294ff"/><path d="M38,35a1,1,0,0,1-1-1V31a5.0022,5.0022,0,0,0-6.3828-4.8057,1,1,0,1,1-.5527-1.9218A7.0012,7.0012,0,0,1,39,31v3A1,1,0,0,1,38,35Z" style="fill:#4294ff"/><path d="M26,37a1,1,0,0,1-1-1V31A6.9328,6.9328,0,0,1,26.44,26.7515a1,1,0,0,1,1.5878,1.2158A4.95,4.95,0,0,0,27,31v5A1,1,0,0,1,26,37Z" style="fill:#4294ff"/><path d="M30,36a1,1,0,0,1-1-1V31a3,3,0,0,1,6,0v2a1,1,0,0,1-2,0V31a1,1,0,0,0-2,0v4A1,1,0,0,1,30,36Z" style="fill:#4294ff"/><path d="M34,42a1,1,0,0,1-1-1V36a1,1,0,0,1,2,0v5A1,1,0,0,1,34,42Z" style="fill:#4294ff"/><path d="M30,42a1,1,0,0,1-1-1V38a1,1,0,0,1,2,0v3A1,1,0,0,1,30,42Z" style="fill:#4294ff"/><path d="M38,42a1,1,0,0,1-1-1V37a1,1,0,0,1,2,0v4A1,1,0,0,1,38,42Z" style="fill:#4294ff"/><path d="M26,42a1,1,0,0,1-1-1V39a1,1,0,0,1,2,0v2A1,1,0,0,1,26,42Z" style="fill:#4294ff"/><path d="M22,42a1,1,0,0,1-1-1V36a1,1,0,0,1,2,0v5A1,1,0,0,1,22,42Z" style="fill:#4294ff"/><path d="M18,22a1,1,0,0,1-1-1V17a1,1,0,0,1,1-1h4a1,1,0,0,1,0,2H19v3A1,1,0,0,1,18,22Z" style="fill:#4294ff"/><path d="M46,22a1,1,0,0,1-1-1V18H42a1,1,0,0,1,0-2h4a1,1,0,0,1,1,1v4A1,1,0,0,1,46,22Z" style="fill:#4294ff"/><path d="M22,48H18a1,1,0,0,1-1-1V43a1,1,0,0,1,2,0v3h3a1,1,0,0,1,0,2Z" style="fill:#4294ff"/><path d="M46,48H42a1,1,0,0,1,0-2h3V43a1,1,0,0,1,2,0v4A1,1,0,0,1,46,48Z" style="fill:#4294ff"/></g></svg>