<svg xmlns="http://www.w3.org/2000/svg" viewBox="0 0 64 64"><title>Artboard-18</title><g id="Finger_Print" data-name="Finger Print"><path d="M32.686,2A15.7041,15.7041,0,0,0,17,17.6865,26.1433,26.1433,0,0,1,9.293,36.293a.9994.9994,0,0,0,0,1.414l24,24a.9995.9995,0,0,0,1.414,0A55.2594,55.2594,0,0,0,51,22.3726V20.3135A18.3345,18.3345,0,0,0,32.686,2Z" style="fill:#e6ecff"/><path d="M42.16,43.74A52.0856,52.0856,0,0,1,31.71,58.71l-.71.71L29.58,58l.71-.71A50.0446,50.0446,0,0,0,40.35,42.9a.9977.9977,0,1,1,1.81.84Z" style="fill:#4294ff"/><path d="M43.1289,39.6938a1.0017,1.0017,0,0,1-.9443-1.3305A50.0905,50.0905,0,0,0,45,21.7866V19.728a11.6647,11.6647,0,0,0-.9062-4.5307.9995.9995,0,1,1,1.8437-.7725A13.6432,13.6432,0,0,1,47,19.728v2.0586a52.0843,52.0843,0,0,1-2.9268,17.2368A1.0016,1.0016,0,0,1,43.1289,39.6938Z" style="fill:#4294ff"/><path d="M22.88,21.08a31.8469,31.8469,0,0,1-9.17,19.63l-.71.71L11.58,40l.71-.71A29.69,29.69,0,0,0,20.88,20.9a1.004,1.004,0,1,1,2,.18Z" style="fill:#4294ff"/><path d="M22.0508,18.2056c-.0313,0-.0625-.0015-.0943-.0044a1,1,0,0,1-.9023-1.0889A12.34,12.34,0,0,1,32.562,6.02a1,1,0,0,1,.1143,1.9971,10.3267,10.3267,0,0,0-9.6309,9.2817A1,1,0,0,1,22.0508,18.2056Z" style="fill:#4294ff"/><path d="M42.5361,12a.9969.9969,0,0,1-.7275-.314,11.72,11.72,0,0,0-5.3838-3.2573,1,1,0,0,1,.5371-1.9267,13.7226,13.7226,0,0,1,6.3018,3.812A1,1,0,0,1,42.5361,12Z" style="fill:#4294ff"/><path d="M25.2632,26.9185a1,1,0,0,1-.98-1.2066A33.2341,33.2341,0,0,0,25,18.8579,8.8279,8.8279,0,0,1,27.3862,12.81a1,1,0,1,1,1.461,1.3652A6.8381,6.8381,0,0,0,27,18.8579a35.2231,35.2231,0,0,1-.7593,7.2671A1.0007,1.0007,0,0,1,25.2632,26.9185Z" style="fill:#4294ff"/><path d="M41.9287,24.8364c-.0185,0-.0371-.0005-.0557-.0014a.9993.9993,0,0,1-.9433-1.0533c.0469-.8588.07-1.7275.07-2.5805V19.1421A7.1505,7.1505,0,0,0,33.8574,12a6.8666,6.8666,0,0,0-1.6919.21,1,1,0,1,1-.4931-1.9384A8.8624,8.8624,0,0,1,33.8574,10,9.1528,9.1528,0,0,1,43,19.1421v2.0591c0,.89-.0244,1.7944-.0742,2.69A.9989.9989,0,0,1,41.9287,24.8364Z" style="fill:#4294ff"/><path d="M25.27,29.75a35.4108,35.4108,0,0,1-8.56,13.96l-.71.71L14.58,43l.71-.71a33.3009,33.3009,0,0,0,8.08-13.16.9993.9993,0,0,1,1.9.62Z" style="fill:#4294ff"/><path d="M35.18,47.7a49.3279,49.3279,0,0,1-6.47,8.01l-.71.71L26.58,55l.71-.71a47.161,47.161,0,0,0,6.21-7.67.9986.9986,0,0,1,1.68,1.08Z" style="fill:#4294ff"/><path d="M36.3994,44.65a1,1,0,0,1-.8818-1.47,46.7281,46.7281,0,0,0,4.9043-14.64,1,1,0,1,1,1.9746.3135A48.6973,48.6973,0,0,1,37.2832,44.12.9991.9991,0,0,1,36.3994,44.65Z" style="fill:#4294ff"/><path d="M34.43,40.46a45.2128,45.2128,0,0,1-8.72,12.25l-.71.71L23.58,52l.71-.71a43.184,43.184,0,0,0,8.34-11.71,1.0118,1.0118,0,0,1,1.34-.46A1,1,0,0,1,34.43,40.46Z" style="fill:#4294ff"/><path d="M35.248,37.0015a1.0009,1.0009,0,0,1-.9375-1.3472A43.2831,43.2831,0,0,0,36.998,20.9912a1,1,0,0,1,1-.9912h.0088a1,1,0,0,1,.9912,1.0088,45.2575,45.2575,0,0,1-2.8125,15.3389A.9992.9992,0,0,1,35.248,37.0015Z" style="fill:#4294ff"/><path d="M25.6221,38.04a.989.989,0,0,1-.4673-.1167.9991.9991,0,0,1-.4151-1.3515,36.5328,36.5328,0,0,0,3.6944-10.72,1,1,0,1,1,1.9687.3505,38.4925,38.4925,0,0,1-3.8965,11.3057A.9986.9986,0,0,1,25.6221,38.04Z" style="fill:#4294ff"/><path d="M24.17,41.35a39.3879,39.3879,0,0,1-4.46,5.36l-.71.71L17.58,46l.71-.71a36.7272,36.7272,0,0,0,4.24-5.08.9986.9986,0,1,1,1.64,1.14Z" style="fill:#4294ff"/><path d="M29.9146,22.9941c-.0225,0-.0455,0-.0684-.0024a.9994.9994,0,0,1-.93-1.0649c.0557-.8272.084-1.6626.084-2.483V19a5,5,0,0,1,9.0127-2.9839A1,1,0,0,1,36.4072,17.21,2.9726,2.9726,0,0,0,34,16a3.0033,3.0033,0,0,0-3,3v.4438c0,.8653-.03,1.7461-.0889,2.6177A1,1,0,0,1,29.9146,22.9941Z" style="fill:#4294ff"/><path d="M33.0537,29.791a1.0152,1.0152,0,0,1-.2148-.0229,1.0006,1.0006,0,0,1-.7632-1.191A40.051,40.051,0,0,0,33,20.0293V19a1,1,0,0,1,2,0v1.0293a42.023,42.023,0,0,1-.9707,8.9756A.9991.9991,0,0,1,33.0537,29.791Z" style="fill:#4294ff"/><path d="M32.87,33.23A42.2113,42.2113,0,0,1,22.71,49.71l-.71.71L20.58,49l.71-.71A40.1364,40.1364,0,0,0,30.97,32.6a1.0009,1.0009,0,0,1,1.9.63Z" style="fill:#4294ff"/><path d="M2,10A1,1,0,0,1,1,9V2A1,1,0,0,1,2,1H9A1,1,0,0,1,9,3H3V9A1,1,0,0,1,2,10Z" style="fill:#4294ff"/><path d="M62,10a1,1,0,0,1-1-1V3H55a1,1,0,0,1,0-2h7a1,1,0,0,1,1,1V9A1,1,0,0,1,62,10Z" style="fill:#4294ff"/><path d="M9,63H2a1,1,0,0,1-1-1V55a1,1,0,0,1,2,0v6H9a1,1,0,0,1,0,2Z" style="fill:#4294ff"/><path d="M62,63H55a1,1,0,0,1,0-2h6V55a1,1,0,0,1,2,0v7A1,1,0,0,1,62,63Z" style="fill:#4294ff"/></g></svg>