<svg xmlns="http://www.w3.org/2000/svg" viewBox="0 0 64 64"><title>Artboard-4</title><g id="Router_Lock" data-name="Router Lock"><path d="M15,39H5a1,1,0,0,1-1-1V34a6,6,0,0,1,12,0v4A1,1,0,0,1,15,39ZM6,37h8V34a4,4,0,0,0-8,0Z" style="fill:#376cfb"/><path d="M52,12a4.0042,4.0042,0,0,0-4,4V46a1,1,0,0,0,1,1h6a1,1,0,0,0,1-1V16A4.0042,4.0042,0,0,0,52,12Z" style="fill:#376cfb"/><rect x="46" y="45" width="12" height="7" rx="1" ry="1" style="fill:#4294ff"/><path d="M60,50H7a1,1,0,0,0-1,1v9a4.0042,4.0042,0,0,0,4,4H60a4.0042,4.0042,0,0,0,4-4V54A4.0042,4.0042,0,0,0,60,50Z" style="fill:#e6ecff"/><path d="M45,17a1,1,0,0,1-1-1,8.0092,8.0092,0,0,1,8-8,1,1,0,0,1,0,2,6.0066,6.0066,0,0,0-6,6A1,1,0,0,1,45,17Z" style="fill:#4294ff"/><path d="M41,17a1,1,0,0,1-1-1A12.0134,12.0134,0,0,1,52,4a1,1,0,0,1,0,2A10.0114,10.0114,0,0,0,42,16,1,1,0,0,1,41,17Z" style="fill:#4294ff"/><path d="M37,17a1,1,0,0,1-1-1A16.0183,16.0183,0,0,1,52,0a1,1,0,0,1,0,2A14.0158,14.0158,0,0,0,38,16,1,1,0,0,1,37,17Z" style="fill:#4294ff"/><circle cx="57" cy="57" r="3" style="fill:#4294ff"/><circle cx="50" cy="57" r="3" style="fill:#4294ff"/><path d="M45,58H32a1,1,0,0,1,0-2H45a1,1,0,0,1,0,2Z" style="fill:#4294ff"/><rect y="37" width="20" height="19" rx="3" ry="3" style="fill:#4294ff"/><circle cx="10" cy="45" r="3" style="fill:#376cfb"/><path d="M10,51a1,1,0,0,1-1-1V47a1,1,0,0,1,2,0v3A1,1,0,0,1,10,51Z" style="fill:#376cfb"/></g></svg>