<svg xmlns="http://www.w3.org/2000/svg" viewBox="0 0 64 64"><title>Artboard-25</title><g id="Laptop_Virus" data-name="Laptop Virus"><path d="M54,7H10a5.0059,5.0059,0,0,0-5,5V48a1,1,0,0,0,1,1H58a1,1,0,0,0,1-1V12A5.0059,5.0059,0,0,0,54,7Z" style="fill:#e6ecff"/><path d="M54,11H35a1,1,0,0,0-1,1,2,2,0,0,1-4,0,1,1,0,0,0-1-1H10a1,1,0,0,0-1,1V42a1,1,0,0,0,1,1H54a1,1,0,0,0,1-1V12A1,1,0,0,0,54,11Z" style="fill:#d0dbf7"/><path d="M34.07,21.582a1,1,0,0,1-.6348-1.7734L35,18.5264V17a1,1,0,0,1,2,0v2a1,1,0,0,1-.3662.7734l-1.9307,1.5821A.9946.9946,0,0,1,34.07,21.582Z" style="fill:#376cfb"/><path d="M29.93,21.582a.9946.9946,0,0,1-.6328-.2265l-1.9307-1.5821A1,1,0,0,1,27,19V17a1,1,0,0,1,2,0v1.5264l1.5645,1.2822A1,1,0,0,1,29.93,21.582Z" style="fill:#376cfb"/><path d="M32,19a4.0039,4.0039,0,0,0-4,4v1a1,1,0,0,0,1,1h6a1,1,0,0,0,1-1V23A4.0039,4.0039,0,0,0,32,19Z" style="fill:#4294ff"/><path d="M41,39a1,1,0,0,1-1-1V34.6182l-3.4473-1.7237a1,1,0,1,1,.8946-1.789l4,2A1,1,0,0,1,42,34v4A1,1,0,0,1,41,39Z" style="fill:#2946ed"/><path d="M37.001,27a1,1,0,0,1-.4483-1.8945L40,23.3818V19a1,1,0,0,1,2,0v5a1,1,0,0,1-.5527.8945l-4,2A1.0011,1.0011,0,0,1,37.001,27Z" style="fill:#2946ed"/><path d="M23,39a1,1,0,0,1-1-1V34a1,1,0,0,1,.5527-.8945l4-2a1,1,0,0,1,.8946,1.789L24,34.6182V38A1,1,0,0,1,23,39Z" style="fill:#2946ed"/><path d="M26.999,27a1.0011,1.0011,0,0,1-.4463-.1055l-4-2A1,1,0,0,1,22,24V19a1,1,0,0,1,2,0v4.3818l3.4473,1.7237A1,1,0,0,1,26.999,27Z" style="fill:#2946ed"/><path d="M45,33a.9967.9967,0,0,1-.707-.293l-2.7325-2.7324-4.623-.2891a1,1,0,0,1,.125-1.996l5,.3125a1.0023,1.0023,0,0,1,.6445.291l3,3A1,1,0,0,1,45,33Z" style="fill:#2946ed"/><path d="M19,33a1,1,0,0,1-.707-1.707l3-3a1.0023,1.0023,0,0,1,.6445-.291l5-.3125a1,1,0,1,1,.125,1.996l-4.623.2891L19.707,32.707A.9967.9967,0,0,1,19,33Z" style="fill:#2946ed"/><path d="M63,47H1a1,1,0,0,0-1,1v4a5.0059,5.0059,0,0,0,5,5H59a5.0059,5.0059,0,0,0,5-5V48A1,1,0,0,0,63,47Z" style="fill:#4294ff"/><path d="M52,47H12v3a3,3,0,0,0,3,3H49a3,3,0,0,0,3-3Z" style="fill:#376cfb"/><circle cx="32" cy="12" r="1" style="fill:#4294ff"/><path d="M37,23H27a1,1,0,0,0-1,1v7a6,6,0,0,0,12,0V24A1,1,0,0,0,37,23Z" style="fill:#376cfb"/><path d="M31,36.91a5.5822,5.5822,0,0,0,2,0V23H31Z" style="fill:#2946ed"/></g></svg>