<svg xmlns="http://www.w3.org/2000/svg" viewBox="0 0 64 64"><title>Artboard-35</title><g id="Locked_Monitor" data-name="Locked Monitor"><path d="M43,59a4.0039,4.0039,0,0,1-4-4V50a1,1,0,0,0-1-1H26a1,1,0,0,0-1,1v5a4.0039,4.0039,0,0,1-4,4,1,1,0,0,0,0,2H43a1,1,0,0,0,0-2Z" style="fill:#376cfb"/><rect x="1" y="3" width="62" height="48" rx="5" ry="5" style="fill:#e6ecff"/><path d="M63,41H1v5a5,5,0,0,0,5,5H58a5,5,0,0,0,5-5Z" style="fill:#4294ff"/><path d="M8,47H6a1,1,0,0,1,0-2H8a1,1,0,0,1,0,2Z" style="fill:#376cfb"/><path d="M17,47H11a1,1,0,0,1,0-2h6a1,1,0,0,1,0,2Z" style="fill:#376cfb"/><rect x="5" y="7" width="54" height="30" rx="1" ry="1" style="fill:#d0dbf7"/><path d="M36,19H28a1,1,0,0,1-1-1V15a5,5,0,0,1,10,0v3A1,1,0,0,1,36,19Zm-7-2h6V15a3,3,0,0,0-6,0Z" style="fill:#376cfb"/><rect x="23" y="17" width="18" height="17" rx="3" ry="3" style="fill:#4294ff"/><circle cx="32" cy="24" r="3" style="fill:#376cfb"/><path d="M32,30a1,1,0,0,1-1-1V26a1,1,0,0,1,2,0v3A1,1,0,0,1,32,30Z" style="fill:#376cfb"/></g></svg>