<svg xmlns="http://www.w3.org/2000/svg" viewBox="0 0 64 64"><title>Artboard-1</title><g id="Smartphone_Locked" data-name="Smartphone Locked"><rect x="12" width="40" height="64" rx="5" ry="5" style="fill:#4294ff"/><rect x="12" y="8" width="40" height="48" style="fill:#e6ecff"/><path d="M47,5H46a1,1,0,0,1,0-2h1a1,1,0,0,1,0,2Z" style="fill:#376cfb"/><path d="M43,5H39a1,1,0,0,1,0-2h4a1,1,0,0,1,0,2Z" style="fill:#376cfb"/><path d="M34,61H30a1,1,0,0,1,0-2h4a1,1,0,0,1,0,2Z" style="fill:#376cfb"/><path d="M37,29H27a1,1,0,0,1-1-1V24a6,6,0,0,1,12,0v4A1,1,0,0,1,37,29Zm-9-2h8V24a4,4,0,0,0-8,0Z" style="fill:#376cfb"/><rect x="22" y="27" width="20" height="19" rx="3" ry="3" style="fill:#4294ff"/><path d="M32,32a2.9926,2.9926,0,0,0-1,5.8157V40a1,1,0,0,0,2,0V37.8157A2.9926,2.9926,0,0,0,32,32Z" style="fill:#376cfb"/></g></svg>