<svg xmlns="http://www.w3.org/2000/svg" viewBox="0 0 64 64"><title>Artboard-15</title><g id="Server_Locked" data-name="Server Locked"><path d="M37,12H27a1,1,0,0,1-1-1V8A6,6,0,0,1,38,8v3A1,1,0,0,1,37,12Zm-9-2h8V8a4,4,0,0,0-8,0Z" style="fill:#376cfb"/><rect x="11" y="32" width="42" height="8" rx="1" ry="1" style="fill:#4294ff"/><rect x="11" y="46" width="42" height="8" rx="1" ry="1" style="fill:#4294ff"/><rect x="8" y="24" width="48" height="10" rx="3" ry="3" style="fill:#e6ecff"/><rect x="8" y="38" width="48" height="10" rx="3" ry="3" style="fill:#e6ecff"/><rect x="8" y="52" width="48" height="10" rx="3" ry="3" style="fill:#e6ecff"/><circle cx="51" cy="29" r="1" style="fill:#4294ff"/><circle cx="47" cy="29" r="1" style="fill:#4294ff"/><circle cx="51" cy="43" r="1" style="fill:#4294ff"/><circle cx="47" cy="43" r="1" style="fill:#4294ff"/><circle cx="51" cy="57" r="1" style="fill:#4294ff"/><circle cx="47" cy="57" r="1" style="fill:#4294ff"/><path d="M26,58H12a1,1,0,0,1,0-2H26a1,1,0,0,1,0,2Z" style="fill:#4294ff"/><path d="M26,44H12a1,1,0,0,1,0-2H26a1,1,0,0,1,0,2Z" style="fill:#4294ff"/><path d="M19,30H12a1,1,0,0,1,0-2h7a1,1,0,0,1,0,2Z" style="fill:#4294ff"/><rect x="22" y="10" width="20" height="19" rx="3" ry="3" style="fill:#4294ff"/><circle cx="32" cy="18" r="3" style="fill:#376cfb"/><path d="M32,24a1,1,0,0,1-1-1V20a1,1,0,0,1,2,0v3A1,1,0,0,1,32,24Z" style="fill:#376cfb"/></g></svg>