<svg xmlns="http://www.w3.org/2000/svg" viewBox="0 0 64 64"><title>Artboard-12</title><g id="Phising_Money" data-name="Phising Money"><rect x="22" y="1" width="6" height="10" rx="1" ry="1" style="fill:#4294ff"/><rect x="22" y="19" width="6" height="9" rx="1" ry="1" style="fill:#4294ff"/><path d="M27.5,15a2.5,2.5,0,0,0,0-5h-5a2.5,2.5,0,0,0,0,5,2.5,2.5,0,0,0,0,5h5a2.5,2.5,0,0,0,0-5Z" style="fill:#e6ecff"/><rect x="20" y="15" width="10" height="5" rx="2.5" ry="2.5" style="fill:#d0dbf7"/><rect x="1" y="27" width="62" height="36" rx="1" ry="1" style="fill:#e6ecff"/><path d="M58,38a6.0066,6.0066,0,0,1-6-6,1,1,0,0,0-1-1H13a1,1,0,0,0-1,1,6.0066,6.0066,0,0,1-6,6,1,1,0,0,0-1,1V51a1,1,0,0,0,1,1,6.0066,6.0066,0,0,1,6,6,1,1,0,0,0,1,1H51a1,1,0,0,0,1-1,6.0066,6.0066,0,0,1,6-6,1,1,0,0,0,1-1V39A1,1,0,0,0,58,38Z" style="fill:#d0dbf7"/><path d="M33.9482,44.5952,33,44.2792V41a1.0013,1.0013,0,0,1,1,1,1,1,0,0,0,2,0,3.0033,3.0033,0,0,0-3-3V38a1,1,0,0,0-2,0v1a3.0033,3.0033,0,0,0-3,3v.5586a2.9965,2.9965,0,0,0,2.0518,2.8462l.9482.316V49a1.0013,1.0013,0,0,1-1-1,1,1,0,0,0-2,0,3.0033,3.0033,0,0,0,3,3v1a1,1,0,0,0,2,0V51a3.0033,3.0033,0,0,0,3-3v-.5586A2.9965,2.9965,0,0,0,33.9482,44.5952Zm-3.2641-1.0879A.9986.9986,0,0,1,30,42.5586V42a1.0013,1.0013,0,0,1,1-1v2.6126ZM34,48a1.0013,1.0013,0,0,1-1,1V46.3874l.3159.1053A.9986.9986,0,0,1,34,47.4414Z" style="fill:#4294ff"/><circle cx="20" cy="45" r="3" style="fill:#4294ff"/><circle cx="44" cy="45" r="3" style="fill:#4294ff"/><path d="M46,19a5.0059,5.0059,0,0,0-5,5v7H36a1,1,0,0,0-1,1v4a1,1,0,0,0,1,1h6a5.0059,5.0059,0,0,0,5-5V20A1,1,0,0,0,46,19Z" style="fill:#4294ff"/><path d="M36,38a1,1,0,0,1-1-1V31a1,1,0,0,1,2,0v6A1,1,0,0,1,36,38Z" style="fill:#376cfb"/></g></svg>