<svg xmlns="http://www.w3.org/2000/svg" viewBox="0 0 64 64"><title>Artboard-32</title><g id="Phisimg_Password" data-name="Phisimg Password"><rect x="31" width="6" height="9" rx="1" ry="1" style="fill:#4294ff"/><rect x="31" y="17" width="6" height="9" rx="1" ry="1" style="fill:#4294ff"/><path d="M36.5,13a2.5,2.5,0,0,0,0-5h-5a2.5,2.5,0,0,0,0,5,2.5,2.5,0,0,0,0,5h5a2.5,2.5,0,0,0,0-5Z" style="fill:#e6ecff"/><rect x="29" y="13" width="10" height="5" rx="2.5" ry="2.5" style="fill:#d0dbf7"/><path d="M24.958,24.7129l-1.9311-6.4365A5.9632,5.9632,0,0,0,17.28,14H6a5.0059,5.0059,0,0,0-5,5v6a1,1,0,0,0,1,1H24a1,1,0,0,0,.958-1.2871Z" style="fill:#4294ff"/><path d="M58,24H1V59a5,5,0,0,0,5,5H58a5,5,0,0,0,5-5V29A5,5,0,0,0,58,24Z" style="fill:#e6ecff"/><path d="M50,45H14a6,6,0,0,0,0,12H50a6,6,0,0,0,0-12Z" style="fill:#4294ff"/><path d="M34.707,48.293a.9994.9994,0,0,0-1.414,0L32,49.5859,30.707,48.293a1,1,0,0,0-1.414,1.414L30.5859,51,29.293,52.293a1,1,0,1,0,1.414,1.414L32,52.4141l1.293,1.2929a1,1,0,0,0,1.414-1.414L33.4141,51l1.2929-1.293A.9994.9994,0,0,0,34.707,48.293Z" style="fill:#376cfb"/><path d="M42.707,48.293a.9994.9994,0,0,0-1.414,0L40,49.5859,38.707,48.293a1,1,0,0,0-1.414,1.414L38.5859,51,37.293,52.293a1,1,0,1,0,1.414,1.414L40,52.4141l1.293,1.2929a1,1,0,0,0,1.414-1.414L41.4141,51l1.2929-1.293A.9994.9994,0,0,0,42.707,48.293Z" style="fill:#376cfb"/><path d="M49.4141,51l1.2929-1.293a1,1,0,0,0-1.414-1.414L48,49.5859,46.707,48.293a1,1,0,0,0-1.414,1.414L46.5859,51,45.293,52.293a1,1,0,1,0,1.414,1.414L48,52.4141l1.293,1.2929a1,1,0,0,0,1.414-1.414Z" style="fill:#376cfb"/><path d="M26.707,48.293a.9994.9994,0,0,0-1.414,0L24,49.5859,22.707,48.293a1,1,0,0,0-1.414,1.414L22.5859,51,21.293,52.293a1,1,0,1,0,1.414,1.414L24,52.4141l1.293,1.2929a1,1,0,0,0,1.414-1.414L25.4141,51l1.2929-1.293A.9994.9994,0,0,0,26.707,48.293Z" style="fill:#376cfb"/><path d="M18.707,48.293a.9994.9994,0,0,0-1.414,0L16,49.5859,14.707,48.293a1,1,0,0,0-1.414,1.414L14.5859,51,13.293,52.293a1,1,0,1,0,1.414,1.414L16,52.4141l1.293,1.2929a1,1,0,0,0,1.414-1.414L17.4141,51l1.2929-1.293A.9994.9994,0,0,0,18.707,48.293Z" style="fill:#376cfb"/><path d="M53,17a5.0059,5.0059,0,0,0-5,5v8H43a1,1,0,0,0-1,1v4a1,1,0,0,0,1,1h6a5.0059,5.0059,0,0,0,5-5V18A1,1,0,0,0,53,17Z" style="fill:#4294ff"/><path d="M43,38a1,1,0,0,1-1-1V29a1,1,0,0,1,2,0v8A1,1,0,0,1,43,38Z" style="fill:#376cfb"/></g></svg>