<svg xmlns="http://www.w3.org/2000/svg" viewBox="0 0 64 64"><title>Artboard-11</title><g id="Phising_Email" data-name="Phising Email"><rect x="18" width="6" height="9" rx="1" ry="1" style="fill:#4294ff"/><rect x="18" y="17" width="6" height="9" rx="1" ry="1" style="fill:#4294ff"/><path d="M23.5,13a2.5,2.5,0,0,0,0-5h-5a2.5,2.5,0,0,0,0,5,2.5,2.5,0,0,0,0,5h5a2.5,2.5,0,0,0,0-5Z" style="fill:#e6ecff"/><rect x="1" y="24" width="62" height="40" rx="3" ry="3" style="fill:#e6ecff"/><path d="M39.1171,42.896,57.5146,31.8574a1,1,0,0,0-1.0292-1.7148L36.7814,41.9651l-.0036.0022L32,44.834l-4.7767-2.866-.0065-.0039L7.5146,30.1426a1,1,0,1,0-1.0292,1.7148L24.8829,42.896,6.416,56.1885a1,1,0,1,0,1.168,1.623L26.75,44.0161l4.7356,2.8413a1,1,0,0,0,1.0292,0L37.25,44.0161,56.416,57.8115a1,1,0,1,0,1.168-1.623Z" style="fill:#4294ff"/><path d="M42,18a5.0059,5.0059,0,0,0-5,5v7H32a1,1,0,0,0-1,1v4a1,1,0,0,0,1,1h6a5.0059,5.0059,0,0,0,5-5V19A1,1,0,0,0,42,18Z" style="fill:#4294ff"/><rect x="16" y="13" width="10" height="5" rx="2.5" ry="2.5" style="fill:#d0dbf7"/><path d="M32,38a1,1,0,0,1-1-1V29a1,1,0,0,1,2,0v8A1,1,0,0,1,32,38Z" style="fill:#376cfb"/></g></svg>