<svg xmlns="http://www.w3.org/2000/svg" viewBox="0 0 64 64"><title>Artboard-39</title><g id="Credit_card_shield" data-name="Credit card shield"><path d="M51,9H12V8a1,1,0,0,0-1-1H1A1,1,0,0,0,0,8V50a1,1,0,0,0,1,1H51a1,1,0,0,0,1-1V10A1,1,0,0,0,51,9Z" style="fill:#e6ecff"/><path d="M43,21H9a3.0033,3.0033,0,0,0-3,3V42a3.0033,3.0033,0,0,0,3,3H45a1,1,0,0,0,1-1V24A3.0033,3.0033,0,0,0,43,21Z" style="fill:#4294ff"/><rect x="6" y="25" width="40" height="6" style="fill:#376cfb"/><path d="M19,39H10a1,1,0,0,1,0-2h9a1,1,0,0,1,0,2Z" style="fill:#376cfb"/><path d="M13,42H10a1,1,0,0,1,0-2h3a1,1,0,0,1,0,2Z" style="fill:#376cfb"/><rect x="12" y="9" width="10" height="6" style="fill:#4294ff"/><rect x="22" y="9" width="10" height="6" style="fill:#376cfb"/><rect x="32" y="9" width="10" height="6" style="fill:#4294ff"/><path d="M51,9H42v6H52V10A1,1,0,0,0,51,9Z" style="fill:#376cfb"/><path d="M18,13H16a1,1,0,0,1,0-2h2a1,1,0,0,1,0,2Z" style="fill:#376cfb"/><path d="M28,13H26a1,1,0,0,1,0-2h2a1,1,0,0,1,0,2Z" style="fill:#2946ed"/><path d="M38,13H36a1,1,0,0,1,0-2h2a1,1,0,0,1,0,2Z" style="fill:#376cfb"/><path d="M48,13H46a1,1,0,0,1,0-2h2a1,1,0,0,1,0,2Z" style="fill:#2946ed"/><path d="M63.4473,31.1055l-12-6a1.0008,1.0008,0,0,0-.8946,0l-12,6A1,1,0,0,0,38,32v9.667a14.96,14.96,0,0,0,9.2305,13.8457l3.3847,1.41a.9988.9988,0,0,0,.77,0l3.3847-1.41A14.96,14.96,0,0,0,64,41.667V32A1,1,0,0,0,63.4473,31.1055Z" style="fill:#d0dbf7"/><path d="M60.4473,32.96l-9-4.5a1.0008,1.0008,0,0,0-.8946,0l-9,4.5A1,1,0,0,0,41,33.8545V41.667a11.9654,11.9654,0,0,0,7.3848,11.0762l2.23.93a.9988.9988,0,0,0,.77,0l2.23-.93A11.9654,11.9654,0,0,0,61,41.667V33.8545A1,1,0,0,0,60.4473,32.96Z" style="fill:#e6ecff"/><path d="M50,44.0264a.9967.9967,0,0,1-.707-.293l-2-2a1,1,0,0,1,1.414-1.4141L50,41.6123l3.293-3.293a1,1,0,0,1,1.414,1.4141l-4,4A.9967.9967,0,0,1,50,44.0264Z" style="fill:#4294ff"/><path d="M7,13H5a1,1,0,0,1,0-2H7a1,1,0,0,1,0,2Z" style="fill:#4294ff"/></g></svg>