<svg xmlns="http://www.w3.org/2000/svg" viewBox="0 0 64 64"><title>Artboard-38</title><g id="Shield"><path d="M57.0586,11.002C40.7451,10.042,32.8574.4707,32.78.374a1.0026,1.0026,0,0,0-.7793-.373H31.999a1,1,0,0,0-.78.374c-.0771.0967-7.9116,9.6641-24.2778,10.627A1,1,0,0,0,6,12V38.415A21.107,21.107,0,0,0,17.9126,57.3467l13.6548,6.5547a.9983.9983,0,0,0,.8652,0l13.6543-6.5547A21.1066,21.1066,0,0,0,58,38.415V12A1,1,0,0,0,57.0586,11.002Z" style="fill:#e6ecff"/><path d="M54.1182,13.752A38.8829,38.8829,0,0,1,32.667,4.5146a1,1,0,0,0-1.334,0A38.8773,38.8773,0,0,1,9.8823,13.752,1,1,0,0,0,9,14.7451V38.416A18.09,18.09,0,0,0,19.2109,54.6426l12.3565,5.9306a.9974.9974,0,0,0,.8652,0l12.3565-5.9306A18.09,18.09,0,0,0,55,38.416V14.7451A1,1,0,0,0,54.1182,13.752Z" style="fill:#d0dbf7"/><circle cx="32" cy="32" r="17" style="fill:#4294ff"/><circle cx="32" cy="32" r="14" style="fill:#376cfb"/><path d="M31,36a.9967.9967,0,0,1-.707-.293l-3-3a1,1,0,0,1,1.414-1.414L31,33.5859l5.293-5.2929a1,1,0,0,1,1.414,1.414l-6,6A.9967.9967,0,0,1,31,36Z" style="fill:#2946ed"/></g></svg>