<svg xmlns="http://www.w3.org/2000/svg" viewBox="0 0 64 64"><title>Artboard-24</title><g id="Warning_Sign" data-name="Warning Sign"><path d="M62.9463,47.5029,37.6475,9.9629a6.8095,6.8095,0,0,0-11.295,0L1.0537,47.5029A6.119,6.119,0,0,0,6.1279,57.042H57.8721a6.119,6.119,0,0,0,5.0742-9.5391Z" style="fill:#e6ecff"/><path d="M60.458,49.18,35.16,11.64a3.8093,3.8093,0,0,0-6.3194,0L3.541,49.18A3.1193,3.1193,0,0,0,6.1279,54.042H57.8721A3.1185,3.1185,0,0,0,60.458,49.18Z" style="fill:#d0dbf7"/><rect x="29" y="43" width="6" height="6" rx="1" ry="1" style="fill:#4294ff"/><path d="M30,41h4a1.0006,1.0006,0,0,0,.9922-.876l2-16A.999.999,0,0,0,36,23H28a.999.999,0,0,0-.9922,1.124l2,16A1.0006,1.0006,0,0,0,30,41Z" style="fill:#4294ff"/></g></svg>