<svg xmlns="http://www.w3.org/2000/svg" viewBox="0 0 64 64"><title>Artboard-36</title><g id="Encryption_Chat" data-name="Encryption Chat"><path d="M37,22H27a1,1,0,0,1-1-1V17a6,6,0,0,1,12,0v4A1,1,0,0,1,37,22Zm-9-2h8V17a4,4,0,0,0-8,0Z" style="fill:#376cfb"/><path d="M23,8H1A1,1,0,0,0,0,9V25a1,1,0,0,0,1,1H4v4a1,1,0,0,0,1.64.7686L11.3618,26H23a1,1,0,0,0,1-1V9A1,1,0,0,0,23,8Z" style="fill:#e6ecff"/><path d="M63,33H41a1,1,0,0,0-1,1V50a1,1,0,0,0,1,1H52.6382L58.36,55.7686A1,1,0,0,0,60,55V51h3a1,1,0,0,0,1-1V34A1,1,0,0,0,63,33Z" style="fill:#e6ecff"/><rect x="21" y="20" width="22" height="19" rx="2" ry="2" style="fill:#4294ff"/><circle cx="32" cy="28" r="3" style="fill:#376cfb"/><path d="M32,34a1,1,0,0,1-1-1V30a1,1,0,0,1,2,0v3A1,1,0,0,1,32,34Z" style="fill:#376cfb"/><path d="M19,14H5a1,1,0,0,1,0-2H19a1,1,0,0,1,0,2Z" style="fill:#4294ff"/><path d="M19,18H5a1,1,0,0,1,0-2H19a1,1,0,0,1,0,2Z" style="fill:#4294ff"/><path d="M11,22H5a1,1,0,0,1,0-2h6a1,1,0,0,1,0,2Z" style="fill:#4294ff"/><path d="M59,39H46a1,1,0,0,1,0-2H59a1,1,0,0,1,0,2Z" style="fill:#4294ff"/><path d="M59,43H46a1,1,0,0,1,0-2H59a1,1,0,0,1,0,2Z" style="fill:#4294ff"/><path d="M59,47H53a1,1,0,0,1,0-2h6a1,1,0,0,1,0,2Z" style="fill:#4294ff"/></g></svg>