<svg xmlns="http://www.w3.org/2000/svg" viewBox="0 0 64 64"><title>Artboard-7</title><g id="Unlock"><path d="M32,0A12.0137,12.0137,0,0,0,20,12V24a1,1,0,0,0,1,1h5a1,1,0,0,0,1-1V12a5,5,0,0,1,10,0v1.5a3.5,3.5,0,0,0,7,0V12A12.0137,12.0137,0,0,0,32,0Z" style="fill:#376cfb"/><rect x="18" y="23" width="11" height="7" rx="1" ry="1" style="fill:#4294ff"/><rect x="35" y="23" width="11" height="7" rx="1" ry="1" style="fill:#4294ff"/><rect x="12" y="28" width="40" height="36" rx="7" ry="7" style="fill:#e6ecff"/><path d="M38,42a6,6,0,0,0-12,0,5.9216,5.9216,0,0,0,1.4951,3.9482l-1.4814,8.8872A1,1,0,0,0,27,56H37a1,1,0,0,0,.9863-1.1646l-1.4814-8.8872A5.9216,5.9216,0,0,0,38,42Z" style="fill:#4294ff"/></g></svg>