<svg xmlns="http://www.w3.org/2000/svg" viewBox="0 0 64 64"><title>Artboard-23</title><g id="Search_Virus" data-name="Search Virus"><path d="M43.707,36.293l-5.19-5.19a1.0136,1.0136,0,0,0-.8164-.2871,1.0031,1.0031,0,0,0-.7354.458,18.5574,18.5574,0,0,1-5.69,5.6914,1,1,0,0,0-.1714,1.5518l5.19,5.19a.9995.9995,0,0,0,1.414,0l6-6A.9994.9994,0,0,0,43.707,36.293Z" style="fill:#4294ff"/><circle cx="21" cy="21" r="21" style="fill:#e6ecff"/><circle cx="21" cy="21" r="18" style="fill:#d0dbf7"/><path d="M30,32a1,1,0,0,1-1-1V27.6182l-3.4473-1.7237a1,1,0,1,1,.8946-1.789l4,2A1,1,0,0,1,31,27v4A1,1,0,0,1,30,32Z" style="fill:#2946ed"/><path d="M26.001,20a1,1,0,0,1-.4483-1.8945L29,16.3818V12a1,1,0,0,1,2,0v5a1,1,0,0,1-.5527.8945l-4,2A1.0027,1.0027,0,0,1,26.001,20Z" style="fill:#2946ed"/><path d="M12,32a1,1,0,0,1-1-1V27a1,1,0,0,1,.5527-.8945l4-2a1,1,0,0,1,.8946,1.789L13,27.6182V31A1,1,0,0,1,12,32Z" style="fill:#2946ed"/><path d="M15.999,20a1.0027,1.0027,0,0,1-.4463-.1055l-4-2A1,1,0,0,1,11,17V12a1,1,0,0,1,2,0v4.3818l3.4473,1.7237A1,1,0,0,1,15.999,20Z" style="fill:#2946ed"/><path d="M23.0688,14.582a1,1,0,0,1-.8608-1.5068L23,11.7275V11a1,1,0,0,1,2,0v1a.9982.9982,0,0,1-.1382.5068l-.93,1.5821A1,1,0,0,1,23.0688,14.582Z" style="fill:#376cfb"/><path d="M18.9312,14.582a.9976.9976,0,0,1-.8628-.4931l-.93-1.5821A.9982.9982,0,0,1,17,12V11a1,1,0,0,1,2,0v.7275l.792,1.3477a1,1,0,0,1-.8608,1.5068Z" style="fill:#376cfb"/><path d="M33,26a.9967.9967,0,0,1-.707-.293l-2.7388-2.7392-3.6323-.2832a1,1,0,1,1,.1562-1.9942l4,.3125a.9975.9975,0,0,1,.6289.29l3,3A1,1,0,0,1,33,26Z" style="fill:#2946ed"/><path d="M9,26a1,1,0,0,1-.707-1.707l3-3a.9975.9975,0,0,1,.6289-.29l4-.3125a1,1,0,1,1,.1562,1.9942l-3.6323.2832L9.707,25.707A.9967.9967,0,0,1,9,26Z" style="fill:#2946ed"/><path d="M61.6357,50.2217,45.7246,34.3105a1,1,0,0,0-1.4141,0l-10,10a1,1,0,0,0,0,1.4141L50.2217,61.6357a8.0709,8.0709,0,1,0,11.414-11.414Z" style="fill:#4294ff"/><path d="M55.9287,61a5.044,5.044,0,0,1-3.5859-1.4844l-3.6992-3.7a1,1,0,0,1,1.414-1.414l3.6992,3.6992a3.1438,3.1438,0,0,0,4.3438-.001,1,1,0,0,1,1.414,1.4141A5.0387,5.0387,0,0,1,55.9287,61Z" style="fill:#376cfb"/><path d="M33.0176,48.0176a1,1,0,0,1-.7071-1.7071l14-14a1,1,0,0,1,1.4141,1.4141l-14,14A.9969.9969,0,0,1,33.0176,48.0176Z" style="fill:#376cfb"/><path d="M21,12a4.0042,4.0042,0,0,0-4,4v1a1,1,0,0,0,1,1h6a1,1,0,0,0,1-1V16A4.0042,4.0042,0,0,0,21,12Z" style="fill:#4294ff"/><path d="M26,16H16a1,1,0,0,0-1,1v7a6,6,0,0,0,12,0V17A1,1,0,0,0,26,16Z" style="fill:#376cfb"/><path d="M20,29.91a5.5822,5.5822,0,0,0,2,0V16H20Z" style="fill:#2946ed"/></g></svg>