<svg xmlns="http://www.w3.org/2000/svg" viewBox="0 0 64 64"><title>Artboard-16</title><g id="Locked_Folder" data-name="Locked Folder"><path d="M25.9487,14.6836,23.86,8.4185A4.9939,4.9939,0,0,0,19.1172,5H5a5.0059,5.0059,0,0,0-5,5v5a1,1,0,0,0,1,1H25a1.0005,1.0005,0,0,0,.9487-1.3164Z" style="fill:#4294ff"/><path d="M49,14H0V44a5,5,0,0,0,5,5H53a1,1,0,0,0,1-1V19A5,5,0,0,0,49,14Z" style="fill:#e6ecff"/><path d="M58,41H48a1,1,0,0,1-1-1V37a6,6,0,0,1,12,0v3A1,1,0,0,1,58,41Zm-9-2h8V37a4,4,0,0,0-8,0Z" style="fill:#376cfb"/><rect x="42" y="39" width="22" height="20" rx="3" ry="3" style="fill:#4294ff"/><circle cx="53" cy="47" r="3" style="fill:#376cfb"/><path d="M53,54a1,1,0,0,1-1-1V49a1,1,0,0,1,2,0v4A1,1,0,0,1,53,54Z" style="fill:#376cfb"/></g></svg>