<svg xmlns="http://www.w3.org/2000/svg" viewBox="0 0 64 64"><title>Artboard-40</title><g id="Web_Error" data-name="Web Error"><path d="M54,12H10a5.0059,5.0059,0,0,0-5,5V49a1,1,0,0,0,1,1H58a1,1,0,0,0,1-1V17A5.0059,5.0059,0,0,0,54,12Z" style="fill:#e6ecff"/><rect x="9" y="16" width="46" height="28" rx="1" ry="1" style="fill:#d0dbf7"/><path d="M63,48H1a1,1,0,0,0-1,1v4a5.0059,5.0059,0,0,0,5,5H59a5.0059,5.0059,0,0,0,5-5V49A1,1,0,0,0,63,48Z" style="fill:#4294ff"/><path d="M52,48H12v3a3,3,0,0,0,3,3H49a3,3,0,0,0,3-3Z" style="fill:#376cfb"/><path d="M45,6H19a4,4,0,0,0-4,4V44H49V10A4,4,0,0,0,45,6Z" style="fill:#4294ff"/><path d="M45,6H19a4,4,0,0,0-4,4v4H49V10A4,4,0,0,0,45,6Z" style="fill:#376cfb"/><circle cx="19" cy="10" r="1" style="fill:#2946ed"/><circle cx="22" cy="10" r="1" style="fill:#2946ed"/><circle cx="25" cy="10" r="1" style="fill:#2946ed"/><path d="M45,11H36a1,1,0,0,1,0-2h9a1,1,0,0,1,0,2Z" style="fill:#2946ed"/><path d="M42.8477,35.47l-10-16a1.0393,1.0393,0,0,0-1.6954,0l-10,16A1,1,0,0,0,22,37H42a1,1,0,0,0,.8477-1.53Z" style="fill:#376cfb"/><path d="M32,31a1,1,0,0,1-1-1V26a1,1,0,0,1,2,0v4A1,1,0,0,1,32,31Z" style="fill:#2946ed"/><circle cx="32" cy="33" r="1" style="fill:#2946ed"/></g></svg>