<svg xmlns="http://www.w3.org/2000/svg" viewBox="0 0 64 64"><title>Artboard-37</title><g id="Encryption"><path d="M38.5,22.5342a.9991.9991,0,0,0-1.001.001,11.2382,11.2382,0,0,1-10.997,0A1,1,0,0,0,25,23.4V29a.9993.9993,0,0,0,.293.707L26.5859,31,25.293,32.293a.9994.9994,0,0,0,0,1.414L26.5859,35,25.293,36.293a.9994.9994,0,0,0,0,1.414L26.5859,39,25.293,40.293a.9994.9994,0,0,0,0,1.414L26.5859,43,25.293,44.293a.9994.9994,0,0,0,0,1.414L26.5859,47,25.293,48.293a.9994.9994,0,0,0,0,1.414L26.5859,51,25.293,52.293A.9993.9993,0,0,0,25,53v5a1.0011,1.0011,0,0,0,.36.7686l6,5a1.001,1.001,0,0,0,1.28,0l6-5A1.0011,1.0011,0,0,0,39,58V23.4A1,1,0,0,0,38.5,22.5342Z" style="fill:#376cfb"/><path d="M32.64,63.7686l6-5A1.0011,1.0011,0,0,0,39,58V23.4a1,1,0,0,0-1.5015-.8652A11.0091,11.0091,0,0,1,32,23.9722V64A.9986.9986,0,0,0,32.64,63.7686Z" style="fill:#2946ed"/><circle cx="32" cy="13" r="13" style="fill:#4294ff"/><circle cx="32" cy="13" r="6" style="fill:#376cfb"/><path d="M45,35H41a1,1,0,0,1,0-2h3.5859l2.7071-2.707A1,1,0,0,1,48,30h6a1,1,0,0,1,0,2H48.4141L45.707,34.707A1,1,0,0,1,45,35Z" style="fill:#376cfb"/><path d="M54,54H48a1,1,0,0,1-.707-.293L44.5859,51H41a1,1,0,0,1,0-2h4a1,1,0,0,1,.707.293L48.4141,52H54a1,1,0,0,1,0,2Z" style="fill:#376cfb"/><path d="M59,43H41a1,1,0,0,1,0-2H59a1,1,0,0,1,0,2Z" style="fill:#376cfb"/><path d="M23,35H19a1,1,0,0,1-.707-.293L15.5859,32H10a1,1,0,0,1,0-2h6a1,1,0,0,1,.707.293L19.4141,33H23a1,1,0,0,1,0,2Z" style="fill:#376cfb"/><path d="M16,54H10a1,1,0,0,1,0-2h5.5859l2.7071-2.707A1,1,0,0,1,19,49h4a1,1,0,0,1,0,2H19.4141L16.707,53.707A1,1,0,0,1,16,54Z" style="fill:#376cfb"/><path d="M23,43H5a1,1,0,0,1,0-2H23a1,1,0,0,1,0,2Z" style="fill:#376cfb"/><circle cx="56" cy="31" r="3" style="fill:#4294ff"/><circle cx="61" cy="42" r="3" style="fill:#4294ff"/><circle cx="56" cy="53" r="3" style="fill:#4294ff"/><circle cx="8" cy="31" r="3" style="fill:#4294ff"/><circle cx="3" cy="42" r="3" style="fill:#4294ff"/><circle cx="8" cy="53" r="3" style="fill:#4294ff"/></g></svg>