<svg xmlns="http://www.w3.org/2000/svg" viewBox="0 0 64 64"><title>Artboard-9</title><g id="Alarm_Siren" data-name="Alarm Siren"><path d="M32,8A22.0248,22.0248,0,0,0,10,30V49a1,1,0,0,0,1,1H53a1,1,0,0,0,1-1V30A22.0248,22.0248,0,0,0,32,8Z" style="fill:#e6ecff"/><path d="M35,50a1,1,0,0,1-1-1V34H30V49a1,1,0,0,1-2,0V34H25a5,5,0,1,1,5-5v3h4V29a5,5,0,1,1,5,5H36V49A1,1,0,0,1,35,50Zm1-18h3a3,3,0,1,0-3-3ZM25,26a3,3,0,0,0,0,6h3V29A3.0033,3.0033,0,0,0,25,26Z" style="fill:#4294ff"/><path d="M32,6a1,1,0,0,1-1-1V1a1,1,0,0,1,2,0V5A1,1,0,0,1,32,6Z" style="fill:#4294ff"/><path d="M14.3223,13.3223a.9969.9969,0,0,1-.7071-.293l-2.8281-2.8281a1,1,0,0,1,1.4141-1.4141l2.8281,2.8281a1,1,0,0,1-.707,1.7071Z" style="fill:#4294ff"/><path d="M7,31H3a1,1,0,0,1,0-2H7a1,1,0,0,1,0,2Z" style="fill:#4294ff"/><path d="M49.6777,13.3223a1,1,0,0,1-.707-1.7071l2.8281-2.8281a1,1,0,0,1,1.4141,1.4141l-2.8281,2.8281A.9969.9969,0,0,1,49.6777,13.3223Z" style="fill:#4294ff"/><path d="M61,31H57a1,1,0,0,1,0-2h4a1,1,0,0,1,0,2Z" style="fill:#4294ff"/><rect x="5" y="48" width="54" height="10" rx="1" ry="1" style="fill:#376cfb"/><rect x="1" y="56" width="62" height="8" rx="1" ry="1" style="fill:#4294ff"/></g></svg>