<svg xmlns="http://www.w3.org/2000/svg" viewBox="0 0 64 64"><title>Artboard-17</title><g id="Firewall"><path d="M50.564,22.5073c-1.19-4.187-4.86-8.02-9.8174-10.2524C33.97,9.2026,36.978,1.7017,37.1094,1.3838A1.0007,1.0007,0,0,0,35.9121.0381a10.73,10.73,0,0,0-6.67,5.3149,11.5259,11.5259,0,0,0-.5376,9.1343,5.6834,5.6834,0,0,1-2.2739,6.6191,9.3578,9.3578,0,0,0-4.0176-7.7871,1.0022,1.0022,0,0,0-1.1055.0284c-9.7871,6.8574-8.26,18.311-8.19,18.7949a1,1,0,0,0,.99.8574H47.9014a.9989.9989,0,0,0,.8286-.44A11.7966,11.7966,0,0,0,50.564,22.5073Z" style="fill:#4294ff"/><rect x="1" y="30" width="62" height="34" rx="1" ry="1" style="fill:#e6ecff"/><path d="M63,54H43V48H63V46H53V40H63V38H43V30H41v8H23V30H21v8H1v2H11v6H1v2H21v6H1v2H11v8h2V56H31v8h2V56H51v8h2V56H63ZM33,40H51v6H33ZM13,46V40H31v6Zm28,8H23V48H41Z" style="fill:#d0dbf7"/></g></svg>