<svg xmlns="http://www.w3.org/2000/svg" viewBox="0 0 64 64"><title>Artboard-30</title><g id="Flashdisk_Virus" data-name="Flashdisk Virus"><rect x="11" y="1" width="20" height="14" rx="1" ry="1" style="fill:#4294ff"/><path d="M34,13H8a1,1,0,0,0-1,1V49a14,14,0,0,0,28,0V14A1,1,0,0,0,34,13Z" style="fill:#e6ecff"/><circle cx="41" cy="39" r="16" style="fill:#d0dbf7"/><path d="M24,10a1,1,0,0,1-1-1V5a1,1,0,0,1,2,0V9A1,1,0,0,1,24,10Z" style="fill:#376cfb"/><path d="M18,10a1,1,0,0,1-1-1V5a1,1,0,0,1,2,0V9A1,1,0,0,1,18,10Z" style="fill:#376cfb"/><path d="M49,48a1,1,0,0,1-1-1V44.6182l-3.4473-1.7237a1,1,0,1,1,.8946-1.789l4,2A1,1,0,0,1,50,44v3A1,1,0,0,1,49,48Z" style="fill:#2946ed"/><path d="M45.001,39a1,1,0,0,1-.4483-1.8945L48,35.3818V32a1,1,0,0,1,2,0v4a1,1,0,0,1-.5527.8945l-4,2A1.0011,1.0011,0,0,1,45.001,39Z" style="fill:#2946ed"/><path d="M33,48a1,1,0,0,1-1-1V44a1,1,0,0,1,.5527-.8945l4-2a1,1,0,1,1,.8946,1.789L34,44.6182V47A1,1,0,0,1,33,48Z" style="fill:#2946ed"/><path d="M36.999,39a1.0011,1.0011,0,0,1-.4463-.1055l-4-2A1,1,0,0,1,32,36V32a1,1,0,0,1,2,0v3.3818l3.4473,1.7237A1,1,0,0,1,36.999,39Z" style="fill:#2946ed"/><path d="M43.0684,32.582a1,1,0,0,1-.8614-1.5068L43,29.7275V29a1,1,0,0,1,2,0v1a1.0027,1.0027,0,0,1-.1377.5068l-.9307,1.5821A.999.999,0,0,1,43.0684,32.582Z" style="fill:#376cfb"/><path d="M38.9316,32.582a.999.999,0,0,1-.8632-.4931l-.9307-1.5821A1.0027,1.0027,0,0,1,37,30V29a1,1,0,0,1,2,0v.7275l.793,1.3477a1,1,0,0,1-.8614,1.5068Z" style="fill:#376cfb"/><path d="M52.001,44a.9983.9983,0,0,1-.833-.4453L49.4648,41H45a1,1,0,0,1,0-2h5a1,1,0,0,1,.832.4453l2,3A1,1,0,0,1,52.001,44Z" style="fill:#2946ed"/><path d="M29.999,44a1,1,0,0,1-.831-1.5547l2-3A1,1,0,0,1,32,39h5a1,1,0,0,1,0,2H32.5352L30.832,43.5547A.9983.9983,0,0,1,29.999,44Z" style="fill:#2946ed"/><path d="M41,30a4.0039,4.0039,0,0,0-4,4v1a1,1,0,0,0,1,1h6a1,1,0,0,0,1-1V34A4.0039,4.0039,0,0,0,41,30Z" style="fill:#4294ff"/><path d="M45,34H37a1,1,0,0,0-1,1v6a5,5,0,0,0,10,0V35A1,1,0,0,0,45,34Z" style="fill:#376cfb"/><path d="M40,45.8989a4.9961,4.9961,0,0,0,2,0V34H40Z" style="fill:#2946ed"/></g></svg>