<svg xmlns="http://www.w3.org/2000/svg" viewBox="0 0 64 64"><title>Artboard-31</title><g id="Virus-2" data-name="Virus"><path d="M9,1A3,3,0,0,0,6,4V33a1,1,0,0,0,1,1h6V1Z" style="fill:#d0dbf7"/><path d="M55,1H9a3,3,0,0,1,3,3V62a1,1,0,0,0,1,1H49l9-9V4A3,3,0,0,0,55,1Z" style="fill:#e6ecff"/><path d="M50,54a1,1,0,0,0-1,1v8l9-9Z" style="fill:#d0dbf7"/><path d="M46,43a1,1,0,0,1-1-1V37.6768l-4.3716-1.7481a1,1,0,0,1,.7432-1.8574l5,2A1.0006,1.0006,0,0,1,47,37v5A1,1,0,0,1,46,43Z" style="fill:#2946ed"/><path d="M41.0005,28a1,1,0,0,1-.3721-1.9287L45,24.3232V20a1,1,0,0,1,2,0v5a1.0006,1.0006,0,0,1-.6284.9287l-5,2A.9966.9966,0,0,1,41.0005,28Z" style="fill:#2946ed"/><path d="M24,43a1,1,0,0,1-1-1V37a1.0006,1.0006,0,0,1,.6284-.9287l5-2a1,1,0,0,1,.7432,1.8574L25,37.6768V42A1,1,0,0,1,24,43Z" style="fill:#2946ed"/><path d="M49,35a.9967.9967,0,0,1-.707-.293L45.56,31.9746l-4.6226-.2891a.9991.9991,0,0,1-.9355-1.0605,1.01,1.01,0,0,1,1.06-.9355l5,.3125a1.0034,1.0034,0,0,1,.6445.291l3,3A1,1,0,0,1,49,35Z" style="fill:#2946ed"/><path d="M29,28a.9966.9966,0,0,1-.3711-.0713l-5-2A1.0006,1.0006,0,0,1,23,25V20a1,1,0,0,1,2,0v4.3232l4.3716,1.7481A1,1,0,0,1,29,28Z" style="fill:#2946ed"/><path d="M21,35a1,1,0,0,1-.707-1.707l3-3a1.0034,1.0034,0,0,1,.6445-.291l5-.3125a1,1,0,1,1,.125,1.996l-4.6226.2891L21.707,34.707A.9967.9967,0,0,1,21,35Z" style="fill:#2946ed"/><path d="M37.07,18.582a1,1,0,0,1-.6343-1.7734L38,15.5264V14a1,1,0,0,1,2,0v2a1,1,0,0,1-.3662.7734l-1.93,1.5821A.995.995,0,0,1,37.07,18.582Z" style="fill:#376cfb"/><path d="M32.93,18.582a.996.996,0,0,1-.6333-.2265l-1.93-1.5821A1,1,0,0,1,30,16V14a1,1,0,0,1,2,0v1.5264l1.564,1.2822A1,1,0,0,1,32.93,18.582Z" style="fill:#376cfb"/><path d="M35,16a5.0059,5.0059,0,0,0-5,5v2a1,1,0,0,0,1,1h8a1,1,0,0,0,1-1V21A5.0059,5.0059,0,0,0,35,16Z" style="fill:#4294ff"/><path d="M39,22H31a3.0033,3.0033,0,0,0-3,3V35a7,7,0,0,0,14,0V25A3.0033,3.0033,0,0,0,39,22Z" style="fill:#376cfb"/><path d="M34,41.92a6.2978,6.2978,0,0,0,2,0V22H34Z" style="fill:#2946ed"/></g></svg>