<svg xmlns="http://www.w3.org/2000/svg" viewBox="0 0 64 64"><title>Artboard-13</title><g id="Laptop"><path d="M54,9H10a5.0059,5.0059,0,0,0-5,5V50a1,1,0,0,0,1,1H58a1,1,0,0,0,1-1V14A5.0059,5.0059,0,0,0,54,9Z" style="fill:#e6ecff"/><path d="M54,13H35a1,1,0,0,0-1,1,2,2,0,0,1-4,0,1,1,0,0,0-1-1H10a1,1,0,0,0-1,1V44a1,1,0,0,0,1,1H54a1,1,0,0,0,1-1V14A1,1,0,0,0,54,13Z" style="fill:#d0dbf7"/><path d="M63,49H1a1,1,0,0,0-1,1v4a5.0059,5.0059,0,0,0,5,5H59a5.0059,5.0059,0,0,0,5-5V50A1,1,0,0,0,63,49Z" style="fill:#4294ff"/><path d="M52,49H12v3a3,3,0,0,0,3,3H49a3,3,0,0,0,3-3Z" style="fill:#376cfb"/><circle cx="32" cy="14" r="1" style="fill:#4294ff"/><path d="M36,28H28a1,1,0,0,1-1-1V24a5,5,0,0,1,10,0v3A1,1,0,0,1,36,28Zm-7-2h6V24a3,3,0,0,0-6,0Z" style="fill:#376cfb"/><rect x="23" y="26" width="18" height="16" rx="3" ry="3" style="fill:#4294ff"/><circle cx="32" cy="33" r="3" style="fill:#376cfb"/><path d="M32,38a1,1,0,0,1-1-1V35a1,1,0,0,1,2,0v2A1,1,0,0,1,32,38Z" style="fill:#376cfb"/></g></svg>