<svg xmlns="http://www.w3.org/2000/svg" viewBox="0 0 64 64"><title>Artboard-5</title><g id="Save_Disk" data-name="Save Disk"><path d="M60.6836,15.2705l-16-15A.998.998,0,0,0,44,0H4A1,1,0,0,0,3,1V59a1,1,0,0,0,1,1H60a1,1,0,0,0,1-1V16A.9985.9985,0,0,0,60.6836,15.2705Z" style="fill:#e6ecff"/><path d="M51,24H13a1,1,0,0,0-1,1V60H52V25A1,1,0,0,0,51,24Z" style="fill:#d0dbf7"/><path d="M13,13H41a1,1,0,0,0,1-1V0H12V12A1,1,0,0,0,13,13Z" style="fill:#d0dbf7"/><path d="M26,8H36a1,1,0,0,0,1-1V0H25V7A1,1,0,0,0,26,8Z" style="fill:#4294ff"/><path d="M46,29H18a1,1,0,0,1,0-2H46a1,1,0,0,1,0,2Z" style="fill:#4294ff"/><path d="M46,33H18a1,1,0,0,1,0-2H46a1,1,0,0,1,0,2Z" style="fill:#4294ff"/><path d="M37,47H27a1,1,0,0,1-1-1V42a6,6,0,0,1,12,0v4A1,1,0,0,1,37,47Zm-9-2h8V42a4,4,0,0,0-8,0Z" style="fill:#376cfb"/><rect x="22" y="45" width="20" height="19" rx="3" ry="3" style="fill:#4294ff"/><circle cx="32" cy="53" r="3" style="fill:#376cfb"/><path d="M32,59a1,1,0,0,1-1-1V55a1,1,0,0,1,2,0v3A1,1,0,0,1,32,59Z" style="fill:#376cfb"/></g></svg>