<svg xmlns="http://www.w3.org/2000/svg" viewBox="0 0 64 64"><title>Artboard-34</title><g id="Encryption_Chat-2" data-name="Encryption Chat"><path d="M49,10,40,1H6A1,1,0,0,0,5,2V62a1,1,0,0,0,1,1H48a1,1,0,0,0,1-1Z" style="fill:#e6ecff"/><path d="M43.707,20.293l-3-3A.9993.9993,0,0,0,40,17H22.7383a7,7,0,1,0,0,8H25a.9993.9993,0,0,0,.707-.293L27,23.4141l1.293,1.2929a.9994.9994,0,0,0,1.414,0L31,23.4141l1.293,1.2929a.9994.9994,0,0,0,1.414,0L35,23.4141l1.293,1.2929A.9993.9993,0,0,0,37,25h3a.9993.9993,0,0,0,.707-.293l3-3A.9994.9994,0,0,0,43.707,20.293Z" style="fill:#4294ff"/><circle cx="17" cy="21" r="3" style="fill:#376cfb"/><path d="M16,32H12a1,1,0,0,1,0-2h4a1,1,0,0,1,0,2Z" style="fill:#4294ff"/><path d="M43,32H19a1,1,0,0,1,0-2H43a1,1,0,0,1,0,2Z" style="fill:#4294ff"/><path d="M31,40H12a1,1,0,0,1,0-2H31a1,1,0,0,1,0,2Z" style="fill:#4294ff"/><path d="M31,36H12a1,1,0,0,1,0-2H31a1,1,0,0,1,0,2Z" style="fill:#4294ff"/><path d="M20,44H12a1,1,0,0,1,0-2h8a1,1,0,0,1,0,2Z" style="fill:#4294ff"/><path d="M34,44H23a1,1,0,0,1,0-2H34a1,1,0,0,1,0,2Z" style="fill:#4294ff"/><path d="M16,48H12a1,1,0,0,1,0-2h4a1,1,0,0,1,0,2Z" style="fill:#4294ff"/><path d="M34,48H19a1,1,0,0,1,0-2H34a1,1,0,0,1,0,2Z" style="fill:#4294ff"/><path d="M26,52H12a1,1,0,0,1,0-2H26a1,1,0,0,1,0,2Z" style="fill:#4294ff"/><path d="M34,52H29a1,1,0,0,1,0-2h5a1,1,0,0,1,0,2Z" style="fill:#4294ff"/><path d="M16,56H12a1,1,0,0,1,0-2h4a1,1,0,0,1,0,2Z" style="fill:#4294ff"/><path d="M34,56H19a1,1,0,0,1,0-2H34a1,1,0,0,1,0,2Z" style="fill:#4294ff"/><path d="M53,44H43a1,1,0,0,1-1-1V39a6,6,0,0,1,12,0v4A1,1,0,0,1,53,44Zm-9-2h8V39a4,4,0,0,0-8,0Z" style="fill:#376cfb"/><path d="M38,40H34a1,1,0,0,1,0-2h4a1,1,0,0,1,0,2Z" style="fill:#4294ff"/><path d="M38,36H34a1,1,0,0,1,0-2h4a1,1,0,0,1,0,2Z" style="fill:#4294ff"/><path d="M40,1V9a1,1,0,0,0,1,1h8Z" style="fill:#d0dbf7"/><rect x="37" y="42" width="22" height="21" rx="3" ry="3" style="fill:#4294ff"/><circle cx="48" cy="51" r="3" style="fill:#376cfb"/><path d="M48,57a1,1,0,0,1-1-1V53a1,1,0,0,1,2,0v3A1,1,0,0,1,48,57Z" style="fill:#376cfb"/></g></svg>