<svg xmlns="http://www.w3.org/2000/svg" viewBox="0 0 64 64"><title>Artboard-33</title><g id="Virus"><path d="M38.3643,9.6367a1,1,0,0,1-.5879-1.81L41,5.49V2a1,1,0,0,1,2,0V6a1,1,0,0,1-.4131.81L38.95,9.4463A.992.992,0,0,1,38.3643,9.6367Z" style="fill:#376cfb"/><path d="M25.6362,9.6367a.9929.9929,0,0,1-.5859-.19L21.4131,6.81A1.0012,1.0012,0,0,1,21,6V2a1,1,0,0,1,2,0V5.49l3.2241,2.3369a1,1,0,0,1-.5879,1.81Z" style="fill:#376cfb"/><path d="M32,5A10.0114,10.0114,0,0,0,22,15v3a1,1,0,0,0,1,1H41a1,1,0,0,0,1-1V15A10.0117,10.0117,0,0,0,32,5Z" style="fill:#4294ff"/><path d="M56.999,62a1.001,1.001,0,0,1-.9951-.9092L55.0488,50.58,44.4629,43.8438a1,1,0,0,1,1.0742-1.6875l11,7a1.0014,1.0014,0,0,1,.459.7529l1,11a1,1,0,0,1-.9053,1.0869C57.06,61.999,57.0293,62,56.999,62Z" style="fill:#2946ed"/><path d="M45.001,27a1,1,0,0,1-.5381-1.8437L55.0488,18.42l.9551-10.5107a1,1,0,1,1,1.9922.1816l-1,11a1.0018,1.0018,0,0,1-.459.753l-11,7A1.0016,1.0016,0,0,1,45.001,27Z" style="fill:#2946ed"/><path d="M62.001,44a.9978.9978,0,0,1-.8145-.4189L56.4551,36.958,44.917,35.9961a.9987.9987,0,0,1-.9131-1.0791.9847.9847,0,0,1,1.0791-.9131l12,1a.9986.9986,0,0,1,.73.415l5,7A1,1,0,0,1,62.001,44Z" style="fill:#2946ed"/><path d="M7.001,62c-.03,0-.0606-.001-.0913-.0039a1,1,0,0,1-.9058-1.0869l1-11a1,1,0,0,1,.459-.7529l11-7a1,1,0,1,1,1.0742,1.6875L8.9512,50.58,7.9961,61.0908A1.0006,1.0006,0,0,1,7.001,62Z" style="fill:#2946ed"/><path d="M18.999,27a1,1,0,0,1-.5361-.1562l-11-7a1.0006,1.0006,0,0,1-.459-.753l-1-11a1,1,0,0,1,1.9922-.1816L8.9512,18.42l10.5859,6.7364A1,1,0,0,1,18.999,27Z" style="fill:#2946ed"/><path d="M1.999,44a1,1,0,0,1-.813-1.5811l5-7a1,1,0,0,1,.731-.415l12-1a1,1,0,1,1,.166,1.9922L7.5444,36.958l-4.73,6.6231A.9993.9993,0,0,1,1.999,44Z" style="fill:#2946ed"/><path d="M41,17H23a5.0059,5.0059,0,0,0-5,5V45a14,14,0,0,0,28,0V22A5.0059,5.0059,0,0,0,41,17Z" style="fill:#376cfb"/><path d="M31.2986,58.9615c.332.0189.6632.0412,1.0006.0364s.6679-.0366.9992-.0649l-.5977-41.9451-2,.0285Z" style="fill:#2946ed"/></g></svg>