<svg xmlns="http://www.w3.org/2000/svg" viewBox="0 0 64 64"><title>Artboard-3</title><g id="Web_Virus" data-name="Web Virus"><path d="M61,8H14V7a1,1,0,0,0-1-1H3A1,1,0,0,0,2,7V57a1,1,0,0,0,1,1H61a1,1,0,0,0,1-1V9A1,1,0,0,0,61,8Z" style="fill:#e6ecff"/><rect x="26" y="8" width="12" height="8" style="fill:#376cfb"/><rect x="14" y="8" width="12" height="8" style="fill:#4294ff"/><path d="M61,8H50v8H62V9A1,1,0,0,0,61,8Z" style="fill:#376cfb"/><rect x="38" y="8" width="12" height="8" style="fill:#4294ff"/><path d="M10,12H6a1,1,0,0,1,0-2h4a1,1,0,0,1,0,2Z" style="fill:#4294ff"/><path d="M22,13H18a1,1,0,0,1,0-2h4a1,1,0,0,1,0,2Z" style="fill:#376cfb"/><path d="M34,13H30a1,1,0,0,1,0-2h4a1,1,0,0,1,0,2Z" style="fill:#2946ed"/><path d="M46,13H42a1,1,0,0,1,0-2h4a1,1,0,0,1,0,2Z" style="fill:#376cfb"/><path d="M34.07,27.582a1,1,0,0,1-.6348-1.7734L35,24.5264V23a1,1,0,0,1,2,0v2a1.0008,1.0008,0,0,1-.3662.7734l-1.9307,1.5821A.9946.9946,0,0,1,34.07,27.582Z" style="fill:#376cfb"/><path d="M29.93,27.582a.996.996,0,0,1-.6333-.2265l-1.93-1.5821A.9993.9993,0,0,1,27,25V23a1,1,0,0,1,2,0v1.5269l1.564,1.2817A1,1,0,0,1,29.93,27.582Z" style="fill:#376cfb"/><path d="M58,13H54a1,1,0,0,1,0-2h4a1,1,0,0,1,0,2Z" style="fill:#2946ed"/><path d="M32,25a5.0059,5.0059,0,0,0-5,5v2a1,1,0,0,0,1,1h8a1,1,0,0,0,1-1V30A5.0059,5.0059,0,0,0,32,25Z" style="fill:#4294ff"/><path d="M43,52a1,1,0,0,1-1-1V46.6772l-4.3711-1.7485a1,1,0,1,1,.7422-1.8574l5,2A1.0009,1.0009,0,0,1,44,46v5A1,1,0,0,1,43,52Z" style="fill:#4294ff"/><path d="M38,37.0005a1,1,0,0,1-.3711-1.9292L42,33.3228V29a1,1,0,0,1,2,0v5a1.0009,1.0009,0,0,1-.6289.9287l-5,2A1,1,0,0,1,38,37.0005Z" style="fill:#4294ff"/><path d="M21,52a1,1,0,0,1-1-1V46a1.0011,1.0011,0,0,1,.6284-.9287l5-2a1,1,0,0,1,.7432,1.8574L22,46.6772V51A1,1,0,0,1,21,52Z" style="fill:#4294ff"/><path d="M46,44a.9967.9967,0,0,1-.707-.293l-2.7325-2.7324-4.623-.2891a1,1,0,1,1,.125-1.996l5,.3125a.9973.9973,0,0,1,.6445.291l3,3A1,1,0,0,1,46,44Z" style="fill:#4294ff"/><path d="M26,37.0005a1.0054,1.0054,0,0,1-.3711-.0718l-5-2A1.0011,1.0011,0,0,1,20,34V29a1,1,0,0,1,2,0v4.3228l4.3716,1.7485A1,1,0,0,1,26,37.0005Z" style="fill:#4294ff"/><path d="M18,44a1,1,0,0,1-.707-1.707l3-3a.9984.9984,0,0,1,.6445-.291l5-.3125a.988.988,0,0,1,1.0605.9355,1,1,0,0,1-.9355,1.06l-4.6226.2891L18.707,43.707A.9967.9967,0,0,1,18,44Z" style="fill:#4294ff"/><path d="M36,31H28a3.0033,3.0033,0,0,0-3,3V44a7,7,0,0,0,14,0V34A3.0033,3.0033,0,0,0,36,31Z" style="fill:#376cfb"/><path d="M31,50.92a6.3017,6.3017,0,0,0,2,0V31H31Z" style="fill:#2946ed"/></g></svg>