<svg xmlns="http://www.w3.org/2000/svg" viewBox="0 0 64 64"><title>Artboard-26</title><g id="Password_Web" data-name="Password Web"><path d="M61,8H14V7a1,1,0,0,0-1-1H3A1,1,0,0,0,2,7V57a1,1,0,0,0,1,1H61a1,1,0,0,0,1-1V9A1,1,0,0,0,61,8Z" style="fill:#e6ecff"/><rect x="26" y="8" width="12" height="8" style="fill:#376cfb"/><rect x="14" y="8" width="12" height="8" style="fill:#4294ff"/><path d="M61,8H50v8H62V9A1,1,0,0,0,61,8Z" style="fill:#376cfb"/><rect x="38" y="8" width="12" height="8" style="fill:#4294ff"/><path d="M10,12H6a1,1,0,0,1,0-2h4a1,1,0,0,1,0,2Z" style="fill:#4294ff"/><path d="M22,13H18a1,1,0,0,1,0-2h4a1,1,0,0,1,0,2Z" style="fill:#376cfb"/><path d="M34,13H30a1,1,0,0,1,0-2h4a1,1,0,0,1,0,2Z" style="fill:#2946ed"/><path d="M46,13H42a1,1,0,0,1,0-2h4a1,1,0,0,1,0,2Z" style="fill:#376cfb"/><path d="M58,13H54a1,1,0,0,1,0-2h4a1,1,0,0,1,0,2Z" style="fill:#2946ed"/><path d="M36,27H28a1,1,0,0,1-1-1V24a5,5,0,0,1,10,0v2A1,1,0,0,1,36,27Zm-7-2h6V24a3,3,0,0,0-6,0Z" style="fill:#376cfb"/><rect x="23" y="25" width="18" height="16" rx="3" ry="3" style="fill:#4294ff"/><circle cx="32" cy="32" r="3" style="fill:#376cfb"/><path d="M32,37a1,1,0,0,1-1-1V34a1,1,0,0,1,2,0v2A1,1,0,0,1,32,37Z" style="fill:#376cfb"/><path d="M50,43H14a6,6,0,0,0,0,12H50a6,6,0,0,0,0-12Z" style="fill:#4294ff"/><path d="M34.707,47.707a1,1,0,0,0-1.414-1.414L32,47.5859,30.707,46.293a1,1,0,0,0-1.414,1.414L30.5859,49,29.293,50.293a1,1,0,0,0,1.414,1.414L32,50.4141l1.293,1.2929a1,1,0,0,0,1.414-1.414L33.4141,49Z" style="fill:#376cfb"/><path d="M42.707,47.707a1,1,0,0,0-1.414-1.414L40,47.5859,38.707,46.293a1,1,0,0,0-1.414,1.414L38.5859,49,37.293,50.293a1,1,0,0,0,1.414,1.414L40,50.4141l1.293,1.2929a1,1,0,0,0,1.414-1.414L41.4141,49Z" style="fill:#376cfb"/><path d="M49.4141,49l1.2929-1.293a1,1,0,0,0-1.414-1.414L48,47.5859,46.707,46.293a1,1,0,0,0-1.414,1.414L46.5859,49,45.293,50.293a1,1,0,0,0,1.414,1.414L48,50.4141l1.293,1.2929a1,1,0,0,0,1.414-1.414Z" style="fill:#376cfb"/><path d="M26.707,47.707a1,1,0,0,0-1.414-1.414L24,47.5859,22.707,46.293a1,1,0,0,0-1.414,1.414L22.5859,49,21.293,50.293a1,1,0,0,0,1.414,1.414L24,50.4141l1.293,1.2929a1,1,0,0,0,1.414-1.414L25.4141,49Z" style="fill:#376cfb"/><path d="M18.707,47.707a1,1,0,0,0-1.414-1.414L16,47.5859,14.707,46.293a1,1,0,0,0-1.414,1.414L14.5859,49,13.293,50.293a1,1,0,0,0,1.414,1.414L16,50.4141l1.293,1.2929a1,1,0,0,0,1.414-1.414L17.4141,49Z" style="fill:#376cfb"/></g></svg>