<svg xmlns="http://www.w3.org/2000/svg" viewBox="0 0 64 64"><title>Artboard-22</title><g id="Shield_Bitcoin" data-name="Shield Bitcoin"><path d="M57.0586,11.002C40.7451,10.042,32.8574.4707,32.78.374a1.0026,1.0026,0,0,0-.7793-.373H31.999a1,1,0,0,0-.78.374c-.0771.0967-7.9116,9.6641-24.2778,10.627A1,1,0,0,0,6,12V38.415A21.107,21.107,0,0,0,17.9126,57.3467l13.6548,6.5547a.9983.9983,0,0,0,.8652,0l13.6548-6.5547A21.107,21.107,0,0,0,58,38.415V12A1,1,0,0,0,57.0586,11.002Z" style="fill:#e6ecff"/><path d="M54.1177,13.752A38.8773,38.8773,0,0,1,32.667,4.5146a1,1,0,0,0-1.334,0A38.8773,38.8773,0,0,1,9.8823,13.752,1,1,0,0,0,9,14.7451V38.416A18.09,18.09,0,0,0,19.2109,54.6426l12.3565,5.9306a.9974.9974,0,0,0,.8652,0l12.3565-5.9306A18.09,18.09,0,0,0,55,38.416V14.7451A1,1,0,0,0,54.1177,13.752Z" style="fill:#d0dbf7"/><circle cx="32" cy="32" r="17" style="fill:#4294ff"/><circle cx="32" cy="32" r="14" style="fill:#376cfb"/><path d="M37.9417,32A3.4828,3.4828,0,0,0,36,26.0505V25a1,1,0,0,0-2,0v1H31V25a1,1,0,0,0-2,0v1H26a1,1,0,0,0,0,2h1v8H26a1,1,0,0,0,0,2h3v1a1,1,0,0,0,2,0V38h3v1a1,1,0,0,0,2,0V37.95A3.4828,3.4828,0,0,0,37.9417,32ZM37,29.5A1.5017,1.5017,0,0,1,35.5,31H29V28h6.5A1.5017,1.5017,0,0,1,37,29.5ZM35.5,36H29V33h6.5a1.5,1.5,0,0,1,0,3Z" style="fill:#2946ed"/></g></svg>