<svg xmlns="http://www.w3.org/2000/svg" viewBox="0 0 64 64"><title>Artboard-8</title><g id="Credi_Card" data-name="Credi Card"><path d="M51,10H3a3.0033,3.0033,0,0,0-3,3V39a3.0033,3.0033,0,0,0,3,3H53a1,1,0,0,0,1-1V13A3.0033,3.0033,0,0,0,51,10Z" style="fill:#e6ecff"/><rect y="15" width="54" height="7" style="fill:#4294ff"/><path d="M18,38H5a1,1,0,0,1,0-2H18a1,1,0,0,1,0,2Z" style="fill:#4294ff"/><path d="M23,38H21a1,1,0,0,1,0-2h2a1,1,0,0,1,0,2Z" style="fill:#4294ff"/><path d="M23,34H5a1,1,0,0,1,0-2H23a1,1,0,0,1,0,2Z" style="fill:#4294ff"/><path d="M58,36H48a1,1,0,0,1-1-1V32a6,6,0,0,1,12,0v3A1,1,0,0,1,58,36Zm-9-2h8V32a4,4,0,0,0-8,0Z" style="fill:#376cfb"/><rect x="42" y="34" width="22" height="20" rx="3" ry="3" style="fill:#4294ff"/><circle cx="53" cy="42" r="3" style="fill:#376cfb"/><path d="M53,49a1,1,0,0,1-1-1V44a1,1,0,0,1,2,0v4A1,1,0,0,1,53,49Z" style="fill:#376cfb"/></g></svg>