<svg xmlns="http://www.w3.org/2000/svg" viewBox="0 0 64 64"><title>Artboard-28</title><g id="Smartphone_Virus" data-name="Smartphone Virus"><rect x="12" width="40" height="64" rx="5" ry="5" style="fill:#4294ff"/><rect x="12" y="8" width="40" height="48" style="fill:#e6ecff"/><path d="M41,44.5a1,1,0,0,1-1-1V40.1182l-3.4473-1.7237a1,1,0,1,1,.8946-1.789l4,2A1,1,0,0,1,42,39.5v4A1,1,0,0,1,41,44.5Z" style="fill:#2946ed"/><path d="M37.001,30.5a1,1,0,0,1-.4483-1.8945L40,26.8818V22.5a1,1,0,0,1,2,0v5a1,1,0,0,1-.5527.8945l-4,2A1.0011,1.0011,0,0,1,37.001,30.5Z" style="fill:#2946ed"/><path d="M23,44.5a1,1,0,0,1-1-1v-4a1,1,0,0,1,.5527-.8945l4-2a1,1,0,0,1,.8946,1.789L24,40.1182V43.5A1,1,0,0,1,23,44.5Z" style="fill:#2946ed"/><path d="M26.999,30.5a1.0027,1.0027,0,0,1-.4463-.1055l-4-2A1,1,0,0,1,22,27.5v-5a1,1,0,0,1,2,0v4.3818l3.4473,1.7237A1,1,0,0,1,26.999,30.5Z" style="fill:#2946ed"/><path d="M45,37.5a.9967.9967,0,0,1-.707-.293l-2.7325-2.7324-4.623-.2891a1,1,0,1,1,.125-1.996l5,.3125a1.0023,1.0023,0,0,1,.6445.291l3,3A1,1,0,0,1,45,37.5Z" style="fill:#2946ed"/><path d="M19,37.5a1,1,0,0,1-.707-1.707l3-3a1.0034,1.0034,0,0,1,.6445-.291l5-.3125a1,1,0,0,1,.125,1.996l-4.6226.2891L19.707,37.207A.9967.9967,0,0,1,19,37.5Z" style="fill:#2946ed"/><path d="M47,5H46a1,1,0,0,1,0-2h1a1,1,0,0,1,0,2Z" style="fill:#376cfb"/><path d="M43,5H39a1,1,0,0,1,0-2h4a1,1,0,0,1,0,2Z" style="fill:#376cfb"/><path d="M34,61H30a1,1,0,0,1,0-2h4a1,1,0,0,1,0,2Z" style="fill:#376cfb"/><path d="M34.07,25.082a1,1,0,0,1-.6348-1.7734L35,22.0264V20.5a1,1,0,0,1,2,0v2a1,1,0,0,1-.3662.7734l-1.9307,1.5821A.9946.9946,0,0,1,34.07,25.082Z" style="fill:#376cfb"/><path d="M29.93,25.082a.996.996,0,0,1-.6333-.2265l-1.93-1.5821A1,1,0,0,1,27,22.5v-2a1,1,0,0,1,2,0v1.5264l1.564,1.2822A1,1,0,0,1,29.93,25.082Z" style="fill:#376cfb"/><path d="M32,22.5a4.0042,4.0042,0,0,0-4,4v1a1,1,0,0,0,1,1h6a1,1,0,0,0,1-1v-1A4.0039,4.0039,0,0,0,32,22.5Z" style="fill:#4294ff"/><path d="M37,26.5H27a1,1,0,0,0-1,1v9a6,6,0,0,0,12,0v-9A1,1,0,0,0,37,26.5Z" style="fill:#376cfb"/><path d="M31,42.41a5.5822,5.5822,0,0,0,2,0V26.5H31Z" style="fill:#2946ed"/></g></svg>