<svg xmlns="http://www.w3.org/2000/svg" viewBox="0 0 64 64"><title>Artboard-19</title><g id="Email_Virus" data-name="Email Virus"><path d="M12.4336,17.0986a1.0039,1.0039,0,0,0-1.0586.1206l-10,8a1,1,0,0,0-.03,1.5362l10,8.67A1,1,0,0,0,13,34.67V18A1.0012,1.0012,0,0,0,12.4336,17.0986Z" style="fill:#2946ed"/><path d="M62.625,25.2192l-10-8A1,1,0,0,0,51,18V34.67a1,1,0,0,0,1.6553.7554l10-8.67a1,1,0,0,0-.03-1.5362Z" style="fill:#2946ed"/><path d="M52,0H12a1,1,0,0,0-1,1V34.67a1.0016,1.0016,0,0,0,.3447.7559l10.9405,9.48a1.001,1.001,0,0,0,1.3242-.0122L32,37.3452l8.3906,7.5484a1.0013,1.0013,0,0,0,1.3242.0122l10.9405-9.48A1.0016,1.0016,0,0,0,53,34.67V1A1,1,0,0,0,52,0Z" style="fill:#e6ecff"/><path d="M34.07,10.582a1,1,0,0,1-.6348-1.7734L35,7.5264V6a1,1,0,0,1,2,0V8a1.0008,1.0008,0,0,1-.3662.7734l-1.9307,1.5821A.9946.9946,0,0,1,34.07,10.582Z" style="fill:#376cfb"/><path d="M43,33a1,1,0,0,1-1-1V27.6772l-4.3711-1.7485a1,1,0,1,1,.7422-1.8574l5,2A1.0009,1.0009,0,0,1,44,27v5A1,1,0,0,1,43,33Z" style="fill:#2946ed"/><path d="M38,20.0005a1,1,0,0,1-.3711-1.9292L42,16.3228V12a1,1,0,0,1,2,0v5a1.0009,1.0009,0,0,1-.6289.9287l-5,2A1,1,0,0,1,38,20.0005Z" style="fill:#2946ed"/><path d="M21,33a1,1,0,0,1-1-1V27a1.0009,1.0009,0,0,1,.6289-.9287l5-2a1,1,0,1,1,.7422,1.8574L22,27.6772V32A1,1,0,0,1,21,33Z" style="fill:#2946ed"/><path d="M26,20.0005a1,1,0,0,1-.3711-.0718l-5-2A1.0009,1.0009,0,0,1,20,17V12a1,1,0,0,1,2,0v4.3228l4.3711,1.7485A1,1,0,0,1,26,20.0005Z" style="fill:#2946ed"/><path d="M29.93,10.582a.9946.9946,0,0,1-.6328-.2265L27.3662,8.7734A1.0008,1.0008,0,0,1,27,8V6a1,1,0,0,1,2,0V7.5264l1.5645,1.2822A1,1,0,0,1,29.93,10.582Z" style="fill:#376cfb"/><path d="M46,26a.9967.9967,0,0,1-.707-.293l-2.7325-2.7324-4.623-.2891a1,1,0,0,1,.125-1.996l5,.3125a.9973.9973,0,0,1,.6445.291l3,3A1,1,0,0,1,46,26Z" style="fill:#2946ed"/><path d="M18,26a1,1,0,0,1-.707-1.707l3-3a.9973.9973,0,0,1,.6445-.291l5-.3125a1,1,0,1,1,.125,1.996l-4.623.2891L18.707,25.707A.9967.9967,0,0,1,18,26Z" style="fill:#2946ed"/><path d="M62.415,25.09a1.0024,1.0024,0,0,0-1.07.1538L41.0723,42.8159l-8.4034-7.56a1.0011,1.0011,0,0,0-1.3378,0l-8.4034,7.56L2.6553,25.2441A1,1,0,0,0,1,26V63a1,1,0,0,0,1,1H62a1,1,0,0,0,1-1V26A1,1,0,0,0,62.415,25.09Z" style="fill:#376cfb"/><path d="M32.6689,35.2568a1.028,1.028,0,0,0-1.3378,0L1,62.5547V63a1,1,0,0,0,1,1H62a1,1,0,0,0,1-1v-.4453Z" style="fill:#4294ff"/><path d="M32,8a5.0059,5.0059,0,0,0-5,5v2a1,1,0,0,0,1,1h8a1,1,0,0,0,1-1V13A5.0059,5.0059,0,0,0,32,8Z" style="fill:#4294ff"/><path d="M36,14H28a3.0033,3.0033,0,0,0-3,3v8a5.0059,5.0059,0,0,0,5,5h4a5.0059,5.0059,0,0,0,5-5V17A3.0033,3.0033,0,0,0,36,14Z" style="fill:#376cfb"/><rect x="31" y="14" width="2" height="16" style="fill:#2946ed"/></g></svg>