<svg xmlns="http://www.w3.org/2000/svg" viewBox="0 0 64 64"><title>Artboard-20</title><g id="Lock_Cloud" data-name="Lock Cloud"><path d="M50.9648,12.0327A12.9937,12.9937,0,0,0,26.123,7.7388,11.8223,11.8223,0,0,0,22,7a11.98,11.98,0,0,0-11.6426,9.123A11.9946,11.9946,0,0,0,12,40H50a14,14,0,0,0,.9648-27.9673Z" style="fill:#e6ecff"/><path d="M53,13a16.4457,16.4457,0,0,1-1.69,7.16,1.0079,1.0079,0,0,1-.9.57,1.129,1.129,0,0,1-.44-.1,1,1,0,0,1-.46-1.34A14.3988,14.3988,0,0,0,51,13c0-.33-.01-.65-.04-.97a13.2809,13.2809,0,0,1,2.02.29C52.99,12.54,53,12.77,53,13Z" style="fill:#d0dbf7"/><path d="M33.56,12.68a1.0351,1.0351,0,0,1-.57.18,1.0006,1.0006,0,0,1-.82-.42A12.8949,12.8949,0,0,0,27.1,8.15c-.32-.15-.65-.29-.98-.41a13.68,13.68,0,0,1,.96-1.77c.29.11.59.23.88.37a15.0081,15.0081,0,0,1,5.84,4.95A.9957.9957,0,0,1,33.56,12.68Z" style="fill:#d0dbf7"/><path d="M18.91,16.79a.9948.9948,0,0,1-1.33.49,13,13,0,0,0-6.47-1.24c-.25.02-.5.05-.75.08a12.1646,12.1646,0,0,1,.72-2.08,15.0968,15.0968,0,0,1,7.34,1.43A.9866.9866,0,0,1,18.91,16.79Z" style="fill:#d0dbf7"/><path d="M37,47H27a1,1,0,0,1-1-1V30a6,6,0,0,1,12,0,1,1,0,0,1-2,0,4,4,0,0,0-8,0V45h8V39a1,1,0,0,1,2,0v7A1,1,0,0,1,37,47Z" style="fill:#376cfb"/><path d="M39,31H35a1,1,0,0,1,0-2h4a1,1,0,0,1,0,2Z" style="fill:#4294ff"/><rect x="22" y="45" width="20" height="19" rx="3" ry="3" style="fill:#4294ff"/><circle cx="32" cy="53" r="3" style="fill:#376cfb"/><path d="M32,59a1,1,0,0,1-1-1V55a1,1,0,0,1,2,0v3A1,1,0,0,1,32,59Z" style="fill:#376cfb"/></g></svg>