<svg xmlns="http://www.w3.org/2000/svg" viewBox="0 0 64 64"><title>Artboard-2</title><g id="Shield-2" data-name="Shield"><path d="M57.0586,11.002C40.7451,10.042,32.8574.4707,32.78.374a1.0015,1.0015,0,0,0-.7793-.3735H31.999a1.0009,1.0009,0,0,0-.78.375c-.0771.0962-7.9116,9.6636-24.2778,10.6265A1,1,0,0,0,6,12V38.4155A21.1087,21.1087,0,0,0,17.9126,57.3472l13.6548,6.5542a.9983.9983,0,0,0,.8652,0l13.6548-6.5542A21.1087,21.1087,0,0,0,58,38.4155V12A1,1,0,0,0,57.0586,11.002Z" style="fill:#4294ff"/><path d="M54.1177,13.752A38.8921,38.8921,0,0,1,32.6665,4.5151a.999.999,0,0,0-1.333,0A38.8921,38.8921,0,0,1,9.8823,13.752,1,1,0,0,0,9,14.7451v23.67A18.0923,18.0923,0,0,0,19.2109,54.6426l12.3565,5.9311a.9974.9974,0,0,0,.8652,0l12.3565-5.9311A18.0923,18.0923,0,0,0,55,38.4155v-23.67A1,1,0,0,0,54.1177,13.752Z" style="fill:#e6ecff"/><path d="M36,29H28a1,1,0,0,1-1-1V24a5,5,0,0,1,10,0v4A1,1,0,0,1,36,29Zm-7-2h6V24a3,3,0,0,0-6,0Z" style="fill:#376cfb"/><rect x="23" y="27" width="18" height="16" rx="3" ry="3" style="fill:#4294ff"/><circle cx="32" cy="34" r="3" style="fill:#376cfb"/><path d="M32,39a1,1,0,0,1-1-1V36a1,1,0,0,1,2,0v2A1,1,0,0,1,32,39Z" style="fill:#376cfb"/></g></svg>