<?xml version="1.0" encoding="utf-8"?>
<!-- Generator: Adobe Illustrator 16.0.0, SVG Export Plug-In . SVG Version: 6.00 Build 0)  -->
<!DOCTYPE svg PUBLIC "-//W3C//DTD SVG 1.1//EN" "http://www.w3.org/Graphics/SVG/1.1/DTD/svg11.dtd">
<svg version="1.1" xmlns="http://www.w3.org/2000/svg" xmlns:xlink="http://www.w3.org/1999/xlink" x="0px" y="0px" width="64px"
	 height="64px" viewBox="0 0 64 64" enable-background="new 0 0 64 64" xml:space="preserve">
<g id="_x35_0_document_x2C__optimization_x2C__documentation_x2C__business_x2C__office_x2C__corporation_x2C__job">
</g>
<g id="_x34_9_human_x2C__resource_x2C__conveyor_x2C__business_x2C__office_x2C__corporation_x2C__job">
</g>
<g id="_x34_8_knowledge_x2C__training_x2C__growth_x2C__book_x2C__business_x2C__office_x2C__corporation">
</g>
<g id="_x34_7_skill_x2C__competence_x2C__experience_x2C__business_x2C__office_x2C__corporation_x2C__job">
</g>
<g id="_x34_6_target_x2C__success_x2C__victory_x2C__business_x2C__office_x2C__corporation_x2C__job">
</g>
<g id="_x34_5_inbox_x2C__letter_x2C__email_x2C__business_x2C__office_x2C__corporation_x2C__job">
</g>
<g id="_x34_4_document_x2C__workflow_x2C__sharing_x2C__business_x2C__office_x2C__corporation_x2C__job">
</g>
<g id="_x34_3_budget_x2C__allocation_x2C__money_x2C__business_x2C__office_x2C__corporation_x2C__job">
</g>
<g id="_x34_2_case_x2C__task_x2C__project_x2C__business_x2C__office_x2C__corporation_x2C__job">
</g>
<g id="_x34_1_structure_x2C__structuring_x2C__tasks_x2C__business_x2C__office_x2C__corporation_x2C__job">
</g>
<g id="_x34_0_choice_x2C__dilemma_x2C__question_x2C__business_x2C__office_x2C__corporation_x2C__job">
</g>
<g id="_x33_9_workplace_x2C__table_x2C__laptop_x2C__business_x2C__office_x2C__corporation_x2C__job">
</g>
<g id="_x33_8_bribe_x2C__bag_x2C__money_x2C__business_x2C__office_x2C__corporation_x2C__job">
</g>
<g id="_x33_7_corruption_x2C__forage_x2C__money_x2C__business_x2C__office_x2C__corporation_x2C__job">
</g>
<g id="_x33_6_career_x2C__ladder_x2C__success_x2C__business_x2C__office_x2C__corporation_x2C__job">
</g>
<g id="_x33_5_review_x2C__feedback_x2C__rating_x2C__business_x2C__office_x2C__corporation_x2C__job">
</g>
<g id="_x33_4_manipulation_x2C__thread_x2C__puppet_x2C__business_x2C__office_x2C__corporation_x2C__job">
</g>
<g id="_x33_3_location_x2C__map_x2C__pin_x2C__business_x2C__office_x2C__corporation_x2C__job">
</g>
<g id="_x33_2_retirement_x2C__old_x2C__man_x2C__door_x2C__business_x2C__office_x2C__corporation">
</g>
<g id="_x33_1_victory_x2C__success_x2C__medal_x2C__reward_x2C__business_x2C__office_x2C__corporation">
</g>
<g id="_x33_0_dismissal_x2C__box_x2C__door_x2C__business_x2C__office_x2C__corporation_x2C__job">
</g>
<g id="_x32_9_meeting_x2C__discussion_x2C__question_x2C__business_x2C__office_x2C__corporation_x2C__job">
</g>
<g id="_x32_8_strategy_x2C__vision_x2C__eye_x2C__chess_x2C__business_x2C__office_x2C__corporation">
</g>
<g id="_x32_7_board_x2C__task_x2C__process_x2C__business_x2C__office_x2C__corporation_x2C__job">
</g>
<g id="_x32_6_scheme_x2C__board_x2C__structure_x2C__business_x2C__office_x2C__corporation_x2C__job">
</g>
<g id="_x32_5_conflict_x2C__dialog_x2C__discussion_x2C__business_x2C__office_x2C__corporation_x2C__job">
</g>
<g id="_x32_4_documentation_x2C__document_x2C__repository_x2C__business_x2C__office_x2C__corporation_x2C__job">
</g>
<g id="_x32_3_sprint_x2C__programming_x2C__code_x2C__business_x2C__office_x2C__corporation_x2C__job">
</g>
<g id="_x32_2_cram_x2C__tablet_x2C__work_x2C__business_x2C__office_x2C__corporation_x2C__job">
</g>
<g id="_x32_1_leader_x2C__discoverer_x2C__flag_x2C__business_x2C__office_x2C__corporation_x2C__job">
</g>
<g id="_x32_0_rally_x2C__collective_x2C__arm_x2C__business_x2C__office_x2C__corporation_x2C__job">
</g>
<g id="_x31_9_consolidation_x2C__portfolio_x2C__puzzle_x2C__business_x2C__office_x2C__corporation_x2C__job">
</g>
<g id="_x31_8_idea_x2C__creative_x2C__work_x2C__business_x2C__office_x2C__corporation_x2C__job">
</g>
<g id="_x31_7_problem_x2C__stress_x2C__resistance_x2C__business_x2C__office_x2C__corporation_x2C__job">
</g>
<g id="_x31_6_hard_x2C__skills_x2C__skill_x2C__portfolio_x2C__book_x2C__business_x2C__office">
</g>
<g id="_x31_5_time_x2C__management_x2C__clock_x2C__deadline_x2C__business_x2C__office_x2C__corporation">
</g>
<g id="_x31_4_multitasking_x2C__task_x2C__work_x2C__business_x2C__office_x2C__corporation_x2C__job">
</g>
<g id="_x31_3_tranquility_x2C__yoga_x2C__lotus_x2C__posture_x2C__business_x2C__office_x2C__corporation">
</g>
<g id="_x31_2_corporate_x2C__party_x2C__business_x2C__office_x2C__corporation_x2C__job">
</g>
<g id="_x31_1_dialog_x2C__discussion_x2C__work_x2C__business_x2C__office_x2C__corporation_x2C__job">
</g>
<g id="_x31_0_listening_x2C__skill_x2C__dialog_x2C__business_x2C__office_x2C__corporation_x2C__job">
	<g>
		<g>
			<polygon fill="#5D9CEC" points="47,4.5 47,20.5 42,20.5 42,22.5 38,20.5 22,20.5 22,4.5 			"/>
			<path fill="#F6BB42" d="M59.98,34v1.5c-1.941-2.53-3.35-3.13-4.98-2.971l2.98-4.359C59.24,29.779,59.98,31.811,59.98,34z"/>
			<path fill="#FFCE54" d="M57.98,28.17L55,32.529c-2.66,0.261-5.92,2.49-13.02,1.611c-0.32-0.041-0.66-0.091-1-0.141
				c0-5.25,4.25-9.5,9.5-9.5C53.529,24.5,56.25,25.939,57.98,28.17z"/>
			<path fill="#EDAB37" d="M57.98,28.17l-2.33,3.406c0.084,0.315,0.162,0.633,0.213,0.959c0.596,0.059,1.184,0.26,1.797,0.66
				c0.066,0.043,0.133,0.084,0.201,0.132c0.102,0.073,0.205,0.155,0.309,0.239c0.094,0.078,0.189,0.159,0.287,0.246
				c0.092,0.083,0.184,0.168,0.277,0.26c0.121,0.12,0.246,0.254,0.371,0.391c0.078,0.083,0.152,0.161,0.23,0.251
				c0.209,0.239,0.422,0.497,0.645,0.786V34C59.98,31.811,59.24,29.779,57.98,28.17z"/>
			<path fill="#F6BB42" d="M49.426,24.562c-0.326,0.037-0.646,0.089-0.961,0.157h-0.002c2.229,0.475,4.174,1.72,5.518,3.451
				c0.777,0.994,1.342,2.153,1.67,3.406l2.33-3.406c-1.73-2.23-4.451-3.67-7.5-3.67c-0.346,0-0.686,0.02-1.021,0.057
				C49.447,24.558,49.438,24.561,49.426,24.562z"/>
			<path fill="#EAC6BB" d="M59.98,35.5v3c0,3.53-2.041,6.59-5,8.06c-1.201,0.601-2.561,0.94-4,0.94c-1.441,0-2.801-0.34-4-0.94
				c-2.961-1.47-5-4.529-5-8.06v-0.04v-4.319C49.08,35.02,52.34,32.79,55,32.529C56.631,32.37,58.039,32.97,59.98,35.5z"/>
			<path fill="#D3B1A9" d="M56,32.551v5.977c0,3.53-2.041,6.59-5,8.06c-0.607,0.304-1.256,0.539-1.934,0.699
				c0.617,0.135,1.256,0.214,1.914,0.214c1.439,0,2.799-0.34,4-0.94c2.959-1.47,5-4.529,5-8.06v-3
				C58.445,33.499,57.242,32.715,56,32.551z"/>
			<path fill="#F5F7FA" d="M50.98,47.5c1.439,0,2.799-0.34,4-0.94v3.94l-2,1l-2-1l-2,1l-2-1v-3.94
				C48.18,47.16,49.539,47.5,50.98,47.5z"/>
			<path fill="#E6E9ED" d="M62.98,55.5v3c0,0.55-0.441,1-1,1h-22c-0.551,0-1-0.45-1-1v-3c0-2.76,2.24-5,5-5h3l2,1l2-1l2,1l2-1h3
				C60.75,50.5,62.98,52.74,62.98,55.5z"/>
			<g>
				<path fill="#CCD1D9" d="M57.98,50.5h-3l-0.168,0.084c2.369,0.397,4.168,2.44,4.168,4.916v3c0,0.55-0.441,1-1,1h4
					c0.559,0,1-0.45,1-1v-3C62.98,52.74,60.75,50.5,57.98,50.5z"/>
			</g>
			<path fill="#F5F7FA" d="M13.02,47.5c1.439,0,2.801-0.34,4-0.94v3.94l-2,1l-2-1l-2,1l-2-1v-3.94
				C10.221,47.16,11.58,47.5,13.02,47.5z"/>
			<path fill="#5D9CEC" d="M25.02,58.5c0,0.55-0.449,1-1,1h-22c-0.549,0-1-0.45-1-1v-3c0-2.76,2.23-5,5-5h3l2,1l2-1l2,1l2-1h3
				c2.76,0,5,2.24,5,5V58.5z"/>
			<g>
				<path fill="#4A89DC" d="M20.02,50.5h-3l-0.168,0.084c2.363,0.398,4.168,2.441,4.168,4.916v3c0,0.55-0.449,1-1,1h4
					c0.551,0,1-0.45,1-1v-3C25.02,52.74,22.779,50.5,20.02,50.5z"/>
			</g>
			<path fill="#EAC6BB" d="M22.02,35.53v2.97c0,3.53-2.039,6.59-5,8.06c-1.199,0.601-2.561,0.94-4,0.94s-2.799-0.34-4-0.94
				c-2.949-1.46-4.98-4.5-5-8.01V38.5v-2.97l3-2.03c0,0,3.01,1,6.5,1s5.5-1,5.5-1L22.02,35.53z"/>
			<path fill="#D3B1A9" d="M19.02,33.5c0,0-0.357,0.17-1,0.369V38.5c0,3.53-2.039,6.59-5,8.06c-0.627,0.313-1.297,0.551-2,0.711
				c0.643,0.147,1.313,0.229,2,0.229c1.439,0,2.801-0.34,4-0.94c2.961-1.47,5-4.529,5-8.06v-2.97L19.02,33.5z"/>
			<path fill="#965353" d="M22.02,32.5v3.03l-3-2.03c0,0-2.01,1-5.5,1s-6.5-1-6.5-1l-3,2.03V32.5c0-4.42,3.58-8,8-8h6v4
				C20.23,28.5,22.02,30.29,22.02,32.5z"/>
			<g>
				<path fill="#844747" d="M18.02,28.5v-4h-4v6c2.211,0,4,0.79,4,3v0.369c0.643-0.199,1-0.369,1-0.369l3,2.03V32.5
					C22.02,30.29,20.23,28.5,18.02,28.5z"/>
			</g>
			<rect x="42.99" y="4.5" fill="#4A89DC" width="4" height="16"/>
		</g>
		<g>
			<path fill="#E6E9ED" d="M25.129,38.611c-0.256,0-0.512-0.098-0.707-0.293c-0.391-0.391-0.391-1.023,0-1.414
				c0.378-0.378,0.586-0.88,0.586-1.414s-0.208-1.036-0.586-1.414c-0.391-0.39-0.391-1.023,0-1.414s1.023-0.391,1.414,0
				c0.756,0.755,1.172,1.759,1.172,2.828c0,1.068-0.416,2.072-1.172,2.828C25.641,38.514,25.385,38.611,25.129,38.611z"/>
		</g>
		<g>
			<path fill="#E6E9ED" d="M27.957,41.44c-0.256,0-0.512-0.098-0.707-0.293c-0.391-0.391-0.391-1.023,0-1.414
				c2.34-2.34,2.34-6.146,0-8.486c-0.391-0.391-0.391-1.023,0-1.414s1.023-0.391,1.414,0c3.119,3.119,3.119,8.195,0,11.314
				C28.469,41.343,28.213,41.44,27.957,41.44z"/>
		</g>
		<g>
			<path fill="#E6E9ED" d="M30.786,44.269c-0.256,0-0.512-0.098-0.707-0.293c-0.391-0.391-0.391-1.023,0-1.414
				c3.899-3.899,3.899-10.243,0-14.143c-0.391-0.391-0.391-1.023,0-1.414s1.023-0.391,1.414,0c4.679,4.679,4.679,12.292,0,16.971
				C31.298,44.171,31.042,44.269,30.786,44.269z"/>
		</g>
		<g>
			<path fill="#4A89DC" d="M39,9.5H25.983c-0.553,0-1-0.447-1-1s0.447-1,1-1H39c0.553,0,1,0.447,1,1S39.553,9.5,39,9.5z"/>
		</g>
		<g>
			<path fill="#4A89DC" d="M43,9.5h-1c-0.553,0-1-0.447-1-1s0.447-1,1-1h1c0.553,0,1,0.447,1,1S43.553,9.5,43,9.5z"/>
		</g>
		<g>
			<path fill="#4A89DC" d="M33,13.5h-7.017c-0.553,0-1-0.447-1-1s0.447-1,1-1H33c0.553,0,1,0.447,1,1S33.553,13.5,33,13.5z"/>
		</g>
		<g>
			<path fill="#4A89DC" d="M43,13.5h-7c-0.553,0-1-0.447-1-1s0.447-1,1-1h7c0.553,0,1,0.447,1,1S43.553,13.5,43,13.5z"/>
		</g>
		<g>
			<path fill="#4A89DC" d="M37,17.5H25.983c-0.553,0-1-0.447-1-1s0.447-1,1-1H37c0.553,0,1,0.447,1,1S37.553,17.5,37,17.5z"/>
		</g>
		<g>
			<path fill="#4A89DC" d="M43,17.5h-3c-0.553,0-1-0.447-1-1s0.447-1,1-1h3c0.553,0,1,0.447,1,1S43.553,17.5,43,17.5z"/>
		</g>
	</g>
</g>
<g id="_x39__training_x2C__book_x2C__lesson_x2C__business_x2C__office_x2C__corporation_x2C__job">
</g>
<g id="_x38__dress_x2C__code_x2C__shirt_x2C__business_x2C__office_x2C__corporation_x2C__job">
</g>
<g id="_x37__task_x2C__program_x2C__ticket_x2C__business_x2C__office_x2C__corporation_x2C__job">
</g>
<g id="_x36__plan_x2C__graph_x2C__stage_x2C__business_x2C__office_x2C__corporation_x2C__job">
</g>
<g id="_x35__boss_x2C__king_x2C__crown_x2C__business_x2C__office_x2C__corporation_x2C__job">
</g>
<g id="_x34__structure_x2C__structuring_x2C__business_x2C__office_x2C__corporation_x2C__job">
</g>
<g id="_x33__soft_x2C__skills_x2C__communication_x2C__business_x2C__office_x2C__corporation_x2C__job">
</g>
<g id="_x32__office_x2C__house_x2C__portfolio_x2C__business_x2C__corporation_x2C__job">
</g>
<g id="_x31__corporate_x2C__rules_x2C__book_x2C__business_x2C__office_x2C__corporation_x2C__job">
</g>
</svg>
