<?xml version="1.0" encoding="utf-8"?>
<!-- Generator: Adobe Illustrator 16.0.0, SVG Export Plug-In . SVG Version: 6.00 Build 0)  -->
<!DOCTYPE svg PUBLIC "-//W3C//DTD SVG 1.1//EN" "http://www.w3.org/Graphics/SVG/1.1/DTD/svg11.dtd">
<svg version="1.1" xmlns="http://www.w3.org/2000/svg" xmlns:xlink="http://www.w3.org/1999/xlink" x="0px" y="0px" width="64px"
	 height="64px" viewBox="0 0 64 64" enable-background="new 0 0 64 64" xml:space="preserve">
<g id="_x35_0_document_x2C__optimization_x2C__documentation_x2C__business_x2C__office_x2C__corporation_x2C__job">
</g>
<g id="_x34_9_human_x2C__resource_x2C__conveyor_x2C__business_x2C__office_x2C__corporation_x2C__job">
</g>
<g id="_x34_8_knowledge_x2C__training_x2C__growth_x2C__book_x2C__business_x2C__office_x2C__corporation">
</g>
<g id="_x34_7_skill_x2C__competence_x2C__experience_x2C__business_x2C__office_x2C__corporation_x2C__job">
</g>
<g id="_x34_6_target_x2C__success_x2C__victory_x2C__business_x2C__office_x2C__corporation_x2C__job">
</g>
<g id="_x34_5_inbox_x2C__letter_x2C__email_x2C__business_x2C__office_x2C__corporation_x2C__job">
</g>
<g id="_x34_4_document_x2C__workflow_x2C__sharing_x2C__business_x2C__office_x2C__corporation_x2C__job">
</g>
<g id="_x34_3_budget_x2C__allocation_x2C__money_x2C__business_x2C__office_x2C__corporation_x2C__job">
</g>
<g id="_x34_2_case_x2C__task_x2C__project_x2C__business_x2C__office_x2C__corporation_x2C__job">
</g>
<g id="_x34_1_structure_x2C__structuring_x2C__tasks_x2C__business_x2C__office_x2C__corporation_x2C__job">
</g>
<g id="_x34_0_choice_x2C__dilemma_x2C__question_x2C__business_x2C__office_x2C__corporation_x2C__job">
</g>
<g id="_x33_9_workplace_x2C__table_x2C__laptop_x2C__business_x2C__office_x2C__corporation_x2C__job">
</g>
<g id="_x33_8_bribe_x2C__bag_x2C__money_x2C__business_x2C__office_x2C__corporation_x2C__job">
</g>
<g id="_x33_7_corruption_x2C__forage_x2C__money_x2C__business_x2C__office_x2C__corporation_x2C__job">
</g>
<g id="_x33_6_career_x2C__ladder_x2C__success_x2C__business_x2C__office_x2C__corporation_x2C__job">
</g>
<g id="_x33_5_review_x2C__feedback_x2C__rating_x2C__business_x2C__office_x2C__corporation_x2C__job">
</g>
<g id="_x33_4_manipulation_x2C__thread_x2C__puppet_x2C__business_x2C__office_x2C__corporation_x2C__job">
</g>
<g id="_x33_3_location_x2C__map_x2C__pin_x2C__business_x2C__office_x2C__corporation_x2C__job">
</g>
<g id="_x33_2_retirement_x2C__old_x2C__man_x2C__door_x2C__business_x2C__office_x2C__corporation">
</g>
<g id="_x33_1_victory_x2C__success_x2C__medal_x2C__reward_x2C__business_x2C__office_x2C__corporation">
</g>
<g id="_x33_0_dismissal_x2C__box_x2C__door_x2C__business_x2C__office_x2C__corporation_x2C__job">
</g>
<g id="_x32_9_meeting_x2C__discussion_x2C__question_x2C__business_x2C__office_x2C__corporation_x2C__job">
</g>
<g id="_x32_8_strategy_x2C__vision_x2C__eye_x2C__chess_x2C__business_x2C__office_x2C__corporation">
</g>
<g id="_x32_7_board_x2C__task_x2C__process_x2C__business_x2C__office_x2C__corporation_x2C__job">
</g>
<g id="_x32_6_scheme_x2C__board_x2C__structure_x2C__business_x2C__office_x2C__corporation_x2C__job">
</g>
<g id="_x32_5_conflict_x2C__dialog_x2C__discussion_x2C__business_x2C__office_x2C__corporation_x2C__job">
</g>
<g id="_x32_4_documentation_x2C__document_x2C__repository_x2C__business_x2C__office_x2C__corporation_x2C__job">
</g>
<g id="_x32_3_sprint_x2C__programming_x2C__code_x2C__business_x2C__office_x2C__corporation_x2C__job">
</g>
<g id="_x32_2_cram_x2C__tablet_x2C__work_x2C__business_x2C__office_x2C__corporation_x2C__job">
</g>
<g id="_x32_1_leader_x2C__discoverer_x2C__flag_x2C__business_x2C__office_x2C__corporation_x2C__job">
</g>
<g id="_x32_0_rally_x2C__collective_x2C__arm_x2C__business_x2C__office_x2C__corporation_x2C__job">
</g>
<g id="_x31_9_consolidation_x2C__portfolio_x2C__puzzle_x2C__business_x2C__office_x2C__corporation_x2C__job">
</g>
<g id="_x31_8_idea_x2C__creative_x2C__work_x2C__business_x2C__office_x2C__corporation_x2C__job">
</g>
<g id="_x31_7_problem_x2C__stress_x2C__resistance_x2C__business_x2C__office_x2C__corporation_x2C__job">
</g>
<g id="_x31_6_hard_x2C__skills_x2C__skill_x2C__portfolio_x2C__book_x2C__business_x2C__office">
</g>
<g id="_x31_5_time_x2C__management_x2C__clock_x2C__deadline_x2C__business_x2C__office_x2C__corporation">
</g>
<g id="_x31_4_multitasking_x2C__task_x2C__work_x2C__business_x2C__office_x2C__corporation_x2C__job">
</g>
<g id="_x31_3_tranquility_x2C__yoga_x2C__lotus_x2C__posture_x2C__business_x2C__office_x2C__corporation">
</g>
<g id="_x31_2_corporate_x2C__party_x2C__business_x2C__office_x2C__corporation_x2C__job">
</g>
<g id="_x31_1_dialog_x2C__discussion_x2C__work_x2C__business_x2C__office_x2C__corporation_x2C__job">
	<g>
		<path fill="#EAC6BB" d="M19,51.48V54l-3,3l-3-3v-2.52c0.939,0.34,1.95,0.52,3,0.52S18.061,51.82,19,51.48z"/>
		<polygon fill="#E6E9ED" points="19,54 22,54 18,63 14,63 10,54 13,54 16,57 		"/>
		<path fill="#A0D468" d="M10,54l4,9H6c-0.55,0-1-0.45-1-1v-4c0-2.21,1.79-4,4-4H10z"/>
		<path fill="#A0D468" d="M23,54c2.21,0,4,1.79,4,4v4c0,0.55-0.45,1-1,1h-8l4-9H23z"/>
		<path fill="#8CC152" d="M23,54h-1l-0.427,0.96C22.439,55.694,23,56.775,23,58v4c0,0.55-0.45,1-1,1h4c0.55,0,1-0.45,1-1v-4
			C27,55.79,25.21,54,23,54z"/>
		<path fill="#CCD1D9" d="M22,54h-3c0.986,0,1.876,0.37,2.573,0.96L22,54z"/>
		<path fill="#E6E9ED" d="M60,59v3c0,0.55-0.45,1-1,1H37c-0.55,0-1-0.45-1-1v-3c0-2.77,2.24-5,5-5h3l2,1l2-1l2,1l2-1h3
			C57.76,54,60,56.23,60,59z"/>
		<g>
			<path fill="#CCD1D9" d="M55,54h-3l-0.167,0.084C54.194,54.48,56,56.517,56,59v3c0,0.55-0.45,1-1,1h4c0.55,0,1-0.45,1-1v-3
				C60,56.23,57.76,54,55,54z"/>
		</g>
		<path fill="#F5F7FA" d="M48,52c1.43,0,2.8-0.34,4-0.94V54l-2,1l-2-1l-2,1l-2-1v-2.94C45.2,51.66,46.57,52,48,52z"/>
		<path fill="#EAC6BB" d="M57,40.02V43c0,3.53-2.04,6.59-5,8.06C50.8,51.66,49.43,52,48,52s-2.8-0.34-4-0.94
			c-2.95-1.46-4.98-4.5-5-8.01V43v-2.98L42,38c0,0,3.01,1,6.5,1s5.5-1,5.5-1L57,40.02z"/>
		<path fill="#D3B1A9" d="M54,38c0,0-0.357,0.171-1,0.369V43c0,3.53-2.04,6.59-5,8.06c-0.625,0.313-1.298,0.551-2,0.711
			C46.646,51.918,47.315,52,48,52c1.43,0,2.8-0.34,4-0.94c2.96-1.47,5-4.529,5-8.06v-2.98L54,38z"/>
		<path fill="#656D78" d="M42,38l-3,2.02V37c0-4.43,3.58-8,8-8h6v4c2.21,0,4,1.78,4,3.99V37v3.02L54,38c0,0-2.01,1-5.5,1
			S42,38,42,38z"/>
		<g>
			<path fill="#434A54" d="M53,33v-4h-4v6c2.21,0,4,0.78,4,2.99V38v0.369C53.643,38.171,54,38,54,38l3,2.02V37v-0.01
				C57,34.78,55.21,33,53,33z"/>
		</g>
		<polygon fill="#FFCE54" points="60,1 60,21 50,21 48,23 46,21 18,21 16,23 14,21 4,21 4,1 		"/>
		<path fill="#DA4453" d="M10,34c0,1.65-1.34,3-3,3v-4c0-1.66,1.34-3,3-3V34z"/>
		<path fill="#ED5565" d="M24.07,30.93C22.26,29.12,19.76,28,17,28c-2.23,0-4.29,0.73-5.96,1.96H10V30v4c0,1.65,1.34,3,3,3h4
			c3.27,0,6.17,1.57,8,4c0,0,0,0,0,0.01c0.074,0.098,0.146,0.196,0.217,0.296c0.311,0.443,0.82,1.406,0.82,1.406
			c-0.001-0.003,0.007-0.006,0.008-0.008C26.123,42.878,26.297,43,26.5,43c0.276,0,0.5-0.224,0.5-0.5v-1.813V38
			C27,35.24,25.88,32.74,24.07,30.93z"/>
		<path fill="#DA4453" d="M24.07,30.93C22.26,29.12,19.76,28,17,28c-0.68,0-1.34,0.075-1.981,0.204
			c1.95,0.4,3.694,1.369,5.052,2.726C21.88,32.74,23,35.24,23,38v1.021c0.752,0.567,1.433,1.226,2,1.979c0,0,0,0,0,0.01
			c0.074,0.098,0.146,0.196,0.217,0.296c0.311,0.443,0.82,1.406,0.82,1.406c-0.001-0.003,0.007-0.006,0.008-0.008
			C26.123,42.878,26.297,43,26.5,43c0.276,0,0.5-0.224,0.5-0.5v-1.813V38C27,35.24,25.88,32.74,24.07,30.93z"/>
		<path fill="#EAC6BB" d="M25,41.01V43c0,3.92-2.5,7.25-6,8.48C18.061,51.82,17.05,52,16,52s-2.061-0.18-3-0.52
			C9.5,50.25,7,46.92,7,43v-0.04V37c1.66,0,3-1.35,3-3c0,1.65,1.34,3,3,3h4c3.27,0,6.17,1.57,8,4C25,41,25,41,25,41.01z"/>
		<path fill="#D3B1A9" d="M21,37.852V43c0,3.92-2.5,7.25-6,8.48c-0.324,0.117-0.66,0.208-1,0.286C14.645,51.916,15.313,52,16,52
			c1.05,0,2.061-0.18,3-0.52c3.5-1.23,6-4.561,6-8.48v-1.99C25,41,25,41,25,41C23.968,39.63,22.588,38.547,21,37.852z"/>
		<rect x="56" y="1" fill="#F6BB42" width="4" height="20"/>
		<g>
			<g>
				<path fill="#F6BB42" d="M17,6H8C7.447,6,7,5.553,7,5s0.447-1,1-1h9c0.553,0,1,0.447,1,1S17.553,6,17,6z"/>
			</g>
			<g>
				<path fill="#F6BB42" d="M49,10h-9c-0.553,0-1-0.447-1-1s0.447-1,1-1h9c0.553,0,1,0.447,1,1S49.553,10,49,10z"/>
			</g>
			<g>
				<path fill="#F6BB42" d="M27,10H8c-0.553,0-1-0.447-1-1s0.447-1,1-1h19c0.553,0,1,0.447,1,1S27.553,10,27,10z"/>
			</g>
			<g>
				<path fill="#F6BB42" d="M24,6h-3c-0.553,0-1-0.447-1-1s0.447-1,1-1h3c0.553,0,1,0.447,1,1S24.553,6,24,6z"/>
			</g>
			<g>
				<path fill="#F6BB42" d="M44,6H28c-0.553,0-1-0.447-1-1s0.447-1,1-1h16c0.553,0,1,0.447,1,1S44.553,6,44,6z"/>
			</g>
			<g>
				<path fill="#F6BB42" d="M56,6h-8c-0.553,0-1-0.447-1-1s0.447-1,1-1h8c0.553,0,1,0.447,1,1S56.553,6,56,6z"/>
			</g>
			<g>
				<path fill="#F6BB42" d="M17,18H8c-0.553,0-1-0.447-1-1s0.447-1,1-1h9c0.553,0,1,0.447,1,1S17.553,18,17,18z"/>
			</g>
			<g>
				<path fill="#F6BB42" d="M24,18h-3c-0.553,0-1-0.447-1-1s0.447-1,1-1h3c0.553,0,1,0.447,1,1S24.553,18,24,18z"/>
			</g>
			<g>
				<path fill="#F6BB42" d="M44,18H28c-0.553,0-1-0.447-1-1s0.447-1,1-1h16c0.553,0,1,0.447,1,1S44.553,18,44,18z"/>
			</g>
			<g>
				<path fill="#F6BB42" d="M56,18h-8c-0.553,0-1-0.447-1-1s0.447-1,1-1h8c0.553,0,1,0.447,1,1S56.553,18,56,18z"/>
			</g>
			<g>
				<path fill="#F6BB42" d="M11,14H8c-0.553,0-1-0.447-1-1s0.447-1,1-1h3c0.553,0,1,0.447,1,1S11.553,14,11,14z"/>
			</g>
			<g>
				<path fill="#F6BB42" d="M30,14H15c-0.553,0-1-0.447-1-1s0.447-1,1-1h15c0.553,0,1,0.447,1,1S30.553,14,30,14z"/>
			</g>
			<g>
				<path fill="#F6BB42" d="M42,14h-8c-0.553,0-1-0.447-1-1s0.447-1,1-1h8c0.553,0,1,0.447,1,1S42.553,14,42,14z"/>
			</g>
			<g>
				<path fill="#F6BB42" d="M56,14H46c-0.553,0-1-0.447-1-1s0.447-1,1-1h10c0.553,0,1,0.447,1,1S56.553,14,56,14z"/>
			</g>
			<g>
				<path fill="#F6BB42" d="M36,10h-5c-0.553,0-1-0.447-1-1s0.447-1,1-1h5c0.553,0,1,0.447,1,1S36.553,10,36,10z"/>
			</g>
			<g>
				<path fill="#F6BB42" d="M56,10h-3c-0.553,0-1-0.447-1-1s0.447-1,1-1h3c0.553,0,1,0.447,1,1S56.553,10,56,10z"/>
			</g>
		</g>
	</g>
</g>
<g id="_x31_0_listening_x2C__skill_x2C__dialog_x2C__business_x2C__office_x2C__corporation_x2C__job">
</g>
<g id="_x39__training_x2C__book_x2C__lesson_x2C__business_x2C__office_x2C__corporation_x2C__job">
</g>
<g id="_x38__dress_x2C__code_x2C__shirt_x2C__business_x2C__office_x2C__corporation_x2C__job">
</g>
<g id="_x37__task_x2C__program_x2C__ticket_x2C__business_x2C__office_x2C__corporation_x2C__job">
</g>
<g id="_x36__plan_x2C__graph_x2C__stage_x2C__business_x2C__office_x2C__corporation_x2C__job">
</g>
<g id="_x35__boss_x2C__king_x2C__crown_x2C__business_x2C__office_x2C__corporation_x2C__job">
</g>
<g id="_x34__structure_x2C__structuring_x2C__business_x2C__office_x2C__corporation_x2C__job">
</g>
<g id="_x33__soft_x2C__skills_x2C__communication_x2C__business_x2C__office_x2C__corporation_x2C__job">
</g>
<g id="_x32__office_x2C__house_x2C__portfolio_x2C__business_x2C__corporation_x2C__job">
</g>
<g id="_x31__corporate_x2C__rules_x2C__book_x2C__business_x2C__office_x2C__corporation_x2C__job">
</g>
</svg>
