<?xml version="1.0" encoding="utf-8"?>
<!-- Generator: Adobe Illustrator 16.0.0, SVG Export Plug-In . SVG Version: 6.00 Build 0)  -->
<!DOCTYPE svg PUBLIC "-//W3C//DTD SVG 1.1//EN" "http://www.w3.org/Graphics/SVG/1.1/DTD/svg11.dtd">
<svg version="1.1" xmlns="http://www.w3.org/2000/svg" xmlns:xlink="http://www.w3.org/1999/xlink" x="0px" y="0px" width="64px"
	 height="64px" viewBox="0 0 64 64" enable-background="new 0 0 64 64" xml:space="preserve">
<g id="_x35_0_document_x2C__optimization_x2C__documentation_x2C__business_x2C__office_x2C__corporation_x2C__job">
</g>
<g id="_x34_9_human_x2C__resource_x2C__conveyor_x2C__business_x2C__office_x2C__corporation_x2C__job">
</g>
<g id="_x34_8_knowledge_x2C__training_x2C__growth_x2C__book_x2C__business_x2C__office_x2C__corporation">
</g>
<g id="_x34_7_skill_x2C__competence_x2C__experience_x2C__business_x2C__office_x2C__corporation_x2C__job">
</g>
<g id="_x34_6_target_x2C__success_x2C__victory_x2C__business_x2C__office_x2C__corporation_x2C__job">
</g>
<g id="_x34_5_inbox_x2C__letter_x2C__email_x2C__business_x2C__office_x2C__corporation_x2C__job">
</g>
<g id="_x34_4_document_x2C__workflow_x2C__sharing_x2C__business_x2C__office_x2C__corporation_x2C__job">
</g>
<g id="_x34_3_budget_x2C__allocation_x2C__money_x2C__business_x2C__office_x2C__corporation_x2C__job">
</g>
<g id="_x34_2_case_x2C__task_x2C__project_x2C__business_x2C__office_x2C__corporation_x2C__job">
</g>
<g id="_x34_1_structure_x2C__structuring_x2C__tasks_x2C__business_x2C__office_x2C__corporation_x2C__job">
</g>
<g id="_x34_0_choice_x2C__dilemma_x2C__question_x2C__business_x2C__office_x2C__corporation_x2C__job">
</g>
<g id="_x33_9_workplace_x2C__table_x2C__laptop_x2C__business_x2C__office_x2C__corporation_x2C__job">
</g>
<g id="_x33_8_bribe_x2C__bag_x2C__money_x2C__business_x2C__office_x2C__corporation_x2C__job">
</g>
<g id="_x33_7_corruption_x2C__forage_x2C__money_x2C__business_x2C__office_x2C__corporation_x2C__job">
</g>
<g id="_x33_6_career_x2C__ladder_x2C__success_x2C__business_x2C__office_x2C__corporation_x2C__job">
</g>
<g id="_x33_5_review_x2C__feedback_x2C__rating_x2C__business_x2C__office_x2C__corporation_x2C__job">
</g>
<g id="_x33_4_manipulation_x2C__thread_x2C__puppet_x2C__business_x2C__office_x2C__corporation_x2C__job">
</g>
<g id="_x33_3_location_x2C__map_x2C__pin_x2C__business_x2C__office_x2C__corporation_x2C__job">
</g>
<g id="_x33_2_retirement_x2C__old_x2C__man_x2C__door_x2C__business_x2C__office_x2C__corporation">
</g>
<g id="_x33_1_victory_x2C__success_x2C__medal_x2C__reward_x2C__business_x2C__office_x2C__corporation">
</g>
<g id="_x33_0_dismissal_x2C__box_x2C__door_x2C__business_x2C__office_x2C__corporation_x2C__job">
</g>
<g id="_x32_9_meeting_x2C__discussion_x2C__question_x2C__business_x2C__office_x2C__corporation_x2C__job">
</g>
<g id="_x32_8_strategy_x2C__vision_x2C__eye_x2C__chess_x2C__business_x2C__office_x2C__corporation">
</g>
<g id="_x32_7_board_x2C__task_x2C__process_x2C__business_x2C__office_x2C__corporation_x2C__job">
</g>
<g id="_x32_6_scheme_x2C__board_x2C__structure_x2C__business_x2C__office_x2C__corporation_x2C__job">
</g>
<g id="_x32_5_conflict_x2C__dialog_x2C__discussion_x2C__business_x2C__office_x2C__corporation_x2C__job">
</g>
<g id="_x32_4_documentation_x2C__document_x2C__repository_x2C__business_x2C__office_x2C__corporation_x2C__job">
</g>
<g id="_x32_3_sprint_x2C__programming_x2C__code_x2C__business_x2C__office_x2C__corporation_x2C__job">
</g>
<g id="_x32_2_cram_x2C__tablet_x2C__work_x2C__business_x2C__office_x2C__corporation_x2C__job">
</g>
<g id="_x32_1_leader_x2C__discoverer_x2C__flag_x2C__business_x2C__office_x2C__corporation_x2C__job">
</g>
<g id="_x32_0_rally_x2C__collective_x2C__arm_x2C__business_x2C__office_x2C__corporation_x2C__job">
</g>
<g id="_x31_9_consolidation_x2C__portfolio_x2C__puzzle_x2C__business_x2C__office_x2C__corporation_x2C__job">
</g>
<g id="_x31_8_idea_x2C__creative_x2C__work_x2C__business_x2C__office_x2C__corporation_x2C__job">
</g>
<g id="_x31_7_problem_x2C__stress_x2C__resistance_x2C__business_x2C__office_x2C__corporation_x2C__job">
</g>
<g id="_x31_6_hard_x2C__skills_x2C__skill_x2C__portfolio_x2C__book_x2C__business_x2C__office">
</g>
<g id="_x31_5_time_x2C__management_x2C__clock_x2C__deadline_x2C__business_x2C__office_x2C__corporation">
</g>
<g id="_x31_4_multitasking_x2C__task_x2C__work_x2C__business_x2C__office_x2C__corporation_x2C__job">
</g>
<g id="_x31_3_tranquility_x2C__yoga_x2C__lotus_x2C__posture_x2C__business_x2C__office_x2C__corporation">
</g>
<g id="_x31_2_corporate_x2C__party_x2C__business_x2C__office_x2C__corporation_x2C__job">
	<g>
		<path fill="#4A89DC" d="M27,53l2,2l2-1l2,1l2-2h3c2.76,0,5,2.23,5,5v4c0,0.551-0.45,1-1,1H20c-0.55,0-1-0.449-1-1v-4
			c0-2.77,2.24-5,5-5H27z"/>
		<g>
			<path fill="#367ECC" d="M38,53h-3l-0.092,0.092C37.233,53.519,39,55.543,39,58v4c0,0.551-0.45,1-1,1h4c0.55,0,1-0.449,1-1v-4
				C43,55.23,40.76,53,38,53z"/>
		</g>
		<path fill="#5D9CEC" d="M35,50.061V53l-2,2l-2-1l-2,1l-2-2v-2.939C28.2,50.66,29.57,51,31,51S33.8,50.66,35,50.061z"/>
		<path fill="#DA4453" d="M49,23.99v5c0,1.66-1.34,3-3,3v-5C46,25.33,47.34,23.99,49,23.99z"/>
		<path fill="#ED5565" d="M62,29.99c0-4.42-3.58-8-8-8c-1.89,0-3.63,0.9-5,2v5c0,1.66,1.34,3,3,3h2c2.39,0,4.54,1.05,6,2.71
			c0.405,0.457,0.758,0.961,1.05,1.502h0.001c0.08,0.169,0.249,0.288,0.449,0.288c0.276,0,0.5-0.224,0.5-0.5v-0.001l0,0V29.99z"/>
		<path fill="#DA4453" d="M54,21.99c-0.646,0-1.273,0.111-1.875,0.294C55.511,23.216,58,26.308,58,29.99v3.075
			c0.753,0.437,1.431,0.987,2,1.635c0.405,0.457,0.758,0.961,1.05,1.502h0.001c0.08,0.169,0.249,0.288,0.449,0.288
			c0.276,0,0.5-0.224,0.5-0.5v-0.001V29.99C62,25.57,58.42,21.99,54,21.99z"/>
		<path fill="#A0D468" d="M62,46.99V51H44v-4.01c0-1.66,1.34-3,3-3V44h3v-0.01l3,2l3-2V44h3v-0.01C60.66,43.99,62,45.33,62,46.99z"
			/>
		<g>
			<path fill="#8CC152" d="M59,43.99V44h-3v-0.01l-0.188,0.125C57.073,44.471,58,45.614,58,46.99V51h4v-4.01
				C62,45.33,60.66,43.99,59,43.99z"/>
		</g>
		<path fill="#EAC6BB" d="M56,41.311v2.68l-3,2l-3-2v-2.68c0.91,0.439,1.92,0.68,3,0.68S55.09,41.75,56,41.311z"/>
		<path fill="#EAC6BB" d="M54,31.99c2.39,0,4.54,1.05,6,2.71v0.29V35c0,2.79-1.64,5.2-4,6.311c-0.91,0.439-1.92,0.68-3,0.68
			s-2.09-0.24-3-0.68C47.64,40.2,46,37.79,46,35v-0.01v-3c1.66,0,3-1.34,3-3c0,1.66,1.34,3,3,3H54z"/>
		<path fill="#D3B1A9" d="M56,32.253v2.737V35c0,2.79-1.64,5.2-4,6.311c-0.32,0.154-0.656,0.274-1,0.378
			c0.633,0.191,1.3,0.302,2,0.302c1.08,0,2.09-0.24,3-0.68c2.36-1.11,4-3.521,4-6.311v-0.01V34.7
			C58.963,33.521,57.572,32.658,56,32.253z"/>
		<path fill="#965353" d="M22,37.99c0-3.47,1.97-6.49,4.85-7.99h8.29C38.03,31.49,40,34.521,40,37.99v0.03L37,36c0,0-2.01,1-5.5,1
			S25,36,25,36l-3,2.021V37.99z"/>
		<g>
			<path fill="#844747" d="M35.14,30h-4c2.441,1.259,4.211,3.622,4.706,6.415C36.586,36.197,37,36,37,36l3,2.021v-0.03
				C40,34.521,38.03,31.49,35.14,30z"/>
		</g>
		<path fill="#EAC6BB" d="M37,36l3,2.021V42c0,3.53-2.04,6.59-5,8.061C33.8,50.66,32.43,51,31,51s-2.8-0.34-4-0.939
			c-2.95-1.46-4.98-4.5-5-8.01V42v-3.979L25,36c0,0,3.01,1,6.5,1S37,36,37,36z"/>
		<path fill="#D3B1A9" d="M37,36c0,0-0.357,0.171-1,0.369V42c0,3.53-2.04,6.59-5,8.061c-0.625,0.313-1.298,0.55-2,0.71
			C29.646,50.918,30.315,51,31,51c1.43,0,2.8-0.34,4-0.939c2.96-1.471,5-4.53,5-8.061v-3.979L37,36z"/>
		<path fill="#E6E9ED" d="M11,44.99L12,44h3v-0.01c1.66,0,3,1.34,3,3V51H0v-4.01c0-1.66,1.34-3,3-3V44h3l1,0.99l2-1L11,44.99z"/>
		<g>
			<polygon fill="#CCD1D9" points="9.02,44 9,43.99 8.98,44 			"/>
			<path fill="#CCD1D9" d="M15,43.99V44h-3l-0.133,0.132C13.1,44.505,14,45.634,14,46.99V51h4v-4.01C18,45.33,16.66,43.99,15,43.99z
				"/>
		</g>
		<path fill="#F5F7FA" d="M12,43.99V44l-1,0.99l-2-1l-2,1L6,44v-0.01v-2.68c0.91,0.439,1.92,0.68,3,0.68s2.09-0.24,3-0.68V43.99z"/>
		<path fill="#EAC6BB" d="M16,34.99V35c0,2.79-1.64,5.2-4,6.311c-0.91,0.439-1.92,0.68-3,0.68s-2.09-0.24-3-0.68
			C3.64,40.2,2,37.79,2,35v-0.01v-3.86c5.81,0.681,8.13-1.27,10-1.659c1.24-0.261,2.28,0.149,4,2.399V34.99z"/>
		<path fill="#D3B1A9" d="M12,29.471v5.52V35c0,2.79-1.64,5.2-4,6.311c-0.32,0.154-0.656,0.274-1,0.378
			c0.633,0.191,1.3,0.302,2,0.302c1.08,0,2.09-0.24,3-0.68c2.36-1.11,4-3.521,4-6.311v-0.01v-3.12
			C14.28,29.62,13.24,29.21,12,29.471z"/>
		<path fill="#FFCE54" d="M14,25.41l-2,4.061c-1.87,0.39-4.19,2.34-10,1.659c-0.32-0.04-0.65-0.079-1-0.14v-0.5
			C1,26.351,4.36,23,8.5,23C10.68,23,12.64,23.931,14,25.41z"/>
		<g>
			<path fill="#F6BB42" d="M14,25.41C12.64,23.931,10.68,23,8.5,23c-0.695,0-1.366,0.102-2.005,0.279
				C7.86,23.656,9.072,24.4,10,25.41c1.025,1.1,1.714,2.516,1.925,4.079c0.024-0.005,0.051-0.014,0.075-0.019
				c1.24-0.261,2.28,0.149,4,2.399v-1.38C16,28.53,15.24,26.74,14,25.41z"/>
		</g>
		<path fill="#EDAB37" d="M16,30.49v1.38c-1.72-2.25-2.76-2.66-4-2.399l2-4.061C15.24,26.74,16,28.53,16,30.49z"/>
		<polygon fill="#A0D468" points="33.14,22 34.57,25.99 27.43,25.99 28.86,21.99 		"/>
		<polygon fill="#AC92EC" points="31,15.99 33.14,22 28.86,21.99 		"/>
		<polygon fill="#AC92EC" points="31,30.688 25.735,30.688 27.43,25.99 34.57,25.99 36.265,30.688 		"/>
		<path fill="#5D9CEC" d="M17.707,9.293c-0.391-0.391-1.023-0.391-1.414,0l-2,2c-0.391,0.391-0.391,1.023,0,1.414L15.586,14
			l-1.293,1.293c-0.391,0.391-0.391,1.023,0,1.414l2,2C16.488,18.902,16.744,19,17,19s0.512-0.098,0.707-0.293
			c0.391-0.391,0.391-1.023,0-1.414L16.414,16l1.293-1.293c0.391-0.391,0.391-1.023,0-1.414L16.414,12l1.293-1.293
			C18.098,10.316,18.098,9.684,17.707,9.293z"/>
		<path fill="#FFCE54" d="M42.708,7.293l-2-2c-0.391-0.391-1.023-0.391-1.414,0s-0.391,1.023,0,1.414L40.587,8l-1.293,1.293
			c-0.391,0.391-0.391,1.023,0,1.414L40.587,12l-1.293,1.293c-0.391,0.391-0.391,1.023,0,1.414L40.587,16l-1.293,1.293
			c-0.391,0.391-0.391,1.023,0,1.414C39.489,18.902,39.745,19,40.001,19s0.512-0.098,0.707-0.293l2-2
			c0.391-0.391,0.391-1.023,0-1.414L41.415,14l1.293-1.293c0.391-0.391,0.391-1.023,0-1.414L41.415,10l1.293-1.293
			C43.099,8.316,43.099,7.684,42.708,7.293z"/>
		<path fill="#AC92EC" d="M2.03,14H2.02c-0.552,0-0.994,0.447-0.994,1s0.452,1,1.005,1c0.552,0,1-0.447,1-1S2.582,14,2.03,14z"/>
		<path fill="#48CFAD" d="M8.03,3H8.02C7.468,3,7.025,3.447,7.025,4S7.478,5,8.03,5c0.552,0,1-0.447,1-1S8.582,3,8.03,3z"/>
		<path fill="#EC87C0" d="M60.03,3H60.02c-0.552,0-0.994,0.447-0.994,1s0.452,1,1.005,1c0.552,0,1-0.447,1-1S60.582,3,60.03,3z"/>
		<path fill="#ED5565" d="M27,3V2c0-0.553-0.447-1-1-1s-1,0.447-1,1v1c-0.553,0-1,0.447-1,1s0.447,1,1,1v1c0,0.553,0.447,1,1,1
			s1-0.447,1-1V5c0.553,0,1-0.447,1-1S27.553,3,27,3z"/>
		<path fill="#A0D468" d="M54,10V9c0-0.553-0.447-1-1-1s-1,0.447-1,1v1c-0.553,0-1,0.447-1,1s0.447,1,1,1v1c0,0.553,0.447,1,1,1
			s1-0.447,1-1v-1c0.553,0,1-0.447,1-1S54.553,10,54,10z"/>
	</g>
</g>
<g id="_x31_1_dialog_x2C__discussion_x2C__work_x2C__business_x2C__office_x2C__corporation_x2C__job">
</g>
<g id="_x31_0_listening_x2C__skill_x2C__dialog_x2C__business_x2C__office_x2C__corporation_x2C__job">
</g>
<g id="_x39__training_x2C__book_x2C__lesson_x2C__business_x2C__office_x2C__corporation_x2C__job">
</g>
<g id="_x38__dress_x2C__code_x2C__shirt_x2C__business_x2C__office_x2C__corporation_x2C__job">
</g>
<g id="_x37__task_x2C__program_x2C__ticket_x2C__business_x2C__office_x2C__corporation_x2C__job">
</g>
<g id="_x36__plan_x2C__graph_x2C__stage_x2C__business_x2C__office_x2C__corporation_x2C__job">
</g>
<g id="_x35__boss_x2C__king_x2C__crown_x2C__business_x2C__office_x2C__corporation_x2C__job">
</g>
<g id="_x34__structure_x2C__structuring_x2C__business_x2C__office_x2C__corporation_x2C__job">
</g>
<g id="_x33__soft_x2C__skills_x2C__communication_x2C__business_x2C__office_x2C__corporation_x2C__job">
</g>
<g id="_x32__office_x2C__house_x2C__portfolio_x2C__business_x2C__corporation_x2C__job">
</g>
<g id="_x31__corporate_x2C__rules_x2C__book_x2C__business_x2C__office_x2C__corporation_x2C__job">
</g>
</svg>
