<?xml version="1.0" encoding="utf-8"?>
<!-- Generator: Adobe Illustrator 16.0.0, SVG Export Plug-In . SVG Version: 6.00 Build 0)  -->
<!DOCTYPE svg PUBLIC "-//W3C//DTD SVG 1.1//EN" "http://www.w3.org/Graphics/SVG/1.1/DTD/svg11.dtd">
<svg version="1.1" xmlns="http://www.w3.org/2000/svg" xmlns:xlink="http://www.w3.org/1999/xlink" x="0px" y="0px" width="64px"
	 height="64px" viewBox="0 0 64 64" enable-background="new 0 0 64 64" xml:space="preserve">
<g id="_x35_0_document_x2C__optimization_x2C__documentation_x2C__business_x2C__office_x2C__corporation_x2C__job">
</g>
<g id="_x34_9_human_x2C__resource_x2C__conveyor_x2C__business_x2C__office_x2C__corporation_x2C__job">
</g>
<g id="_x34_8_knowledge_x2C__training_x2C__growth_x2C__book_x2C__business_x2C__office_x2C__corporation">
</g>
<g id="_x34_7_skill_x2C__competence_x2C__experience_x2C__business_x2C__office_x2C__corporation_x2C__job">
</g>
<g id="_x34_6_target_x2C__success_x2C__victory_x2C__business_x2C__office_x2C__corporation_x2C__job">
</g>
<g id="_x34_5_inbox_x2C__letter_x2C__email_x2C__business_x2C__office_x2C__corporation_x2C__job">
</g>
<g id="_x34_4_document_x2C__workflow_x2C__sharing_x2C__business_x2C__office_x2C__corporation_x2C__job">
</g>
<g id="_x34_3_budget_x2C__allocation_x2C__money_x2C__business_x2C__office_x2C__corporation_x2C__job">
</g>
<g id="_x34_2_case_x2C__task_x2C__project_x2C__business_x2C__office_x2C__corporation_x2C__job">
</g>
<g id="_x34_1_structure_x2C__structuring_x2C__tasks_x2C__business_x2C__office_x2C__corporation_x2C__job">
</g>
<g id="_x34_0_choice_x2C__dilemma_x2C__question_x2C__business_x2C__office_x2C__corporation_x2C__job">
</g>
<g id="_x33_9_workplace_x2C__table_x2C__laptop_x2C__business_x2C__office_x2C__corporation_x2C__job">
</g>
<g id="_x33_8_bribe_x2C__bag_x2C__money_x2C__business_x2C__office_x2C__corporation_x2C__job">
</g>
<g id="_x33_7_corruption_x2C__forage_x2C__money_x2C__business_x2C__office_x2C__corporation_x2C__job">
</g>
<g id="_x33_6_career_x2C__ladder_x2C__success_x2C__business_x2C__office_x2C__corporation_x2C__job">
</g>
<g id="_x33_5_review_x2C__feedback_x2C__rating_x2C__business_x2C__office_x2C__corporation_x2C__job">
</g>
<g id="_x33_4_manipulation_x2C__thread_x2C__puppet_x2C__business_x2C__office_x2C__corporation_x2C__job">
</g>
<g id="_x33_3_location_x2C__map_x2C__pin_x2C__business_x2C__office_x2C__corporation_x2C__job">
</g>
<g id="_x33_2_retirement_x2C__old_x2C__man_x2C__door_x2C__business_x2C__office_x2C__corporation">
</g>
<g id="_x33_1_victory_x2C__success_x2C__medal_x2C__reward_x2C__business_x2C__office_x2C__corporation">
</g>
<g id="_x33_0_dismissal_x2C__box_x2C__door_x2C__business_x2C__office_x2C__corporation_x2C__job">
</g>
<g id="_x32_9_meeting_x2C__discussion_x2C__question_x2C__business_x2C__office_x2C__corporation_x2C__job">
</g>
<g id="_x32_8_strategy_x2C__vision_x2C__eye_x2C__chess_x2C__business_x2C__office_x2C__corporation">
</g>
<g id="_x32_7_board_x2C__task_x2C__process_x2C__business_x2C__office_x2C__corporation_x2C__job">
</g>
<g id="_x32_6_scheme_x2C__board_x2C__structure_x2C__business_x2C__office_x2C__corporation_x2C__job">
</g>
<g id="_x32_5_conflict_x2C__dialog_x2C__discussion_x2C__business_x2C__office_x2C__corporation_x2C__job">
</g>
<g id="_x32_4_documentation_x2C__document_x2C__repository_x2C__business_x2C__office_x2C__corporation_x2C__job">
</g>
<g id="_x32_3_sprint_x2C__programming_x2C__code_x2C__business_x2C__office_x2C__corporation_x2C__job">
</g>
<g id="_x32_2_cram_x2C__tablet_x2C__work_x2C__business_x2C__office_x2C__corporation_x2C__job">
</g>
<g id="_x32_1_leader_x2C__discoverer_x2C__flag_x2C__business_x2C__office_x2C__corporation_x2C__job">
</g>
<g id="_x32_0_rally_x2C__collective_x2C__arm_x2C__business_x2C__office_x2C__corporation_x2C__job">
</g>
<g id="_x31_9_consolidation_x2C__portfolio_x2C__puzzle_x2C__business_x2C__office_x2C__corporation_x2C__job">
</g>
<g id="_x31_8_idea_x2C__creative_x2C__work_x2C__business_x2C__office_x2C__corporation_x2C__job">
</g>
<g id="_x31_7_problem_x2C__stress_x2C__resistance_x2C__business_x2C__office_x2C__corporation_x2C__job">
</g>
<g id="_x31_6_hard_x2C__skills_x2C__skill_x2C__portfolio_x2C__book_x2C__business_x2C__office">
</g>
<g id="_x31_5_time_x2C__management_x2C__clock_x2C__deadline_x2C__business_x2C__office_x2C__corporation">
</g>
<g id="_x31_4_multitasking_x2C__task_x2C__work_x2C__business_x2C__office_x2C__corporation_x2C__job">
</g>
<g id="_x31_3_tranquility_x2C__yoga_x2C__lotus_x2C__posture_x2C__business_x2C__office_x2C__corporation">
	<g>
		<path fill="#656D78" d="M32,0.5c4.97,0,9,4.029,9,9l-3-2.03c0,0-2.01,1-5.5,1s-6.5-1-6.5-1L23,9.5C23,4.529,27.03,0.5,32,0.5z"/>
		<path fill="#F5F7FA" d="M32,23.5c1.439,0,2.8-0.34,4-0.94v2.94l-2,2l-2-1l-2,1l-2-2v-2.94C29.2,23.16,30.56,23.5,32,23.5z"/>
		<path fill="#EAC6BB" d="M38,7.47l3,2.03v5c0,3.529-2.04,6.59-5,8.06c-1.2,0.601-2.561,0.94-4,0.94c-1.44,0-2.8-0.34-4-0.94
			c-2.96-1.47-5-4.53-5-8.06v-5l3-2.03c0,0,3.01,1,6.5,1S38,7.47,38,7.47z"/>
		<path fill="#D3B1A9" d="M38,7.47c0,0-0.411,0.195-1.147,0.413C36.948,8.407,37,8.947,37,9.5v5c0,3.529-2.04,6.59-5,8.06
			c-0.626,0.313-1.297,0.552-1.999,0.712c0.026,0.006,0.054,0.008,0.08,0.014c0.294,0.064,0.593,0.119,0.897,0.155
			c0.336,0.038,0.676,0.06,1.021,0.06c1.439,0,2.8-0.34,4-0.94c2.96-1.47,5-4.53,5-8.06v-5L38,7.47z"/>
		<path fill="#434A54" d="M30.941,0.567c-0.317,0.039-0.631,0.093-0.938,0.162C30.003,0.73,30.002,0.73,30.002,0.73
			c3.487,0.794,6.207,3.609,6.851,7.152C37.589,7.665,38,7.47,38,7.47l3,2.03c0-4.971-4.03-9-9-9c-0.341,0-0.677,0.021-1.007,0.06
			C30.976,0.562,30.958,0.565,30.941,0.567z"/>
		<path fill="#5D9CEC" d="M53.5,43.5c1.38,0,2.5,1.12,2.5,2.5s-1.12,2.5-2.5,2.5H53c-6.641,0-12-5.37-12-12v13v1h-9h-9v-1v-13
			c0,6.63-5.37,12-12,12h-0.5C9.12,48.5,8,47.38,8,46s1.12-2.5,2.5-2.5H11c3.87,0,7-3.13,7-7v-2c0-4.971,4.02-9,9-9h1l2,2l2-1l2,1
			l2-2h1c4.97,0,9,4.029,9,9v2c0,3.87,3.13,7,7,7H53.5z"/>
		<path fill="#656D78" d="M48,50.5c2.21,0,4,1.79,4,4s-1.79,4-4,4H32c-2.21,0-4-1.79-4-4s1.79-4,4-4h9H48z"/>
		<path fill="#434A54" d="M23,50.5h9c-2.21,0-4,1.79-4,4s1.79,4,4,4H17c-2.21,0-4-1.79-4-4s1.79-4,4-4H23z"/>
		<g>
			<path fill="#4A89DC" d="M32.03,32.5c-0.553,0-1.005-0.447-1.005-1s0.442-1,0.994-1h0.011c0.552,0,1,0.447,1,1
				S32.582,32.5,32.03,32.5z"/>
		</g>
		<g>
			<path fill="#4A89DC" d="M32.03,37.5c-0.553,0-1.005-0.447-1.005-1s0.442-1,0.994-1h0.011c0.552,0,1,0.447,1,1
				S32.582,37.5,32.03,37.5z"/>
		</g>
		<g>
			<path fill="#4A89DC" d="M32.03,42.5c-0.553,0-1.005-0.447-1.005-1s0.442-1,0.994-1h0.011c0.552,0,1,0.447,1,1
				S32.582,42.5,32.03,42.5z"/>
		</g>
		<g>
			<path fill="#4A89DC" d="M32.03,47.5c-0.553,0-1.005-0.447-1.005-1s0.442-1,0.994-1h0.011c0.552,0,1,0.447,1,1
				S32.582,47.5,32.03,47.5z"/>
		</g>
		<g>
			<path fill="#434A54" d="M47,63.5H17c-0.553,0-1-0.447-1-1s0.447-1,1-1h30c0.553,0,1,0.447,1,1S47.553,63.5,47,63.5z"/>
		</g>
	</g>
</g>
<g id="_x31_2_corporate_x2C__party_x2C__business_x2C__office_x2C__corporation_x2C__job">
</g>
<g id="_x31_1_dialog_x2C__discussion_x2C__work_x2C__business_x2C__office_x2C__corporation_x2C__job">
</g>
<g id="_x31_0_listening_x2C__skill_x2C__dialog_x2C__business_x2C__office_x2C__corporation_x2C__job">
</g>
<g id="_x39__training_x2C__book_x2C__lesson_x2C__business_x2C__office_x2C__corporation_x2C__job">
</g>
<g id="_x38__dress_x2C__code_x2C__shirt_x2C__business_x2C__office_x2C__corporation_x2C__job">
</g>
<g id="_x37__task_x2C__program_x2C__ticket_x2C__business_x2C__office_x2C__corporation_x2C__job">
</g>
<g id="_x36__plan_x2C__graph_x2C__stage_x2C__business_x2C__office_x2C__corporation_x2C__job">
</g>
<g id="_x35__boss_x2C__king_x2C__crown_x2C__business_x2C__office_x2C__corporation_x2C__job">
</g>
<g id="_x34__structure_x2C__structuring_x2C__business_x2C__office_x2C__corporation_x2C__job">
</g>
<g id="_x33__soft_x2C__skills_x2C__communication_x2C__business_x2C__office_x2C__corporation_x2C__job">
</g>
<g id="_x32__office_x2C__house_x2C__portfolio_x2C__business_x2C__corporation_x2C__job">
</g>
<g id="_x31__corporate_x2C__rules_x2C__book_x2C__business_x2C__office_x2C__corporation_x2C__job">
</g>
</svg>
