<?xml version="1.0" encoding="utf-8"?>
<!-- Generator: Adobe Illustrator 16.0.0, SVG Export Plug-In . SVG Version: 6.00 Build 0)  -->
<!DOCTYPE svg PUBLIC "-//W3C//DTD SVG 1.1//EN" "http://www.w3.org/Graphics/SVG/1.1/DTD/svg11.dtd">
<svg version="1.1" xmlns="http://www.w3.org/2000/svg" xmlns:xlink="http://www.w3.org/1999/xlink" x="0px" y="0px" width="64px"
	 height="64px" viewBox="0 0 64 64" enable-background="new 0 0 64 64" xml:space="preserve">
<g id="_x35_0_document_x2C__optimization_x2C__documentation_x2C__business_x2C__office_x2C__corporation_x2C__job">
</g>
<g id="_x34_9_human_x2C__resource_x2C__conveyor_x2C__business_x2C__office_x2C__corporation_x2C__job">
</g>
<g id="_x34_8_knowledge_x2C__training_x2C__growth_x2C__book_x2C__business_x2C__office_x2C__corporation">
</g>
<g id="_x34_7_skill_x2C__competence_x2C__experience_x2C__business_x2C__office_x2C__corporation_x2C__job">
</g>
<g id="_x34_6_target_x2C__success_x2C__victory_x2C__business_x2C__office_x2C__corporation_x2C__job">
</g>
<g id="_x34_5_inbox_x2C__letter_x2C__email_x2C__business_x2C__office_x2C__corporation_x2C__job">
</g>
<g id="_x34_4_document_x2C__workflow_x2C__sharing_x2C__business_x2C__office_x2C__corporation_x2C__job">
</g>
<g id="_x34_3_budget_x2C__allocation_x2C__money_x2C__business_x2C__office_x2C__corporation_x2C__job">
</g>
<g id="_x34_2_case_x2C__task_x2C__project_x2C__business_x2C__office_x2C__corporation_x2C__job">
</g>
<g id="_x34_1_structure_x2C__structuring_x2C__tasks_x2C__business_x2C__office_x2C__corporation_x2C__job">
</g>
<g id="_x34_0_choice_x2C__dilemma_x2C__question_x2C__business_x2C__office_x2C__corporation_x2C__job">
</g>
<g id="_x33_9_workplace_x2C__table_x2C__laptop_x2C__business_x2C__office_x2C__corporation_x2C__job">
</g>
<g id="_x33_8_bribe_x2C__bag_x2C__money_x2C__business_x2C__office_x2C__corporation_x2C__job">
</g>
<g id="_x33_7_corruption_x2C__forage_x2C__money_x2C__business_x2C__office_x2C__corporation_x2C__job">
</g>
<g id="_x33_6_career_x2C__ladder_x2C__success_x2C__business_x2C__office_x2C__corporation_x2C__job">
</g>
<g id="_x33_5_review_x2C__feedback_x2C__rating_x2C__business_x2C__office_x2C__corporation_x2C__job">
</g>
<g id="_x33_4_manipulation_x2C__thread_x2C__puppet_x2C__business_x2C__office_x2C__corporation_x2C__job">
</g>
<g id="_x33_3_location_x2C__map_x2C__pin_x2C__business_x2C__office_x2C__corporation_x2C__job">
</g>
<g id="_x33_2_retirement_x2C__old_x2C__man_x2C__door_x2C__business_x2C__office_x2C__corporation">
</g>
<g id="_x33_1_victory_x2C__success_x2C__medal_x2C__reward_x2C__business_x2C__office_x2C__corporation">
</g>
<g id="_x33_0_dismissal_x2C__box_x2C__door_x2C__business_x2C__office_x2C__corporation_x2C__job">
</g>
<g id="_x32_9_meeting_x2C__discussion_x2C__question_x2C__business_x2C__office_x2C__corporation_x2C__job">
</g>
<g id="_x32_8_strategy_x2C__vision_x2C__eye_x2C__chess_x2C__business_x2C__office_x2C__corporation">
</g>
<g id="_x32_7_board_x2C__task_x2C__process_x2C__business_x2C__office_x2C__corporation_x2C__job">
</g>
<g id="_x32_6_scheme_x2C__board_x2C__structure_x2C__business_x2C__office_x2C__corporation_x2C__job">
</g>
<g id="_x32_5_conflict_x2C__dialog_x2C__discussion_x2C__business_x2C__office_x2C__corporation_x2C__job">
</g>
<g id="_x32_4_documentation_x2C__document_x2C__repository_x2C__business_x2C__office_x2C__corporation_x2C__job">
</g>
<g id="_x32_3_sprint_x2C__programming_x2C__code_x2C__business_x2C__office_x2C__corporation_x2C__job">
</g>
<g id="_x32_2_cram_x2C__tablet_x2C__work_x2C__business_x2C__office_x2C__corporation_x2C__job">
</g>
<g id="_x32_1_leader_x2C__discoverer_x2C__flag_x2C__business_x2C__office_x2C__corporation_x2C__job">
</g>
<g id="_x32_0_rally_x2C__collective_x2C__arm_x2C__business_x2C__office_x2C__corporation_x2C__job">
</g>
<g id="_x31_9_consolidation_x2C__portfolio_x2C__puzzle_x2C__business_x2C__office_x2C__corporation_x2C__job">
</g>
<g id="_x31_8_idea_x2C__creative_x2C__work_x2C__business_x2C__office_x2C__corporation_x2C__job">
</g>
<g id="_x31_7_problem_x2C__stress_x2C__resistance_x2C__business_x2C__office_x2C__corporation_x2C__job">
</g>
<g id="_x31_6_hard_x2C__skills_x2C__skill_x2C__portfolio_x2C__book_x2C__business_x2C__office">
</g>
<g id="_x31_5_time_x2C__management_x2C__clock_x2C__deadline_x2C__business_x2C__office_x2C__corporation">
</g>
<g id="_x31_4_multitasking_x2C__task_x2C__work_x2C__business_x2C__office_x2C__corporation_x2C__job">
	<g>
		<path fill="#5D9CEC" d="M59,38h-6c-0.553,0-1,0.447-1,1v10c0,0.553,0.447,1,1,1h6c0.553,0,1-0.447,1-1V39
			C60,38.447,59.553,38,59,38z"/>
		<g>
			<path fill="#DA4453" d="M13,48h-3c-0.553,0-1-0.447-1-1v-3.999c0-0.553,0.447-1,1-1h3c0.553,0,1,0.447,1,1V47
				C14,47.553,13.553,48,13,48z M11,46h1v-1.999h-1V46z"/>
		</g>
		<polygon fill="#ED5565" points="11,47 11,50 3,50 3,40 11,40 11,43 		"/>
		<path fill="#965353" d="M26,15.97L23,18v-3c0-4.42,3.58-8,8-8h6v4c2.21,0,4,1.79,4,4v3l-3-2.03c0,0-2.01,1-5.5,1
			S26,15.97,26,15.97z"/>
		<g>
			<path fill="#844747" d="M37,11V7h-4v6c2.21,0,4,0.79,4,3v0.34c0.643-0.199,1-0.37,1-0.37L41,18v-3C41,12.79,39.21,11,37,11z"/>
		</g>
		<path fill="#EAC6BB" d="M41,18.03V22c0,3.53-2.04,6.59-5,8.06C34.8,30.66,33.43,31,32,31s-2.8-0.34-4-0.94
			c-2.96-1.47-5-4.529-5-8.06v-3.97L26,16c0,0,3.01,1,6.5,1s5.5-1,5.5-1L41,18.03z"/>
		<path fill="#D3B1A9" d="M38,16c0,0-0.357,0.171-1,0.369V22c0,3.53-2.04,6.59-5,8.06c-0.625,0.313-1.298,0.551-2,0.711
			C30.646,30.918,31.315,31,32,31c1.43,0,2.8-0.34,4-0.94c2.96-1.47,5-4.529,5-8.06v-3.97L38,16z"/>
		<path fill="#CCD1D9" d="M10,25.5V26c0,3.87,3.13,7,7,7h10c-3.53,0-6.59,2.04-8.06,5H18.93H17c-6.63,0-12-5.37-12-12v-0.5
			C5,24.12,6.12,23,7.5,23S10,24.12,10,25.5z"/>
		<polygon fill="#FFCE54" points="5,9 3,6 11,6 9,9 		"/>
		<polygon fill="#656D78" points="13,6 13,20 1,20 1,6 3,6 5,9 9,9 11,6 		"/>
		<polygon fill="#EDAB37" points="63,9 63,18 57.75,13.5 		"/>
		<polygon fill="#EDAB37" points="54.25,13.5 49,18 49,9 		"/>
		<polygon fill="#FFCE54" points="63,9 57.75,13.5 56,15 54.25,13.5 49,9 		"/>
		<polygon fill="#F6BB42" points="56,15 57.75,13.5 63,18 49,18 54.25,13.5 		"/>
		<path fill="#CCD1D9" d="M59,25.5V26c0,6.63-5.37,12-12,12h-1.93H45.06c-1.47-2.96-4.529-5-8.06-5h10c3.87,0,7-3.13,7-7v-0.5
			c0-1.38,1.12-2.5,2.5-2.5S59,24.12,59,25.5z"/>
		<path fill="#F5F7FA" d="M32,31c1.43,0,2.8-0.34,4-0.94V33l-2,2l-2-1l-2,1l-2-2v-2.94C29.2,30.66,30.57,31,32,31z"/>
		<path fill="#E6E9ED" d="M28,33l2,2l2-1l2,1l2-2h1c3.53,0,6.59,2.04,8.06,5C45.66,39.2,46,40.56,46,42v2c0,4.42,3.58,8,8,8h0.5
			c1.38,0,2.5,1.12,2.5,2.5S55.88,57,54.5,57H54c-7.19,0-13-5.81-13-13v14H23V44c0,7.19-5.81,13-13,13H9.5C8.12,57,7,55.88,7,54.5
			S8.12,52,9.5,52H10c4.42,0,8-3.58,8-8v-2c0-1.44,0.34-2.8,0.94-4c1.47-2.96,4.529-5,8.06-5H28z"/>
		<g>
			<path fill="#F5F7FA" d="M32.03,41c-0.553,0-1.005-0.447-1.005-1s0.442-1,0.994-1h0.011c0.552,0,1,0.447,1,1S32.582,41,32.03,41z"
				/>
		</g>
		<g>
			<path fill="#F5F7FA" d="M32.03,46c-0.553,0-1.005-0.447-1.005-1s0.442-1,0.994-1h0.011c0.552,0,1,0.447,1,1S32.582,46,32.03,46z"
				/>
		</g>
		<g>
			<path fill="#F5F7FA" d="M32.03,51c-0.553,0-1.005-0.447-1.005-1s0.442-1,0.994-1h0.011c0.552,0,1,0.447,1,1S32.582,51,32.03,51z"
				/>
		</g>
		<g>
			<path fill="#F5F7FA" d="M32.03,56c-0.553,0-1.005-0.447-1.005-1s0.442-1,0.994-1h0.011c0.552,0,1,0.447,1,1S32.582,56,32.03,56z"
				/>
		</g>
		<g>
			<path fill="#4A89DC" d="M56.03,49c-0.553,0-1.005-0.447-1.005-1s0.442-1,0.994-1h0.011c0.552,0,1,0.447,1,1S56.582,49,56.03,49z"
				/>
		</g>
		<g>
			<path fill="#434A54" d="M9,14H5c-0.553,0-1-0.447-1-1s0.447-1,1-1h4c0.553,0,1,0.447,1,1S9.553,14,9,14z"/>
		</g>
		<g>
			<path fill="#434A54" d="M9,17H5c-0.553,0-1-0.447-1-1s0.447-1,1-1h4c0.553,0,1,0.447,1,1S9.553,17,9,17z"/>
		</g>
	</g>
</g>
<g id="_x31_3_tranquility_x2C__yoga_x2C__lotus_x2C__posture_x2C__business_x2C__office_x2C__corporation">
</g>
<g id="_x31_2_corporate_x2C__party_x2C__business_x2C__office_x2C__corporation_x2C__job">
</g>
<g id="_x31_1_dialog_x2C__discussion_x2C__work_x2C__business_x2C__office_x2C__corporation_x2C__job">
</g>
<g id="_x31_0_listening_x2C__skill_x2C__dialog_x2C__business_x2C__office_x2C__corporation_x2C__job">
</g>
<g id="_x39__training_x2C__book_x2C__lesson_x2C__business_x2C__office_x2C__corporation_x2C__job">
</g>
<g id="_x38__dress_x2C__code_x2C__shirt_x2C__business_x2C__office_x2C__corporation_x2C__job">
</g>
<g id="_x37__task_x2C__program_x2C__ticket_x2C__business_x2C__office_x2C__corporation_x2C__job">
</g>
<g id="_x36__plan_x2C__graph_x2C__stage_x2C__business_x2C__office_x2C__corporation_x2C__job">
</g>
<g id="_x35__boss_x2C__king_x2C__crown_x2C__business_x2C__office_x2C__corporation_x2C__job">
</g>
<g id="_x34__structure_x2C__structuring_x2C__business_x2C__office_x2C__corporation_x2C__job">
</g>
<g id="_x33__soft_x2C__skills_x2C__communication_x2C__business_x2C__office_x2C__corporation_x2C__job">
</g>
<g id="_x32__office_x2C__house_x2C__portfolio_x2C__business_x2C__corporation_x2C__job">
</g>
<g id="_x31__corporate_x2C__rules_x2C__book_x2C__business_x2C__office_x2C__corporation_x2C__job">
</g>
</svg>
