<?xml version="1.0" encoding="utf-8"?>
<!-- Generator: Adobe Illustrator 16.0.0, SVG Export Plug-In . SVG Version: 6.00 Build 0)  -->
<!DOCTYPE svg PUBLIC "-//W3C//DTD SVG 1.1//EN" "http://www.w3.org/Graphics/SVG/1.1/DTD/svg11.dtd">
<svg version="1.1" xmlns="http://www.w3.org/2000/svg" xmlns:xlink="http://www.w3.org/1999/xlink" x="0px" y="0px" width="64px"
	 height="64px" viewBox="0 0 64 64" enable-background="new 0 0 64 64" xml:space="preserve">
<g id="_x35_0_document_x2C__optimization_x2C__documentation_x2C__business_x2C__office_x2C__corporation_x2C__job">
</g>
<g id="_x34_9_human_x2C__resource_x2C__conveyor_x2C__business_x2C__office_x2C__corporation_x2C__job">
</g>
<g id="_x34_8_knowledge_x2C__training_x2C__growth_x2C__book_x2C__business_x2C__office_x2C__corporation">
</g>
<g id="_x34_7_skill_x2C__competence_x2C__experience_x2C__business_x2C__office_x2C__corporation_x2C__job">
</g>
<g id="_x34_6_target_x2C__success_x2C__victory_x2C__business_x2C__office_x2C__corporation_x2C__job">
</g>
<g id="_x34_5_inbox_x2C__letter_x2C__email_x2C__business_x2C__office_x2C__corporation_x2C__job">
</g>
<g id="_x34_4_document_x2C__workflow_x2C__sharing_x2C__business_x2C__office_x2C__corporation_x2C__job">
</g>
<g id="_x34_3_budget_x2C__allocation_x2C__money_x2C__business_x2C__office_x2C__corporation_x2C__job">
</g>
<g id="_x34_2_case_x2C__task_x2C__project_x2C__business_x2C__office_x2C__corporation_x2C__job">
</g>
<g id="_x34_1_structure_x2C__structuring_x2C__tasks_x2C__business_x2C__office_x2C__corporation_x2C__job">
</g>
<g id="_x34_0_choice_x2C__dilemma_x2C__question_x2C__business_x2C__office_x2C__corporation_x2C__job">
</g>
<g id="_x33_9_workplace_x2C__table_x2C__laptop_x2C__business_x2C__office_x2C__corporation_x2C__job">
</g>
<g id="_x33_8_bribe_x2C__bag_x2C__money_x2C__business_x2C__office_x2C__corporation_x2C__job">
</g>
<g id="_x33_7_corruption_x2C__forage_x2C__money_x2C__business_x2C__office_x2C__corporation_x2C__job">
</g>
<g id="_x33_6_career_x2C__ladder_x2C__success_x2C__business_x2C__office_x2C__corporation_x2C__job">
</g>
<g id="_x33_5_review_x2C__feedback_x2C__rating_x2C__business_x2C__office_x2C__corporation_x2C__job">
</g>
<g id="_x33_4_manipulation_x2C__thread_x2C__puppet_x2C__business_x2C__office_x2C__corporation_x2C__job">
</g>
<g id="_x33_3_location_x2C__map_x2C__pin_x2C__business_x2C__office_x2C__corporation_x2C__job">
</g>
<g id="_x33_2_retirement_x2C__old_x2C__man_x2C__door_x2C__business_x2C__office_x2C__corporation">
</g>
<g id="_x33_1_victory_x2C__success_x2C__medal_x2C__reward_x2C__business_x2C__office_x2C__corporation">
</g>
<g id="_x33_0_dismissal_x2C__box_x2C__door_x2C__business_x2C__office_x2C__corporation_x2C__job">
</g>
<g id="_x32_9_meeting_x2C__discussion_x2C__question_x2C__business_x2C__office_x2C__corporation_x2C__job">
</g>
<g id="_x32_8_strategy_x2C__vision_x2C__eye_x2C__chess_x2C__business_x2C__office_x2C__corporation">
</g>
<g id="_x32_7_board_x2C__task_x2C__process_x2C__business_x2C__office_x2C__corporation_x2C__job">
</g>
<g id="_x32_6_scheme_x2C__board_x2C__structure_x2C__business_x2C__office_x2C__corporation_x2C__job">
</g>
<g id="_x32_5_conflict_x2C__dialog_x2C__discussion_x2C__business_x2C__office_x2C__corporation_x2C__job">
</g>
<g id="_x32_4_documentation_x2C__document_x2C__repository_x2C__business_x2C__office_x2C__corporation_x2C__job">
</g>
<g id="_x32_3_sprint_x2C__programming_x2C__code_x2C__business_x2C__office_x2C__corporation_x2C__job">
</g>
<g id="_x32_2_cram_x2C__tablet_x2C__work_x2C__business_x2C__office_x2C__corporation_x2C__job">
</g>
<g id="_x32_1_leader_x2C__discoverer_x2C__flag_x2C__business_x2C__office_x2C__corporation_x2C__job">
</g>
<g id="_x32_0_rally_x2C__collective_x2C__arm_x2C__business_x2C__office_x2C__corporation_x2C__job">
</g>
<g id="_x31_9_consolidation_x2C__portfolio_x2C__puzzle_x2C__business_x2C__office_x2C__corporation_x2C__job">
</g>
<g id="_x31_8_idea_x2C__creative_x2C__work_x2C__business_x2C__office_x2C__corporation_x2C__job">
</g>
<g id="_x31_7_problem_x2C__stress_x2C__resistance_x2C__business_x2C__office_x2C__corporation_x2C__job">
</g>
<g id="_x31_6_hard_x2C__skills_x2C__skill_x2C__portfolio_x2C__book_x2C__business_x2C__office">
</g>
<g id="_x31_5_time_x2C__management_x2C__clock_x2C__deadline_x2C__business_x2C__office_x2C__corporation">
	<g>
		<path fill="#434A54" d="M54,55v7c0,0.55-0.439,1-1,1H35l6-8l-2-2l4-4l-2-2h5C50.42,47,54,50.58,54,55z"/>
		<path fill="#353B44" d="M46,47h-4c4.42,0,8,3.58,8,8v7c0,0.55-0.439,1-1,1h4c0.561,0,1-0.45,1-1v-7C54,50.58,50.42,47,46,47z"/>
		<path fill="#434A54" d="M23,55l6,8H11c-0.55,0-1-0.45-1-1v-7c0-4.42,3.58-8,8-8h5l-2,2l4,4L23,55z"/>
		<polygon fill="#656D78" points="35.11,55 37.45,49 39,45 41,47 43,49 39,53 41,55 35,63 32,63 		"/>
		<polygon fill="#656D78" points="28.891,55 32,63 29,63 23,55 25,53 21,49 23,47 25,45 26.561,49 		"/>
		<polygon fill="#E6E9ED" points="29,47.66 31,50 28.891,55 26.561,49 		"/>
		<polygon fill="#DA4453" points="31,50 33,50 35.11,55 32,63 28.891,55 		"/>
		<polygon fill="#E6E9ED" points="37.45,49 35.11,55 33,50 35,47.66 35,47.65 		"/>
		<polygon fill="#ED5565" points="35,47.65 35,47.66 33,50 31,50 29,47.66 32,46 		"/>
		<path fill="#F5F7FA" d="M32,43c2.46,0,4.811-0.42,7-1.19V45l-1.55,4L35,47.65L32,46l-3,1.66L26.561,49L25,45v-3.19
			C27.19,42.58,29.54,43,32,43z"/>
		<path fill="#656D78" d="M32,1c11.601,0,21,9.4,21,21c0,9.14-5.84,16.92-14,19.81C36.811,42.58,34.46,43,32,43s-4.81-0.42-7-1.19
			C16.84,38.92,11,31.14,11,22C11,10.4,20.4,1,32,1z"/>
		<path fill="#F5F7FA" d="M32,5c3.09,0,6,0.83,8.5,2.28c2.58,1.489,4.73,3.64,6.22,6.22C48.17,16,49,18.9,49,22s-0.83,6-2.28,8.5
			c-1.489,2.58-3.64,4.73-6.22,6.22C38,38.17,35.09,39,32,39c-3.1,0-6-0.83-8.5-2.28c-2.58-1.489-4.729-3.64-6.22-6.22
			C15.83,28,15,25.1,15,22s0.83-6,2.28-8.5c1.49-2.58,3.64-4.73,6.22-6.22C26,5.83,28.9,5,32,5z"/>
		<path fill="#E6E9ED" d="M46.72,13.5c-1.489-2.58-3.64-4.73-6.22-6.22C38,5.83,35.09,5,32,5c-0.678,0-1.345,0.047-2.002,0.124
			C32.342,5.4,34.547,6.147,36.5,7.28c2.58,1.489,4.73,3.64,6.22,6.22C44.17,16,45,18.9,45,22s-0.83,6-2.28,8.5
			c-1.489,2.58-3.64,4.73-6.22,6.22c-1.953,1.133-4.158,1.88-6.502,2.156C30.655,38.953,31.322,39,32,39c3.09,0,6-0.83,8.5-2.28
			c2.58-1.489,4.73-3.64,6.22-6.22C48.17,28,49,25.1,49,22S48.17,16,46.72,13.5z"/>
		<path fill="#656D78" d="M39.778,28.364L33,21.586V12c0-0.553-0.447-1-1-1s-1,0.447-1,1v10c0,0.13,0.026,0.26,0.077,0.382
			c0.051,0.123,0.124,0.234,0.217,0.326l7.07,7.07c0.195,0.195,0.451,0.293,0.707,0.293s0.512-0.098,0.707-0.293
			C40.169,29.388,40.169,28.755,39.778,28.364z"/>
		<path fill="#434A54" d="M32,5c-0.334,0-0.664,0.015-0.993,0.033C31.025,5.569,31.459,6,32,6s0.975-0.431,0.993-0.967
			C32.664,5.014,32.334,5,32,5z"/>
		<path fill="#434A54" d="M32,39c0.334,0,0.664-0.014,0.993-0.033C32.975,38.431,32.541,38,32,38s-0.975,0.431-0.993,0.967
			C31.336,38.985,31.666,39,32,39z"/>
		<path fill="#434A54" d="M23.5,7.277c-0.289,0.167-0.567,0.345-0.843,0.525C22.94,8.258,23.532,8.414,24,8.144
			c0.469-0.271,0.629-0.86,0.377-1.334C24.082,6.957,23.79,7.11,23.5,7.277z"/>
		<path fill="#434A54" d="M40.5,36.723c0.29-0.168,0.568-0.344,0.844-0.525c-0.284-0.455-0.875-0.611-1.344-0.342
			c-0.468,0.271-0.628,0.861-0.376,1.334C39.918,37.041,40.211,36.889,40.5,36.723z"/>
		<path fill="#434A54" d="M17.278,13.5c-0.168,0.289-0.32,0.582-0.468,0.876c0.473,0.253,1.063,0.092,1.333-0.376
			c0.271-0.469,0.115-1.06-0.34-1.344C17.622,12.932,17.445,13.21,17.278,13.5z"/>
		<path fill="#434A54" d="M46.723,30.5c0.167-0.291,0.32-0.582,0.468-0.877c-0.473-0.252-1.063-0.092-1.334,0.376
			c-0.27,0.469-0.113,1.06,0.342,1.343C46.378,31.066,46.556,30.788,46.723,30.5z"/>
		<path fill="#434A54" d="M15.001,22c-0.001,0.334,0.014,0.664,0.033,0.992C15.569,22.975,16.001,22.539,16,22
			c0.001-0.542-0.43-0.976-0.966-0.994C15.015,21.336,15.001,21.664,15.001,22z"/>
		<path fill="#434A54" d="M49.001,22c-0.002-0.336-0.014-0.664-0.033-0.994c-0.536,0.019-0.967,0.452-0.968,0.993
			c0.001,0.54,0.432,0.974,0.968,0.991C48.985,22.662,49,22.332,49.001,22z"/>
		<path fill="#434A54" d="M17.278,30.5c0.166,0.289,0.344,0.567,0.525,0.842c0.455-0.283,0.61-0.875,0.34-1.342
			c-0.27-0.471-0.859-0.631-1.333-0.379C16.958,29.918,17.11,30.209,17.278,30.5z"/>
		<path fill="#434A54" d="M46.724,13.5c-0.17-0.291-0.344-0.568-0.525-0.846c-0.455,0.285-0.611,0.875-0.342,1.345
			c0.271,0.468,0.86,0.628,1.334,0.374C47.041,14.08,46.889,13.787,46.724,13.5z"/>
		<path fill="#434A54" d="M23.501,36.722c0.288,0.167,0.582,0.319,0.876,0.466c0.253-0.473,0.091-1.063-0.377-1.332
			c-0.469-0.271-1.06-0.115-1.344,0.339C22.933,36.378,23.21,36.554,23.501,36.722z"/>
		<path fill="#434A54" d="M40.501,7.277c-0.293-0.168-0.582-0.32-0.877-0.471C39.372,7.281,39.532,7.871,40,8.143
			c0.468,0.27,1.06,0.113,1.343-0.344C41.066,7.621,40.788,7.443,40.501,7.277z"/>
	</g>
</g>
<g id="_x31_4_multitasking_x2C__task_x2C__work_x2C__business_x2C__office_x2C__corporation_x2C__job">
</g>
<g id="_x31_3_tranquility_x2C__yoga_x2C__lotus_x2C__posture_x2C__business_x2C__office_x2C__corporation">
</g>
<g id="_x31_2_corporate_x2C__party_x2C__business_x2C__office_x2C__corporation_x2C__job">
</g>
<g id="_x31_1_dialog_x2C__discussion_x2C__work_x2C__business_x2C__office_x2C__corporation_x2C__job">
</g>
<g id="_x31_0_listening_x2C__skill_x2C__dialog_x2C__business_x2C__office_x2C__corporation_x2C__job">
</g>
<g id="_x39__training_x2C__book_x2C__lesson_x2C__business_x2C__office_x2C__corporation_x2C__job">
</g>
<g id="_x38__dress_x2C__code_x2C__shirt_x2C__business_x2C__office_x2C__corporation_x2C__job">
</g>
<g id="_x37__task_x2C__program_x2C__ticket_x2C__business_x2C__office_x2C__corporation_x2C__job">
</g>
<g id="_x36__plan_x2C__graph_x2C__stage_x2C__business_x2C__office_x2C__corporation_x2C__job">
</g>
<g id="_x35__boss_x2C__king_x2C__crown_x2C__business_x2C__office_x2C__corporation_x2C__job">
</g>
<g id="_x34__structure_x2C__structuring_x2C__business_x2C__office_x2C__corporation_x2C__job">
</g>
<g id="_x33__soft_x2C__skills_x2C__communication_x2C__business_x2C__office_x2C__corporation_x2C__job">
</g>
<g id="_x32__office_x2C__house_x2C__portfolio_x2C__business_x2C__corporation_x2C__job">
</g>
<g id="_x31__corporate_x2C__rules_x2C__book_x2C__business_x2C__office_x2C__corporation_x2C__job">
</g>
</svg>
