<?xml version="1.0" encoding="utf-8"?>
<!-- Generator: Adobe Illustrator 16.0.0, SVG Export Plug-In . SVG Version: 6.00 Build 0)  -->
<!DOCTYPE svg PUBLIC "-//W3C//DTD SVG 1.1//EN" "http://www.w3.org/Graphics/SVG/1.1/DTD/svg11.dtd">
<svg version="1.1" xmlns="http://www.w3.org/2000/svg" xmlns:xlink="http://www.w3.org/1999/xlink" x="0px" y="0px" width="64px"
	 height="64px" viewBox="0 0 64 64" enable-background="new 0 0 64 64" xml:space="preserve">
<g id="_x35_0_document_x2C__optimization_x2C__documentation_x2C__business_x2C__office_x2C__corporation_x2C__job">
</g>
<g id="_x34_9_human_x2C__resource_x2C__conveyor_x2C__business_x2C__office_x2C__corporation_x2C__job">
</g>
<g id="_x34_8_knowledge_x2C__training_x2C__growth_x2C__book_x2C__business_x2C__office_x2C__corporation">
</g>
<g id="_x34_7_skill_x2C__competence_x2C__experience_x2C__business_x2C__office_x2C__corporation_x2C__job">
</g>
<g id="_x34_6_target_x2C__success_x2C__victory_x2C__business_x2C__office_x2C__corporation_x2C__job">
</g>
<g id="_x34_5_inbox_x2C__letter_x2C__email_x2C__business_x2C__office_x2C__corporation_x2C__job">
</g>
<g id="_x34_4_document_x2C__workflow_x2C__sharing_x2C__business_x2C__office_x2C__corporation_x2C__job">
</g>
<g id="_x34_3_budget_x2C__allocation_x2C__money_x2C__business_x2C__office_x2C__corporation_x2C__job">
</g>
<g id="_x34_2_case_x2C__task_x2C__project_x2C__business_x2C__office_x2C__corporation_x2C__job">
</g>
<g id="_x34_1_structure_x2C__structuring_x2C__tasks_x2C__business_x2C__office_x2C__corporation_x2C__job">
</g>
<g id="_x34_0_choice_x2C__dilemma_x2C__question_x2C__business_x2C__office_x2C__corporation_x2C__job">
</g>
<g id="_x33_9_workplace_x2C__table_x2C__laptop_x2C__business_x2C__office_x2C__corporation_x2C__job">
</g>
<g id="_x33_8_bribe_x2C__bag_x2C__money_x2C__business_x2C__office_x2C__corporation_x2C__job">
</g>
<g id="_x33_7_corruption_x2C__forage_x2C__money_x2C__business_x2C__office_x2C__corporation_x2C__job">
</g>
<g id="_x33_6_career_x2C__ladder_x2C__success_x2C__business_x2C__office_x2C__corporation_x2C__job">
</g>
<g id="_x33_5_review_x2C__feedback_x2C__rating_x2C__business_x2C__office_x2C__corporation_x2C__job">
</g>
<g id="_x33_4_manipulation_x2C__thread_x2C__puppet_x2C__business_x2C__office_x2C__corporation_x2C__job">
</g>
<g id="_x33_3_location_x2C__map_x2C__pin_x2C__business_x2C__office_x2C__corporation_x2C__job">
</g>
<g id="_x33_2_retirement_x2C__old_x2C__man_x2C__door_x2C__business_x2C__office_x2C__corporation">
</g>
<g id="_x33_1_victory_x2C__success_x2C__medal_x2C__reward_x2C__business_x2C__office_x2C__corporation">
</g>
<g id="_x33_0_dismissal_x2C__box_x2C__door_x2C__business_x2C__office_x2C__corporation_x2C__job">
</g>
<g id="_x32_9_meeting_x2C__discussion_x2C__question_x2C__business_x2C__office_x2C__corporation_x2C__job">
</g>
<g id="_x32_8_strategy_x2C__vision_x2C__eye_x2C__chess_x2C__business_x2C__office_x2C__corporation">
</g>
<g id="_x32_7_board_x2C__task_x2C__process_x2C__business_x2C__office_x2C__corporation_x2C__job">
</g>
<g id="_x32_6_scheme_x2C__board_x2C__structure_x2C__business_x2C__office_x2C__corporation_x2C__job">
</g>
<g id="_x32_5_conflict_x2C__dialog_x2C__discussion_x2C__business_x2C__office_x2C__corporation_x2C__job">
</g>
<g id="_x32_4_documentation_x2C__document_x2C__repository_x2C__business_x2C__office_x2C__corporation_x2C__job">
</g>
<g id="_x32_3_sprint_x2C__programming_x2C__code_x2C__business_x2C__office_x2C__corporation_x2C__job">
</g>
<g id="_x32_2_cram_x2C__tablet_x2C__work_x2C__business_x2C__office_x2C__corporation_x2C__job">
</g>
<g id="_x32_1_leader_x2C__discoverer_x2C__flag_x2C__business_x2C__office_x2C__corporation_x2C__job">
</g>
<g id="_x32_0_rally_x2C__collective_x2C__arm_x2C__business_x2C__office_x2C__corporation_x2C__job">
</g>
<g id="_x31_9_consolidation_x2C__portfolio_x2C__puzzle_x2C__business_x2C__office_x2C__corporation_x2C__job">
</g>
<g id="_x31_8_idea_x2C__creative_x2C__work_x2C__business_x2C__office_x2C__corporation_x2C__job">
</g>
<g id="_x31_7_problem_x2C__stress_x2C__resistance_x2C__business_x2C__office_x2C__corporation_x2C__job">
</g>
<g id="_x31_6_hard_x2C__skills_x2C__skill_x2C__portfolio_x2C__book_x2C__business_x2C__office">
	<g>
		<path fill="#AC92EC" d="M11,13.5c5.52,0,10,4.48,10,10s-4.48,10-10,10s-10-4.48-10-10S5.48,13.5,11,13.5z"/>
		<path fill="#967ADC" d="M11,13.5c-0.685,0-1.354,0.069-2,0.201c4.563,0.928,8,4.964,8,9.799s-3.438,8.871-8,9.799
			c0.646,0.132,1.315,0.201,2,0.201c5.52,0,10-4.48,10-10S16.52,13.5,11,13.5z"/>
		<path fill="#AC92EC" d="M32,1.5c5.52,0,10,4.48,10,10s-4.48,10-10,10s-10-4.48-10-10S26.48,1.5,32,1.5z"/>
		<path fill="#967ADC" d="M32,1.5c-0.685,0-1.354,0.069-2,0.201c4.563,0.928,8,4.964,8,9.799s-3.438,8.871-8,9.799
			c0.646,0.132,1.315,0.201,2,0.201c5.52,0,10-4.48,10-10S37.52,1.5,32,1.5z"/>
		<path fill="#AC92EC" d="M53,13.5c5.52,0,10,4.48,10,10c0,5.53-4.48,10-10,10c-5.53,0-10-4.47-10-10C43,17.98,47.47,13.5,53,13.5z"
			/>
		<path fill="#967ADC" d="M53,13.5c-0.685,0-1.354,0.069-2,0.201c4.563,0.928,8,4.964,8,9.799s-3.438,8.871-8,9.799
			c0.646,0.132,1.315,0.201,2,0.201c5.52,0,10-4.48,10-10S58.52,13.5,53,13.5z"/>
		<path fill="#656D78" d="M55,17.5h-4c-0.553,0-1,0.447-1,1v3c0,0.553,0.447,1,1,1s1-0.447,1-1v-2h2v2c0,0.553,0.447,1,1,1
			s1-0.447,1-1v-3C56,17.947,55.553,17.5,55,17.5z"/>
		<path fill="#EAC6BB" d="M43,39.497v4c0,4.27-2.44,7.98-6,9.8c-1.5,0.771-3.2,1.2-5,1.2s-3.5-0.43-5-1.2c-3.56-1.819-6-5.53-6-9.8
			v-4l3-3c0,0,3.71,2,8,2s8-2,8-2L43,39.497z"/>
		<path fill="#656D78" d="M24,36.497l-3,3v-2c0-6.07,4.93-11,11-11s11,4.93,11,11v2l-3-3c0,0-3.71,2-8,2S24,36.497,24,36.497z"/>
		<path fill="#D3B1A9" d="M38.977,36.975C38.984,37.148,39,37.32,39,37.497v2v4c0,4.27-2.44,7.98-6,9.8
			c-0.929,0.478-1.941,0.805-3,1c0.002,0,0.004,0.001,0.006,0.001c0.305,0.056,0.613,0.101,0.925,0.136
			c0.353,0.034,0.707,0.063,1.069,0.063c1.8,0,3.5-0.43,5-1.2c3.56-1.819,6-5.53,6-9.8v-4l-3-3
			C40,36.497,39.624,36.699,38.977,36.975z"/>
		<path fill="#434A54" d="M32,26.497c-0.345,0-0.684,0.021-1.021,0.052c-0.321,0.031-0.638,0.078-0.951,0.135
			c-0.009,0.002-0.019,0.002-0.027,0.004c4.947,0.913,8.732,5.137,8.976,10.287C39.624,36.699,40,36.497,40,36.497l3,3v-2
			C43,31.427,38.07,26.497,32,26.497z"/>
		<rect x="6" y="18.5" fill="#CCD1D9" width="10" height="3"/>
		<rect x="6" y="21.5" fill="#E6E9ED" width="10" height="7"/>
		<path fill="#E6E9ED" d="M59,21.5v6c0,0.55-0.45,1-1,1H48c-0.55,0-1-0.45-1-1v-6c0-0.55,0.45-1,1-1h2h6h2
			C58.55,20.5,59,20.95,59,21.5z"/>
		<path fill="#F5F7FA" d="M27,53.3c1.5,0.771,3.2,1.2,5,1.2s3.5-0.43,5-1.2v3.2l-2,2l-3-1l-3,1l-2-2V53.3z"/>
		<path fill="#E6E9ED" d="M29,58.5l3-1l3,1l2-2h4c3.32,0,6,2.68,6,6H17c0-3.32,2.68-6,6-6h4L29,58.5z"/>
		<g>
			<path fill="#CCD1D9" d="M41,56.5h-4c3.32,0,6,2.68,6,6h4C47,59.18,44.32,56.5,41,56.5z"/>
		</g>
		<g>
			<path fill="#E6E9ED" d="M36,12.5v4h-6c-1.1,0-2-0.89-2-2c0-1.1,0.9-2,2-2H36z"/>
			<path fill="#8CC152" d="M36,15.5h-6c-0.552,0-1-0.448-1-1s0.448-1,1-1c0.553,0,1-0.447,1-1s-0.447-1-1-1c-1.654,0-3,1.346-3,3
				s1.346,3,3,3h6c0.553,0,1-0.447,1-1S36.553,15.5,36,15.5z"/>
			<path fill="#A0D468" d="M36,5.5h-6c-1.654,0-3,1.346-3,3v6h2c0-0.552,0.448-1,1-1h6c0.553,0,1-0.447,1-1v-6
				C37,5.947,36.553,5.5,36,5.5z"/>
		</g>
	</g>
</g>
<g id="_x31_5_time_x2C__management_x2C__clock_x2C__deadline_x2C__business_x2C__office_x2C__corporation">
</g>
<g id="_x31_4_multitasking_x2C__task_x2C__work_x2C__business_x2C__office_x2C__corporation_x2C__job">
</g>
<g id="_x31_3_tranquility_x2C__yoga_x2C__lotus_x2C__posture_x2C__business_x2C__office_x2C__corporation">
</g>
<g id="_x31_2_corporate_x2C__party_x2C__business_x2C__office_x2C__corporation_x2C__job">
</g>
<g id="_x31_1_dialog_x2C__discussion_x2C__work_x2C__business_x2C__office_x2C__corporation_x2C__job">
</g>
<g id="_x31_0_listening_x2C__skill_x2C__dialog_x2C__business_x2C__office_x2C__corporation_x2C__job">
</g>
<g id="_x39__training_x2C__book_x2C__lesson_x2C__business_x2C__office_x2C__corporation_x2C__job">
</g>
<g id="_x38__dress_x2C__code_x2C__shirt_x2C__business_x2C__office_x2C__corporation_x2C__job">
</g>
<g id="_x37__task_x2C__program_x2C__ticket_x2C__business_x2C__office_x2C__corporation_x2C__job">
</g>
<g id="_x36__plan_x2C__graph_x2C__stage_x2C__business_x2C__office_x2C__corporation_x2C__job">
</g>
<g id="_x35__boss_x2C__king_x2C__crown_x2C__business_x2C__office_x2C__corporation_x2C__job">
</g>
<g id="_x34__structure_x2C__structuring_x2C__business_x2C__office_x2C__corporation_x2C__job">
</g>
<g id="_x33__soft_x2C__skills_x2C__communication_x2C__business_x2C__office_x2C__corporation_x2C__job">
</g>
<g id="_x32__office_x2C__house_x2C__portfolio_x2C__business_x2C__corporation_x2C__job">
</g>
<g id="_x31__corporate_x2C__rules_x2C__book_x2C__business_x2C__office_x2C__corporation_x2C__job">
</g>
</svg>
