<?xml version="1.0" encoding="utf-8"?>
<!-- Generator: Adobe Illustrator 16.0.0, SVG Export Plug-In . SVG Version: 6.00 Build 0)  -->
<!DOCTYPE svg PUBLIC "-//W3C//DTD SVG 1.1//EN" "http://www.w3.org/Graphics/SVG/1.1/DTD/svg11.dtd">
<svg version="1.1" xmlns="http://www.w3.org/2000/svg" xmlns:xlink="http://www.w3.org/1999/xlink" x="0px" y="0px" width="64px"
	 height="64px" viewBox="0 0 64 64" enable-background="new 0 0 64 64" xml:space="preserve">
<g id="_x35_0_document_x2C__optimization_x2C__documentation_x2C__business_x2C__office_x2C__corporation_x2C__job">
</g>
<g id="_x34_9_human_x2C__resource_x2C__conveyor_x2C__business_x2C__office_x2C__corporation_x2C__job">
</g>
<g id="_x34_8_knowledge_x2C__training_x2C__growth_x2C__book_x2C__business_x2C__office_x2C__corporation">
</g>
<g id="_x34_7_skill_x2C__competence_x2C__experience_x2C__business_x2C__office_x2C__corporation_x2C__job">
</g>
<g id="_x34_6_target_x2C__success_x2C__victory_x2C__business_x2C__office_x2C__corporation_x2C__job">
</g>
<g id="_x34_5_inbox_x2C__letter_x2C__email_x2C__business_x2C__office_x2C__corporation_x2C__job">
</g>
<g id="_x34_4_document_x2C__workflow_x2C__sharing_x2C__business_x2C__office_x2C__corporation_x2C__job">
</g>
<g id="_x34_3_budget_x2C__allocation_x2C__money_x2C__business_x2C__office_x2C__corporation_x2C__job">
</g>
<g id="_x34_2_case_x2C__task_x2C__project_x2C__business_x2C__office_x2C__corporation_x2C__job">
</g>
<g id="_x34_1_structure_x2C__structuring_x2C__tasks_x2C__business_x2C__office_x2C__corporation_x2C__job">
</g>
<g id="_x34_0_choice_x2C__dilemma_x2C__question_x2C__business_x2C__office_x2C__corporation_x2C__job">
</g>
<g id="_x33_9_workplace_x2C__table_x2C__laptop_x2C__business_x2C__office_x2C__corporation_x2C__job">
</g>
<g id="_x33_8_bribe_x2C__bag_x2C__money_x2C__business_x2C__office_x2C__corporation_x2C__job">
</g>
<g id="_x33_7_corruption_x2C__forage_x2C__money_x2C__business_x2C__office_x2C__corporation_x2C__job">
</g>
<g id="_x33_6_career_x2C__ladder_x2C__success_x2C__business_x2C__office_x2C__corporation_x2C__job">
</g>
<g id="_x33_5_review_x2C__feedback_x2C__rating_x2C__business_x2C__office_x2C__corporation_x2C__job">
</g>
<g id="_x33_4_manipulation_x2C__thread_x2C__puppet_x2C__business_x2C__office_x2C__corporation_x2C__job">
</g>
<g id="_x33_3_location_x2C__map_x2C__pin_x2C__business_x2C__office_x2C__corporation_x2C__job">
</g>
<g id="_x33_2_retirement_x2C__old_x2C__man_x2C__door_x2C__business_x2C__office_x2C__corporation">
</g>
<g id="_x33_1_victory_x2C__success_x2C__medal_x2C__reward_x2C__business_x2C__office_x2C__corporation">
</g>
<g id="_x33_0_dismissal_x2C__box_x2C__door_x2C__business_x2C__office_x2C__corporation_x2C__job">
</g>
<g id="_x32_9_meeting_x2C__discussion_x2C__question_x2C__business_x2C__office_x2C__corporation_x2C__job">
</g>
<g id="_x32_8_strategy_x2C__vision_x2C__eye_x2C__chess_x2C__business_x2C__office_x2C__corporation">
</g>
<g id="_x32_7_board_x2C__task_x2C__process_x2C__business_x2C__office_x2C__corporation_x2C__job">
</g>
<g id="_x32_6_scheme_x2C__board_x2C__structure_x2C__business_x2C__office_x2C__corporation_x2C__job">
</g>
<g id="_x32_5_conflict_x2C__dialog_x2C__discussion_x2C__business_x2C__office_x2C__corporation_x2C__job">
</g>
<g id="_x32_4_documentation_x2C__document_x2C__repository_x2C__business_x2C__office_x2C__corporation_x2C__job">
</g>
<g id="_x32_3_sprint_x2C__programming_x2C__code_x2C__business_x2C__office_x2C__corporation_x2C__job">
</g>
<g id="_x32_2_cram_x2C__tablet_x2C__work_x2C__business_x2C__office_x2C__corporation_x2C__job">
</g>
<g id="_x32_1_leader_x2C__discoverer_x2C__flag_x2C__business_x2C__office_x2C__corporation_x2C__job">
</g>
<g id="_x32_0_rally_x2C__collective_x2C__arm_x2C__business_x2C__office_x2C__corporation_x2C__job">
</g>
<g id="_x31_9_consolidation_x2C__portfolio_x2C__puzzle_x2C__business_x2C__office_x2C__corporation_x2C__job">
</g>
<g id="_x31_8_idea_x2C__creative_x2C__work_x2C__business_x2C__office_x2C__corporation_x2C__job">
</g>
<g id="_x31_7_problem_x2C__stress_x2C__resistance_x2C__business_x2C__office_x2C__corporation_x2C__job">
	<g>
		<path fill="#DA4453" d="M50,33.501L50,33.501L47,33.5c-0.553,0-1-0.448-1-1c0-0.553,0.448-1,1-1l0,0l3,0.001c0.553,0,1,0.448,1,1
			C51,33.054,50.552,33.501,50,33.501z"/>
		<path fill="#DA4453" d="M43.314,22.186c-0.256,0-0.512-0.098-0.707-0.293c-0.391-0.391-0.391-1.024,0-1.414l2.122-2.12
			c0.391-0.391,1.023-0.391,1.414,0s0.391,1.024,0,1.414l-2.122,2.12C43.826,22.088,43.57,22.186,43.314,22.186z"/>
		<path fill="#DA4453" d="M32.002,17.498c-0.553,0-1-0.447-1-1v-3c0-0.553,0.447-1,1-1s1,0.447,1,1v3
			C33.002,17.051,32.555,17.498,32.002,17.498z"/>
		<path fill="#DA4453" d="M20.688,22.184c-0.256,0-0.512-0.098-0.707-0.293l-2.121-2.121c-0.391-0.391-0.391-1.023,0-1.414
			s1.023-0.391,1.414,0l2.121,2.121c0.391,0.391,0.391,1.023,0,1.414C21.199,22.086,20.943,22.184,20.688,22.184z"/>
		<path fill="#DA4453" d="M17,33.5h-2.999c-0.553,0-1-0.447-1-1s0.447-1,1-1H17c0.553,0,1,0.447,1,1S17.553,33.5,17,33.5z"/>
		<path fill="#5D9CEC" d="M29,54.5l3-1l3,1l2-2h4c3.32,0,6,2.691,6,6v0.291V61.5c0,1.111-0.89,2-2,2H19c-1.1,0-2-0.889-2-2v-2.709
			V58.5c0-3.309,2.68-6,6-6h4L29,54.5z"/>
		<g>
			<path fill="#4A89DC" d="M41,52.5h-4c3.32,0,6,2.691,6,6v0.291V61.5c0,1.111-0.89,2-2,2h4c1.11,0,2-0.889,2-2v-2.709V58.5
				C47,55.191,44.32,52.5,41,52.5z"/>
		</g>
		<path fill="#F5F7FA" d="M32,50.5c1.8,0,3.5-0.43,5-1.199V52.5l-2,2l-3-1l-3,1l-2-2v-3.199C28.5,50.07,30.2,50.5,32,50.5z"/>
		<path fill="#EAC6BB" d="M43,35.5v4v0.01c0,4.271-2.44,7.971-6,9.791c-1.5,0.77-3.2,1.199-5,1.199s-3.5-0.43-5-1.199
			c-3.56-1.82-6-5.52-6-9.801v-4l3-3c0,0,3.72,2,8,2c4.29,0,8-2,8-2L43,35.5z"/>
		<path fill="#D3B1A9" d="M40,32.5c0,0-0.366,0.197-1,0.469V39.5v0.01c0,4.271-2.44,7.971-6,9.791c-0.929,0.477-1.941,0.805-3,1
			c0.65,0.119,1.314,0.199,2,0.199c1.8,0,3.5-0.43,5-1.199c3.56-1.82,6-5.52,6-9.791V39.5v-4L40,32.5z"/>
		<path fill="#965353" d="M24,32.5l-3,3v-5c0-4.969,4.03-9,9-9h8v4c2.76,0,5,2.24,5,5v5l-3-3c0,0-3.71,2-8,2
			C27.72,34.5,24,32.5,24,32.5z"/>
		<g>
			<path fill="#844747" d="M38,25.5v-4h-4v6c2.76,0,5,1.24,5,4v1.469c0.634-0.271,1-0.469,1-0.469l3,3v-5
				C43,27.74,40.76,25.5,38,25.5z"/>
		</g>
		<path fill="#ED5565" d="M56,25.5c3.873,0,7,3.141,7,7c0,3.873-3.127,7-7,7c-3.86,0-7-3.127-7-7C49,28.641,52.14,25.5,56,25.5z"/>
		<path fill="#DA4453" d="M56,25.5c-0.694,0-1.364,0.105-1.998,0.294C56.896,26.656,59,29.335,59,32.5
			c0,3.177-2.104,5.848-4.998,6.707C54.636,39.396,55.306,39.5,56,39.5c3.873,0,7-3.127,7-7C63,28.641,59.873,25.5,56,25.5z"/>
		<path fill="#ED5565" d="M49.68,7.82c3.861,0,7,3.137,7,7c0,3.873-3.139,7-7,7.01c-1.938,0-3.688-0.781-4.946-2.053
			c-1.272-1.271-2.054-3.021-2.054-4.957C42.68,10.957,45.819,7.82,49.68,7.82z"/>
		<path fill="#DA4453" d="M49.68,7.82c-0.695,0-1.365,0.105-2,0.295c2.889,0.861,5,3.537,5,6.705c0,3.18-2.117,5.853-5.011,6.715
			c0.637,0.189,1.311,0.295,2.011,0.295c3.861-0.01,7-3.137,7-7.01C56.68,10.957,53.541,7.82,49.68,7.82z"/>
		<path fill="#ED5565" d="M32,0.5c3.873,0,7,3.141,7,7c0,3.861-3.14,7-7,7s-7-3.139-7-7C25,3.641,28.14,0.5,32,0.5z"/>
		<path fill="#DA4453" d="M32,0.5c-0.694,0-1.364,0.105-1.998,0.294C32.896,1.656,35,4.335,35,7.5c0,3.166-2.112,5.843-5,6.705
			c0.635,0.189,1.305,0.295,2,0.295c3.86,0,7-3.139,7-7C39,3.641,35.873,0.5,32,0.5z"/>
		<path fill="#ED5565" d="M8,25.5c3.86,0,7,3.141,7,7c0,3.873-3.14,7-7,7s-7-3.127-7-7C1,28.641,4.14,25.5,8,25.5z"/>
		<path fill="#DA4453" d="M8,25.5c-0.695,0-1.365,0.105-2,0.295c2.888,0.863,5,3.541,5,6.705c0,3.176-2.112,5.846-5,6.706
			C6.635,39.396,7.305,39.5,8,39.5c3.86,0,7-3.127,7-7C15,28.641,11.86,25.5,8,25.5z"/>
		<path fill="#ED5565" d="M14.32,7.815c3.875,0,7.005,3.139,7.005,7.005c0,3.878-3.13,7.005-7.005,7.005
			c-3.866,0-7.007-3.127-6.995-7.005C7.325,10.954,10.454,7.815,14.32,7.815z"/>
		<path fill="#DA4453" d="M14.32,7.815c-0.695,0-1.364,0.104-1.998,0.294c2.896,0.861,5.003,3.54,5.003,6.711
			c0,3.181-2.107,5.854-5.003,6.712c0.634,0.188,1.304,0.293,1.998,0.293c3.875,0,7.005-3.127,7.005-7.005
			C21.325,10.954,18.195,7.815,14.32,7.815z"/>
		<g>
			<path fill="#F5F7FA" d="M32.03,59.5c-0.553,0-1.005-0.447-1.005-1s0.442-1,0.994-1h0.011c0.552,0,1,0.447,1,1
				S32.582,59.5,32.03,59.5z"/>
		</g>
		<g>
			<path fill="#F5F7FA" d="M8.03,36.497c-0.553,0-1.005-0.447-1.005-1s0.442-1,0.994-1H8.03c0.552,0,1,0.447,1,1
				S8.582,36.497,8.03,36.497z"/>
		</g>
		<g>
			<path fill="#F5F7FA" d="M8,33.499c-0.553,0-1-0.447-1-1v-3.002c0-0.553,0.447-1,1-1s1,0.447,1,1v3.002
				C9,33.052,8.553,33.499,8,33.499z"/>
		</g>
		<g>
			<path fill="#F5F7FA" d="M56.031,36.499c-0.553,0-1.005-0.447-1.005-1s0.442-1,0.994-1h0.011c0.552,0,1,0.447,1,1
				S56.583,36.499,56.031,36.499z"/>
		</g>
		<g>
			<path fill="#F5F7FA" d="M56.001,33.5c-0.552,0-1-0.447-1-1L55,29.499c0-0.552,0.447-1,1-1l0,0c0.552,0,1,0.447,1,1l0.001,3.001
				C57.001,33.052,56.554,33.5,56.001,33.5L56.001,33.5z"/>
		</g>
		<g>
			<path fill="#F5F7FA" d="M49.71,18.821c-0.553,0-1.005-0.447-1.005-1s0.442-1,0.994-1h0.011c0.552,0,1,0.447,1,1
				S50.262,18.821,49.71,18.821z"/>
		</g>
		<g>
			<path fill="#F5F7FA" d="M49.68,15.822c-0.552,0-1-0.447-1-0.999l-0.002-3.001c0-0.553,0.447-1.001,0.999-1.001h0.001
				c0.552,0,1,0.447,1,0.999l0.002,3.001C50.68,15.374,50.232,15.822,49.68,15.822C49.68,15.822,49.68,15.822,49.68,15.822z"/>
		</g>
		<g>
			<path fill="#F5F7FA" d="M32.032,11.496c-0.553,0-1.005-0.447-1.005-1s0.442-1,0.994-1h0.011c0.552,0,1,0.447,1,1
				S32.584,11.496,32.032,11.496z"/>
		</g>
		<g>
			<path fill="#F5F7FA" d="M32,8.498c-0.553,0-1-0.447-1-1V4.496c0-0.553,0.447-1,1-1s1,0.447,1,1v3.002
				C33,8.051,32.553,8.498,32,8.498z"/>
		</g>
		<g>
			<path fill="#F5F7FA" d="M14.356,18.817c-0.553,0-1.005-0.447-1.005-1s0.442-1,0.994-1h0.011c0.552,0,1,0.447,1,1
				S14.908,18.817,14.356,18.817z"/>
		</g>
		<g>
			<path fill="#F5F7FA" d="M14.323,15.819c-0.553,0-1-0.447-1-1v-3.001c0-0.553,0.447-1,1-1s1,0.447,1,1v3.001
				C15.323,15.372,14.876,15.819,14.323,15.819z"/>
		</g>
	</g>
</g>
<g id="_x31_6_hard_x2C__skills_x2C__skill_x2C__portfolio_x2C__book_x2C__business_x2C__office">
</g>
<g id="_x31_5_time_x2C__management_x2C__clock_x2C__deadline_x2C__business_x2C__office_x2C__corporation">
</g>
<g id="_x31_4_multitasking_x2C__task_x2C__work_x2C__business_x2C__office_x2C__corporation_x2C__job">
</g>
<g id="_x31_3_tranquility_x2C__yoga_x2C__lotus_x2C__posture_x2C__business_x2C__office_x2C__corporation">
</g>
<g id="_x31_2_corporate_x2C__party_x2C__business_x2C__office_x2C__corporation_x2C__job">
</g>
<g id="_x31_1_dialog_x2C__discussion_x2C__work_x2C__business_x2C__office_x2C__corporation_x2C__job">
</g>
<g id="_x31_0_listening_x2C__skill_x2C__dialog_x2C__business_x2C__office_x2C__corporation_x2C__job">
</g>
<g id="_x39__training_x2C__book_x2C__lesson_x2C__business_x2C__office_x2C__corporation_x2C__job">
</g>
<g id="_x38__dress_x2C__code_x2C__shirt_x2C__business_x2C__office_x2C__corporation_x2C__job">
</g>
<g id="_x37__task_x2C__program_x2C__ticket_x2C__business_x2C__office_x2C__corporation_x2C__job">
</g>
<g id="_x36__plan_x2C__graph_x2C__stage_x2C__business_x2C__office_x2C__corporation_x2C__job">
</g>
<g id="_x35__boss_x2C__king_x2C__crown_x2C__business_x2C__office_x2C__corporation_x2C__job">
</g>
<g id="_x34__structure_x2C__structuring_x2C__business_x2C__office_x2C__corporation_x2C__job">
</g>
<g id="_x33__soft_x2C__skills_x2C__communication_x2C__business_x2C__office_x2C__corporation_x2C__job">
</g>
<g id="_x32__office_x2C__house_x2C__portfolio_x2C__business_x2C__corporation_x2C__job">
</g>
<g id="_x31__corporate_x2C__rules_x2C__book_x2C__business_x2C__office_x2C__corporation_x2C__job">
</g>
</svg>
