<?xml version="1.0" encoding="utf-8"?>
<!-- Generator: Adobe Illustrator 16.0.0, SVG Export Plug-In . SVG Version: 6.00 Build 0)  -->
<!DOCTYPE svg PUBLIC "-//W3C//DTD SVG 1.1//EN" "http://www.w3.org/Graphics/SVG/1.1/DTD/svg11.dtd">
<svg version="1.1" xmlns="http://www.w3.org/2000/svg" xmlns:xlink="http://www.w3.org/1999/xlink" x="0px" y="0px" width="64px"
	 height="64px" viewBox="0 0 64 64" enable-background="new 0 0 64 64" xml:space="preserve">
<g id="_x35_0_document_x2C__optimization_x2C__documentation_x2C__business_x2C__office_x2C__corporation_x2C__job">
</g>
<g id="_x34_9_human_x2C__resource_x2C__conveyor_x2C__business_x2C__office_x2C__corporation_x2C__job">
</g>
<g id="_x34_8_knowledge_x2C__training_x2C__growth_x2C__book_x2C__business_x2C__office_x2C__corporation">
</g>
<g id="_x34_7_skill_x2C__competence_x2C__experience_x2C__business_x2C__office_x2C__corporation_x2C__job">
</g>
<g id="_x34_6_target_x2C__success_x2C__victory_x2C__business_x2C__office_x2C__corporation_x2C__job">
</g>
<g id="_x34_5_inbox_x2C__letter_x2C__email_x2C__business_x2C__office_x2C__corporation_x2C__job">
</g>
<g id="_x34_4_document_x2C__workflow_x2C__sharing_x2C__business_x2C__office_x2C__corporation_x2C__job">
</g>
<g id="_x34_3_budget_x2C__allocation_x2C__money_x2C__business_x2C__office_x2C__corporation_x2C__job">
</g>
<g id="_x34_2_case_x2C__task_x2C__project_x2C__business_x2C__office_x2C__corporation_x2C__job">
</g>
<g id="_x34_1_structure_x2C__structuring_x2C__tasks_x2C__business_x2C__office_x2C__corporation_x2C__job">
</g>
<g id="_x34_0_choice_x2C__dilemma_x2C__question_x2C__business_x2C__office_x2C__corporation_x2C__job">
</g>
<g id="_x33_9_workplace_x2C__table_x2C__laptop_x2C__business_x2C__office_x2C__corporation_x2C__job">
</g>
<g id="_x33_8_bribe_x2C__bag_x2C__money_x2C__business_x2C__office_x2C__corporation_x2C__job">
</g>
<g id="_x33_7_corruption_x2C__forage_x2C__money_x2C__business_x2C__office_x2C__corporation_x2C__job">
</g>
<g id="_x33_6_career_x2C__ladder_x2C__success_x2C__business_x2C__office_x2C__corporation_x2C__job">
</g>
<g id="_x33_5_review_x2C__feedback_x2C__rating_x2C__business_x2C__office_x2C__corporation_x2C__job">
</g>
<g id="_x33_4_manipulation_x2C__thread_x2C__puppet_x2C__business_x2C__office_x2C__corporation_x2C__job">
</g>
<g id="_x33_3_location_x2C__map_x2C__pin_x2C__business_x2C__office_x2C__corporation_x2C__job">
</g>
<g id="_x33_2_retirement_x2C__old_x2C__man_x2C__door_x2C__business_x2C__office_x2C__corporation">
</g>
<g id="_x33_1_victory_x2C__success_x2C__medal_x2C__reward_x2C__business_x2C__office_x2C__corporation">
</g>
<g id="_x33_0_dismissal_x2C__box_x2C__door_x2C__business_x2C__office_x2C__corporation_x2C__job">
</g>
<g id="_x32_9_meeting_x2C__discussion_x2C__question_x2C__business_x2C__office_x2C__corporation_x2C__job">
</g>
<g id="_x32_8_strategy_x2C__vision_x2C__eye_x2C__chess_x2C__business_x2C__office_x2C__corporation">
</g>
<g id="_x32_7_board_x2C__task_x2C__process_x2C__business_x2C__office_x2C__corporation_x2C__job">
</g>
<g id="_x32_6_scheme_x2C__board_x2C__structure_x2C__business_x2C__office_x2C__corporation_x2C__job">
</g>
<g id="_x32_5_conflict_x2C__dialog_x2C__discussion_x2C__business_x2C__office_x2C__corporation_x2C__job">
</g>
<g id="_x32_4_documentation_x2C__document_x2C__repository_x2C__business_x2C__office_x2C__corporation_x2C__job">
</g>
<g id="_x32_3_sprint_x2C__programming_x2C__code_x2C__business_x2C__office_x2C__corporation_x2C__job">
</g>
<g id="_x32_2_cram_x2C__tablet_x2C__work_x2C__business_x2C__office_x2C__corporation_x2C__job">
</g>
<g id="_x32_1_leader_x2C__discoverer_x2C__flag_x2C__business_x2C__office_x2C__corporation_x2C__job">
</g>
<g id="_x32_0_rally_x2C__collective_x2C__arm_x2C__business_x2C__office_x2C__corporation_x2C__job">
</g>
<g id="_x31_9_consolidation_x2C__portfolio_x2C__puzzle_x2C__business_x2C__office_x2C__corporation_x2C__job">
</g>
<g id="_x31_8_idea_x2C__creative_x2C__work_x2C__business_x2C__office_x2C__corporation_x2C__job">
	<g>
		<path fill="#F6BB42" d="M32,0.5c-11.05,0-20,8.95-20,20c0,8.2,4.94,15.25,12,18.34v1v0.66h16v-0.66v-1
			c7.06-3.09,12-10.14,12-18.34C52,9.45,43.05,0.5,32,0.5z"/>
		<path fill="#EDAB37" d="M32,0.5c-0.675,0-1.342,0.035-2,0.101C40.109,1.604,48,10.125,48,20.5c0,8.2-4.94,13.25-12,16.34v3v0.66h4
			v-0.66v-1c7.06-3.09,12-10.14,12-18.34C52,9.45,43.05,0.5,32,0.5z"/>
		<path fill="#434A54" d="M55,56.5v6c0,0.55-0.45,1-1,1H36l6-7l-2-2l4-4l-2-2h5C51.42,48.5,55,52.08,55,56.5z"/>
		<path fill="#353B44" d="M47,48.5h-4c4.42,0,8,3.58,8,8v6c0,0.55-0.45,1-1,1h4c0.55,0,1-0.45,1-1v-6C55,52.08,51.42,48.5,47,48.5z"
			/>
		<polygon fill="#656D78" points="40,54.5 42,56.5 36,63.5 32,63.5 35.76,55.5 38.12,50.5 40,46.5 42,48.5 44,50.5 		"/>
		<polygon fill="#CCD1D9" points="40,40.5 40,44.5 24,44.5 24,40.5 28,40.5 36,40.5 		"/>
		<polygon fill="#F5F7FA" points="24,44.5 40,44.5 40,46.5 38.12,50.5 35,48.97 32,47.5 29,48.97 25.88,50.5 24,46.5 		"/>
		<polygon fill="#ED5565" points="35,48.97 33,51.5 31,51.5 29,48.97 32,47.5 		"/>
		<polygon fill="#E6E9ED" points="29,48.97 31,51.5 28.24,55.5 25.88,50.5 		"/>
		<polygon fill="#E6E9ED" points="38.12,50.5 35.76,55.5 33,51.5 35,48.97 		"/>
		<polygon fill="#DA4453" points="31,51.5 33,51.5 35.76,55.5 32,63.5 28.24,55.5 		"/>
		<polygon fill="#656D78" points="24,46.5 25.88,50.5 28.24,55.5 32,63.5 28,63.5 22,56.5 24,54.5 20,50.5 22,48.5 		"/>
		<path fill="#434A54" d="M22,56.5l6,7H10c-0.55,0-1-0.45-1-1v-6c0-4.42,3.58-8,8-8h5l-2,2l4,4L22,56.5z"/>
		<path fill="#AAB2BD" d="M40,43.5H24c-0.553,0-1,0.447-1,1s0.447,1,1,1h16c0.553,0,1-0.447,1-1S40.553,43.5,40,43.5z"/>
		<path fill="#FFCE54" d="M26,25.502h2V37c0,0.553,0.447,1,1,1s1-0.447,1-1V25.502h4V37c0,0.553,0.447,1,1,1s1-0.447,1-1V25.502h2
			c2.206,0,4-1.794,4-4s-1.794-4-4-4s-4,1.794-4,4v2h-4v-2c0-2.206-1.794-4-4-4s-4,1.794-4,4S23.794,25.502,26,25.502z M36,21.502
			c0-1.103,0.897-2,2-2s2,0.897,2,2s-0.897,2-2,2h-2V21.502z M26,19.502c1.103,0,2,0.897,2,2v2h-2c-1.103,0-2-0.897-2-2
			S24.897,19.502,26,19.502z"/>
		<polygon fill="#E6E9ED" points="36,36.5 36,40.5 28,40.5 28,36.5 29,36 32,34.5 35,36 		"/>
	</g>
</g>
<g id="_x31_7_problem_x2C__stress_x2C__resistance_x2C__business_x2C__office_x2C__corporation_x2C__job">
</g>
<g id="_x31_6_hard_x2C__skills_x2C__skill_x2C__portfolio_x2C__book_x2C__business_x2C__office">
</g>
<g id="_x31_5_time_x2C__management_x2C__clock_x2C__deadline_x2C__business_x2C__office_x2C__corporation">
</g>
<g id="_x31_4_multitasking_x2C__task_x2C__work_x2C__business_x2C__office_x2C__corporation_x2C__job">
</g>
<g id="_x31_3_tranquility_x2C__yoga_x2C__lotus_x2C__posture_x2C__business_x2C__office_x2C__corporation">
</g>
<g id="_x31_2_corporate_x2C__party_x2C__business_x2C__office_x2C__corporation_x2C__job">
</g>
<g id="_x31_1_dialog_x2C__discussion_x2C__work_x2C__business_x2C__office_x2C__corporation_x2C__job">
</g>
<g id="_x31_0_listening_x2C__skill_x2C__dialog_x2C__business_x2C__office_x2C__corporation_x2C__job">
</g>
<g id="_x39__training_x2C__book_x2C__lesson_x2C__business_x2C__office_x2C__corporation_x2C__job">
</g>
<g id="_x38__dress_x2C__code_x2C__shirt_x2C__business_x2C__office_x2C__corporation_x2C__job">
</g>
<g id="_x37__task_x2C__program_x2C__ticket_x2C__business_x2C__office_x2C__corporation_x2C__job">
</g>
<g id="_x36__plan_x2C__graph_x2C__stage_x2C__business_x2C__office_x2C__corporation_x2C__job">
</g>
<g id="_x35__boss_x2C__king_x2C__crown_x2C__business_x2C__office_x2C__corporation_x2C__job">
</g>
<g id="_x34__structure_x2C__structuring_x2C__business_x2C__office_x2C__corporation_x2C__job">
</g>
<g id="_x33__soft_x2C__skills_x2C__communication_x2C__business_x2C__office_x2C__corporation_x2C__job">
</g>
<g id="_x32__office_x2C__house_x2C__portfolio_x2C__business_x2C__corporation_x2C__job">
</g>
<g id="_x31__corporate_x2C__rules_x2C__book_x2C__business_x2C__office_x2C__corporation_x2C__job">
</g>
</svg>
