<?xml version="1.0" encoding="utf-8"?>
<!-- Generator: Adobe Illustrator 16.0.0, SVG Export Plug-In . SVG Version: 6.00 Build 0)  -->
<!DOCTYPE svg PUBLIC "-//W3C//DTD SVG 1.1//EN" "http://www.w3.org/Graphics/SVG/1.1/DTD/svg11.dtd">
<svg version="1.1" xmlns="http://www.w3.org/2000/svg" xmlns:xlink="http://www.w3.org/1999/xlink" x="0px" y="0px" width="64px"
	 height="64px" viewBox="0 0 64 64" enable-background="new 0 0 64 64" xml:space="preserve">
<g id="_x35_0_document_x2C__optimization_x2C__documentation_x2C__business_x2C__office_x2C__corporation_x2C__job">
</g>
<g id="_x34_9_human_x2C__resource_x2C__conveyor_x2C__business_x2C__office_x2C__corporation_x2C__job">
</g>
<g id="_x34_8_knowledge_x2C__training_x2C__growth_x2C__book_x2C__business_x2C__office_x2C__corporation">
</g>
<g id="_x34_7_skill_x2C__competence_x2C__experience_x2C__business_x2C__office_x2C__corporation_x2C__job">
</g>
<g id="_x34_6_target_x2C__success_x2C__victory_x2C__business_x2C__office_x2C__corporation_x2C__job">
</g>
<g id="_x34_5_inbox_x2C__letter_x2C__email_x2C__business_x2C__office_x2C__corporation_x2C__job">
</g>
<g id="_x34_4_document_x2C__workflow_x2C__sharing_x2C__business_x2C__office_x2C__corporation_x2C__job">
</g>
<g id="_x34_3_budget_x2C__allocation_x2C__money_x2C__business_x2C__office_x2C__corporation_x2C__job">
</g>
<g id="_x34_2_case_x2C__task_x2C__project_x2C__business_x2C__office_x2C__corporation_x2C__job">
</g>
<g id="_x34_1_structure_x2C__structuring_x2C__tasks_x2C__business_x2C__office_x2C__corporation_x2C__job">
</g>
<g id="_x34_0_choice_x2C__dilemma_x2C__question_x2C__business_x2C__office_x2C__corporation_x2C__job">
</g>
<g id="_x33_9_workplace_x2C__table_x2C__laptop_x2C__business_x2C__office_x2C__corporation_x2C__job">
</g>
<g id="_x33_8_bribe_x2C__bag_x2C__money_x2C__business_x2C__office_x2C__corporation_x2C__job">
</g>
<g id="_x33_7_corruption_x2C__forage_x2C__money_x2C__business_x2C__office_x2C__corporation_x2C__job">
</g>
<g id="_x33_6_career_x2C__ladder_x2C__success_x2C__business_x2C__office_x2C__corporation_x2C__job">
</g>
<g id="_x33_5_review_x2C__feedback_x2C__rating_x2C__business_x2C__office_x2C__corporation_x2C__job">
</g>
<g id="_x33_4_manipulation_x2C__thread_x2C__puppet_x2C__business_x2C__office_x2C__corporation_x2C__job">
</g>
<g id="_x33_3_location_x2C__map_x2C__pin_x2C__business_x2C__office_x2C__corporation_x2C__job">
</g>
<g id="_x33_2_retirement_x2C__old_x2C__man_x2C__door_x2C__business_x2C__office_x2C__corporation">
</g>
<g id="_x33_1_victory_x2C__success_x2C__medal_x2C__reward_x2C__business_x2C__office_x2C__corporation">
</g>
<g id="_x33_0_dismissal_x2C__box_x2C__door_x2C__business_x2C__office_x2C__corporation_x2C__job">
</g>
<g id="_x32_9_meeting_x2C__discussion_x2C__question_x2C__business_x2C__office_x2C__corporation_x2C__job">
</g>
<g id="_x32_8_strategy_x2C__vision_x2C__eye_x2C__chess_x2C__business_x2C__office_x2C__corporation">
</g>
<g id="_x32_7_board_x2C__task_x2C__process_x2C__business_x2C__office_x2C__corporation_x2C__job">
</g>
<g id="_x32_6_scheme_x2C__board_x2C__structure_x2C__business_x2C__office_x2C__corporation_x2C__job">
</g>
<g id="_x32_5_conflict_x2C__dialog_x2C__discussion_x2C__business_x2C__office_x2C__corporation_x2C__job">
</g>
<g id="_x32_4_documentation_x2C__document_x2C__repository_x2C__business_x2C__office_x2C__corporation_x2C__job">
</g>
<g id="_x32_3_sprint_x2C__programming_x2C__code_x2C__business_x2C__office_x2C__corporation_x2C__job">
</g>
<g id="_x32_2_cram_x2C__tablet_x2C__work_x2C__business_x2C__office_x2C__corporation_x2C__job">
</g>
<g id="_x32_1_leader_x2C__discoverer_x2C__flag_x2C__business_x2C__office_x2C__corporation_x2C__job">
</g>
<g id="_x32_0_rally_x2C__collective_x2C__arm_x2C__business_x2C__office_x2C__corporation_x2C__job">
</g>
<g id="_x31_9_consolidation_x2C__portfolio_x2C__puzzle_x2C__business_x2C__office_x2C__corporation_x2C__job">
	<g>
		<path fill="#37BC9B" d="M63.005,33v15.35c0,2.2-0.29,5.54-3,8L55.995,60l-0.17-0.18c0.72-0.721,1.17-1.721,1.17-2.82V39l6-6
			H63.005z"/>
		<polygon fill="#856CD3" points="63.005,15 63.005,33 62.995,33 56.995,39 56.995,21 62.995,15 		"/>
		<path fill="#856CD3" d="M62.995,15l-6,6c0-2.2-1.8-4-4-4l6-6C61.195,11,62.995,12.8,62.995,15z"/>
		<polygon fill="#967ADC" points="42.995,11 58.995,11 52.995,17 28.995,17 34.995,11 38.995,11 		"/>
		<path fill="#48CFAD" d="M56.995,39v18c0,1.1-0.45,2.1-1.17,2.82c-0.73,0.729-1.73,1.18-2.83,1.18h-24v-8.35
			c0.729,0.83,1.8,1.35,3,1.35c2.21,0,4-1.79,4-4s-1.79-4-4-4c-1.2,0-2.271,0.53-3,1.36V39h11.35c-0.83-0.73-1.35-1.8-1.35-3
			c0-2.21,1.79-4,4-4s4,1.79,4,4c0,1.2-0.53,2.27-1.36,3H56.995z"/>
		<path fill="#AC92EC" d="M56.995,21v18h-11.36c0.83-0.73,1.36-1.8,1.36-3c0-2.21-1.79-4-4-4s-4,1.79-4,4c0,1.2,0.52,2.27,1.35,3
			h-11.35v-8.35c-0.74,0.83-1.811,1.35-3,1.35c-2.21,0-4-1.79-4-4s1.79-4,4-4c1.189,0,2.26,0.53,3,1.36V17h24
			C55.195,17,56.995,18.8,56.995,21z"/>
		<path fill="#656D78" d="M42.995,5v4h-4h-14h-4V5c0-1.1,0.89-2,2-2h18C42.095,3,42.995,3.9,42.995,5z"/>
		<path fill="#5D9CEC" d="M31.995,46c2.21,0,4,1.79,4,4s-1.79,4-4,4c-1.2,0-2.271-0.52-3-1.35V61h-24c-2.2,0-4-1.8-4-4V39h11.35
			c-0.83,0.74-1.35,1.81-1.35,3c0,2.21,1.79,4,4,4s4-1.79,4-4c0-1.19-0.53-2.27-1.36-3h11.36v8.36C29.725,46.53,30.795,46,31.995,46
			z"/>
		<path fill="#8CC152" d="M20.995,11h4h10l-6,6h-24c-1.021,0-1.95,0.38-2.66,1.02L5.995,14c2.46-2.7,5.8-3,8-3H20.995z"/>
		<path fill="#A0D468" d="M28.995,30.65V39h-11.36c0.83,0.73,1.36,1.81,1.36,3c0,2.21-1.79,4-4,4s-4-1.79-4-4
			c0-1.19,0.52-2.26,1.35-3H0.995V21c0-1.18,0.52-2.25,1.34-2.98c0.71-0.64,1.64-1.02,2.66-1.02h24v8.36
			c-0.74-0.83-1.811-1.36-3-1.36c-2.21,0-4,1.79-4,4s1.79,4,4,4C27.185,32,28.255,31.48,28.995,30.65z"/>
		<rect x="20.995" y="9" fill="#E6E9ED" width="5" height="5"/>
		<rect x="37.995" y="9" fill="#E6E9ED" width="5" height="5"/>
	</g>
</g>
<g id="_x31_8_idea_x2C__creative_x2C__work_x2C__business_x2C__office_x2C__corporation_x2C__job">
</g>
<g id="_x31_7_problem_x2C__stress_x2C__resistance_x2C__business_x2C__office_x2C__corporation_x2C__job">
</g>
<g id="_x31_6_hard_x2C__skills_x2C__skill_x2C__portfolio_x2C__book_x2C__business_x2C__office">
</g>
<g id="_x31_5_time_x2C__management_x2C__clock_x2C__deadline_x2C__business_x2C__office_x2C__corporation">
</g>
<g id="_x31_4_multitasking_x2C__task_x2C__work_x2C__business_x2C__office_x2C__corporation_x2C__job">
</g>
<g id="_x31_3_tranquility_x2C__yoga_x2C__lotus_x2C__posture_x2C__business_x2C__office_x2C__corporation">
</g>
<g id="_x31_2_corporate_x2C__party_x2C__business_x2C__office_x2C__corporation_x2C__job">
</g>
<g id="_x31_1_dialog_x2C__discussion_x2C__work_x2C__business_x2C__office_x2C__corporation_x2C__job">
</g>
<g id="_x31_0_listening_x2C__skill_x2C__dialog_x2C__business_x2C__office_x2C__corporation_x2C__job">
</g>
<g id="_x39__training_x2C__book_x2C__lesson_x2C__business_x2C__office_x2C__corporation_x2C__job">
</g>
<g id="_x38__dress_x2C__code_x2C__shirt_x2C__business_x2C__office_x2C__corporation_x2C__job">
</g>
<g id="_x37__task_x2C__program_x2C__ticket_x2C__business_x2C__office_x2C__corporation_x2C__job">
</g>
<g id="_x36__plan_x2C__graph_x2C__stage_x2C__business_x2C__office_x2C__corporation_x2C__job">
</g>
<g id="_x35__boss_x2C__king_x2C__crown_x2C__business_x2C__office_x2C__corporation_x2C__job">
</g>
<g id="_x34__structure_x2C__structuring_x2C__business_x2C__office_x2C__corporation_x2C__job">
</g>
<g id="_x33__soft_x2C__skills_x2C__communication_x2C__business_x2C__office_x2C__corporation_x2C__job">
</g>
<g id="_x32__office_x2C__house_x2C__portfolio_x2C__business_x2C__corporation_x2C__job">
</g>
<g id="_x31__corporate_x2C__rules_x2C__book_x2C__business_x2C__office_x2C__corporation_x2C__job">
</g>
</svg>
