<?xml version="1.0" encoding="utf-8"?>
<!-- Generator: Adobe Illustrator 16.0.0, SVG Export Plug-In . SVG Version: 6.00 Build 0)  -->
<!DOCTYPE svg PUBLIC "-//W3C//DTD SVG 1.1//EN" "http://www.w3.org/Graphics/SVG/1.1/DTD/svg11.dtd">
<svg version="1.1" xmlns="http://www.w3.org/2000/svg" xmlns:xlink="http://www.w3.org/1999/xlink" x="0px" y="0px" width="64px"
	 height="64px" viewBox="0 0 64 64" enable-background="new 0 0 64 64" xml:space="preserve">
<g id="_x35_0_document_x2C__optimization_x2C__documentation_x2C__business_x2C__office_x2C__corporation_x2C__job">
</g>
<g id="_x34_9_human_x2C__resource_x2C__conveyor_x2C__business_x2C__office_x2C__corporation_x2C__job">
</g>
<g id="_x34_8_knowledge_x2C__training_x2C__growth_x2C__book_x2C__business_x2C__office_x2C__corporation">
</g>
<g id="_x34_7_skill_x2C__competence_x2C__experience_x2C__business_x2C__office_x2C__corporation_x2C__job">
</g>
<g id="_x34_6_target_x2C__success_x2C__victory_x2C__business_x2C__office_x2C__corporation_x2C__job">
</g>
<g id="_x34_5_inbox_x2C__letter_x2C__email_x2C__business_x2C__office_x2C__corporation_x2C__job">
</g>
<g id="_x34_4_document_x2C__workflow_x2C__sharing_x2C__business_x2C__office_x2C__corporation_x2C__job">
</g>
<g id="_x34_3_budget_x2C__allocation_x2C__money_x2C__business_x2C__office_x2C__corporation_x2C__job">
</g>
<g id="_x34_2_case_x2C__task_x2C__project_x2C__business_x2C__office_x2C__corporation_x2C__job">
</g>
<g id="_x34_1_structure_x2C__structuring_x2C__tasks_x2C__business_x2C__office_x2C__corporation_x2C__job">
</g>
<g id="_x34_0_choice_x2C__dilemma_x2C__question_x2C__business_x2C__office_x2C__corporation_x2C__job">
</g>
<g id="_x33_9_workplace_x2C__table_x2C__laptop_x2C__business_x2C__office_x2C__corporation_x2C__job">
</g>
<g id="_x33_8_bribe_x2C__bag_x2C__money_x2C__business_x2C__office_x2C__corporation_x2C__job">
</g>
<g id="_x33_7_corruption_x2C__forage_x2C__money_x2C__business_x2C__office_x2C__corporation_x2C__job">
</g>
<g id="_x33_6_career_x2C__ladder_x2C__success_x2C__business_x2C__office_x2C__corporation_x2C__job">
</g>
<g id="_x33_5_review_x2C__feedback_x2C__rating_x2C__business_x2C__office_x2C__corporation_x2C__job">
</g>
<g id="_x33_4_manipulation_x2C__thread_x2C__puppet_x2C__business_x2C__office_x2C__corporation_x2C__job">
</g>
<g id="_x33_3_location_x2C__map_x2C__pin_x2C__business_x2C__office_x2C__corporation_x2C__job">
</g>
<g id="_x33_2_retirement_x2C__old_x2C__man_x2C__door_x2C__business_x2C__office_x2C__corporation">
</g>
<g id="_x33_1_victory_x2C__success_x2C__medal_x2C__reward_x2C__business_x2C__office_x2C__corporation">
</g>
<g id="_x33_0_dismissal_x2C__box_x2C__door_x2C__business_x2C__office_x2C__corporation_x2C__job">
</g>
<g id="_x32_9_meeting_x2C__discussion_x2C__question_x2C__business_x2C__office_x2C__corporation_x2C__job">
</g>
<g id="_x32_8_strategy_x2C__vision_x2C__eye_x2C__chess_x2C__business_x2C__office_x2C__corporation">
</g>
<g id="_x32_7_board_x2C__task_x2C__process_x2C__business_x2C__office_x2C__corporation_x2C__job">
</g>
<g id="_x32_6_scheme_x2C__board_x2C__structure_x2C__business_x2C__office_x2C__corporation_x2C__job">
</g>
<g id="_x32_5_conflict_x2C__dialog_x2C__discussion_x2C__business_x2C__office_x2C__corporation_x2C__job">
</g>
<g id="_x32_4_documentation_x2C__document_x2C__repository_x2C__business_x2C__office_x2C__corporation_x2C__job">
</g>
<g id="_x32_3_sprint_x2C__programming_x2C__code_x2C__business_x2C__office_x2C__corporation_x2C__job">
</g>
<g id="_x32_2_cram_x2C__tablet_x2C__work_x2C__business_x2C__office_x2C__corporation_x2C__job">
	<g>
		<path fill="#FFCE54" d="M44.5,35c-1.03,0-2.03,0.109-3,0.319c-5.32,1.17-9.51,5.36-10.68,10.681c-0.21,0.97-0.32,1.97-0.32,3
			c0,7.729,6.27,14,14,14s14-6.271,14-14C58.5,41.27,52.23,35,44.5,35z"/>
		<path fill="#F6BB42" d="M44.5,35c-0.683,0-1.348,0.065-2.004,0.158C49.279,36.13,54.5,41.949,54.5,49
			c0,7.049-5.219,12.867-12,13.841c0.655,0.094,1.319,0.159,2,0.159c7.73,0,14-6.271,14-14C58.5,41.27,52.23,35,44.5,35z"/>
		<polygon fill="#FFCE54" points="32.5,1 31,4 30.5,5 19.5,5 19,4 17.5,1 		"/>
		<g>
			<path fill="#656D78" d="M32.5,1L31,4h10.5v31.319c0.97-0.21,1.97-0.319,3-0.319V1H32.5z"/>
			<path fill="#656D78" d="M8.5,4H19l-1.5-3h-12v48h25c0-1.03,0.11-2.03,0.32-3H8.5V4z"/>
		</g>
		<path fill="#F5F7FA" d="M19.5,5h11L31,4h10.5v31.319c-5.32,1.17-9.51,5.36-10.68,10.681H8.5V4H19L19.5,5z"/>
		<path fill="#A0D468" d="M18.793,33.291l-3.286,3.286l-1.244-1.275c-0.387-0.396-1.02-0.402-1.414-0.018
			c-0.396,0.386-0.403,1.019-0.018,1.414l1.951,2c0.002,0.002,0.004,0.002,0.005,0.004c0.002,0.001,0.002,0.003,0.004,0.005
			c0.063,0.063,0.141,0.1,0.215,0.143c0.039,0.023,0.072,0.059,0.113,0.075C15.24,38.975,15.369,39,15.498,39
			c0.127,0,0.254-0.024,0.373-0.072c0.038-0.016,0.069-0.049,0.105-0.069c0.076-0.042,0.154-0.079,0.22-0.143
			c0.002-0.002,0.002-0.004,0.004-0.005c0.001-0.002,0.003-0.002,0.005-0.004l4.002-4.002c0.391-0.391,0.391-1.023,0-1.414
			S19.184,32.9,18.793,33.291z"/>
		<path fill="#CCD1D9" d="M33.5,33h-9c-0.553,0-1,0.447-1,1s0.447,1,1,1h9c0.553,0,1-0.447,1-1S34.053,33,33.5,33z"/>
		<path fill="#CCD1D9" d="M30.5,37h-6c-0.553,0-1,0.447-1,1s0.447,1,1,1h6c0.553,0,1-0.447,1-1S31.053,37,30.5,37z"/>
		<path fill="#A0D468" d="M18.793,22.292l-3.286,3.286l-1.244-1.275c-0.387-0.396-1.02-0.402-1.414-0.018
			c-0.396,0.386-0.403,1.019-0.018,1.414l1.951,2c0.002,0.002,0.004,0.002,0.005,0.004c0.002,0.001,0.002,0.003,0.004,0.005
			c0.063,0.063,0.141,0.101,0.215,0.143c0.039,0.022,0.072,0.059,0.113,0.075c0.121,0.05,0.25,0.075,0.379,0.075
			c0.127,0,0.254-0.024,0.373-0.072c0.038-0.016,0.069-0.049,0.105-0.069c0.076-0.042,0.154-0.079,0.22-0.143
			c0.002-0.002,0.002-0.004,0.004-0.006c0.001-0.001,0.003-0.001,0.005-0.003l4.002-4.002c0.391-0.391,0.391-1.023,0-1.414
			S19.184,21.901,18.793,22.292z"/>
		<path fill="#CCD1D9" d="M36.5,22.001h-12c-0.553,0-1,0.447-1,1s0.447,1,1,1h12c0.553,0,1-0.447,1-1S37.053,22.001,36.5,22.001z"/>
		<path fill="#CCD1D9" d="M24.5,28.001h6c0.553,0,1-0.447,1-1s-0.447-1-1-1h-6c-0.553,0-1,0.447-1,1S23.947,28.001,24.5,28.001z"/>
		<path fill="#A0D468" d="M18.793,11.293l-3.286,3.286l-1.244-1.275c-0.387-0.396-1.02-0.402-1.414-0.018
			c-0.396,0.386-0.403,1.019-0.018,1.414l1.951,2c0.002,0.002,0.004,0.002,0.005,0.004c0.002,0.001,0.002,0.003,0.004,0.005
			c0.063,0.063,0.141,0.1,0.215,0.143c0.039,0.023,0.072,0.059,0.113,0.075c0.121,0.05,0.25,0.075,0.379,0.075
			c0.127,0,0.254-0.024,0.373-0.072c0.038-0.016,0.069-0.049,0.105-0.069c0.076-0.042,0.154-0.079,0.22-0.143
			c0.002-0.002,0.002-0.004,0.004-0.005c0.001-0.002,0.003-0.002,0.005-0.004l4.002-4.002c0.391-0.391,0.391-1.023,0-1.414
			S19.184,10.902,18.793,11.293z"/>
		<path fill="#CCD1D9" d="M24.5,13.002h12c0.553,0,1-0.447,1-1s-0.447-1-1-1h-12c-0.553,0-1,0.447-1,1S23.947,13.002,24.5,13.002z"
			/>
		<path fill="#CCD1D9" d="M24.5,17.002h6c0.553,0,1-0.447,1-1s-0.447-1-1-1h-6c-0.553,0-1,0.447-1,1S23.947,17.002,24.5,17.002z"/>
		<path fill="#434A54" d="M54.423,54.382c0.102-0.244,0.102-0.52,0-0.764c-0.051-0.123-0.124-0.234-0.217-0.326l-1.999-1.999
			c-0.391-0.391-1.023-0.391-1.414,0s-0.391,1.023,0,1.414L51.086,53H44.5c-2.757,0-5-2.243-5-5s2.243-5,5-5c0.553,0,1-0.447,1-1
			s-0.447-1-1-1c-3.859,0-7,3.141-7,7c0,2.813,1.672,5.237,4.07,6.349C41.713,54.728,42.071,55,42.5,55h8.586l-0.293,0.293
			c-0.391,0.391-0.391,1.023,0,1.414C50.988,56.902,51.244,57,51.5,57s0.512-0.098,0.707-0.293l1.999-1.999
			C54.299,54.616,54.372,54.505,54.423,54.382z"/>
		<path fill="#656D78" d="M45.79,41.124l0.417-0.417c0.391-0.391,0.391-1.023,0-1.414s-1.023-0.391-1.414,0l-2,2
			c-0.391,0.391-0.391,1.023,0,1.414l2,2C44.988,44.902,45.244,45,45.5,45s0.512-0.098,0.707-0.293
			c0.381-0.381,0.384-0.988,0.022-1.38C48.133,44.034,49.5,45.854,49.5,48c0,2.757-2.243,5-5,5h-7c-0.553,0-1,0.447-1,1s0.447,1,1,1
			h7c3.859,0,7-3.141,7-7C51.5,44.582,49.034,41.732,45.79,41.124z"/>
	</g>
</g>
<g id="_x32_1_leader_x2C__discoverer_x2C__flag_x2C__business_x2C__office_x2C__corporation_x2C__job">
</g>
<g id="_x32_0_rally_x2C__collective_x2C__arm_x2C__business_x2C__office_x2C__corporation_x2C__job">
</g>
<g id="_x31_9_consolidation_x2C__portfolio_x2C__puzzle_x2C__business_x2C__office_x2C__corporation_x2C__job">
</g>
<g id="_x31_8_idea_x2C__creative_x2C__work_x2C__business_x2C__office_x2C__corporation_x2C__job">
</g>
<g id="_x31_7_problem_x2C__stress_x2C__resistance_x2C__business_x2C__office_x2C__corporation_x2C__job">
</g>
<g id="_x31_6_hard_x2C__skills_x2C__skill_x2C__portfolio_x2C__book_x2C__business_x2C__office">
</g>
<g id="_x31_5_time_x2C__management_x2C__clock_x2C__deadline_x2C__business_x2C__office_x2C__corporation">
</g>
<g id="_x31_4_multitasking_x2C__task_x2C__work_x2C__business_x2C__office_x2C__corporation_x2C__job">
</g>
<g id="_x31_3_tranquility_x2C__yoga_x2C__lotus_x2C__posture_x2C__business_x2C__office_x2C__corporation">
</g>
<g id="_x31_2_corporate_x2C__party_x2C__business_x2C__office_x2C__corporation_x2C__job">
</g>
<g id="_x31_1_dialog_x2C__discussion_x2C__work_x2C__business_x2C__office_x2C__corporation_x2C__job">
</g>
<g id="_x31_0_listening_x2C__skill_x2C__dialog_x2C__business_x2C__office_x2C__corporation_x2C__job">
</g>
<g id="_x39__training_x2C__book_x2C__lesson_x2C__business_x2C__office_x2C__corporation_x2C__job">
</g>
<g id="_x38__dress_x2C__code_x2C__shirt_x2C__business_x2C__office_x2C__corporation_x2C__job">
</g>
<g id="_x37__task_x2C__program_x2C__ticket_x2C__business_x2C__office_x2C__corporation_x2C__job">
</g>
<g id="_x36__plan_x2C__graph_x2C__stage_x2C__business_x2C__office_x2C__corporation_x2C__job">
</g>
<g id="_x35__boss_x2C__king_x2C__crown_x2C__business_x2C__office_x2C__corporation_x2C__job">
</g>
<g id="_x34__structure_x2C__structuring_x2C__business_x2C__office_x2C__corporation_x2C__job">
</g>
<g id="_x33__soft_x2C__skills_x2C__communication_x2C__business_x2C__office_x2C__corporation_x2C__job">
</g>
<g id="_x32__office_x2C__house_x2C__portfolio_x2C__business_x2C__corporation_x2C__job">
</g>
<g id="_x31__corporate_x2C__rules_x2C__book_x2C__business_x2C__office_x2C__corporation_x2C__job">
</g>
</svg>
