<?xml version="1.0" encoding="utf-8"?>
<!-- Generator: Adobe Illustrator 16.0.0, SVG Export Plug-In . SVG Version: 6.00 Build 0)  -->
<!DOCTYPE svg PUBLIC "-//W3C//DTD SVG 1.1//EN" "http://www.w3.org/Graphics/SVG/1.1/DTD/svg11.dtd">
<svg version="1.1" xmlns="http://www.w3.org/2000/svg" xmlns:xlink="http://www.w3.org/1999/xlink" x="0px" y="0px" width="64px"
	 height="64px" viewBox="0 0 64 64" enable-background="new 0 0 64 64" xml:space="preserve">
<g id="_x35_0_document_x2C__optimization_x2C__documentation_x2C__business_x2C__office_x2C__corporation_x2C__job">
</g>
<g id="_x34_9_human_x2C__resource_x2C__conveyor_x2C__business_x2C__office_x2C__corporation_x2C__job">
</g>
<g id="_x34_8_knowledge_x2C__training_x2C__growth_x2C__book_x2C__business_x2C__office_x2C__corporation">
</g>
<g id="_x34_7_skill_x2C__competence_x2C__experience_x2C__business_x2C__office_x2C__corporation_x2C__job">
</g>
<g id="_x34_6_target_x2C__success_x2C__victory_x2C__business_x2C__office_x2C__corporation_x2C__job">
</g>
<g id="_x34_5_inbox_x2C__letter_x2C__email_x2C__business_x2C__office_x2C__corporation_x2C__job">
</g>
<g id="_x34_4_document_x2C__workflow_x2C__sharing_x2C__business_x2C__office_x2C__corporation_x2C__job">
</g>
<g id="_x34_3_budget_x2C__allocation_x2C__money_x2C__business_x2C__office_x2C__corporation_x2C__job">
</g>
<g id="_x34_2_case_x2C__task_x2C__project_x2C__business_x2C__office_x2C__corporation_x2C__job">
</g>
<g id="_x34_1_structure_x2C__structuring_x2C__tasks_x2C__business_x2C__office_x2C__corporation_x2C__job">
</g>
<g id="_x34_0_choice_x2C__dilemma_x2C__question_x2C__business_x2C__office_x2C__corporation_x2C__job">
</g>
<g id="_x33_9_workplace_x2C__table_x2C__laptop_x2C__business_x2C__office_x2C__corporation_x2C__job">
</g>
<g id="_x33_8_bribe_x2C__bag_x2C__money_x2C__business_x2C__office_x2C__corporation_x2C__job">
</g>
<g id="_x33_7_corruption_x2C__forage_x2C__money_x2C__business_x2C__office_x2C__corporation_x2C__job">
</g>
<g id="_x33_6_career_x2C__ladder_x2C__success_x2C__business_x2C__office_x2C__corporation_x2C__job">
</g>
<g id="_x33_5_review_x2C__feedback_x2C__rating_x2C__business_x2C__office_x2C__corporation_x2C__job">
</g>
<g id="_x33_4_manipulation_x2C__thread_x2C__puppet_x2C__business_x2C__office_x2C__corporation_x2C__job">
</g>
<g id="_x33_3_location_x2C__map_x2C__pin_x2C__business_x2C__office_x2C__corporation_x2C__job">
</g>
<g id="_x33_2_retirement_x2C__old_x2C__man_x2C__door_x2C__business_x2C__office_x2C__corporation">
</g>
<g id="_x33_1_victory_x2C__success_x2C__medal_x2C__reward_x2C__business_x2C__office_x2C__corporation">
</g>
<g id="_x33_0_dismissal_x2C__box_x2C__door_x2C__business_x2C__office_x2C__corporation_x2C__job">
</g>
<g id="_x32_9_meeting_x2C__discussion_x2C__question_x2C__business_x2C__office_x2C__corporation_x2C__job">
</g>
<g id="_x32_8_strategy_x2C__vision_x2C__eye_x2C__chess_x2C__business_x2C__office_x2C__corporation">
</g>
<g id="_x32_7_board_x2C__task_x2C__process_x2C__business_x2C__office_x2C__corporation_x2C__job">
</g>
<g id="_x32_6_scheme_x2C__board_x2C__structure_x2C__business_x2C__office_x2C__corporation_x2C__job">
</g>
<g id="_x32_5_conflict_x2C__dialog_x2C__discussion_x2C__business_x2C__office_x2C__corporation_x2C__job">
	<g>
		<g>
			<path fill="#F6BB42" d="M22,36.5V38c-1.941-2.53-3.35-3.13-4.98-2.971L20,30.67C21.26,32.279,22,34.311,22,36.5z"/>
			<path fill="#FFCE54" d="M20,30.67l-2.98,4.359C14.359,35.29,11.1,37.52,4,36.641C3.68,36.6,3.34,36.55,3,36.5
				c0-5.25,4.25-9.5,9.5-9.5C15.549,27,18.27,28.439,20,30.67z"/>
			<path fill="#EDAB37" d="M20,30.67l-2.33,3.406c0.084,0.315,0.162,0.633,0.213,0.959c0.596,0.059,1.184,0.26,1.797,0.66
				c0.066,0.043,0.133,0.084,0.201,0.132c0.102,0.073,0.205,0.155,0.309,0.239c0.094,0.078,0.189,0.159,0.287,0.246
				c0.092,0.083,0.184,0.168,0.277,0.26c0.121,0.12,0.246,0.254,0.371,0.391c0.078,0.083,0.152,0.161,0.23,0.251
				C21.564,37.453,21.777,37.711,22,38v-1.5C22,34.311,21.26,32.279,20,30.67z"/>
			<path fill="#F6BB42" d="M11.445,27.062c-0.326,0.037-0.646,0.089-0.961,0.157h-0.002c2.229,0.475,4.174,1.72,5.518,3.451
				c0.777,0.994,1.342,2.153,1.67,3.406L20,30.67c-1.73-2.23-4.451-3.67-7.5-3.67c-0.346,0-0.686,0.02-1.021,0.057
				C11.467,27.058,11.457,27.061,11.445,27.062z"/>
			<path fill="#EAC6BB" d="M22,38v3c0,3.53-2.041,6.59-5,8.06C15.799,49.66,14.439,50,13,50c-1.441,0-2.801-0.34-4-0.94
				C6.039,47.59,4,44.53,4,41v-0.04v-4.319c7.1,0.879,10.359-1.351,13.02-1.611C18.65,34.87,20.059,35.47,22,38z"/>
			<path fill="#D3B1A9" d="M18.02,35.051v5.977c0,3.53-2.041,6.59-5,8.06c-0.607,0.304-1.256,0.539-1.934,0.699
				C11.703,49.921,12.342,50,13,50c1.439,0,2.799-0.34,4-0.94c2.959-1.47,5-4.529,5-8.06v-3
				C20.465,35.999,19.262,35.215,18.02,35.051z"/>
			<path fill="#F5F7FA" d="M13,50c1.439,0,2.799-0.34,4-0.94V53l-2,1l-2-1l-2,1l-2-1v-3.94C10.199,49.66,11.559,50,13,50z"/>
			<path fill="#E6E9ED" d="M25,58v3c0,0.55-0.441,1-1,1H2c-0.551,0-1-0.45-1-1v-3c0-2.76,2.24-5,5-5h3l2,1l2-1l2,1l2-1h3
				C22.77,53,25,55.24,25,58z"/>
			<g>
				<path fill="#CCD1D9" d="M20,53h-3l-0.168,0.084C19.201,53.481,21,55.524,21,58v3c0,0.55-0.441,1-1,1h4c0.559,0,1-0.45,1-1v-3
					C25,55.24,22.77,53,20,53z"/>
			</g>
		</g>
		<g>
			<path fill="#F5F7FA" d="M51,50c1.439,0,2.801-0.34,4-0.94V53l-2,1l-2-1l-2,1l-2-1v-3.94C48.201,49.66,49.561,50,51,50z"/>
			<path fill="#5D9CEC" d="M63,61c0,0.55-0.449,1-1,1H40c-0.549,0-1-0.45-1-1v-3c0-2.76,2.23-5,5-5h3l2,1l2-1l2,1l2-1h3
				c2.76,0,5,2.24,5,5V61z"/>
			<g>
				<path fill="#4A89DC" d="M58,53h-3l-0.168,0.084C57.195,53.482,59,55.525,59,58v3c0,0.55-0.449,1-1,1h4c0.551,0,1-0.45,1-1v-3
					C63,55.24,60.76,53,58,53z"/>
			</g>
			<path fill="#EAC6BB" d="M60,38.03V41c0,3.53-2.039,6.59-5,8.06C53.801,49.66,52.439,50,51,50s-2.799-0.34-4-0.94
				c-2.949-1.46-4.98-4.5-5-8.01V41v-2.97L45,36c0,0,3.01,1,6.5,1s5.5-1,5.5-1L60,38.03z"/>
			<path fill="#D3B1A9" d="M57,36c0,0-0.357,0.17-1,0.369V41c0,3.53-2.039,6.59-5,8.06c-0.627,0.313-1.297,0.551-2,0.711
				C49.643,49.918,50.313,50,51,50c1.439,0,2.801-0.34,4-0.94c2.961-1.47,5-4.529,5-8.06v-2.97L57,36z"/>
			<path fill="#965353" d="M60,35v3.03L57,36c0,0-2.01,1-5.5,1S45,36,45,36l-3,2.03V35c0-4.42,3.58-8,8-8h6v4
				C58.211,31,60,32.79,60,35z"/>
			<g>
				<path fill="#844747" d="M56,31v-4h-4v6c2.211,0,4,0.79,4,3v0.369C56.643,36.17,57,36,57,36l3,2.03V35C60,32.79,58.211,31,56,31z
					"/>
			</g>
		</g>
		<path fill="#ED5565" d="M32,25c3.86,0,7,3.14,7,7s-3.14,7-7,7s-7-3.14-7-7S28.14,25,32,25z"/>
		<path fill="#DA4453" d="M32,25c-0.695,0-1.365,0.105-2,0.295c2.888,0.862,5,3.54,5,6.705s-2.112,5.843-5,6.705
			C30.635,38.895,31.305,39,32,39c3.86,0,7-3.14,7-7S35.86,25,32,25z"/>
		<polygon fill="#FFCE54" points="49,22 34,22 36,20 34,18 36,16 34,14 36,12 34,10 36,8 34,6 36,4 34,2 63,2 63,22 53,22 51,24 		
			"/>
		<polygon fill="#FFCE54" points="30,4 28,6 30,8 28,10 30,12 28,14 30,16 28,18 30,20 28,22 15,22 13,24 11,22 1,22 1,2 28,2 		"/>
		<rect x="59.001" y="2" fill="#F6BB42" width="3.999" height="20"/>
		<g>
			<path fill="#F6BB42" d="M15,7H5C4.447,7,4,6.553,4,6s0.447-1,1-1h10c0.553,0,1,0.447,1,1S15.553,7,15,7z"/>
		</g>
		<g>
			<path fill="#F6BB42" d="M51,11H40c-0.553,0-1-0.447-1-1s0.447-1,1-1h11c0.553,0,1,0.447,1,1S51.553,11,51,11z"/>
		</g>
		<g>
			<path fill="#F6BB42" d="M24,11H5c-0.553,0-1-0.447-1-1s0.447-1,1-1h19c0.553,0,1,0.447,1,1S24.553,11,24,11z"/>
		</g>
		<g>
			<path fill="#F6BB42" d="M24,7h-5c-0.553,0-1-0.447-1-1s0.447-1,1-1h5c0.553,0,1,0.447,1,1S24.553,7,24,7z"/>
		</g>
		<g>
			<path fill="#F6BB42" d="M46,7h-6c-0.553,0-1-0.447-1-1s0.447-1,1-1h6c0.553,0,1,0.447,1,1S46.553,7,46,7z"/>
		</g>
		<g>
			<path fill="#F6BB42" d="M59,7h-9c-0.553,0-1-0.447-1-1s0.447-1,1-1h9c0.553,0,1,0.447,1,1S59.553,7,59,7z"/>
		</g>
		<g>
			<path fill="#F6BB42" d="M15,19H5c-0.553,0-1-0.447-1-1s0.447-1,1-1h10c0.553,0,1,0.447,1,1S15.553,19,15,19z"/>
		</g>
		<g>
			<path fill="#F6BB42" d="M24,19h-5c-0.553,0-1-0.447-1-1s0.447-1,1-1h5c0.553,0,1,0.447,1,1S24.553,19,24,19z"/>
		</g>
		<g>
			<path fill="#F6BB42" d="M46,19h-6c-0.553,0-1-0.447-1-1s0.447-1,1-1h6c0.553,0,1,0.447,1,1S46.553,19,46,19z"/>
		</g>
		<g>
			<path fill="#F6BB42" d="M59,19h-9c-0.553,0-1-0.447-1-1s0.447-1,1-1h9c0.553,0,1,0.447,1,1S59.553,19,59,19z"/>
		</g>
		<g>
			<path fill="#F6BB42" d="M9,15H5c-0.553,0-1-0.447-1-1s0.447-1,1-1h4c0.553,0,1,0.447,1,1S9.553,15,9,15z"/>
		</g>
		<g>
			<path fill="#F6BB42" d="M24,15H13c-0.553,0-1-0.447-1-1s0.447-1,1-1h11c0.553,0,1,0.447,1,1S24.553,15,24,15z"/>
		</g>
		<g>
			<path fill="#F6BB42" d="M44,15h-4c-0.553,0-1-0.447-1-1s0.447-1,1-1h4c0.553,0,1,0.447,1,1S44.553,15,44,15z"/>
		</g>
		<g>
			<path fill="#F6BB42" d="M59,15H48c-0.553,0-1-0.447-1-1s0.447-1,1-1h11c0.553,0,1,0.447,1,1S59.553,15,59,15z"/>
		</g>
		<g>
			<path fill="#F6BB42" d="M59,11h-4c-0.553,0-1-0.447-1-1s0.447-1,1-1h4c0.553,0,1,0.447,1,1S59.553,11,59,11z"/>
		</g>
		<g>
			<path fill="#F5F7FA" d="M32.03,36c-0.553,0-1.005-0.447-1.005-1s0.442-1,0.994-1h0.011c0.552,0,1,0.447,1,1S32.582,36,32.03,36z"
				/>
		</g>
		<g>
			<path fill="#F5F7FA" d="M32,33c-0.553,0-1-0.447-1-1v-3c0-0.553,0.447-1,1-1s1,0.447,1,1v3C33,32.553,32.553,33,32,33z"/>
		</g>
	</g>
</g>
<g id="_x32_4_documentation_x2C__document_x2C__repository_x2C__business_x2C__office_x2C__corporation_x2C__job">
</g>
<g id="_x32_3_sprint_x2C__programming_x2C__code_x2C__business_x2C__office_x2C__corporation_x2C__job">
</g>
<g id="_x32_2_cram_x2C__tablet_x2C__work_x2C__business_x2C__office_x2C__corporation_x2C__job">
</g>
<g id="_x32_1_leader_x2C__discoverer_x2C__flag_x2C__business_x2C__office_x2C__corporation_x2C__job">
</g>
<g id="_x32_0_rally_x2C__collective_x2C__arm_x2C__business_x2C__office_x2C__corporation_x2C__job">
</g>
<g id="_x31_9_consolidation_x2C__portfolio_x2C__puzzle_x2C__business_x2C__office_x2C__corporation_x2C__job">
</g>
<g id="_x31_8_idea_x2C__creative_x2C__work_x2C__business_x2C__office_x2C__corporation_x2C__job">
</g>
<g id="_x31_7_problem_x2C__stress_x2C__resistance_x2C__business_x2C__office_x2C__corporation_x2C__job">
</g>
<g id="_x31_6_hard_x2C__skills_x2C__skill_x2C__portfolio_x2C__book_x2C__business_x2C__office">
</g>
<g id="_x31_5_time_x2C__management_x2C__clock_x2C__deadline_x2C__business_x2C__office_x2C__corporation">
</g>
<g id="_x31_4_multitasking_x2C__task_x2C__work_x2C__business_x2C__office_x2C__corporation_x2C__job">
</g>
<g id="_x31_3_tranquility_x2C__yoga_x2C__lotus_x2C__posture_x2C__business_x2C__office_x2C__corporation">
</g>
<g id="_x31_2_corporate_x2C__party_x2C__business_x2C__office_x2C__corporation_x2C__job">
</g>
<g id="_x31_1_dialog_x2C__discussion_x2C__work_x2C__business_x2C__office_x2C__corporation_x2C__job">
</g>
<g id="_x31_0_listening_x2C__skill_x2C__dialog_x2C__business_x2C__office_x2C__corporation_x2C__job">
</g>
<g id="_x39__training_x2C__book_x2C__lesson_x2C__business_x2C__office_x2C__corporation_x2C__job">
</g>
<g id="_x38__dress_x2C__code_x2C__shirt_x2C__business_x2C__office_x2C__corporation_x2C__job">
</g>
<g id="_x37__task_x2C__program_x2C__ticket_x2C__business_x2C__office_x2C__corporation_x2C__job">
</g>
<g id="_x36__plan_x2C__graph_x2C__stage_x2C__business_x2C__office_x2C__corporation_x2C__job">
</g>
<g id="_x35__boss_x2C__king_x2C__crown_x2C__business_x2C__office_x2C__corporation_x2C__job">
</g>
<g id="_x34__structure_x2C__structuring_x2C__business_x2C__office_x2C__corporation_x2C__job">
</g>
<g id="_x33__soft_x2C__skills_x2C__communication_x2C__business_x2C__office_x2C__corporation_x2C__job">
</g>
<g id="_x32__office_x2C__house_x2C__portfolio_x2C__business_x2C__corporation_x2C__job">
</g>
<g id="_x31__corporate_x2C__rules_x2C__book_x2C__business_x2C__office_x2C__corporation_x2C__job">
</g>
</svg>
