<?xml version="1.0" encoding="utf-8"?>
<!-- Generator: Adobe Illustrator 16.0.0, SVG Export Plug-In . SVG Version: 6.00 Build 0)  -->
<!DOCTYPE svg PUBLIC "-//W3C//DTD SVG 1.1//EN" "http://www.w3.org/Graphics/SVG/1.1/DTD/svg11.dtd">
<svg version="1.1" xmlns="http://www.w3.org/2000/svg" xmlns:xlink="http://www.w3.org/1999/xlink" x="0px" y="0px" width="64px"
	 height="64px" viewBox="0 0 64 64" enable-background="new 0 0 64 64" xml:space="preserve">
<g id="_x35_0_document_x2C__optimization_x2C__documentation_x2C__business_x2C__office_x2C__corporation_x2C__job">
</g>
<g id="_x34_9_human_x2C__resource_x2C__conveyor_x2C__business_x2C__office_x2C__corporation_x2C__job">
</g>
<g id="_x34_8_knowledge_x2C__training_x2C__growth_x2C__book_x2C__business_x2C__office_x2C__corporation">
</g>
<g id="_x34_7_skill_x2C__competence_x2C__experience_x2C__business_x2C__office_x2C__corporation_x2C__job">
</g>
<g id="_x34_6_target_x2C__success_x2C__victory_x2C__business_x2C__office_x2C__corporation_x2C__job">
</g>
<g id="_x34_5_inbox_x2C__letter_x2C__email_x2C__business_x2C__office_x2C__corporation_x2C__job">
</g>
<g id="_x34_4_document_x2C__workflow_x2C__sharing_x2C__business_x2C__office_x2C__corporation_x2C__job">
</g>
<g id="_x34_3_budget_x2C__allocation_x2C__money_x2C__business_x2C__office_x2C__corporation_x2C__job">
</g>
<g id="_x34_2_case_x2C__task_x2C__project_x2C__business_x2C__office_x2C__corporation_x2C__job">
</g>
<g id="_x34_1_structure_x2C__structuring_x2C__tasks_x2C__business_x2C__office_x2C__corporation_x2C__job">
</g>
<g id="_x34_0_choice_x2C__dilemma_x2C__question_x2C__business_x2C__office_x2C__corporation_x2C__job">
</g>
<g id="_x33_9_workplace_x2C__table_x2C__laptop_x2C__business_x2C__office_x2C__corporation_x2C__job">
</g>
<g id="_x33_8_bribe_x2C__bag_x2C__money_x2C__business_x2C__office_x2C__corporation_x2C__job">
</g>
<g id="_x33_7_corruption_x2C__forage_x2C__money_x2C__business_x2C__office_x2C__corporation_x2C__job">
</g>
<g id="_x33_6_career_x2C__ladder_x2C__success_x2C__business_x2C__office_x2C__corporation_x2C__job">
</g>
<g id="_x33_5_review_x2C__feedback_x2C__rating_x2C__business_x2C__office_x2C__corporation_x2C__job">
</g>
<g id="_x33_4_manipulation_x2C__thread_x2C__puppet_x2C__business_x2C__office_x2C__corporation_x2C__job">
</g>
<g id="_x33_3_location_x2C__map_x2C__pin_x2C__business_x2C__office_x2C__corporation_x2C__job">
</g>
<g id="_x33_2_retirement_x2C__old_x2C__man_x2C__door_x2C__business_x2C__office_x2C__corporation">
</g>
<g id="_x33_1_victory_x2C__success_x2C__medal_x2C__reward_x2C__business_x2C__office_x2C__corporation">
</g>
<g id="_x33_0_dismissal_x2C__box_x2C__door_x2C__business_x2C__office_x2C__corporation_x2C__job">
</g>
<g id="_x32_9_meeting_x2C__discussion_x2C__question_x2C__business_x2C__office_x2C__corporation_x2C__job">
</g>
<g id="_x32_8_strategy_x2C__vision_x2C__eye_x2C__chess_x2C__business_x2C__office_x2C__corporation">
</g>
<g id="_x32_7_board_x2C__task_x2C__process_x2C__business_x2C__office_x2C__corporation_x2C__job">
</g>
<g id="_x32_6_scheme_x2C__board_x2C__structure_x2C__business_x2C__office_x2C__corporation_x2C__job">
	<g>
		<path fill="#48CFAD" d="M61,7v38H3V7c0-1.11,0.89-2,2-2h23h8h23C60.11,5,61,5.89,61,7z"/>
		<path fill="#37BC9B" d="M59,5h-5c1.11,0,2,0.89,2,2v38h5V7C61,5.89,60.11,5,59,5z"/>
		<rect x="28" y="2" fill="#FFD2A6" width="8" height="3"/>
		<polygon fill="#656D78" points="63,45 63,48 43,48 38,48 26,48 21,48 1,48 1,45 3,45 61,45 		"/>
		<polygon fill="#434A54" points="61,45 58,45 58,48 63,48 63,45 		"/>
		<polygon fill="#FFD2A6" points="26,48 23.86,54 22.79,57 21,62 16,62 21,48 		"/>
		<polygon fill="#F7C292" points="23.86,54 40.14,54 41.21,57 22.79,57 		"/>
		<polygon fill="#FFD2A6" points="43,48 48,62 43,62 41.21,57 40.14,54 38,48 		"/>
		<g>
			<path fill="#E6E9ED" d="M45.313,32.22c-0.057,0-0.114-0.005-0.172-0.015l-8.482-1.455c-0.544-0.095-0.909-0.612-0.814-1.156
				s0.612-0.907,1.156-0.814l8.482,1.455c0.544,0.095,0.909,0.612,0.814,1.156C46.212,31.877,45.79,32.22,45.313,32.22z"/>
		</g>
		<g>
			<path fill="#E6E9ED" d="M35.578,21.423c-0.478,0-0.899-0.343-0.984-0.829c-0.095-0.544,0.271-1.062,0.814-1.156l9.514-1.611
				c0.543-0.091,1.062,0.271,1.156,0.814s-0.271,1.062-0.814,1.156l-9.514,1.611C35.692,21.418,35.635,21.423,35.578,21.423z"/>
		</g>
		<g>
			<path fill="#E6E9ED" d="M32,38c-0.553,0-1-0.447-1-1v-4c0-0.553,0.447-1,1-1s1,0.447,1,1v4C33,37.553,32.553,38,32,38z"/>
		</g>
		<g>
			<path fill="#E6E9ED" d="M32,18c-0.553,0-1-0.447-1-1v-4c0-0.553,0.447-1,1-1s1,0.447,1,1v4C33,17.553,32.553,18,32,18z"/>
		</g>
		<polygon fill="#F5F7FA" points="38,37 38,41 26,41 26,37 32,37 		"/>
		<polygon fill="#F5F7FA" points="56,29 56,33 44,33 44,31 44,29 		"/>
		<polygon fill="#F5F7FA" points="56,17 56,21 44,21 44,19 44,17 		"/>
		<g>
			<path fill="#E6E9ED" d="M18.688,32.22c0.057,0,0.114-0.005,0.172-0.015l8.482-1.455c0.544-0.095,0.909-0.612,0.814-1.156
				S27.544,28.687,27,28.779l-8.482,1.455c-0.544,0.095-0.909,0.612-0.814,1.156C17.788,31.877,18.21,32.22,18.688,32.22z"/>
		</g>
		<g>
			<path fill="#E6E9ED" d="M28.422,21.423c0.478,0,0.899-0.343,0.984-0.829c0.095-0.544-0.271-1.062-0.814-1.156l-9.514-1.611
				c-0.543-0.091-1.062,0.271-1.156,0.814s0.271,1.062,0.814,1.156l9.514,1.611C28.308,21.418,28.365,21.423,28.422,21.423z"/>
		</g>
		<polygon fill="#F5F7FA" points="8,29 8,33 20,33 20,31 20,29 		"/>
		<polygon fill="#F5F7FA" points="8,17 8,21 20,21 20,19 20,17 		"/>
		<polygon fill="#F5F7FA" points="38,9 38,13 32,13 26,13 26,9 		"/>
		<path fill="#F5F7FA" d="M38.24,20c1.1,1.37,1.76,3.11,1.76,5s-0.66,3.63-1.76,5c-1.46,1.83-3.71,3-6.24,3s-4.78-1.17-6.24-3
			c-1.1-1.37-1.76-3.11-1.76-5s0.66-3.63,1.76-5c1.46-1.83,3.71-3,6.24-3S36.78,18.17,38.24,20z"/>
		<g>
			<path fill="#48CFAD" d="M36,25h-8c-0.553,0-1-0.447-1-1s0.447-1,1-1h8c0.553,0,1,0.447,1,1S36.553,25,36,25z"/>
		</g>
		<g>
			<path fill="#48CFAD" d="M34,28h-4c-0.553,0-1-0.447-1-1s0.447-1,1-1h4c0.553,0,1,0.447,1,1S34.553,28,34,28z"/>
		</g>
	</g>
</g>
<g id="_x32_5_conflict_x2C__dialog_x2C__discussion_x2C__business_x2C__office_x2C__corporation_x2C__job">
</g>
<g id="_x32_4_documentation_x2C__document_x2C__repository_x2C__business_x2C__office_x2C__corporation_x2C__job">
</g>
<g id="_x32_3_sprint_x2C__programming_x2C__code_x2C__business_x2C__office_x2C__corporation_x2C__job">
</g>
<g id="_x32_2_cram_x2C__tablet_x2C__work_x2C__business_x2C__office_x2C__corporation_x2C__job">
</g>
<g id="_x32_1_leader_x2C__discoverer_x2C__flag_x2C__business_x2C__office_x2C__corporation_x2C__job">
</g>
<g id="_x32_0_rally_x2C__collective_x2C__arm_x2C__business_x2C__office_x2C__corporation_x2C__job">
</g>
<g id="_x31_9_consolidation_x2C__portfolio_x2C__puzzle_x2C__business_x2C__office_x2C__corporation_x2C__job">
</g>
<g id="_x31_8_idea_x2C__creative_x2C__work_x2C__business_x2C__office_x2C__corporation_x2C__job">
</g>
<g id="_x31_7_problem_x2C__stress_x2C__resistance_x2C__business_x2C__office_x2C__corporation_x2C__job">
</g>
<g id="_x31_6_hard_x2C__skills_x2C__skill_x2C__portfolio_x2C__book_x2C__business_x2C__office">
</g>
<g id="_x31_5_time_x2C__management_x2C__clock_x2C__deadline_x2C__business_x2C__office_x2C__corporation">
</g>
<g id="_x31_4_multitasking_x2C__task_x2C__work_x2C__business_x2C__office_x2C__corporation_x2C__job">
</g>
<g id="_x31_3_tranquility_x2C__yoga_x2C__lotus_x2C__posture_x2C__business_x2C__office_x2C__corporation">
</g>
<g id="_x31_2_corporate_x2C__party_x2C__business_x2C__office_x2C__corporation_x2C__job">
</g>
<g id="_x31_1_dialog_x2C__discussion_x2C__work_x2C__business_x2C__office_x2C__corporation_x2C__job">
</g>
<g id="_x31_0_listening_x2C__skill_x2C__dialog_x2C__business_x2C__office_x2C__corporation_x2C__job">
</g>
<g id="_x39__training_x2C__book_x2C__lesson_x2C__business_x2C__office_x2C__corporation_x2C__job">
</g>
<g id="_x38__dress_x2C__code_x2C__shirt_x2C__business_x2C__office_x2C__corporation_x2C__job">
</g>
<g id="_x37__task_x2C__program_x2C__ticket_x2C__business_x2C__office_x2C__corporation_x2C__job">
</g>
<g id="_x36__plan_x2C__graph_x2C__stage_x2C__business_x2C__office_x2C__corporation_x2C__job">
</g>
<g id="_x35__boss_x2C__king_x2C__crown_x2C__business_x2C__office_x2C__corporation_x2C__job">
</g>
<g id="_x34__structure_x2C__structuring_x2C__business_x2C__office_x2C__corporation_x2C__job">
</g>
<g id="_x33__soft_x2C__skills_x2C__communication_x2C__business_x2C__office_x2C__corporation_x2C__job">
</g>
<g id="_x32__office_x2C__house_x2C__portfolio_x2C__business_x2C__corporation_x2C__job">
</g>
<g id="_x31__corporate_x2C__rules_x2C__book_x2C__business_x2C__office_x2C__corporation_x2C__job">
</g>
</svg>
