<?xml version="1.0" encoding="utf-8"?>
<!-- Generator: Adobe Illustrator 16.0.0, SVG Export Plug-In . SVG Version: 6.00 Build 0)  -->
<!DOCTYPE svg PUBLIC "-//W3C//DTD SVG 1.1//EN" "http://www.w3.org/Graphics/SVG/1.1/DTD/svg11.dtd">
<svg version="1.1" xmlns="http://www.w3.org/2000/svg" xmlns:xlink="http://www.w3.org/1999/xlink" x="0px" y="0px" width="64px"
	 height="64px" viewBox="0 0 64 64" enable-background="new 0 0 64 64" xml:space="preserve">
<g id="_x35_0_document_x2C__optimization_x2C__documentation_x2C__business_x2C__office_x2C__corporation_x2C__job">
</g>
<g id="_x34_9_human_x2C__resource_x2C__conveyor_x2C__business_x2C__office_x2C__corporation_x2C__job">
</g>
<g id="_x34_8_knowledge_x2C__training_x2C__growth_x2C__book_x2C__business_x2C__office_x2C__corporation">
</g>
<g id="_x34_7_skill_x2C__competence_x2C__experience_x2C__business_x2C__office_x2C__corporation_x2C__job">
</g>
<g id="_x34_6_target_x2C__success_x2C__victory_x2C__business_x2C__office_x2C__corporation_x2C__job">
</g>
<g id="_x34_5_inbox_x2C__letter_x2C__email_x2C__business_x2C__office_x2C__corporation_x2C__job">
</g>
<g id="_x34_4_document_x2C__workflow_x2C__sharing_x2C__business_x2C__office_x2C__corporation_x2C__job">
</g>
<g id="_x34_3_budget_x2C__allocation_x2C__money_x2C__business_x2C__office_x2C__corporation_x2C__job">
</g>
<g id="_x34_2_case_x2C__task_x2C__project_x2C__business_x2C__office_x2C__corporation_x2C__job">
</g>
<g id="_x34_1_structure_x2C__structuring_x2C__tasks_x2C__business_x2C__office_x2C__corporation_x2C__job">
</g>
<g id="_x34_0_choice_x2C__dilemma_x2C__question_x2C__business_x2C__office_x2C__corporation_x2C__job">
</g>
<g id="_x33_9_workplace_x2C__table_x2C__laptop_x2C__business_x2C__office_x2C__corporation_x2C__job">
</g>
<g id="_x33_8_bribe_x2C__bag_x2C__money_x2C__business_x2C__office_x2C__corporation_x2C__job">
</g>
<g id="_x33_7_corruption_x2C__forage_x2C__money_x2C__business_x2C__office_x2C__corporation_x2C__job">
</g>
<g id="_x33_6_career_x2C__ladder_x2C__success_x2C__business_x2C__office_x2C__corporation_x2C__job">
</g>
<g id="_x33_5_review_x2C__feedback_x2C__rating_x2C__business_x2C__office_x2C__corporation_x2C__job">
</g>
<g id="_x33_4_manipulation_x2C__thread_x2C__puppet_x2C__business_x2C__office_x2C__corporation_x2C__job">
</g>
<g id="_x33_3_location_x2C__map_x2C__pin_x2C__business_x2C__office_x2C__corporation_x2C__job">
</g>
<g id="_x33_2_retirement_x2C__old_x2C__man_x2C__door_x2C__business_x2C__office_x2C__corporation">
</g>
<g id="_x33_1_victory_x2C__success_x2C__medal_x2C__reward_x2C__business_x2C__office_x2C__corporation">
</g>
<g id="_x33_0_dismissal_x2C__box_x2C__door_x2C__business_x2C__office_x2C__corporation_x2C__job">
</g>
<g id="_x32_9_meeting_x2C__discussion_x2C__question_x2C__business_x2C__office_x2C__corporation_x2C__job">
	<g>
		<path fill="#ED5565" d="M34.999,56.329l-0.01,0.01c-0.729-0.82-1.799-1.338-2.99-1.338c-1.189-0.002-2.26,0.518-2.979,1.338
			c-2.371-1.119-4.02-3.541-4.021-6.34c0.002-0.111,0.002-0.221,0.012-0.33c4.589,1.82,9.59,1.73,13.979-0.01l-0.001,0.012
			c0.01,0.107,0.01,0.219,0.011,0.328C38.999,52.79,37.36,55.2,34.999,56.329z"/>
		<path fill="#AC92EC" d="M43.8,46.88c1.829-1.43,3.42-3.242,4.65-5.381c1.24-2.139,2.01-4.41,2.351-6.721
			c0.099,0.053,0.19,0.102,0.29,0.16c2.42,1.391,3.688,4.02,3.479,6.619l0.01,0.031c-1.079,0.209-2.07,0.881-2.66,1.91
			c-0.6,1.02-0.681,2.201-0.329,3.25c-2.16,1.5-5.079,1.709-7.5,0.309c-0.102-0.049-0.189-0.109-0.28-0.17L43.8,46.88z"/>
		<path fill="#5D9CEC" d="M50.79,29.22c-0.689-4.67-3.109-9.039-6.98-12.109c0.09-0.061,0.181-0.121,0.281-0.172
			c2.42-1.398,5.318-1.189,7.479,0.303l0.021,0.008c-0.351,1.049-0.271,2.23,0.33,3.25c0.59,1.02,1.568,1.689,2.641,1.91
			c0.219,2.621-1.051,5.25-3.471,6.65c-0.101,0.059-0.191,0.109-0.289,0.16H50.79z"/>
		<path fill="#48CFAD" d="M25,13.999c0.001-2.791,1.63-5.201,3.999-6.33l0.012-0.01c0.729,0.82,1.8,1.34,2.988,1.34
			c1.191,0,2.262-0.52,2.981-1.34c2.37,1.119,4.02,3.539,4.019,6.34c0.001,0.109,0.001,0.219-0.01,0.33
			c-4.589-1.82-9.589-1.73-13.979,0.01l0.001-0.01C24.999,14.218,24.999,14.11,25,13.999z"/>
		<path fill="#A0D468" d="M20.2,17.12c-1.83,1.428-3.42,3.238-4.66,5.377c-1.23,2.143-2,4.422-2.34,6.721
			c-0.1-0.049-0.189-0.1-0.291-0.16c-2.42-1.387-3.688-4.018-3.479-6.619l-0.01-0.029c1.08-0.211,2.07-0.881,2.661-1.91
			c0.6-1.02,0.68-2.201,0.328-3.25c2.161-1.5,5.08-1.711,7.501-0.309c0.101,0.049,0.189,0.109,0.28,0.168L20.2,17.12z"/>
		<path fill="#FFCE54" d="M12.41,46.749c0.35-1.051,0.271-2.23-0.33-3.252c-0.591-1.016-1.569-1.688-2.641-1.908
			c-0.22-2.621,1.05-5.25,3.47-6.648c0.102-0.063,0.191-0.111,0.291-0.16l0.021-0.002c0.679,4.672,3.099,9.041,6.969,12.109
			c-0.09,0.061-0.18,0.119-0.281,0.172c-2.418,1.398-5.318,1.189-7.479-0.301L12.41,46.749z"/>
		<path fill="#E6E9ED" d="M50.801,34.778c-0.341,2.311-1.11,4.582-2.351,6.721c-1.23,2.139-2.821,3.951-4.65,5.381
			c-1.471,1.168-3.09,2.102-4.81,2.779c-4.39,1.74-9.391,1.83-13.979,0.01c-0.851-0.34-1.69-0.742-2.512-1.209
			c-0.818-0.471-1.59-1.002-2.309-1.572c-3.87-3.068-6.29-7.438-6.969-12.109c-0.291-1.83-0.291-3.699-0.021-5.561
			c0.34-2.299,1.109-4.578,2.34-6.721c1.24-2.139,2.83-3.949,4.66-5.377c1.469-1.18,3.09-2.111,4.81-2.781
			c4.391-1.74,9.391-1.83,13.979-0.01c0.852,0.34,1.691,0.74,2.511,1.209s1.591,1.002,2.31,1.572
			c3.871,3.07,6.291,7.439,6.98,12.109C51.06,31.048,51.07,32.929,50.801,34.778z"/>
		<path fill="#CCD1D9" d="M50.781,29.22c-0.68-4.67-3.1-9.039-6.97-12.109c-0.72-0.57-1.49-1.1-2.31-1.57
			c-0.82-0.469-1.66-0.869-2.511-1.209c-2.919-1.158-6.003-1.537-8.991-1.217c1.685,0.178,3.364,0.57,4.991,1.217
			c0.851,0.34,1.69,0.74,2.511,1.209c0.819,0.471,1.59,1,2.31,1.57c3.87,3.07,6.29,7.439,6.97,12.109
			c0.29,1.83,0.29,3.701,0.021,5.561c-0.34,2.301-1.11,4.58-2.34,6.721c-1.24,2.139-2.83,3.949-4.66,5.379
			c-1.47,1.18-3.09,2.111-4.811,2.781c-1.598,0.633-3.277,1.041-4.988,1.225c3.067,0.322,6.154-0.102,8.988-1.225
			c1.721-0.67,3.341-1.602,4.811-2.781c1.83-1.43,3.42-3.24,4.66-5.379c1.229-2.141,2-4.42,2.34-6.721
			C51.071,32.921,51.071,31.05,50.781,29.22z"/>
		<g>
			<g>
				<path fill="#656D78" d="M32.001,39.999c-0.553,0-1-0.447-1-1c0-3.515,2.082-5.002,3.919-6.313
					c1.722-1.229,3.081-2.201,3.081-4.687c0-3.309-2.691-6-6-6s-6,2.691-6,6c0,0.553-0.447,1-1,1s-1-0.447-1-1c0-4.411,3.589-8,8-8
					s8,3.589,8,8c0,3.515-2.082,5.002-3.919,6.313c-1.722,1.229-3.081,2.201-3.081,4.687C33.001,39.552,32.554,39.999,32.001,39.999
					z"/>
			</g>
			<g>
				<path fill="#656D78" d="M32.031,44.999c-0.553,0-1.005-0.447-1.005-1s0.442-1,0.994-1h0.011c0.552,0,1,0.447,1,1
					S32.583,44.999,32.031,44.999z"/>
			</g>
		</g>
		<path fill="#EAC6BB" d="M31.999,63.499c-2.487,0-4.5-2.013-4.5-4.5c0-1.147,0.428-2.195,1.149-2.993
			c0.809-0.923,2.013-1.507,3.351-1.505c1.34,0,2.545,0.582,3.364,1.505c0.71,0.798,1.136,1.846,1.136,2.993
			C36.499,61.486,34.486,63.499,31.999,63.499z"/>
		<path fill="#EAC6BB" d="M51.118,46.904c-0.396-1.18-0.304-2.508,0.37-3.654c0.663-1.158,1.778-1.913,2.992-2.148
			c1.034-0.224,2.157-0.065,3.148,0.508c2.16,1.234,2.891,3.99,1.653,6.139c-1.247,2.148-3.99,2.891-6.152,1.643
			C52.141,48.815,51.443,47.917,51.118,46.904z"/>
		<path fill="#EAC6BB" d="M51.488,20.749c-0.677-1.146-0.766-2.477-0.371-3.656c0.325-1.013,1.021-1.914,2.013-2.487
			c2.159-1.248,4.905-0.508,6.154,1.644c1.237,2.149,0.493,4.904-1.654,6.142c-1.002,0.587-2.126,0.733-3.171,0.508
			C53.253,22.649,52.151,21.896,51.488,20.749z"/>
		<path fill="#EAC6BB" d="M28.637,7.991c-0.709-0.797-1.138-1.846-1.137-2.992c0-2.487,2.014-4.5,4.499-4.498
			c2.486-0.002,4.502,2.013,4.501,4.498c0,1.146-0.429,2.192-1.147,2.992c-0.81,0.923-2.014,1.508-3.354,1.508
			C30.662,9.499,29.457,8.914,28.637,7.991z"/>
		<path fill="#EAC6BB" d="M6.371,22.39c-2.159-1.237-2.89-3.991-1.653-6.14c1.249-2.148,3.993-2.891,6.152-1.643
			c0.99,0.573,1.687,1.474,2.012,2.486c0.396,1.179,0.306,2.508-0.369,3.654c-0.664,1.158-1.778,1.911-2.993,2.148
			C8.484,23.12,7.36,22.965,6.371,22.39z"/>
		<path fill="#EAC6BB" d="M4.719,47.748C3.48,45.6,4.212,42.846,6.371,41.606c1.002-0.584,2.124-0.729,3.171-0.505
			c1.205,0.248,2.306,1.004,2.97,2.146c0.676,1.148,0.765,2.475,0.371,3.657c-0.326,1.015-1.024,1.91-2.014,2.483
			C8.711,50.639,5.967,49.896,4.719,47.748z"/>
	</g>
</g>
<g id="_x32_8_strategy_x2C__vision_x2C__eye_x2C__chess_x2C__business_x2C__office_x2C__corporation">
</g>
<g id="_x32_7_board_x2C__task_x2C__process_x2C__business_x2C__office_x2C__corporation_x2C__job">
</g>
<g id="_x32_6_scheme_x2C__board_x2C__structure_x2C__business_x2C__office_x2C__corporation_x2C__job">
</g>
<g id="_x32_5_conflict_x2C__dialog_x2C__discussion_x2C__business_x2C__office_x2C__corporation_x2C__job">
</g>
<g id="_x32_4_documentation_x2C__document_x2C__repository_x2C__business_x2C__office_x2C__corporation_x2C__job">
</g>
<g id="_x32_3_sprint_x2C__programming_x2C__code_x2C__business_x2C__office_x2C__corporation_x2C__job">
</g>
<g id="_x32_2_cram_x2C__tablet_x2C__work_x2C__business_x2C__office_x2C__corporation_x2C__job">
</g>
<g id="_x32_1_leader_x2C__discoverer_x2C__flag_x2C__business_x2C__office_x2C__corporation_x2C__job">
</g>
<g id="_x32_0_rally_x2C__collective_x2C__arm_x2C__business_x2C__office_x2C__corporation_x2C__job">
</g>
<g id="_x31_9_consolidation_x2C__portfolio_x2C__puzzle_x2C__business_x2C__office_x2C__corporation_x2C__job">
</g>
<g id="_x31_8_idea_x2C__creative_x2C__work_x2C__business_x2C__office_x2C__corporation_x2C__job">
</g>
<g id="_x31_7_problem_x2C__stress_x2C__resistance_x2C__business_x2C__office_x2C__corporation_x2C__job">
</g>
<g id="_x31_6_hard_x2C__skills_x2C__skill_x2C__portfolio_x2C__book_x2C__business_x2C__office">
</g>
<g id="_x31_5_time_x2C__management_x2C__clock_x2C__deadline_x2C__business_x2C__office_x2C__corporation">
</g>
<g id="_x31_4_multitasking_x2C__task_x2C__work_x2C__business_x2C__office_x2C__corporation_x2C__job">
</g>
<g id="_x31_3_tranquility_x2C__yoga_x2C__lotus_x2C__posture_x2C__business_x2C__office_x2C__corporation">
</g>
<g id="_x31_2_corporate_x2C__party_x2C__business_x2C__office_x2C__corporation_x2C__job">
</g>
<g id="_x31_1_dialog_x2C__discussion_x2C__work_x2C__business_x2C__office_x2C__corporation_x2C__job">
</g>
<g id="_x31_0_listening_x2C__skill_x2C__dialog_x2C__business_x2C__office_x2C__corporation_x2C__job">
</g>
<g id="_x39__training_x2C__book_x2C__lesson_x2C__business_x2C__office_x2C__corporation_x2C__job">
</g>
<g id="_x38__dress_x2C__code_x2C__shirt_x2C__business_x2C__office_x2C__corporation_x2C__job">
</g>
<g id="_x37__task_x2C__program_x2C__ticket_x2C__business_x2C__office_x2C__corporation_x2C__job">
</g>
<g id="_x36__plan_x2C__graph_x2C__stage_x2C__business_x2C__office_x2C__corporation_x2C__job">
</g>
<g id="_x35__boss_x2C__king_x2C__crown_x2C__business_x2C__office_x2C__corporation_x2C__job">
</g>
<g id="_x34__structure_x2C__structuring_x2C__business_x2C__office_x2C__corporation_x2C__job">
</g>
<g id="_x33__soft_x2C__skills_x2C__communication_x2C__business_x2C__office_x2C__corporation_x2C__job">
</g>
<g id="_x32__office_x2C__house_x2C__portfolio_x2C__business_x2C__corporation_x2C__job">
</g>
<g id="_x31__corporate_x2C__rules_x2C__book_x2C__business_x2C__office_x2C__corporation_x2C__job">
</g>
</svg>
