<?xml version="1.0" encoding="utf-8"?>
<!-- Generator: Adobe Illustrator 16.0.0, SVG Export Plug-In . SVG Version: 6.00 Build 0)  -->
<!DOCTYPE svg PUBLIC "-//W3C//DTD SVG 1.1//EN" "http://www.w3.org/Graphics/SVG/1.1/DTD/svg11.dtd">
<svg version="1.1" xmlns="http://www.w3.org/2000/svg" xmlns:xlink="http://www.w3.org/1999/xlink" x="0px" y="0px" width="64px"
	 height="64px" viewBox="0 0 64 64" enable-background="new 0 0 64 64" xml:space="preserve">
<g id="_x35_0_document_x2C__optimization_x2C__documentation_x2C__business_x2C__office_x2C__corporation_x2C__job">
</g>
<g id="_x34_9_human_x2C__resource_x2C__conveyor_x2C__business_x2C__office_x2C__corporation_x2C__job">
</g>
<g id="_x34_8_knowledge_x2C__training_x2C__growth_x2C__book_x2C__business_x2C__office_x2C__corporation">
</g>
<g id="_x34_7_skill_x2C__competence_x2C__experience_x2C__business_x2C__office_x2C__corporation_x2C__job">
</g>
<g id="_x34_6_target_x2C__success_x2C__victory_x2C__business_x2C__office_x2C__corporation_x2C__job">
</g>
<g id="_x34_5_inbox_x2C__letter_x2C__email_x2C__business_x2C__office_x2C__corporation_x2C__job">
</g>
<g id="_x34_4_document_x2C__workflow_x2C__sharing_x2C__business_x2C__office_x2C__corporation_x2C__job">
</g>
<g id="_x34_3_budget_x2C__allocation_x2C__money_x2C__business_x2C__office_x2C__corporation_x2C__job">
</g>
<g id="_x34_2_case_x2C__task_x2C__project_x2C__business_x2C__office_x2C__corporation_x2C__job">
</g>
<g id="_x34_1_structure_x2C__structuring_x2C__tasks_x2C__business_x2C__office_x2C__corporation_x2C__job">
</g>
<g id="_x34_0_choice_x2C__dilemma_x2C__question_x2C__business_x2C__office_x2C__corporation_x2C__job">
</g>
<g id="_x33_9_workplace_x2C__table_x2C__laptop_x2C__business_x2C__office_x2C__corporation_x2C__job">
</g>
<g id="_x33_8_bribe_x2C__bag_x2C__money_x2C__business_x2C__office_x2C__corporation_x2C__job">
</g>
<g id="_x33_7_corruption_x2C__forage_x2C__money_x2C__business_x2C__office_x2C__corporation_x2C__job">
</g>
<g id="_x33_6_career_x2C__ladder_x2C__success_x2C__business_x2C__office_x2C__corporation_x2C__job">
</g>
<g id="_x33_5_review_x2C__feedback_x2C__rating_x2C__business_x2C__office_x2C__corporation_x2C__job">
</g>
<g id="_x33_4_manipulation_x2C__thread_x2C__puppet_x2C__business_x2C__office_x2C__corporation_x2C__job">
</g>
<g id="_x33_3_location_x2C__map_x2C__pin_x2C__business_x2C__office_x2C__corporation_x2C__job">
</g>
<g id="_x33_2_retirement_x2C__old_x2C__man_x2C__door_x2C__business_x2C__office_x2C__corporation">
</g>
<g id="_x33_1_victory_x2C__success_x2C__medal_x2C__reward_x2C__business_x2C__office_x2C__corporation">
</g>
<g id="_x33_0_dismissal_x2C__box_x2C__door_x2C__business_x2C__office_x2C__corporation_x2C__job">
</g>
<g id="_x32_9_meeting_x2C__discussion_x2C__question_x2C__business_x2C__office_x2C__corporation_x2C__job">
</g>
<g id="_x32_8_strategy_x2C__vision_x2C__eye_x2C__chess_x2C__business_x2C__office_x2C__corporation">
</g>
<g id="_x32_7_board_x2C__task_x2C__process_x2C__business_x2C__office_x2C__corporation_x2C__job">
</g>
<g id="_x32_6_scheme_x2C__board_x2C__structure_x2C__business_x2C__office_x2C__corporation_x2C__job">
</g>
<g id="_x32_5_conflict_x2C__dialog_x2C__discussion_x2C__business_x2C__office_x2C__corporation_x2C__job">
</g>
<g id="_x32_4_documentation_x2C__document_x2C__repository_x2C__business_x2C__office_x2C__corporation_x2C__job">
</g>
<g id="_x32_3_sprint_x2C__programming_x2C__code_x2C__business_x2C__office_x2C__corporation_x2C__job">
</g>
<g id="_x32_2_cram_x2C__tablet_x2C__work_x2C__business_x2C__office_x2C__corporation_x2C__job">
</g>
<g id="_x32_1_leader_x2C__discoverer_x2C__flag_x2C__business_x2C__office_x2C__corporation_x2C__job">
</g>
<g id="_x32_0_rally_x2C__collective_x2C__arm_x2C__business_x2C__office_x2C__corporation_x2C__job">
</g>
<g id="_x31_9_consolidation_x2C__portfolio_x2C__puzzle_x2C__business_x2C__office_x2C__corporation_x2C__job">
</g>
<g id="_x31_8_idea_x2C__creative_x2C__work_x2C__business_x2C__office_x2C__corporation_x2C__job">
</g>
<g id="_x31_7_problem_x2C__stress_x2C__resistance_x2C__business_x2C__office_x2C__corporation_x2C__job">
</g>
<g id="_x31_6_hard_x2C__skills_x2C__skill_x2C__portfolio_x2C__book_x2C__business_x2C__office">
</g>
<g id="_x31_5_time_x2C__management_x2C__clock_x2C__deadline_x2C__business_x2C__office_x2C__corporation">
</g>
<g id="_x31_4_multitasking_x2C__task_x2C__work_x2C__business_x2C__office_x2C__corporation_x2C__job">
</g>
<g id="_x31_3_tranquility_x2C__yoga_x2C__lotus_x2C__posture_x2C__business_x2C__office_x2C__corporation">
</g>
<g id="_x31_2_corporate_x2C__party_x2C__business_x2C__office_x2C__corporation_x2C__job">
</g>
<g id="_x31_1_dialog_x2C__discussion_x2C__work_x2C__business_x2C__office_x2C__corporation_x2C__job">
</g>
<g id="_x31_0_listening_x2C__skill_x2C__dialog_x2C__business_x2C__office_x2C__corporation_x2C__job">
</g>
<g id="_x39__training_x2C__book_x2C__lesson_x2C__business_x2C__office_x2C__corporation_x2C__job">
</g>
<g id="_x38__dress_x2C__code_x2C__shirt_x2C__business_x2C__office_x2C__corporation_x2C__job">
</g>
<g id="_x37__task_x2C__program_x2C__ticket_x2C__business_x2C__office_x2C__corporation_x2C__job">
</g>
<g id="_x36__plan_x2C__graph_x2C__stage_x2C__business_x2C__office_x2C__corporation_x2C__job">
</g>
<g id="_x35__boss_x2C__king_x2C__crown_x2C__business_x2C__office_x2C__corporation_x2C__job">
</g>
<g id="_x34__structure_x2C__structuring_x2C__business_x2C__office_x2C__corporation_x2C__job">
</g>
<g id="_x33__soft_x2C__skills_x2C__communication_x2C__business_x2C__office_x2C__corporation_x2C__job">
	<g>
		<g>
			<path fill="#37BC9B" d="M33.292,60.292l-0.293,0.293v-6.586c0-0.553-0.447-1-1-1s-1,0.447-1,1v6.586l-0.293-0.293
				c-0.391-0.391-1.023-0.391-1.414,0s-0.391,1.023,0,1.414l1.999,1.999c0.092,0.093,0.203,0.166,0.326,0.217
				c0.122,0.051,0.252,0.077,0.382,0.077s0.26-0.026,0.382-0.077c0.123-0.051,0.234-0.124,0.326-0.217l1.999-1.999
				c0.391-0.391,0.391-1.023,0-1.414S33.683,59.901,33.292,60.292z"/>
			<path fill="#37BC9B" d="M32.707,0.293c-0.093-0.093-0.203-0.166-0.326-0.217c-0.244-0.101-0.52-0.101-0.764,0
				c-0.123,0.051-0.233,0.124-0.326,0.217l-1.999,1.999c-0.391,0.391-0.391,1.023,0,1.414C29.487,3.902,29.743,4,29.999,4
				s0.512-0.098,0.707-0.293l0.293-0.293V10c0,0.553,0.447,1,1,1s1-0.447,1-1V3.414l0.293,0.293C33.487,3.902,33.743,4,33.999,4
				s0.512-0.098,0.707-0.293c0.391-0.391,0.391-1.023,0-1.414L32.707,0.293z"/>
			<path fill="#26B28A" d="M59.813,47.238l-0.732-2.73c-0.144-0.534-0.69-0.851-1.225-0.707c-0.533,0.143-0.851,0.691-0.707,1.225
				l0.107,0.4l-5.704-3.293c-0.478-0.277-1.09-0.111-1.366,0.366c-0.276,0.479-0.112,1.09,0.366,1.366l5.704,3.293l-0.4,0.107
				c-0.533,0.143-0.851,0.691-0.707,1.225c0.12,0.447,0.523,0.741,0.965,0.741c0.086,0,0.173-0.011,0.26-0.034l2.732-0.732
				c0.003-0.001,0.005-0.003,0.008-0.004c0.11-0.03,0.211-0.085,0.306-0.151c0.024-0.018,0.047-0.033,0.069-0.053
				c0.086-0.072,0.165-0.155,0.225-0.258c0.003-0.005,0.003-0.011,0.005-0.016c0.061-0.109,0.103-0.229,0.119-0.354
				C59.854,47.498,59.846,47.365,59.813,47.238z"/>
			<path fill="#37BC9B" d="M4.188,16.759l0.731,2.73c0.119,0.447,0.523,0.742,0.965,0.742c0.086,0,0.173-0.012,0.26-0.035
				c0.533-0.143,0.85-0.69,0.707-1.225l-0.107-0.399l5.704,3.293C12.604,21.957,12.776,22,12.946,22c0.346,0,0.682-0.18,0.867-0.5
				c0.276-0.479,0.112-1.09-0.366-1.366L7.744,16.84l0.399-0.106c0.533-0.144,0.85-0.691,0.707-1.225
				c-0.142-0.534-0.69-0.85-1.225-0.707l-2.728,0.73c-0.128,0.033-0.248,0.093-0.354,0.175c-0.095,0.073-0.17,0.164-0.232,0.264
				C4.306,15.982,4.294,15.988,4.287,16c-0.011,0.018-0.01,0.038-0.019,0.057c-0.049,0.097-0.091,0.197-0.105,0.306
				c-0.001,0.002,0,0.004,0,0.006C4.146,16.5,4.153,16.633,4.188,16.759z"/>
			<path fill="#26B28A" d="M51.053,22c0.17,0,0.342-0.043,0.499-0.134l5.705-3.294l-0.107,0.4c-0.143,0.534,0.174,1.082,0.707,1.225
				c0.087,0.023,0.174,0.035,0.26,0.035c0.441,0,0.846-0.295,0.965-0.742l0.731-2.73c0.034-0.127,0.042-0.26,0.024-0.393
				c-0.015-0.11-0.056-0.214-0.105-0.313c-0.009-0.018-0.009-0.037-0.019-0.055c-0.006-0.01-0.015-0.015-0.021-0.023
				c-0.063-0.103-0.142-0.195-0.238-0.27c-0.105-0.081-0.225-0.141-0.351-0.174l-2.73-0.731c-0.532-0.144-1.082,0.173-1.225,0.707
				s0.174,1.082,0.707,1.225l0.4,0.107l-5.704,3.293c-0.479,0.276-0.643,0.888-0.366,1.366C50.371,21.82,50.707,22,51.053,22z"/>
			<path fill="#37BC9B" d="M12.448,42.133l-5.704,3.292l0.107-0.399c0.144-0.533-0.174-1.082-0.707-1.225s-1.081,0.173-1.225,0.707
				l-0.731,2.729c-0.034,0.127-0.043,0.26-0.025,0.392c0.017,0.125,0.059,0.244,0.119,0.354c0.002,0.005,0.002,0.011,0.005,0.016
				c0.06,0.103,0.139,0.186,0.225,0.258c0.022,0.02,0.045,0.035,0.069,0.053c0.095,0.066,0.195,0.121,0.306,0.151
				c0.003,0.001,0.005,0.003,0.008,0.004l2.732,0.732c0.087,0.023,0.174,0.034,0.26,0.034c0.441,0,0.845-0.294,0.965-0.741
				c0.144-0.533-0.174-1.082-0.707-1.225l-0.4-0.107l5.704-3.292c0.479-0.276,0.643-0.888,0.366-1.366
				C13.537,42.021,12.924,41.855,12.448,42.133z"/>
		</g>
		<g>
			<circle fill="#48CFAD" cx="32" cy="32" r="22"/>
			<path fill="#37BC9B" d="M32,10c-0.675,0-1.341,0.035-2,0.095C41.213,11.105,50,20.524,50,32c0,11.475-8.787,20.894-20,21.905
				c0.659,0.06,1.325,0.095,2,0.095c12.15,0,22-9.85,22-22C54,19.849,44.15,10,32,10z"/>
			<path fill="#965353" d="M41,26v3.03L38,27c0,0-2,1-5.5,1c-3.49,0-6.5-1-6.5-1l-3,2.03V26c0-4.42,3.58-8,8-8h6v4
				C39.21,22,41,23.79,41,26z"/>
			<g>
				<path fill="#844747" d="M37,22v-4h-4v6c2.21,0,4,0.79,4,3v0.37C37.644,27.17,38,27,38,27l3,2.03V26C41,23.79,39.21,22,37,22z"/>
			</g>
			<path fill="#EAC6BB" d="M41,29.03V32c0,3.53-2.04,6.589-5,8.059c-1.2,0.601-2.56,0.94-4,0.94s-2.8-0.34-4-0.94
				c-2.95-1.46-4.98-4.5-5-8.009V32v-2.97L26,27c0,0,3.01,1,6.5,1c3.5,0,5.5-1,5.5-1L41,29.03z"/>
			<path fill="#D3B1A9" d="M38,27c0,0-0.356,0.171-1,0.37V32c0,3.53-2.04,6.589-5,8.059c-0.627,0.313-1.298,0.552-2,0.712
				c0.643,0.146,1.312,0.229,2,0.229c1.44,0,2.8-0.34,4-0.94c2.96-1.47,5-4.529,5-8.059v-2.97L38,27z"/>
			<path fill="#E6E9ED" d="M32,40.999c1.44,0,2.8-0.34,4-0.94v3.94l-2,1l-2-1l-2,1l-2-1v-3.94C29.2,40.659,30.56,40.999,32,40.999z"
				/>
			<path fill="#5D9CEC" d="M34,44.999l2-1h3c2.77,0,5,2.24,5,5v1.44c-3.45,2.25-7.58,3.56-12,3.56c-4.43,0-8.55-1.31-12-3.56v-1.44
				c0-2.76,2.24-5,5-5h3l2,1l2-1L34,44.999z"/>
			<g>
				<path fill="#4A89DC" d="M39,43.999h-3l-0.168,0.084C38.201,44.48,40,46.523,40,48.999v3.493c1.409-0.551,2.75-1.238,4-2.053
					v-1.44C44,46.239,41.77,43.999,39,43.999z"/>
			</g>
		</g>
	</g>
</g>
<g id="_x32__office_x2C__house_x2C__portfolio_x2C__business_x2C__corporation_x2C__job">
</g>
<g id="_x31__corporate_x2C__rules_x2C__book_x2C__business_x2C__office_x2C__corporation_x2C__job">
</g>
</svg>
