<?xml version="1.0" encoding="utf-8"?>
<!-- Generator: Adobe Illustrator 16.0.0, SVG Export Plug-In . SVG Version: 6.00 Build 0)  -->
<!DOCTYPE svg PUBLIC "-//W3C//DTD SVG 1.1//EN" "http://www.w3.org/Graphics/SVG/1.1/DTD/svg11.dtd">
<svg version="1.1" xmlns="http://www.w3.org/2000/svg" xmlns:xlink="http://www.w3.org/1999/xlink" x="0px" y="0px" width="64px"
	 height="64px" viewBox="0 0 64 64" enable-background="new 0 0 64 64" xml:space="preserve">
<g id="_x35_0_document_x2C__optimization_x2C__documentation_x2C__business_x2C__office_x2C__corporation_x2C__job">
</g>
<g id="_x34_9_human_x2C__resource_x2C__conveyor_x2C__business_x2C__office_x2C__corporation_x2C__job">
</g>
<g id="_x34_8_knowledge_x2C__training_x2C__growth_x2C__book_x2C__business_x2C__office_x2C__corporation">
</g>
<g id="_x34_7_skill_x2C__competence_x2C__experience_x2C__business_x2C__office_x2C__corporation_x2C__job">
</g>
<g id="_x34_6_target_x2C__success_x2C__victory_x2C__business_x2C__office_x2C__corporation_x2C__job">
</g>
<g id="_x34_5_inbox_x2C__letter_x2C__email_x2C__business_x2C__office_x2C__corporation_x2C__job">
</g>
<g id="_x34_4_document_x2C__workflow_x2C__sharing_x2C__business_x2C__office_x2C__corporation_x2C__job">
</g>
<g id="_x34_3_budget_x2C__allocation_x2C__money_x2C__business_x2C__office_x2C__corporation_x2C__job">
</g>
<g id="_x34_2_case_x2C__task_x2C__project_x2C__business_x2C__office_x2C__corporation_x2C__job">
</g>
<g id="_x34_1_structure_x2C__structuring_x2C__tasks_x2C__business_x2C__office_x2C__corporation_x2C__job">
</g>
<g id="_x34_0_choice_x2C__dilemma_x2C__question_x2C__business_x2C__office_x2C__corporation_x2C__job">
</g>
<g id="_x33_9_workplace_x2C__table_x2C__laptop_x2C__business_x2C__office_x2C__corporation_x2C__job">
</g>
<g id="_x33_8_bribe_x2C__bag_x2C__money_x2C__business_x2C__office_x2C__corporation_x2C__job">
</g>
<g id="_x33_7_corruption_x2C__forage_x2C__money_x2C__business_x2C__office_x2C__corporation_x2C__job">
</g>
<g id="_x33_6_career_x2C__ladder_x2C__success_x2C__business_x2C__office_x2C__corporation_x2C__job">
</g>
<g id="_x33_5_review_x2C__feedback_x2C__rating_x2C__business_x2C__office_x2C__corporation_x2C__job">
</g>
<g id="_x33_4_manipulation_x2C__thread_x2C__puppet_x2C__business_x2C__office_x2C__corporation_x2C__job">
</g>
<g id="_x33_3_location_x2C__map_x2C__pin_x2C__business_x2C__office_x2C__corporation_x2C__job">
</g>
<g id="_x33_2_retirement_x2C__old_x2C__man_x2C__door_x2C__business_x2C__office_x2C__corporation">
</g>
<g id="_x33_1_victory_x2C__success_x2C__medal_x2C__reward_x2C__business_x2C__office_x2C__corporation">
	<g>
		<g>
			<path fill="#EAC6BB" d="M27.973,40.56c1.199,0.601,2.559,0.94,4,0.94c1.43,0,2.799-0.34,4-0.94v2.94l-4,5l-4-5V40.56z"/>
			<path fill="#FFCE54" d="M31.973,53.5c1.66,0,3,1.34,3,3s-1.34,3-3,3s-3-1.34-3-3S30.313,53.5,31.973,53.5z"/>
			<polygon fill="#ED5565" points="39.973,43.5 31.973,53.5 29.973,51 31.973,48.5 35.973,43.5 			"/>
			<polygon fill="#DA4453" points="27.973,43.5 31.973,48.5 29.973,51 23.973,43.5 			"/>
			<path fill="#AC92EC" d="M9.973,36v0.5c0,3.87,3.129,7,7,7h7l6,7.5l2,2.5c-1.66,0-3,1.34-3,3s1.34,3,3,3s3-1.34,3-3s-1.34-3-3-3
				l8-10h7c3.869,0,7-3.13,7-7V36c0-1.38,1.119-2.5,2.5-2.5c1.379,0,2.5,1.12,2.5,2.5v0.5c0,6.63-5.371,12-12,12h-5.93h-0.07v15h-18
				v-15h-0.07h-5.93c-6.631,0-12-5.37-12-12V36c0-1.38,1.119-2.5,2.5-2.5C8.852,33.5,9.973,34.62,9.973,36z"/>
			<path fill="#965353" d="M40.973,25.5v3l-3-2.03c0,0-2.01,1-5.5,1s-6.5-1-6.5-1l-3,2.03v-3c0-4.42,3.58-8,8-8h6v4
				C39.182,21.5,40.973,23.29,40.973,25.5z"/>
			<g>
				<path fill="#844747" d="M36.973,21.5v-4h-4v6c2.209,0,4,0.79,4,3v0.34c0.643-0.199,1-0.37,1-0.37l3,2.03v-3
					C40.973,23.29,39.182,21.5,36.973,21.5z"/>
			</g>
			<path fill="#EAC6BB" d="M40.973,28.53v3.97c0,3.53-2.041,6.59-5,8.06c-1.201,0.601-2.57,0.94-4,0.94c-1.441,0-2.801-0.34-4-0.94
				c-2.961-1.47-5-4.529-5-8.06v-3.97l3-2.03c0,0,3.01,1,6.5,1s5.5-1,5.5-1L40.973,28.53z"/>
			<path fill="#EAC6BB" d="M40.973,28.53v3.97c0,3.53-2.041,6.59-5,8.06c-1.201,0.601-2.57,0.94-4,0.94c-1.441,0-2.801-0.34-4-0.94
				c-2.961-1.47-5-4.529-5-8.06v-3.97l3-2.03c0,0,3.01,1,6.5,1s5.5-1,5.5-1L40.973,28.53z"/>
			<path fill="#D3B1A9" d="M37.973,26.5c0,0-0.357,0.171-1,0.369V32.5c0,3.53-2.041,6.59-5,8.06
				c-0.627,0.313-1.299,0.551-2.002,0.711c0.643,0.147,1.313,0.229,2.002,0.229c1.43,0,2.799-0.34,4-0.94c2.959-1.47,5-4.529,5-8.06
				v-3.97L37.973,26.5z"/>
		</g>
		<path fill="#48CFAD" d="M15.68,16.793c-0.391-0.391-1.023-0.391-1.414,0l-2,2c-0.391,0.391-0.391,1.023,0,1.414l1.293,1.293
			l-1.293,1.293c-0.391,0.391-0.391,1.023,0,1.414l2,2c0.195,0.195,0.451,0.293,0.707,0.293s0.512-0.098,0.707-0.293
			c0.391-0.391,0.391-1.023,0-1.414L14.387,23.5l1.293-1.293c0.391-0.391,0.391-1.023,0-1.414L14.387,19.5l1.293-1.293
			C16.07,17.816,16.07,17.184,15.68,16.793z"/>
		<path fill="#5D9CEC" d="M50.68,4.793l-2-2c-0.391-0.391-1.023-0.391-1.414,0s-0.391,1.023,0,1.414L48.559,5.5l-1.293,1.293
			c-0.391,0.391-0.391,1.023,0,1.414L48.559,9.5l-1.293,1.293c-0.391,0.391-0.391,1.023,0,1.414l1.293,1.293l-1.293,1.293
			c-0.391,0.391-0.391,1.023,0,1.414c0.195,0.195,0.451,0.293,0.707,0.293s0.512-0.098,0.707-0.293l2-2
			c0.391-0.391,0.391-1.023,0-1.414L49.387,11.5l1.293-1.293c0.391-0.391,0.391-1.023,0-1.414L49.387,7.5l1.293-1.293
			C51.07,5.816,51.07,5.184,50.68,4.793z"/>
		<path fill="#FFCE54" d="M4.002,14.5h-0.01c-0.553,0-0.994,0.447-0.994,1s0.451,1,1.004,1s1-0.447,1-1S4.555,14.5,4.002,14.5z"/>
		<path fill="#AC92EC" d="M13.002,1.5c0-0.553-0.447-1-1-1h-0.01c-0.553,0-0.994,0.447-0.994,1s0.451,1,1.004,1
			S13.002,2.053,13.002,1.5z"/>
		<path fill="#4FC1E9" d="M60.002,3.5h-0.01c-0.553,0-0.994,0.447-0.994,1s0.451,1,1.004,1s1-0.447,1-1S60.555,3.5,60.002,3.5z"/>
		<path fill="#EC87C0" d="M48.002,28.5h-0.01c-0.553,0-0.994,0.447-0.994,1s0.451,1,1.004,1s1-0.447,1-1S48.555,28.5,48.002,28.5z"
			/>
		<path fill="#ED5565" d="M32.973,5.5v-1c0-0.553-0.447-1-1-1s-1,0.447-1,1v1c-0.553,0-1,0.447-1,1s0.447,1,1,1v1
			c0,0.553,0.447,1,1,1s1-0.447,1-1v-1c0.553,0,1-0.447,1-1S33.525,5.5,32.973,5.5z"/>
		<path fill="#A0D468" d="M57.973,21.5v-1c0-0.553-0.447-1-1-1s-1,0.447-1,1v1c-0.553,0-1,0.447-1,1s0.447,1,1,1v1
			c0,0.553,0.447,1,1,1s1-0.447,1-1v-1c0.553,0,1-0.447,1-1S58.525,21.5,57.973,21.5z"/>
	</g>
</g>
<g id="_x33_0_dismissal_x2C__box_x2C__door_x2C__business_x2C__office_x2C__corporation_x2C__job">
</g>
<g id="_x32_9_meeting_x2C__discussion_x2C__question_x2C__business_x2C__office_x2C__corporation_x2C__job">
</g>
<g id="_x32_8_strategy_x2C__vision_x2C__eye_x2C__chess_x2C__business_x2C__office_x2C__corporation">
</g>
<g id="_x32_7_board_x2C__task_x2C__process_x2C__business_x2C__office_x2C__corporation_x2C__job">
</g>
<g id="_x32_6_scheme_x2C__board_x2C__structure_x2C__business_x2C__office_x2C__corporation_x2C__job">
</g>
<g id="_x32_5_conflict_x2C__dialog_x2C__discussion_x2C__business_x2C__office_x2C__corporation_x2C__job">
</g>
<g id="_x32_4_documentation_x2C__document_x2C__repository_x2C__business_x2C__office_x2C__corporation_x2C__job">
</g>
<g id="_x32_3_sprint_x2C__programming_x2C__code_x2C__business_x2C__office_x2C__corporation_x2C__job">
</g>
<g id="_x32_2_cram_x2C__tablet_x2C__work_x2C__business_x2C__office_x2C__corporation_x2C__job">
</g>
<g id="_x32_1_leader_x2C__discoverer_x2C__flag_x2C__business_x2C__office_x2C__corporation_x2C__job">
</g>
<g id="_x32_0_rally_x2C__collective_x2C__arm_x2C__business_x2C__office_x2C__corporation_x2C__job">
</g>
<g id="_x31_9_consolidation_x2C__portfolio_x2C__puzzle_x2C__business_x2C__office_x2C__corporation_x2C__job">
</g>
<g id="_x31_8_idea_x2C__creative_x2C__work_x2C__business_x2C__office_x2C__corporation_x2C__job">
</g>
<g id="_x31_7_problem_x2C__stress_x2C__resistance_x2C__business_x2C__office_x2C__corporation_x2C__job">
</g>
<g id="_x31_6_hard_x2C__skills_x2C__skill_x2C__portfolio_x2C__book_x2C__business_x2C__office">
</g>
<g id="_x31_5_time_x2C__management_x2C__clock_x2C__deadline_x2C__business_x2C__office_x2C__corporation">
</g>
<g id="_x31_4_multitasking_x2C__task_x2C__work_x2C__business_x2C__office_x2C__corporation_x2C__job">
</g>
<g id="_x31_3_tranquility_x2C__yoga_x2C__lotus_x2C__posture_x2C__business_x2C__office_x2C__corporation">
</g>
<g id="_x31_2_corporate_x2C__party_x2C__business_x2C__office_x2C__corporation_x2C__job">
</g>
<g id="_x31_1_dialog_x2C__discussion_x2C__work_x2C__business_x2C__office_x2C__corporation_x2C__job">
</g>
<g id="_x31_0_listening_x2C__skill_x2C__dialog_x2C__business_x2C__office_x2C__corporation_x2C__job">
</g>
<g id="_x39__training_x2C__book_x2C__lesson_x2C__business_x2C__office_x2C__corporation_x2C__job">
</g>
<g id="_x38__dress_x2C__code_x2C__shirt_x2C__business_x2C__office_x2C__corporation_x2C__job">
</g>
<g id="_x37__task_x2C__program_x2C__ticket_x2C__business_x2C__office_x2C__corporation_x2C__job">
</g>
<g id="_x36__plan_x2C__graph_x2C__stage_x2C__business_x2C__office_x2C__corporation_x2C__job">
</g>
<g id="_x35__boss_x2C__king_x2C__crown_x2C__business_x2C__office_x2C__corporation_x2C__job">
</g>
<g id="_x34__structure_x2C__structuring_x2C__business_x2C__office_x2C__corporation_x2C__job">
</g>
<g id="_x33__soft_x2C__skills_x2C__communication_x2C__business_x2C__office_x2C__corporation_x2C__job">
</g>
<g id="_x32__office_x2C__house_x2C__portfolio_x2C__business_x2C__corporation_x2C__job">
</g>
<g id="_x31__corporate_x2C__rules_x2C__book_x2C__business_x2C__office_x2C__corporation_x2C__job">
</g>
</svg>
