<?xml version="1.0" encoding="utf-8"?>
<!-- Generator: Adobe Illustrator 16.0.0, SVG Export Plug-In . SVG Version: 6.00 Build 0)  -->
<!DOCTYPE svg PUBLIC "-//W3C//DTD SVG 1.1//EN" "http://www.w3.org/Graphics/SVG/1.1/DTD/svg11.dtd">
<svg version="1.1" xmlns="http://www.w3.org/2000/svg" xmlns:xlink="http://www.w3.org/1999/xlink" x="0px" y="0px" width="64px"
	 height="64px" viewBox="0 0 64 64" enable-background="new 0 0 64 64" xml:space="preserve">
<g id="_x35_0_document_x2C__optimization_x2C__documentation_x2C__business_x2C__office_x2C__corporation_x2C__job">
</g>
<g id="_x34_9_human_x2C__resource_x2C__conveyor_x2C__business_x2C__office_x2C__corporation_x2C__job">
</g>
<g id="_x34_8_knowledge_x2C__training_x2C__growth_x2C__book_x2C__business_x2C__office_x2C__corporation">
</g>
<g id="_x34_7_skill_x2C__competence_x2C__experience_x2C__business_x2C__office_x2C__corporation_x2C__job">
</g>
<g id="_x34_6_target_x2C__success_x2C__victory_x2C__business_x2C__office_x2C__corporation_x2C__job">
</g>
<g id="_x34_5_inbox_x2C__letter_x2C__email_x2C__business_x2C__office_x2C__corporation_x2C__job">
</g>
<g id="_x34_4_document_x2C__workflow_x2C__sharing_x2C__business_x2C__office_x2C__corporation_x2C__job">
</g>
<g id="_x34_3_budget_x2C__allocation_x2C__money_x2C__business_x2C__office_x2C__corporation_x2C__job">
</g>
<g id="_x34_2_case_x2C__task_x2C__project_x2C__business_x2C__office_x2C__corporation_x2C__job">
</g>
<g id="_x34_1_structure_x2C__structuring_x2C__tasks_x2C__business_x2C__office_x2C__corporation_x2C__job">
</g>
<g id="_x34_0_choice_x2C__dilemma_x2C__question_x2C__business_x2C__office_x2C__corporation_x2C__job">
</g>
<g id="_x33_9_workplace_x2C__table_x2C__laptop_x2C__business_x2C__office_x2C__corporation_x2C__job">
</g>
<g id="_x33_8_bribe_x2C__bag_x2C__money_x2C__business_x2C__office_x2C__corporation_x2C__job">
</g>
<g id="_x33_7_corruption_x2C__forage_x2C__money_x2C__business_x2C__office_x2C__corporation_x2C__job">
</g>
<g id="_x33_6_career_x2C__ladder_x2C__success_x2C__business_x2C__office_x2C__corporation_x2C__job">
</g>
<g id="_x33_5_review_x2C__feedback_x2C__rating_x2C__business_x2C__office_x2C__corporation_x2C__job">
</g>
<g id="_x33_4_manipulation_x2C__thread_x2C__puppet_x2C__business_x2C__office_x2C__corporation_x2C__job">
</g>
<g id="_x33_3_location_x2C__map_x2C__pin_x2C__business_x2C__office_x2C__corporation_x2C__job">
</g>
<g id="_x33_2_retirement_x2C__old_x2C__man_x2C__door_x2C__business_x2C__office_x2C__corporation">
	<g>
		<g>
			<path fill="#E6E9ED" d="M38,18v1c0-4.42-3.58-8-8-8V4.73C34.76,7.25,38,12.25,38,18z"/>
			<path fill="#E6E9ED" d="M8,18c0-5.75,3.24-10.75,8-13.27V11c-4.42,0-8,3.58-8,8V18z"/>
			<polygon fill="#5D9CEC" points="21,21 21,23 13,23 13,19 21,19 			"/>
			<polygon fill="#5D9CEC" points="33,19 33,23 25,23 25,21 25,19 			"/>
			<path fill="#EAC6BB" d="M21,21v-2h-8v4h8V21z M23,3c2.53,0,4.91,0.63,7,1.73V11c4.42,0,8,3.58,8,8v6c0,5.76-3.24,10.76-8,13.27
				C27.91,39.37,25.53,40,23,40s-4.91-0.63-7-1.73C11.24,35.76,8,30.76,8,25v-6c0-4.42,3.58-8,8-8V4.73C18.09,3.63,20.47,3,23,3z
				 M25,21v2h8v-4h-8V21z"/>
			<path fill="#D3B1A9" d="M32.457,11.388C33.44,13.385,34,15.626,34,18v1v6c0,5.76-3.24,10.76-8,13.27
				c-1.529,0.806-3.215,1.355-5,1.594c0.322,0.043,0.647,0.076,0.976,0.1c0.006,0,0.012,0.001,0.018,0.002
				C22.326,39.987,22.661,40,23,40c2.53,0,4.91-0.63,7-1.73c4.76-2.51,8-7.51,8-13.27v-6C38,15.438,35.673,12.425,32.457,11.388z"/>
			<path fill="#D3B1A9" d="M21.976,3.037c-0.328,0.023-0.653,0.057-0.976,0.1c1.785,0.238,3.471,0.788,5,1.594
				c1.503,0.796,2.854,1.84,4,3.076V4.73C27.91,3.63,25.53,3,23,3c-0.339,0-0.674,0.013-1.007,0.035
				C21.987,3.036,21.981,3.037,21.976,3.037z"/>
			<path fill="#D1D6DB" d="M30,4.73v3.076c0.984,1.063,1.811,2.27,2.457,3.581C35.673,12.425,38,15.438,38,19v-1
				C38,12.25,34.76,7.25,30,4.73z"/>
			<polygon fill="#87BCF4" points="16.979,23 14.979,23 16.979,19 18.979,19 			"/>
			<polygon fill="#87BCF4" points="28.999,23 26.999,23 28.999,19 30.999,19 			"/>
			<g>
				<path fill="#E6E9ED" d="M27,6.684c-0.11,0-0.224-0.019-0.333-0.058c-2.352-0.83-4.983-0.83-7.333,0
					c-0.522,0.184-1.094-0.088-1.277-0.609c-0.184-0.521,0.09-1.092,0.609-1.275c2.781-0.984,5.888-0.984,8.667,0
					c0.521,0.184,0.794,0.755,0.609,1.275C27.798,6.428,27.412,6.684,27,6.684z"/>
			</g>
			<path fill="#D1D6DB" d="M27.333,4.741c-0.858-0.304-1.749-0.503-2.651-0.619C25.132,4.306,25.573,4.506,26,4.73
				c0.685,0.362,1.332,0.782,1.948,1.242C28.104,5.465,27.84,4.92,27.333,4.741z"/>
			<g>
				<path fill="#E6E9ED" d="M26.997,9.937c-0.149,0-0.302-0.033-0.444-0.104c-2.221-1.104-4.889-1.104-7.107,0
					c-0.496,0.245-1.095,0.044-1.341-0.45c-0.245-0.494-0.044-1.095,0.45-1.341c2.775-1.381,6.109-1.382,8.889,0
					c0.494,0.246,0.696,0.847,0.45,1.341C27.719,9.733,27.365,9.937,26.997,9.937z"/>
			</g>
			<path fill="#656D78" d="M33,18h-8c-0.553,0-1,0.447-1,1v1h-2v-1c0-0.553-0.447-1-1-1h-8c-0.553,0-1,0.447-1,1v4
				c0,0.553,0.447,1,1,1h8c0.553,0,1-0.447,1-1v-1h2v1c0,0.553,0.447,1,1,1h8c0.553,0,1-0.447,1-1v-4C34,18.447,33.553,18,33,18z
				 M20,22h-6v-2h6V22z M32,22h-6v-2h6V22z"/>
		</g>
		<g>
			<path fill="#ED5565" d="M23,58v3H1v-9c0-4.42,3.58-8,8-8h14V58z"/>
			<path fill="#ED5565" d="M45,52v9H23v-3V44h14C41.42,44,45,47.58,45,52z"/>
			<path fill="#DA4453" d="M37,44h-4c4.42,0,8,3.58,8,8v9h4v-9C45,47.58,41.42,44,37,44z"/>
			<path fill="#F5F7FA" d="M30,38.27V44l-4,2l-3-1l-3,1l-4-2v-5.73C18.09,39.37,20.47,40,23,40S27.91,39.37,30,38.27z"/>
			<rect x="45" y="6" fill="#656D78" width="6" height="27"/>
			<polygon fill="#FFCE54" points="51,33 51,6 51,3 63,6 63,33 51,36 			"/>
			<path fill="#965353" d="M54,48c-1.1,0-2,0.9-2,2v11h-3V50c0-2.76,2.24-5,5-5s5,2.24,5,5v0.5c0,0.83-0.67,1.5-1.5,1.5
				S56,51.33,56,50.5V50C56,48.9,55.1,48,54,48z"/>
			<polygon fill="#F7C292" points="11,51 36,51 38,54 8,54 			"/>
			<path fill="#FFD2A6" d="M29,59c0-1.1-0.89-2-2-2h-8c-1.1,0-2,0.9-2,2c0,1.11,0.9,2,2,2H8v-7h30v7H27C28.11,61,29,60.11,29,59z"/>
			<path fill="#F7C292" d="M27,57c1.11,0,2,0.9,2,2c0,1.11-0.89,2-2,2h-8c-1.1,0-2-0.89-2-2c0-1.1,0.9-2,2-2H27z"/>
		</g>
		<g>
			<g>
				<path fill="#656D78" d="M54,22c-0.553,0-1-0.447-1-1v-3c0-0.553,0.447-1,1-1s1,0.447,1,1v3C55,21.553,54.553,22,54,22z"/>
			</g>
		</g>
	</g>
</g>
<g id="_x33_1_victory_x2C__success_x2C__medal_x2C__reward_x2C__business_x2C__office_x2C__corporation">
</g>
<g id="_x33_0_dismissal_x2C__box_x2C__door_x2C__business_x2C__office_x2C__corporation_x2C__job">
</g>
<g id="_x32_9_meeting_x2C__discussion_x2C__question_x2C__business_x2C__office_x2C__corporation_x2C__job">
</g>
<g id="_x32_8_strategy_x2C__vision_x2C__eye_x2C__chess_x2C__business_x2C__office_x2C__corporation">
</g>
<g id="_x32_7_board_x2C__task_x2C__process_x2C__business_x2C__office_x2C__corporation_x2C__job">
</g>
<g id="_x32_6_scheme_x2C__board_x2C__structure_x2C__business_x2C__office_x2C__corporation_x2C__job">
</g>
<g id="_x32_5_conflict_x2C__dialog_x2C__discussion_x2C__business_x2C__office_x2C__corporation_x2C__job">
</g>
<g id="_x32_4_documentation_x2C__document_x2C__repository_x2C__business_x2C__office_x2C__corporation_x2C__job">
</g>
<g id="_x32_3_sprint_x2C__programming_x2C__code_x2C__business_x2C__office_x2C__corporation_x2C__job">
</g>
<g id="_x32_2_cram_x2C__tablet_x2C__work_x2C__business_x2C__office_x2C__corporation_x2C__job">
</g>
<g id="_x32_1_leader_x2C__discoverer_x2C__flag_x2C__business_x2C__office_x2C__corporation_x2C__job">
</g>
<g id="_x32_0_rally_x2C__collective_x2C__arm_x2C__business_x2C__office_x2C__corporation_x2C__job">
</g>
<g id="_x31_9_consolidation_x2C__portfolio_x2C__puzzle_x2C__business_x2C__office_x2C__corporation_x2C__job">
</g>
<g id="_x31_8_idea_x2C__creative_x2C__work_x2C__business_x2C__office_x2C__corporation_x2C__job">
</g>
<g id="_x31_7_problem_x2C__stress_x2C__resistance_x2C__business_x2C__office_x2C__corporation_x2C__job">
</g>
<g id="_x31_6_hard_x2C__skills_x2C__skill_x2C__portfolio_x2C__book_x2C__business_x2C__office">
</g>
<g id="_x31_5_time_x2C__management_x2C__clock_x2C__deadline_x2C__business_x2C__office_x2C__corporation">
</g>
<g id="_x31_4_multitasking_x2C__task_x2C__work_x2C__business_x2C__office_x2C__corporation_x2C__job">
</g>
<g id="_x31_3_tranquility_x2C__yoga_x2C__lotus_x2C__posture_x2C__business_x2C__office_x2C__corporation">
</g>
<g id="_x31_2_corporate_x2C__party_x2C__business_x2C__office_x2C__corporation_x2C__job">
</g>
<g id="_x31_1_dialog_x2C__discussion_x2C__work_x2C__business_x2C__office_x2C__corporation_x2C__job">
</g>
<g id="_x31_0_listening_x2C__skill_x2C__dialog_x2C__business_x2C__office_x2C__corporation_x2C__job">
</g>
<g id="_x39__training_x2C__book_x2C__lesson_x2C__business_x2C__office_x2C__corporation_x2C__job">
</g>
<g id="_x38__dress_x2C__code_x2C__shirt_x2C__business_x2C__office_x2C__corporation_x2C__job">
</g>
<g id="_x37__task_x2C__program_x2C__ticket_x2C__business_x2C__office_x2C__corporation_x2C__job">
</g>
<g id="_x36__plan_x2C__graph_x2C__stage_x2C__business_x2C__office_x2C__corporation_x2C__job">
</g>
<g id="_x35__boss_x2C__king_x2C__crown_x2C__business_x2C__office_x2C__corporation_x2C__job">
</g>
<g id="_x34__structure_x2C__structuring_x2C__business_x2C__office_x2C__corporation_x2C__job">
</g>
<g id="_x33__soft_x2C__skills_x2C__communication_x2C__business_x2C__office_x2C__corporation_x2C__job">
</g>
<g id="_x32__office_x2C__house_x2C__portfolio_x2C__business_x2C__corporation_x2C__job">
</g>
<g id="_x31__corporate_x2C__rules_x2C__book_x2C__business_x2C__office_x2C__corporation_x2C__job">
</g>
</svg>
