<?xml version="1.0" encoding="utf-8"?>
<!-- Generator: Adobe Illustrator 16.0.0, SVG Export Plug-In . SVG Version: 6.00 Build 0)  -->
<!DOCTYPE svg PUBLIC "-//W3C//DTD SVG 1.1//EN" "http://www.w3.org/Graphics/SVG/1.1/DTD/svg11.dtd">
<svg version="1.1" xmlns="http://www.w3.org/2000/svg" xmlns:xlink="http://www.w3.org/1999/xlink" x="0px" y="0px" width="64px"
	 height="64px" viewBox="0 0 64 64" enable-background="new 0 0 64 64" xml:space="preserve">
<g id="_x35_0_document_x2C__optimization_x2C__documentation_x2C__business_x2C__office_x2C__corporation_x2C__job">
</g>
<g id="_x34_9_human_x2C__resource_x2C__conveyor_x2C__business_x2C__office_x2C__corporation_x2C__job">
</g>
<g id="_x34_8_knowledge_x2C__training_x2C__growth_x2C__book_x2C__business_x2C__office_x2C__corporation">
</g>
<g id="_x34_7_skill_x2C__competence_x2C__experience_x2C__business_x2C__office_x2C__corporation_x2C__job">
</g>
<g id="_x34_6_target_x2C__success_x2C__victory_x2C__business_x2C__office_x2C__corporation_x2C__job">
</g>
<g id="_x34_5_inbox_x2C__letter_x2C__email_x2C__business_x2C__office_x2C__corporation_x2C__job">
</g>
<g id="_x34_4_document_x2C__workflow_x2C__sharing_x2C__business_x2C__office_x2C__corporation_x2C__job">
</g>
<g id="_x34_3_budget_x2C__allocation_x2C__money_x2C__business_x2C__office_x2C__corporation_x2C__job">
</g>
<g id="_x34_2_case_x2C__task_x2C__project_x2C__business_x2C__office_x2C__corporation_x2C__job">
</g>
<g id="_x34_1_structure_x2C__structuring_x2C__tasks_x2C__business_x2C__office_x2C__corporation_x2C__job">
</g>
<g id="_x34_0_choice_x2C__dilemma_x2C__question_x2C__business_x2C__office_x2C__corporation_x2C__job">
</g>
<g id="_x33_9_workplace_x2C__table_x2C__laptop_x2C__business_x2C__office_x2C__corporation_x2C__job">
</g>
<g id="_x33_8_bribe_x2C__bag_x2C__money_x2C__business_x2C__office_x2C__corporation_x2C__job">
</g>
<g id="_x33_7_corruption_x2C__forage_x2C__money_x2C__business_x2C__office_x2C__corporation_x2C__job">
</g>
<g id="_x33_6_career_x2C__ladder_x2C__success_x2C__business_x2C__office_x2C__corporation_x2C__job">
</g>
<g id="_x33_5_review_x2C__feedback_x2C__rating_x2C__business_x2C__office_x2C__corporation_x2C__job">
	<g>
		<path fill="#ED5565" d="M63,2v26H46l-6,3v-3h-3V2H63z"/>
		<g>
			<rect x="59" y="2" fill="#DA4453" width="4" height="26"/>
		</g>
		<polygon fill="#FFCE54" points="57.5,13.35 53.75,16.94 54.64,22 50,19.61 45.37,22 46.25,16.94 42.5,13.35 47.68,12.61 50,8 
			52.32,12.61 		"/>
		<path fill="#AC92EC" d="M34,54v7c0,0.55-0.45,1-1,1H2c-0.55,0-1-0.45-1-1v-7c0-1.13,0.38-2.17,1.01-3.01C2.92,49.78,4.37,49,6,49
			h3v4c0,1.65,3.55,3,8.5,3s8.5-1.35,8.5-3v-4h3c1.63,0,3.08,0.78,3.99,1.99C33.62,51.83,34,52.87,34,54z"/>
		<g>
			<path fill="#967ADC" d="M32.99,50.99C32.08,49.78,30.63,49,29,49h-3v0.107c1.214,0.247,2.271,0.928,2.99,1.883
				C29.62,51.83,30,52.87,30,54v7c0,0.55-0.45,1-1,1h4c0.55,0,1-0.45,1-1v-7C34,52.87,33.62,51.83,32.99,50.99z"/>
		</g>
		<path fill="#EAC6BB" d="M26,49v4c0,1.65-3.55,3-8.5,3S9,54.65,9,53v-4h4v-3.83v-0.01C14.4,45.7,15.91,46,17.5,46s3.1-0.3,4.5-0.84
			v0.01V49H26z"/>
		<path fill="#EAC6BB" d="M30,27.43v6.07c0,5.31-3.32,9.86-8,11.66C20.6,45.7,19.09,46,17.5,46s-3.1-0.3-4.5-0.84
			c-4.68-1.8-8-6.351-8-11.66v-5.8l14-6.05l11,5.77V27.43z"/>
		<path fill="#D3B1A9" d="M26,25.322V33.5c0,5.31-3.32,9.86-8,11.66c-0.799,0.308-1.636,0.527-2.5,0.668
			c0.651,0.106,1.316,0.172,2,0.172c1.59,0,3.1-0.3,4.5-0.84c4.68-1.8,8-6.351,8-11.66v-6.07v-0.01L26,25.322z"/>
		<path fill="#E29F33" d="M5,33.5c0,5.31,3.32,9.86,8,11.66v0.01V49H9H6c-1.63,0-3.08,0.78-3.99,1.99L2,50.98V29l3-1.3V33.5z"/>
		<path fill="#E29F33" d="M33,29v21.98l-0.01,0.01C32.08,49.78,30.63,49,29,49h-3h-4v-3.83v-0.01c4.68-1.8,8-6.351,8-11.66v-6.07
			L33,29z"/>
		<path fill="#F6BB42" d="M33,26.5V29l-3-1.57v-0.01l-11-5.77L29.75,17C31.78,19.62,33,22.92,33,26.5z"/>
		<path fill="#FFCE54" d="M5,27.7L2,29v-2.5C2,17.94,8.94,11,17.5,11c4.98,0,9.41,2.35,12.25,6L19,21.65L5,27.7z"/>
		<path fill="#F6BB42" d="M15.521,11.141c4.146,0.541,7.78,2.712,10.229,5.859c0.33,0.426,0.63,0.875,0.915,1.335L29.75,17
			c-2.84-3.65-7.27-6-12.25-6c-0.408,0-0.81,0.03-1.21,0.062C16.032,11.084,15.775,11.108,15.521,11.141z"/>
		<path fill="#EDAB37" d="M29.75,17l-3.085,1.335C28.136,20.705,29,23.501,29,26.5v0.396l1,0.524v0.01L33,29v-2.5
			C33,22.92,31.78,19.62,29.75,17z"/>
	</g>
</g>
<g id="_x33_4_manipulation_x2C__thread_x2C__puppet_x2C__business_x2C__office_x2C__corporation_x2C__job">
</g>
<g id="_x33_3_location_x2C__map_x2C__pin_x2C__business_x2C__office_x2C__corporation_x2C__job">
</g>
<g id="_x33_2_retirement_x2C__old_x2C__man_x2C__door_x2C__business_x2C__office_x2C__corporation">
</g>
<g id="_x33_1_victory_x2C__success_x2C__medal_x2C__reward_x2C__business_x2C__office_x2C__corporation">
</g>
<g id="_x33_0_dismissal_x2C__box_x2C__door_x2C__business_x2C__office_x2C__corporation_x2C__job">
</g>
<g id="_x32_9_meeting_x2C__discussion_x2C__question_x2C__business_x2C__office_x2C__corporation_x2C__job">
</g>
<g id="_x32_8_strategy_x2C__vision_x2C__eye_x2C__chess_x2C__business_x2C__office_x2C__corporation">
</g>
<g id="_x32_7_board_x2C__task_x2C__process_x2C__business_x2C__office_x2C__corporation_x2C__job">
</g>
<g id="_x32_6_scheme_x2C__board_x2C__structure_x2C__business_x2C__office_x2C__corporation_x2C__job">
</g>
<g id="_x32_5_conflict_x2C__dialog_x2C__discussion_x2C__business_x2C__office_x2C__corporation_x2C__job">
</g>
<g id="_x32_4_documentation_x2C__document_x2C__repository_x2C__business_x2C__office_x2C__corporation_x2C__job">
</g>
<g id="_x32_3_sprint_x2C__programming_x2C__code_x2C__business_x2C__office_x2C__corporation_x2C__job">
</g>
<g id="_x32_2_cram_x2C__tablet_x2C__work_x2C__business_x2C__office_x2C__corporation_x2C__job">
</g>
<g id="_x32_1_leader_x2C__discoverer_x2C__flag_x2C__business_x2C__office_x2C__corporation_x2C__job">
</g>
<g id="_x32_0_rally_x2C__collective_x2C__arm_x2C__business_x2C__office_x2C__corporation_x2C__job">
</g>
<g id="_x31_9_consolidation_x2C__portfolio_x2C__puzzle_x2C__business_x2C__office_x2C__corporation_x2C__job">
</g>
<g id="_x31_8_idea_x2C__creative_x2C__work_x2C__business_x2C__office_x2C__corporation_x2C__job">
</g>
<g id="_x31_7_problem_x2C__stress_x2C__resistance_x2C__business_x2C__office_x2C__corporation_x2C__job">
</g>
<g id="_x31_6_hard_x2C__skills_x2C__skill_x2C__portfolio_x2C__book_x2C__business_x2C__office">
</g>
<g id="_x31_5_time_x2C__management_x2C__clock_x2C__deadline_x2C__business_x2C__office_x2C__corporation">
</g>
<g id="_x31_4_multitasking_x2C__task_x2C__work_x2C__business_x2C__office_x2C__corporation_x2C__job">
</g>
<g id="_x31_3_tranquility_x2C__yoga_x2C__lotus_x2C__posture_x2C__business_x2C__office_x2C__corporation">
</g>
<g id="_x31_2_corporate_x2C__party_x2C__business_x2C__office_x2C__corporation_x2C__job">
</g>
<g id="_x31_1_dialog_x2C__discussion_x2C__work_x2C__business_x2C__office_x2C__corporation_x2C__job">
</g>
<g id="_x31_0_listening_x2C__skill_x2C__dialog_x2C__business_x2C__office_x2C__corporation_x2C__job">
</g>
<g id="_x39__training_x2C__book_x2C__lesson_x2C__business_x2C__office_x2C__corporation_x2C__job">
</g>
<g id="_x38__dress_x2C__code_x2C__shirt_x2C__business_x2C__office_x2C__corporation_x2C__job">
</g>
<g id="_x37__task_x2C__program_x2C__ticket_x2C__business_x2C__office_x2C__corporation_x2C__job">
</g>
<g id="_x36__plan_x2C__graph_x2C__stage_x2C__business_x2C__office_x2C__corporation_x2C__job">
</g>
<g id="_x35__boss_x2C__king_x2C__crown_x2C__business_x2C__office_x2C__corporation_x2C__job">
</g>
<g id="_x34__structure_x2C__structuring_x2C__business_x2C__office_x2C__corporation_x2C__job">
</g>
<g id="_x33__soft_x2C__skills_x2C__communication_x2C__business_x2C__office_x2C__corporation_x2C__job">
</g>
<g id="_x32__office_x2C__house_x2C__portfolio_x2C__business_x2C__corporation_x2C__job">
</g>
<g id="_x31__corporate_x2C__rules_x2C__book_x2C__business_x2C__office_x2C__corporation_x2C__job">
</g>
</svg>
