<?xml version="1.0" encoding="utf-8"?>
<!-- Generator: Adobe Illustrator 16.0.0, SVG Export Plug-In . SVG Version: 6.00 Build 0)  -->
<!DOCTYPE svg PUBLIC "-//W3C//DTD SVG 1.1//EN" "http://www.w3.org/Graphics/SVG/1.1/DTD/svg11.dtd">
<svg version="1.1" xmlns="http://www.w3.org/2000/svg" xmlns:xlink="http://www.w3.org/1999/xlink" x="0px" y="0px" width="64px"
	 height="64px" viewBox="0 0 64 64" enable-background="new 0 0 64 64" xml:space="preserve">
<g id="_x35_0_document_x2C__optimization_x2C__documentation_x2C__business_x2C__office_x2C__corporation_x2C__job">
</g>
<g id="_x34_9_human_x2C__resource_x2C__conveyor_x2C__business_x2C__office_x2C__corporation_x2C__job">
</g>
<g id="_x34_8_knowledge_x2C__training_x2C__growth_x2C__book_x2C__business_x2C__office_x2C__corporation">
</g>
<g id="_x34_7_skill_x2C__competence_x2C__experience_x2C__business_x2C__office_x2C__corporation_x2C__job">
</g>
<g id="_x34_6_target_x2C__success_x2C__victory_x2C__business_x2C__office_x2C__corporation_x2C__job">
</g>
<g id="_x34_5_inbox_x2C__letter_x2C__email_x2C__business_x2C__office_x2C__corporation_x2C__job">
</g>
<g id="_x34_4_document_x2C__workflow_x2C__sharing_x2C__business_x2C__office_x2C__corporation_x2C__job">
</g>
<g id="_x34_3_budget_x2C__allocation_x2C__money_x2C__business_x2C__office_x2C__corporation_x2C__job">
</g>
<g id="_x34_2_case_x2C__task_x2C__project_x2C__business_x2C__office_x2C__corporation_x2C__job">
</g>
<g id="_x34_1_structure_x2C__structuring_x2C__tasks_x2C__business_x2C__office_x2C__corporation_x2C__job">
</g>
<g id="_x34_0_choice_x2C__dilemma_x2C__question_x2C__business_x2C__office_x2C__corporation_x2C__job">
</g>
<g id="_x33_9_workplace_x2C__table_x2C__laptop_x2C__business_x2C__office_x2C__corporation_x2C__job">
</g>
<g id="_x33_8_bribe_x2C__bag_x2C__money_x2C__business_x2C__office_x2C__corporation_x2C__job">
</g>
<g id="_x33_7_corruption_x2C__forage_x2C__money_x2C__business_x2C__office_x2C__corporation_x2C__job">
	<g>
		<polygon fill="#ED5565" points="15.5,32 48.5,32 48.5,57 42.5,63 21.5,63 15.5,57 		"/>
		<rect x="15.5" y="29" fill="#656D78" width="33" height="3"/>
		<path fill="#F6BB42" d="M36.5,20.16c-1.22,0.54-2.58,0.84-4,0.84s-2.78-0.3-4-0.84c-3.53-1.54-6-5.061-6-9.16v4
			c0,4.1,2.47,7.62,6,9.16c1.22,0.54,2.58,0.84,4,0.84s2.78-0.3,4-0.84c3.53-1.54,6-5.061,6-9.16v-4
			C42.5,15.1,40.03,18.62,36.5,20.16z"/>
		<path fill="#FFCE54" d="M42.5,11c0,4.1-2.47,7.62-6,9.16c-1.22,0.54-2.58,0.84-4,0.84s-2.78-0.3-4-0.84c-3.53-1.54-6-5.061-6-9.16
			c0-5.52,4.48-10,10-10S42.5,5.48,42.5,11z"/>
		<g>
			<path fill="#EDAB37" d="M32.5,15c-0.553,0-1-0.447-1-1V8c0-0.553,0.447-1,1-1s1,0.447,1,1v6C33.5,14.553,33.053,15,32.5,15z"/>
		</g>
		<g>
			<path fill="#656D78" d="M16.793,17.293L16.5,17.586V7c0-0.553-0.447-1-1-1s-1,0.447-1,1v10.586l-0.293-0.293
				c-0.391-0.391-1.023-0.391-1.414,0s-0.391,1.023,0,1.414l1.999,1.999c0.092,0.093,0.203,0.166,0.326,0.217
				C15.24,20.974,15.37,21,15.5,21s0.26-0.026,0.382-0.077c0.123-0.051,0.234-0.124,0.326-0.217l1.999-1.999
				c0.391-0.391,0.391-1.023,0-1.414S17.184,16.902,16.793,17.293z"/>
			<path fill="#656D78" d="M51.207,17.293c-0.391-0.391-1.023-0.391-1.414,0L49.5,17.586V7c0-0.553-0.447-1-1-1s-1,0.447-1,1v10.586
				l-0.293-0.293c-0.391-0.391-1.023-0.391-1.414,0s-0.391,1.023,0,1.414l1.999,1.999c0.092,0.093,0.203,0.166,0.326,0.217
				C48.24,20.974,48.37,21,48.5,21s0.26-0.026,0.382-0.077c0.123-0.051,0.234-0.124,0.326-0.217l1.999-1.999
				C51.598,18.316,51.598,17.684,51.207,17.293z"/>
		</g>
		<g>
			<path fill="#DA4453" d="M19.5,39c0.553,0,1-0.447,1-1v-3c0-0.553-0.447-1-1-1s-1,0.447-1,1v3C18.5,38.553,18.947,39,19.5,39z"/>
			<path fill="#DA4453" d="M19.5,45c0.553,0,1-0.447,1-1v-3c0-0.553-0.447-1-1-1s-1,0.447-1,1v3C18.5,44.553,18.947,45,19.5,45z"/>
			<path fill="#DA4453" d="M19.5,51c0.553,0,1-0.447,1-1v-3c0-0.553-0.447-1-1-1s-1,0.447-1,1v3C18.5,50.553,18.947,51,19.5,51z"/>
			<path fill="#DA4453" d="M22.207,56.293L20.5,54.585V53c0-0.553-0.447-1-1-1s-1,0.447-1,1v1.999c0,0.265,0.105,0.52,0.293,0.707
				l2,2.001C20.988,57.902,21.244,58,21.5,58s0.512-0.098,0.707-0.293C22.598,57.316,22.598,56.684,22.207,56.293z"/>
			<path fill="#DA4453" d="M27.5,59h-2.586l-0.707-0.708c-0.391-0.391-1.023-0.391-1.414,0c-0.391,0.39-0.391,1.023,0,1.414l0.999,1
				c0.092,0.093,0.203,0.166,0.326,0.217C24.24,60.974,24.37,61,24.5,61h3c0.553,0,1-0.447,1-1S28.053,59,27.5,59z"/>
			<path fill="#DA4453" d="M33.5,59h-3c-0.553,0-1,0.447-1,1s0.447,1,1,1h3c0.553,0,1-0.447,1-1S34.053,59,33.5,59z"/>
			<path fill="#DA4453" d="M44.5,34c-0.553,0-1,0.447-1,1v3c0,0.553,0.447,1,1,1s1-0.447,1-1v-3C45.5,34.447,45.053,34,44.5,34z"/>
			<path fill="#DA4453" d="M44.5,40c-0.553,0-1,0.447-1,1v3c0,0.553,0.447,1,1,1s1-0.447,1-1v-3C45.5,40.447,45.053,40,44.5,40z"/>
			<path fill="#DA4453" d="M44.5,46c-0.553,0-1,0.447-1,1v3c0,0.553,0.447,1,1,1s1-0.447,1-1v-3C45.5,46.447,45.053,46,44.5,46z"/>
			<path fill="#DA4453" d="M44.5,52c-0.553,0-1,0.447-1,1v1.585l-1.707,1.708c-0.391,0.391-0.391,1.023,0,1.414
				C41.988,57.902,42.244,58,42.5,58s0.512-0.098,0.707-0.293l2-2.001c0.188-0.188,0.293-0.442,0.293-0.707V53
				C45.5,52.447,45.053,52,44.5,52z"/>
			<path fill="#DA4453" d="M39.793,58.292L39.086,59H36.5c-0.553,0-1,0.447-1,1s0.447,1,1,1h3c0.13,0,0.26-0.026,0.382-0.077
				c0.123-0.051,0.234-0.124,0.326-0.217l0.999-1c0.391-0.391,0.391-1.024,0-1.414C40.816,57.901,40.184,57.901,39.793,58.292z"/>
		</g>
		<path fill="#EDAB37" d="M27.5,19.647v4c0.323,0.188,0.655,0.362,1,0.513c0.323,0.144,0.658,0.267,1,0.375v-4
			c-0.342-0.108-0.677-0.231-1-0.375C28.155,20.01,27.823,19.835,27.5,19.647z"/>
		<path fill="#EDAB37" d="M35.5,20.535v4c0.342-0.108,0.677-0.231,1-0.375c0.345-0.15,0.677-0.325,1-0.513v-4
			c-0.323,0.188-0.655,0.362-1,0.513C36.177,20.304,35.842,20.427,35.5,20.535z"/>
	</g>
</g>
<g id="_x33_6_career_x2C__ladder_x2C__success_x2C__business_x2C__office_x2C__corporation_x2C__job">
</g>
<g id="_x33_5_review_x2C__feedback_x2C__rating_x2C__business_x2C__office_x2C__corporation_x2C__job">
</g>
<g id="_x33_4_manipulation_x2C__thread_x2C__puppet_x2C__business_x2C__office_x2C__corporation_x2C__job">
</g>
<g id="_x33_3_location_x2C__map_x2C__pin_x2C__business_x2C__office_x2C__corporation_x2C__job">
</g>
<g id="_x33_2_retirement_x2C__old_x2C__man_x2C__door_x2C__business_x2C__office_x2C__corporation">
</g>
<g id="_x33_1_victory_x2C__success_x2C__medal_x2C__reward_x2C__business_x2C__office_x2C__corporation">
</g>
<g id="_x33_0_dismissal_x2C__box_x2C__door_x2C__business_x2C__office_x2C__corporation_x2C__job">
</g>
<g id="_x32_9_meeting_x2C__discussion_x2C__question_x2C__business_x2C__office_x2C__corporation_x2C__job">
</g>
<g id="_x32_8_strategy_x2C__vision_x2C__eye_x2C__chess_x2C__business_x2C__office_x2C__corporation">
</g>
<g id="_x32_7_board_x2C__task_x2C__process_x2C__business_x2C__office_x2C__corporation_x2C__job">
</g>
<g id="_x32_6_scheme_x2C__board_x2C__structure_x2C__business_x2C__office_x2C__corporation_x2C__job">
</g>
<g id="_x32_5_conflict_x2C__dialog_x2C__discussion_x2C__business_x2C__office_x2C__corporation_x2C__job">
</g>
<g id="_x32_4_documentation_x2C__document_x2C__repository_x2C__business_x2C__office_x2C__corporation_x2C__job">
</g>
<g id="_x32_3_sprint_x2C__programming_x2C__code_x2C__business_x2C__office_x2C__corporation_x2C__job">
</g>
<g id="_x32_2_cram_x2C__tablet_x2C__work_x2C__business_x2C__office_x2C__corporation_x2C__job">
</g>
<g id="_x32_1_leader_x2C__discoverer_x2C__flag_x2C__business_x2C__office_x2C__corporation_x2C__job">
</g>
<g id="_x32_0_rally_x2C__collective_x2C__arm_x2C__business_x2C__office_x2C__corporation_x2C__job">
</g>
<g id="_x31_9_consolidation_x2C__portfolio_x2C__puzzle_x2C__business_x2C__office_x2C__corporation_x2C__job">
</g>
<g id="_x31_8_idea_x2C__creative_x2C__work_x2C__business_x2C__office_x2C__corporation_x2C__job">
</g>
<g id="_x31_7_problem_x2C__stress_x2C__resistance_x2C__business_x2C__office_x2C__corporation_x2C__job">
</g>
<g id="_x31_6_hard_x2C__skills_x2C__skill_x2C__portfolio_x2C__book_x2C__business_x2C__office">
</g>
<g id="_x31_5_time_x2C__management_x2C__clock_x2C__deadline_x2C__business_x2C__office_x2C__corporation">
</g>
<g id="_x31_4_multitasking_x2C__task_x2C__work_x2C__business_x2C__office_x2C__corporation_x2C__job">
</g>
<g id="_x31_3_tranquility_x2C__yoga_x2C__lotus_x2C__posture_x2C__business_x2C__office_x2C__corporation">
</g>
<g id="_x31_2_corporate_x2C__party_x2C__business_x2C__office_x2C__corporation_x2C__job">
</g>
<g id="_x31_1_dialog_x2C__discussion_x2C__work_x2C__business_x2C__office_x2C__corporation_x2C__job">
</g>
<g id="_x31_0_listening_x2C__skill_x2C__dialog_x2C__business_x2C__office_x2C__corporation_x2C__job">
</g>
<g id="_x39__training_x2C__book_x2C__lesson_x2C__business_x2C__office_x2C__corporation_x2C__job">
</g>
<g id="_x38__dress_x2C__code_x2C__shirt_x2C__business_x2C__office_x2C__corporation_x2C__job">
</g>
<g id="_x37__task_x2C__program_x2C__ticket_x2C__business_x2C__office_x2C__corporation_x2C__job">
</g>
<g id="_x36__plan_x2C__graph_x2C__stage_x2C__business_x2C__office_x2C__corporation_x2C__job">
</g>
<g id="_x35__boss_x2C__king_x2C__crown_x2C__business_x2C__office_x2C__corporation_x2C__job">
</g>
<g id="_x34__structure_x2C__structuring_x2C__business_x2C__office_x2C__corporation_x2C__job">
</g>
<g id="_x33__soft_x2C__skills_x2C__communication_x2C__business_x2C__office_x2C__corporation_x2C__job">
</g>
<g id="_x32__office_x2C__house_x2C__portfolio_x2C__business_x2C__corporation_x2C__job">
</g>
<g id="_x31__corporate_x2C__rules_x2C__book_x2C__business_x2C__office_x2C__corporation_x2C__job">
</g>
</svg>
