<?xml version="1.0" encoding="utf-8"?>
<!-- Generator: Adobe Illustrator 16.0.0, SVG Export Plug-In . SVG Version: 6.00 Build 0)  -->
<!DOCTYPE svg PUBLIC "-//W3C//DTD SVG 1.1//EN" "http://www.w3.org/Graphics/SVG/1.1/DTD/svg11.dtd">
<svg version="1.1" xmlns="http://www.w3.org/2000/svg" xmlns:xlink="http://www.w3.org/1999/xlink" x="0px" y="0px" width="64px"
	 height="64px" viewBox="0 0 64 64" enable-background="new 0 0 64 64" xml:space="preserve">
<g id="_x35_0_document_x2C__optimization_x2C__documentation_x2C__business_x2C__office_x2C__corporation_x2C__job">
</g>
<g id="_x34_9_human_x2C__resource_x2C__conveyor_x2C__business_x2C__office_x2C__corporation_x2C__job">
</g>
<g id="_x34_8_knowledge_x2C__training_x2C__growth_x2C__book_x2C__business_x2C__office_x2C__corporation">
</g>
<g id="_x34_7_skill_x2C__competence_x2C__experience_x2C__business_x2C__office_x2C__corporation_x2C__job">
</g>
<g id="_x34_6_target_x2C__success_x2C__victory_x2C__business_x2C__office_x2C__corporation_x2C__job">
</g>
<g id="_x34_5_inbox_x2C__letter_x2C__email_x2C__business_x2C__office_x2C__corporation_x2C__job">
</g>
<g id="_x34_4_document_x2C__workflow_x2C__sharing_x2C__business_x2C__office_x2C__corporation_x2C__job">
</g>
<g id="_x34_3_budget_x2C__allocation_x2C__money_x2C__business_x2C__office_x2C__corporation_x2C__job">
</g>
<g id="_x34_2_case_x2C__task_x2C__project_x2C__business_x2C__office_x2C__corporation_x2C__job">
</g>
<g id="_x34_1_structure_x2C__structuring_x2C__tasks_x2C__business_x2C__office_x2C__corporation_x2C__job">
</g>
<g id="_x34_0_choice_x2C__dilemma_x2C__question_x2C__business_x2C__office_x2C__corporation_x2C__job">
</g>
<g id="_x33_9_workplace_x2C__table_x2C__laptop_x2C__business_x2C__office_x2C__corporation_x2C__job">
</g>
<g id="_x33_8_bribe_x2C__bag_x2C__money_x2C__business_x2C__office_x2C__corporation_x2C__job">
	<g>
		<path fill="#ED5565" d="M29.42,30.84C35.06,34.93,39,40.44,39,47c0,8.83-7.16,16-16,16S7,55.83,7,47c0-6.56,3.94-11.91,9.58-16
			L29.42,30.84z"/>
		<g>
			<path fill="#DA4453" d="M29.42,30.84l-3.935,0.049C31.089,34.974,35,40.466,35,47c0,8.152-6.107,14.875-14,15.861
				C21.656,62.944,22.321,63,23,63c8.84,0,16-7.17,16-16C39,40.44,35.06,34.93,29.42,30.84z"/>
		</g>
		<path fill="#ED5565" d="M30,47c0-3.87-3.13-7-7-7s-7,3.13-7,7c0,3.851,3.13,7,7,7S30,50.851,30,47z"/>
		<path fill="#ED5565" d="M28,6l-2,5h-6l-2-5c0,0,3-1,5,0S28,6,28,6z"/>
		<polygon fill="#E6E9ED" points="58,23 58,36 55,36 55,35 55,24 55,23 		"/>
		<path fill="#EAC6BB" d="M55,24v11h-7c-3.32,0-6-2.689-6-6V18.5v-15C42,2.11,43.12,1,44.5,1c1.21,0,2.21,0.851,2.45,1.99L52,23
			c0,0.55,0.45,1,1,1H55z"/>
		<path fill="#FFCE54" d="M23,40c3.87,0,7,3.13,7,7c0,3.851-3.13,7-7,7s-7-3.149-7-7C16,43.13,19.13,40,23,40z"/>
		<path fill="#F6BB42" d="M23,40c-0.695,0-1.366,0.104-2,0.293c2.893,0.859,5,3.532,5,6.707c0,3.158-2.107,5.842-5,6.705
			C21.634,53.895,22.305,54,23,54c3.87,0,7-3.149,7-7C30,43.13,26.87,40,23,40z"/>
		<polygon fill="#E6E9ED" points="9,28 9,29 6,29 6,16 9,16 9,17 		"/>
		<path fill="#EAC6BB" d="M28.5,11c1.38,0,2.5,1.11,2.5,2.49s-1.12,2.5-2.5,2.5V16c1.38,0,2.5,1.11,2.5,2.49s-1.12,2.5-2.5,2.5V21
			c1.38,0,2.5,1.11,2.5,2.49s-1.12,2.5-2.5,2.5V26c1.38,0,2.5,1.11,2.5,2.49c0,1.08-0.68,2-1.64,2.35
			c-0.271,0.101-0.561,0.15-0.86,0.15V31H16.58H16l-5-3H9V17h2l6-6h3h6H28.5z"/>
		<rect x="1" y="14" fill="#656D78" width="5" height="17"/>
		<rect x="58" y="21" fill="#656D78" width="5" height="17"/>
		<path fill="#E2B6AC" d="M48,18.5c0-2.206-1.794-4-4-4c-0.731,0-1.409,0.212-2,0.557V18.5c0-1.103,0.897-2,2-2s2,0.897,2,2V25
			c0,0.553,0.447,1,1,1s1-0.447,1-1V18.5z"/>
		<g>
			<path fill="#EDAB37" d="M23,50c-0.553,0-1-0.447-1-1v-4c0-0.553,0.447-1,1-1s1,0.447,1,1v4C24,49.553,23.553,50,23,50z"/>
		</g>
		<path fill="#E2B6AC" d="M30.48,15H28.5c-0.552,0-0.999,0.447-0.999,0.999s0.447,0.999,0.999,0.999h1.992
			C30.035,16.395,29.316,16,28.5,16v-0.01C29.311,15.99,30.023,15.598,30.48,15z"/>
		<path fill="#E2B6AC" d="M30.48,20.001H28.5c-0.552,0-0.999,0.447-0.999,0.999s0.447,0.999,0.999,0.999h1.992
			c-0.457-0.604-1.176-0.998-1.992-0.998v-0.01C29.311,20.991,30.023,20.599,30.48,20.001z"/>
		<path fill="#E2B6AC" d="M30.48,25.002H28.5c-0.552,0-0.999,0.447-0.999,0.999S27.948,27,28.5,27h1.992
			c-0.457-0.604-1.176-0.998-1.992-0.998v-0.01C29.311,25.992,30.023,25.6,30.48,25.002z"/>
	</g>
</g>
<g id="_x33_7_corruption_x2C__forage_x2C__money_x2C__business_x2C__office_x2C__corporation_x2C__job">
</g>
<g id="_x33_6_career_x2C__ladder_x2C__success_x2C__business_x2C__office_x2C__corporation_x2C__job">
</g>
<g id="_x33_5_review_x2C__feedback_x2C__rating_x2C__business_x2C__office_x2C__corporation_x2C__job">
</g>
<g id="_x33_4_manipulation_x2C__thread_x2C__puppet_x2C__business_x2C__office_x2C__corporation_x2C__job">
</g>
<g id="_x33_3_location_x2C__map_x2C__pin_x2C__business_x2C__office_x2C__corporation_x2C__job">
</g>
<g id="_x33_2_retirement_x2C__old_x2C__man_x2C__door_x2C__business_x2C__office_x2C__corporation">
</g>
<g id="_x33_1_victory_x2C__success_x2C__medal_x2C__reward_x2C__business_x2C__office_x2C__corporation">
</g>
<g id="_x33_0_dismissal_x2C__box_x2C__door_x2C__business_x2C__office_x2C__corporation_x2C__job">
</g>
<g id="_x32_9_meeting_x2C__discussion_x2C__question_x2C__business_x2C__office_x2C__corporation_x2C__job">
</g>
<g id="_x32_8_strategy_x2C__vision_x2C__eye_x2C__chess_x2C__business_x2C__office_x2C__corporation">
</g>
<g id="_x32_7_board_x2C__task_x2C__process_x2C__business_x2C__office_x2C__corporation_x2C__job">
</g>
<g id="_x32_6_scheme_x2C__board_x2C__structure_x2C__business_x2C__office_x2C__corporation_x2C__job">
</g>
<g id="_x32_5_conflict_x2C__dialog_x2C__discussion_x2C__business_x2C__office_x2C__corporation_x2C__job">
</g>
<g id="_x32_4_documentation_x2C__document_x2C__repository_x2C__business_x2C__office_x2C__corporation_x2C__job">
</g>
<g id="_x32_3_sprint_x2C__programming_x2C__code_x2C__business_x2C__office_x2C__corporation_x2C__job">
</g>
<g id="_x32_2_cram_x2C__tablet_x2C__work_x2C__business_x2C__office_x2C__corporation_x2C__job">
</g>
<g id="_x32_1_leader_x2C__discoverer_x2C__flag_x2C__business_x2C__office_x2C__corporation_x2C__job">
</g>
<g id="_x32_0_rally_x2C__collective_x2C__arm_x2C__business_x2C__office_x2C__corporation_x2C__job">
</g>
<g id="_x31_9_consolidation_x2C__portfolio_x2C__puzzle_x2C__business_x2C__office_x2C__corporation_x2C__job">
</g>
<g id="_x31_8_idea_x2C__creative_x2C__work_x2C__business_x2C__office_x2C__corporation_x2C__job">
</g>
<g id="_x31_7_problem_x2C__stress_x2C__resistance_x2C__business_x2C__office_x2C__corporation_x2C__job">
</g>
<g id="_x31_6_hard_x2C__skills_x2C__skill_x2C__portfolio_x2C__book_x2C__business_x2C__office">
</g>
<g id="_x31_5_time_x2C__management_x2C__clock_x2C__deadline_x2C__business_x2C__office_x2C__corporation">
</g>
<g id="_x31_4_multitasking_x2C__task_x2C__work_x2C__business_x2C__office_x2C__corporation_x2C__job">
</g>
<g id="_x31_3_tranquility_x2C__yoga_x2C__lotus_x2C__posture_x2C__business_x2C__office_x2C__corporation">
</g>
<g id="_x31_2_corporate_x2C__party_x2C__business_x2C__office_x2C__corporation_x2C__job">
</g>
<g id="_x31_1_dialog_x2C__discussion_x2C__work_x2C__business_x2C__office_x2C__corporation_x2C__job">
</g>
<g id="_x31_0_listening_x2C__skill_x2C__dialog_x2C__business_x2C__office_x2C__corporation_x2C__job">
</g>
<g id="_x39__training_x2C__book_x2C__lesson_x2C__business_x2C__office_x2C__corporation_x2C__job">
</g>
<g id="_x38__dress_x2C__code_x2C__shirt_x2C__business_x2C__office_x2C__corporation_x2C__job">
</g>
<g id="_x37__task_x2C__program_x2C__ticket_x2C__business_x2C__office_x2C__corporation_x2C__job">
</g>
<g id="_x36__plan_x2C__graph_x2C__stage_x2C__business_x2C__office_x2C__corporation_x2C__job">
</g>
<g id="_x35__boss_x2C__king_x2C__crown_x2C__business_x2C__office_x2C__corporation_x2C__job">
</g>
<g id="_x34__structure_x2C__structuring_x2C__business_x2C__office_x2C__corporation_x2C__job">
</g>
<g id="_x33__soft_x2C__skills_x2C__communication_x2C__business_x2C__office_x2C__corporation_x2C__job">
</g>
<g id="_x32__office_x2C__house_x2C__portfolio_x2C__business_x2C__corporation_x2C__job">
</g>
<g id="_x31__corporate_x2C__rules_x2C__book_x2C__business_x2C__office_x2C__corporation_x2C__job">
</g>
</svg>
