<?xml version="1.0" encoding="utf-8"?>
<!-- Generator: Adobe Illustrator 16.0.0, SVG Export Plug-In . SVG Version: 6.00 Build 0)  -->
<!DOCTYPE svg PUBLIC "-//W3C//DTD SVG 1.1//EN" "http://www.w3.org/Graphics/SVG/1.1/DTD/svg11.dtd">
<svg version="1.1" xmlns="http://www.w3.org/2000/svg" xmlns:xlink="http://www.w3.org/1999/xlink" x="0px" y="0px" width="64px"
	 height="64px" viewBox="0 0 64 64" enable-background="new 0 0 64 64" xml:space="preserve">
<g id="_x35_0_document_x2C__optimization_x2C__documentation_x2C__business_x2C__office_x2C__corporation_x2C__job">
</g>
<g id="_x34_9_human_x2C__resource_x2C__conveyor_x2C__business_x2C__office_x2C__corporation_x2C__job">
</g>
<g id="_x34_8_knowledge_x2C__training_x2C__growth_x2C__book_x2C__business_x2C__office_x2C__corporation">
</g>
<g id="_x34_7_skill_x2C__competence_x2C__experience_x2C__business_x2C__office_x2C__corporation_x2C__job">
</g>
<g id="_x34_6_target_x2C__success_x2C__victory_x2C__business_x2C__office_x2C__corporation_x2C__job">
</g>
<g id="_x34_5_inbox_x2C__letter_x2C__email_x2C__business_x2C__office_x2C__corporation_x2C__job">
</g>
<g id="_x34_4_document_x2C__workflow_x2C__sharing_x2C__business_x2C__office_x2C__corporation_x2C__job">
</g>
<g id="_x34_3_budget_x2C__allocation_x2C__money_x2C__business_x2C__office_x2C__corporation_x2C__job">
</g>
<g id="_x34_2_case_x2C__task_x2C__project_x2C__business_x2C__office_x2C__corporation_x2C__job">
</g>
<g id="_x34_1_structure_x2C__structuring_x2C__tasks_x2C__business_x2C__office_x2C__corporation_x2C__job">
</g>
<g id="_x34_0_choice_x2C__dilemma_x2C__question_x2C__business_x2C__office_x2C__corporation_x2C__job">
</g>
<g id="_x33_9_workplace_x2C__table_x2C__laptop_x2C__business_x2C__office_x2C__corporation_x2C__job">
	<g>
		<path fill="#5D9CEC" d="M36,5v15H10V5c0-1.1,0.9-2,2-2h22C35.1,3,36,3.9,36,5z"/>
		<path fill="#CCD1D9" d="M36,21c-0.553,0-1-0.447-1-1V5c0-0.552-0.448-1-1-1H12c-0.552,0-1,0.448-1,1v15c0,0.553-0.447,1-1,1
			s-1-0.447-1-1V5c0-1.654,1.346-3,3-3h22c1.654,0,3,1.346,3,3v15C37,20.553,36.553,21,36,21z"/>
		<path fill="#4A89DC" d="M36,5c0-1.1-0.9-2-2-2h-1.78C32.699,3.532,33,4.229,33,5v15h2h1V5z"/>
		<path fill="#CCD1D9" d="M36,21c-0.553,0-1-0.447-1-1V5c0-0.552-0.448-1-1-1H12c-0.552,0-1,0.448-1,1v15c0,0.553-0.447,1-1,1
			s-1-0.447-1-1V5c0-1.654,1.346-3,3-3h22c1.654,0,3,1.346,3,3v15C37,20.553,36.553,21,36,21z"/>
		<path fill="#AAB2BD" d="M34,2h-4c1.302,0,2.401,0.839,2.815,2H34c0.552,0,1,0.448,1,1v15c0,0.553,0.447,1,1,1s1-0.447,1-1V5
			C37,3.346,35.654,2,34,2z"/>
		<rect x="54" y="4" fill="#656D78" width="8" height="19"/>
		<rect x="45" y="4" fill="#656D78" width="8" height="19"/>
		<path fill="#E6E9ED" d="M39,20v1c0,1.11-0.89,2-2,2H9c-1.11,0-2-0.89-2-2v-1h3h26H39z"/>
		<path fill="#CCD1D9" d="M36,20h-1v1c0,1.11-0.89,2-2,2h4c1.11,0,2-0.89,2-2v-1H36z"/>
		<rect x="9" y="47" fill="#656D78" width="10" height="3"/>
		<rect x="15" y="47" fill="#434A54" width="4" height="3"/>
		<rect x="9" y="50" fill="#CCD1D9" width="10" height="12"/>
		<rect x="15" y="50" fill="#AAB2BD" width="4" height="12"/>
		<polygon fill="#F7C292" points="43,28 43,39 43,51 43,62 61,62 61,51 61,39 61,28 		"/>
		<rect x="57" y="28" fill="#EAB081" width="4" height="34"/>
		<polygon fill="#FFD2A6" points="63,24 63,28 61,28 43,28 7,28 3,28 1,28 1,24 		"/>
		<polygon fill="#F7C292" points="59,24 59,28 61,28 63,28 63,24 		"/>
		<rect x="3" y="28" fill="#F7C292" width="4" height="34"/>
		<polygon fill="#EAB081" points="61,38 43,38 43,39 43,40 61,40 61,39 		"/>
		<polygon fill="#EAB081" points="61,50 43,50 43,51 43,52 61,52 61,51 		"/>
		<path fill="#E6E9ED" d="M54,43c-0.553,0-1,0.447-1,1h-2c0-0.553-0.447-1-1-1s-1,0.447-1,1v1c0,0.553,0.447,1,1,1h4
			c0.553,0,1-0.447,1-1v-1C55,43.447,54.553,43,54,43z"/>
		<path fill="#E6E9ED" d="M54,31c-0.553,0-1,0.447-1,1h-2c0-0.553-0.447-1-1-1s-1,0.447-1,1v1c0,0.553,0.447,1,1,1h4
			c0.553,0,1-0.447,1-1v-1C55,31.447,54.553,31,54,31z"/>
		<path fill="#E6E9ED" d="M54,55c-0.553,0-1,0.447-1,1h-2c0-0.553-0.447-1-1-1s-1,0.447-1,1v1c0,0.553,0.447,1,1,1h4
			c0.553,0,1-0.447,1-1v-1C55,55.447,54.553,55,54,55z"/>
		<g>
			<path fill="#434A54" d="M49,19c-0.553,0-1-0.447-1-1V9c0-0.553,0.447-1,1-1s1,0.447,1,1v9C50,18.553,49.553,19,49,19z"/>
		</g>
		<g>
			<path fill="#434A54" d="M58,19c-0.553,0-1-0.447-1-1V9c0-0.553,0.447-1,1-1s1,0.447,1,1v9C59,18.553,58.553,19,58,19z"/>
		</g>
	</g>
</g>
<g id="_x33_8_bribe_x2C__bag_x2C__money_x2C__business_x2C__office_x2C__corporation_x2C__job">
</g>
<g id="_x33_7_corruption_x2C__forage_x2C__money_x2C__business_x2C__office_x2C__corporation_x2C__job">
</g>
<g id="_x33_6_career_x2C__ladder_x2C__success_x2C__business_x2C__office_x2C__corporation_x2C__job">
</g>
<g id="_x33_5_review_x2C__feedback_x2C__rating_x2C__business_x2C__office_x2C__corporation_x2C__job">
</g>
<g id="_x33_4_manipulation_x2C__thread_x2C__puppet_x2C__business_x2C__office_x2C__corporation_x2C__job">
</g>
<g id="_x33_3_location_x2C__map_x2C__pin_x2C__business_x2C__office_x2C__corporation_x2C__job">
</g>
<g id="_x33_2_retirement_x2C__old_x2C__man_x2C__door_x2C__business_x2C__office_x2C__corporation">
</g>
<g id="_x33_1_victory_x2C__success_x2C__medal_x2C__reward_x2C__business_x2C__office_x2C__corporation">
</g>
<g id="_x33_0_dismissal_x2C__box_x2C__door_x2C__business_x2C__office_x2C__corporation_x2C__job">
</g>
<g id="_x32_9_meeting_x2C__discussion_x2C__question_x2C__business_x2C__office_x2C__corporation_x2C__job">
</g>
<g id="_x32_8_strategy_x2C__vision_x2C__eye_x2C__chess_x2C__business_x2C__office_x2C__corporation">
</g>
<g id="_x32_7_board_x2C__task_x2C__process_x2C__business_x2C__office_x2C__corporation_x2C__job">
</g>
<g id="_x32_6_scheme_x2C__board_x2C__structure_x2C__business_x2C__office_x2C__corporation_x2C__job">
</g>
<g id="_x32_5_conflict_x2C__dialog_x2C__discussion_x2C__business_x2C__office_x2C__corporation_x2C__job">
</g>
<g id="_x32_4_documentation_x2C__document_x2C__repository_x2C__business_x2C__office_x2C__corporation_x2C__job">
</g>
<g id="_x32_3_sprint_x2C__programming_x2C__code_x2C__business_x2C__office_x2C__corporation_x2C__job">
</g>
<g id="_x32_2_cram_x2C__tablet_x2C__work_x2C__business_x2C__office_x2C__corporation_x2C__job">
</g>
<g id="_x32_1_leader_x2C__discoverer_x2C__flag_x2C__business_x2C__office_x2C__corporation_x2C__job">
</g>
<g id="_x32_0_rally_x2C__collective_x2C__arm_x2C__business_x2C__office_x2C__corporation_x2C__job">
</g>
<g id="_x31_9_consolidation_x2C__portfolio_x2C__puzzle_x2C__business_x2C__office_x2C__corporation_x2C__job">
</g>
<g id="_x31_8_idea_x2C__creative_x2C__work_x2C__business_x2C__office_x2C__corporation_x2C__job">
</g>
<g id="_x31_7_problem_x2C__stress_x2C__resistance_x2C__business_x2C__office_x2C__corporation_x2C__job">
</g>
<g id="_x31_6_hard_x2C__skills_x2C__skill_x2C__portfolio_x2C__book_x2C__business_x2C__office">
</g>
<g id="_x31_5_time_x2C__management_x2C__clock_x2C__deadline_x2C__business_x2C__office_x2C__corporation">
</g>
<g id="_x31_4_multitasking_x2C__task_x2C__work_x2C__business_x2C__office_x2C__corporation_x2C__job">
</g>
<g id="_x31_3_tranquility_x2C__yoga_x2C__lotus_x2C__posture_x2C__business_x2C__office_x2C__corporation">
</g>
<g id="_x31_2_corporate_x2C__party_x2C__business_x2C__office_x2C__corporation_x2C__job">
</g>
<g id="_x31_1_dialog_x2C__discussion_x2C__work_x2C__business_x2C__office_x2C__corporation_x2C__job">
</g>
<g id="_x31_0_listening_x2C__skill_x2C__dialog_x2C__business_x2C__office_x2C__corporation_x2C__job">
</g>
<g id="_x39__training_x2C__book_x2C__lesson_x2C__business_x2C__office_x2C__corporation_x2C__job">
</g>
<g id="_x38__dress_x2C__code_x2C__shirt_x2C__business_x2C__office_x2C__corporation_x2C__job">
</g>
<g id="_x37__task_x2C__program_x2C__ticket_x2C__business_x2C__office_x2C__corporation_x2C__job">
</g>
<g id="_x36__plan_x2C__graph_x2C__stage_x2C__business_x2C__office_x2C__corporation_x2C__job">
</g>
<g id="_x35__boss_x2C__king_x2C__crown_x2C__business_x2C__office_x2C__corporation_x2C__job">
</g>
<g id="_x34__structure_x2C__structuring_x2C__business_x2C__office_x2C__corporation_x2C__job">
</g>
<g id="_x33__soft_x2C__skills_x2C__communication_x2C__business_x2C__office_x2C__corporation_x2C__job">
</g>
<g id="_x32__office_x2C__house_x2C__portfolio_x2C__business_x2C__corporation_x2C__job">
</g>
<g id="_x31__corporate_x2C__rules_x2C__book_x2C__business_x2C__office_x2C__corporation_x2C__job">
</g>
</svg>
