<?xml version="1.0" encoding="utf-8"?>
<!-- Generator: Adobe Illustrator 16.0.0, SVG Export Plug-In . SVG Version: 6.00 Build 0)  -->
<!DOCTYPE svg PUBLIC "-//W3C//DTD SVG 1.1//EN" "http://www.w3.org/Graphics/SVG/1.1/DTD/svg11.dtd">
<svg version="1.1" xmlns="http://www.w3.org/2000/svg" xmlns:xlink="http://www.w3.org/1999/xlink" x="0px" y="0px" width="64px"
	 height="64px" viewBox="0 0 64 64" enable-background="new 0 0 64 64" xml:space="preserve">
<g id="_x35_0_document_x2C__optimization_x2C__documentation_x2C__business_x2C__office_x2C__corporation_x2C__job">
</g>
<g id="_x34_9_human_x2C__resource_x2C__conveyor_x2C__business_x2C__office_x2C__corporation_x2C__job">
</g>
<g id="_x34_8_knowledge_x2C__training_x2C__growth_x2C__book_x2C__business_x2C__office_x2C__corporation">
</g>
<g id="_x34_7_skill_x2C__competence_x2C__experience_x2C__business_x2C__office_x2C__corporation_x2C__job">
</g>
<g id="_x34_6_target_x2C__success_x2C__victory_x2C__business_x2C__office_x2C__corporation_x2C__job">
</g>
<g id="_x34_5_inbox_x2C__letter_x2C__email_x2C__business_x2C__office_x2C__corporation_x2C__job">
</g>
<g id="_x34_4_document_x2C__workflow_x2C__sharing_x2C__business_x2C__office_x2C__corporation_x2C__job">
</g>
<g id="_x34_3_budget_x2C__allocation_x2C__money_x2C__business_x2C__office_x2C__corporation_x2C__job">
</g>
<g id="_x34_2_case_x2C__task_x2C__project_x2C__business_x2C__office_x2C__corporation_x2C__job">
</g>
<g id="_x34_1_structure_x2C__structuring_x2C__tasks_x2C__business_x2C__office_x2C__corporation_x2C__job">
</g>
<g id="_x34_0_choice_x2C__dilemma_x2C__question_x2C__business_x2C__office_x2C__corporation_x2C__job">
</g>
<g id="_x33_9_workplace_x2C__table_x2C__laptop_x2C__business_x2C__office_x2C__corporation_x2C__job">
</g>
<g id="_x33_8_bribe_x2C__bag_x2C__money_x2C__business_x2C__office_x2C__corporation_x2C__job">
</g>
<g id="_x33_7_corruption_x2C__forage_x2C__money_x2C__business_x2C__office_x2C__corporation_x2C__job">
</g>
<g id="_x33_6_career_x2C__ladder_x2C__success_x2C__business_x2C__office_x2C__corporation_x2C__job">
</g>
<g id="_x33_5_review_x2C__feedback_x2C__rating_x2C__business_x2C__office_x2C__corporation_x2C__job">
</g>
<g id="_x33_4_manipulation_x2C__thread_x2C__puppet_x2C__business_x2C__office_x2C__corporation_x2C__job">
</g>
<g id="_x33_3_location_x2C__map_x2C__pin_x2C__business_x2C__office_x2C__corporation_x2C__job">
</g>
<g id="_x33_2_retirement_x2C__old_x2C__man_x2C__door_x2C__business_x2C__office_x2C__corporation">
</g>
<g id="_x33_1_victory_x2C__success_x2C__medal_x2C__reward_x2C__business_x2C__office_x2C__corporation">
</g>
<g id="_x33_0_dismissal_x2C__box_x2C__door_x2C__business_x2C__office_x2C__corporation_x2C__job">
</g>
<g id="_x32_9_meeting_x2C__discussion_x2C__question_x2C__business_x2C__office_x2C__corporation_x2C__job">
</g>
<g id="_x32_8_strategy_x2C__vision_x2C__eye_x2C__chess_x2C__business_x2C__office_x2C__corporation">
</g>
<g id="_x32_7_board_x2C__task_x2C__process_x2C__business_x2C__office_x2C__corporation_x2C__job">
</g>
<g id="_x32_6_scheme_x2C__board_x2C__structure_x2C__business_x2C__office_x2C__corporation_x2C__job">
</g>
<g id="_x32_5_conflict_x2C__dialog_x2C__discussion_x2C__business_x2C__office_x2C__corporation_x2C__job">
</g>
<g id="_x32_4_documentation_x2C__document_x2C__repository_x2C__business_x2C__office_x2C__corporation_x2C__job">
</g>
<g id="_x32_3_sprint_x2C__programming_x2C__code_x2C__business_x2C__office_x2C__corporation_x2C__job">
</g>
<g id="_x32_2_cram_x2C__tablet_x2C__work_x2C__business_x2C__office_x2C__corporation_x2C__job">
</g>
<g id="_x32_1_leader_x2C__discoverer_x2C__flag_x2C__business_x2C__office_x2C__corporation_x2C__job">
</g>
<g id="_x32_0_rally_x2C__collective_x2C__arm_x2C__business_x2C__office_x2C__corporation_x2C__job">
</g>
<g id="_x31_9_consolidation_x2C__portfolio_x2C__puzzle_x2C__business_x2C__office_x2C__corporation_x2C__job">
</g>
<g id="_x31_8_idea_x2C__creative_x2C__work_x2C__business_x2C__office_x2C__corporation_x2C__job">
</g>
<g id="_x31_7_problem_x2C__stress_x2C__resistance_x2C__business_x2C__office_x2C__corporation_x2C__job">
</g>
<g id="_x31_6_hard_x2C__skills_x2C__skill_x2C__portfolio_x2C__book_x2C__business_x2C__office">
</g>
<g id="_x31_5_time_x2C__management_x2C__clock_x2C__deadline_x2C__business_x2C__office_x2C__corporation">
</g>
<g id="_x31_4_multitasking_x2C__task_x2C__work_x2C__business_x2C__office_x2C__corporation_x2C__job">
</g>
<g id="_x31_3_tranquility_x2C__yoga_x2C__lotus_x2C__posture_x2C__business_x2C__office_x2C__corporation">
</g>
<g id="_x31_2_corporate_x2C__party_x2C__business_x2C__office_x2C__corporation_x2C__job">
</g>
<g id="_x31_1_dialog_x2C__discussion_x2C__work_x2C__business_x2C__office_x2C__corporation_x2C__job">
</g>
<g id="_x31_0_listening_x2C__skill_x2C__dialog_x2C__business_x2C__office_x2C__corporation_x2C__job">
</g>
<g id="_x39__training_x2C__book_x2C__lesson_x2C__business_x2C__office_x2C__corporation_x2C__job">
</g>
<g id="_x38__dress_x2C__code_x2C__shirt_x2C__business_x2C__office_x2C__corporation_x2C__job">
</g>
<g id="_x37__task_x2C__program_x2C__ticket_x2C__business_x2C__office_x2C__corporation_x2C__job">
</g>
<g id="_x36__plan_x2C__graph_x2C__stage_x2C__business_x2C__office_x2C__corporation_x2C__job">
</g>
<g id="_x35__boss_x2C__king_x2C__crown_x2C__business_x2C__office_x2C__corporation_x2C__job">
</g>
<g id="_x34__structure_x2C__structuring_x2C__business_x2C__office_x2C__corporation_x2C__job">
	<g>
		<g>
			<path fill="#F6BB42" d="M41,22.502v1.22c-1.95-2.54-3.36-3.09-5-2.88v-0.01l3-4.16C40.26,18.282,41,20.312,41,22.502z"/>
			<path fill="#FFCE54" d="M39,16.672l-3,4.16v0.01c-2.66,0.34-5.91,2.67-13,1.8c-0.33-0.04-0.66-0.09-1-0.14
				c0-5.25,4.25-9.5,9.5-9.5C34.55,13.002,37.27,14.442,39,16.672z"/>
			<path fill="#EDAB37" d="M39,16.672l-2.362,3.276c0.08,0.286,0.158,0.574,0.211,0.871h0.003c0.6,0.037,1.189,0.22,1.804,0.604
				c0.071,0.044,0.143,0.087,0.216,0.137c0.1,0.07,0.202,0.149,0.304,0.23c0.098,0.077,0.196,0.16,0.296,0.248
				c0.09,0.08,0.181,0.163,0.272,0.252c0.125,0.122,0.254,0.258,0.383,0.397c0.075,0.08,0.148,0.155,0.225,0.242
				c0.211,0.24,0.426,0.5,0.649,0.791v-1.22C41,20.312,40.26,18.282,39,16.672z"/>
			<path fill="#F6BB42" d="M30.446,13.063c-0.326,0.037-0.646,0.089-0.962,0.157h-0.001c2.229,0.475,4.173,1.72,5.517,3.451
				c0.751,0.96,1.304,2.073,1.638,3.276L39,16.672c-1.73-2.229-4.45-3.67-7.5-3.67c-0.345,0-0.686,0.02-1.021,0.057
				C30.468,13.06,30.457,13.063,30.446,13.063z"/>
			<path fill="#F5F7FA" d="M32,39.002l-2,1l-2-1v-3.94c1.2,0.601,2.57,0.94,4,0.94s2.8-0.34,4-0.94v3.94l-2,1L32,39.002z"/>
			<path fill="#EAC6BB" d="M41,23.722v3.28c0,3.53-2.04,6.59-5,8.06c-1.2,0.601-2.57,0.94-4,0.94s-2.8-0.34-4-0.94
				c-2.96-1.47-5-4.529-5-8.06v-0.04v-4.32c7.09,0.87,10.34-1.46,13-1.8C37.64,20.632,39.05,21.182,41,23.722z"/>
			<path fill="#D3B1A9" d="M37,20.831v6.171c0,3.53-2.04,6.59-5,8.06c-0.625,0.313-1.298,0.551-2,0.711
				c0.646,0.147,1.315,0.229,2,0.229c1.43,0,2.8-0.34,4-0.94c2.96-1.47,5-4.529,5-8.06v-3.28C39.456,21.71,38.249,20.957,37,20.831z
				"/>
			<path fill="#E6E9ED" d="M43,44.002v3c0,0.55-0.45,1-1,1H22c-0.55,0-1-0.45-1-1v-3c0-2.76,2.24-5,5-5h2l2,1l2-1l2,1l2-1h2
				C40.77,39.002,43,41.242,43,44.002z"/>
			<g>
				<path fill="#CCD1D9" d="M38,39.002h-2l-0.505,0.252C37.525,39.893,39,41.766,39,44.002v3c0,0.55-0.45,1-1,1h4c0.55,0,1-0.45,1-1
					v-3C43,41.242,40.77,39.002,38,39.002z"/>
			</g>
		</g>
		<g>
			<g>
				<path fill="#E6E9ED" d="M34.995,60.842c-0.505,0-0.938-0.381-0.993-0.895c-0.059-0.549,0.339-1.041,0.889-1.1
					c4.813-0.512,9.407-2.32,13.289-5.23c0.441-0.33,1.068-0.242,1.399,0.201c0.332,0.441,0.242,1.068-0.2,1.398
					c-4.169,3.127-9.106,5.07-14.277,5.619C35.066,60.84,35.03,60.842,34.995,60.842z"/>
			</g>
			<g>
				<path fill="#E6E9ED" d="M54.417,49.775c-0.209,0-0.419-0.064-0.599-0.199c-0.442-0.332-0.532-0.959-0.2-1.4
					c2.908-3.879,4.717-8.475,5.229-13.287c0.059-0.549,0.559-0.953,1.1-0.889c0.55,0.059,0.947,0.551,0.889,1.1
					c-0.551,5.172-2.493,10.109-5.618,14.275C55.021,49.639,54.722,49.775,54.417,49.775z"/>
			</g>
			<g>
				<path fill="#E6E9ED" d="M59.841,30.006c-0.505,0-0.938-0.381-0.993-0.895c-0.529-4.979-2.439-9.707-5.523-13.671
					c-0.339-0.436-0.261-1.064,0.175-1.403c0.438-0.339,1.065-0.26,1.403,0.175c3.313,4.259,5.365,9.337,5.934,14.688
					c0.059,0.549-0.339,1.042-0.889,1.101C59.911,30.004,59.876,30.006,59.841,30.006z"/>
			</g>
			<g>
				<path fill="#E6E9ED" d="M49.175,10.886c-0.214,0-0.431-0.068-0.613-0.21c-3.964-3.083-8.691-4.993-13.671-5.523
					c-0.55-0.058-0.947-0.551-0.889-1.1c0.059-0.55,0.556-0.952,1.1-0.889c5.351,0.569,10.43,2.621,14.688,5.933
					c0.436,0.339,0.515,0.967,0.175,1.403C49.768,10.753,49.473,10.886,49.175,10.886z"/>
			</g>
			<g>
				<path fill="#E6E9ED" d="M15.224,10.581c-0.305,0-0.604-0.138-0.801-0.4c-0.332-0.441-0.242-1.068,0.2-1.399
					c4.171-3.126,9.108-5.068,14.279-5.617c0.561-0.051,1.042,0.341,1.1,0.889c0.059,0.55-0.34,1.042-0.889,1.101
					c-4.813,0.51-9.408,2.318-13.291,5.229C15.643,10.517,15.432,10.581,15.224,10.581z"/>
			</g>
			<g>
				<path fill="#E6E9ED" d="M4.159,30.004c-0.035,0-0.071-0.002-0.106-0.006c-0.55-0.058-0.947-0.551-0.889-1.1
					c0.551-5.173,2.494-10.111,5.62-14.279c0.331-0.441,0.958-0.532,1.399-0.2c0.442,0.331,0.532,0.958,0.2,1.4
					c-2.91,3.88-4.719,8.476-5.231,13.291C5.098,29.623,4.664,30.004,4.159,30.004z"/>
			</g>
			<g>
				<path fill="#E6E9ED" d="M9.595,49.795c-0.304,0-0.604-0.139-0.801-0.4c-3.133-4.172-5.079-9.115-5.63-14.295
					c-0.059-0.549,0.339-1.041,0.889-1.1c0.546-0.059,1.041,0.34,1.1,0.889c0.513,4.82,2.325,9.42,5.241,13.305
					c0.331,0.443,0.242,1.068-0.199,1.4C10.014,49.729,9.804,49.795,9.595,49.795z"/>
			</g>
			<g>
				<path fill="#E6E9ED" d="M29.007,60.842c-0.035,0-0.071-0.002-0.106-0.006c-5.174-0.551-10.111-2.492-14.279-5.619
					c-0.442-0.33-0.532-0.957-0.2-1.398c0.331-0.443,0.959-0.531,1.399-0.201c3.88,2.91,8.476,4.719,13.291,5.23
					c0.55,0.059,0.947,0.551,0.889,1.1C29.945,60.461,29.512,60.842,29.007,60.842z"/>
			</g>
			<g>
				<path fill="#ED5565" d="M12.203,17.2c-1.336,0-2.592-0.52-3.535-1.464c-0.944-0.944-1.465-2.2-1.466-3.535
					c-0.001-1.336,0.52-2.591,1.464-3.535s2.2-1.465,3.536-1.465s2.592,0.521,3.536,1.465c0.944,0.943,1.465,2.199,1.465,3.534
					c0,1.336-0.521,2.592-1.465,3.536S13.538,17.2,12.203,17.2z"/>
			</g>
			<g>
				<path fill="#ED5565" d="M51.801,56.799c-1.335,0-2.591-0.52-3.535-1.465c-1.949-1.949-1.949-5.121,0-7.07
					c0.944-0.943,2.2-1.465,3.536-1.465c1.334,0,2.59,0.52,3.534,1.465c1.949,1.949,1.949,5.121,0,7.07
					C54.392,56.279,53.136,56.799,51.801,56.799z"/>
			</g>
			<g>
				<path fill="#ED5565" d="M12.198,56.799c-1.335,0-2.59-0.52-3.533-1.465c-1.948-1.949-1.948-5.121,0.001-7.07
					c0.942-0.943,2.198-1.465,3.534-1.465s2.591,0.52,3.536,1.465c0.944,0.943,1.465,2.199,1.465,3.535s-0.521,2.59-1.465,3.535
					C14.79,56.277,13.534,56.799,12.198,56.799z"/>
			</g>
			<g>
				<path fill="#ED5565" d="M51.8,16.7c-1.201,0-2.332-0.468-3.183-1.317c-0.851-0.851-1.318-1.98-1.318-3.183
					s0.468-2.332,1.318-3.182S50.598,7.7,51.799,7.7c1.202,0,2.331,0.468,3.182,1.317c0.851,0.851,1.318,1.98,1.318,3.183
					s-0.468,2.333-1.318,3.183C54.131,16.232,53.002,16.7,51.8,16.7z"/>
			</g>
			<g>
				<path fill="#AC92EC" d="M32.002,8c-2.206,0-4-1.794-4-4c0-2.205,1.794-4,4-4s4,1.795,4,4C36.002,6.206,34.208,8,32.002,8z"/>
			</g>
			<g>
				<path fill="#AC92EC" d="M32.002,64c-2.206,0-4-1.793-4-4c0-2.205,1.794-4,4-4s4,1.795,4,4C36.002,62.207,34.208,64,32.002,64z"
					/>
			</g>
			<g>
				<path fill="#AC92EC" d="M4.004,35.998C1.796,35.998,0,34.205,0,32s1.794-4,4-4c1.069,0,2.074,0.416,2.829,1.172
					C7.584,29.927,8,30.932,8,32C8,34.205,6.207,35.998,4.004,35.998z"/>
			</g>
			<g>
				<path fill="#AC92EC" d="M60,36c-2.204,0-3.998-1.795-3.998-4s1.794-4,3.998-4c2.206,0,4,1.794,4,4C64,34.205,62.206,36,60,36z"
					/>
			</g>
		</g>
	</g>
</g>
<g id="_x33__soft_x2C__skills_x2C__communication_x2C__business_x2C__office_x2C__corporation_x2C__job">
</g>
<g id="_x32__office_x2C__house_x2C__portfolio_x2C__business_x2C__corporation_x2C__job">
</g>
<g id="_x31__corporate_x2C__rules_x2C__book_x2C__business_x2C__office_x2C__corporation_x2C__job">
</g>
</svg>
