<?xml version="1.0" encoding="utf-8"?>
<!-- Generator: Adobe Illustrator 16.0.0, SVG Export Plug-In . SVG Version: 6.00 Build 0)  -->
<!DOCTYPE svg PUBLIC "-//W3C//DTD SVG 1.1//EN" "http://www.w3.org/Graphics/SVG/1.1/DTD/svg11.dtd">
<svg version="1.1" xmlns="http://www.w3.org/2000/svg" xmlns:xlink="http://www.w3.org/1999/xlink" x="0px" y="0px" width="64px"
	 height="64px" viewBox="0 0 64 64" enable-background="new 0 0 64 64" xml:space="preserve">
<g id="_x35_0_document_x2C__optimization_x2C__documentation_x2C__business_x2C__office_x2C__corporation_x2C__job">
</g>
<g id="_x34_9_human_x2C__resource_x2C__conveyor_x2C__business_x2C__office_x2C__corporation_x2C__job">
</g>
<g id="_x34_8_knowledge_x2C__training_x2C__growth_x2C__book_x2C__business_x2C__office_x2C__corporation">
</g>
<g id="_x34_7_skill_x2C__competence_x2C__experience_x2C__business_x2C__office_x2C__corporation_x2C__job">
</g>
<g id="_x34_6_target_x2C__success_x2C__victory_x2C__business_x2C__office_x2C__corporation_x2C__job">
</g>
<g id="_x34_5_inbox_x2C__letter_x2C__email_x2C__business_x2C__office_x2C__corporation_x2C__job">
</g>
<g id="_x34_4_document_x2C__workflow_x2C__sharing_x2C__business_x2C__office_x2C__corporation_x2C__job">
</g>
<g id="_x34_3_budget_x2C__allocation_x2C__money_x2C__business_x2C__office_x2C__corporation_x2C__job">
</g>
<g id="_x34_2_case_x2C__task_x2C__project_x2C__business_x2C__office_x2C__corporation_x2C__job">
</g>
<g id="_x34_1_structure_x2C__structuring_x2C__tasks_x2C__business_x2C__office_x2C__corporation_x2C__job">
</g>
<g id="_x34_0_choice_x2C__dilemma_x2C__question_x2C__business_x2C__office_x2C__corporation_x2C__job">
	<g>
		<g>
			<path fill="#FFCE54" d="M46.5,11.5v6l-4-4c0,0-4.58,2-10,2c-5.43,0-10-2-10-2l-4,3.989V12.5c0-6.63,5.36-12,12-12h10v5
				C43.811,5.5,46.5,8.18,46.5,11.5z"/>
			<g>
				<path fill="#F6BB42" d="M40.5,5.5v-5h-4v7c3.311,0,6,1.68,6,5v1l4,4v-6C46.5,8.18,43.811,5.5,40.5,5.5z"/>
			</g>
			<path fill="#EAC6BB" d="M46.5,17.5v5c0,5.58-3.27,10.399-8,12.649c-1.819,0.87-3.859,1.351-6,1.351c-2.149,0-4.18-0.48-6-1.351
				c-4.729-2.25-8-7.069-8-12.649v-0.021v-4.99l4-3.989c0,0,4.57,2,10,2c5.42,0,10-2,10-2L46.5,17.5z"/>
			<path fill="#D3B1A9" d="M42.5,13.5v9c0,5.58-3.27,10.399-8,12.649c-1.242,0.594-2.592,0.99-4.002,1.191
				c0.655,0.095,1.32,0.159,2.002,0.159c2.141,0,4.181-0.48,6-1.351c4.73-2.25,8-7.069,8-12.649v-5L42.5,13.5z"/>
			<path fill="#F5F7FA" d="M38.5,35.149V39.5l-3,2l-3-1l-3,1l-3-2v-4.351c1.82,0.87,3.851,1.351,6,1.351
				C34.641,36.5,36.681,36.02,38.5,35.149z"/>
			<path fill="#5D9CEC" d="M32.5,57.5c0,1.66-1.35,3-3,3h-15V46.649V46.5c0-3.87,3.131-7,7-7h5l3,2l3-1l3,1l3-2h5c3.86,0,7,3.13,7,7
				v0.149V60.5h-15C33.841,60.5,32.5,59.16,32.5,57.5z"/>
			<g>
				<path fill="#4A89DC" d="M43.5,39.5h-4c3.86,0,7,3.13,7,7v0.149V60.5h4V46.649V46.5C50.5,42.63,47.36,39.5,43.5,39.5z"/>
			</g>
		</g>
		<path fill="#656D78" d="M58.53,28.5c0-0.553-0.448-1-1-1H57.52c-0.552,0-0.994,0.447-0.994,1s0.452,1,1.005,1
			C58.082,29.5,58.53,29.053,58.53,28.5z"/>
		<path fill="#656D78" d="M57.5,11.5c-3.309,0-6,2.691-6,6c0,0.553,0.447,1,1,1s1-0.447,1-1c0-2.206,1.794-4,4-4s4,1.794,4,4
			c0,2.166-1.09,2.945-2.351,3.849C57.969,22.194,56.5,23.246,56.5,25.5c0,0.553,0.447,1,1,1s1-0.447,1-1
			c0-1.172,0.622-1.672,1.813-2.525c1.42-1.016,3.187-2.281,3.187-5.475C63.5,14.191,60.809,11.5,57.5,11.5z"/>
		<path fill="#656D78" d="M6.53,27.5H6.52c-0.552,0-0.994,0.447-0.994,1s0.452,1,1.005,1c0.552,0,1-0.447,1-1S7.082,27.5,6.53,27.5z
			"/>
		<path fill="#656D78" d="M10.5,17.5c0,2.166-1.09,2.945-2.351,3.849C6.969,22.194,5.5,23.246,5.5,25.5c0,0.553,0.447,1,1,1
			s1-0.447,1-1c0-1.172,0.622-1.672,1.813-2.525c1.42-1.016,3.187-2.281,3.187-5.475c0-3.309-2.691-6-6-6s-6,2.691-6,6
			c0,0.553,0.447,1,1,1s1-0.447,1-1c0-2.206,1.794-4,4-4S10.5,15.294,10.5,17.5z"/>
		<path fill="#F5F7FA" d="M32.53,46.5c0.552,0,1-0.447,1-1s-0.448-1-1-1H32.52c-0.552,0-0.994,0.447-0.994,1S31.978,46.5,32.53,46.5
			z"/>
		<path fill="#F5F7FA" d="M32.53,51.5c0.552,0,1-0.447,1-1s-0.448-1-1-1H32.52c-0.552,0-0.994,0.447-0.994,1S31.978,51.5,32.53,51.5
			z"/>
		<path fill="#ED5565" d="M59.423,60.118c-0.051-0.123-0.124-0.234-0.217-0.326l-1.999-1.999c-0.391-0.391-1.023-0.391-1.414,0
			s-0.391,1.023,0,1.414l0.293,0.293H35.5c-1.103,0-2-0.897-2-2v-2c0-0.553-0.447-1-1-1s-1,0.447-1,1v2c0,1.103-0.897,2-2,2H8.914
			l0.293-0.293c0.391-0.391,0.391-1.023,0-1.414s-1.023-0.391-1.414,0l-1.999,1.999c-0.093,0.092-0.166,0.203-0.217,0.326
			c-0.102,0.244-0.102,0.52,0,0.764c0.051,0.123,0.124,0.234,0.217,0.326l1.999,1.999C7.988,63.402,8.244,63.5,8.5,63.5
			s0.512-0.098,0.707-0.293c0.391-0.391,0.391-1.023,0-1.414L8.914,61.5H29.5c1.2,0,2.267-0.542,3-1.382
			c0.733,0.84,1.8,1.382,3,1.382h20.586l-0.293,0.293c-0.391,0.391-0.391,1.023,0,1.414c0.195,0.195,0.451,0.293,0.707,0.293
			s0.512-0.098,0.707-0.293l1.999-1.999c0.093-0.092,0.166-0.203,0.217-0.326C59.523,60.638,59.523,60.362,59.423,60.118z"/>
	</g>
</g>
<g id="_x33_9_workplace_x2C__table_x2C__laptop_x2C__business_x2C__office_x2C__corporation_x2C__job">
</g>
<g id="_x33_8_bribe_x2C__bag_x2C__money_x2C__business_x2C__office_x2C__corporation_x2C__job">
</g>
<g id="_x33_7_corruption_x2C__forage_x2C__money_x2C__business_x2C__office_x2C__corporation_x2C__job">
</g>
<g id="_x33_6_career_x2C__ladder_x2C__success_x2C__business_x2C__office_x2C__corporation_x2C__job">
</g>
<g id="_x33_5_review_x2C__feedback_x2C__rating_x2C__business_x2C__office_x2C__corporation_x2C__job">
</g>
<g id="_x33_4_manipulation_x2C__thread_x2C__puppet_x2C__business_x2C__office_x2C__corporation_x2C__job">
</g>
<g id="_x33_3_location_x2C__map_x2C__pin_x2C__business_x2C__office_x2C__corporation_x2C__job">
</g>
<g id="_x33_2_retirement_x2C__old_x2C__man_x2C__door_x2C__business_x2C__office_x2C__corporation">
</g>
<g id="_x33_1_victory_x2C__success_x2C__medal_x2C__reward_x2C__business_x2C__office_x2C__corporation">
</g>
<g id="_x33_0_dismissal_x2C__box_x2C__door_x2C__business_x2C__office_x2C__corporation_x2C__job">
</g>
<g id="_x32_9_meeting_x2C__discussion_x2C__question_x2C__business_x2C__office_x2C__corporation_x2C__job">
</g>
<g id="_x32_8_strategy_x2C__vision_x2C__eye_x2C__chess_x2C__business_x2C__office_x2C__corporation">
</g>
<g id="_x32_7_board_x2C__task_x2C__process_x2C__business_x2C__office_x2C__corporation_x2C__job">
</g>
<g id="_x32_6_scheme_x2C__board_x2C__structure_x2C__business_x2C__office_x2C__corporation_x2C__job">
</g>
<g id="_x32_5_conflict_x2C__dialog_x2C__discussion_x2C__business_x2C__office_x2C__corporation_x2C__job">
</g>
<g id="_x32_4_documentation_x2C__document_x2C__repository_x2C__business_x2C__office_x2C__corporation_x2C__job">
</g>
<g id="_x32_3_sprint_x2C__programming_x2C__code_x2C__business_x2C__office_x2C__corporation_x2C__job">
</g>
<g id="_x32_2_cram_x2C__tablet_x2C__work_x2C__business_x2C__office_x2C__corporation_x2C__job">
</g>
<g id="_x32_1_leader_x2C__discoverer_x2C__flag_x2C__business_x2C__office_x2C__corporation_x2C__job">
</g>
<g id="_x32_0_rally_x2C__collective_x2C__arm_x2C__business_x2C__office_x2C__corporation_x2C__job">
</g>
<g id="_x31_9_consolidation_x2C__portfolio_x2C__puzzle_x2C__business_x2C__office_x2C__corporation_x2C__job">
</g>
<g id="_x31_8_idea_x2C__creative_x2C__work_x2C__business_x2C__office_x2C__corporation_x2C__job">
</g>
<g id="_x31_7_problem_x2C__stress_x2C__resistance_x2C__business_x2C__office_x2C__corporation_x2C__job">
</g>
<g id="_x31_6_hard_x2C__skills_x2C__skill_x2C__portfolio_x2C__book_x2C__business_x2C__office">
</g>
<g id="_x31_5_time_x2C__management_x2C__clock_x2C__deadline_x2C__business_x2C__office_x2C__corporation">
</g>
<g id="_x31_4_multitasking_x2C__task_x2C__work_x2C__business_x2C__office_x2C__corporation_x2C__job">
</g>
<g id="_x31_3_tranquility_x2C__yoga_x2C__lotus_x2C__posture_x2C__business_x2C__office_x2C__corporation">
</g>
<g id="_x31_2_corporate_x2C__party_x2C__business_x2C__office_x2C__corporation_x2C__job">
</g>
<g id="_x31_1_dialog_x2C__discussion_x2C__work_x2C__business_x2C__office_x2C__corporation_x2C__job">
</g>
<g id="_x31_0_listening_x2C__skill_x2C__dialog_x2C__business_x2C__office_x2C__corporation_x2C__job">
</g>
<g id="_x39__training_x2C__book_x2C__lesson_x2C__business_x2C__office_x2C__corporation_x2C__job">
</g>
<g id="_x38__dress_x2C__code_x2C__shirt_x2C__business_x2C__office_x2C__corporation_x2C__job">
</g>
<g id="_x37__task_x2C__program_x2C__ticket_x2C__business_x2C__office_x2C__corporation_x2C__job">
</g>
<g id="_x36__plan_x2C__graph_x2C__stage_x2C__business_x2C__office_x2C__corporation_x2C__job">
</g>
<g id="_x35__boss_x2C__king_x2C__crown_x2C__business_x2C__office_x2C__corporation_x2C__job">
</g>
<g id="_x34__structure_x2C__structuring_x2C__business_x2C__office_x2C__corporation_x2C__job">
</g>
<g id="_x33__soft_x2C__skills_x2C__communication_x2C__business_x2C__office_x2C__corporation_x2C__job">
</g>
<g id="_x32__office_x2C__house_x2C__portfolio_x2C__business_x2C__corporation_x2C__job">
</g>
<g id="_x31__corporate_x2C__rules_x2C__book_x2C__business_x2C__office_x2C__corporation_x2C__job">
</g>
</svg>
