<?xml version="1.0" encoding="utf-8"?>
<!-- Generator: Adobe Illustrator 16.0.0, SVG Export Plug-In . SVG Version: 6.00 Build 0)  -->
<!DOCTYPE svg PUBLIC "-//W3C//DTD SVG 1.1//EN" "http://www.w3.org/Graphics/SVG/1.1/DTD/svg11.dtd">
<svg version="1.1" xmlns="http://www.w3.org/2000/svg" xmlns:xlink="http://www.w3.org/1999/xlink" x="0px" y="0px" width="64px"
	 height="64px" viewBox="0 0 64 64" enable-background="new 0 0 64 64" xml:space="preserve">
<g id="_x35_0_document_x2C__optimization_x2C__documentation_x2C__business_x2C__office_x2C__corporation_x2C__job">
</g>
<g id="_x34_9_human_x2C__resource_x2C__conveyor_x2C__business_x2C__office_x2C__corporation_x2C__job">
</g>
<g id="_x34_8_knowledge_x2C__training_x2C__growth_x2C__book_x2C__business_x2C__office_x2C__corporation">
</g>
<g id="_x34_7_skill_x2C__competence_x2C__experience_x2C__business_x2C__office_x2C__corporation_x2C__job">
	<g>
		<polygon fill="#5D9CEC" points="55,16 51,20 43,20 43,16 		"/>
		<polygon fill="#E6E9ED" points="63,16 63,20 51,20 55,16 		"/>
		<polygon fill="#E6E9ED" points="63,24 63,28 56,28 60,24 		"/>
		<polygon fill="#5D9CEC" points="60,24 56,28 43,28 43,24 		"/>
		<polygon fill="#E6E9ED" points="63,32 63,36 49,36 53,32 		"/>
		<polygon fill="#5D9CEC" points="53,32 49,36 43,36 43,32 		"/>
		<polygon fill="#5D9CEC" points="57,40 53,44 43,44 43,40 		"/>
		<polygon fill="#E6E9ED" points="63,40 63,44 53,44 57,40 		"/>
		<path fill="#4A89DC" d="M39,52v9c0,0.551-0.45,1-1,1H23l6-8l-2-2l3-4l-2-2h5C36.32,46,39,48.69,39,52z"/>
		<path fill="#3981D1" d="M33,46h-4c3.32,0,6,2.69,6,6v9c0,0.551-0.45,1-1,1h4c0.55,0,1-0.449,1-1v-9C39,48.69,36.32,46,33,46z"/>
		<polygon fill="#5D9CEC" points="23,62 21,62 24.86,48.12 26,44 28,46 30,48 27,52 29,54 		"/>
		<path fill="#4A89DC" d="M11,54l6,8H2c-0.55,0-1-0.449-1-1v-9c0-3.31,2.68-6,6-6h5l-2,2l3,4L11,54z"/>
		<polygon fill="#5D9CEC" points="15.14,48.12 19,62 17,62 11,54 13,52 10,48 12,46 14,44 		"/>
		<polygon fill="#E6E9ED" points="24.86,48.12 21,62 19,62 15.14,48.12 15.56,48 20,46 24.44,48 		"/>
		<path fill="#F5F7FA" d="M20,43c2.13,0,4.16-0.449,6-1.25V44l-1.14,4.12L24.44,48L20,46l-4.44,2l-0.42,0.12L14,44v-2.25
			C15.84,42.551,17.87,43,20,43z"/>
		<path fill="#DA4453" d="M10,5.03V15c0,2.761-2.24,5-5,5V10c0-2.76,2.24-5,5-5l0.01,0.021C10.01,5.03,10,5.03,10,5.03z"/>
		<path fill="#F5F7FA" d="M20.03,51c-0.553,0-1.005-0.447-1.005-1s0.442-1,0.994-1h0.011c0.552,0,1,0.447,1,1S20.582,51,20.03,51z"
			/>
		<path fill="#F5F7FA" d="M20.03,55c-0.553,0-1.005-0.447-1.005-1s0.442-1,0.994-1h0.011c0.552,0,1,0.447,1,1S20.582,55,20.03,55z"
			/>
		<path fill="#ED5565" d="M20,2c-3.7,0-7.13,1.12-9.99,3.021c0,0.01-0.01,0.01-0.01,0.01V15c0,2.761,2.24,5,5,5
			c6.29,0,15.42,1.03,20.06,6.811c0.809,1.009,1.454,2.031,1.951,3.351l0.006-0.001c0.041,0.236,0.236,0.418,0.483,0.418
			c0.276,0,0.5-0.224,0.5-0.5V20C38,10.061,29.94,2,20,2z"/>
		<path fill="#DA4453" d="M20,2c-0.67,0-1.328,0.049-1.979,0.12C27.009,3.126,34,10.744,34,20v5.655
			c0.372,0.364,0.73,0.745,1.06,1.155c0.809,1.009,1.454,2.031,1.951,3.351l0.006-0.001c0.041,0.236,0.236,0.418,0.483,0.418
			c0.276,0,0.5-0.224,0.5-0.5V20C38,10.061,29.94,2,20,2z"/>
		<path fill="#EAC6BB" d="M35,26.744C30.343,21.025,21.265,20,15,20c-2.76,0-5-2.239-5-5c0,2.761-2.24,5-5,5v8
			c0,6.15,3.7,11.44,9,13.75c1.84,0.801,3.87,1.25,6,1.25s4.16-0.449,6-1.25c5.3-2.31,9-7.6,9-13.75v-0.766V26.83V26.744z"/>
		<path fill="#D3B1A9" d="M35,26.744c-1.113-1.367-2.479-2.464-4-3.345V28c0,6.15-3.7,11.44-9,13.75c-1.253,0.545-2.6,0.912-4,1.101
			C18.656,42.938,19.32,43,20,43c2.13,0,4.16-0.449,6-1.25c5.3-2.31,9-7.6,9-13.75v-0.766V26.83V26.744z"/>
	</g>
</g>
<g id="_x34_6_target_x2C__success_x2C__victory_x2C__business_x2C__office_x2C__corporation_x2C__job">
</g>
<g id="_x34_5_inbox_x2C__letter_x2C__email_x2C__business_x2C__office_x2C__corporation_x2C__job">
</g>
<g id="_x34_4_document_x2C__workflow_x2C__sharing_x2C__business_x2C__office_x2C__corporation_x2C__job">
</g>
<g id="_x34_3_budget_x2C__allocation_x2C__money_x2C__business_x2C__office_x2C__corporation_x2C__job">
</g>
<g id="_x34_2_case_x2C__task_x2C__project_x2C__business_x2C__office_x2C__corporation_x2C__job">
</g>
<g id="_x34_1_structure_x2C__structuring_x2C__tasks_x2C__business_x2C__office_x2C__corporation_x2C__job">
</g>
<g id="_x34_0_choice_x2C__dilemma_x2C__question_x2C__business_x2C__office_x2C__corporation_x2C__job">
</g>
<g id="_x33_9_workplace_x2C__table_x2C__laptop_x2C__business_x2C__office_x2C__corporation_x2C__job">
</g>
<g id="_x33_8_bribe_x2C__bag_x2C__money_x2C__business_x2C__office_x2C__corporation_x2C__job">
</g>
<g id="_x33_7_corruption_x2C__forage_x2C__money_x2C__business_x2C__office_x2C__corporation_x2C__job">
</g>
<g id="_x33_6_career_x2C__ladder_x2C__success_x2C__business_x2C__office_x2C__corporation_x2C__job">
</g>
<g id="_x33_5_review_x2C__feedback_x2C__rating_x2C__business_x2C__office_x2C__corporation_x2C__job">
</g>
<g id="_x33_4_manipulation_x2C__thread_x2C__puppet_x2C__business_x2C__office_x2C__corporation_x2C__job">
</g>
<g id="_x33_3_location_x2C__map_x2C__pin_x2C__business_x2C__office_x2C__corporation_x2C__job">
</g>
<g id="_x33_2_retirement_x2C__old_x2C__man_x2C__door_x2C__business_x2C__office_x2C__corporation">
</g>
<g id="_x33_1_victory_x2C__success_x2C__medal_x2C__reward_x2C__business_x2C__office_x2C__corporation">
</g>
<g id="_x33_0_dismissal_x2C__box_x2C__door_x2C__business_x2C__office_x2C__corporation_x2C__job">
</g>
<g id="_x32_9_meeting_x2C__discussion_x2C__question_x2C__business_x2C__office_x2C__corporation_x2C__job">
</g>
<g id="_x32_8_strategy_x2C__vision_x2C__eye_x2C__chess_x2C__business_x2C__office_x2C__corporation">
</g>
<g id="_x32_7_board_x2C__task_x2C__process_x2C__business_x2C__office_x2C__corporation_x2C__job">
</g>
<g id="_x32_6_scheme_x2C__board_x2C__structure_x2C__business_x2C__office_x2C__corporation_x2C__job">
</g>
<g id="_x32_5_conflict_x2C__dialog_x2C__discussion_x2C__business_x2C__office_x2C__corporation_x2C__job">
</g>
<g id="_x32_4_documentation_x2C__document_x2C__repository_x2C__business_x2C__office_x2C__corporation_x2C__job">
</g>
<g id="_x32_3_sprint_x2C__programming_x2C__code_x2C__business_x2C__office_x2C__corporation_x2C__job">
</g>
<g id="_x32_2_cram_x2C__tablet_x2C__work_x2C__business_x2C__office_x2C__corporation_x2C__job">
</g>
<g id="_x32_1_leader_x2C__discoverer_x2C__flag_x2C__business_x2C__office_x2C__corporation_x2C__job">
</g>
<g id="_x32_0_rally_x2C__collective_x2C__arm_x2C__business_x2C__office_x2C__corporation_x2C__job">
</g>
<g id="_x31_9_consolidation_x2C__portfolio_x2C__puzzle_x2C__business_x2C__office_x2C__corporation_x2C__job">
</g>
<g id="_x31_8_idea_x2C__creative_x2C__work_x2C__business_x2C__office_x2C__corporation_x2C__job">
</g>
<g id="_x31_7_problem_x2C__stress_x2C__resistance_x2C__business_x2C__office_x2C__corporation_x2C__job">
</g>
<g id="_x31_6_hard_x2C__skills_x2C__skill_x2C__portfolio_x2C__book_x2C__business_x2C__office">
</g>
<g id="_x31_5_time_x2C__management_x2C__clock_x2C__deadline_x2C__business_x2C__office_x2C__corporation">
</g>
<g id="_x31_4_multitasking_x2C__task_x2C__work_x2C__business_x2C__office_x2C__corporation_x2C__job">
</g>
<g id="_x31_3_tranquility_x2C__yoga_x2C__lotus_x2C__posture_x2C__business_x2C__office_x2C__corporation">
</g>
<g id="_x31_2_corporate_x2C__party_x2C__business_x2C__office_x2C__corporation_x2C__job">
</g>
<g id="_x31_1_dialog_x2C__discussion_x2C__work_x2C__business_x2C__office_x2C__corporation_x2C__job">
</g>
<g id="_x31_0_listening_x2C__skill_x2C__dialog_x2C__business_x2C__office_x2C__corporation_x2C__job">
</g>
<g id="_x39__training_x2C__book_x2C__lesson_x2C__business_x2C__office_x2C__corporation_x2C__job">
</g>
<g id="_x38__dress_x2C__code_x2C__shirt_x2C__business_x2C__office_x2C__corporation_x2C__job">
</g>
<g id="_x37__task_x2C__program_x2C__ticket_x2C__business_x2C__office_x2C__corporation_x2C__job">
</g>
<g id="_x36__plan_x2C__graph_x2C__stage_x2C__business_x2C__office_x2C__corporation_x2C__job">
</g>
<g id="_x35__boss_x2C__king_x2C__crown_x2C__business_x2C__office_x2C__corporation_x2C__job">
</g>
<g id="_x34__structure_x2C__structuring_x2C__business_x2C__office_x2C__corporation_x2C__job">
</g>
<g id="_x33__soft_x2C__skills_x2C__communication_x2C__business_x2C__office_x2C__corporation_x2C__job">
</g>
<g id="_x32__office_x2C__house_x2C__portfolio_x2C__business_x2C__corporation_x2C__job">
</g>
<g id="_x31__corporate_x2C__rules_x2C__book_x2C__business_x2C__office_x2C__corporation_x2C__job">
</g>
</svg>
