<?xml version="1.0" encoding="utf-8"?>
<!-- Generator: Adobe Illustrator 16.0.0, SVG Export Plug-In . SVG Version: 6.00 Build 0)  -->
<!DOCTYPE svg PUBLIC "-//W3C//DTD SVG 1.1//EN" "http://www.w3.org/Graphics/SVG/1.1/DTD/svg11.dtd">
<svg version="1.1" xmlns="http://www.w3.org/2000/svg" xmlns:xlink="http://www.w3.org/1999/xlink" x="0px" y="0px" width="64px"
	 height="64px" viewBox="0 0 64 64" enable-background="new 0 0 64 64" xml:space="preserve">
<g id="_x35_0_document_x2C__optimization_x2C__documentation_x2C__business_x2C__office_x2C__corporation_x2C__job">
</g>
<g id="_x34_9_human_x2C__resource_x2C__conveyor_x2C__business_x2C__office_x2C__corporation_x2C__job">
	<g>
		<path fill="#CCD1D9" d="M57.5,44.5c1.11,0,2,0.9,2,2s-0.89,2-2,2h-57v-4H57.5z"/>
		<path fill="#656D78" d="M57.5,40.5h-7h-7h-7h-7h-7h-7h-15v4h57c1.11,0,2,0.9,2,2s-0.89,2-2,2h-57v3v1h8h7h7h7h7h7h7h7
			c3.32,0,6-2.68,6-6S60.82,40.5,57.5,40.5z"/>
		<path fill="#5D9CEC" d="M54.5,31.5c1.66,0,3,1.34,3,3v4h-16v-4c0-1.66,1.34-3,3-3h2l1,1l2-1l2,1l1-1H54.5z"/>
		<g>
			<path fill="#4A89DC" d="M54.5,31.5h-2l-0.444,0.444c0.863,0.526,1.444,1.468,1.444,2.556v4h4v-4C57.5,32.84,56.16,31.5,54.5,31.5
				z"/>
		</g>
		<path fill="#F5F7FA" d="M49.5,29.5c1.07,0,2.09-0.24,3-0.68v2.68l-1,1l-2-1l-2,1l-1-1v-2.68C47.41,29.26,48.43,29.5,49.5,29.5z"/>
		<path fill="#EAC6BB" d="M56.5,20.41v2.09c0,2.8-1.63,5.2-4,6.32c-0.91,0.439-1.93,0.68-3,0.68s-2.09-0.24-3-0.68
			c-2.37-1.12-4-3.521-4-6.32v-2.09l2-1.891V18.5c0,0,2.67,1.09,5.39,1.09c2.551,0,4.37-0.97,4.591-1.09l0.02,0.01L56.5,20.41z"/>
		<path fill="#656D78" d="M56.5,19.5v0.91l-2-1.9l-0.02-0.01c-0.221,0.12-2.04,1.09-4.591,1.09c-2.72,0-5.39-1.09-5.39-1.09v0.02
			l-2,1.891V19.5c0-3.87,3.14-7,7-7C53.37,12.5,56.5,15.63,56.5,19.5z"/>
		<path fill="#D3B1A9" d="M54.48,18.5c-0.135,0.073-0.871,0.463-2.001,0.755c0.003,0.083,0.021,0.162,0.021,0.245v0.91v2.09
			c0,2.8-1.63,5.2-4,6.32c-0.319,0.154-0.656,0.274-1,0.378c0.002,0,0.004,0.001,0.006,0.001c0.293,0.088,0.595,0.154,0.901,0.205
			c0.038,0.006,0.076,0.015,0.114,0.02c0.32,0.048,0.646,0.076,0.979,0.076c1.07,0,2.09-0.24,3-0.68c2.37-1.12,4-3.521,4-6.32v-2.09
			l-2-1.9L54.48,18.5z"/>
		<path fill="#434A54" d="M49.5,12.5c-0.316,0-0.626,0.027-0.932,0.069c-0.064,0.009-0.128,0.019-0.191,0.029
			c-0.293,0.048-0.582,0.108-0.862,0.191c-0.004,0.001-0.008,0.002-0.012,0.003c2.815,0.838,4.87,3.398,4.977,6.462
			c1.13-0.292,1.866-0.682,2.001-0.755l0.02,0.01l2,1.9V19.5C56.5,15.63,53.37,12.5,49.5,12.5z"/>
		<path fill="#965353" d="M36.5,20.41l-2-1.9l-0.02-0.01c-0.221,0.12-2.04,1.09-4.591,1.09c-2.72,0-5.39-1.09-5.39-1.09v0.02
			l-2,1.891V17.5c0-3.32,2.68-6,6-6h5v3c1.66,0,3,1.34,3,3V20.41z"/>
		<g>
			<path fill="#844747" d="M33.5,14.5v-3h-4v5c1.66,0,3,0.34,3,2v0.75c1.117-0.293,1.847-0.677,1.98-0.75l0.02,0.01l2,1.9V17.5
				C36.5,15.84,35.16,14.5,33.5,14.5z"/>
		</g>
		<path fill="#EAC6BB" d="M36.5,20.41v2.09c0,2.8-1.63,5.2-4,6.32c-0.91,0.439-1.93,0.68-3,0.68s-2.09-0.24-3-0.68
			c-2.37-1.12-4-3.521-4-6.32v-2.09l2-1.891V18.5c0,0,2.67,1.09,5.39,1.09c2.551,0,4.37-0.97,4.591-1.09l0.02,0.01L36.5,20.41z"/>
		<path fill="#D3B1A9" d="M34.5,18.51l-0.02-0.01c-0.134,0.073-0.863,0.457-1.98,0.75v3.25c0,2.8-1.63,5.2-4,6.32
			c-0.319,0.154-0.656,0.274-1,0.378c0.636,0.19,1.306,0.302,2,0.302c1.07,0,2.09-0.24,3-0.68c2.37-1.12,4-3.521,4-6.32v-2.09
			L34.5,18.51z"/>
		<path fill="#656D78" d="M29.5,29.5c1.07,0,2.09-0.24,3-0.68v2.68l-1,1l-2-1l-2,1l-1-1v-2.68C27.41,29.26,28.43,29.5,29.5,29.5z"/>
		<path fill="#ED5565" d="M34.5,31.5c1.66,0,3,1.34,3,3v4h-16v-4c0-1.66,1.34-3,3-3h2l1,1l2-1l2,1l1-1H34.5z"/>
		<g>
			<path fill="#DA4453" d="M34.5,31.5h-2l-0.444,0.444c0.863,0.526,1.444,1.468,1.444,2.556v4h4v-4C37.5,32.84,36.16,31.5,34.5,31.5
				z"/>
		</g>
		<path fill="#E6E9ED" d="M14.5,31.5c1.66,0,3,1.34,3,3v4h-16v-4c0-1.66,1.34-3,3-3h2l1,1l2-1l2,1l1-1H14.5z"/>
		<g>
			<path fill="#CCD1D9" d="M14.5,31.5h-2l-0.444,0.444c0.863,0.526,1.444,1.468,1.444,2.556v4h4v-4C17.5,32.84,16.16,31.5,14.5,31.5
				z"/>
		</g>
		<path fill="#F5F7FA" d="M12.5,28.82v2.68l-1,1l-2-1l-2,1l-1-1v-2.68V28.81c0.91,0.44,1.93,0.681,3,0.681s2.09-0.24,3-0.681V28.82z
			"/>
		<path fill="#EAC6BB" d="M16.5,20.37v2.13c0,2.79-1.63,5.2-4,6.31c-0.91,0.44-1.93,0.681-3,0.681s-2.09-0.24-3-0.681
			c-2.37-1.109-4-3.52-4-6.31v-2.86c5.81,0.67,8.13-1.27,10-1.659C13.74,17.72,14.78,18.13,16.5,20.37z"/>
		<path fill="#D3B1A9" d="M12.5,17.98v4.52c0,2.79-1.63,5.2-4,6.31c-0.319,0.154-0.656,0.274-1,0.378
			c0.636,0.191,1.306,0.303,2,0.303c1.07,0,2.09-0.24,3-0.681c2.37-1.109,4-3.52,4-6.31v-2.13C14.78,18.13,13.74,17.72,12.5,17.98z"
			/>
		<path fill="#EDAB37" d="M16.5,20.37c-1.72-2.24-2.76-2.65-4-2.39l1.99-4.07c1.25,1.33,2.01,3.13,2.01,5.09V20.37z"/>
		<path fill="#FFCE54" d="M2.5,19.64c-0.32-0.04-0.65-0.08-1-0.14V19c0-4.14,3.36-7.5,7.5-7.5c2.18,0,4.14,0.93,5.49,2.41
			l-1.99,4.07C10.63,18.37,8.31,20.31,2.5,19.64z"/>
		<path fill="#F6BB42" d="M9,11.5c-0.328,0-0.65,0.026-0.967,0.069c-0.046,0.006-0.091,0.015-0.137,0.021
			c-0.306,0.048-0.606,0.108-0.898,0.189c0,0-0.001,0-0.002,0C8.36,12.156,9.569,12.9,10.49,13.91
			c1.033,1.1,1.724,2.522,1.935,4.089c0.024-0.005,0.051-0.014,0.075-0.019l1.99-4.07C13.14,12.43,11.18,11.5,9,11.5z"/>
		<path fill="#434A54" d="M22.5,41.5c0.553,0,1-0.447,1-1h-1h-1C21.5,41.053,21.947,41.5,22.5,41.5z"/>
		<path fill="#434A54" d="M29.5,41.5c0.553,0,1-0.447,1-1h-1h-1C28.5,41.053,28.947,41.5,29.5,41.5z"/>
		<path fill="#434A54" d="M36.5,41.5c0.553,0,1-0.447,1-1h-1h-1C35.5,41.053,35.947,41.5,36.5,41.5z"/>
		<path fill="#434A54" d="M43.5,41.5c0.553,0,1-0.447,1-1h-1h-1C42.5,41.053,42.947,41.5,43.5,41.5z"/>
		<path fill="#434A54" d="M50.5,41.5c0.553,0,1-0.447,1-1h-1h-1C49.5,41.053,49.947,41.5,50.5,41.5z"/>
		<path fill="#434A54" d="M57.5,41.5c0.521,0,0.937-0.403,0.982-0.913c-0.32-0.053-0.646-0.087-0.982-0.087h-1
			C56.5,41.053,56.947,41.5,57.5,41.5z"/>
		<path fill="#434A54" d="M15.5,41.5c0.553,0,1-0.447,1-1h-1h-1C14.5,41.053,14.947,41.5,15.5,41.5z"/>
		<path fill="#434A54" d="M8.5,41.5c0.553,0,1-0.447,1-1h-1h-1C7.5,41.053,7.947,41.5,8.5,41.5z"/>
		<path fill="#434A54" d="M1.5,41.5c0.553,0,1-0.447,1-1h-1h-1C0.5,41.053,0.947,41.5,1.5,41.5z"/>
		<path fill="#434A54" d="M22.5,51.5c0.553,0,1,0.447,1,1h-1h-1C21.5,51.947,21.947,51.5,22.5,51.5z"/>
		<path fill="#434A54" d="M29.5,51.5c0.553,0,1,0.447,1,1h-1h-1C28.5,51.947,28.947,51.5,29.5,51.5z"/>
		<path fill="#434A54" d="M36.5,51.5c0.553,0,1,0.447,1,1h-1h-1C35.5,51.947,35.947,51.5,36.5,51.5z"/>
		<path fill="#434A54" d="M43.5,51.5c0.553,0,1,0.447,1,1h-1h-1C42.5,51.947,42.947,51.5,43.5,51.5z"/>
		<path fill="#434A54" d="M50.5,51.5c0.553,0,1,0.447,1,1h-1h-1C49.5,51.947,49.947,51.5,50.5,51.5z"/>
		<path fill="#434A54" d="M57.5,51.5c-0.553,0-1,0.447-1,1h1c0.336,0,0.662-0.034,0.982-0.087C58.437,51.903,58.021,51.5,57.5,51.5z
			"/>
		<path fill="#434A54" d="M15.5,51.5c0.553,0,1,0.447,1,1h-1h-1C14.5,51.947,14.947,51.5,15.5,51.5z"/>
		<path fill="#434A54" d="M8.5,51.5c0.553,0,1,0.447,1,1h-1h-1C7.5,51.947,7.947,51.5,8.5,51.5z"/>
		<path fill="#434A54" d="M1.5,51.5c0.553,0,1,0.447,1,1h-1h-1C0.5,51.947,0.947,51.5,1.5,51.5z"/>
		<path fill="#434A54" d="M63.413,45.518c-0.51,0.046-0.913,0.461-0.913,0.982s0.403,0.937,0.913,0.982
			c0.053-0.32,0.087-0.646,0.087-0.982S63.466,45.838,63.413,45.518z"/>
	</g>
</g>
<g id="_x34_8_knowledge_x2C__training_x2C__growth_x2C__book_x2C__business_x2C__office_x2C__corporation">
</g>
<g id="_x34_7_skill_x2C__competence_x2C__experience_x2C__business_x2C__office_x2C__corporation_x2C__job">
</g>
<g id="_x34_6_target_x2C__success_x2C__victory_x2C__business_x2C__office_x2C__corporation_x2C__job">
</g>
<g id="_x34_5_inbox_x2C__letter_x2C__email_x2C__business_x2C__office_x2C__corporation_x2C__job">
</g>
<g id="_x34_4_document_x2C__workflow_x2C__sharing_x2C__business_x2C__office_x2C__corporation_x2C__job">
</g>
<g id="_x34_3_budget_x2C__allocation_x2C__money_x2C__business_x2C__office_x2C__corporation_x2C__job">
</g>
<g id="_x34_2_case_x2C__task_x2C__project_x2C__business_x2C__office_x2C__corporation_x2C__job">
</g>
<g id="_x34_1_structure_x2C__structuring_x2C__tasks_x2C__business_x2C__office_x2C__corporation_x2C__job">
</g>
<g id="_x34_0_choice_x2C__dilemma_x2C__question_x2C__business_x2C__office_x2C__corporation_x2C__job">
</g>
<g id="_x33_9_workplace_x2C__table_x2C__laptop_x2C__business_x2C__office_x2C__corporation_x2C__job">
</g>
<g id="_x33_8_bribe_x2C__bag_x2C__money_x2C__business_x2C__office_x2C__corporation_x2C__job">
</g>
<g id="_x33_7_corruption_x2C__forage_x2C__money_x2C__business_x2C__office_x2C__corporation_x2C__job">
</g>
<g id="_x33_6_career_x2C__ladder_x2C__success_x2C__business_x2C__office_x2C__corporation_x2C__job">
</g>
<g id="_x33_5_review_x2C__feedback_x2C__rating_x2C__business_x2C__office_x2C__corporation_x2C__job">
</g>
<g id="_x33_4_manipulation_x2C__thread_x2C__puppet_x2C__business_x2C__office_x2C__corporation_x2C__job">
</g>
<g id="_x33_3_location_x2C__map_x2C__pin_x2C__business_x2C__office_x2C__corporation_x2C__job">
</g>
<g id="_x33_2_retirement_x2C__old_x2C__man_x2C__door_x2C__business_x2C__office_x2C__corporation">
</g>
<g id="_x33_1_victory_x2C__success_x2C__medal_x2C__reward_x2C__business_x2C__office_x2C__corporation">
</g>
<g id="_x33_0_dismissal_x2C__box_x2C__door_x2C__business_x2C__office_x2C__corporation_x2C__job">
</g>
<g id="_x32_9_meeting_x2C__discussion_x2C__question_x2C__business_x2C__office_x2C__corporation_x2C__job">
</g>
<g id="_x32_8_strategy_x2C__vision_x2C__eye_x2C__chess_x2C__business_x2C__office_x2C__corporation">
</g>
<g id="_x32_7_board_x2C__task_x2C__process_x2C__business_x2C__office_x2C__corporation_x2C__job">
</g>
<g id="_x32_6_scheme_x2C__board_x2C__structure_x2C__business_x2C__office_x2C__corporation_x2C__job">
</g>
<g id="_x32_5_conflict_x2C__dialog_x2C__discussion_x2C__business_x2C__office_x2C__corporation_x2C__job">
</g>
<g id="_x32_4_documentation_x2C__document_x2C__repository_x2C__business_x2C__office_x2C__corporation_x2C__job">
</g>
<g id="_x32_3_sprint_x2C__programming_x2C__code_x2C__business_x2C__office_x2C__corporation_x2C__job">
</g>
<g id="_x32_2_cram_x2C__tablet_x2C__work_x2C__business_x2C__office_x2C__corporation_x2C__job">
</g>
<g id="_x32_1_leader_x2C__discoverer_x2C__flag_x2C__business_x2C__office_x2C__corporation_x2C__job">
</g>
<g id="_x32_0_rally_x2C__collective_x2C__arm_x2C__business_x2C__office_x2C__corporation_x2C__job">
</g>
<g id="_x31_9_consolidation_x2C__portfolio_x2C__puzzle_x2C__business_x2C__office_x2C__corporation_x2C__job">
</g>
<g id="_x31_8_idea_x2C__creative_x2C__work_x2C__business_x2C__office_x2C__corporation_x2C__job">
</g>
<g id="_x31_7_problem_x2C__stress_x2C__resistance_x2C__business_x2C__office_x2C__corporation_x2C__job">
</g>
<g id="_x31_6_hard_x2C__skills_x2C__skill_x2C__portfolio_x2C__book_x2C__business_x2C__office">
</g>
<g id="_x31_5_time_x2C__management_x2C__clock_x2C__deadline_x2C__business_x2C__office_x2C__corporation">
</g>
<g id="_x31_4_multitasking_x2C__task_x2C__work_x2C__business_x2C__office_x2C__corporation_x2C__job">
</g>
<g id="_x31_3_tranquility_x2C__yoga_x2C__lotus_x2C__posture_x2C__business_x2C__office_x2C__corporation">
</g>
<g id="_x31_2_corporate_x2C__party_x2C__business_x2C__office_x2C__corporation_x2C__job">
</g>
<g id="_x31_1_dialog_x2C__discussion_x2C__work_x2C__business_x2C__office_x2C__corporation_x2C__job">
</g>
<g id="_x31_0_listening_x2C__skill_x2C__dialog_x2C__business_x2C__office_x2C__corporation_x2C__job">
</g>
<g id="_x39__training_x2C__book_x2C__lesson_x2C__business_x2C__office_x2C__corporation_x2C__job">
</g>
<g id="_x38__dress_x2C__code_x2C__shirt_x2C__business_x2C__office_x2C__corporation_x2C__job">
</g>
<g id="_x37__task_x2C__program_x2C__ticket_x2C__business_x2C__office_x2C__corporation_x2C__job">
</g>
<g id="_x36__plan_x2C__graph_x2C__stage_x2C__business_x2C__office_x2C__corporation_x2C__job">
</g>
<g id="_x35__boss_x2C__king_x2C__crown_x2C__business_x2C__office_x2C__corporation_x2C__job">
</g>
<g id="_x34__structure_x2C__structuring_x2C__business_x2C__office_x2C__corporation_x2C__job">
</g>
<g id="_x33__soft_x2C__skills_x2C__communication_x2C__business_x2C__office_x2C__corporation_x2C__job">
</g>
<g id="_x32__office_x2C__house_x2C__portfolio_x2C__business_x2C__corporation_x2C__job">
</g>
<g id="_x31__corporate_x2C__rules_x2C__book_x2C__business_x2C__office_x2C__corporation_x2C__job">
</g>
</svg>
