<?xml version="1.0" encoding="utf-8"?>
<!-- Generator: Adobe Illustrator 16.0.0, SVG Export Plug-In . SVG Version: 6.00 Build 0)  -->
<!DOCTYPE svg PUBLIC "-//W3C//DTD SVG 1.1//EN" "http://www.w3.org/Graphics/SVG/1.1/DTD/svg11.dtd">
<svg version="1.1" xmlns="http://www.w3.org/2000/svg" xmlns:xlink="http://www.w3.org/1999/xlink" x="0px" y="0px" width="64px"
	 height="64px" viewBox="0 0 64 64" enable-background="new 0 0 64 64" xml:space="preserve">
<g id="_x35_0_document_x2C__optimization_x2C__documentation_x2C__business_x2C__office_x2C__corporation_x2C__job">
</g>
<g id="_x34_9_human_x2C__resource_x2C__conveyor_x2C__business_x2C__office_x2C__corporation_x2C__job">
</g>
<g id="_x34_8_knowledge_x2C__training_x2C__growth_x2C__book_x2C__business_x2C__office_x2C__corporation">
</g>
<g id="_x34_7_skill_x2C__competence_x2C__experience_x2C__business_x2C__office_x2C__corporation_x2C__job">
</g>
<g id="_x34_6_target_x2C__success_x2C__victory_x2C__business_x2C__office_x2C__corporation_x2C__job">
</g>
<g id="_x34_5_inbox_x2C__letter_x2C__email_x2C__business_x2C__office_x2C__corporation_x2C__job">
</g>
<g id="_x34_4_document_x2C__workflow_x2C__sharing_x2C__business_x2C__office_x2C__corporation_x2C__job">
</g>
<g id="_x34_3_budget_x2C__allocation_x2C__money_x2C__business_x2C__office_x2C__corporation_x2C__job">
</g>
<g id="_x34_2_case_x2C__task_x2C__project_x2C__business_x2C__office_x2C__corporation_x2C__job">
</g>
<g id="_x34_1_structure_x2C__structuring_x2C__tasks_x2C__business_x2C__office_x2C__corporation_x2C__job">
</g>
<g id="_x34_0_choice_x2C__dilemma_x2C__question_x2C__business_x2C__office_x2C__corporation_x2C__job">
</g>
<g id="_x33_9_workplace_x2C__table_x2C__laptop_x2C__business_x2C__office_x2C__corporation_x2C__job">
</g>
<g id="_x33_8_bribe_x2C__bag_x2C__money_x2C__business_x2C__office_x2C__corporation_x2C__job">
</g>
<g id="_x33_7_corruption_x2C__forage_x2C__money_x2C__business_x2C__office_x2C__corporation_x2C__job">
</g>
<g id="_x33_6_career_x2C__ladder_x2C__success_x2C__business_x2C__office_x2C__corporation_x2C__job">
</g>
<g id="_x33_5_review_x2C__feedback_x2C__rating_x2C__business_x2C__office_x2C__corporation_x2C__job">
</g>
<g id="_x33_4_manipulation_x2C__thread_x2C__puppet_x2C__business_x2C__office_x2C__corporation_x2C__job">
</g>
<g id="_x33_3_location_x2C__map_x2C__pin_x2C__business_x2C__office_x2C__corporation_x2C__job">
</g>
<g id="_x33_2_retirement_x2C__old_x2C__man_x2C__door_x2C__business_x2C__office_x2C__corporation">
</g>
<g id="_x33_1_victory_x2C__success_x2C__medal_x2C__reward_x2C__business_x2C__office_x2C__corporation">
</g>
<g id="_x33_0_dismissal_x2C__box_x2C__door_x2C__business_x2C__office_x2C__corporation_x2C__job">
</g>
<g id="_x32_9_meeting_x2C__discussion_x2C__question_x2C__business_x2C__office_x2C__corporation_x2C__job">
</g>
<g id="_x32_8_strategy_x2C__vision_x2C__eye_x2C__chess_x2C__business_x2C__office_x2C__corporation">
</g>
<g id="_x32_7_board_x2C__task_x2C__process_x2C__business_x2C__office_x2C__corporation_x2C__job">
</g>
<g id="_x32_6_scheme_x2C__board_x2C__structure_x2C__business_x2C__office_x2C__corporation_x2C__job">
</g>
<g id="_x32_5_conflict_x2C__dialog_x2C__discussion_x2C__business_x2C__office_x2C__corporation_x2C__job">
</g>
<g id="_x32_4_documentation_x2C__document_x2C__repository_x2C__business_x2C__office_x2C__corporation_x2C__job">
</g>
<g id="_x32_3_sprint_x2C__programming_x2C__code_x2C__business_x2C__office_x2C__corporation_x2C__job">
</g>
<g id="_x32_2_cram_x2C__tablet_x2C__work_x2C__business_x2C__office_x2C__corporation_x2C__job">
</g>
<g id="_x32_1_leader_x2C__discoverer_x2C__flag_x2C__business_x2C__office_x2C__corporation_x2C__job">
</g>
<g id="_x32_0_rally_x2C__collective_x2C__arm_x2C__business_x2C__office_x2C__corporation_x2C__job">
</g>
<g id="_x31_9_consolidation_x2C__portfolio_x2C__puzzle_x2C__business_x2C__office_x2C__corporation_x2C__job">
</g>
<g id="_x31_8_idea_x2C__creative_x2C__work_x2C__business_x2C__office_x2C__corporation_x2C__job">
</g>
<g id="_x31_7_problem_x2C__stress_x2C__resistance_x2C__business_x2C__office_x2C__corporation_x2C__job">
</g>
<g id="_x31_6_hard_x2C__skills_x2C__skill_x2C__portfolio_x2C__book_x2C__business_x2C__office">
</g>
<g id="_x31_5_time_x2C__management_x2C__clock_x2C__deadline_x2C__business_x2C__office_x2C__corporation">
</g>
<g id="_x31_4_multitasking_x2C__task_x2C__work_x2C__business_x2C__office_x2C__corporation_x2C__job">
</g>
<g id="_x31_3_tranquility_x2C__yoga_x2C__lotus_x2C__posture_x2C__business_x2C__office_x2C__corporation">
</g>
<g id="_x31_2_corporate_x2C__party_x2C__business_x2C__office_x2C__corporation_x2C__job">
</g>
<g id="_x31_1_dialog_x2C__discussion_x2C__work_x2C__business_x2C__office_x2C__corporation_x2C__job">
</g>
<g id="_x31_0_listening_x2C__skill_x2C__dialog_x2C__business_x2C__office_x2C__corporation_x2C__job">
</g>
<g id="_x39__training_x2C__book_x2C__lesson_x2C__business_x2C__office_x2C__corporation_x2C__job">
</g>
<g id="_x38__dress_x2C__code_x2C__shirt_x2C__business_x2C__office_x2C__corporation_x2C__job">
</g>
<g id="_x37__task_x2C__program_x2C__ticket_x2C__business_x2C__office_x2C__corporation_x2C__job">
</g>
<g id="_x36__plan_x2C__graph_x2C__stage_x2C__business_x2C__office_x2C__corporation_x2C__job">
</g>
<g id="_x35__boss_x2C__king_x2C__crown_x2C__business_x2C__office_x2C__corporation_x2C__job">
	<g>
		<path fill="#FFCE54" d="M41,9.995l-9-9l-9,9l-6-3v11v2v1h30v-1v-2v-11L41,9.995z"/>
		<g>
			<polygon fill="#F6BB42" points="43,8.995 43,17.995 43,19.995 43,20.995 47,20.995 47,19.995 47,17.995 47,6.995 			"/>
		</g>
		<path fill="#434A54" d="M54,55.005v7c0,0.55-0.45,1-1,1H35l6-8l-2-2l4-4l-2-2h5C50.42,47.005,54,50.585,54,55.005z"/>
		<path fill="#353B44" d="M46,47.005h-4c4.42,0,8,3.58,8,8v7c0,0.55-0.45,1-1,1h4c0.55,0,1-0.45,1-1v-7
			C54,50.585,50.42,47.005,46,47.005z"/>
		<polygon fill="#ED5565" points="34,10.995 34,11.995 33,13.995 31,13.995 30,11.995 30,10.995 31,8.995 33,8.995 		"/>
		<path fill="#EAC6BB" d="M47,20.995v4.99c-1.66,0-3,1.35-3,3c0,4.979-4.03,9-9,9l-1-1h-4l-1,1c-4.98,0-9-4.021-9-9
			c0-1.65-1.34-3-3-3v-4.99H47z"/>
		<path fill="#965353" d="M20,28.985c0,4.979,4.02,9,9,9l1-1h4l1,1c4.97,0,9-4.021,9-9c0-1.65,1.34-3,3-3v2.01
			c0,5.76-3.25,10.76-8.01,13.27c-2.09,1.11-4.471,1.73-6.99,1.73c-2.521,0-4.9-0.62-6.99-1.73c-4.77-2.51-8.01-7.51-8.01-13.27
			v-2.01C18.66,25.985,20,27.335,20,28.985z"/>
		<path fill="#D3B1A9" d="M43,20.995v4.99v2.01c0,2.916-0.836,5.637-2.276,7.938C42.725,34.284,44,31.787,44,28.985
			c0-1.65,1.34-3,3-3v-4.99H43z"/>
		<path fill="#844747" d="M44,28.985c0,2.802-1.275,5.299-3.276,6.948c-1.404,2.244-3.384,4.092-5.733,5.331
			c-1.527,0.812-3.212,1.357-4.99,1.595c0.324,0.043,0.651,0.076,0.98,0.1c0.004,0,0.008,0.001,0.012,0.001
			c0.333,0.023,0.669,0.035,1.008,0.035c2.52,0,4.9-0.62,6.99-1.73c4.76-2.51,8.01-7.51,8.01-13.27v-2.01
			C45.34,25.985,44,27.335,44,28.985z"/>
		<path fill="#F5F7FA" d="M39,41.275v3.729l-1.561,4L35,47.665l-3-1.66l-3,1.66l-2.44,1.34l-1.56-4v-3.729l0.01-0.011
			c2.09,1.11,4.47,1.73,6.99,1.73c2.52,0,4.9-0.62,6.99-1.73L39,41.275z"/>
		<polygon fill="#E6E9ED" points="29,47.665 31,50.005 28.89,55.005 26.56,49.005 		"/>
		<polygon fill="#E6E9ED" points="37.439,49.005 35.11,55.005 33,50.005 35,47.665 		"/>
		<polygon fill="#ED5565" points="32,46.005 35,47.665 33,50.005 31,50.005 29,47.665 		"/>
		<polygon fill="#DA4453" points="33,50.005 35.11,55.005 32,63.005 28.89,55.005 31,50.005 		"/>
		<polygon fill="#656D78" points="41,47.005 43,49.005 39,53.005 41,55.005 35,63.005 32,63.005 35.11,55.005 37.439,49.005 
			39,45.005 		"/>
		<polygon fill="#656D78" points="26.56,49.005 28.89,55.005 32,63.005 29,63.005 23,55.005 25,53.005 21,49.005 23,47.005 
			25,45.005 		"/>
		<path fill="#434A54" d="M23,55.005l6,8H11c-0.55,0-1-0.45-1-1v-7c0-4.42,3.58-8,8-8h5l-2,2l4,4L23,55.005z"/>
		<polygon fill="#F6BB42" points="47,16.995 17,16.995 17,17.995 17,18.994 47,18.994 47,17.995 		"/>
		<g>
			<path fill="#F6BB42" d="M47.03,5.995c-0.553,0-1.005-0.448-1.005-1s0.442-1,0.994-1h0.011c0.552,0,1,0.448,1,1
				S47.582,5.995,47.03,5.995z"/>
		</g>
		<g>
			<path fill="#FFCE54" d="M17.03,5.995c-0.553,0-1.005-0.448-1.005-1s0.442-1,0.994-1h0.011c0.552,0,1,0.448,1,1
				S17.582,5.995,17.03,5.995z"/>
		</g>
	</g>
</g>
<g id="_x34__structure_x2C__structuring_x2C__business_x2C__office_x2C__corporation_x2C__job">
</g>
<g id="_x33__soft_x2C__skills_x2C__communication_x2C__business_x2C__office_x2C__corporation_x2C__job">
</g>
<g id="_x32__office_x2C__house_x2C__portfolio_x2C__business_x2C__corporation_x2C__job">
</g>
<g id="_x31__corporate_x2C__rules_x2C__book_x2C__business_x2C__office_x2C__corporation_x2C__job">
</g>
</svg>
