<?xml version="1.0" encoding="utf-8"?>
<!-- Generator: Adobe Illustrator 16.0.0, SVG Export Plug-In . SVG Version: 6.00 Build 0)  -->
<!DOCTYPE svg PUBLIC "-//W3C//DTD SVG 1.1//EN" "http://www.w3.org/Graphics/SVG/1.1/DTD/svg11.dtd">
<svg version="1.1" xmlns="http://www.w3.org/2000/svg" xmlns:xlink="http://www.w3.org/1999/xlink" x="0px" y="0px" width="64px"
	 height="64px" viewBox="0 0 64 64" enable-background="new 0 0 64 64" xml:space="preserve">
<g id="_x35_0_document_x2C__optimization_x2C__documentation_x2C__business_x2C__office_x2C__corporation_x2C__job">
	<g>
		<g>
			<path fill="#FFCE54" d="M57.998,15.998h-1c-0.553,0-1,0.447-1,1s0.447,1,1,1h1c0.561,0,1,0.439,1,1v12c0,0.553,0.447,1,1,1
				s1-0.447,1-1v-12C60.998,17.344,59.652,15.998,57.998,15.998z"/>
			<polygon fill="#FFCE54" points="57.998,47.995 57.998,49.995 55.998,52.995 53.998,49.995 53.998,47.995 			"/>
			<path fill="#656D78" d="M55.998,13.995c-1.1,0-2,0.891-2,2v10v22h4v-22v-9v-1C57.998,14.886,57.098,13.995,55.998,13.995z"/>
			<polygon fill="#FFCE54" points="57.998,24.998 53.998,24.998 53.998,25.995 53.998,26.998 57.998,26.998 57.998,25.995 			"/>
		</g>
		<g>
			<polygon fill="#AAB2BD" points="6.002,60 42.99,60 43.002,62.99 3.002,62.99 3.002,6.99 5.99,7 6.002,7 			"/>
			<polygon fill="#CCD1D9" points="8.99,57.01 45.99,57.01 46.002,60 42.99,60 6.002,60 6.002,7 6.002,4 8.99,4.01 			"/>
			<path fill="#E6E9ED" d="M48.99,6.99v50.02h-3h-37v-53v-3h34v5.859V6.99H48.99z"/>
			<polygon fill="#F5F7FA" points="48.99,6.99 42.99,6.99 42.99,6.869 42.99,1.01 			"/>
			<path fill="#DA4453" d="M28.99,15.99c-3.309,0-6,2.689-6,6c0,3.32,2.691,6,6,6c3.32,0,6-2.68,6-6
				C34.99,18.68,32.311,15.99,28.99,15.99z M28.99,24.99c-1.648,0-3-1.34-3-3c0-1.65,1.352-3,3-3c1.66,0,3,1.35,3,3
				C31.99,23.65,30.65,24.99,28.99,24.99z"/>
			<path fill="#ED5565" d="M41.99,18.99v6h-1.898c-0.271,0.969-0.641,1.879-1.131,2.73l1.35,1.35l-4.25,4.24l-1.34-1.352
				c-0.85,0.49-1.76,0.871-2.73,1.131v1.9h-6v-1.9c-0.959-0.27-1.869-0.641-2.719-1.131l-1.35,1.352l-4.24-4.24l1.35-1.35
				c-0.49-0.852-0.871-1.762-1.131-2.73h-1.91v-6h1.91c0.26-0.961,0.641-1.871,1.131-2.721l-1.35-1.35l4.24-4.24l1.35,1.35
				c0.85-0.49,1.76-0.869,2.719-1.129V8.99h6v1.91c0.971,0.26,1.881,0.639,2.73,1.129l1.34-1.35l4.25,4.24l-1.35,1.35
				c0.49,0.85,0.859,1.76,1.131,2.721H41.99z M34.99,21.99c0-3.311-2.68-6-6-6c-3.309,0-6,2.689-6,6c0,3.32,2.691,6,6,6
				C32.311,27.99,34.99,25.311,34.99,21.99z"/>
		</g>
		<g>
			<g>
				<path fill="#AAB2BD" d="M41.002,41.994h-24c-0.553,0-1-0.447-1-1s0.447-1,1-1h24c0.553,0,1,0.447,1,1
					S41.555,41.994,41.002,41.994z"/>
			</g>
			<g>
				<path fill="#AAB2BD" d="M41.002,45.994h-24c-0.553,0-1-0.447-1-1s0.447-1,1-1h24c0.553,0,1,0.447,1,1
					S41.555,45.994,41.002,45.994z"/>
			</g>
			<g>
				<path fill="#AAB2BD" d="M35.002,49.994h-12c-0.553,0-1-0.447-1-1s0.447-1,1-1h12c0.553,0,1,0.447,1,1
					S35.555,49.994,35.002,49.994z"/>
			</g>
		</g>
	</g>
</g>
<g id="_x34_9_human_x2C__resource_x2C__conveyor_x2C__business_x2C__office_x2C__corporation_x2C__job">
</g>
<g id="_x34_8_knowledge_x2C__training_x2C__growth_x2C__book_x2C__business_x2C__office_x2C__corporation">
</g>
<g id="_x34_7_skill_x2C__competence_x2C__experience_x2C__business_x2C__office_x2C__corporation_x2C__job">
</g>
<g id="_x34_6_target_x2C__success_x2C__victory_x2C__business_x2C__office_x2C__corporation_x2C__job">
</g>
<g id="_x34_5_inbox_x2C__letter_x2C__email_x2C__business_x2C__office_x2C__corporation_x2C__job">
</g>
<g id="_x34_4_document_x2C__workflow_x2C__sharing_x2C__business_x2C__office_x2C__corporation_x2C__job">
</g>
<g id="_x34_3_budget_x2C__allocation_x2C__money_x2C__business_x2C__office_x2C__corporation_x2C__job">
</g>
<g id="_x34_2_case_x2C__task_x2C__project_x2C__business_x2C__office_x2C__corporation_x2C__job">
</g>
<g id="_x34_1_structure_x2C__structuring_x2C__tasks_x2C__business_x2C__office_x2C__corporation_x2C__job">
</g>
<g id="_x34_0_choice_x2C__dilemma_x2C__question_x2C__business_x2C__office_x2C__corporation_x2C__job">
</g>
<g id="_x33_9_workplace_x2C__table_x2C__laptop_x2C__business_x2C__office_x2C__corporation_x2C__job">
</g>
<g id="_x33_8_bribe_x2C__bag_x2C__money_x2C__business_x2C__office_x2C__corporation_x2C__job">
</g>
<g id="_x33_7_corruption_x2C__forage_x2C__money_x2C__business_x2C__office_x2C__corporation_x2C__job">
</g>
<g id="_x33_6_career_x2C__ladder_x2C__success_x2C__business_x2C__office_x2C__corporation_x2C__job">
</g>
<g id="_x33_5_review_x2C__feedback_x2C__rating_x2C__business_x2C__office_x2C__corporation_x2C__job">
</g>
<g id="_x33_4_manipulation_x2C__thread_x2C__puppet_x2C__business_x2C__office_x2C__corporation_x2C__job">
</g>
<g id="_x33_3_location_x2C__map_x2C__pin_x2C__business_x2C__office_x2C__corporation_x2C__job">
</g>
<g id="_x33_2_retirement_x2C__old_x2C__man_x2C__door_x2C__business_x2C__office_x2C__corporation">
</g>
<g id="_x33_1_victory_x2C__success_x2C__medal_x2C__reward_x2C__business_x2C__office_x2C__corporation">
</g>
<g id="_x33_0_dismissal_x2C__box_x2C__door_x2C__business_x2C__office_x2C__corporation_x2C__job">
</g>
<g id="_x32_9_meeting_x2C__discussion_x2C__question_x2C__business_x2C__office_x2C__corporation_x2C__job">
</g>
<g id="_x32_8_strategy_x2C__vision_x2C__eye_x2C__chess_x2C__business_x2C__office_x2C__corporation">
</g>
<g id="_x32_7_board_x2C__task_x2C__process_x2C__business_x2C__office_x2C__corporation_x2C__job">
</g>
<g id="_x32_6_scheme_x2C__board_x2C__structure_x2C__business_x2C__office_x2C__corporation_x2C__job">
</g>
<g id="_x32_5_conflict_x2C__dialog_x2C__discussion_x2C__business_x2C__office_x2C__corporation_x2C__job">
</g>
<g id="_x32_4_documentation_x2C__document_x2C__repository_x2C__business_x2C__office_x2C__corporation_x2C__job">
</g>
<g id="_x32_3_sprint_x2C__programming_x2C__code_x2C__business_x2C__office_x2C__corporation_x2C__job">
</g>
<g id="_x32_2_cram_x2C__tablet_x2C__work_x2C__business_x2C__office_x2C__corporation_x2C__job">
</g>
<g id="_x32_1_leader_x2C__discoverer_x2C__flag_x2C__business_x2C__office_x2C__corporation_x2C__job">
</g>
<g id="_x32_0_rally_x2C__collective_x2C__arm_x2C__business_x2C__office_x2C__corporation_x2C__job">
</g>
<g id="_x31_9_consolidation_x2C__portfolio_x2C__puzzle_x2C__business_x2C__office_x2C__corporation_x2C__job">
</g>
<g id="_x31_8_idea_x2C__creative_x2C__work_x2C__business_x2C__office_x2C__corporation_x2C__job">
</g>
<g id="_x31_7_problem_x2C__stress_x2C__resistance_x2C__business_x2C__office_x2C__corporation_x2C__job">
</g>
<g id="_x31_6_hard_x2C__skills_x2C__skill_x2C__portfolio_x2C__book_x2C__business_x2C__office">
</g>
<g id="_x31_5_time_x2C__management_x2C__clock_x2C__deadline_x2C__business_x2C__office_x2C__corporation">
</g>
<g id="_x31_4_multitasking_x2C__task_x2C__work_x2C__business_x2C__office_x2C__corporation_x2C__job">
</g>
<g id="_x31_3_tranquility_x2C__yoga_x2C__lotus_x2C__posture_x2C__business_x2C__office_x2C__corporation">
</g>
<g id="_x31_2_corporate_x2C__party_x2C__business_x2C__office_x2C__corporation_x2C__job">
</g>
<g id="_x31_1_dialog_x2C__discussion_x2C__work_x2C__business_x2C__office_x2C__corporation_x2C__job">
</g>
<g id="_x31_0_listening_x2C__skill_x2C__dialog_x2C__business_x2C__office_x2C__corporation_x2C__job">
</g>
<g id="_x39__training_x2C__book_x2C__lesson_x2C__business_x2C__office_x2C__corporation_x2C__job">
</g>
<g id="_x38__dress_x2C__code_x2C__shirt_x2C__business_x2C__office_x2C__corporation_x2C__job">
</g>
<g id="_x37__task_x2C__program_x2C__ticket_x2C__business_x2C__office_x2C__corporation_x2C__job">
</g>
<g id="_x36__plan_x2C__graph_x2C__stage_x2C__business_x2C__office_x2C__corporation_x2C__job">
</g>
<g id="_x35__boss_x2C__king_x2C__crown_x2C__business_x2C__office_x2C__corporation_x2C__job">
</g>
<g id="_x34__structure_x2C__structuring_x2C__business_x2C__office_x2C__corporation_x2C__job">
</g>
<g id="_x33__soft_x2C__skills_x2C__communication_x2C__business_x2C__office_x2C__corporation_x2C__job">
</g>
<g id="_x32__office_x2C__house_x2C__portfolio_x2C__business_x2C__corporation_x2C__job">
</g>
<g id="_x31__corporate_x2C__rules_x2C__book_x2C__business_x2C__office_x2C__corporation_x2C__job">
</g>
</svg>
