<?xml version="1.0" encoding="utf-8"?>
<!-- Generator: Adobe Illustrator 16.0.0, SVG Export Plug-In . SVG Version: 6.00 Build 0)  -->
<!DOCTYPE svg PUBLIC "-//W3C//DTD SVG 1.1//EN" "http://www.w3.org/Graphics/SVG/1.1/DTD/svg11.dtd">
<svg version="1.1" xmlns="http://www.w3.org/2000/svg" xmlns:xlink="http://www.w3.org/1999/xlink" x="0px" y="0px" width="64px"
	 height="64px" viewBox="0 0 64 64" enable-background="new 0 0 64 64" xml:space="preserve">
<g id="_x35_0_document_x2C__optimization_x2C__documentation_x2C__business_x2C__office_x2C__corporation_x2C__job">
</g>
<g id="_x34_9_human_x2C__resource_x2C__conveyor_x2C__business_x2C__office_x2C__corporation_x2C__job">
</g>
<g id="_x34_8_knowledge_x2C__training_x2C__growth_x2C__book_x2C__business_x2C__office_x2C__corporation">
</g>
<g id="_x34_7_skill_x2C__competence_x2C__experience_x2C__business_x2C__office_x2C__corporation_x2C__job">
</g>
<g id="_x34_6_target_x2C__success_x2C__victory_x2C__business_x2C__office_x2C__corporation_x2C__job">
</g>
<g id="_x34_5_inbox_x2C__letter_x2C__email_x2C__business_x2C__office_x2C__corporation_x2C__job">
</g>
<g id="_x34_4_document_x2C__workflow_x2C__sharing_x2C__business_x2C__office_x2C__corporation_x2C__job">
</g>
<g id="_x34_3_budget_x2C__allocation_x2C__money_x2C__business_x2C__office_x2C__corporation_x2C__job">
</g>
<g id="_x34_2_case_x2C__task_x2C__project_x2C__business_x2C__office_x2C__corporation_x2C__job">
</g>
<g id="_x34_1_structure_x2C__structuring_x2C__tasks_x2C__business_x2C__office_x2C__corporation_x2C__job">
</g>
<g id="_x34_0_choice_x2C__dilemma_x2C__question_x2C__business_x2C__office_x2C__corporation_x2C__job">
</g>
<g id="_x33_9_workplace_x2C__table_x2C__laptop_x2C__business_x2C__office_x2C__corporation_x2C__job">
</g>
<g id="_x33_8_bribe_x2C__bag_x2C__money_x2C__business_x2C__office_x2C__corporation_x2C__job">
</g>
<g id="_x33_7_corruption_x2C__forage_x2C__money_x2C__business_x2C__office_x2C__corporation_x2C__job">
</g>
<g id="_x33_6_career_x2C__ladder_x2C__success_x2C__business_x2C__office_x2C__corporation_x2C__job">
</g>
<g id="_x33_5_review_x2C__feedback_x2C__rating_x2C__business_x2C__office_x2C__corporation_x2C__job">
</g>
<g id="_x33_4_manipulation_x2C__thread_x2C__puppet_x2C__business_x2C__office_x2C__corporation_x2C__job">
</g>
<g id="_x33_3_location_x2C__map_x2C__pin_x2C__business_x2C__office_x2C__corporation_x2C__job">
</g>
<g id="_x33_2_retirement_x2C__old_x2C__man_x2C__door_x2C__business_x2C__office_x2C__corporation">
</g>
<g id="_x33_1_victory_x2C__success_x2C__medal_x2C__reward_x2C__business_x2C__office_x2C__corporation">
</g>
<g id="_x33_0_dismissal_x2C__box_x2C__door_x2C__business_x2C__office_x2C__corporation_x2C__job">
</g>
<g id="_x32_9_meeting_x2C__discussion_x2C__question_x2C__business_x2C__office_x2C__corporation_x2C__job">
</g>
<g id="_x32_8_strategy_x2C__vision_x2C__eye_x2C__chess_x2C__business_x2C__office_x2C__corporation">
</g>
<g id="_x32_7_board_x2C__task_x2C__process_x2C__business_x2C__office_x2C__corporation_x2C__job">
</g>
<g id="_x32_6_scheme_x2C__board_x2C__structure_x2C__business_x2C__office_x2C__corporation_x2C__job">
</g>
<g id="_x32_5_conflict_x2C__dialog_x2C__discussion_x2C__business_x2C__office_x2C__corporation_x2C__job">
</g>
<g id="_x32_4_documentation_x2C__document_x2C__repository_x2C__business_x2C__office_x2C__corporation_x2C__job">
</g>
<g id="_x32_3_sprint_x2C__programming_x2C__code_x2C__business_x2C__office_x2C__corporation_x2C__job">
</g>
<g id="_x32_2_cram_x2C__tablet_x2C__work_x2C__business_x2C__office_x2C__corporation_x2C__job">
</g>
<g id="_x32_1_leader_x2C__discoverer_x2C__flag_x2C__business_x2C__office_x2C__corporation_x2C__job">
</g>
<g id="_x32_0_rally_x2C__collective_x2C__arm_x2C__business_x2C__office_x2C__corporation_x2C__job">
</g>
<g id="_x31_9_consolidation_x2C__portfolio_x2C__puzzle_x2C__business_x2C__office_x2C__corporation_x2C__job">
</g>
<g id="_x31_8_idea_x2C__creative_x2C__work_x2C__business_x2C__office_x2C__corporation_x2C__job">
</g>
<g id="_x31_7_problem_x2C__stress_x2C__resistance_x2C__business_x2C__office_x2C__corporation_x2C__job">
</g>
<g id="_x31_6_hard_x2C__skills_x2C__skill_x2C__portfolio_x2C__book_x2C__business_x2C__office">
</g>
<g id="_x31_5_time_x2C__management_x2C__clock_x2C__deadline_x2C__business_x2C__office_x2C__corporation">
</g>
<g id="_x31_4_multitasking_x2C__task_x2C__work_x2C__business_x2C__office_x2C__corporation_x2C__job">
</g>
<g id="_x31_3_tranquility_x2C__yoga_x2C__lotus_x2C__posture_x2C__business_x2C__office_x2C__corporation">
</g>
<g id="_x31_2_corporate_x2C__party_x2C__business_x2C__office_x2C__corporation_x2C__job">
</g>
<g id="_x31_1_dialog_x2C__discussion_x2C__work_x2C__business_x2C__office_x2C__corporation_x2C__job">
</g>
<g id="_x31_0_listening_x2C__skill_x2C__dialog_x2C__business_x2C__office_x2C__corporation_x2C__job">
</g>
<g id="_x39__training_x2C__book_x2C__lesson_x2C__business_x2C__office_x2C__corporation_x2C__job">
	<g>
		<path fill="#656D78" d="M48.258,20.471c0.081,0.02,0.163,0.029,0.243,0.029c0.448,0,0.855-0.303,0.969-0.758l1-4
			c0.135-0.535-0.191-1.078-0.728-1.213c-0.536-0.137-1.079,0.192-1.212,0.729l-1,4C47.396,19.793,47.722,20.336,48.258,20.471z"/>
		<path fill="#ED5565" d="M50.5,18.5c2.76,0,5,2.24,5,5s-2.24,7-5,7h-1c-0.55,0-1-0.45-1-1c0,0.55-0.45,1-1,1h-1c-2.76,0-5-4.24-5-7
			s2.24-5,5-5h1c0.37,0,0.71,0.109,1,0.279c0.29-0.17,0.63-0.279,1-0.279H50.5z"/>
		<path fill="#E6E9ED" d="M61.5,43.5v10h-22c-2.76,0-5-2.24-5-5s2.24-5,5-5H61.5z"/>
		<path fill="#E6E9ED" d="M56.5,32.5c2.21,0,4,1.79,4,4s-1.79,4-4,4h-18v-8H56.5z"/>
		<path fill="#965353" d="M7.5,20.5l-3,3v-5c0-4.971,4.03-9,9-9h8v4c2.76,0,5,2.24,5,5v5l-3-3c0,0-3.71,2-8,2S7.5,20.5,7.5,20.5z"/>
		<path fill="#844747" d="M21.5,13.5v-4h-4v6c2.76,0,5,1.24,5,4v1.467c0.634-0.27,1-0.467,1-0.467l3,3v-5
			C26.5,15.74,24.26,13.5,21.5,13.5z"/>
		<path fill="#EAC6BB" d="M26.5,23.5v4c0,4.27-2.44,7.98-6,9.8c-1.5,0.771-3.2,1.2-5,1.2s-3.5-0.43-5-1.2c-3.56-1.819-6-5.53-6-9.8
			v-4l3-3c0,0,3.71,2,8,2s8-2,8-2L26.5,23.5z"/>
		<path fill="#D3B1A9" d="M23.5,20.5c0,0-0.366,0.197-1,0.467V27.5c0,4.27-2.44,7.98-6,9.8c-0.929,0.478-1.941,0.806-3,0.999
			c0.65,0.12,1.314,0.201,2,0.201c1.8,0,3.5-0.43,5-1.2c3.56-1.819,6-5.53,6-9.8v-4L23.5,20.5z"/>
		<path fill="#F5F7FA" d="M15.5,41.5l-3,1l-2-2v-3.2c1.5,0.771,3.2,1.2,5,1.2s3.5-0.43,5-1.2v3.2l-2,2L15.5,41.5z"/>
		<path fill="#5D9CEC" d="M12.5,42.5l3-1l3,1l2-2h4c3.32,0,6,2.68,6,6v0.29v5.71c0,1.109-0.89,2-2,2h-26c-1.11,0-2-0.891-2-2v-5.71
			V46.5c0-3.32,2.68-6,6-6h4L12.5,42.5z"/>
		<g>
			<path fill="#4A89DC" d="M24.5,40.5h-4c3.32,0,6,2.68,6,6v0.29v5.71c0,1.109-0.89,2-2,2h4c1.11,0,2-0.891,2-2v-5.71V46.5
				C30.5,43.18,27.82,40.5,24.5,40.5z"/>
		</g>
		<path fill="#F5F7FA" d="M15.53,45.5H15.52c-0.552,0-0.994,0.447-0.994,1s0.452,1,1.005,1c0.552,0,1-0.447,1-1
			S16.082,45.5,15.53,45.5z"/>
		<path fill="#F5F7FA" d="M15.53,49.5H15.52c-0.552,0-0.994,0.447-0.994,1s0.452,1,1.005,1c0.552,0,1-0.447,1-1
			S16.082,49.5,15.53,49.5z"/>
		<path fill="#ED5565" d="M62.5,52.5h-23c-2.206,0-4-1.794-4-4s1.794-4,4-4h23c0.553,0,1-0.447,1-1s-0.447-1-1-1h-23
			c-3.309,0-6,2.691-6,6s2.691,6,6,6h23c0.553,0,1-0.447,1-1S63.053,52.5,62.5,52.5z"/>
		<path fill="#5D9CEC" d="M56.5,39.5h-19c-0.553,0-1,0.447-1,1s0.447,1,1,1h19c2.757,0,5-2.243,5-5s-2.243-5-5-5h-19
			c-0.553,0-1,0.447-1,1s0.447,1,1,1h19c1.654,0,3,1.346,3,3S58.154,39.5,56.5,39.5z"/>
	</g>
</g>
<g id="_x38__dress_x2C__code_x2C__shirt_x2C__business_x2C__office_x2C__corporation_x2C__job">
</g>
<g id="_x37__task_x2C__program_x2C__ticket_x2C__business_x2C__office_x2C__corporation_x2C__job">
</g>
<g id="_x36__plan_x2C__graph_x2C__stage_x2C__business_x2C__office_x2C__corporation_x2C__job">
</g>
<g id="_x35__boss_x2C__king_x2C__crown_x2C__business_x2C__office_x2C__corporation_x2C__job">
</g>
<g id="_x34__structure_x2C__structuring_x2C__business_x2C__office_x2C__corporation_x2C__job">
</g>
<g id="_x33__soft_x2C__skills_x2C__communication_x2C__business_x2C__office_x2C__corporation_x2C__job">
</g>
<g id="_x32__office_x2C__house_x2C__portfolio_x2C__business_x2C__corporation_x2C__job">
</g>
<g id="_x31__corporate_x2C__rules_x2C__book_x2C__business_x2C__office_x2C__corporation_x2C__job">
</g>
</svg>
