<?xml version="1.0" encoding="utf-8"?>
<!-- Generator: Adobe Illustrator 16.0.0, SVG Export Plug-In . SVG Version: 6.00 Build 0)  -->
<!DOCTYPE svg PUBLIC "-//W3C//DTD SVG 1.1//EN" "http://www.w3.org/Graphics/SVG/1.1/DTD/svg11.dtd">
<svg version="1.1" xmlns="http://www.w3.org/2000/svg" xmlns:xlink="http://www.w3.org/1999/xlink" x="0px" y="0px" width="64px"
	 height="64px" viewBox="0 0 64 64" enable-background="new 0 0 64 64" xml:space="preserve">
<g id="_x35_0_document_x2C__optimization_x2C__documentation_x2C__business_x2C__office_x2C__corporation_x2C__job">
</g>
<g id="_x34_9_human_x2C__resource_x2C__conveyor_x2C__business_x2C__office_x2C__corporation_x2C__job">
</g>
<g id="_x34_8_knowledge_x2C__training_x2C__growth_x2C__book_x2C__business_x2C__office_x2C__corporation">
</g>
<g id="_x34_7_skill_x2C__competence_x2C__experience_x2C__business_x2C__office_x2C__corporation_x2C__job">
</g>
<g id="_x34_6_target_x2C__success_x2C__victory_x2C__business_x2C__office_x2C__corporation_x2C__job">
</g>
<g id="_x34_5_inbox_x2C__letter_x2C__email_x2C__business_x2C__office_x2C__corporation_x2C__job">
</g>
<g id="_x34_4_document_x2C__workflow_x2C__sharing_x2C__business_x2C__office_x2C__corporation_x2C__job">
</g>
<g id="_x34_3_budget_x2C__allocation_x2C__money_x2C__business_x2C__office_x2C__corporation_x2C__job">
</g>
<g id="_x34_2_case_x2C__task_x2C__project_x2C__business_x2C__office_x2C__corporation_x2C__job">
</g>
<g id="_x34_1_structure_x2C__structuring_x2C__tasks_x2C__business_x2C__office_x2C__corporation_x2C__job">
</g>
<g id="_x34_0_choice_x2C__dilemma_x2C__question_x2C__business_x2C__office_x2C__corporation_x2C__job">
</g>
<g id="_x33_9_workplace_x2C__table_x2C__laptop_x2C__business_x2C__office_x2C__corporation_x2C__job">
</g>
<g id="_x33_8_bribe_x2C__bag_x2C__money_x2C__business_x2C__office_x2C__corporation_x2C__job">
</g>
<g id="_x33_7_corruption_x2C__forage_x2C__money_x2C__business_x2C__office_x2C__corporation_x2C__job">
</g>
<g id="_x33_6_career_x2C__ladder_x2C__success_x2C__business_x2C__office_x2C__corporation_x2C__job">
</g>
<g id="_x33_5_review_x2C__feedback_x2C__rating_x2C__business_x2C__office_x2C__corporation_x2C__job">
</g>
<g id="_x33_4_manipulation_x2C__thread_x2C__puppet_x2C__business_x2C__office_x2C__corporation_x2C__job">
</g>
<g id="_x33_3_location_x2C__map_x2C__pin_x2C__business_x2C__office_x2C__corporation_x2C__job">
</g>
<g id="_x33_2_retirement_x2C__old_x2C__man_x2C__door_x2C__business_x2C__office_x2C__corporation">
</g>
<g id="_x33_1_victory_x2C__success_x2C__medal_x2C__reward_x2C__business_x2C__office_x2C__corporation">
</g>
<g id="_x33_0_dismissal_x2C__box_x2C__door_x2C__business_x2C__office_x2C__corporation_x2C__job">
</g>
<g id="_x32_9_meeting_x2C__discussion_x2C__question_x2C__business_x2C__office_x2C__corporation_x2C__job">
</g>
<g id="_x32_8_strategy_x2C__vision_x2C__eye_x2C__chess_x2C__business_x2C__office_x2C__corporation">
</g>
<g id="_x32_7_board_x2C__task_x2C__process_x2C__business_x2C__office_x2C__corporation_x2C__job">
</g>
<g id="_x32_6_scheme_x2C__board_x2C__structure_x2C__business_x2C__office_x2C__corporation_x2C__job">
</g>
<g id="_x32_5_conflict_x2C__dialog_x2C__discussion_x2C__business_x2C__office_x2C__corporation_x2C__job">
</g>
<g id="_x32_4_documentation_x2C__document_x2C__repository_x2C__business_x2C__office_x2C__corporation_x2C__job">
</g>
<g id="_x32_3_sprint_x2C__programming_x2C__code_x2C__business_x2C__office_x2C__corporation_x2C__job">
</g>
<g id="_x32_2_cram_x2C__tablet_x2C__work_x2C__business_x2C__office_x2C__corporation_x2C__job">
</g>
<g id="_x32_1_leader_x2C__discoverer_x2C__flag_x2C__business_x2C__office_x2C__corporation_x2C__job">
</g>
<g id="_x32_0_rally_x2C__collective_x2C__arm_x2C__business_x2C__office_x2C__corporation_x2C__job">
</g>
<g id="_x31_9_consolidation_x2C__portfolio_x2C__puzzle_x2C__business_x2C__office_x2C__corporation_x2C__job">
</g>
<g id="_x31_8_idea_x2C__creative_x2C__work_x2C__business_x2C__office_x2C__corporation_x2C__job">
</g>
<g id="_x31_7_problem_x2C__stress_x2C__resistance_x2C__business_x2C__office_x2C__corporation_x2C__job">
</g>
<g id="_x31_6_hard_x2C__skills_x2C__skill_x2C__portfolio_x2C__book_x2C__business_x2C__office">
</g>
<g id="_x31_5_time_x2C__management_x2C__clock_x2C__deadline_x2C__business_x2C__office_x2C__corporation">
</g>
<g id="_x31_4_multitasking_x2C__task_x2C__work_x2C__business_x2C__office_x2C__corporation_x2C__job">
</g>
<g id="_x31_3_tranquility_x2C__yoga_x2C__lotus_x2C__posture_x2C__business_x2C__office_x2C__corporation">
</g>
<g id="_x31_2_corporate_x2C__party_x2C__business_x2C__office_x2C__corporation_x2C__job">
</g>
<g id="_x31_1_dialog_x2C__discussion_x2C__work_x2C__business_x2C__office_x2C__corporation_x2C__job">
</g>
<g id="_x31_0_listening_x2C__skill_x2C__dialog_x2C__business_x2C__office_x2C__corporation_x2C__job">
</g>
<g id="_x39__training_x2C__book_x2C__lesson_x2C__business_x2C__office_x2C__corporation_x2C__job">
</g>
<g id="_x38__dress_x2C__code_x2C__shirt_x2C__business_x2C__office_x2C__corporation_x2C__job">
</g>
<g id="_x37__task_x2C__program_x2C__ticket_x2C__business_x2C__office_x2C__corporation_x2C__job">
</g>
<g id="_x36__plan_x2C__graph_x2C__stage_x2C__business_x2C__office_x2C__corporation_x2C__job">
</g>
<g id="_x35__boss_x2C__king_x2C__crown_x2C__business_x2C__office_x2C__corporation_x2C__job">
</g>
<g id="_x34__structure_x2C__structuring_x2C__business_x2C__office_x2C__corporation_x2C__job">
</g>
<g id="_x33__soft_x2C__skills_x2C__communication_x2C__business_x2C__office_x2C__corporation_x2C__job">
</g>
<g id="_x32__office_x2C__house_x2C__portfolio_x2C__business_x2C__corporation_x2C__job">
</g>
<g id="_x31__corporate_x2C__rules_x2C__book_x2C__business_x2C__office_x2C__corporation_x2C__job">
	<g>
		<g>
			<polygon fill="#4A89DC" points="56,53 56,63 52,63 52,60 52,56 52,53 			"/>
		</g>
		<g>
			<path fill="#E6E9ED" d="M15,53h-2c-2.76,0-5,2.24-5,5s2.24,5,5,5h39v-3v-4v-3H15z"/>
		</g>
		<g>
			<path fill="#656D78" d="M15,1v52h-2c-2.76,0-5,2.24-5,5V6c0-2.76,2.24-5,5-5H15z"/>
		</g>
		<g>
			<path fill="#5D9CEC" d="M15,1v52h37h4V1H15z"/>
		</g>
		<g>
			<g>
				<path fill="#E6E9ED" d="M48,16v11c0,1.65-1.35,3-3,3H26c-1.65,0-3-1.35-3-3V16c0-1.65,1.35-3,3-3h1h5h7h5h1
					C46.65,13,48,14.35,48,16z"/>
			</g>
		</g>
		<g>
			<path fill="#CCD1D9" d="M45,13h-1h-3c1.65,0,3,1.35,3,3v11c0,1.65-1.35,3-3,3h4c1.65,0,3-1.35,3-3V16C48,14.35,46.65,13,45,13z"
				/>
		</g>
	</g>
	<g>
		<g>
			<path d="M13,64c-3.309,0-6-2.691-6-6s2.691-6,6-6c0.553,0,1,0.447,1,1s-0.447,1-1,1c-2.206,0-4,1.794-4,4s1.794,4,4,4
				c0.553,0,1,0.447,1,1S13.553,64,13,64z"/>
		</g>
		<g>
			<path d="M13,61c-1.654,0-3-1.346-3-3s1.346-3,3-3c0.553,0,1,0.447,1,1s-0.447,1-1,1c-0.552,0-1,0.448-1,1s0.448,1,1,1
				c0.553,0,1,0.447,1,1S13.553,61,13,61z"/>
		</g>
		<g>
			<path d="M56,54H13c-0.553,0-1-0.447-1-1s0.447-1,1-1h43c0.553,0,1,0.447,1,1S56.553,54,56,54z"/>
		</g>
		<g>
			<path d="M56,64H13c-0.553,0-1-0.447-1-1s0.447-1,1-1h43c0.553,0,1,0.447,1,1S56.553,64,56,64z"/>
		</g>
		<g>
			<path d="M8,7C7.447,7,7,6.552,7,6c0-3.309,2.691-6,6-6c0.553,0,1,0.448,1,1s-0.447,1-1,1c-2.206,0-4,1.794-4,4
				C9,6.552,8.553,7,8,7z"/>
		</g>
		<g>
			<path d="M8,59c-0.553,0-1-0.447-1-1V6c0-0.552,0.447-1,1-1s1,0.448,1,1v52C9,58.553,8.553,59,8,59z"/>
		</g>
		<g>
			<path d="M56,2H13c-0.553,0-1-0.448-1-1s0.447-1,1-1h43c0.553,0,1,0.448,1,1S56.553,2,56,2z"/>
		</g>
		<g>
			<path d="M56,54c-0.553,0-1-0.447-1-1V1c0-0.552,0.447-1,1-1s1,0.448,1,1v52C57,53.553,56.553,54,56,54z"/>
		</g>
		<g>
			<path d="M56,64c-0.553,0-1-0.447-1-1V53c0-0.553,0.447-1,1-1s1,0.447,1,1v10C57,63.553,56.553,64,56,64z"/>
		</g>
		<g>
			<path d="M15,54c-0.553,0-1-0.447-1-1V1c0-0.552,0.447-1,1-1s1,0.448,1,1v52C16,53.553,15.553,54,15,54z"/>
		</g>
		<g>
			<path d="M52,57H13c-0.553,0-1-0.447-1-1s0.447-1,1-1h39c0.553,0,1,0.447,1,1S52.553,57,52,57z"/>
		</g>
		<g>
			<path d="M52,61H13c-0.553,0-1-0.447-1-1s0.447-1,1-1h39c0.553,0,1,0.447,1,1S52.553,61,52,61z"/>
		</g>
		<g>
			<g>
				<path d="M45,31H26c-2.206,0-4-1.794-4-4V16c0-2.206,1.794-4,4-4h19c2.206,0,4,1.794,4,4v11C49,29.206,47.206,31,45,31z M26,14
					c-1.103,0-2,0.897-2,2v11c0,1.103,0.897,2,2,2h19c1.103,0,2-0.897,2-2V16c0-1.103-0.897-2-2-2H26z"/>
			</g>
			<g>
				<path d="M32,14c-0.553,0-1-0.448-1-1v-3c0-0.552,0.447-1,1-1s1,0.448,1,1v3C33,13.552,32.553,14,32,14z"/>
			</g>
			<g>
				<path d="M39,11h-7c-0.553,0-1-0.448-1-1s0.447-1,1-1h7c0.553,0,1,0.448,1,1S39.553,11,39,11z"/>
			</g>
			<g>
				<path d="M39,14c-0.553,0-1-0.448-1-1v-3c0-0.552,0.447-1,1-1s1,0.448,1,1v3C40,13.552,39.553,14,39,14z"/>
			</g>
			<g>
				<path d="M27,14c-0.553,0-1-0.448-1-1v-1c0-0.552,0.447-1,1-1s1,0.448,1,1v1C28,13.552,27.553,14,27,14z"/>
			</g>
			<g>
				<path d="M44,14c-0.553,0-1-0.448-1-1v-1c0-0.552,0.447-1,1-1s1,0.448,1,1v1C45,13.552,44.553,14,44,14z"/>
			</g>
			<g>
				<path d="M41,20H30c-0.553,0-1-0.448-1-1s0.447-1,1-1h11c0.553,0,1,0.448,1,1S41.553,20,41,20z"/>
			</g>
			<g>
				<path d="M41,25H30c-0.553,0-1-0.448-1-1s0.447-1,1-1h11c0.553,0,1,0.448,1,1S41.553,25,41,25z"/>
			</g>
		</g>
		<g>
			<path d="M48,42H23c-0.553,0-1-0.447-1-1s0.447-1,1-1h25c0.553,0,1,0.447,1,1S48.553,42,48,42z"/>
		</g>
		<g>
			<path d="M48,38H23c-0.553,0-1-0.447-1-1s0.447-1,1-1h25c0.553,0,1,0.447,1,1S48.553,38,48,38z"/>
		</g>
		<g>
			<path d="M41,46H30c-0.553,0-1-0.447-1-1s0.447-1,1-1h11c0.553,0,1,0.447,1,1S41.553,46,41,46z"/>
		</g>
		<g>
			<path d="M52,64c-0.553,0-1-0.447-1-1V53c0-0.553,0.447-1,1-1s1,0.447,1,1v10C53,63.553,52.553,64,52,64z"/>
		</g>
	</g>
</g>
</svg>
