<?xml version="1.0" encoding="utf-8"?>
<!-- Generator: Adobe Illustrator 16.0.0, SVG Export Plug-In . SVG Version: 6.00 Build 0)  -->
<!DOCTYPE svg PUBLIC "-//W3C//DTD SVG 1.1//EN" "http://www.w3.org/Graphics/SVG/1.1/DTD/svg11.dtd">
<svg version="1.1" xmlns="http://www.w3.org/2000/svg" xmlns:xlink="http://www.w3.org/1999/xlink" x="0px" y="0px" width="64px"
	 height="64px" viewBox="0 0 64 64" enable-background="new 0 0 64 64" xml:space="preserve">
<g id="_x35_0_document_x2C__optimization_x2C__documentation_x2C__business_x2C__office_x2C__corporation_x2C__job">
</g>
<g id="_x34_9_human_x2C__resource_x2C__conveyor_x2C__business_x2C__office_x2C__corporation_x2C__job">
</g>
<g id="_x34_8_knowledge_x2C__training_x2C__growth_x2C__book_x2C__business_x2C__office_x2C__corporation">
</g>
<g id="_x34_7_skill_x2C__competence_x2C__experience_x2C__business_x2C__office_x2C__corporation_x2C__job">
</g>
<g id="_x34_6_target_x2C__success_x2C__victory_x2C__business_x2C__office_x2C__corporation_x2C__job">
</g>
<g id="_x34_5_inbox_x2C__letter_x2C__email_x2C__business_x2C__office_x2C__corporation_x2C__job">
</g>
<g id="_x34_4_document_x2C__workflow_x2C__sharing_x2C__business_x2C__office_x2C__corporation_x2C__job">
</g>
<g id="_x34_3_budget_x2C__allocation_x2C__money_x2C__business_x2C__office_x2C__corporation_x2C__job">
</g>
<g id="_x34_2_case_x2C__task_x2C__project_x2C__business_x2C__office_x2C__corporation_x2C__job">
</g>
<g id="_x34_1_structure_x2C__structuring_x2C__tasks_x2C__business_x2C__office_x2C__corporation_x2C__job">
</g>
<g id="_x34_0_choice_x2C__dilemma_x2C__question_x2C__business_x2C__office_x2C__corporation_x2C__job">
</g>
<g id="_x33_9_workplace_x2C__table_x2C__laptop_x2C__business_x2C__office_x2C__corporation_x2C__job">
</g>
<g id="_x33_8_bribe_x2C__bag_x2C__money_x2C__business_x2C__office_x2C__corporation_x2C__job">
</g>
<g id="_x33_7_corruption_x2C__forage_x2C__money_x2C__business_x2C__office_x2C__corporation_x2C__job">
</g>
<g id="_x33_6_career_x2C__ladder_x2C__success_x2C__business_x2C__office_x2C__corporation_x2C__job">
</g>
<g id="_x33_5_review_x2C__feedback_x2C__rating_x2C__business_x2C__office_x2C__corporation_x2C__job">
</g>
<g id="_x33_4_manipulation_x2C__thread_x2C__puppet_x2C__business_x2C__office_x2C__corporation_x2C__job">
</g>
<g id="_x33_3_location_x2C__map_x2C__pin_x2C__business_x2C__office_x2C__corporation_x2C__job">
</g>
<g id="_x33_2_retirement_x2C__old_x2C__man_x2C__door_x2C__business_x2C__office_x2C__corporation">
</g>
<g id="_x33_1_victory_x2C__success_x2C__medal_x2C__reward_x2C__business_x2C__office_x2C__corporation">
</g>
<g id="_x33_0_dismissal_x2C__box_x2C__door_x2C__business_x2C__office_x2C__corporation_x2C__job">
</g>
<g id="_x32_9_meeting_x2C__discussion_x2C__question_x2C__business_x2C__office_x2C__corporation_x2C__job">
</g>
<g id="_x32_8_strategy_x2C__vision_x2C__eye_x2C__chess_x2C__business_x2C__office_x2C__corporation">
</g>
<g id="_x32_7_board_x2C__task_x2C__process_x2C__business_x2C__office_x2C__corporation_x2C__job">
</g>
<g id="_x32_6_scheme_x2C__board_x2C__structure_x2C__business_x2C__office_x2C__corporation_x2C__job">
</g>
<g id="_x32_5_conflict_x2C__dialog_x2C__discussion_x2C__business_x2C__office_x2C__corporation_x2C__job">
</g>
<g id="_x32_4_documentation_x2C__document_x2C__repository_x2C__business_x2C__office_x2C__corporation_x2C__job">
</g>
<g id="_x32_3_sprint_x2C__programming_x2C__code_x2C__business_x2C__office_x2C__corporation_x2C__job">
</g>
<g id="_x32_2_cram_x2C__tablet_x2C__work_x2C__business_x2C__office_x2C__corporation_x2C__job">
</g>
<g id="_x32_1_leader_x2C__discoverer_x2C__flag_x2C__business_x2C__office_x2C__corporation_x2C__job">
</g>
<g id="_x32_0_rally_x2C__collective_x2C__arm_x2C__business_x2C__office_x2C__corporation_x2C__job">
</g>
<g id="_x31_9_consolidation_x2C__portfolio_x2C__puzzle_x2C__business_x2C__office_x2C__corporation_x2C__job">
</g>
<g id="_x31_8_idea_x2C__creative_x2C__work_x2C__business_x2C__office_x2C__corporation_x2C__job">
</g>
<g id="_x31_7_problem_x2C__stress_x2C__resistance_x2C__business_x2C__office_x2C__corporation_x2C__job">
</g>
<g id="_x31_6_hard_x2C__skills_x2C__skill_x2C__portfolio_x2C__book_x2C__business_x2C__office">
</g>
<g id="_x31_5_time_x2C__management_x2C__clock_x2C__deadline_x2C__business_x2C__office_x2C__corporation">
</g>
<g id="_x31_4_multitasking_x2C__task_x2C__work_x2C__business_x2C__office_x2C__corporation_x2C__job">
	<g>
		<g>
			<polygon fill="#ED5565" points="10,47 10,49 4,49 4,41 10,41 10,43 			"/>
		</g>
		<g>
			<path fill="#965353" d="M26,15.97L23,18v-3c0-4.42,3.58-8,8-8h6v4c2.21,0,4,1.79,4,4v3l-3-2.03c0,0-2.01,1-5.5,1
				S26,15.97,26,15.97z"/>
		</g>
		<g>
			<g>
				<path fill="#844747" d="M37,11V7h-4v6c2.21,0,4,0.79,4,3v0.34c0.643-0.199,1-0.37,1-0.37L41,18v-3C41,12.79,39.21,11,37,11z"/>
			</g>
		</g>
		<g>
			<path fill="#EAC6BB" d="M41,18.03V22c0,3.53-2.04,6.59-5,8.06C34.8,30.66,33.43,31,32,31s-2.8-0.34-4-0.94
				c-2.96-1.47-5-4.529-5-8.06v-3.97L26,16c0,0,3.01,1,6.5,1s5.5-1,5.5-1L41,18.03z"/>
		</g>
		<g>
			<path fill="#D3B1A9" d="M38,16c0,0-0.357,0.171-1,0.369V22c0,3.53-2.04,6.59-5,8.06c-0.625,0.313-1.298,0.551-2,0.711
				C30.646,30.918,31.315,31,32,31c1.43,0,2.8-0.34,4-0.94c2.96-1.47,5-4.529,5-8.06v-3.97L38,16z"/>
		</g>
		<g>
			<path fill="#CCD1D9" d="M10,25.5V26c0,3.87,3.13,7,7,7h10c-3.53,0-6.59,2.04-8.06,5H18.93H17c-6.63,0-12-5.37-12-12v-0.5
				C5,24.12,6.12,23,7.5,23S10,24.12,10,25.5z"/>
		</g>
		<g>
			<polygon fill="#FFCE54" points="5,9 3,6 11,6 9,9 			"/>
		</g>
		<g>
			<polygon fill="#656D78" points="13,6 13,20 1,20 1,6 3,6 5,9 9,9 11,6 			"/>
		</g>
		<g>
			<polygon fill="#EDAB37" points="63,9 63,18 57.75,13.5 			"/>
		</g>
		<g>
			<polygon fill="#EDAB37" points="54.25,13.5 49,18 49,9 			"/>
		</g>
		<g>
			<polygon fill="#FFCE54" points="63,9 57.75,13.5 56,15 54.25,13.5 49,9 			"/>
		</g>
		<g>
			<polygon fill="#F6BB42" points="56,15 57.75,13.5 63,18 49,18 54.25,13.5 			"/>
		</g>
		<g>
			<rect x="53" y="40" fill="#4A89DC" width="6" height="9"/>
		</g>
		<g>
			<path fill="#CCD1D9" d="M59,25.5V26c0,6.63-5.37,12-12,12h-1.93H45.06c-1.47-2.96-4.529-5-8.06-5h10c3.87,0,7-3.13,7-7v-0.5
				c0-1.38,1.12-2.5,2.5-2.5S59,24.12,59,25.5z"/>
		</g>
		<g>
			<path fill="#F5F7FA" d="M32,31c1.43,0,2.8-0.34,4-0.94V33l-2,2l-2-1l-2,1l-2-2v-2.94C29.2,30.66,30.57,31,32,31z"/>
		</g>
		<g>
			<path fill="#E6E9ED" d="M28,33l2,2l2-1l2,1l2-2h1c3.53,0,6.59,2.04,8.06,5C45.66,39.2,46,40.56,46,42v2c0,4.42,3.58,8,8,8h0.5
				c1.38,0,2.5,1.12,2.5,2.5S55.88,57,54.5,57H54c-7.19,0-13-5.81-13-13v14H23V44c0,7.19-5.81,13-13,13H9.5C8.12,57,7,55.88,7,54.5
				S8.12,52,9.5,52H10c4.42,0,8-3.58,8-8v-2c0-1.44,0.34-2.8,0.94-4c1.47-2.96,4.529-5,8.06-5H28z"/>
		</g>
	</g>
	<g>
		<g>
			<path d="M32.03,41c-0.553,0-1.005-0.447-1.005-1s0.442-1,0.994-1h0.011c0.552,0,1,0.447,1,1S32.582,41,32.03,41z"/>
		</g>
		<g>
			<path d="M32.03,46c-0.553,0-1.005-0.447-1.005-1s0.442-1,0.994-1h0.011c0.552,0,1,0.447,1,1S32.582,46,32.03,46z"/>
		</g>
		<g>
			<path d="M32.03,51c-0.553,0-1.005-0.447-1.005-1s0.442-1,0.994-1h0.011c0.552,0,1,0.447,1,1S32.582,51,32.03,51z"/>
		</g>
		<g>
			<path d="M32.03,56c-0.553,0-1.005-0.447-1.005-1s0.442-1,0.994-1h0.011c0.552,0,1,0.447,1,1S32.582,56,32.03,56z"/>
		</g>
		<g>
			<path d="M56.03,48c-0.553,0-1.005-0.447-1.005-1s0.442-1,0.994-1h0.011c0.552,0,1,0.447,1,1S56.582,48,56.03,48z"/>
		</g>
		<g>
			<g>
				<path d="M32,32c-5.514,0-10-4.486-10-10c0-0.553,0.447-1,1-1s1,0.447,1,1c0,4.411,3.589,8,8,8s8-3.589,8-8c0-0.553,0.447-1,1-1
					s1,0.447,1,1C42,27.514,37.514,32,32,32z"/>
			</g>
			<g>
				<path d="M23,23c-0.553,0-1-0.447-1-1v-7c0-0.553,0.447-1,1-1s1,0.447,1,1v7C24,22.553,23.553,23,23,23z"/>
			</g>
			<g>
				<path d="M41,23c-0.553,0-1-0.447-1-1v-7.001c0-0.553,0.447-1,1-1s1,0.447,1,1V22C42,22.553,41.553,23,41,23z"/>
			</g>
		</g>
		<g>
			<g>
				<path d="M10,53c-0.553,0-1-0.447-1-1s0.447-1,1-1c3.859,0,7-3.141,7-7c0-0.553,0.447-1,1-1s1,0.447,1,1
					C19,48.963,14.963,53,10,53z"/>
			</g>
			<g>
				<path d="M18,43c-0.553,0-1-0.447-1-1c0-5.514,4.486-9.999,10-9.999c0.553,0,1,0.447,1,1s-0.447,1-1,1c-4.411,0-8,3.588-8,7.999
					C19,42.553,18.553,43,18,43z"/>
			</g>
			<g>
				<path d="M10,58c-0.553,0-1-0.447-1-1s0.447-1,1-1c6.617,0,12-5.383,12-12c0-0.553,0.447-1,1-1s1,0.447,1,1
					C24,51.72,17.72,58,10,58z"/>
			</g>
			<g>
				<path d="M9.5,58C7.57,58,6,56.43,6,54.5S7.57,51,9.5,51c0.553,0,1,0.447,1,1s-0.447,1-1,1C8.673,53,8,53.673,8,54.5
					S8.673,56,9.5,56c0.553,0,1,0.447,1,1S10.053,58,9.5,58z"/>
			</g>
			<g>
				<path d="M18,45c-0.553,0-1-0.447-1-1v-2c0-0.553,0.447-1,1-1s1,0.447,1,1v2C19,44.553,18.553,45,18,45z"/>
			</g>
			<g>
				<path d="M23,59c-0.553,0-1-0.447-1-1V44c0-0.553,0.447-1,1-1s1,0.447,1,1v14C24,58.553,23.553,59,23,59z"/>
			</g>
			<g>
				<path d="M10,58H9.5c-0.553,0-1-0.447-1-1s0.447-1,1-1H10c0.553,0,1,0.447,1,1S10.553,58,10,58z"/>
			</g>
			<g>
				<path d="M10,53H9.5c-0.553,0-1-0.447-1-1s0.447-1,1-1H10c0.553,0,1,0.447,1,1S10.553,53,10,53z"/>
			</g>
		</g>
		<g>
			<g>
				<path d="M54,53c-4.963,0-9-4.037-9-9c0-0.553,0.447-1,1-1s1,0.447,1,1c0,3.859,3.141,7,7,7c0.553,0,1,0.447,1,1S54.553,53,54,53
					z"/>
			</g>
			<g>
				<path d="M46,43c-0.553,0-1-0.447-1-1c0-4.411-3.589-7.999-8-7.999c-0.553,0-1-0.447-1-1s0.447-1,1-1c5.514,0,10,4.485,10,9.999
					C47,42.553,46.553,43,46,43z"/>
			</g>
			<g>
				<path d="M54,58c-7.72,0-14-6.28-14-14c0-0.553,0.447-1,1-1s1,0.447,1,1c0,6.617,5.383,12,12,12c0.553,0,1,0.447,1,1
					S54.553,58,54,58z"/>
			</g>
			<g>
				<path d="M54.5,58c-0.553,0-1-0.447-1-1s0.447-1,1-1c0.827,0,1.5-0.673,1.5-1.5S55.327,53,54.5,53c-0.553,0-1-0.447-1-1
					s0.447-1,1-1c1.93,0,3.5,1.57,3.5,3.5S56.43,58,54.5,58z"/>
			</g>
			<g>
				<path d="M46,45c-0.553,0-1-0.447-1-1v-2c0-0.553,0.447-1,1-1s1,0.447,1,1v2C47,44.553,46.553,45,46,45z"/>
			</g>
			<g>
				<path d="M41,59c-0.553,0-1-0.447-1-1V44c0-0.553,0.447-1,1-1s1,0.447,1,1v14C42,58.553,41.553,59,41,59z"/>
			</g>
			<g>
				<path d="M54.5,58H54c-0.553,0-1-0.447-1-1s0.447-1,1-1h0.5c0.553,0,1,0.447,1,1S55.053,58,54.5,58z"/>
			</g>
			<g>
				<path d="M54.5,53H54c-0.553,0-1-0.447-1-1s0.447-1,1-1h0.5c0.553,0,1,0.447,1,1S55.053,53,54.5,53z"/>
			</g>
		</g>
		<g>
			<path d="M41,59c-0.553,0-1-0.447-1-1V44c0-0.553,0.447-1,1-1s1,0.447,1,1v14C42,58.553,41.553,59,41,59z"/>
		</g>
		<g>
			<path d="M34,36c-0.256,0-0.512-0.098-0.707-0.293c-0.391-0.391-0.391-1.023,0-1.414l2-2c0.391-0.391,1.023-0.391,1.414,0
				s0.391,1.023,0,1.414l-2,2C34.512,35.902,34.256,36,34,36z"/>
		</g>
		<g>
			<path d="M33.999,36c-0.15,0-0.303-0.034-0.446-0.105l-2-1c-0.494-0.247-0.694-0.848-0.447-1.342
				c0.248-0.494,0.849-0.692,1.342-0.447l2,1c0.494,0.247,0.694,0.848,0.447,1.342C34.719,35.798,34.366,36,33.999,36z"/>
		</g>
		<g>
			<path d="M30.001,36c-0.367,0-0.72-0.202-0.896-0.553c-0.247-0.494-0.047-1.095,0.447-1.342l2-1
				c0.493-0.245,1.094-0.047,1.342,0.447c0.247,0.494,0.047,1.095-0.447,1.342l-2,1C30.304,35.966,30.151,36,30.001,36z"/>
		</g>
		<g>
			<path d="M30,36c-0.256,0-0.512-0.098-0.707-0.293l-2-2c-0.391-0.391-0.391-1.023,0-1.414s1.023-0.391,1.414,0l2,2
				c0.391,0.391,0.391,1.023,0,1.414C30.512,35.902,30.256,36,30,36z"/>
		</g>
		<g>
			<path d="M28,34c-0.553,0-1-0.447-1-1v-2.937c0-0.553,0.447-1,1-1s1,0.447,1,1V33C29,33.553,28.553,34,28,34z"/>
		</g>
		<g>
			<path d="M36,34c-0.553,0-1-0.447-1-1v-2.937c0-0.553,0.447-1,1-1s1,0.447,1,1V33C37,33.553,36.553,34,36,34z"/>
		</g>
		<g>
			<g>
				<g>
					<path d="M47,34c-0.553,0-1-0.447-1-1s0.447-1,1-1c3.309,0,6-2.691,6-6c0-0.553,0.447-1,1-1s1,0.447,1,1
						C55,30.411,51.411,34,47,34z"/>
				</g>
				<g>
					<path d="M47,39c-0.553,0-1-0.447-1-1s0.447-1,1-1c6.065,0,11-4.935,11-11c0-0.553,0.447-1,1-1s1,0.447,1,1
						C60,33.168,54.168,39,47,39z"/>
				</g>
				<g>
					<path d="M59,26.5c-0.553,0-1-0.447-1-1c0-0.827-0.673-1.5-1.5-1.5S55,24.673,55,25.5c0,0.553-0.447,1-1,1s-1-0.447-1-1
						c0-1.93,1.57-3.5,3.5-3.5s3.5,1.57,3.5,3.5C60,26.053,59.553,26.5,59,26.5z"/>
				</g>
				<g>
					<path d="M59,27c-0.553,0-1-0.447-1-1v-0.5c0-0.553,0.447-1,1-1s1,0.447,1,1V26C60,26.553,59.553,27,59,27z"/>
				</g>
				<g>
					<path d="M54,27c-0.553,0-1-0.447-1-1v-0.5c0-0.553,0.447-1,1-1s1,0.447,1,1V26C55,26.553,54.553,27,54,27z"/>
				</g>
			</g>
			<g>
				<path d="M47,34.001H36c-0.553,0-1-0.447-1-1s0.447-1,1-1h11c0.553,0,1,0.447,1,1S47.553,34.001,47,34.001z"/>
			</g>
			<g>
				<path d="M47,39h-1.935c-0.553,0-1-0.447-1-1s0.447-1,1-1H47c0.553,0,1,0.447,1,1S47.553,39,47,39z"/>
			</g>
		</g>
		<g>
			<g>
				<g>
					<path d="M17,34c-4.411,0-8-3.589-8-8c0-0.553,0.447-1,1-1s1,0.447,1,1c0,3.309,2.691,6,6,6c0.553,0,1,0.447,1,1
						S17.553,34,17,34z"/>
				</g>
				<g>
					<path d="M17,39C9.832,39,4,33.168,4,26c0-0.553,0.447-1,1-1s1,0.447,1,1c0,6.065,4.935,11,11,11c0.553,0,1,0.447,1,1
						S17.553,39,17,39z"/>
				</g>
				<g>
					<path d="M10,26.5c-0.553,0-1-0.447-1-1C9,24.673,8.327,24,7.5,24S6,24.673,6,25.5c0,0.553-0.447,1-1,1s-1-0.447-1-1
						C4,23.57,5.57,22,7.5,22s3.5,1.57,3.5,3.5C11,26.053,10.553,26.5,10,26.5z"/>
				</g>
				<g>
					<path d="M5,27c-0.553,0-1-0.447-1-1v-0.5c0-0.553,0.447-1,1-1s1,0.447,1,1V26C6,26.553,5.553,27,5,27z"/>
				</g>
				<g>
					<path d="M10,27c-0.553,0-1-0.447-1-1v-0.5c0-0.553,0.447-1,1-1s1,0.447,1,1V26C11,26.553,10.553,27,10,27z"/>
				</g>
			</g>
			<g>
				<path d="M28,34.001H17c-0.553,0-1-0.447-1-1s0.447-1,1-1h11c0.553,0,1,0.447,1,1S28.553,34.001,28,34.001z"/>
			</g>
			<g>
				<path d="M18.935,39H17c-0.553,0-1-0.447-1-1s0.447-1,1-1h1.935c0.553,0,1,0.447,1,1S19.487,39,18.935,39z"/>
			</g>
		</g>
		<g>
			<path d="M10,50H4c-0.553,0-1-0.447-1-1v-8c0-0.553,0.447-1,1-1h6c0.553,0,1,0.447,1,1v8C11,49.553,10.553,50,10,50z M5,48h4v-6H5
				V48z"/>
		</g>
		<g>
			<path d="M59,50h-6c-0.553,0-1-0.447-1-1v-9c0-0.553,0.447-1,1-1h6c0.553,0,1,0.447,1,1v9C60,49.553,59.553,50,59,50z M54,48h4v-7
				h-4V48z"/>
		</g>
		<g>
			<path d="M13,48h-3c-0.553,0-1-0.447-1-1v-3.999c0-0.553,0.447-1,1-1h3c0.553,0,1,0.447,1,1V47C14,47.553,13.553,48,13,48z M11,46
				h1v-1.999h-1V46z"/>
		</g>
		<g>
			<path d="M13,21H1c-0.553,0-1-0.447-1-1V6c0-0.553,0.447-1,1-1h12c0.553,0,1,0.447,1,1v14C14,20.553,13.553,21,13,21z M2,19h10V7
				H2V19z"/>
		</g>
		<g>
			<path d="M5.001,10C4.678,10,4.36,9.844,4.168,9.555l-2-2.999c-0.307-0.459-0.183-1.08,0.277-1.387
				c0.458-0.307,1.081-0.183,1.387,0.277l2,2.999c0.307,0.459,0.183,1.08-0.277,1.387C5.385,9.945,5.191,10,5.001,10z"/>
		</g>
		<g>
			<path d="M9,10H5c-0.553,0-1-0.447-1-1s0.447-1,1-1h4c0.553,0,1,0.447,1,1S9.553,10,9,10z"/>
		</g>
		<g>
			<path d="M8.999,10c-0.19,0-0.383-0.055-0.554-0.168c-0.46-0.307-0.584-0.927-0.277-1.387l2-3
				c0.306-0.459,0.925-0.584,1.387-0.277c0.46,0.307,0.584,0.927,0.277,1.387l-2,3C9.64,9.844,9.322,10,8.999,10z"/>
		</g>
		<g>
			<path d="M9,14H5c-0.553,0-1-0.447-1-1s0.447-1,1-1h4c0.553,0,1,0.447,1,1S9.553,14,9,14z"/>
		</g>
		<g>
			<path d="M9,17H5c-0.553,0-1-0.447-1-1s0.447-1,1-1h4c0.553,0,1,0.447,1,1S9.553,17,9,17z"/>
		</g>
		<g>
			<path d="M63,19H49c-0.553,0-1-0.447-1-1V9c0-0.553,0.447-1,1-1h14c0.553,0,1,0.447,1,1v9C64,18.553,63.553,19,63,19z M50,17h12
				v-7H50V17z"/>
		</g>
		<g>
			<g>
				<path d="M56,16c-0.23,0-0.462-0.079-0.65-0.241l-7-6c-0.42-0.359-0.469-0.99-0.108-1.409c0.359-0.42,0.991-0.468,1.409-0.108
					l7,6c0.42,0.359,0.469,0.99,0.108,1.409C56.562,15.882,56.281,16,56,16z"/>
			</g>
			<g>
				<path d="M56,16c-0.281,0-0.562-0.118-0.759-0.35c-0.36-0.419-0.312-1.05,0.108-1.409l7-6C62.77,7.882,63.4,7.93,63.759,8.35
					c0.36,0.419,0.312,1.05-0.108,1.409l-7,6C56.462,15.921,56.23,16,56,16z"/>
			</g>
		</g>
		<g>
			<g>
				<path d="M63,19c-0.23,0-0.462-0.079-0.65-0.241l-5.246-4.497c-0.42-0.359-0.469-0.99-0.108-1.409
					c0.359-0.421,0.991-0.468,1.409-0.108l5.246,4.497c0.42,0.359,0.469,0.99,0.108,1.409C63.562,18.882,63.281,19,63,19z"/>
			</g>
			<g>
				<path d="M49,19c-0.281,0-0.562-0.118-0.759-0.35c-0.36-0.419-0.312-1.05,0.108-1.409l5.25-4.5
					c0.419-0.358,1.051-0.313,1.409,0.108c0.36,0.419,0.312,1.05-0.108,1.409l-5.25,4.5C49.462,18.921,49.23,19,49,19z"/>
			</g>
		</g>
		<g>
			<g>
				<path d="M41,15.999c-0.553,0-1-0.447-1-1C40,13.346,38.654,12,37,12c-0.553,0-1-0.447-1-1s0.447-1,1-1c2.757,0,5,2.242,5,4.999
					C42,15.552,41.553,15.999,41,15.999z"/>
			</g>
			<g>
				<path d="M37,12c-0.553,0-1-0.447-1-1V7c0-0.553,0.447-1,1-1s1,0.447,1,1v4C38,11.553,37.553,12,37,12z"/>
			</g>
			<g>
				<path d="M23,16c-0.553,0-1-0.447-1-1c0-4.963,4.037-9,9-9c0.553,0,1,0.447,1,1s-0.447,1-1,1c-3.859,0-7,3.141-7,7
					C24,15.553,23.553,16,23,16z"/>
			</g>
			<g>
				<g>
					<path d="M40.999,19.025c-0.192,0-0.387-0.056-0.559-0.171l-3-2.025c-0.458-0.31-0.578-0.931-0.27-1.389
						c0.31-0.457,0.93-0.577,1.389-0.27l3,2.025c0.458,0.31,0.578,0.931,0.27,1.389C41.636,18.871,41.32,19.025,40.999,19.025z"/>
				</g>
				<g>
					<path d="M32.5,18c-3.612,0-6.687-1.008-6.815-1.051c-0.523-0.175-0.807-0.74-0.634-1.264c0.174-0.523,0.74-0.809,1.264-0.635
						C26.344,15.061,29.223,16,32.5,16c3.178,0,5.04-0.888,5.059-0.897c0.493-0.24,1.094-0.037,1.337,0.457s0.043,1.09-0.449,1.336
						C38.355,16.94,36.186,18,32.5,18z"/>
				</g>
				<g>
					<path d="M23.001,19.025c-0.321,0-0.637-0.154-0.83-0.44c-0.309-0.458-0.188-1.079,0.27-1.389l3-2.025
						c0.46-0.308,1.08-0.188,1.389,0.27c0.309,0.458,0.188,1.079-0.27,1.389l-3,2.025C23.388,18.97,23.193,19.025,23.001,19.025z"/>
				</g>
			</g>
		</g>
		<g>
			<path d="M37,8h-6c-0.553,0-1-0.447-1-1s0.447-1,1-1h6c0.553,0,1,0.447,1,1S37.553,8,37,8z"/>
		</g>
	</g>
</g>
<g id="_x31_3_tranquility_x2C__yoga_x2C__lotus_x2C__posture_x2C__business_x2C__office_x2C__corporation">
</g>
<g id="_x31_2_corporate_x2C__party_x2C__business_x2C__office_x2C__corporation_x2C__job">
</g>
<g id="_x31_1_dialog_x2C__discussion_x2C__work_x2C__business_x2C__office_x2C__corporation_x2C__job">
</g>
<g id="_x31_0_listening_x2C__skill_x2C__dialog_x2C__business_x2C__office_x2C__corporation_x2C__job">
</g>
<g id="_x39__training_x2C__book_x2C__lesson_x2C__business_x2C__office_x2C__corporation_x2C__job">
</g>
<g id="_x38__dress_x2C__code_x2C__shirt_x2C__business_x2C__office_x2C__corporation_x2C__job">
</g>
<g id="_x37__task_x2C__program_x2C__ticket_x2C__business_x2C__office_x2C__corporation_x2C__job">
</g>
<g id="_x36__plan_x2C__graph_x2C__stage_x2C__business_x2C__office_x2C__corporation_x2C__job">
</g>
<g id="_x35__boss_x2C__king_x2C__crown_x2C__business_x2C__office_x2C__corporation_x2C__job">
</g>
<g id="_x34__structure_x2C__structuring_x2C__business_x2C__office_x2C__corporation_x2C__job">
</g>
<g id="_x33__soft_x2C__skills_x2C__communication_x2C__business_x2C__office_x2C__corporation_x2C__job">
</g>
<g id="_x32__office_x2C__house_x2C__portfolio_x2C__business_x2C__corporation_x2C__job">
</g>
<g id="_x31__corporate_x2C__rules_x2C__book_x2C__business_x2C__office_x2C__corporation_x2C__job">
</g>
</svg>
