<?xml version="1.0" encoding="utf-8"?>
<!-- Generator: Adobe Illustrator 16.0.0, SVG Export Plug-In . SVG Version: 6.00 Build 0)  -->
<!DOCTYPE svg PUBLIC "-//W3C//DTD SVG 1.1//EN" "http://www.w3.org/Graphics/SVG/1.1/DTD/svg11.dtd">
<svg version="1.1" xmlns="http://www.w3.org/2000/svg" xmlns:xlink="http://www.w3.org/1999/xlink" x="0px" y="0px" width="64px"
	 height="64px" viewBox="0 0 64 64" enable-background="new 0 0 64 64" xml:space="preserve">
<g id="_x35_0_document_x2C__optimization_x2C__documentation_x2C__business_x2C__office_x2C__corporation_x2C__job">
</g>
<g id="_x34_9_human_x2C__resource_x2C__conveyor_x2C__business_x2C__office_x2C__corporation_x2C__job">
</g>
<g id="_x34_8_knowledge_x2C__training_x2C__growth_x2C__book_x2C__business_x2C__office_x2C__corporation">
</g>
<g id="_x34_7_skill_x2C__competence_x2C__experience_x2C__business_x2C__office_x2C__corporation_x2C__job">
</g>
<g id="_x34_6_target_x2C__success_x2C__victory_x2C__business_x2C__office_x2C__corporation_x2C__job">
</g>
<g id="_x34_5_inbox_x2C__letter_x2C__email_x2C__business_x2C__office_x2C__corporation_x2C__job">
</g>
<g id="_x34_4_document_x2C__workflow_x2C__sharing_x2C__business_x2C__office_x2C__corporation_x2C__job">
</g>
<g id="_x34_3_budget_x2C__allocation_x2C__money_x2C__business_x2C__office_x2C__corporation_x2C__job">
</g>
<g id="_x34_2_case_x2C__task_x2C__project_x2C__business_x2C__office_x2C__corporation_x2C__job">
</g>
<g id="_x34_1_structure_x2C__structuring_x2C__tasks_x2C__business_x2C__office_x2C__corporation_x2C__job">
</g>
<g id="_x34_0_choice_x2C__dilemma_x2C__question_x2C__business_x2C__office_x2C__corporation_x2C__job">
</g>
<g id="_x33_9_workplace_x2C__table_x2C__laptop_x2C__business_x2C__office_x2C__corporation_x2C__job">
</g>
<g id="_x33_8_bribe_x2C__bag_x2C__money_x2C__business_x2C__office_x2C__corporation_x2C__job">
</g>
<g id="_x33_7_corruption_x2C__forage_x2C__money_x2C__business_x2C__office_x2C__corporation_x2C__job">
</g>
<g id="_x33_6_career_x2C__ladder_x2C__success_x2C__business_x2C__office_x2C__corporation_x2C__job">
</g>
<g id="_x33_5_review_x2C__feedback_x2C__rating_x2C__business_x2C__office_x2C__corporation_x2C__job">
</g>
<g id="_x33_4_manipulation_x2C__thread_x2C__puppet_x2C__business_x2C__office_x2C__corporation_x2C__job">
</g>
<g id="_x33_3_location_x2C__map_x2C__pin_x2C__business_x2C__office_x2C__corporation_x2C__job">
</g>
<g id="_x33_2_retirement_x2C__old_x2C__man_x2C__door_x2C__business_x2C__office_x2C__corporation">
</g>
<g id="_x33_1_victory_x2C__success_x2C__medal_x2C__reward_x2C__business_x2C__office_x2C__corporation">
</g>
<g id="_x33_0_dismissal_x2C__box_x2C__door_x2C__business_x2C__office_x2C__corporation_x2C__job">
</g>
<g id="_x32_9_meeting_x2C__discussion_x2C__question_x2C__business_x2C__office_x2C__corporation_x2C__job">
</g>
<g id="_x32_8_strategy_x2C__vision_x2C__eye_x2C__chess_x2C__business_x2C__office_x2C__corporation">
</g>
<g id="_x32_7_board_x2C__task_x2C__process_x2C__business_x2C__office_x2C__corporation_x2C__job">
</g>
<g id="_x32_6_scheme_x2C__board_x2C__structure_x2C__business_x2C__office_x2C__corporation_x2C__job">
</g>
<g id="_x32_5_conflict_x2C__dialog_x2C__discussion_x2C__business_x2C__office_x2C__corporation_x2C__job">
</g>
<g id="_x32_4_documentation_x2C__document_x2C__repository_x2C__business_x2C__office_x2C__corporation_x2C__job">
</g>
<g id="_x32_3_sprint_x2C__programming_x2C__code_x2C__business_x2C__office_x2C__corporation_x2C__job">
</g>
<g id="_x32_2_cram_x2C__tablet_x2C__work_x2C__business_x2C__office_x2C__corporation_x2C__job">
</g>
<g id="_x32_1_leader_x2C__discoverer_x2C__flag_x2C__business_x2C__office_x2C__corporation_x2C__job">
</g>
<g id="_x32_0_rally_x2C__collective_x2C__arm_x2C__business_x2C__office_x2C__corporation_x2C__job">
</g>
<g id="_x31_9_consolidation_x2C__portfolio_x2C__puzzle_x2C__business_x2C__office_x2C__corporation_x2C__job">
</g>
<g id="_x31_8_idea_x2C__creative_x2C__work_x2C__business_x2C__office_x2C__corporation_x2C__job">
</g>
<g id="_x31_7_problem_x2C__stress_x2C__resistance_x2C__business_x2C__office_x2C__corporation_x2C__job">
</g>
<g id="_x31_6_hard_x2C__skills_x2C__skill_x2C__portfolio_x2C__book_x2C__business_x2C__office">
</g>
<g id="_x31_5_time_x2C__management_x2C__clock_x2C__deadline_x2C__business_x2C__office_x2C__corporation">
	<g>
		<g>
			<path fill="#434A54" d="M54,55v7c0,0.55-0.439,1-1,1H35l6-8l-2-2l4-4l-2-2h5C50.42,47,54,50.58,54,55z"/>
		</g>
		<g>
			<path fill="#353B44" d="M46,47h-4c4.42,0,8,3.58,8,8v7c0,0.55-0.439,1-1,1h4c0.561,0,1-0.45,1-1v-7C54,50.58,50.42,47,46,47z"/>
		</g>
		<g>
			<path fill="#434A54" d="M23,55l6,8H11c-0.55,0-1-0.45-1-1v-7c0-4.42,3.58-8,8-8h5l-2,2l4,4L23,55z"/>
		</g>
		<g>
			<polygon fill="#656D78" points="35.11,55 37.45,49 39,45 41,47 43,49 39,53 41,55 35,63 32,63 			"/>
		</g>
		<g>
			<polygon fill="#656D78" points="28.891,55 32,63 29,63 23,55 25,53 21,49 23,47 25,45 26.561,49 			"/>
		</g>
		<g>
			<polygon fill="#E6E9ED" points="29,47.66 31,50 28.891,55 26.561,49 			"/>
		</g>
		<g>
			<polygon fill="#DA4453" points="31,50 33,50 35.11,55 32,63 28.891,55 			"/>
		</g>
		<g>
			<polygon fill="#E6E9ED" points="37.45,49 35.11,55 33,50 35,47.66 35,47.65 			"/>
		</g>
		<g>
			<polygon fill="#ED5565" points="35,47.65 35,47.66 33,50 31,50 29,47.66 32,46 			"/>
		</g>
		<g>
			<path fill="#F5F7FA" d="M32,43c2.46,0,4.811-0.42,7-1.19V45l-1.55,4L35,47.65L32,46l-3,1.66L26.561,49L25,45v-3.19
				C27.19,42.58,29.54,43,32,43z"/>
		</g>
		<g>
			<path fill="#656D78" d="M32,1c11.601,0,21,9.4,21,21c0,9.14-5.84,16.92-14,19.81C36.811,42.58,34.46,43,32,43s-4.81-0.42-7-1.19
				C16.84,38.92,11,31.14,11,22C11,10.4,20.4,1,32,1z"/>
		</g>
		<g>
			<path fill="#F5F7FA" d="M32,5c3.09,0,6,0.83,8.5,2.28c2.58,1.489,4.73,3.64,6.22,6.22C48.17,16,49,18.9,49,22s-0.83,6-2.28,8.5
				c-1.489,2.58-3.64,4.73-6.22,6.22C38,38.17,35.09,39,32,39c-3.1,0-6-0.83-8.5-2.28c-2.58-1.489-4.729-3.64-6.22-6.22
				C15.83,28,15,25.1,15,22s0.83-6,2.28-8.5c1.49-2.58,3.64-4.73,6.22-6.22C26,5.83,28.9,5,32,5z"/>
		</g>
		<g>
			<path fill="#E6E9ED" d="M46.72,13.5c-1.489-2.58-3.64-4.73-6.22-6.22C38,5.83,35.09,5,32,5c-0.678,0-1.345,0.047-2.002,0.124
				C32.342,5.4,34.547,6.147,36.5,7.28c2.58,1.489,4.73,3.64,6.22,6.22C44.17,16,45,18.9,45,22s-0.83,6-2.28,8.5
				c-1.489,2.58-3.64,4.73-6.22,6.22c-1.953,1.133-4.158,1.88-6.502,2.156C30.655,38.953,31.322,39,32,39c3.09,0,6-0.83,8.5-2.28
				c2.58-1.489,4.73-3.64,6.22-6.22C48.17,28,49,25.1,49,22S48.17,16,46.72,13.5z"/>
		</g>
	</g>
	<g>
		<g>
			<g>
				<path d="M10,56.003c-0.553,0-1-0.447-1-1c0-4.964,4.038-9.002,9.002-9.002c0.553,0,1,0.447,1,1s-0.447,1-1,1
					c-3.861,0-7.002,3.141-7.002,7.002C11,55.556,10.553,56.003,10,56.003z"/>
			</g>
			<g>
				<path d="M54,56.002c-0.553,0-1-0.447-1-1c0-3.859-3.141-7-7-7c-0.553,0-1-0.447-1-1s0.447-1,1-1c4.963,0,9,4.037,9,9
					C55,55.555,54.553,56.002,54,56.002z"/>
			</g>
			<g>
				<path d="M18.002,48.001c-0.552,0-1-0.447-1-1c0-0.552,0.447-1,1-1L23.001,46c0.552,0,1,0.447,1,1c0,0.552-0.447,1-1,1
					L18.002,48.001z"/>
			</g>
			<g>
				<path d="M10.001,63c-0.552,0-1-0.447-1-1L9,55.003c0-0.552,0.447-1,1-1c0.552,0,1,0.447,1,1L11.001,62
					C11.001,62.552,10.554,63,10.001,63z"/>
			</g>
			<g>
				<path d="M11.001,64c-1.103,0-2-0.897-2-2c0-0.553,0.447-1,1-1s1,0.447,1,1v0.002c0.553,0,1,0.446,1,0.999
					C12.001,63.553,11.554,64,11.001,64z"/>
			</g>
			<g>
				<path d="M53,64c-0.553,0-1-0.447-1-1s0.447-1,1-1h0.002c0-0.553,0.446-1,0.999-1C54.553,61,55,61.447,55,62
					C55,63.103,54.103,64,53,64z"/>
			</g>
			<g>
				<path d="M54,63c-0.553,0-1-0.447-1-1v-6.998c0-0.553,0.447-1,1-1s1,0.447,1,1V62C55,62.553,54.553,63,54,63z"/>
			</g>
			<g>
				<path d="M53,64H11.001c-0.553,0-1-0.447-1-1s0.447-1,1-1H53c0.553,0,1,0.447,1,1S53.553,64,53,64z"/>
			</g>
			<g>
				<path d="M25,46c-0.553,0-1-0.447-1-1v-3.195c0-0.553,0.447-1,1-1s1,0.447,1,1V45C26,45.553,25.553,46,25,46z"/>
			</g>
			<g>
				<path d="M39,46c-0.553,0-1-0.447-1-1v-3.195c0-0.553,0.447-1,1-1s1,0.447,1,1V45C40,45.553,39.553,46,39,46z"/>
			</g>
			<g>
				<path d="M26.558,50.002c-0.353,0-0.694-0.187-0.877-0.517c-0.267-0.484-0.091-1.093,0.393-1.359l5.443-3.002
					c0.484-0.267,1.093-0.09,1.359,0.393c0.267,0.484,0.091,1.093-0.393,1.359l-5.443,3.002
					C26.887,49.962,26.721,50.002,26.558,50.002z"/>
			</g>
			<g>
				<path d="M37.442,50.002c-0.163,0-0.329-0.04-0.482-0.124l-5.443-3.002c-0.483-0.267-0.659-0.875-0.393-1.359
					c0.268-0.482,0.875-0.659,1.359-0.393l5.443,3.002c0.483,0.267,0.659,0.875,0.393,1.359
					C38.137,49.815,37.795,50.002,37.442,50.002z"/>
			</g>
			<g>
				<g>
					<path d="M21,50.002c-0.256,0-0.512-0.098-0.707-0.293c-0.391-0.391-0.391-1.023,0-1.414l4-4.002
						c0.391-0.391,1.023-0.391,1.414,0s0.391,1.023,0,1.414l-4,4.002C21.512,49.904,21.256,50.002,21,50.002z"/>
				</g>
				<g>
					<path d="M25,54c-0.256,0-0.512-0.098-0.707-0.293l-4-3.998c-0.391-0.391-0.391-1.023,0-1.414s1.023-0.391,1.414,0l4,3.998
						c0.391,0.391,0.391,1.023,0,1.414C25.512,53.902,25.256,54,25,54z"/>
				</g>
				<g>
					<path d="M23,56c-0.256,0-0.512-0.098-0.707-0.293c-0.391-0.391-0.391-1.023,0-1.414l2-2c0.391-0.391,1.023-0.391,1.414,0
						s0.391,1.023,0,1.414l-2,2C23.512,55.902,23.256,56,23,56z"/>
				</g>
				<g>
					<path d="M29.001,64c-0.305,0-0.604-0.138-0.801-0.4l-6-8c-0.332-0.441-0.242-1.068,0.2-1.399
						c0.441-0.332,1.068-0.243,1.399,0.2l6,8c0.332,0.441,0.242,1.068-0.2,1.399C29.42,63.935,29.21,64,29.001,64z"/>
				</g>
				<g>
					<path d="M32,64c-0.4,0-0.778-0.242-0.932-0.638l-7-18c-0.2-0.515,0.055-1.094,0.569-1.294c0.514-0.201,1.095,0.054,1.294,0.569
						l7,18c0.2,0.515-0.055,1.094-0.569,1.294C32.243,63.979,32.121,64,32,64z"/>
				</g>
			</g>
			<g>
				<g>
					<path d="M43,50.002c-0.256,0-0.512-0.098-0.707-0.293l-4-4.002c-0.391-0.391-0.391-1.023,0-1.414s1.023-0.391,1.414,0l4,4.002
						c0.391,0.391,0.391,1.023,0,1.414C43.512,49.904,43.256,50.002,43,50.002z"/>
				</g>
				<g>
					<path d="M39,54c-0.256,0-0.512-0.098-0.707-0.293c-0.391-0.391-0.391-1.023,0-1.414l4-3.998c0.391-0.391,1.023-0.391,1.414,0
						s0.391,1.023,0,1.414l-4,3.998C39.512,53.902,39.256,54,39,54z"/>
				</g>
				<g>
					<path d="M41,56c-0.256,0-0.512-0.098-0.707-0.293l-2-2c-0.391-0.391-0.391-1.023,0-1.414s1.023-0.391,1.414,0l2,2
						c0.391,0.391,0.391,1.023,0,1.414C41.512,55.902,41.256,56,41,56z"/>
				</g>
				<g>
					<path d="M34.999,64c-0.209,0-0.419-0.065-0.599-0.2c-0.442-0.331-0.532-0.958-0.2-1.399l6-8c0.331-0.442,0.958-0.531,1.399-0.2
						c0.442,0.331,0.532,0.958,0.2,1.399l-6,8C35.604,63.862,35.304,64,34.999,64z"/>
				</g>
				<g>
					<path d="M32,64c-0.121,0-0.243-0.021-0.362-0.068c-0.515-0.2-0.77-0.779-0.569-1.294l7-18c0.2-0.516,0.779-0.772,1.294-0.569
						c0.515,0.2,0.77,0.779,0.569,1.294l-7,18C32.778,63.758,32.4,64,32,64z"/>
				</g>
			</g>
			<g>
				<path d="M46,48.002h-5c-0.553,0-1-0.447-1-1s0.447-1,1-1h5c0.553,0,1,0.447,1,1S46.553,48.002,46,48.002z"/>
			</g>
			<g>
				<path d="M28.889,56c-0.13,0-0.262-0.025-0.389-0.079c-0.509-0.215-0.747-0.802-0.532-1.31l2.111-4.998
					c0.215-0.509,0.802-0.746,1.31-0.532c0.509,0.215,0.747,0.802,0.532,1.31l-2.111,4.998C29.648,55.771,29.278,56,28.889,56z"/>
			</g>
			<g>
				<path d="M35.11,56.002c-0.39,0-0.76-0.229-0.921-0.611l-2.11-5.002c-0.215-0.509,0.023-1.096,0.532-1.31
					c0.508-0.216,1.095,0.023,1.31,0.532l2.11,5.002c0.215,0.509-0.023,1.096-0.532,1.31C35.372,55.977,35.24,56.002,35.11,56.002z"
					/>
			</g>
			<g>
				<path d="M33,51.002h-2c-0.553,0-1-0.447-1-1s0.447-1,1-1h2c0.553,0,1,0.447,1,1S33.553,51.002,33,51.002z"/>
			</g>
			<g>
				<path d="M33,51.002c-0.229,0-0.46-0.078-0.648-0.239c-0.421-0.357-0.471-0.989-0.112-1.409l2-2.348
					c0.357-0.422,0.989-0.472,1.409-0.112c0.421,0.357,0.471,0.989,0.112,1.409l-2,2.348C33.563,50.883,33.282,51.002,33,51.002z"/>
			</g>
			<g>
				<path d="M31,51.002c-0.282,0-0.563-0.119-0.761-0.352l-2-2.348c-0.358-0.42-0.309-1.052,0.112-1.409
					c0.42-0.359,1.052-0.31,1.409,0.112l2,2.348c0.358,0.42,0.309,1.052-0.112,1.409C31.46,50.924,31.229,51.002,31,51.002z"/>
			</g>
		</g>
		<g>
			<g>
				<path d="M32,44c-12.131,0-22-9.869-22-22S19.869,0,32,0s22,9.869,22,22S44.131,44,32,44z M32,2c-11.028,0-20,8.972-20,20
					s8.972,20,20,20s20-8.972,20-20S43.028,2,32,2z"/>
			</g>
			<g>
				<path d="M32,40c-9.925,0-18-8.075-18-18S22.075,4,32,4s18,8.075,18,18S41.925,40,32,40z M32,6c-8.822,0-16,7.178-16,16
					s7.178,16,16,16s16-7.178,16-16S40.822,6,32,6z"/>
			</g>
			<g>
				<path d="M32,23c-0.553,0-1-0.447-1-1V12c0-0.553,0.447-1,1-1s1,0.447,1,1v10C33,22.553,32.553,23,32,23z"/>
			</g>
			<g>
				<path d="M39.071,30.071c-0.256,0-0.512-0.098-0.707-0.293l-7.071-7.071c-0.391-0.391-0.391-1.023,0-1.414s1.023-0.391,1.414,0
					l7.071,7.071c0.391,0.391,0.391,1.023,0,1.414C39.583,29.974,39.327,30.071,39.071,30.071z"/>
			</g>
			<g>
				<path d="M32,7c-0.553,0-1-0.447-1-1V5c0-0.553,0.447-1,1-1s1,0.447,1,1v1C33,6.553,32.553,7,32,7z"/>
			</g>
			<g>
				<path d="M32,40c-0.553,0-1-0.447-1-1v-1c0-0.553,0.447-1,1-1s1,0.447,1,1v1C33,39.553,32.553,40,32,40z"/>
			</g>
			<g>
				<path d="M24.001,9.144c-0.346,0-0.682-0.18-0.867-0.5l-0.5-0.866C22.357,7.299,22.521,6.688,23,6.411
					c0.477-0.276,1.089-0.112,1.366,0.366l0.5,0.866c0.276,0.479,0.112,1.09-0.366,1.366C24.343,9.101,24.171,9.144,24.001,9.144z"
					/>
			</g>
			<g>
				<path d="M40.501,37.723c-0.346,0-0.682-0.18-0.867-0.5l-0.5-0.866c-0.276-0.479-0.112-1.09,0.366-1.366
					c0.477-0.275,1.089-0.111,1.366,0.366l0.5,0.866c0.276,0.479,0.112,1.09-0.366,1.366C40.843,37.68,40.671,37.723,40.501,37.723z
					"/>
			</g>
			<g>
				<path d="M18.143,15c-0.17,0-0.342-0.043-0.499-0.134l-0.865-0.5C16.3,14.09,16.136,13.478,16.412,13
					c0.276-0.479,0.888-0.643,1.366-0.366l0.865,0.5c0.479,0.276,0.643,0.889,0.366,1.366C18.824,14.821,18.488,15,18.143,15z"/>
			</g>
			<g>
				<path d="M46.722,31.5c-0.17,0-0.342-0.043-0.499-0.134l-0.866-0.5c-0.479-0.276-0.643-0.888-0.366-1.366
					s0.889-0.643,1.366-0.366l0.866,0.5c0.479,0.276,0.643,0.888,0.366,1.366C47.403,31.32,47.067,31.5,46.722,31.5z"/>
			</g>
			<g>
				<path d="M16,23h-0.999c-0.553,0-1-0.447-1-1s0.447-1,1-1H16c0.553,0,1,0.447,1,1S16.553,23,16,23z"/>
			</g>
			<g>
				<path d="M49.001,23h-1c-0.553,0-1-0.447-1-1s0.447-1,1-1h1c0.553,0,1,0.447,1,1S49.554,23,49.001,23z"/>
			</g>
			<g>
				<path d="M17.279,31.5c-0.346,0-0.682-0.179-0.867-0.5c-0.276-0.478-0.112-1.09,0.366-1.366l0.865-0.5
					c0.476-0.276,1.089-0.113,1.366,0.366c0.276,0.478,0.112,1.09-0.366,1.366l-0.865,0.5C17.621,31.457,17.449,31.5,17.279,31.5z"
					/>
			</g>
			<g>
				<path d="M45.858,15c-0.346,0-0.682-0.18-0.867-0.5c-0.276-0.479-0.112-1.09,0.366-1.366l0.866-0.5
					c0.476-0.276,1.089-0.112,1.366,0.366c0.276,0.479,0.112,1.09-0.366,1.366l-0.866,0.5C46.2,14.957,46.028,15,45.858,15z"/>
			</g>
			<g>
				<path d="M23.5,37.723c-0.169,0-0.341-0.043-0.498-0.134c-0.479-0.275-0.644-0.887-0.367-1.365l0.499-0.866
					c0.274-0.479,0.887-0.644,1.365-0.367c0.479,0.275,0.644,0.887,0.367,1.365l-0.499,0.866
					C24.183,37.543,23.846,37.723,23.5,37.723z"/>
			</g>
			<g>
				<path d="M40,9.143c-0.17,0-0.342-0.043-0.499-0.134c-0.479-0.276-0.643-0.889-0.366-1.366l0.5-0.865
					c0.276-0.479,0.889-0.643,1.366-0.366c0.479,0.276,0.643,0.889,0.366,1.366l-0.5,0.865C40.682,8.964,40.346,9.143,40,9.143z"/>
			</g>
		</g>
	</g>
</g>
<g id="_x31_4_multitasking_x2C__task_x2C__work_x2C__business_x2C__office_x2C__corporation_x2C__job">
</g>
<g id="_x31_3_tranquility_x2C__yoga_x2C__lotus_x2C__posture_x2C__business_x2C__office_x2C__corporation">
</g>
<g id="_x31_2_corporate_x2C__party_x2C__business_x2C__office_x2C__corporation_x2C__job">
</g>
<g id="_x31_1_dialog_x2C__discussion_x2C__work_x2C__business_x2C__office_x2C__corporation_x2C__job">
</g>
<g id="_x31_0_listening_x2C__skill_x2C__dialog_x2C__business_x2C__office_x2C__corporation_x2C__job">
</g>
<g id="_x39__training_x2C__book_x2C__lesson_x2C__business_x2C__office_x2C__corporation_x2C__job">
</g>
<g id="_x38__dress_x2C__code_x2C__shirt_x2C__business_x2C__office_x2C__corporation_x2C__job">
</g>
<g id="_x37__task_x2C__program_x2C__ticket_x2C__business_x2C__office_x2C__corporation_x2C__job">
</g>
<g id="_x36__plan_x2C__graph_x2C__stage_x2C__business_x2C__office_x2C__corporation_x2C__job">
</g>
<g id="_x35__boss_x2C__king_x2C__crown_x2C__business_x2C__office_x2C__corporation_x2C__job">
</g>
<g id="_x34__structure_x2C__structuring_x2C__business_x2C__office_x2C__corporation_x2C__job">
</g>
<g id="_x33__soft_x2C__skills_x2C__communication_x2C__business_x2C__office_x2C__corporation_x2C__job">
</g>
<g id="_x32__office_x2C__house_x2C__portfolio_x2C__business_x2C__corporation_x2C__job">
</g>
<g id="_x31__corporate_x2C__rules_x2C__book_x2C__business_x2C__office_x2C__corporation_x2C__job">
</g>
</svg>
