<?xml version="1.0" encoding="utf-8"?>
<!-- Generator: Adobe Illustrator 16.0.0, SVG Export Plug-In . SVG Version: 6.00 Build 0)  -->
<!DOCTYPE svg PUBLIC "-//W3C//DTD SVG 1.1//EN" "http://www.w3.org/Graphics/SVG/1.1/DTD/svg11.dtd">
<svg version="1.1" xmlns="http://www.w3.org/2000/svg" xmlns:xlink="http://www.w3.org/1999/xlink" x="0px" y="0px" width="64px"
	 height="64px" viewBox="0 0 64 64" enable-background="new 0 0 64 64" xml:space="preserve">
<g id="_x35_0_document_x2C__optimization_x2C__documentation_x2C__business_x2C__office_x2C__corporation_x2C__job">
</g>
<g id="_x34_9_human_x2C__resource_x2C__conveyor_x2C__business_x2C__office_x2C__corporation_x2C__job">
</g>
<g id="_x34_8_knowledge_x2C__training_x2C__growth_x2C__book_x2C__business_x2C__office_x2C__corporation">
</g>
<g id="_x34_7_skill_x2C__competence_x2C__experience_x2C__business_x2C__office_x2C__corporation_x2C__job">
</g>
<g id="_x34_6_target_x2C__success_x2C__victory_x2C__business_x2C__office_x2C__corporation_x2C__job">
</g>
<g id="_x34_5_inbox_x2C__letter_x2C__email_x2C__business_x2C__office_x2C__corporation_x2C__job">
</g>
<g id="_x34_4_document_x2C__workflow_x2C__sharing_x2C__business_x2C__office_x2C__corporation_x2C__job">
</g>
<g id="_x34_3_budget_x2C__allocation_x2C__money_x2C__business_x2C__office_x2C__corporation_x2C__job">
</g>
<g id="_x34_2_case_x2C__task_x2C__project_x2C__business_x2C__office_x2C__corporation_x2C__job">
</g>
<g id="_x34_1_structure_x2C__structuring_x2C__tasks_x2C__business_x2C__office_x2C__corporation_x2C__job">
</g>
<g id="_x34_0_choice_x2C__dilemma_x2C__question_x2C__business_x2C__office_x2C__corporation_x2C__job">
</g>
<g id="_x33_9_workplace_x2C__table_x2C__laptop_x2C__business_x2C__office_x2C__corporation_x2C__job">
</g>
<g id="_x33_8_bribe_x2C__bag_x2C__money_x2C__business_x2C__office_x2C__corporation_x2C__job">
</g>
<g id="_x33_7_corruption_x2C__forage_x2C__money_x2C__business_x2C__office_x2C__corporation_x2C__job">
</g>
<g id="_x33_6_career_x2C__ladder_x2C__success_x2C__business_x2C__office_x2C__corporation_x2C__job">
</g>
<g id="_x33_5_review_x2C__feedback_x2C__rating_x2C__business_x2C__office_x2C__corporation_x2C__job">
</g>
<g id="_x33_4_manipulation_x2C__thread_x2C__puppet_x2C__business_x2C__office_x2C__corporation_x2C__job">
</g>
<g id="_x33_3_location_x2C__map_x2C__pin_x2C__business_x2C__office_x2C__corporation_x2C__job">
</g>
<g id="_x33_2_retirement_x2C__old_x2C__man_x2C__door_x2C__business_x2C__office_x2C__corporation">
</g>
<g id="_x33_1_victory_x2C__success_x2C__medal_x2C__reward_x2C__business_x2C__office_x2C__corporation">
</g>
<g id="_x33_0_dismissal_x2C__box_x2C__door_x2C__business_x2C__office_x2C__corporation_x2C__job">
</g>
<g id="_x32_9_meeting_x2C__discussion_x2C__question_x2C__business_x2C__office_x2C__corporation_x2C__job">
</g>
<g id="_x32_8_strategy_x2C__vision_x2C__eye_x2C__chess_x2C__business_x2C__office_x2C__corporation">
</g>
<g id="_x32_7_board_x2C__task_x2C__process_x2C__business_x2C__office_x2C__corporation_x2C__job">
</g>
<g id="_x32_6_scheme_x2C__board_x2C__structure_x2C__business_x2C__office_x2C__corporation_x2C__job">
</g>
<g id="_x32_5_conflict_x2C__dialog_x2C__discussion_x2C__business_x2C__office_x2C__corporation_x2C__job">
</g>
<g id="_x32_4_documentation_x2C__document_x2C__repository_x2C__business_x2C__office_x2C__corporation_x2C__job">
</g>
<g id="_x32_3_sprint_x2C__programming_x2C__code_x2C__business_x2C__office_x2C__corporation_x2C__job">
</g>
<g id="_x32_2_cram_x2C__tablet_x2C__work_x2C__business_x2C__office_x2C__corporation_x2C__job">
</g>
<g id="_x32_1_leader_x2C__discoverer_x2C__flag_x2C__business_x2C__office_x2C__corporation_x2C__job">
</g>
<g id="_x32_0_rally_x2C__collective_x2C__arm_x2C__business_x2C__office_x2C__corporation_x2C__job">
</g>
<g id="_x31_9_consolidation_x2C__portfolio_x2C__puzzle_x2C__business_x2C__office_x2C__corporation_x2C__job">
	<g>
		<g>
			<path fill="#37BC9B" d="M63.005,33v15.35c0,2.2-0.29,5.54-3,8L55.995,60l-0.17-0.18c0.72-0.721,1.17-1.721,1.17-2.82V39l6-6
				H63.005z"/>
		</g>
		<g>
			<polygon fill="#856CD3" points="63.005,15 63.005,33 62.995,33 56.995,39 56.995,21 62.995,15 			"/>
		</g>
		<g>
			<path fill="#856CD3" d="M62.995,15l-6,6c0-2.2-1.8-4-4-4l6-6C61.195,11,62.995,12.8,62.995,15z"/>
		</g>
		<g>
			<polygon fill="#967ADC" points="42.995,11 58.995,11 52.995,17 28.995,17 34.995,11 38.995,11 			"/>
		</g>
		<g>
			<path fill="#48CFAD" d="M56.995,39v18c0,1.1-0.45,2.1-1.17,2.82c-0.73,0.729-1.73,1.18-2.83,1.18h-24v-8.35
				c0.729,0.83,1.8,1.35,3,1.35c2.21,0,4-1.79,4-4s-1.79-4-4-4c-1.2,0-2.271,0.53-3,1.36V39h11.35c-0.83-0.73-1.35-1.8-1.35-3
				c0-2.21,1.79-4,4-4s4,1.79,4,4c0,1.2-0.53,2.27-1.36,3H56.995z"/>
		</g>
		<g>
			<path fill="#AC92EC" d="M56.995,21v18h-11.36c0.83-0.73,1.36-1.8,1.36-3c0-2.21-1.79-4-4-4s-4,1.79-4,4c0,1.2,0.52,2.27,1.35,3
				h-11.35v-8.35c-0.74,0.83-1.811,1.35-3,1.35c-2.21,0-4-1.79-4-4s1.79-4,4-4c1.189,0,2.26,0.53,3,1.36V17h24
				C55.195,17,56.995,18.8,56.995,21z"/>
		</g>
		<g>
			<path fill="#656D78" d="M42.995,5v3h-4h-14h-4V5c0-1.1,0.89-2,2-2h18C42.095,3,42.995,3.9,42.995,5z"/>
		</g>
		<g>
			<path fill="#5D9CEC" d="M31.995,46c2.21,0,4,1.79,4,4s-1.79,4-4,4c-1.2,0-2.271-0.52-3-1.35V61h-24c-2.2,0-4-1.8-4-4V39h11.35
				c-0.83,0.74-1.35,1.81-1.35,3c0,2.21,1.79,4,4,4s4-1.79,4-4c0-1.19-0.53-2.27-1.36-3h11.36v8.36
				C29.725,46.53,30.795,46,31.995,46z"/>
		</g>
		<g>
			<path fill="#8CC152" d="M20.995,11h4h10l-6,6h-24c-1.021,0-1.95,0.38-2.66,1.02L5.995,14c2.46-2.7,5.8-3,8-3H20.995z"/>
		</g>
		<g>
			<path fill="#A0D468" d="M28.995,30.65V39h-11.36c0.83,0.73,1.36,1.81,1.36,3c0,2.21-1.79,4-4,4s-4-1.79-4-4
				c0-1.19,0.52-2.26,1.35-3H0.995V21c0-1.18,0.52-2.25,1.34-2.98c0.71-0.64,1.64-1.02,2.66-1.02h24v8.36
				c-0.74-0.83-1.811-1.36-3-1.36c-2.21,0-4,1.79-4,4s1.79,4,4,4C27.185,32,28.255,31.48,28.995,30.65z"/>
		</g>
		<g>
			<rect x="20.995" y="8" fill="#E6E9ED" width="4" height="6"/>
		</g>
		<g>
			<rect x="38.995" y="8" fill="#E6E9ED" width="4" height="6"/>
		</g>
	</g>
	<g>
		<g>
			<path d="M52.993,62h-48c-2.757,0-5-2.243-5-5V21c0-2.757,2.243-5,5-5h48c2.757,0,5,2.243,5,5v36
				C57.993,59.757,55.75,62,52.993,62z M4.993,18c-1.654,0-3,1.346-3,3v36c0,1.654,1.346,3,3,3h48c1.654,0,3-1.346,3-3V21
				c0-1.654-1.346-3-3-3H4.993z"/>
		</g>
		<g>
			<path d="M5.993,15c-0.24,0-0.481-0.086-0.673-0.261c-0.408-0.371-0.438-1.004-0.066-1.412C7.967,10.345,11.541,10,13.993,10
				c0.553,0,1,0.447,1,1s-0.447,1-1,1c-2.073,0-5.081,0.277-7.261,2.673C6.535,14.89,6.265,15,5.993,15z"/>
		</g>
		<g>
			<path d="M62.993,16c-0.553,0-1-0.447-1-1c0-1.654-1.346-3-3-3c-0.553,0-1-0.447-1-1s0.447-1,1-1c2.757,0,5,2.243,5,5
				C63.993,15.553,63.546,16,62.993,16z"/>
		</g>
		<g>
			<g>
				<path d="M12.349,40H0.993c-0.553,0-1-0.447-1-1s0.447-1,1-1h11.355c0.553,0,1,0.447,1,1S12.901,40,12.349,40z"/>
			</g>
			<g>
				<path d="M14.993,47c-2.757,0-5-2.243-5-5c0-1.435,0.617-2.801,1.694-3.75c0.414-0.365,1.046-0.327,1.411,0.089
					c0.365,0.414,0.325,1.046-0.089,1.411c-0.646,0.569-1.017,1.39-1.017,2.25c0,1.654,1.346,3,3,3s3-1.346,3-3
					c0-0.861-0.37-1.682-1.017-2.251c-0.414-0.365-0.454-0.997-0.089-1.411c0.365-0.415,0.998-0.454,1.411-0.089
					c1.077,0.949,1.694,2.316,1.694,3.751C19.993,44.757,17.75,47,14.993,47z"/>
			</g>
			<g>
				<path d="M28.993,40H17.638c-0.553,0-1-0.447-1-1s0.447-1,1-1h11.355c0.553,0,1,0.447,1,1S29.546,40,28.993,40z"/>
			</g>
		</g>
		<g>
			<g>
				<path d="M56.993,40H45.638c-0.553,0-1-0.447-1-1s0.447-1,1-1h11.355c0.553,0,1,0.447,1,1S57.546,40,56.993,40z"/>
			</g>
			<g>
				<path d="M40.349,40.001c-0.235,0-0.471-0.082-0.661-0.25c-1.077-0.949-1.694-2.316-1.694-3.751c0-2.757,2.243-5,5-5s5,2.243,5,5
					c0,1.435-0.617,2.801-1.694,3.75c-0.414,0.365-1.046,0.327-1.411-0.089c-0.365-0.414-0.325-1.046,0.089-1.411
					c0.646-0.569,1.017-1.39,1.017-2.25c0-1.654-1.346-3-3-3s-3,1.346-3,3c0,0.861,0.37,1.682,1.017,2.251
					c0.414,0.365,0.454,0.997,0.089,1.411C40.901,39.887,40.625,40.001,40.349,40.001z"/>
			</g>
			<g>
				<path d="M40.349,40H28.993c-0.553,0-1-0.447-1-1s0.447-1,1-1h11.355c0.553,0,1,0.447,1,1S40.901,40,40.349,40z"/>
			</g>
		</g>
		<g>
			<g>
				<path d="M28.993,62c-0.553,0-1-0.447-1-1v-8.355c0-0.553,0.447-1,1-1s1,0.447,1,1V61C29.993,61.553,29.546,62,28.993,62z"/>
			</g>
			<g>
				<path d="M31.993,55c-1.433,0-2.8-0.617-3.75-1.693c-0.365-0.414-0.326-1.046,0.088-1.412c0.414-0.365,1.045-0.325,1.412,0.088
					c0.57,0.646,1.391,1.018,2.25,1.018c1.654,0,3-1.346,3-3s-1.346-3-3-3c-0.861,0-1.681,0.37-2.249,1.017
					c-0.366,0.415-0.998,0.454-1.412,0.09c-0.414-0.365-0.454-0.997-0.09-1.412C29.19,45.618,30.558,45,31.993,45
					c2.757,0,5,2.243,5,5S34.75,55,31.993,55z"/>
			</g>
			<g>
				<path d="M28.993,48.355c-0.553,0-1-0.447-1-1V39c0-0.553,0.447-1,1-1s1,0.447,1,1v8.355
					C29.993,47.908,29.546,48.355,28.993,48.355z"/>
			</g>
		</g>
		<g>
			<g>
				<path d="M28.993,26.355c-0.553,0-1-0.447-1-1V17c0-0.553,0.447-1,1-1s1,0.447,1,1v8.355
					C29.993,25.908,29.546,26.355,28.993,26.355z"/>
			</g>
			<g>
				<path d="M25.993,33c-2.757,0-5-2.243-5-5s2.243-5,5-5c1.433,0,2.8,0.617,3.75,1.693c0.365,0.414,0.326,1.046-0.088,1.412
					c-0.413,0.365-1.045,0.326-1.412-0.088C27.673,25.371,26.853,25,25.993,25c-1.654,0-3,1.346-3,3s1.346,3,3,3
					c0.861,0,1.681-0.37,2.249-1.017c0.366-0.416,0.998-0.454,1.412-0.09c0.414,0.365,0.454,0.997,0.09,1.412
					C28.796,32.382,27.429,33,25.993,33z"/>
			</g>
			<g>
				<path d="M28.993,40c-0.553,0-1-0.447-1-1v-8.355c0-0.553,0.447-1,1-1s1,0.447,1,1V39C29.993,39.553,29.546,40,28.993,40z"/>
			</g>
		</g>
		<g>
			<g>
				<path d="M20.993,15c-0.553,0-1-0.447-1-1V5c0-0.553,0.447-1,1-1s1,0.447,1,1v9C21.993,14.553,21.546,15,20.993,15z"/>
			</g>
			<g>
				<path d="M20.993,6c-0.553,0-1-0.447-1-1c0-1.654,1.346-3,3-3c0.553,0,1,0.447,1,1s-0.447,1-1,1c-0.552,0-1,0.448-1,1
					C21.993,5.553,21.546,6,20.993,6z"/>
			</g>
			<g>
				<path d="M42.993,15c-0.553,0-1-0.447-1-1V5c0-0.553,0.447-1,1-1s1,0.447,1,1v9C43.993,14.553,43.546,15,42.993,15z"/>
			</g>
			<g>
				<path d="M42.993,6c-0.553,0-1-0.447-1-1c0-0.552-0.448-1-1-1c-0.553,0-1-0.447-1-1s0.447-1,1-1c1.654,0,3,1.346,3,3
					C43.993,5.553,43.546,6,42.993,6z"/>
			</g>
			<g>
				<path d="M40.993,4h-18c-0.553,0-1-0.447-1-1s0.447-1,1-1h18c0.553,0,1,0.447,1,1S41.546,4,40.993,4z"/>
			</g>
			<g>
				<path d="M42.993,9h-22c-0.553,0-1-0.447-1-1s0.447-1,1-1h22c0.553,0,1,0.447,1,1S43.546,9,42.993,9z"/>
			</g>
			<g>
				<path d="M24.993,15c-0.553,0-1-0.447-1-1V8c0-0.553,0.447-1,1-1s1,0.447,1,1v6C25.993,14.553,25.546,15,24.993,15z"/>
			</g>
			<g>
				<path d="M38.993,15c-0.553,0-1-0.447-1-1V8c0-0.553,0.447-1,1-1s1,0.447,1,1v6C39.993,14.553,39.546,15,38.993,15z"/>
			</g>
		</g>
		<g>
			<path d="M2.341,19.014c-0.24,0-0.481-0.086-0.673-0.261c-0.408-0.371-0.438-1.004-0.066-1.412l3.652-4.014
				c0.372-0.409,1.005-0.438,1.412-0.066c0.408,0.371,0.438,1.004,0.066,1.412L3.08,18.687C2.883,18.903,2.612,19.014,2.341,19.014z
				"/>
		</g>
		<g>
			<g>
				<path d="M60.007,57.348c-0.271,0-0.542-0.11-0.739-0.327c-0.372-0.408-0.342-1.041,0.066-1.412
					c2.396-2.18,2.673-5.188,2.673-7.261V15c0-0.553,0.447-1,1-1s1,0.447,1,1v33.348c0,2.452-0.345,6.026-3.327,8.739
					C60.488,57.262,60.247,57.348,60.007,57.348z"/>
			</g>
			<g>
				<path d="M55.993,61c-0.271,0-0.542-0.11-0.739-0.327c-0.372-0.408-0.342-1.041,0.066-1.412l4.014-3.652
					c0.408-0.372,1.041-0.342,1.412,0.066c0.372,0.408,0.342,1.041-0.066,1.412l-4.014,3.652C56.475,60.914,56.233,61,55.993,61z"/>
			</g>
		</g>
		<g>
			<path d="M52.993,18c-0.256,0-0.512-0.098-0.707-0.293c-0.391-0.391-0.391-1.023,0-1.414l6-6c0.391-0.391,1.023-0.391,1.414,0
				s0.391,1.023,0,1.414l-6,6C53.505,17.902,53.249,18,52.993,18z"/>
		</g>
		<g>
			<path d="M56.993,22c-0.256,0-0.512-0.098-0.707-0.293c-0.391-0.391-0.391-1.023,0-1.414l6-6c0.391-0.391,1.023-0.391,1.414,0
				s0.391,1.023,0,1.414l-6,6C57.505,21.902,57.249,22,56.993,22z"/>
		</g>
		<g>
			<path d="M56.993,40c-0.256,0-0.512-0.098-0.707-0.293c-0.391-0.391-0.391-1.023,0-1.414l6-6c0.391-0.391,1.023-0.391,1.414,0
				s0.391,1.023,0,1.414l-6,6C57.505,39.902,57.249,40,56.993,40z"/>
		</g>
		<g>
			<path d="M20.993,12h-7c-0.553,0-1-0.447-1-1s0.447-1,1-1h7c0.553,0,1,0.447,1,1S21.546,12,20.993,12z"/>
		</g>
		<g>
			<path d="M38.993,12h-14c-0.553,0-1-0.447-1-1s0.447-1,1-1h14c0.553,0,1,0.447,1,1S39.546,12,38.993,12z"/>
		</g>
		<g>
			<path d="M58.993,12h-16c-0.553,0-1-0.447-1-1s0.447-1,1-1h16c0.553,0,1,0.447,1,1S59.546,12,58.993,12z"/>
		</g>
		<g>
			<path d="M28.993,18c-0.256,0-0.512-0.098-0.707-0.293c-0.391-0.391-0.391-1.023,0-1.414l6-6c0.391-0.391,1.023-0.391,1.414,0
				s0.391,1.023,0,1.414l-6,6C29.505,17.902,29.249,18,28.993,18z"/>
		</g>
	</g>
</g>
<g id="_x31_8_idea_x2C__creative_x2C__work_x2C__business_x2C__office_x2C__corporation_x2C__job">
</g>
<g id="_x31_7_problem_x2C__stress_x2C__resistance_x2C__business_x2C__office_x2C__corporation_x2C__job">
</g>
<g id="_x31_6_hard_x2C__skills_x2C__skill_x2C__portfolio_x2C__book_x2C__business_x2C__office">
</g>
<g id="_x31_5_time_x2C__management_x2C__clock_x2C__deadline_x2C__business_x2C__office_x2C__corporation">
</g>
<g id="_x31_4_multitasking_x2C__task_x2C__work_x2C__business_x2C__office_x2C__corporation_x2C__job">
</g>
<g id="_x31_3_tranquility_x2C__yoga_x2C__lotus_x2C__posture_x2C__business_x2C__office_x2C__corporation">
</g>
<g id="_x31_2_corporate_x2C__party_x2C__business_x2C__office_x2C__corporation_x2C__job">
</g>
<g id="_x31_1_dialog_x2C__discussion_x2C__work_x2C__business_x2C__office_x2C__corporation_x2C__job">
</g>
<g id="_x31_0_listening_x2C__skill_x2C__dialog_x2C__business_x2C__office_x2C__corporation_x2C__job">
</g>
<g id="_x39__training_x2C__book_x2C__lesson_x2C__business_x2C__office_x2C__corporation_x2C__job">
</g>
<g id="_x38__dress_x2C__code_x2C__shirt_x2C__business_x2C__office_x2C__corporation_x2C__job">
</g>
<g id="_x37__task_x2C__program_x2C__ticket_x2C__business_x2C__office_x2C__corporation_x2C__job">
</g>
<g id="_x36__plan_x2C__graph_x2C__stage_x2C__business_x2C__office_x2C__corporation_x2C__job">
</g>
<g id="_x35__boss_x2C__king_x2C__crown_x2C__business_x2C__office_x2C__corporation_x2C__job">
</g>
<g id="_x34__structure_x2C__structuring_x2C__business_x2C__office_x2C__corporation_x2C__job">
</g>
<g id="_x33__soft_x2C__skills_x2C__communication_x2C__business_x2C__office_x2C__corporation_x2C__job">
</g>
<g id="_x32__office_x2C__house_x2C__portfolio_x2C__business_x2C__corporation_x2C__job">
</g>
<g id="_x31__corporate_x2C__rules_x2C__book_x2C__business_x2C__office_x2C__corporation_x2C__job">
</g>
</svg>
