<?xml version="1.0" encoding="utf-8"?>
<!-- Generator: Adobe Illustrator 16.0.0, SVG Export Plug-In . SVG Version: 6.00 Build 0)  -->
<!DOCTYPE svg PUBLIC "-//W3C//DTD SVG 1.1//EN" "http://www.w3.org/Graphics/SVG/1.1/DTD/svg11.dtd">
<svg version="1.1" xmlns="http://www.w3.org/2000/svg" xmlns:xlink="http://www.w3.org/1999/xlink" x="0px" y="0px" width="64px"
	 height="64px" viewBox="0 0 64 64" enable-background="new 0 0 64 64" xml:space="preserve">
<g id="_x35_0_document_x2C__optimization_x2C__documentation_x2C__business_x2C__office_x2C__corporation_x2C__job">
</g>
<g id="_x34_9_human_x2C__resource_x2C__conveyor_x2C__business_x2C__office_x2C__corporation_x2C__job">
</g>
<g id="_x34_8_knowledge_x2C__training_x2C__growth_x2C__book_x2C__business_x2C__office_x2C__corporation">
</g>
<g id="_x34_7_skill_x2C__competence_x2C__experience_x2C__business_x2C__office_x2C__corporation_x2C__job">
</g>
<g id="_x34_6_target_x2C__success_x2C__victory_x2C__business_x2C__office_x2C__corporation_x2C__job">
</g>
<g id="_x34_5_inbox_x2C__letter_x2C__email_x2C__business_x2C__office_x2C__corporation_x2C__job">
</g>
<g id="_x34_4_document_x2C__workflow_x2C__sharing_x2C__business_x2C__office_x2C__corporation_x2C__job">
</g>
<g id="_x34_3_budget_x2C__allocation_x2C__money_x2C__business_x2C__office_x2C__corporation_x2C__job">
</g>
<g id="_x34_2_case_x2C__task_x2C__project_x2C__business_x2C__office_x2C__corporation_x2C__job">
</g>
<g id="_x34_1_structure_x2C__structuring_x2C__tasks_x2C__business_x2C__office_x2C__corporation_x2C__job">
</g>
<g id="_x34_0_choice_x2C__dilemma_x2C__question_x2C__business_x2C__office_x2C__corporation_x2C__job">
</g>
<g id="_x33_9_workplace_x2C__table_x2C__laptop_x2C__business_x2C__office_x2C__corporation_x2C__job">
</g>
<g id="_x33_8_bribe_x2C__bag_x2C__money_x2C__business_x2C__office_x2C__corporation_x2C__job">
</g>
<g id="_x33_7_corruption_x2C__forage_x2C__money_x2C__business_x2C__office_x2C__corporation_x2C__job">
</g>
<g id="_x33_6_career_x2C__ladder_x2C__success_x2C__business_x2C__office_x2C__corporation_x2C__job">
</g>
<g id="_x33_5_review_x2C__feedback_x2C__rating_x2C__business_x2C__office_x2C__corporation_x2C__job">
</g>
<g id="_x33_4_manipulation_x2C__thread_x2C__puppet_x2C__business_x2C__office_x2C__corporation_x2C__job">
</g>
<g id="_x33_3_location_x2C__map_x2C__pin_x2C__business_x2C__office_x2C__corporation_x2C__job">
</g>
<g id="_x33_2_retirement_x2C__old_x2C__man_x2C__door_x2C__business_x2C__office_x2C__corporation">
</g>
<g id="_x33_1_victory_x2C__success_x2C__medal_x2C__reward_x2C__business_x2C__office_x2C__corporation">
</g>
<g id="_x33_0_dismissal_x2C__box_x2C__door_x2C__business_x2C__office_x2C__corporation_x2C__job">
</g>
<g id="_x32_9_meeting_x2C__discussion_x2C__question_x2C__business_x2C__office_x2C__corporation_x2C__job">
</g>
<g id="_x32_8_strategy_x2C__vision_x2C__eye_x2C__chess_x2C__business_x2C__office_x2C__corporation">
</g>
<g id="_x32_7_board_x2C__task_x2C__process_x2C__business_x2C__office_x2C__corporation_x2C__job">
	<g>
		<g>
			<path fill="#E6E9ED" d="M62,54H2V10h8h5h34h5h8V54z"/>
		</g>
		<g>
			<rect x="58" y="10" fill="#CCD1D9" width="4" height="44"/>
		</g>
		<g>
			<polygon fill="#656D78" points="63,54 63,57 1,57 1,54 2,54 8,54 19,54 62,54 			"/>
		</g>
		<g>
			<polygon fill="#434A54" points="62,54 59,54 59,57 63,57 63,54 			"/>
		</g>
		<g>
			<rect x="10" y="7" fill="#CCD1D9" width="5" height="3"/>
		</g>
		<g>
			<rect x="49" y="7" fill="#CCD1D9" width="5" height="3"/>
		</g>
		<g>
			<rect x="49" y="31" fill="#FFCE54" width="5" height="5"/>
		</g>
		<g>
			<rect x="49" y="22" fill="#FFCE54" width="5" height="5"/>
		</g>
		<g>
			<rect x="36" y="22" fill="#FFCE54" width="5" height="5"/>
		</g>
		<g>
			<rect x="10" y="22" fill="#FFCE54" width="5" height="5"/>
		</g>
		<g>
			<rect x="23" y="22" fill="#FFCE54" width="5" height="5"/>
		</g>
		<g>
			<rect x="23" y="31" fill="#FFCE54" width="5" height="5"/>
		</g>
		<g>
			<rect x="36" y="31" fill="#FFCE54" width="5" height="5"/>
		</g>
		<g>
			<rect x="36" y="40" fill="#FFCE54" width="5" height="5"/>
		</g>
		<g>
			<rect x="8" y="50" fill="#5D9CEC" width="11" height="4"/>
		</g>
	</g>
	<g>
		<g>
			<path d="M62,55H2c-0.553,0-1-0.447-1-1V10c0-0.553,0.447-1,1-1h60c0.553,0,1,0.447,1,1v44C63,54.553,62.553,55,62,55z M3,53h58
				V11H3V53z"/>
		</g>
		<g>
			<path d="M63,58H1c-0.553,0-1-0.447-1-1v-3c0-0.553,0.447-1,1-1h62c0.553,0,1,0.447,1,1v3C64,57.553,63.553,58,63,58z M2,56h60v-1
				H2V56z"/>
		</g>
		<g>
			<path d="M19,55H8c-0.553,0-1-0.447-1-1v-4c0-0.553,0.447-1,1-1h11c0.553,0,1,0.447,1,1v4C20,54.553,19.553,55,19,55z M9,53h9v-2
				H9V53z"/>
		</g>
		<g>
			<path d="M56,52H45c-0.553,0-1-0.447-1-1s0.447-1,1-1h11c0.553,0,1,0.447,1,1S56.553,52,56,52z"/>
		</g>
		<g>
			<g>
				<path d="M19,46c-0.553,0-1-0.447-1-1V15c0-0.553,0.447-1,1-1s1,0.447,1,1v30C20,45.553,19.553,46,19,46z"/>
			</g>
			<g>
				<path d="M32,46c-0.553,0-1-0.447-1-1V15c0-0.553,0.447-1,1-1s1,0.447,1,1v30C33,45.553,32.553,46,32,46z"/>
			</g>
			<g>
				<path d="M45,46c-0.553,0-1-0.447-1-1V15c0-0.553,0.447-1,1-1s1,0.447,1,1v30C46,45.553,45.553,46,45,46z"/>
			</g>
		</g>
		<g>
			<path d="M57,19H7c-0.553,0-1-0.447-1-1s0.447-1,1-1h50c0.553,0,1,0.447,1,1S57.553,19,57,19z"/>
		</g>
		<g>
			<path d="M15,16h-5c-0.553,0-1-0.447-1-1s0.447-1,1-1h5c0.553,0,1,0.447,1,1S15.553,16,15,16z"/>
		</g>
		<g>
			<path d="M28,16h-5c-0.553,0-1-0.447-1-1s0.447-1,1-1h5c0.553,0,1,0.447,1,1S28.553,16,28,16z"/>
		</g>
		<g>
			<path d="M41,16h-5c-0.553,0-1-0.447-1-1s0.447-1,1-1h5c0.553,0,1,0.447,1,1S41.553,16,41,16z"/>
		</g>
		<g>
			<path d="M54,16h-5c-0.553,0-1-0.447-1-1s0.447-1,1-1h5c0.553,0,1,0.447,1,1S54.553,16,54,16z"/>
		</g>
		<g>
			<path d="M15,28h-5c-0.553,0-1-0.447-1-1v-5c0-0.553,0.447-1,1-1h5c0.553,0,1,0.447,1,1v5C16,27.553,15.553,28,15,28z M11,26h3v-3
				h-3V26z"/>
		</g>
		<g>
			<path d="M54,28h-5c-0.553,0-1-0.447-1-1v-5c0-0.553,0.447-1,1-1h5c0.553,0,1,0.447,1,1v5C55,27.553,54.553,28,54,28z M50,26h3v-3
				h-3V26z"/>
		</g>
		<g>
			<path d="M54,37h-5c-0.553,0-1-0.447-1-1v-5c0-0.553,0.447-1,1-1h5c0.553,0,1,0.447,1,1v5C55,36.553,54.553,37,54,37z M50,35h3v-3
				h-3V35z"/>
		</g>
		<g>
			<path d="M41,46h-5c-0.553,0-1-0.447-1-1v-5c0-0.553,0.447-1,1-1h5c0.553,0,1,0.447,1,1v5C42,45.553,41.553,46,41,46z M37,44h3v-3
				h-3V44z"/>
		</g>
		<g>
			<path d="M28,28h-5c-0.553,0-1-0.447-1-1v-5c0-0.553,0.447-1,1-1h5c0.553,0,1,0.447,1,1v5C29,27.553,28.553,28,28,28z M24,26h3v-3
				h-3V26z"/>
		</g>
		<g>
			<path d="M28,37h-5c-0.553,0-1-0.447-1-1v-5c0-0.553,0.447-1,1-1h5c0.553,0,1,0.447,1,1v5C29,36.553,28.553,37,28,37z M24,35h3v-3
				h-3V35z"/>
		</g>
		<g>
			<path d="M41,37h-5c-0.553,0-1-0.447-1-1v-5c0-0.553,0.447-1,1-1h5c0.553,0,1,0.447,1,1v5C42,36.553,41.553,37,41,37z M37,35h3v-3
				h-3V35z"/>
		</g>
		<g>
			<path d="M41,28h-5c-0.553,0-1-0.447-1-1v-5c0-0.553,0.447-1,1-1h5c0.553,0,1,0.447,1,1v5C42,27.553,41.553,28,41,28z M37,26h3v-3
				h-3V26z"/>
		</g>
		<g>
			<path d="M10,11c-0.553,0-1-0.447-1-1V7c0-0.553,0.447-1,1-1s1,0.447,1,1v3C11,10.553,10.553,11,10,11z"/>
		</g>
		<g>
			<path d="M15,11c-0.553,0-1-0.447-1-1V7c0-0.553,0.447-1,1-1s1,0.447,1,1v3C16,10.553,15.553,11,15,11z"/>
		</g>
		<g>
			<path d="M15,8h-5C9.447,8,9,7.553,9,7s0.447-1,1-1h5c0.553,0,1,0.447,1,1S15.553,8,15,8z"/>
		</g>
		<g>
			<path d="M49,11c-0.553,0-1-0.447-1-1V7c0-0.553,0.447-1,1-1s1,0.447,1,1v3C50,10.553,49.553,11,49,11z"/>
		</g>
		<g>
			<path d="M54,11c-0.553,0-1-0.447-1-1V7c0-0.553,0.447-1,1-1s1,0.447,1,1v3C55,10.553,54.553,11,54,11z"/>
		</g>
		<g>
			<path d="M54,8h-5c-0.553,0-1-0.447-1-1s0.447-1,1-1h5c0.553,0,1,0.447,1,1S54.553,8,54,8z"/>
		</g>
	</g>
</g>
<g id="_x32_6_scheme_x2C__board_x2C__structure_x2C__business_x2C__office_x2C__corporation_x2C__job">
</g>
<g id="_x32_5_conflict_x2C__dialog_x2C__discussion_x2C__business_x2C__office_x2C__corporation_x2C__job">
</g>
<g id="_x32_4_documentation_x2C__document_x2C__repository_x2C__business_x2C__office_x2C__corporation_x2C__job">
</g>
<g id="_x32_3_sprint_x2C__programming_x2C__code_x2C__business_x2C__office_x2C__corporation_x2C__job">
</g>
<g id="_x32_2_cram_x2C__tablet_x2C__work_x2C__business_x2C__office_x2C__corporation_x2C__job">
</g>
<g id="_x32_1_leader_x2C__discoverer_x2C__flag_x2C__business_x2C__office_x2C__corporation_x2C__job">
</g>
<g id="_x32_0_rally_x2C__collective_x2C__arm_x2C__business_x2C__office_x2C__corporation_x2C__job">
</g>
<g id="_x31_9_consolidation_x2C__portfolio_x2C__puzzle_x2C__business_x2C__office_x2C__corporation_x2C__job">
</g>
<g id="_x31_8_idea_x2C__creative_x2C__work_x2C__business_x2C__office_x2C__corporation_x2C__job">
</g>
<g id="_x31_7_problem_x2C__stress_x2C__resistance_x2C__business_x2C__office_x2C__corporation_x2C__job">
</g>
<g id="_x31_6_hard_x2C__skills_x2C__skill_x2C__portfolio_x2C__book_x2C__business_x2C__office">
</g>
<g id="_x31_5_time_x2C__management_x2C__clock_x2C__deadline_x2C__business_x2C__office_x2C__corporation">
</g>
<g id="_x31_4_multitasking_x2C__task_x2C__work_x2C__business_x2C__office_x2C__corporation_x2C__job">
</g>
<g id="_x31_3_tranquility_x2C__yoga_x2C__lotus_x2C__posture_x2C__business_x2C__office_x2C__corporation">
</g>
<g id="_x31_2_corporate_x2C__party_x2C__business_x2C__office_x2C__corporation_x2C__job">
</g>
<g id="_x31_1_dialog_x2C__discussion_x2C__work_x2C__business_x2C__office_x2C__corporation_x2C__job">
</g>
<g id="_x31_0_listening_x2C__skill_x2C__dialog_x2C__business_x2C__office_x2C__corporation_x2C__job">
</g>
<g id="_x39__training_x2C__book_x2C__lesson_x2C__business_x2C__office_x2C__corporation_x2C__job">
</g>
<g id="_x38__dress_x2C__code_x2C__shirt_x2C__business_x2C__office_x2C__corporation_x2C__job">
</g>
<g id="_x37__task_x2C__program_x2C__ticket_x2C__business_x2C__office_x2C__corporation_x2C__job">
</g>
<g id="_x36__plan_x2C__graph_x2C__stage_x2C__business_x2C__office_x2C__corporation_x2C__job">
</g>
<g id="_x35__boss_x2C__king_x2C__crown_x2C__business_x2C__office_x2C__corporation_x2C__job">
</g>
<g id="_x34__structure_x2C__structuring_x2C__business_x2C__office_x2C__corporation_x2C__job">
</g>
<g id="_x33__soft_x2C__skills_x2C__communication_x2C__business_x2C__office_x2C__corporation_x2C__job">
</g>
<g id="_x32__office_x2C__house_x2C__portfolio_x2C__business_x2C__corporation_x2C__job">
</g>
<g id="_x31__corporate_x2C__rules_x2C__book_x2C__business_x2C__office_x2C__corporation_x2C__job">
</g>
</svg>
