<?xml version="1.0" encoding="utf-8"?>
<!-- Generator: Adobe Illustrator 16.0.0, SVG Export Plug-In . SVG Version: 6.00 Build 0)  -->
<!DOCTYPE svg PUBLIC "-//W3C//DTD SVG 1.1//EN" "http://www.w3.org/Graphics/SVG/1.1/DTD/svg11.dtd">
<svg version="1.1" xmlns="http://www.w3.org/2000/svg" xmlns:xlink="http://www.w3.org/1999/xlink" x="0px" y="0px" width="64px"
	 height="64px" viewBox="0 0 64 64" enable-background="new 0 0 64 64" xml:space="preserve">
<g id="_x35_0_document_x2C__optimization_x2C__documentation_x2C__business_x2C__office_x2C__corporation_x2C__job">
</g>
<g id="_x34_9_human_x2C__resource_x2C__conveyor_x2C__business_x2C__office_x2C__corporation_x2C__job">
</g>
<g id="_x34_8_knowledge_x2C__training_x2C__growth_x2C__book_x2C__business_x2C__office_x2C__corporation">
</g>
<g id="_x34_7_skill_x2C__competence_x2C__experience_x2C__business_x2C__office_x2C__corporation_x2C__job">
</g>
<g id="_x34_6_target_x2C__success_x2C__victory_x2C__business_x2C__office_x2C__corporation_x2C__job">
</g>
<g id="_x34_5_inbox_x2C__letter_x2C__email_x2C__business_x2C__office_x2C__corporation_x2C__job">
</g>
<g id="_x34_4_document_x2C__workflow_x2C__sharing_x2C__business_x2C__office_x2C__corporation_x2C__job">
</g>
<g id="_x34_3_budget_x2C__allocation_x2C__money_x2C__business_x2C__office_x2C__corporation_x2C__job">
</g>
<g id="_x34_2_case_x2C__task_x2C__project_x2C__business_x2C__office_x2C__corporation_x2C__job">
</g>
<g id="_x34_1_structure_x2C__structuring_x2C__tasks_x2C__business_x2C__office_x2C__corporation_x2C__job">
</g>
<g id="_x34_0_choice_x2C__dilemma_x2C__question_x2C__business_x2C__office_x2C__corporation_x2C__job">
</g>
<g id="_x33_9_workplace_x2C__table_x2C__laptop_x2C__business_x2C__office_x2C__corporation_x2C__job">
</g>
<g id="_x33_8_bribe_x2C__bag_x2C__money_x2C__business_x2C__office_x2C__corporation_x2C__job">
</g>
<g id="_x33_7_corruption_x2C__forage_x2C__money_x2C__business_x2C__office_x2C__corporation_x2C__job">
</g>
<g id="_x33_6_career_x2C__ladder_x2C__success_x2C__business_x2C__office_x2C__corporation_x2C__job">
</g>
<g id="_x33_5_review_x2C__feedback_x2C__rating_x2C__business_x2C__office_x2C__corporation_x2C__job">
</g>
<g id="_x33_4_manipulation_x2C__thread_x2C__puppet_x2C__business_x2C__office_x2C__corporation_x2C__job">
</g>
<g id="_x33_3_location_x2C__map_x2C__pin_x2C__business_x2C__office_x2C__corporation_x2C__job">
	<g>
		<g>
			<polygon fill="#A0D468" points="60.33,50.5 57.67,46.5 53,39.5 11,39.5 8.33,43.5 1,54.5 9.85,54.5 54.15,54.5 63,54.5 			"/>
		</g>
		<g>
			<path fill="#FFCE54" d="M29.9,44.5c-1.2-1.221-2.801-2.939-4.471-5C21.4,34.51,17,27.46,17,20.5c0-8.28,6.71-15,15-15
				s15,6.72,15,15c0,6.96-4.4,14.01-8.43,19c-1.67,2.061-3.271,3.779-4.471,5h-0.01c-1.26,1.27-2.09,2-2.09,2S31.17,45.77,29.9,44.5
				z"/>
		</g>
		<g>
			<path fill="#F6BB42" d="M32,5.5c-0.68,0-1.344,0.061-2,0.148c7.341,0.98,13,7.25,13,14.852c0,6.96-4.4,14.01-8.43,19
				c-1.67,2.061-3.271,3.779-4.471,5h-0.01c-0.033,0.033-0.063,0.062-0.095,0.094C31.209,45.803,32,46.5,32,46.5s0.83-0.73,2.09-2
				h0.01c1.2-1.221,2.801-2.939,4.471-5C42.6,34.51,47,27.46,47,20.5C47,12.22,40.29,5.5,32,5.5z"/>
		</g>
		<g>
			<polygon fill="#8CC152" points="60.33,50.5 54.34,50.5 54.33,50.5 50.33,46.5 57.67,46.5 			"/>
		</g>
		<g>
			<polygon fill="#8CC152" points="38.1,48.5 42.43,44.5 47.87,53.5 24.13,53.5 20.13,49.5 			"/>
		</g>
		<g>
			<polygon fill="#E6E9ED" points="60.33,50.5 63,54.5 54.15,54.5 52.24,50.5 			"/>
		</g>
		<g>
			<path fill="#E6E9ED" d="M32,46.5c0,0,0.83-0.73,2.09-2h0.01h8.33l1.44,5H20.13l1.44-5h8.33C31.17,45.77,32,46.5,32,46.5z"/>
		</g>
		<g>
			<polygon fill="#E6E9ED" points="15.09,43.5 9.85,54.5 1,54.5 8.33,43.5 			"/>
		</g>
		<g>
			<polygon fill="#8CC152" points="19.09,47.5 15.755,54.5 9.85,54.5 15.09,43.5 			"/>
		</g>
		<g>
			<polygon fill="#81B53E" points="63,54.5 63,58.5 1,58.5 1,54.5 9.85,54.5 54.15,54.5 			"/>
		</g>
		<g>
			<polygon fill="#E6E9ED" points="57.67,46.5 50.34,46.5 50.33,46.5 47,39.5 53,39.5 			"/>
		</g>
		<g>
			<path fill="#656D78" d="M39,19.5v8c0,0.55-0.45,1-1,1H26c-0.55,0-1-0.45-1-1v-8c0-0.55,0.45-1,1-1h3h6h3
				C38.55,18.5,39,18.95,39,19.5z"/>
		</g>
	</g>
	<g>
		<g>
			<path d="M63,55.5H1c-0.369,0-0.708-0.203-0.882-0.528s-0.154-0.72,0.05-1.026l10-15c0.306-0.459,0.926-0.584,1.387-0.277
				c0.46,0.307,0.584,0.927,0.277,1.387L2.868,53.5h58.264l-8.964-13.445c-0.307-0.46-0.183-1.08,0.277-1.387
				s1.08-0.182,1.387,0.277l10,15c0.204,0.307,0.224,0.701,0.05,1.026S63.369,55.5,63,55.5z"/>
		</g>
		<g>
			<path d="M63,59.5H1c-0.553,0-1-0.447-1-1v-4c0-0.553,0.447-1,1-1h62c0.553,0,1,0.447,1,1v4C64,59.053,63.553,59.5,63,59.5z
				 M2,57.5h60v-2H2V57.5z"/>
		</g>
		<g>
			<path d="M9.849,55.5c-0.144,0-0.29-0.031-0.43-0.098c-0.498-0.237-0.71-0.834-0.472-1.333l5.243-11
				c0.236-0.497,0.829-0.712,1.333-0.472c0.498,0.237,0.71,0.834,0.472,1.333l-5.243,11C10.581,55.29,10.223,55.5,9.849,55.5z"/>
		</g>
		<g>
			<path d="M20.134,50.5c-0.092,0-0.185-0.013-0.276-0.039c-0.531-0.152-0.838-0.706-0.686-1.236l1.434-5
				c0.151-0.532,0.711-0.836,1.236-0.686c0.531,0.152,0.838,0.706,0.686,1.236l-1.434,5C20.969,50.215,20.568,50.5,20.134,50.5z"/>
		</g>
		<g>
			<path d="M54.151,55.5c-0.374,0-0.732-0.21-0.903-0.569l-1.908-4.002c-0.238-0.499-0.026-1.096,0.472-1.333
				c0.503-0.24,1.096-0.026,1.333,0.472l1.908,4.002c0.238,0.499,0.026,1.096-0.472,1.333C54.441,55.469,54.295,55.5,54.151,55.5z"
				/>
		</g>
		<g>
			<path d="M50.335,47.495c-0.374,0-0.732-0.21-0.903-0.569l-3.334-6.995c-0.238-0.499-0.026-1.096,0.472-1.333
				c0.503-0.24,1.097-0.025,1.333,0.472l3.334,6.995c0.238,0.499,0.026,1.096-0.472,1.333
				C50.625,47.464,50.479,47.495,50.335,47.495z"/>
		</g>
		<g>
			<path d="M43.866,50.5c-0.435,0-0.834-0.285-0.96-0.725l-1.434-5c-0.152-0.53,0.154-1.084,0.686-1.236
				c0.527-0.149,1.084,0.153,1.236,0.686l1.434,5c0.152,0.53-0.154,1.084-0.686,1.236C44.051,50.487,43.958,50.5,43.866,50.5z"/>
		</g>
		<g>
			<path d="M15.094,44.5H8.333c-0.553,0-1-0.447-1-1s0.447-1,1-1h6.761c0.553,0,1,0.447,1,1S15.646,44.5,15.094,44.5z"/>
		</g>
		<g>
			<path d="M60.333,51.5h-8.089c-0.553,0-1-0.447-1-1s0.447-1,1-1h8.089c0.553,0,1,0.447,1,1S60.886,51.5,60.333,51.5z"/>
		</g>
		<g>
			<path d="M57.667,47.5h-7.33c-0.553,0-1-0.447-1-1s0.447-1,1-1h7.33c0.553,0,1,0.447,1,1S58.22,47.5,57.667,47.5z"/>
		</g>
		<g>
			<path d="M30,45.5h-8.434c-0.553,0-1-0.447-1-1s0.447-1,1-1H30c0.553,0,1,0.447,1,1S30.553,45.5,30,45.5z"/>
		</g>
		<g>
			<path d="M42.434,45.5h-8.341c-0.553,0-1-0.447-1-1s0.447-1,1-1h8.341c0.553,0,1,0.447,1,1S42.986,45.5,42.434,45.5z"/>
		</g>
		<g>
			<path d="M43.867,50.5H20.133c-0.553,0-1-0.447-1-1s0.447-1,1-1h23.734c0.553,0,1,0.447,1,1S44.42,50.5,43.867,50.5z"/>
		</g>
		<g>
			<path d="M32,47.5c-0.235,0-0.471-0.083-0.659-0.248C30.715,46.703,16,33.659,16,20.5c0-8.822,7.178-16,16-16s16,7.178,16,16
				c0,13.159-14.715,26.203-15.341,26.752C32.471,47.417,32.235,47.5,32,47.5z M32,6.5c-7.72,0-14,6.28-14,14
				c0,10.734,11.144,21.944,14,24.641c2.856-2.696,14-13.906,14-24.641C46,12.78,39.72,6.5,32,6.5z"/>
		</g>
		<g>
			<path d="M25.427,40.5H11c-0.553,0-1-0.447-1-1s0.447-1,1-1h14.427c0.553,0,1,0.447,1,1S25.979,40.5,25.427,40.5z"/>
		</g>
		<g>
			<path d="M53,40.5H38.572c-0.553,0-1-0.447-1-1s0.447-1,1-1H53c0.553,0,1,0.447,1,1S53.553,40.5,53,40.5z"/>
		</g>
		<g>
			<g>
				<g>
					<path d="M38,29.5H26c-1.103,0-2-0.897-2-2v-8c0-1.103,0.897-2,2-2h12c1.103,0,2,0.897,2,2v8C40,28.603,39.103,29.5,38,29.5z
						 M38,27.5v1V27.5L38,27.5L38,27.5z M26,19.5v8h11.997l0.003-8H26z"/>
				</g>
				<g>
					<path d="M29,19.5c-0.553,0-1-0.447-1-1v-3c0-0.553,0.447-1,1-1s1,0.447,1,1v3C30,19.053,29.553,19.5,29,19.5z"/>
				</g>
				<g>
					<path d="M35,16.5h-6c-0.553,0-1-0.447-1-1s0.447-1,1-1h6c0.553,0,1,0.447,1,1S35.553,16.5,35,16.5z"/>
				</g>
				<g>
					<path d="M35,19.5c-0.553,0-1-0.447-1-1v-3c0-0.553,0.447-1,1-1s1,0.447,1,1v3C36,19.053,35.553,19.5,35,19.5z"/>
				</g>
			</g>
			<g>
				<path d="M35,24.5h-6c-0.553,0-1-0.447-1-1s0.447-1,1-1h6c0.553,0,1,0.447,1,1S35.553,24.5,35,24.5z"/>
			</g>
		</g>
	</g>
</g>
<g id="_x33_2_retirement_x2C__old_x2C__man_x2C__door_x2C__business_x2C__office_x2C__corporation">
</g>
<g id="_x33_1_victory_x2C__success_x2C__medal_x2C__reward_x2C__business_x2C__office_x2C__corporation">
</g>
<g id="_x33_0_dismissal_x2C__box_x2C__door_x2C__business_x2C__office_x2C__corporation_x2C__job">
</g>
<g id="_x32_9_meeting_x2C__discussion_x2C__question_x2C__business_x2C__office_x2C__corporation_x2C__job">
</g>
<g id="_x32_8_strategy_x2C__vision_x2C__eye_x2C__chess_x2C__business_x2C__office_x2C__corporation">
</g>
<g id="_x32_7_board_x2C__task_x2C__process_x2C__business_x2C__office_x2C__corporation_x2C__job">
</g>
<g id="_x32_6_scheme_x2C__board_x2C__structure_x2C__business_x2C__office_x2C__corporation_x2C__job">
</g>
<g id="_x32_5_conflict_x2C__dialog_x2C__discussion_x2C__business_x2C__office_x2C__corporation_x2C__job">
</g>
<g id="_x32_4_documentation_x2C__document_x2C__repository_x2C__business_x2C__office_x2C__corporation_x2C__job">
</g>
<g id="_x32_3_sprint_x2C__programming_x2C__code_x2C__business_x2C__office_x2C__corporation_x2C__job">
</g>
<g id="_x32_2_cram_x2C__tablet_x2C__work_x2C__business_x2C__office_x2C__corporation_x2C__job">
</g>
<g id="_x32_1_leader_x2C__discoverer_x2C__flag_x2C__business_x2C__office_x2C__corporation_x2C__job">
</g>
<g id="_x32_0_rally_x2C__collective_x2C__arm_x2C__business_x2C__office_x2C__corporation_x2C__job">
</g>
<g id="_x31_9_consolidation_x2C__portfolio_x2C__puzzle_x2C__business_x2C__office_x2C__corporation_x2C__job">
</g>
<g id="_x31_8_idea_x2C__creative_x2C__work_x2C__business_x2C__office_x2C__corporation_x2C__job">
</g>
<g id="_x31_7_problem_x2C__stress_x2C__resistance_x2C__business_x2C__office_x2C__corporation_x2C__job">
</g>
<g id="_x31_6_hard_x2C__skills_x2C__skill_x2C__portfolio_x2C__book_x2C__business_x2C__office">
</g>
<g id="_x31_5_time_x2C__management_x2C__clock_x2C__deadline_x2C__business_x2C__office_x2C__corporation">
</g>
<g id="_x31_4_multitasking_x2C__task_x2C__work_x2C__business_x2C__office_x2C__corporation_x2C__job">
</g>
<g id="_x31_3_tranquility_x2C__yoga_x2C__lotus_x2C__posture_x2C__business_x2C__office_x2C__corporation">
</g>
<g id="_x31_2_corporate_x2C__party_x2C__business_x2C__office_x2C__corporation_x2C__job">
</g>
<g id="_x31_1_dialog_x2C__discussion_x2C__work_x2C__business_x2C__office_x2C__corporation_x2C__job">
</g>
<g id="_x31_0_listening_x2C__skill_x2C__dialog_x2C__business_x2C__office_x2C__corporation_x2C__job">
</g>
<g id="_x39__training_x2C__book_x2C__lesson_x2C__business_x2C__office_x2C__corporation_x2C__job">
</g>
<g id="_x38__dress_x2C__code_x2C__shirt_x2C__business_x2C__office_x2C__corporation_x2C__job">
</g>
<g id="_x37__task_x2C__program_x2C__ticket_x2C__business_x2C__office_x2C__corporation_x2C__job">
</g>
<g id="_x36__plan_x2C__graph_x2C__stage_x2C__business_x2C__office_x2C__corporation_x2C__job">
</g>
<g id="_x35__boss_x2C__king_x2C__crown_x2C__business_x2C__office_x2C__corporation_x2C__job">
</g>
<g id="_x34__structure_x2C__structuring_x2C__business_x2C__office_x2C__corporation_x2C__job">
</g>
<g id="_x33__soft_x2C__skills_x2C__communication_x2C__business_x2C__office_x2C__corporation_x2C__job">
</g>
<g id="_x32__office_x2C__house_x2C__portfolio_x2C__business_x2C__corporation_x2C__job">
</g>
<g id="_x31__corporate_x2C__rules_x2C__book_x2C__business_x2C__office_x2C__corporation_x2C__job">
</g>
</svg>
