<?xml version="1.0" encoding="utf-8"?>
<!-- Generator: Adobe Illustrator 16.0.0, SVG Export Plug-In . SVG Version: 6.00 Build 0)  -->
<!DOCTYPE svg PUBLIC "-//W3C//DTD SVG 1.1//EN" "http://www.w3.org/Graphics/SVG/1.1/DTD/svg11.dtd">
<svg version="1.1" xmlns="http://www.w3.org/2000/svg" xmlns:xlink="http://www.w3.org/1999/xlink" x="0px" y="0px" width="64px"
	 height="64px" viewBox="0 0 64 64" enable-background="new 0 0 64 64" xml:space="preserve">
<g id="_x35_0_document_x2C__optimization_x2C__documentation_x2C__business_x2C__office_x2C__corporation_x2C__job">
</g>
<g id="_x34_9_human_x2C__resource_x2C__conveyor_x2C__business_x2C__office_x2C__corporation_x2C__job">
</g>
<g id="_x34_8_knowledge_x2C__training_x2C__growth_x2C__book_x2C__business_x2C__office_x2C__corporation">
</g>
<g id="_x34_7_skill_x2C__competence_x2C__experience_x2C__business_x2C__office_x2C__corporation_x2C__job">
</g>
<g id="_x34_6_target_x2C__success_x2C__victory_x2C__business_x2C__office_x2C__corporation_x2C__job">
</g>
<g id="_x34_5_inbox_x2C__letter_x2C__email_x2C__business_x2C__office_x2C__corporation_x2C__job">
</g>
<g id="_x34_4_document_x2C__workflow_x2C__sharing_x2C__business_x2C__office_x2C__corporation_x2C__job">
</g>
<g id="_x34_3_budget_x2C__allocation_x2C__money_x2C__business_x2C__office_x2C__corporation_x2C__job">
</g>
<g id="_x34_2_case_x2C__task_x2C__project_x2C__business_x2C__office_x2C__corporation_x2C__job">
</g>
<g id="_x34_1_structure_x2C__structuring_x2C__tasks_x2C__business_x2C__office_x2C__corporation_x2C__job">
</g>
<g id="_x34_0_choice_x2C__dilemma_x2C__question_x2C__business_x2C__office_x2C__corporation_x2C__job">
</g>
<g id="_x33_9_workplace_x2C__table_x2C__laptop_x2C__business_x2C__office_x2C__corporation_x2C__job">
</g>
<g id="_x33_8_bribe_x2C__bag_x2C__money_x2C__business_x2C__office_x2C__corporation_x2C__job">
</g>
<g id="_x33_7_corruption_x2C__forage_x2C__money_x2C__business_x2C__office_x2C__corporation_x2C__job">
	<g>
		<g>
			<polygon fill="#ED5565" points="15.5,32 48.5,32 48.5,57 42.5,63 21.5,63 15.5,57 			"/>
		</g>
		<g>
			<rect x="15.5" y="29" fill="#656D78" width="33" height="3"/>
		</g>
		<g>
			<path fill="#F6BB42" d="M36.5,20.16c-1.22,0.54-2.58,0.84-4,0.84s-2.78-0.3-4-0.84c-3.53-1.54-6-5.061-6-9.16v4
				c0,4.1,2.47,7.62,6,9.16c1.22,0.54,2.58,0.84,4,0.84s2.78-0.3,4-0.84c3.53-1.54,6-5.061,6-9.16v-4
				C42.5,15.1,40.03,18.62,36.5,20.16z"/>
		</g>
		<g>
			<path fill="#FFCE54" d="M42.5,11c0,4.1-2.47,7.62-6,9.16c-1.22,0.54-2.58,0.84-4,0.84s-2.78-0.3-4-0.84
				c-3.53-1.54-6-5.061-6-9.16c0-5.52,4.48-10,10-10S42.5,5.48,42.5,11z"/>
		</g>
	</g>
	<g>
		<g>
			<g>
				<path d="M15.5,58c-0.553,0-1-0.447-1-1V29c0-0.553,0.447-1,1-1s1,0.447,1,1v28C16.5,57.553,16.053,58,15.5,58z"/>
			</g>
			<g>
				<path d="M21.5,64c-0.256,0-0.512-0.098-0.707-0.293l-6-6c-0.391-0.391-0.391-1.023,0-1.414s1.023-0.391,1.414,0l6,6
					c0.391,0.391,0.391,1.023,0,1.414C22.012,63.902,21.756,64,21.5,64z"/>
			</g>
			<g>
				<path d="M48.5,58c-0.553,0-1-0.447-1-1V29c0-0.553,0.447-1,1-1s1,0.447,1,1v28C49.5,57.553,49.053,58,48.5,58z"/>
			</g>
			<g>
				<path d="M42.5,64c-0.256,0-0.512-0.098-0.707-0.293c-0.391-0.391-0.391-1.023,0-1.414l6-6c0.391-0.391,1.023-0.391,1.414,0
					s0.391,1.023,0,1.414l-6,6C43.012,63.902,42.756,64,42.5,64z"/>
			</g>
			<g>
				<path d="M42.5,64h-21c-0.553,0-1-0.447-1-1s0.447-1,1-1h21c0.553,0,1,0.447,1,1S43.053,64,42.5,64z"/>
			</g>
			<g>
				<path d="M48.5,30h-33c-0.553,0-1-0.447-1-1s0.447-1,1-1h33c0.553,0,1,0.447,1,1S49.053,30,48.5,30z"/>
			</g>
			<g>
				<path d="M48.5,33h-33c-0.553,0-1-0.447-1-1s0.447-1,1-1h33c0.553,0,1,0.447,1,1S49.053,33,48.5,33z"/>
			</g>
		</g>
		<g>
			<path d="M32.5,22c-6.065,0-11-4.935-11-11s4.935-11,11-11s11,4.935,11,11S38.565,22,32.5,22z M32.5,2c-4.963,0-9,4.037-9,9
				s4.037,9,9,9s9-4.037,9-9S37.463,2,32.5,2z"/>
		</g>
		<g>
			<path d="M32.5,26c-6.065,0-11-4.935-11-11c0-0.553,0.447-1,1-1s1,0.447,1,1c0,4.963,4.037,9,9,9s9-4.037,9-9c0-0.553,0.447-1,1-1
				s1,0.447,1,1C43.5,21.065,38.565,26,32.5,26z"/>
		</g>
		<g>
			<path d="M32.5,15c-0.553,0-1-0.447-1-1V8c0-0.553,0.447-1,1-1s1,0.447,1,1v6C33.5,14.553,33.053,15,32.5,15z"/>
		</g>
		<g>
			<path d="M22.5,16c-0.553,0-1-0.447-1-1v-4c0-0.553,0.447-1,1-1s1,0.447,1,1v4C23.5,15.553,23.053,16,22.5,16z"/>
		</g>
		<g>
			<path d="M42.5,16c-0.553,0-1-0.447-1-1v-4c0-0.553,0.447-1,1-1s1,0.447,1,1v4C43.5,15.553,43.053,16,42.5,16z"/>
		</g>
		<g>
			<path d="M15.5,21c-0.553,0-1-0.447-1-1V7c0-0.553,0.447-1,1-1s1,0.447,1,1v13C16.5,20.553,16.053,21,15.5,21z"/>
		</g>
		<g>
			<path d="M15.5,21c-0.256,0-0.512-0.098-0.707-0.293c-0.391-0.391-0.391-1.023,0-1.414l2-2c0.391-0.391,1.023-0.391,1.414,0
				s0.391,1.023,0,1.414l-2,2C16.012,20.902,15.756,21,15.5,21z"/>
		</g>
		<g>
			<path d="M15.5,21c-0.256,0-0.512-0.098-0.707-0.293l-2-2c-0.391-0.391-0.391-1.023,0-1.414s1.023-0.391,1.414,0l2,2
				c0.391,0.391,0.391,1.023,0,1.414C16.012,20.902,15.756,21,15.5,21z"/>
		</g>
		<g>
			<path d="M48.5,21c-0.553,0-1-0.447-1-1V7c0-0.553,0.447-1,1-1s1,0.447,1,1v13C49.5,20.553,49.053,21,48.5,21z"/>
		</g>
		<g>
			<path d="M48.5,21c-0.256,0-0.512-0.098-0.707-0.293c-0.391-0.391-0.391-1.023,0-1.414l2-2c0.391-0.391,1.023-0.391,1.414,0
				s0.391,1.023,0,1.414l-2,2C49.012,20.902,48.756,21,48.5,21z"/>
		</g>
		<g>
			<path d="M48.5,21c-0.256,0-0.512-0.098-0.707-0.293l-2-2c-0.391-0.391-0.391-1.023,0-1.414s1.023-0.391,1.414,0l2,2
				c0.391,0.391,0.391,1.023,0,1.414C49.012,20.902,48.756,21,48.5,21z"/>
		</g>
		<g>
			<g>
				<path d="M19.5,39c-0.553,0-1-0.447-1-1v-3c0-0.553,0.447-1,1-1s1,0.447,1,1v3C20.5,38.553,20.053,39,19.5,39z"/>
			</g>
			<g>
				<path d="M19.5,45c-0.553,0-1-0.447-1-1v-3c0-0.553,0.447-1,1-1s1,0.447,1,1v3C20.5,44.553,20.053,45,19.5,45z"/>
			</g>
			<g>
				<path d="M19.5,51c-0.553,0-1-0.447-1-1v-3c0-0.553,0.447-1,1-1s1,0.447,1,1v3C20.5,50.553,20.053,51,19.5,51z"/>
			</g>
			<g>
				<path d="M21.5,58c-0.256,0-0.512-0.098-0.707-0.293l-2-2.001c-0.188-0.188-0.293-0.442-0.293-0.707V53c0-0.553,0.447-1,1-1
					s1,0.447,1,1v1.585l1.707,1.708c0.391,0.391,0.391,1.023,0,1.414C22.012,57.902,21.756,58,21.5,58z"/>
			</g>
			<g>
				<path d="M27.5,61h-3c-0.553,0-1-0.447-1-1s0.447-1,1-1h3c0.553,0,1,0.447,1,1S28.053,61,27.5,61z"/>
			</g>
			<g>
				<path d="M33.5,61h-3c-0.553,0-1-0.447-1-1s0.447-1,1-1h3c0.553,0,1,0.447,1,1S34.053,61,33.5,61z"/>
			</g>
			<g>
				<path d="M24.5,61c-0.256,0-0.512-0.098-0.707-0.293l-1-1.001c-0.391-0.391-0.391-1.024,0-1.414c0.391-0.391,1.023-0.391,1.414,0
					l1,1.001c0.391,0.391,0.391,1.024,0,1.414C25.012,60.902,24.756,61,24.5,61z"/>
			</g>
		</g>
		<g>
			<g>
				<path d="M44.5,39c-0.553,0-1-0.447-1-1v-3c0-0.553,0.447-1,1-1s1,0.447,1,1v3C45.5,38.553,45.053,39,44.5,39z"/>
			</g>
			<g>
				<path d="M44.5,45c-0.553,0-1-0.447-1-1v-3c0-0.553,0.447-1,1-1s1,0.447,1,1v3C45.5,44.553,45.053,45,44.5,45z"/>
			</g>
			<g>
				<path d="M44.5,51c-0.553,0-1-0.447-1-1v-3c0-0.553,0.447-1,1-1s1,0.447,1,1v3C45.5,50.553,45.053,51,44.5,51z"/>
			</g>
			<g>
				<path d="M42.5,58c-0.256,0-0.512-0.098-0.707-0.293c-0.391-0.391-0.391-1.023,0-1.414l1.707-1.708V53c0-0.553,0.447-1,1-1
					s1,0.447,1,1v1.999c0,0.265-0.105,0.52-0.293,0.707l-2,2.001C43.012,57.902,42.756,58,42.5,58z"/>
			</g>
			<g>
				<path d="M39.5,61h-3c-0.553,0-1-0.447-1-1s0.447-1,1-1h3c0.553,0,1,0.447,1,1S40.053,61,39.5,61z"/>
			</g>
			<g>
				<path d="M39.5,61c-0.256,0-0.512-0.098-0.707-0.293c-0.391-0.39-0.391-1.023,0-1.414l1-1.001c0.391-0.391,1.023-0.391,1.414,0
					c0.391,0.39,0.391,1.023,0,1.414l-1,1.001C40.012,60.902,39.756,61,39.5,61z"/>
			</g>
		</g>
		<g>
			<path d="M28.5,25.167c-0.553,0-1-0.447-1-1v-4c0-0.553,0.447-1,1-1s1,0.447,1,1v4C29.5,24.72,29.053,25.167,28.5,25.167z"/>
		</g>
		<g>
			<path d="M36.5,25.167c-0.553,0-1-0.447-1-1v-4c0-0.553,0.447-1,1-1s1,0.447,1,1v4C37.5,24.72,37.053,25.167,36.5,25.167z"/>
		</g>
	</g>
</g>
<g id="_x33_6_career_x2C__ladder_x2C__success_x2C__business_x2C__office_x2C__corporation_x2C__job">
</g>
<g id="_x33_5_review_x2C__feedback_x2C__rating_x2C__business_x2C__office_x2C__corporation_x2C__job">
</g>
<g id="_x33_4_manipulation_x2C__thread_x2C__puppet_x2C__business_x2C__office_x2C__corporation_x2C__job">
</g>
<g id="_x33_3_location_x2C__map_x2C__pin_x2C__business_x2C__office_x2C__corporation_x2C__job">
</g>
<g id="_x33_2_retirement_x2C__old_x2C__man_x2C__door_x2C__business_x2C__office_x2C__corporation">
</g>
<g id="_x33_1_victory_x2C__success_x2C__medal_x2C__reward_x2C__business_x2C__office_x2C__corporation">
</g>
<g id="_x33_0_dismissal_x2C__box_x2C__door_x2C__business_x2C__office_x2C__corporation_x2C__job">
</g>
<g id="_x32_9_meeting_x2C__discussion_x2C__question_x2C__business_x2C__office_x2C__corporation_x2C__job">
</g>
<g id="_x32_8_strategy_x2C__vision_x2C__eye_x2C__chess_x2C__business_x2C__office_x2C__corporation">
</g>
<g id="_x32_7_board_x2C__task_x2C__process_x2C__business_x2C__office_x2C__corporation_x2C__job">
</g>
<g id="_x32_6_scheme_x2C__board_x2C__structure_x2C__business_x2C__office_x2C__corporation_x2C__job">
</g>
<g id="_x32_5_conflict_x2C__dialog_x2C__discussion_x2C__business_x2C__office_x2C__corporation_x2C__job">
</g>
<g id="_x32_4_documentation_x2C__document_x2C__repository_x2C__business_x2C__office_x2C__corporation_x2C__job">
</g>
<g id="_x32_3_sprint_x2C__programming_x2C__code_x2C__business_x2C__office_x2C__corporation_x2C__job">
</g>
<g id="_x32_2_cram_x2C__tablet_x2C__work_x2C__business_x2C__office_x2C__corporation_x2C__job">
</g>
<g id="_x32_1_leader_x2C__discoverer_x2C__flag_x2C__business_x2C__office_x2C__corporation_x2C__job">
</g>
<g id="_x32_0_rally_x2C__collective_x2C__arm_x2C__business_x2C__office_x2C__corporation_x2C__job">
</g>
<g id="_x31_9_consolidation_x2C__portfolio_x2C__puzzle_x2C__business_x2C__office_x2C__corporation_x2C__job">
</g>
<g id="_x31_8_idea_x2C__creative_x2C__work_x2C__business_x2C__office_x2C__corporation_x2C__job">
</g>
<g id="_x31_7_problem_x2C__stress_x2C__resistance_x2C__business_x2C__office_x2C__corporation_x2C__job">
</g>
<g id="_x31_6_hard_x2C__skills_x2C__skill_x2C__portfolio_x2C__book_x2C__business_x2C__office">
</g>
<g id="_x31_5_time_x2C__management_x2C__clock_x2C__deadline_x2C__business_x2C__office_x2C__corporation">
</g>
<g id="_x31_4_multitasking_x2C__task_x2C__work_x2C__business_x2C__office_x2C__corporation_x2C__job">
</g>
<g id="_x31_3_tranquility_x2C__yoga_x2C__lotus_x2C__posture_x2C__business_x2C__office_x2C__corporation">
</g>
<g id="_x31_2_corporate_x2C__party_x2C__business_x2C__office_x2C__corporation_x2C__job">
</g>
<g id="_x31_1_dialog_x2C__discussion_x2C__work_x2C__business_x2C__office_x2C__corporation_x2C__job">
</g>
<g id="_x31_0_listening_x2C__skill_x2C__dialog_x2C__business_x2C__office_x2C__corporation_x2C__job">
</g>
<g id="_x39__training_x2C__book_x2C__lesson_x2C__business_x2C__office_x2C__corporation_x2C__job">
</g>
<g id="_x38__dress_x2C__code_x2C__shirt_x2C__business_x2C__office_x2C__corporation_x2C__job">
</g>
<g id="_x37__task_x2C__program_x2C__ticket_x2C__business_x2C__office_x2C__corporation_x2C__job">
</g>
<g id="_x36__plan_x2C__graph_x2C__stage_x2C__business_x2C__office_x2C__corporation_x2C__job">
</g>
<g id="_x35__boss_x2C__king_x2C__crown_x2C__business_x2C__office_x2C__corporation_x2C__job">
</g>
<g id="_x34__structure_x2C__structuring_x2C__business_x2C__office_x2C__corporation_x2C__job">
</g>
<g id="_x33__soft_x2C__skills_x2C__communication_x2C__business_x2C__office_x2C__corporation_x2C__job">
</g>
<g id="_x32__office_x2C__house_x2C__portfolio_x2C__business_x2C__corporation_x2C__job">
</g>
<g id="_x31__corporate_x2C__rules_x2C__book_x2C__business_x2C__office_x2C__corporation_x2C__job">
</g>
</svg>
