<?xml version="1.0" encoding="utf-8"?>
<!-- Generator: Adobe Illustrator 16.0.0, SVG Export Plug-In . SVG Version: 6.00 Build 0)  -->
<!DOCTYPE svg PUBLIC "-//W3C//DTD SVG 1.1//EN" "http://www.w3.org/Graphics/SVG/1.1/DTD/svg11.dtd">
<svg version="1.1" xmlns="http://www.w3.org/2000/svg" xmlns:xlink="http://www.w3.org/1999/xlink" x="0px" y="0px" width="64px"
	 height="64px" viewBox="0 0 64 64" enable-background="new 0 0 64 64" xml:space="preserve">
<g id="_x35_0_document_x2C__optimization_x2C__documentation_x2C__business_x2C__office_x2C__corporation_x2C__job">
</g>
<g id="_x34_9_human_x2C__resource_x2C__conveyor_x2C__business_x2C__office_x2C__corporation_x2C__job">
</g>
<g id="_x34_8_knowledge_x2C__training_x2C__growth_x2C__book_x2C__business_x2C__office_x2C__corporation">
</g>
<g id="_x34_7_skill_x2C__competence_x2C__experience_x2C__business_x2C__office_x2C__corporation_x2C__job">
</g>
<g id="_x34_6_target_x2C__success_x2C__victory_x2C__business_x2C__office_x2C__corporation_x2C__job">
</g>
<g id="_x34_5_inbox_x2C__letter_x2C__email_x2C__business_x2C__office_x2C__corporation_x2C__job">
</g>
<g id="_x34_4_document_x2C__workflow_x2C__sharing_x2C__business_x2C__office_x2C__corporation_x2C__job">
</g>
<g id="_x34_3_budget_x2C__allocation_x2C__money_x2C__business_x2C__office_x2C__corporation_x2C__job">
</g>
<g id="_x34_2_case_x2C__task_x2C__project_x2C__business_x2C__office_x2C__corporation_x2C__job">
</g>
<g id="_x34_1_structure_x2C__structuring_x2C__tasks_x2C__business_x2C__office_x2C__corporation_x2C__job">
	<g>
		<g>
			<polygon fill="#F5F7FA" points="47,6 38,9 32,11 26,9 17,6 32,1 			"/>
		</g>
		<g>
			<polygon fill="#E6E9ED" points="47,12 38,15 32,17 26,15 17,12 26,9 32,11 38,9 38,9.01 			"/>
		</g>
		<g>
			<polygon fill="#CCD1D9" points="47,18 32,23 17,18 26,15 32,17 38,15 38,15.01 			"/>
		</g>
		<g>
			<path fill="#ED5565" d="M53,63H11c0-4.42,3.58-8,8-8h6l3,2l4-1l4,1l3-2h6C49.42,55,53,58.58,53,63z"/>
		</g>
		<g>
			<g>
				<path fill="#DA4453" d="M45,55h-4c4.42,0,8,3.58,8,8h4C53,58.58,49.42,55,45,55z"/>
			</g>
		</g>
		<g>
			<path fill="#EAC6BB" d="M47,27v8c-1.66,0-3,1.34-3,3c0,4.979-4.03,9-9,9l-1-1h-4l-1,1c-4.97,0-9-4.021-9-9c0-1.66-1.34-3-3-3v-8
				H47z"/>
		</g>
		<g>
			<path fill="#656D78" d="M25,55v-4.721c2.09,1.101,4.47,1.73,7,1.73s4.91-0.63,7-1.73V55l-3,2l-4-1l-4,1L25,55z"/>
		</g>
		<g>
			<path fill="#965353" d="M17,35c1.66,0,3,1.34,3,3c0,4.979,4.03,9,9,9l1-1h4l1,1c4.97,0,9-4.021,9-9c0-1.66,1.34-3,3-3v2v0.01
				c0,5.75-3.24,10.75-8,13.26v0.01c-2.09,1.101-4.47,1.73-7,1.73s-4.91-0.63-7-1.73v-0.01c-4.76-2.51-8-7.51-8-13.26V37V35z"/>
		</g>
		<g>
			<path fill="#844747" d="M44,38c0,2.802-1.276,5.3-3.277,6.949c-1.402,2.239-3.377,4.083-5.723,5.32v0.01
				c-1.529,0.806-3.215,1.355-5,1.594c0.322,0.043,0.646,0.076,0.975,0.1c0.006,0,0.013,0.001,0.019,0.002
				c0.333,0.022,0.668,0.035,1.007,0.035c2.53,0,4.91-0.63,7-1.73v-0.01c4.76-2.51,8-7.51,8-13.26V37v-2C45.34,35,44,36.34,44,38z"
				/>
		</g>
		<g>
			<path fill="#D3B1A9" d="M43,27v8v2v0.01c0,2.916-0.836,5.637-2.277,7.939C42.724,43.3,44,40.802,44,38c0-1.66,1.34-3,3-3v-8H43z"
				/>
		</g>
	</g>
	<g>
		<g>
			<path d="M32,12c-0.106,0-0.214-0.018-0.316-0.052l-15-5C16.275,6.813,16,6.431,16,6s0.275-0.813,0.684-0.948l15-5
				c0.205-0.068,0.428-0.068,0.633,0l15,5C47.725,5.188,48,5.569,48,6s-0.275,0.813-0.684,0.948l-15,5
				C32.214,11.982,32.106,12,32,12z M20.162,6L32,9.946L43.838,6L32,2.054L20.162,6z"/>
		</g>
		<g>
			<path d="M32,24c-0.106,0-0.214-0.018-0.316-0.052l-15-5C16.275,18.813,16,18.431,16,18s0.275-0.813,0.684-0.948l9-3
				c0.527-0.177,1.091,0.108,1.265,0.632c0.175,0.524-0.108,1.091-0.632,1.265L20.162,18L32,21.946L43.838,18l-6.15-2.05
				c-0.523-0.174-0.807-0.74-0.632-1.265c0.175-0.523,0.737-0.808,1.265-0.632l8.996,2.998C47.725,17.188,48,17.569,48,18
				s-0.275,0.813-0.684,0.948l-15,5C32.214,23.982,32.106,24,32,24z"/>
		</g>
		<g>
			<path d="M32,18c-0.106,0-0.214-0.018-0.316-0.052l-15-5C16.275,12.813,16,12.431,16,12s0.275-0.813,0.684-0.948l9-3
				c0.527-0.177,1.091,0.108,1.265,0.632c0.175,0.524-0.108,1.091-0.632,1.265L20.162,12L32,15.946L43.838,12l-6.15-2.05
				c-0.523-0.174-0.807-0.74-0.632-1.265c0.175-0.523,0.737-0.808,1.265-0.632l8.996,2.998C47.725,11.188,48,11.569,48,12
				s-0.275,0.813-0.684,0.948l-15,5C32.214,17.982,32.106,18,32,18z"/>
		</g>
		<g>
			<g>
				<path d="M11,63.999c-0.553,0-1-0.447-1-1c0-4.963,4.037-9,9-9c0.553,0,1,0.447,1,1s-0.447,1-1,1c-3.859,0-7,3.141-7,7
					C12,63.552,11.553,63.999,11,63.999z"/>
			</g>
			<g>
				<path d="M53,64c-0.553,0-1-0.447-1-1c0-3.859-3.141-7-7-7c-0.553,0-1-0.447-1-1s0.447-1,1-1c4.963,0,9,4.037,9,9
					C54,63.553,53.553,64,53,64z"/>
			</g>
			<g>
				<path d="M25,56L25,56l-6-0.001c-0.553,0-1-0.448-1-1c0-0.553,0.448-1,1-1l0,0L25,54c0.553,0,1,0.448,1,1
					C26,55.553,25.552,56,25,56z"/>
			</g>
			<g>
				<path d="M45,56L45,56l-6-0.002c-0.553,0-1-0.448-1-1c0-0.553,0.448-1,1-1l0,0L45,54c0.553,0,1,0.448,1,1
					C46,55.553,45.552,56,45,56z"/>
			</g>
		</g>
		<g>
			<path d="M25,56c-0.553,0-1-0.447-1-1v-4.731c0-0.553,0.447-1,1-1s1,0.447,1,1V55C26,55.553,25.553,56,25,56z"/>
		</g>
		<g>
			<path d="M39,55.998c-0.553,0-1-0.447-1-1v-4.729c0-0.553,0.447-1,1-1s1,0.447,1,1v4.729C40,55.551,39.553,55.998,39,55.998z"/>
		</g>
		<g>
			<path d="M17,37.999c-0.553,0-1-0.447-1-1v-10c0-0.553,0.447-1,1-1s1,0.447,1,1v10C18,37.552,17.553,37.999,17,37.999z"/>
		</g>
		<g>
			<path d="M47,37.999c-0.553,0-1-0.447-1-1v-9.998c0-0.553,0.447-1,1-1s1,0.447,1,1v9.998C48,37.552,47.553,37.999,47,37.999z"/>
		</g>
		<g>
			<path d="M27.999,57.998c-0.19,0-0.383-0.055-0.554-0.168l-3-1.998c-0.459-0.306-0.584-0.927-0.277-1.387
				c0.306-0.46,0.926-0.584,1.387-0.277l3,1.998c0.459,0.306,0.584,0.927,0.277,1.387C28.64,57.842,28.322,57.998,27.999,57.998z"/>
		</g>
		<g>
			<path d="M27.999,57.998c-0.448,0-0.855-0.303-0.969-0.758c-0.135-0.535,0.191-1.078,0.728-1.212l4-1
				c0.533-0.136,1.078,0.191,1.212,0.728c0.135,0.535-0.191,1.078-0.728,1.212l-4,1C28.161,57.988,28.079,57.998,27.999,57.998z"/>
		</g>
		<g>
			<path d="M36.001,57.998c-0.323,0-0.641-0.156-0.833-0.445c-0.307-0.46-0.182-1.081,0.277-1.387l3-1.998
				c0.461-0.307,1.081-0.183,1.387,0.277c0.307,0.46,0.182,1.081-0.277,1.387l-3,1.998C36.384,57.943,36.191,57.998,36.001,57.998z"
				/>
		</g>
		<g>
			<path d="M36.001,57.998c-0.08,0-0.162-0.01-0.243-0.03l-4-1c-0.536-0.134-0.862-0.677-0.728-1.212
				c0.133-0.536,0.674-0.864,1.212-0.728l4,1c0.536,0.134,0.862,0.677,0.728,1.212C36.856,57.695,36.449,57.998,36.001,57.998z"/>
		</g>
		<g>
			<path d="M32.03,61.998c-0.553,0-1.005-0.447-1.005-1s0.442-1,0.994-1h0.011c0.552,0,1,0.447,1,1S32.582,61.998,32.03,61.998z"/>
		</g>
		<g>
			<path d="M47,27.999H17c-0.553,0-1-0.447-1-1s0.447-1,1-1h30c0.553,0,1,0.447,1,1S47.553,27.999,47,27.999z"/>
		</g>
		<g>
			<g>
				<path d="M32,53.004c-8.822,0-16-7.178-16-16c0-0.553,0.447-1,1-1s1,0.447,1,1c0,7.72,6.28,14,14,14s14-6.28,14-14
					c0-0.553,0.447-1,1-1s1,0.447,1,1C48,45.826,40.822,53.004,32,53.004z"/>
			</g>
			<g>
				<g>
					<path d="M35,47.998c-0.256,0-0.512-0.098-0.707-0.293l-0.707-0.707h-3.172l-0.707,0.707c-0.391,0.391-1.023,0.391-1.414,0
						s-0.391-1.023,0-1.414l1-1c0.188-0.188,0.441-0.293,0.707-0.293h4c0.266,0,0.52,0.105,0.707,0.293l1,1
						c0.391,0.391,0.391,1.023,0,1.414C35.512,47.9,35.256,47.998,35,47.998z"/>
				</g>
				<g>
					<path d="M29,47.998c-5.514,0-10-4.486-10-10c0-0.553,0.447-1,1-1s1,0.447,1,1c0,4.411,3.589,8,8,8c0.553,0,1,0.447,1,1
						S29.553,47.998,29,47.998z"/>
				</g>
				<g>
					<path d="M20,38.998c-0.553,0-1-0.447-1-1c0-1.103-0.897-2-2-2c-0.553,0-1-0.447-1-1s0.447-1,1-1c2.206,0,4,1.794,4,4
						C21,38.551,20.553,38.998,20,38.998z"/>
				</g>
				<g>
					<path d="M35,47.998c-0.553,0-1-0.447-1-1s0.447-1,1-1c4.411,0,8-3.589,8-8c0-0.553,0.447-1,1-1s1,0.447,1,1
						C45,43.512,40.514,47.998,35,47.998z"/>
				</g>
				<g>
					<path d="M44,38.998c-0.553,0-1-0.447-1-1c0-2.206,1.794-4,4-4c0.553,0,1,0.447,1,1s-0.447,1-1,1c-1.103,0-2,0.897-2,2
						C45,38.551,44.553,38.998,44,38.998z"/>
				</g>
			</g>
		</g>
	</g>
</g>
<g id="_x34_0_choice_x2C__dilemma_x2C__question_x2C__business_x2C__office_x2C__corporation_x2C__job">
</g>
<g id="_x33_9_workplace_x2C__table_x2C__laptop_x2C__business_x2C__office_x2C__corporation_x2C__job">
</g>
<g id="_x33_8_bribe_x2C__bag_x2C__money_x2C__business_x2C__office_x2C__corporation_x2C__job">
</g>
<g id="_x33_7_corruption_x2C__forage_x2C__money_x2C__business_x2C__office_x2C__corporation_x2C__job">
</g>
<g id="_x33_6_career_x2C__ladder_x2C__success_x2C__business_x2C__office_x2C__corporation_x2C__job">
</g>
<g id="_x33_5_review_x2C__feedback_x2C__rating_x2C__business_x2C__office_x2C__corporation_x2C__job">
</g>
<g id="_x33_4_manipulation_x2C__thread_x2C__puppet_x2C__business_x2C__office_x2C__corporation_x2C__job">
</g>
<g id="_x33_3_location_x2C__map_x2C__pin_x2C__business_x2C__office_x2C__corporation_x2C__job">
</g>
<g id="_x33_2_retirement_x2C__old_x2C__man_x2C__door_x2C__business_x2C__office_x2C__corporation">
</g>
<g id="_x33_1_victory_x2C__success_x2C__medal_x2C__reward_x2C__business_x2C__office_x2C__corporation">
</g>
<g id="_x33_0_dismissal_x2C__box_x2C__door_x2C__business_x2C__office_x2C__corporation_x2C__job">
</g>
<g id="_x32_9_meeting_x2C__discussion_x2C__question_x2C__business_x2C__office_x2C__corporation_x2C__job">
</g>
<g id="_x32_8_strategy_x2C__vision_x2C__eye_x2C__chess_x2C__business_x2C__office_x2C__corporation">
</g>
<g id="_x32_7_board_x2C__task_x2C__process_x2C__business_x2C__office_x2C__corporation_x2C__job">
</g>
<g id="_x32_6_scheme_x2C__board_x2C__structure_x2C__business_x2C__office_x2C__corporation_x2C__job">
</g>
<g id="_x32_5_conflict_x2C__dialog_x2C__discussion_x2C__business_x2C__office_x2C__corporation_x2C__job">
</g>
<g id="_x32_4_documentation_x2C__document_x2C__repository_x2C__business_x2C__office_x2C__corporation_x2C__job">
</g>
<g id="_x32_3_sprint_x2C__programming_x2C__code_x2C__business_x2C__office_x2C__corporation_x2C__job">
</g>
<g id="_x32_2_cram_x2C__tablet_x2C__work_x2C__business_x2C__office_x2C__corporation_x2C__job">
</g>
<g id="_x32_1_leader_x2C__discoverer_x2C__flag_x2C__business_x2C__office_x2C__corporation_x2C__job">
</g>
<g id="_x32_0_rally_x2C__collective_x2C__arm_x2C__business_x2C__office_x2C__corporation_x2C__job">
</g>
<g id="_x31_9_consolidation_x2C__portfolio_x2C__puzzle_x2C__business_x2C__office_x2C__corporation_x2C__job">
</g>
<g id="_x31_8_idea_x2C__creative_x2C__work_x2C__business_x2C__office_x2C__corporation_x2C__job">
</g>
<g id="_x31_7_problem_x2C__stress_x2C__resistance_x2C__business_x2C__office_x2C__corporation_x2C__job">
</g>
<g id="_x31_6_hard_x2C__skills_x2C__skill_x2C__portfolio_x2C__book_x2C__business_x2C__office">
</g>
<g id="_x31_5_time_x2C__management_x2C__clock_x2C__deadline_x2C__business_x2C__office_x2C__corporation">
</g>
<g id="_x31_4_multitasking_x2C__task_x2C__work_x2C__business_x2C__office_x2C__corporation_x2C__job">
</g>
<g id="_x31_3_tranquility_x2C__yoga_x2C__lotus_x2C__posture_x2C__business_x2C__office_x2C__corporation">
</g>
<g id="_x31_2_corporate_x2C__party_x2C__business_x2C__office_x2C__corporation_x2C__job">
</g>
<g id="_x31_1_dialog_x2C__discussion_x2C__work_x2C__business_x2C__office_x2C__corporation_x2C__job">
</g>
<g id="_x31_0_listening_x2C__skill_x2C__dialog_x2C__business_x2C__office_x2C__corporation_x2C__job">
</g>
<g id="_x39__training_x2C__book_x2C__lesson_x2C__business_x2C__office_x2C__corporation_x2C__job">
</g>
<g id="_x38__dress_x2C__code_x2C__shirt_x2C__business_x2C__office_x2C__corporation_x2C__job">
</g>
<g id="_x37__task_x2C__program_x2C__ticket_x2C__business_x2C__office_x2C__corporation_x2C__job">
</g>
<g id="_x36__plan_x2C__graph_x2C__stage_x2C__business_x2C__office_x2C__corporation_x2C__job">
</g>
<g id="_x35__boss_x2C__king_x2C__crown_x2C__business_x2C__office_x2C__corporation_x2C__job">
</g>
<g id="_x34__structure_x2C__structuring_x2C__business_x2C__office_x2C__corporation_x2C__job">
</g>
<g id="_x33__soft_x2C__skills_x2C__communication_x2C__business_x2C__office_x2C__corporation_x2C__job">
</g>
<g id="_x32__office_x2C__house_x2C__portfolio_x2C__business_x2C__corporation_x2C__job">
</g>
<g id="_x31__corporate_x2C__rules_x2C__book_x2C__business_x2C__office_x2C__corporation_x2C__job">
</g>
</svg>
