<?xml version="1.0" encoding="utf-8"?>
<!-- Generator: Adobe Illustrator 16.0.0, SVG Export Plug-In . SVG Version: 6.00 Build 0)  -->
<!DOCTYPE svg PUBLIC "-//W3C//DTD SVG 1.1//EN" "http://www.w3.org/Graphics/SVG/1.1/DTD/svg11.dtd">
<svg version="1.1" xmlns="http://www.w3.org/2000/svg" xmlns:xlink="http://www.w3.org/1999/xlink" x="0px" y="0px" width="64px"
	 height="64px" viewBox="0 0 64 64" enable-background="new 0 0 64 64" xml:space="preserve">
<g id="_x35_0_document_x2C__optimization_x2C__documentation_x2C__business_x2C__office_x2C__corporation_x2C__job">
</g>
<g id="_x34_9_human_x2C__resource_x2C__conveyor_x2C__business_x2C__office_x2C__corporation_x2C__job">
</g>
<g id="_x34_8_knowledge_x2C__training_x2C__growth_x2C__book_x2C__business_x2C__office_x2C__corporation">
</g>
<g id="_x34_7_skill_x2C__competence_x2C__experience_x2C__business_x2C__office_x2C__corporation_x2C__job">
</g>
<g id="_x34_6_target_x2C__success_x2C__victory_x2C__business_x2C__office_x2C__corporation_x2C__job">
</g>
<g id="_x34_5_inbox_x2C__letter_x2C__email_x2C__business_x2C__office_x2C__corporation_x2C__job">
</g>
<g id="_x34_4_document_x2C__workflow_x2C__sharing_x2C__business_x2C__office_x2C__corporation_x2C__job">
</g>
<g id="_x34_3_budget_x2C__allocation_x2C__money_x2C__business_x2C__office_x2C__corporation_x2C__job">
	<g>
		<g>
			<path fill="#AC92EC" d="M51.8,12.2C56.87,17.27,60,24.27,60,32s-3.13,14.73-8.2,19.8C46.73,56.87,39.73,60,32,60
				s-14.73-3.13-19.8-8.2C7.13,46.73,4,39.73,4,32s3.13-14.73,8.2-19.8C17.27,7.13,24.27,4,32,4S46.73,7.13,51.8,12.2z"/>
		</g>
		<g>
			<path fill="#967ADC" d="M51.8,12.2C46.73,7.13,39.73,4,32,4c-1.014,0-2.014,0.057-3,0.162c6.532,0.695,12.396,3.633,16.8,8.038
				C50.87,17.27,54,24.27,54,32s-3.13,14.73-8.2,19.8c-4.404,4.405-10.268,7.343-16.8,8.038C29.986,59.943,30.986,60,32,60
				c7.73,0,14.73-3.13,19.8-8.2C56.87,46.73,60,39.73,60,32S56.87,17.27,51.8,12.2z"/>
		</g>
		<g>
			<rect x="17" y="42" fill="#6B9922" width="30" height="3"/>
		</g>
		<g>
			<rect x="17" y="39" fill="#74A52F" width="30" height="3"/>
		</g>
		<g>
			<polygon fill="#81B53E" points="47,36 47,39 17,39 17,36 21,36 43,36 			"/>
		</g>
		<g>
			<path fill="#8CC152" d="M47,32v4h-4C43,33.79,44.79,32,47,32z"/>
		</g>
		<g>
			<path fill="#8CC152" d="M47,20v4c-2.21,0-4-1.79-4-4H47z"/>
		</g>
		<g>
			<path fill="#8CC152" d="M17,20h4c0,2.21-1.79,4-4,4V20z"/>
		</g>
		<g>
			<path fill="#A0D468" d="M47,24v8c-2.21,0-4,1.79-4,4H21c0-2.21-1.79-4-4-4v-8c2.21,0,4-1.79,4-4h22C43,22.21,44.79,24,47,24z
				 M36,28c0-2.21-1.79-4-4-4s-4,1.79-4,4s1.79,4,4,4S36,30.21,36,28z"/>
		</g>
		<g>
			<path fill="#8CC152" d="M21,36h-4v-4C19.21,32,21,33.79,21,36z"/>
		</g>
		<g>
			<circle fill="#8CC152" cx="32" cy="28" r="4"/>
		</g>
	</g>
	<g>
		<g>
			<path d="M32,61C16.01,61,3,47.99,3,32S16.01,3,32,3s29,13.01,29,29S47.99,61,32,61z M32,5C17.112,5,5,17.112,5,32
				s12.112,27,27,27s27-12.112,27-27S46.888,5,32,5z"/>
		</g>
		<g>
			<g>
				<path d="M51.797,13.203c-0.256,0-0.512-0.098-0.707-0.293c-0.391-0.391-0.391-1.023,0-1.414L62.293,0.293
					c0.391-0.391,1.023-0.391,1.414,0s0.391,1.023,0,1.414L52.504,12.91C52.309,13.105,52.053,13.203,51.797,13.203z"/>
			</g>
			<g>
				<path d="M63,6c-0.553,0-1-0.447-1-1V1c0-0.553,0.447-1,1-1s1,0.447,1,1v4C64,5.553,63.553,6,63,6z"/>
			</g>
			<g>
				<path d="M63,2h-4c-0.553,0-1-0.447-1-1s0.447-1,1-1h4c0.553,0,1,0.447,1,1S63.553,2,63,2z"/>
			</g>
		</g>
		<g>
			<g>
				<path d="M1,64c-0.256,0-0.512-0.098-0.707-0.293c-0.391-0.391-0.391-1.023,0-1.414l11.201-11.201
					c0.391-0.391,1.023-0.391,1.414,0s0.391,1.023,0,1.414L1.707,63.707C1.512,63.902,1.256,64,1,64z"/>
			</g>
			<g>
				<path d="M1,64c-0.553,0-1-0.447-1-1v-4c0-0.553,0.447-1,1-1s1,0.447,1,1v4C2,63.553,1.553,64,1,64z"/>
			</g>
			<g>
				<path d="M5,64H1c-0.553,0-1-0.447-1-1s0.447-1,1-1h4c0.553,0,1,0.447,1,1S5.553,64,5,64z"/>
			</g>
		</g>
		<g>
			<g>
				<path d="M63,64c-0.256,0-0.512-0.098-0.707-0.293L51.092,52.506c-0.391-0.391-0.391-1.023,0-1.414s1.023-0.391,1.414,0
					l11.201,11.201c0.391,0.391,0.391,1.023,0,1.414C63.512,63.902,63.256,64,63,64z"/>
			</g>
			<g>
				<path d="M63,64h-4c-0.553,0-1-0.447-1-1s0.447-1,1-1h4c0.553,0,1,0.447,1,1S63.553,64,63,64z"/>
			</g>
			<g>
				<path d="M63,64c-0.553,0-1-0.447-1-1v-4c0-0.553,0.447-1,1-1s1,0.447,1,1v4C64,63.553,63.553,64,63,64z"/>
			</g>
		</g>
		<g>
			<g>
				<path d="M12.202,13.202c-0.256,0-0.512-0.098-0.707-0.293L0.293,1.707c-0.391-0.391-0.391-1.023,0-1.414s1.023-0.391,1.414,0
					l11.202,11.202c0.391,0.391,0.391,1.023,0,1.414C12.714,13.104,12.458,13.202,12.202,13.202z"/>
			</g>
			<g>
				<path d="M5,2H1C0.447,2,0,1.553,0,1s0.447-1,1-1h4c0.553,0,1,0.447,1,1S5.553,2,5,2z"/>
			</g>
			<g>
				<path d="M1,6C0.447,6,0,5.553,0,5V1c0-0.553,0.447-1,1-1s1,0.447,1,1v4C2,5.553,1.553,6,1,6z"/>
			</g>
		</g>
		<g>
			<g>
				<g>
					<path d="M47,37H17c-0.553,0-1-0.447-1-1V20c0-0.553,0.447-1,1-1h30c0.553,0,1,0.447,1,1v16C48,36.553,47.553,37,47,37z M18,35
						h28V21H18V35z"/>
				</g>
				<g>
					<g>
						<path d="M17,40c-0.553,0-1-0.447-1-1v-3c0-0.553,0.447-1,1-1s1,0.447,1,1v3C18,39.553,17.553,40,17,40z"/>
					</g>
					<g>
						<path d="M47,40H17c-0.553,0-1-0.447-1-1s0.447-1,1-1h30c0.553,0,1,0.447,1,1S47.553,40,47,40z"/>
					</g>
					<g>
						<path d="M47,40c-0.553,0-1-0.447-1-1v-3c0-0.553,0.447-1,1-1s1,0.447,1,1v3C48,39.553,47.553,40,47,40z"/>
					</g>
				</g>
				<g>
					<g>
						<path d="M17,43c-0.553,0-1-0.447-1-1v-3c0-0.553,0.447-1,1-1s1,0.447,1,1v3C18,42.553,17.553,43,17,43z"/>
					</g>
					<g>
						<path d="M47,43H17c-0.553,0-1-0.447-1-1s0.447-1,1-1h30c0.553,0,1,0.447,1,1S47.553,43,47,43z"/>
					</g>
					<g>
						<path d="M47,43c-0.553,0-1-0.447-1-1v-3c0-0.553,0.447-1,1-1s1,0.447,1,1v3C48,42.553,47.553,43,47,43z"/>
					</g>
				</g>
				<g>
					<g>
						<path d="M17,46c-0.553,0-1-0.447-1-1v-3c0-0.553,0.447-1,1-1s1,0.447,1,1v3C18,45.553,17.553,46,17,46z"/>
					</g>
					<g>
						<path d="M47,46H17c-0.553,0-1-0.447-1-1s0.447-1,1-1h30c0.553,0,1,0.447,1,1S47.553,46,47,46z"/>
					</g>
					<g>
						<path d="M47,46c-0.553,0-1-0.447-1-1v-3c0-0.553,0.447-1,1-1s1,0.447,1,1v3C48,45.553,47.553,46,47,46z"/>
					</g>
				</g>
			</g>
			<g>
				<path d="M17,25c-0.553,0-1-0.447-1-1s0.447-1,1-1c1.654,0,3-1.346,3-3c0-0.553,0.447-1,1-1s1,0.447,1,1
					C22,22.757,19.757,25,17,25z"/>
			</g>
			<g>
				<path d="M47,25c-2.757,0-5-2.243-5-5c0-0.553,0.447-1,1-1s1,0.447,1,1c0,1.654,1.346,3,3,3c0.553,0,1,0.447,1,1S47.553,25,47,25
					z"/>
			</g>
			<g>
				<path d="M43,37c-0.553,0-1-0.447-1-1c0-2.757,2.243-5,5-5c0.553,0,1,0.447,1,1s-0.447,1-1,1c-1.654,0-3,1.346-3,3
					C44,36.553,43.553,37,43,37z"/>
			</g>
			<g>
				<path d="M21,37c-0.553,0-1-0.447-1-1c0-1.654-1.346-3-3-3c-0.553,0-1-0.447-1-1s0.447-1,1-1c2.757,0,5,2.243,5,5
					C22,36.553,21.553,37,21,37z"/>
			</g>
			<g>
				<path d="M32,33c-2.757,0-5-2.243-5-5s2.243-5,5-5s5,2.243,5,5S34.757,33,32,33z M32,25c-1.654,0-3,1.346-3,3s1.346,3,3,3
					s3-1.346,3-3S33.654,25,32,25z"/>
			</g>
		</g>
	</g>
</g>
<g id="_x34_2_case_x2C__task_x2C__project_x2C__business_x2C__office_x2C__corporation_x2C__job">
</g>
<g id="_x34_1_structure_x2C__structuring_x2C__tasks_x2C__business_x2C__office_x2C__corporation_x2C__job">
</g>
<g id="_x34_0_choice_x2C__dilemma_x2C__question_x2C__business_x2C__office_x2C__corporation_x2C__job">
</g>
<g id="_x33_9_workplace_x2C__table_x2C__laptop_x2C__business_x2C__office_x2C__corporation_x2C__job">
</g>
<g id="_x33_8_bribe_x2C__bag_x2C__money_x2C__business_x2C__office_x2C__corporation_x2C__job">
</g>
<g id="_x33_7_corruption_x2C__forage_x2C__money_x2C__business_x2C__office_x2C__corporation_x2C__job">
</g>
<g id="_x33_6_career_x2C__ladder_x2C__success_x2C__business_x2C__office_x2C__corporation_x2C__job">
</g>
<g id="_x33_5_review_x2C__feedback_x2C__rating_x2C__business_x2C__office_x2C__corporation_x2C__job">
</g>
<g id="_x33_4_manipulation_x2C__thread_x2C__puppet_x2C__business_x2C__office_x2C__corporation_x2C__job">
</g>
<g id="_x33_3_location_x2C__map_x2C__pin_x2C__business_x2C__office_x2C__corporation_x2C__job">
</g>
<g id="_x33_2_retirement_x2C__old_x2C__man_x2C__door_x2C__business_x2C__office_x2C__corporation">
</g>
<g id="_x33_1_victory_x2C__success_x2C__medal_x2C__reward_x2C__business_x2C__office_x2C__corporation">
</g>
<g id="_x33_0_dismissal_x2C__box_x2C__door_x2C__business_x2C__office_x2C__corporation_x2C__job">
</g>
<g id="_x32_9_meeting_x2C__discussion_x2C__question_x2C__business_x2C__office_x2C__corporation_x2C__job">
</g>
<g id="_x32_8_strategy_x2C__vision_x2C__eye_x2C__chess_x2C__business_x2C__office_x2C__corporation">
</g>
<g id="_x32_7_board_x2C__task_x2C__process_x2C__business_x2C__office_x2C__corporation_x2C__job">
</g>
<g id="_x32_6_scheme_x2C__board_x2C__structure_x2C__business_x2C__office_x2C__corporation_x2C__job">
</g>
<g id="_x32_5_conflict_x2C__dialog_x2C__discussion_x2C__business_x2C__office_x2C__corporation_x2C__job">
</g>
<g id="_x32_4_documentation_x2C__document_x2C__repository_x2C__business_x2C__office_x2C__corporation_x2C__job">
</g>
<g id="_x32_3_sprint_x2C__programming_x2C__code_x2C__business_x2C__office_x2C__corporation_x2C__job">
</g>
<g id="_x32_2_cram_x2C__tablet_x2C__work_x2C__business_x2C__office_x2C__corporation_x2C__job">
</g>
<g id="_x32_1_leader_x2C__discoverer_x2C__flag_x2C__business_x2C__office_x2C__corporation_x2C__job">
</g>
<g id="_x32_0_rally_x2C__collective_x2C__arm_x2C__business_x2C__office_x2C__corporation_x2C__job">
</g>
<g id="_x31_9_consolidation_x2C__portfolio_x2C__puzzle_x2C__business_x2C__office_x2C__corporation_x2C__job">
</g>
<g id="_x31_8_idea_x2C__creative_x2C__work_x2C__business_x2C__office_x2C__corporation_x2C__job">
</g>
<g id="_x31_7_problem_x2C__stress_x2C__resistance_x2C__business_x2C__office_x2C__corporation_x2C__job">
</g>
<g id="_x31_6_hard_x2C__skills_x2C__skill_x2C__portfolio_x2C__book_x2C__business_x2C__office">
</g>
<g id="_x31_5_time_x2C__management_x2C__clock_x2C__deadline_x2C__business_x2C__office_x2C__corporation">
</g>
<g id="_x31_4_multitasking_x2C__task_x2C__work_x2C__business_x2C__office_x2C__corporation_x2C__job">
</g>
<g id="_x31_3_tranquility_x2C__yoga_x2C__lotus_x2C__posture_x2C__business_x2C__office_x2C__corporation">
</g>
<g id="_x31_2_corporate_x2C__party_x2C__business_x2C__office_x2C__corporation_x2C__job">
</g>
<g id="_x31_1_dialog_x2C__discussion_x2C__work_x2C__business_x2C__office_x2C__corporation_x2C__job">
</g>
<g id="_x31_0_listening_x2C__skill_x2C__dialog_x2C__business_x2C__office_x2C__corporation_x2C__job">
</g>
<g id="_x39__training_x2C__book_x2C__lesson_x2C__business_x2C__office_x2C__corporation_x2C__job">
</g>
<g id="_x38__dress_x2C__code_x2C__shirt_x2C__business_x2C__office_x2C__corporation_x2C__job">
</g>
<g id="_x37__task_x2C__program_x2C__ticket_x2C__business_x2C__office_x2C__corporation_x2C__job">
</g>
<g id="_x36__plan_x2C__graph_x2C__stage_x2C__business_x2C__office_x2C__corporation_x2C__job">
</g>
<g id="_x35__boss_x2C__king_x2C__crown_x2C__business_x2C__office_x2C__corporation_x2C__job">
</g>
<g id="_x34__structure_x2C__structuring_x2C__business_x2C__office_x2C__corporation_x2C__job">
</g>
<g id="_x33__soft_x2C__skills_x2C__communication_x2C__business_x2C__office_x2C__corporation_x2C__job">
</g>
<g id="_x32__office_x2C__house_x2C__portfolio_x2C__business_x2C__corporation_x2C__job">
</g>
<g id="_x31__corporate_x2C__rules_x2C__book_x2C__business_x2C__office_x2C__corporation_x2C__job">
</g>
</svg>
