<?xml version="1.0" encoding="utf-8"?>
<!-- Generator: Adobe Illustrator 16.0.0, SVG Export Plug-In . SVG Version: 6.00 Build 0)  -->
<!DOCTYPE svg PUBLIC "-//W3C//DTD SVG 1.1//EN" "http://www.w3.org/Graphics/SVG/1.1/DTD/svg11.dtd">
<svg version="1.1" xmlns="http://www.w3.org/2000/svg" xmlns:xlink="http://www.w3.org/1999/xlink" x="0px" y="0px" width="64px"
	 height="64px" viewBox="0 0 64 64" enable-background="new 0 0 64 64" xml:space="preserve">
<g id="_x35_0_document_x2C__optimization_x2C__documentation_x2C__business_x2C__office_x2C__corporation_x2C__job">
</g>
<g id="_x34_9_human_x2C__resource_x2C__conveyor_x2C__business_x2C__office_x2C__corporation_x2C__job">
</g>
<g id="_x34_8_knowledge_x2C__training_x2C__growth_x2C__book_x2C__business_x2C__office_x2C__corporation">
</g>
<g id="_x34_7_skill_x2C__competence_x2C__experience_x2C__business_x2C__office_x2C__corporation_x2C__job">
</g>
<g id="_x34_6_target_x2C__success_x2C__victory_x2C__business_x2C__office_x2C__corporation_x2C__job">
</g>
<g id="_x34_5_inbox_x2C__letter_x2C__email_x2C__business_x2C__office_x2C__corporation_x2C__job">
</g>
<g id="_x34_4_document_x2C__workflow_x2C__sharing_x2C__business_x2C__office_x2C__corporation_x2C__job">
</g>
<g id="_x34_3_budget_x2C__allocation_x2C__money_x2C__business_x2C__office_x2C__corporation_x2C__job">
</g>
<g id="_x34_2_case_x2C__task_x2C__project_x2C__business_x2C__office_x2C__corporation_x2C__job">
</g>
<g id="_x34_1_structure_x2C__structuring_x2C__tasks_x2C__business_x2C__office_x2C__corporation_x2C__job">
</g>
<g id="_x34_0_choice_x2C__dilemma_x2C__question_x2C__business_x2C__office_x2C__corporation_x2C__job">
</g>
<g id="_x33_9_workplace_x2C__table_x2C__laptop_x2C__business_x2C__office_x2C__corporation_x2C__job">
</g>
<g id="_x33_8_bribe_x2C__bag_x2C__money_x2C__business_x2C__office_x2C__corporation_x2C__job">
</g>
<g id="_x33_7_corruption_x2C__forage_x2C__money_x2C__business_x2C__office_x2C__corporation_x2C__job">
</g>
<g id="_x33_6_career_x2C__ladder_x2C__success_x2C__business_x2C__office_x2C__corporation_x2C__job">
</g>
<g id="_x33_5_review_x2C__feedback_x2C__rating_x2C__business_x2C__office_x2C__corporation_x2C__job">
</g>
<g id="_x33_4_manipulation_x2C__thread_x2C__puppet_x2C__business_x2C__office_x2C__corporation_x2C__job">
</g>
<g id="_x33_3_location_x2C__map_x2C__pin_x2C__business_x2C__office_x2C__corporation_x2C__job">
</g>
<g id="_x33_2_retirement_x2C__old_x2C__man_x2C__door_x2C__business_x2C__office_x2C__corporation">
</g>
<g id="_x33_1_victory_x2C__success_x2C__medal_x2C__reward_x2C__business_x2C__office_x2C__corporation">
</g>
<g id="_x33_0_dismissal_x2C__box_x2C__door_x2C__business_x2C__office_x2C__corporation_x2C__job">
</g>
<g id="_x32_9_meeting_x2C__discussion_x2C__question_x2C__business_x2C__office_x2C__corporation_x2C__job">
</g>
<g id="_x32_8_strategy_x2C__vision_x2C__eye_x2C__chess_x2C__business_x2C__office_x2C__corporation">
</g>
<g id="_x32_7_board_x2C__task_x2C__process_x2C__business_x2C__office_x2C__corporation_x2C__job">
</g>
<g id="_x32_6_scheme_x2C__board_x2C__structure_x2C__business_x2C__office_x2C__corporation_x2C__job">
</g>
<g id="_x32_5_conflict_x2C__dialog_x2C__discussion_x2C__business_x2C__office_x2C__corporation_x2C__job">
</g>
<g id="_x32_4_documentation_x2C__document_x2C__repository_x2C__business_x2C__office_x2C__corporation_x2C__job">
</g>
<g id="_x32_3_sprint_x2C__programming_x2C__code_x2C__business_x2C__office_x2C__corporation_x2C__job">
</g>
<g id="_x32_2_cram_x2C__tablet_x2C__work_x2C__business_x2C__office_x2C__corporation_x2C__job">
</g>
<g id="_x32_1_leader_x2C__discoverer_x2C__flag_x2C__business_x2C__office_x2C__corporation_x2C__job">
</g>
<g id="_x32_0_rally_x2C__collective_x2C__arm_x2C__business_x2C__office_x2C__corporation_x2C__job">
</g>
<g id="_x31_9_consolidation_x2C__portfolio_x2C__puzzle_x2C__business_x2C__office_x2C__corporation_x2C__job">
</g>
<g id="_x31_8_idea_x2C__creative_x2C__work_x2C__business_x2C__office_x2C__corporation_x2C__job">
</g>
<g id="_x31_7_problem_x2C__stress_x2C__resistance_x2C__business_x2C__office_x2C__corporation_x2C__job">
</g>
<g id="_x31_6_hard_x2C__skills_x2C__skill_x2C__portfolio_x2C__book_x2C__business_x2C__office">
</g>
<g id="_x31_5_time_x2C__management_x2C__clock_x2C__deadline_x2C__business_x2C__office_x2C__corporation">
</g>
<g id="_x31_4_multitasking_x2C__task_x2C__work_x2C__business_x2C__office_x2C__corporation_x2C__job">
</g>
<g id="_x31_3_tranquility_x2C__yoga_x2C__lotus_x2C__posture_x2C__business_x2C__office_x2C__corporation">
</g>
<g id="_x31_2_corporate_x2C__party_x2C__business_x2C__office_x2C__corporation_x2C__job">
</g>
<g id="_x31_1_dialog_x2C__discussion_x2C__work_x2C__business_x2C__office_x2C__corporation_x2C__job">
</g>
<g id="_x31_0_listening_x2C__skill_x2C__dialog_x2C__business_x2C__office_x2C__corporation_x2C__job">
</g>
<g id="_x39__training_x2C__book_x2C__lesson_x2C__business_x2C__office_x2C__corporation_x2C__job">
</g>
<g id="_x38__dress_x2C__code_x2C__shirt_x2C__business_x2C__office_x2C__corporation_x2C__job">
</g>
<g id="_x37__task_x2C__program_x2C__ticket_x2C__business_x2C__office_x2C__corporation_x2C__job">
</g>
<g id="_x36__plan_x2C__graph_x2C__stage_x2C__business_x2C__office_x2C__corporation_x2C__job">
	<g>
		<g>
			<path fill="#E6E9ED" d="M63,16v40H1V8h54v8H63z"/>
		</g>
		<g>
			<polygon fill="#F5F7FA" points="63,16 55,16 55,8 			"/>
		</g>
		<g>
			<rect x="46" y="44" fill="#48CFAD" width="13" height="4"/>
		</g>
		<g>
			<rect x="28" y="36" fill="#48CFAD" width="26" height="4"/>
		</g>
		<g>
			<rect x="28" y="28" fill="#48CFAD" width="18" height="4"/>
		</g>
		<g>
			<rect x="16" y="12" fill="#48CFAD" width="5" height="4"/>
		</g>
		<g>
			<rect x="16" y="20" fill="#48CFAD" width="24" height="4"/>
		</g>
	</g>
	<g>
		<g>
			<path d="M63,57H1c-0.553,0-1-0.447-1-1V8c0-0.552,0.447-1,1-1h53.999c0.266,0,0.52,0.105,0.707,0.293l8.001,8
				C63.895,15.48,64,15.735,64,16v40C64,56.553,63.553,57,63,57z M2,55h60V16.414L54.585,9H2V55z"/>
		</g>
		<g>
			<path d="M63,17h-8c-0.553,0-1-0.448-1-1s0.447-1,1-1h8c0.553,0,1,0.448,1,1S63.553,17,63,17z"/>
		</g>
		<g>
			<path d="M55,17c-0.553,0-1-0.448-1-1V8c0-0.552,0.447-1,1-1s1,0.448,1,1v8C56,16.552,55.553,17,55,17z"/>
		</g>
		<g>
			<path d="M12,53c-0.553,0-1-0.447-1-1V12c0-0.552,0.447-1,1-1s1,0.448,1,1v40C13,52.553,12.553,53,12,53z"/>
		</g>
		<g>
			<path d="M59,53H12c-0.553,0-1-0.447-1-1s0.447-1,1-1h47c0.553,0,1,0.447,1,1S59.553,53,59,53z"/>
		</g>
		<g>
			<path d="M8,15H5c-0.553,0-1-0.448-1-1s0.447-1,1-1h3c0.553,0,1,0.448,1,1S8.553,15,8,15z"/>
		</g>
		<g>
			<path d="M8,23H5c-0.553,0-1-0.448-1-1s0.447-1,1-1h3c0.553,0,1,0.448,1,1S8.553,23,8,23z"/>
		</g>
		<g>
			<path d="M8,31H5c-0.553,0-1-0.448-1-1s0.447-1,1-1h3c0.553,0,1,0.448,1,1S8.553,31,8,31z"/>
		</g>
		<g>
			<path d="M8,39H5c-0.553,0-1-0.447-1-1s0.447-1,1-1h3c0.553,0,1,0.447,1,1S8.553,39,8,39z"/>
		</g>
		<g>
			<path d="M8,47H5c-0.553,0-1-0.447-1-1s0.447-1,1-1h3c0.553,0,1,0.447,1,1S8.553,47,8,47z"/>
		</g>
		<g>
			<g>
				<path d="M21,17h-5c-0.553,0-1-0.448-1-1v-4c0-0.552,0.447-1,1-1h5c0.553,0,1,0.448,1,1v4C22,16.552,21.553,17,21,17z M17,15h3
					v-2h-3V15z"/>
			</g>
			<g>
				<path d="M40,25H16c-0.553,0-1-0.448-1-1v-4c0-0.552,0.447-1,1-1h24c0.553,0,1,0.448,1,1v4C41,24.552,40.553,25,40,25z M17,23h22
					v-2H17V23z"/>
			</g>
			<g>
				<path d="M46,33H28c-0.553,0-1-0.448-1-1v-4c0-0.552,0.447-1,1-1h18c0.553,0,1,0.448,1,1v4C47,32.552,46.553,33,46,33z M29,31h16
					v-2H29V31z"/>
			</g>
			<g>
				<path d="M54,41H28c-0.553,0-1-0.447-1-1v-4c0-0.553,0.447-1,1-1h26c0.553,0,1,0.447,1,1v4C55,40.553,54.553,41,54,41z M29,39h24
					v-2H29V39z"/>
			</g>
			<g>
				<path d="M59,49H46c-0.553,0-1-0.447-1-1v-4c0-0.553,0.447-1,1-1h13c0.553,0,1,0.447,1,1v4C60,48.553,59.553,49,59,49z M47,47h11
					v-2H47V47z"/>
			</g>
		</g>
	</g>
</g>
<g id="_x35__boss_x2C__king_x2C__crown_x2C__business_x2C__office_x2C__corporation_x2C__job">
</g>
<g id="_x34__structure_x2C__structuring_x2C__business_x2C__office_x2C__corporation_x2C__job">
</g>
<g id="_x33__soft_x2C__skills_x2C__communication_x2C__business_x2C__office_x2C__corporation_x2C__job">
</g>
<g id="_x32__office_x2C__house_x2C__portfolio_x2C__business_x2C__corporation_x2C__job">
</g>
<g id="_x31__corporate_x2C__rules_x2C__book_x2C__business_x2C__office_x2C__corporation_x2C__job">
</g>
</svg>
