<?xml version="1.0" encoding="utf-8"?>
<!-- Generator: Adobe Illustrator 16.0.0, SVG Export Plug-In . SVG Version: 6.00 Build 0)  -->
<!DOCTYPE svg PUBLIC "-//W3C//DTD SVG 1.1//EN" "http://www.w3.org/Graphics/SVG/1.1/DTD/svg11.dtd">
<svg version="1.1" xmlns="http://www.w3.org/2000/svg" xmlns:xlink="http://www.w3.org/1999/xlink" x="0px" y="0px" width="64px"
	 height="64px" viewBox="0 0 64 64" enable-background="new 0 0 64 64" xml:space="preserve">
<g id="_x35_0_document_x2C__optimization_x2C__documentation_x2C__business_x2C__office_x2C__corporation_x2C__job">
</g>
<g id="_x34_9_human_x2C__resource_x2C__conveyor_x2C__business_x2C__office_x2C__corporation_x2C__job">
</g>
<g id="_x34_8_knowledge_x2C__training_x2C__growth_x2C__book_x2C__business_x2C__office_x2C__corporation">
</g>
<g id="_x34_7_skill_x2C__competence_x2C__experience_x2C__business_x2C__office_x2C__corporation_x2C__job">
</g>
<g id="_x34_6_target_x2C__success_x2C__victory_x2C__business_x2C__office_x2C__corporation_x2C__job">
</g>
<g id="_x34_5_inbox_x2C__letter_x2C__email_x2C__business_x2C__office_x2C__corporation_x2C__job">
</g>
<g id="_x34_4_document_x2C__workflow_x2C__sharing_x2C__business_x2C__office_x2C__corporation_x2C__job">
</g>
<g id="_x34_3_budget_x2C__allocation_x2C__money_x2C__business_x2C__office_x2C__corporation_x2C__job">
</g>
<g id="_x34_2_case_x2C__task_x2C__project_x2C__business_x2C__office_x2C__corporation_x2C__job">
</g>
<g id="_x34_1_structure_x2C__structuring_x2C__tasks_x2C__business_x2C__office_x2C__corporation_x2C__job">
</g>
<g id="_x34_0_choice_x2C__dilemma_x2C__question_x2C__business_x2C__office_x2C__corporation_x2C__job">
</g>
<g id="_x33_9_workplace_x2C__table_x2C__laptop_x2C__business_x2C__office_x2C__corporation_x2C__job">
</g>
<g id="_x33_8_bribe_x2C__bag_x2C__money_x2C__business_x2C__office_x2C__corporation_x2C__job">
</g>
<g id="_x33_7_corruption_x2C__forage_x2C__money_x2C__business_x2C__office_x2C__corporation_x2C__job">
</g>
<g id="_x33_6_career_x2C__ladder_x2C__success_x2C__business_x2C__office_x2C__corporation_x2C__job">
</g>
<g id="_x33_5_review_x2C__feedback_x2C__rating_x2C__business_x2C__office_x2C__corporation_x2C__job">
</g>
<g id="_x33_4_manipulation_x2C__thread_x2C__puppet_x2C__business_x2C__office_x2C__corporation_x2C__job">
</g>
<g id="_x33_3_location_x2C__map_x2C__pin_x2C__business_x2C__office_x2C__corporation_x2C__job">
</g>
<g id="_x33_2_retirement_x2C__old_x2C__man_x2C__door_x2C__business_x2C__office_x2C__corporation">
</g>
<g id="_x33_1_victory_x2C__success_x2C__medal_x2C__reward_x2C__business_x2C__office_x2C__corporation">
</g>
<g id="_x33_0_dismissal_x2C__box_x2C__door_x2C__business_x2C__office_x2C__corporation_x2C__job">
</g>
<g id="_x32_9_meeting_x2C__discussion_x2C__question_x2C__business_x2C__office_x2C__corporation_x2C__job">
</g>
<g id="_x32_8_strategy_x2C__vision_x2C__eye_x2C__chess_x2C__business_x2C__office_x2C__corporation">
</g>
<g id="_x32_7_board_x2C__task_x2C__process_x2C__business_x2C__office_x2C__corporation_x2C__job">
</g>
<g id="_x32_6_scheme_x2C__board_x2C__structure_x2C__business_x2C__office_x2C__corporation_x2C__job">
</g>
<g id="_x32_5_conflict_x2C__dialog_x2C__discussion_x2C__business_x2C__office_x2C__corporation_x2C__job">
</g>
<g id="_x32_4_documentation_x2C__document_x2C__repository_x2C__business_x2C__office_x2C__corporation_x2C__job">
</g>
<g id="_x32_3_sprint_x2C__programming_x2C__code_x2C__business_x2C__office_x2C__corporation_x2C__job">
</g>
<g id="_x32_2_cram_x2C__tablet_x2C__work_x2C__business_x2C__office_x2C__corporation_x2C__job">
</g>
<g id="_x32_1_leader_x2C__discoverer_x2C__flag_x2C__business_x2C__office_x2C__corporation_x2C__job">
</g>
<g id="_x32_0_rally_x2C__collective_x2C__arm_x2C__business_x2C__office_x2C__corporation_x2C__job">
</g>
<g id="_x31_9_consolidation_x2C__portfolio_x2C__puzzle_x2C__business_x2C__office_x2C__corporation_x2C__job">
</g>
<g id="_x31_8_idea_x2C__creative_x2C__work_x2C__business_x2C__office_x2C__corporation_x2C__job">
</g>
<g id="_x31_7_problem_x2C__stress_x2C__resistance_x2C__business_x2C__office_x2C__corporation_x2C__job">
</g>
<g id="_x31_6_hard_x2C__skills_x2C__skill_x2C__portfolio_x2C__book_x2C__business_x2C__office">
</g>
<g id="_x31_5_time_x2C__management_x2C__clock_x2C__deadline_x2C__business_x2C__office_x2C__corporation">
</g>
<g id="_x31_4_multitasking_x2C__task_x2C__work_x2C__business_x2C__office_x2C__corporation_x2C__job">
</g>
<g id="_x31_3_tranquility_x2C__yoga_x2C__lotus_x2C__posture_x2C__business_x2C__office_x2C__corporation">
</g>
<g id="_x31_2_corporate_x2C__party_x2C__business_x2C__office_x2C__corporation_x2C__job">
</g>
<g id="_x31_1_dialog_x2C__discussion_x2C__work_x2C__business_x2C__office_x2C__corporation_x2C__job">
</g>
<g id="_x31_0_listening_x2C__skill_x2C__dialog_x2C__business_x2C__office_x2C__corporation_x2C__job">
</g>
<g id="_x39__training_x2C__book_x2C__lesson_x2C__business_x2C__office_x2C__corporation_x2C__job">
</g>
<g id="_x38__dress_x2C__code_x2C__shirt_x2C__business_x2C__office_x2C__corporation_x2C__job">
	<g>
		<g>
			<circle fill="#A0D468" cx="52" cy="55" r="8"/>
		</g>
		<g>
			<path fill="#8CC152" d="M52,47c-0.692,0-1.359,0.098-2,0.262c3.449,0.889,6,4.01,6,7.738s-2.551,6.85-6,7.738
				C50.641,62.902,51.308,63,52,63c4.42,0,8-3.58,8-8S56.42,47,52,47z"/>
		</g>
		<g>
			<path fill="#87BCF4" d="M13,42v13H6c-1.11,0-2-0.891-2-2V42H13z"/>
		</g>
		<g>
			<rect x="25" y="5" fill="#E6E9ED" width="6" height="3"/>
		</g>
		<g>
			<path fill="#5D9CEC" d="M41.44,10.84C40.15,7.43,36.87,5,33,5h-2h-6h-2c-3.87,0-7.16,2.43-8.43,5.85C14.18,10.32,14,10,14,10
				c0-4.97,4.03-9,9-9h10c4.97,0,9,4.03,9,9C42,10,41.82,10.31,41.44,10.84z"/>
		</g>
		<g>
			<path fill="#4A89DC" d="M33,5c3.87,0,7.15,2.43,8.44,5.84C40.04,12.78,35.88,17.63,28,20c-7.87-2.36-12.02-7.2-13.43-9.15
				C15.84,7.43,19.13,5,23,5h2v3h6V5H33z"/>
		</g>
		<g>
			<path fill="#87BCF4" d="M28,20c7.88-2.37,12.04-7.22,13.44-9.16C41.82,10.31,42,10,42,10c0,4.48-3.92,14.96-3.92,14.96
				l-7.04-3.46L28,20z"/>
		</g>
		<g>
			<path fill="#87BCF4" d="M14.57,10.85C15.98,12.8,20.13,17.64,28,20l-3,1.48l-7.08,3.48c0,0-3.92-10.48-3.92-14.96
				C14,10,14.18,10.32,14.57,10.85z"/>
		</g>
		<g>
			<polygon fill="#4A89DC" points="31.04,21.5 31.04,55 25,55 25,21.48 28,20 			"/>
		</g>
		<g>
			<path fill="#5D9CEC" d="M38.08,24.96c0,0,3.92-10.48,3.92-14.96l10,3v34c-4.42,0-8,3.58-8,8H31.04V21.5L38.08,24.96z"/>
		</g>
		<g>
			<path fill="#4A89DC" d="M48,11.8v36.278C49.178,47.396,50.541,47,52,47V13L48,11.8z"/>
		</g>
		<g>
			<path fill="#5D9CEC" d="M13,42H4v-3V13l10-3c0,4.48,3.92,14.96,3.92,14.96L25,21.48V55H13V42z"/>
		</g>
		<g>
			<rect x="4" y="39" fill="#87BCF4" width="9" height="3"/>
		</g>
	</g>
	<g>
		<g>
			<path d="M28.03,30c-0.553,0-1.005-0.448-1.005-1s0.442-1,0.994-1h0.011c0.552,0,1,0.448,1,1S28.582,30,28.03,30z"/>
		</g>
		<g>
			<path d="M28.03,39c-0.553,0-1.005-0.447-1.005-1s0.442-1,0.994-1h0.011c0.552,0,1,0.447,1,1S28.582,39,28.03,39z"/>
		</g>
		<g>
			<path d="M28.03,48c-0.553,0-1.005-0.447-1.005-1s0.442-1,0.994-1h0.011c0.552,0,1,0.447,1,1S28.582,48,28.03,48z"/>
		</g>
		<g>
			<path d="M38.083,25.959c-0.148,0-0.299-0.033-0.44-0.103l-10.084-4.959c-0.495-0.244-0.699-0.843-0.456-1.339
				c0.244-0.496,0.846-0.699,1.339-0.456l10.084,4.959c0.495,0.244,0.699,0.843,0.456,1.339
				C38.808,25.754,38.452,25.959,38.083,25.959z"/>
		</g>
		<g>
			<path d="M38.084,25.959c-0.116,0-0.234-0.021-0.35-0.064c-0.518-0.193-0.78-0.769-0.587-1.287C37.186,24.506,41,14.247,41,10
				c0-0.552,0.447-1,1-1s1,0.448,1,1c0,4.607-3.816,14.874-3.979,15.309C38.87,25.711,38.489,25.959,38.084,25.959z"/>
		</g>
		<g>
			<path d="M17.917,25.959c-0.369,0-0.725-0.205-0.898-0.559c-0.243-0.496-0.039-1.095,0.456-1.339l10.084-4.959
				c0.497-0.243,1.096-0.039,1.339,0.456c0.243,0.496,0.039,1.095-0.456,1.339l-10.084,4.959
				C18.216,25.926,18.064,25.959,17.917,25.959z"/>
		</g>
		<g>
			<path d="M17.916,25.959c-0.405,0-0.786-0.249-0.937-0.65C16.816,24.874,13,14.607,13,10c0-0.552,0.447-1,1-1s1,0.448,1,1
				c0,4.247,3.814,14.506,3.853,14.609c0.193,0.518-0.069,1.094-0.587,1.287C18.15,25.939,18.032,25.959,17.916,25.959z"/>
		</g>
		<g>
			<path d="M4,14c-0.431,0-0.828-0.28-0.958-0.713c-0.158-0.529,0.142-1.086,0.671-1.245l10-3c0.529-0.156,1.087,0.142,1.245,0.671
				c0.158,0.529-0.142,1.086-0.671,1.245l-10,3C4.191,13.986,4.095,14,4,14z"/>
		</g>
		<g>
			<path d="M4,54c-0.553,0-1-0.447-1-1V13c0-0.552,0.447-1,1-1s1,0.448,1,1v40C5,53.553,4.553,54,4,54z"/>
		</g>
		<g>
			<path d="M6,56c-1.654,0-3-1.346-3-3c0-0.553,0.447-1,1-1s1,0.447,1,1c0,0.552,0.448,1,1,1c0.553,0,1,0.447,1,1S6.553,56,6,56z"/>
		</g>
		<g>
			<path d="M52,14c-0.095,0-0.191-0.014-0.287-0.042l-10-3c-0.529-0.159-0.829-0.716-0.671-1.245
				c0.158-0.529,0.713-0.83,1.245-0.671l10,3c0.529,0.159,0.829,0.716,0.671,1.245C52.828,13.721,52.431,14,52,14z"/>
		</g>
		<g>
			<path d="M52,48c-0.553,0-1-0.447-1-1V13c0-0.552,0.447-1,1-1s1,0.448,1,1v34C53,47.553,52.553,48,52,48z"/>
		</g>
		<g>
			<path d="M44,56H6c-0.553,0-1-0.447-1-1s0.447-1,1-1h38c0.553,0,1,0.447,1,1S44.553,56,44,56z"/>
		</g>
		<g>
			<path d="M28,21c-0.431,0-0.828-0.28-0.958-0.713c-0.158-0.529,0.142-1.086,0.671-1.245C37.22,16.19,41.094,9.57,41.132,9.504
				c0.273-0.48,0.884-0.647,1.364-0.372c0.479,0.274,0.646,0.885,0.372,1.364c-0.171,0.3-4.316,7.382-14.581,10.462
				C28.191,20.986,28.095,21,28,21z"/>
		</g>
		<g>
			<path d="M28,21c-0.095,0-0.191-0.014-0.287-0.042c-10.265-3.08-14.41-10.162-14.581-10.462c-0.274-0.479-0.107-1.09,0.372-1.364
				c0.479-0.274,1.09-0.107,1.363,0.37l0,0c0.038,0.067,3.957,6.701,13.42,9.54c0.529,0.159,0.829,0.716,0.671,1.245
				C28.828,20.721,28.431,21,28,21z"/>
		</g>
		<g>
			<path d="M14,11c-0.553,0-1-0.448-1-1c0-5.514,4.486-10,10-10c0.553,0,1,0.448,1,1s-0.447,1-1,1c-4.411,0-8,3.589-8,8
				C15,10.552,14.553,11,14,11z"/>
		</g>
		<g>
			<path d="M42,11c-0.553,0-1-0.448-1-1c0-4.411-3.589-8-8-8c-0.553,0-1-0.448-1-1s0.447-1,1-1c5.514,0,10,4.486,10,10
				C43,10.552,42.553,11,42,11z"/>
		</g>
		<g>
			<path d="M33,2H23c-0.553,0-1-0.448-1-1s0.447-1,1-1h10c0.553,0,1,0.448,1,1S33.553,2,33,2z"/>
		</g>
		<g>
			<path d="M14.566,11.849c-0.116,0-0.234-0.021-0.35-0.063c-0.518-0.193-0.78-0.769-0.587-1.287C15.08,6.612,18.846,4,23,4
				c0.553,0,1,0.448,1,1s-0.447,1-1,1c-3.324,0-6.337,2.089-7.497,5.198C15.354,11.601,14.972,11.849,14.566,11.849z"/>
		</g>
		<g>
			<path d="M41.436,11.853c-0.405,0-0.787-0.249-0.937-0.651C39.339,8.09,36.325,6,33,6c-0.553,0-1-0.448-1-1s0.447-1,1-1
				c4.156,0,7.922,2.613,9.372,6.503c0.193,0.517-0.069,1.093-0.587,1.286C41.67,11.833,41.552,11.853,41.436,11.853z"/>
		</g>
		<g>
			<path d="M33,6H23c-0.553,0-1-0.448-1-1s0.447-1,1-1h10c0.553,0,1,0.448,1,1S33.553,6,33,6z"/>
		</g>
		<g>
			<path d="M25,9c-0.553,0-1-0.448-1-1V5c0-0.552,0.447-1,1-1s1,0.448,1,1v3C26,8.552,25.553,9,25,9z"/>
		</g>
		<g>
			<path d="M31,9h-6c-0.553,0-1-0.448-1-1s0.447-1,1-1h6c0.553,0,1,0.448,1,1S31.553,9,31,9z"/>
		</g>
		<g>
			<path d="M31,9c-0.553,0-1-0.448-1-1V5c0-0.552,0.447-1,1-1s1,0.448,1,1v3C32,8.552,31.553,9,31,9z"/>
		</g>
		<g>
			<path d="M31.042,56c-0.553,0-1-0.447-1-1V21.475c0-0.552,0.447-1,1-1s1,0.448,1,1V55C32.042,55.553,31.595,56,31.042,56z"/>
		</g>
		<g>
			<path d="M25,56c-0.553,0-1-0.447-1-1V21.475c0-0.552,0.447-1,1-1s1,0.448,1,1V55C26,55.553,25.553,56,25,56z"/>
		</g>
		<g>
			<path d="M13,40H4c-0.553,0-1-0.447-1-1s0.447-1,1-1h9c0.553,0,1,0.447,1,1S13.553,40,13,40z"/>
		</g>
		<g>
			<path d="M13,43H4c-0.553,0-1-0.447-1-1s0.447-1,1-1h9c0.553,0,1,0.447,1,1S13.553,43,13,43z"/>
		</g>
		<g>
			<path d="M13,56c-0.553,0-1-0.447-1-1V39c0-0.553,0.447-1,1-1s1,0.447,1,1v16C14,55.553,13.553,56,13,56z"/>
		</g>
		<g>
			<path d="M52,64c-4.963,0-9-4.037-9-9s4.037-9,9-9s9,4.037,9,9S56.963,64,52,64z M52,48c-3.859,0-7,3.141-7,7s3.141,7,7,7
				s7-3.141,7-7S55.859,48,52,48z"/>
		</g>
		<g>
			<g>
				<path d="M51,59c-0.256,0-0.512-0.098-0.707-0.293l-2-2c-0.391-0.391-0.391-1.023,0-1.414s1.023-0.391,1.414,0l2,2
					c0.391,0.391,0.391,1.023,0,1.414C51.512,58.902,51.256,59,51,59z"/>
			</g>
			<g>
				<path d="M51,59c-0.256,0-0.512-0.098-0.707-0.293c-0.391-0.391-0.391-1.023,0-1.414l5-5c0.391-0.391,1.023-0.391,1.414,0
					s0.391,1.023,0,1.414l-5,5C51.512,58.902,51.256,59,51,59z"/>
			</g>
		</g>
	</g>
</g>
<g id="_x37__task_x2C__program_x2C__ticket_x2C__business_x2C__office_x2C__corporation_x2C__job">
</g>
<g id="_x36__plan_x2C__graph_x2C__stage_x2C__business_x2C__office_x2C__corporation_x2C__job">
</g>
<g id="_x35__boss_x2C__king_x2C__crown_x2C__business_x2C__office_x2C__corporation_x2C__job">
</g>
<g id="_x34__structure_x2C__structuring_x2C__business_x2C__office_x2C__corporation_x2C__job">
</g>
<g id="_x33__soft_x2C__skills_x2C__communication_x2C__business_x2C__office_x2C__corporation_x2C__job">
</g>
<g id="_x32__office_x2C__house_x2C__portfolio_x2C__business_x2C__corporation_x2C__job">
</g>
<g id="_x31__corporate_x2C__rules_x2C__book_x2C__business_x2C__office_x2C__corporation_x2C__job">
</g>
</svg>
