<svg fill="#FFFFFF" width="164" height="50" xmlns="http://www.w3.org/2000/svg" viewBox="0 0 115.5 34.4"><path d="M17.2 34.4C7.7 34.4 0 26.7 0 17.2S7.7 0 17.2 0C25 0 31.8 5.3 33.8 12.8c.1.5-.2 1-.6 1.1-.5.1-1-.2-1.1-.6-1.9-6.8-8-11.5-14.9-11.5-8.5 0-15.4 6.9-15.4 15.4s6.9 15.4 15.4 15.4c7 0 13.1-4.7 14.8-11.4.1-.5.6-.8 1.1-.6.5.1.8.6.6 1.1-1.9 7.4-8.7 12.7-16.5 12.7z"/><path d="M17.3 29.8c-5.2 0-9.1-3.6-9.1-3.7-.4-.4-.4-1 0-1.5.4-.4 1-.4 1.5 0 .3.3 6 5.5 12.4 1.8.9-.5 1-1.7.3-2.4l-4.5-4.5c-.4-.4-.4-1.1 0-1.5.4-.4 1.1-.4 1.5 0l6.5 6.6c.2.2.3.5.3.7 0 .3-.1.5-.3.7-3 2.8-5.9 3.8-8.6 3.8zM16.7 4.4c5.2 0 9.1 3.6 9.1 3.7.4.4.4 1 0 1.5-.4.4-1 .4-1.5 0-.1-.3-5.9-5.6-12.3-1.8-.9.5-1 1.7-.3 2.4l4.5 4.5c.4.4.4 1.1 0 1.5-.4.4-1.1.4-1.5 0L8.2 9.6c-.2-.2-.3-.5-.3-.8s.1-.5.3-.7c2.9-2.8 5.9-3.7 8.5-3.7z"/><g><path d="M40.8 20.4c.6.6 1.3.9 2.2.9 1 0 1.6-.4 1.6-1.2 0-.9-.7-1.2-1.9-1.6-1.3-.5-1.9-1-1.9-2.2 0-1.3 1-2.1 2.4-2.1.8 0 1.5.2 2.1.6V16c-.6-.5-1.2-.8-2.1-.8-.8 0-1.4.5-1.4 1.2s.4 1.1 1.6 1.4c1.3.4 2.2.9 2.2 2.3 0 1.5-1.2 2.2-2.6 2.2-.9 0-1.7-.2-2.2-.6v-1.3zM47.4 12c0-.4.4-.8.8-.8s.8.4.8.8-.4.8-.8.8c-.5 0-.8-.3-.8-.8zm1.3 10.1h-1.1v-7.6h1.1v7.6zM52.4 22.1h-1.1v-12h1.1v12zM55.5 18.3c0 1.9 1.3 3 2.8 3 1.1 0 1.8-.3 2.6-.9v1.1c-.7.5-1.7.7-2.6.7-2.2 0-3.9-1.5-3.9-4 0-2.3 1.6-4 3.6-4 1.9 0 3.2 1.2 3.2 3.3v.7h-5.7zm4.7-.9c-.1-1.6-.9-2.2-2.2-2.2-1.2 0-2.2.8-2.5 2.2h4.7zM63.3 14.8c1-.4 2.2-.6 3.2-.6 1.9 0 3.1.8 3.1 2.7V22h-1.1v-4.9c0-1.6-1.1-1.9-2.1-1.9-.8 0-1.5.1-2.1.3v6.6h-1.1v-7.3zM71.1 14.4h1.2v-1.9h1.1v1.9h2.2v.9h-2.2V20c0 1 .4 1.4 1.1 1.4.5 0 .9-.2 1.4-.4v.9c-.5.2-1 .4-1.6.4-1.1 0-1.9-.6-1.9-2.2v-4.8h-1.2v-.9zM86.5 15.9c-.6-.5-1.4-.7-2.1-.7-1.6 0-2.9 1.1-2.9 3s1.3 3 3 3c.8 0 1.5-.3 2.2-.7v1.1c-.8.4-1.5.6-2.3.6-2.1 0-4-1.5-4-4 0-2.6 1.9-4 4-4 .8 0 1.5.2 2.2.6v1.1zM88.4 12c0-.4.4-.8.8-.8s.8.4.8.8-.4.8-.8.8-.8-.3-.8-.8zm1.3 10.1h-1.1v-7.6h1.1v7.6zM93.4 22.1h-1.1v-6.9c.8-.5 1.8-.8 2.8-.8.4 0 .8.1 1.3.2v1c-.5-.2-1-.2-1.3-.2-.8 0-1.3.2-1.7.4v6.3zM103.4 15.9c-.6-.5-1.4-.7-2.1-.7-1.6 0-2.9 1.1-2.9 3s1.3 3 3 3c.8 0 1.5-.3 2.2-.7v1.1c-.8.4-1.5.6-2.3.6-2.1 0-4-1.5-4-4 0-2.6 1.9-4 4-4 .8 0 1.5.2 2.2.6v1.1zM106.6 22.1h-1.1v-12h1.1v12zM109.7 18.3c0 1.9 1.3 3 2.8 3 1.1 0 1.8-.3 2.6-.9v1.1c-.7.5-1.7.7-2.6.7-2.2 0-3.9-1.5-3.9-4 0-2.3 1.6-4 3.6-4 1.9 0 3.2 1.2 3.2 3.3v.7h-5.7zm4.8-.9c-.1-1.6-.9-2.2-2.2-2.2-1.2 0-2.2.8-2.5 2.2h4.7z"/></g></svg>
