<svg width="1298" height="324" viewBox="0 0 1298 324" fill="none" xmlns="http://www.w3.org/2000/svg">
<g clip-path="url(#clip0_5_10)">
<path d="M224.2 275.9C237.3 275.9 247.9 286.5 247.9 299.6C247.9 312.7 237.3 323.3 224.2 323.3C211.1 323.3 200.6 312.7 200.6 299.6C200.6 286.5 211.1 275.9 224.2 275.9ZM53.6001 275.9C66.7001 275.9 77.3001 286.5 77.3001 299.6C77.3001 312.7 66.7001 323.3 53.6001 323.3C40.5001 323.3 30.0001 312.7 30.0001 299.6C29.9001 286.5 40.5001 275.9 53.6001 275.9ZM138.9 275.9C152 275.9 162.6 286.5 162.6 299.6C162.6 312.7 152 323.3 138.9 323.3C125.8 323.3 115.3 312.7 115.3 299.6C115.2 286.5 125.8 275.9 138.9 275.9ZM138.9 0C215.7 0 277.9 54.8 277.9 122.3C277.9 189.8 215.7 244.6 138.9 244.6C117.1 244.6 96.4001 240.2 78.0001 232.3L8.40011 249.7L23.3001 190.2C8.60012 170.8 0.00012041 147.4 0.00012041 122.3C-0.0998796 54.8 62.1001 0 138.9 0ZM138.9 57.1C117.1 57.1 99.5001 74.7 99.5001 96.5V112.2H98.0001C94.5001 112.2 91.7001 115 91.7001 118.5V174.1C91.7001 177.6 94.5001 180.4 98.0001 180.4H180C183.5 180.4 186.3 177.6 186.3 174.1V118.5C186.3 115 183.5 112.2 180 112.2H178.5V96.5C178.3 74.7 160.7 57.1 138.9 57.1ZM138.9 72.8C152 72.8 162.6 83.4 162.6 96.4V112.1H115.2V96.4C115.2 83.4 125.8 72.8 138.9 72.8Z" fill="white"/>
</g>
<path d="M1188.94 76.5C1225.33 76.5 1244.07 94.8769 1244.44 121.443L1244.44 122.25V208.5H1215.19V195.25C1207.44 206 1193.69 212.75 1173.94 212.75C1149.69 212.75 1128.19 202.25 1128.19 176.25C1128.19 147.045 1153.92 136.707 1182.57 131.409L1213.44 125.75V122.75C1213.44 110.25 1204.19 103.25 1189.44 103.25C1173.15 103.25 1164.22 110.185 1152.38 121.431L1149.69 124L1129.19 105.25C1145.19 86.25 1163.69 76.5 1188.94 76.5ZM730.471 76.5C769.471 76.5 790.221 101 790.221 140.25L790.213 141.6C790.171 145.193 789.979 149.758 789.774 152.374L789.721 153H697.971C700.721 171.5 711.721 185 733.971 185C748.782 185 756.768 180.126 771.405 167.971L771.971 167.5L790.221 187.5C771.471 206.5 753.971 212.5 733.221 212.5C691.971 212.5 666.221 186 666.221 145.25C666.221 105.75 690.221 76.5 730.471 76.5ZM862.129 76.5C901.129 76.5 921.879 101 921.879 140.25L921.875 141.104L921.855 142.593C921.794 146.006 921.617 150.008 921.43 152.386L921.379 153H829.629C832.379 171.5 843.379 185 865.629 185C880.439 185 888.425 180.126 903.062 167.971L903.629 167.5L921.879 187.5C903.129 206.5 885.629 212.5 864.879 212.5C823.629 212.5 797.879 186 797.879 145.25C797.879 105.75 821.879 76.5 862.129 76.5ZM1074.54 76.5C1101.76 76.5 1116.73 92.9167 1117.03 118.473L1117.04 119.25V208.5H1084.54V129C1084.54 114.75 1079.04 104.5 1064.29 104.5C1049.68 104.5 1041.94 115.281 1041.79 129.566L1041.79 130V208.5H1009.29V129C1009.29 114.75 1004.04 104.5 989.036 104.5C974.433 104.5 966.691 115.526 966.538 129.573L966.536 130V208.5H934.036V80.75H964.286V95C971.036 84 982.786 76.5 1000.79 76.5C1017.54 76.5 1029.54 83.5 1036.29 95.25C1043.79 84.5 1055.79 76.5 1074.54 76.5ZM447 31V61H393.5V208.5H358.5V61H305V31H447ZM489.907 31V92.25C497.907 82.5 510.157 76.5 526.157 76.5C555.61 76.5 571.586 94.6318 571.902 120.222L571.907 121V208.5H539.407V130.75C539.407 114 531.157 104.5 515.657 104.5C500.807 104.5 490.123 115.281 489.91 131.022L489.907 131.5V208.5H457.407V31H489.907ZM649.064 79C655.814 79 661.634 80.3948 668.542 82.5118L669.314 82.75L663.564 111.25C656.814 109.5 651.564 108.75 647.314 108.75C630.237 108.75 619.53 122.226 619.318 144.813L619.314 145.5V208.5H586.814V80.75H617.064V99.5C623.064 87.25 633.314 79 649.064 79ZM1296.1 172.25V208.5H1260.6V172.25H1296.1ZM1213.44 149L1190.8 153.741L1189.69 153.978C1171.7 157.868 1159.94 162.475 1159.94 174C1159.94 182 1167.19 186.75 1179.44 186.75C1195.78 186.75 1213.09 178.909 1213.44 157.163L1213.44 156.5V149ZM729.471 102C712.394 102 702.422 113.026 698.828 129.257L698.721 129.75H758.471C757.221 112.75 747.221 102 729.471 102ZM861.129 102C844.051 102 834.079 113.026 830.486 129.257L830.379 129.75H890.129C888.879 112.75 878.879 102 861.129 102Z" fill="white"/>
<defs>
<clipPath id="clip0_5_10">
<rect width="278.7" height="323.3" fill="white"/>
</clipPath>
</defs>
</svg>
