<?xml version="1.0" encoding="UTF-8"?>
<!DOCTYPE svg PUBLIC "-//W3C//DTD SVG 1.1//EN" "http://www.w3.org/Graphics/SVG/1.1/DTD/svg11.dtd">
<!-- Creator: CorelDRAW X6 -->
<svg xmlns="http://www.w3.org/2000/svg" xml:space="preserve" width="1111px" height="426px" version="1.1" style="shape-rendering:geometricPrecision; text-rendering:geometricPrecision; image-rendering:optimizeQuality; fill-rule:evenodd; clip-rule:evenodd"
viewBox="0 0 11110000 4260121"
 xmlns:xlink="http://www.w3.org/1999/xlink">
 <defs>
  <style type="text/css">
   <![CDATA[
    .fil0 {fill:white}
   ]]>
  </style>
 </defs>
 <g id="Layer_x0020_1">
  <metadata id="CorelCorpID_0Corel-Layer"/>
  <path class="fil0" d="M9148955 8882c-772477,0 -1910493,270780 -2657671,865064 -248362,197551 -476611,381662 -476611,724170l0 1068391c0,341859 229217,526807 477201,723957 747237,594119 1884816,864603 2657081,864603 1238741,0 1955305,-884363 1955305,-2123104 0,-1238741 -716563,-2123080 -1955305,-2123080zm-2272100 1993903c12532,10358 28535,13618 44728,13618l605752 0c71280,0 136476,20870 190595,68079 50717,44244 79972,100122 79972,168142l0 174225c0,68339 -30012,124429 -81295,168331 -53906,46205 -118843,66791 -189272,66791l-760359 0c-56551,0 -102626,-46098 -102626,-102650l0 -10299c0,-56528 46075,-102626 102626,-102626l729107 0c16134,0 32929,-3024 46984,-15744 8941,-7748 12980,-18059 12591,-29823 -35,-1134 -59,-2315 -59,-3461l47 -124913c0,-12165 -3047,-22571 -12626,-30555 -697,-567 -1358,-1157 -2020,-1748 -11776,-10346 -29055,-12744 -44185,-12744l-606496 0c-71138,0 -136110,-21319 -190429,-67913 -51224,-43949 -80138,-100299 -80138,-168354l0 -152847c0,-68776 29528,-125280 81331,-169512 54047,-46181 118819,-67583 189591,-66756 238264,2764 476894,567 715182,83 28098,-71 52819,10146 72697,29988 19866,19843 30142,44587 30142,72661l0 11339c0,56528 -46098,102650 -102650,102650l-684461 0c-16984,0 -32929,3803 -46110,14929 -9815,8291 -13465,18650 -13465,31287l0 105213c0,13630 5433,24000 14846,32610zm3519652 659186l-690945 0c-86858,0 -165484,-28004 -230268,-86374 -61819,-55701 -96709,-126236 -96709,-210118l0 -466949c0,-84957 35091,-155327 97973,-211394 64866,-57839 142571,-85807 229252,-85110 230150,1819 460418,83 690556,83 27780,0 53008,10370 72661,29988 19654,19606 30130,44894 30130,72638l0 21295c0,56173 -46488,102626 -102650,102626l-649241 0c-34358,567 -66165,10205 -92067,33413 -650,591 -1299,1134 -2291,2020 -22488,18933 -31689,44764 -31689,73701l0 389575c0,31004 11067,56161 34087,76949 25559,23079 57496,31795 91417,31795l649784 0c56362,0 102650,46299 102650,102626l0 20587c0,56339 -46287,102650 -102650,102650zm-2169379 -405603l0 150272c0,10488 5209,17114 12768,22807 13878,9059 30047,13087 46512,13512l272 12c237827,0 475642,0 713469,0 56551,0 102626,46075 102626,102638l0 13713c0,56551 -46075,102650 -102626,102650l-744709 0c-70843,0 -135036,-21154 -189957,-66366 -685,-591 -1406,-1193 -2091,-1783 -50173,-43642 -78898,-99898 -78898,-166973l0 -528319c0,-84661 33957,-155386 96850,-211417 64724,-57661 142228,-85087 228603,-85087 185516,0 371055,0 556571,0 86563,0 164622,27083 228508,85807l945 839c62362,55736 96012,125764 96012,209858l0 255189c0,56551 -46075,102650 -102650,102650l-862205 0zm0 -224351l721064 0 0 -94807c-591,-31713 -11799,-57331 -35303,-78709 -25075,-22831 -55736,-30980 -89067,-30980l-471177 0c-34287,0 -65161,10122 -91524,32256l0 -24c-23161,20799 -33992,45827 -33992,76890l0 95374z"/>
  <path class="fil0" d="M4867137 2675423l0 -679335 -673985 0c-68965,0 -133205,40181 -134658,114437l-12 447260c1382,76713 62008,117638 134669,117638l673985 0zm-4562283 -959434l404599 0c66484,0 120721,54248 120721,120756l0 37311c0,66484 -54236,120732 -120721,120732l-403276 0 0 563941c0,32882 11386,60035 33874,83941 22311,23740 49075,34051 81484,34051l287918 0c66484,0 120721,54248 120721,120732l0 36484c0,66484 -54236,120732 -120721,120732l-318603 0c-102732,0 -194752,-32764 -271406,-101835 -73453,-66213 -115500,-149421 -114425,-248138l0 -1174666c0,-66484 54236,-120732 120732,-120732l58370 0c66496,0 120732,54248 120732,120732l0 285957zm2703970 0l404587 0c66484,0 120732,54248 120732,120756l0 37311c0,66484 -54248,120732 -120732,120732l-403240 0 0 563941c0,65161 49134,117992 115335,117992l287906 0c66484,0 120732,54248 120732,120732l0 36484c0,66484 -54248,120732 -120732,120732l-318591 0c-102732,0 -194740,-32764 -271406,-101835 -73441,-66213 -115500,-149421 -114437,-248138l0 -1174666c0,-66484 54248,-120732 120732,-120732l58382 0c66508,0 120732,54248 120732,120732l0 285957zm2524832 -406654l57035 0c66508,0 120756,54780 120756,120732l106 1403871c0,65953 -54768,120732 -120732,120732l-57059 0c-65965,0 -120756,-54248 -120756,-120732l-94 -1403871c0,-66484 54236,-120732 120744,-120732zm-4092747 406654c62244,591 141520,780 226299,780l0 -47c147921,-165 303425,-732 409500,-732 102862,0 194858,32681 271453,101870 73287,66213 114402,149315 114402,248894l0 537166c0,100240 -41894,183921 -115854,250276 -76228,68421 -168154,100476 -270000,100476l-367276 0 -42224 0 -226725 0c-102484,0 -194906,-32894 -271406,-101835 -73169,-65917 -114425,-149528 -114425,-248917l0 -537166c0,-100630 41492,-184004 115937,-250406 76630,-68350 167858,-101327 270319,-100358zm226299 280099l-178063 0c-67724,0 -133181,41728 -134634,114366l-47 447331c1476,76902 61890,117638 134681,117638l178063 0 42224 0 318614 0c69886,0 134658,-39815 134658,-115370l0 -448146c0,-75201 -65020,-115819 -134658,-115819l-318614 0 -42224 0zm3378569 958583l-899977 0c-102780,0 -196169,-32386 -272835,-101941 -72791,-66047 -114354,-149433 -114354,-248811l0 -537166c0,-100465 41799,-184040 115878,-250358 76843,-68764 168886,-101374 270614,-100406l900674 0c66508,0 120756,54532 120756,120756l0 997194c0,66165 -54248,120732 -120756,120732z"/>
 </g>
</svg>
