<svg width="248" height="52" viewBox="0 0 248 52" fill="none" xmlns="http://www.w3.org/2000/svg">
<mask id="mask0_2_2" style="mask-type:alpha" maskUnits="userSpaceOnUse" x="0" y="0" width="52" height="52">
<path d="M26 51.2632C39.9525 51.2632 51.2632 39.9525 51.2632 26C51.2632 12.0475 39.9525 0.736847 26 0.736847C12.0475 0.736847 0.736847 12.0475 0.736847 26C0.736847 39.9525 12.0475 51.2632 26 51.2632Z" fill="white"/>
</mask>
<g mask="url(#mask0_2_2)">
<path d="M26 51.2632C39.9525 51.2632 51.2632 39.9525 51.2632 26C51.2632 12.0475 39.9525 0.736847 26 0.736847C12.0475 0.736847 0.736847 12.0475 0.736847 26C0.736847 39.9525 12.0475 51.2632 26 51.2632Z" fill="#00B8D4"/>
</g>
<mask id="mask1_2_2" style="mask-type:alpha" maskUnits="userSpaceOnUse" x="6" y="6" width="40" height="40">
<path d="M26 6.42106C36.8132 6.42106 45.5789 15.1869 45.5789 26C45.5789 36.8132 36.8132 45.579 26 45.579C15.1868 45.579 6.42105 36.8132 6.42105 26C6.42105 15.1869 15.1868 6.42106 26 6.42106ZM25.2539 10.2105C24.9161 10.2105 24.5809 10.2212 24.2484 10.2426C24.2279 11.0993 24.3562 11.7212 24.6243 12.0317C14.048 14.1855 13.2403 25.1071 16.8207 26.5336C19.808 21.6906 25.9428 21.9314 28.3459 25.917C30.0715 28.9935 29.1124 31.8586 27.6396 33.6751L27.4769 33.8691C27.4221 33.9323 27.3668 33.9942 27.3109 34.0545L27.142 34.2311C27.057 34.3172 26.9711 34.3999 26.8848 34.479L26.7116 34.6326C26.4222 34.8805 26.1302 35.0882 25.8487 35.2508C21.5035 37.7588 15.9817 36.5045 11.0953 32.9754C13.669 38.1972 19.0422 41.7895 25.2539 41.7895C33.9677 41.7895 41.0316 34.7203 41.0316 26C41.0316 17.2797 33.9677 10.2105 25.2539 10.2105Z" fill="white"/>
</mask>
<g mask="url(#mask1_2_2)">
<path d="M26 6.42106C36.8132 6.42106 45.5789 15.1869 45.5789 26C45.5789 36.8132 36.8132 45.579 26 45.579C15.1868 45.579 6.42105 36.8132 6.42105 26C6.42105 15.1869 15.1868 6.42106 26 6.42106ZM25.2539 10.2105C24.9161 10.2105 24.5809 10.2212 24.2484 10.2426C24.2279 11.0993 24.3562 11.7212 24.6243 12.0317C14.048 14.1855 13.2403 25.1071 16.8207 26.5336C19.808 21.6906 25.9428 21.9314 28.3459 25.917C30.0715 28.9935 29.1124 31.8586 27.6396 33.6751L27.4769 33.8691C27.4221 33.9323 27.3668 33.9942 27.3109 34.0545L27.142 34.2311C27.057 34.3172 26.9711 34.3999 26.8848 34.479L26.7116 34.6326C26.4222 34.8805 26.1302 35.0882 25.8487 35.2508C21.5035 37.7588 15.9817 36.5045 11.0953 32.9754C13.669 38.1972 19.0422 41.7895 25.2539 41.7895C33.9677 41.7895 41.0316 34.7203 41.0316 26C41.0316 17.2797 33.9677 10.2105 25.2539 10.2105Z" fill="white"/>
</g>
<path fill-rule="evenodd" clip-rule="evenodd" d="M175.388 19.1249C176.868 19.1249 178.205 19.4229 179.399 20.0189C180.592 20.6149 181.554 21.4758 182.283 22.6016V19.2573H184.537V34.5548L184.533 34.9363C184.473 37.7019 183.75 39.7656 182.366 41.1275C180.918 42.5513 178.736 43.2632 175.819 43.2632C174.205 43.2632 172.675 43.0259 171.228 42.5513C169.78 42.0767 168.603 41.42 167.697 40.5811L168.891 38.7931L169.177 39.0372C169.96 39.6716 170.886 40.1752 171.957 40.548C173.161 40.9674 174.426 41.1771 175.752 41.1771C177.962 41.1771 179.587 40.6639 180.625 39.6375C181.664 38.611 182.183 37.0161 182.183 34.8529V32.6344L181.996 32.9048C181.293 33.8761 180.4 34.6248 179.316 35.1509C178.134 35.7248 176.824 36.0118 175.388 36.0118C173.752 36.0118 172.266 35.653 170.929 34.9356C169.592 34.2182 168.542 33.2138 167.78 31.9225C167.018 30.6311 166.636 29.1687 166.636 27.5352C166.636 25.9017 167.018 24.4448 167.78 23.1645C168.542 21.8842 169.587 20.8908 170.913 20.1845C172.239 19.4781 173.73 19.1249 175.388 19.1249ZM125.413 14.2642C128.811 14.2642 132.376 15.7738 134.697 18.1557L131.603 21.913C129.988 20.0679 127.667 18.8602 125.481 18.8602C121.444 18.8602 118.316 21.9801 118.316 26.0729C118.316 30.1657 121.444 33.3192 125.481 33.3192C127.6 33.3192 129.921 32.2457 131.603 30.5683L134.731 33.9566C132.242 36.5062 128.642 38.1501 125.211 38.1501C118.181 38.1501 112.867 32.9502 112.867 26.14C112.867 19.3634 118.282 14.2642 125.413 14.2642ZM67.0867 14.4319L73.5114 32.1451L79.9697 14.4319H85.4525L76.1014 37.9152H70.6186L61.3684 14.4319H67.0867ZM92.8863 14.4319L104.323 29.5283V14.4319H109.368V37.9152H104.525L93.1218 22.8524V37.9152H88.0426V14.4319H92.8863ZM155.152 19.1249C157.429 19.1249 159.175 19.6933 160.39 20.8301C161.606 21.967 162.213 23.6501 162.213 25.8796V36.674H159.959V33.9588L159.808 34.2007C159.285 34.9907 158.556 35.6164 157.622 36.078C156.594 36.5857 155.373 36.8395 153.959 36.8395C152.014 36.8395 150.467 36.376 149.318 35.4489C148.169 34.5217 147.594 33.2966 147.594 31.7735C147.594 30.2945 148.13 29.1025 149.202 28.1974C150.274 27.2924 151.981 26.8399 154.324 26.8399H159.86V25.7803L159.854 25.4849C159.802 24.1285 159.384 23.0847 158.6 22.3533C157.76 21.5696 156.534 21.1778 154.92 21.1778C153.815 21.1778 152.755 21.3599 151.738 21.7242C150.722 22.0884 149.849 22.5906 149.119 23.2307L148.059 21.4758L148.36 21.232C149.18 20.5986 150.141 20.1005 151.241 19.7375C152.478 19.3291 153.782 19.1249 155.152 19.1249ZM197.977 19.1249C199.656 19.1249 201.17 19.5002 202.518 20.2507C203.866 21.0012 204.921 22.0497 205.684 23.3963C206.446 24.7428 206.827 26.2659 206.827 27.9657C206.827 29.6654 206.446 31.1885 205.684 32.535C204.921 33.8816 203.866 34.9356 202.518 35.6972C201.17 36.4588 199.656 36.8395 197.977 36.8395C196.297 36.8395 194.783 36.4588 193.435 35.6972C192.087 34.9356 191.026 33.8816 190.253 32.535C189.479 31.1885 189.093 29.6654 189.093 27.9657C189.093 26.2659 189.479 24.7428 190.253 23.3963C191.026 22.0497 192.087 21.0012 193.435 20.2507C194.783 19.5002 196.297 19.1249 197.977 19.1249ZM218.477 19.1249C220.157 19.1249 221.67 19.5002 223.019 20.2507C224.367 21.0012 225.422 22.0497 226.184 23.3963C226.947 24.7428 227.328 26.2659 227.328 27.9657C227.328 29.6654 226.947 31.1885 226.184 32.535C225.422 33.8816 224.367 34.9356 223.019 35.6972C221.67 36.4588 220.157 36.8395 218.477 36.8395C216.798 36.8395 215.284 36.4588 213.936 35.6972C212.588 34.9356 211.527 33.8816 210.753 32.535C209.98 31.1885 209.593 29.6654 209.593 27.9657C209.593 26.2659 209.98 24.7428 210.753 23.3963C211.527 22.0497 212.588 21.0012 213.936 20.2507C215.284 19.5002 216.798 19.1249 218.477 19.1249ZM142.774 12.1053V36.674H140.42V12.1053H142.774ZM240.734 19.1249C242.922 19.1249 244.663 19.7595 245.956 21.0288C247.248 22.2981 247.895 24.1468 247.895 26.575V36.674H245.541V26.8068L245.536 26.4724C245.483 24.8259 245.031 23.5577 244.182 22.6678C243.276 21.7186 241.983 21.244 240.304 21.244C238.425 21.244 236.939 21.8014 235.845 22.9162C234.751 24.0309 234.204 25.5706 234.204 27.5352V36.674H231.85V19.2573H234.105V22.4692L234.27 22.2092C234.895 21.2742 235.73 20.5386 236.773 20.0024C237.911 19.4174 239.232 19.1249 240.734 19.1249ZM159.86 28.5948H154.39L154.115 28.5978C151.315 28.6606 149.915 29.6971 149.915 31.7073C149.915 32.7227 150.302 33.5229 151.075 34.1078C151.849 34.6928 152.931 34.9853 154.324 34.9853C155.65 34.9853 156.788 34.6818 157.738 34.0747C158.688 33.4677 159.396 32.5902 159.86 31.4424V28.5948ZM197.977 21.1778C196.739 21.1778 195.629 21.4593 194.645 22.0222C193.662 22.5851 192.888 23.3852 192.325 24.4227C191.761 25.4602 191.479 26.6412 191.479 27.9657C191.479 29.2901 191.761 30.4711 192.325 31.5086C192.888 32.5461 193.662 33.3463 194.645 33.9092C195.629 34.4721 196.739 34.7535 197.977 34.7535C199.214 34.7535 200.325 34.4721 201.308 33.9092C202.292 33.3463 203.06 32.5461 203.612 31.5086C204.165 30.4711 204.441 29.2901 204.441 27.9657C204.441 26.6412 204.165 25.4602 203.612 24.4227C203.06 23.3852 202.292 22.5851 201.308 22.0222C200.325 21.4593 199.214 21.1778 197.977 21.1778ZM218.477 21.1778C217.24 21.1778 216.129 21.4593 215.146 22.0222C214.162 22.5851 213.389 23.3852 212.825 24.4227C212.262 25.4602 211.98 26.6412 211.98 27.9657C211.98 29.2901 212.262 30.4711 212.825 31.5086C213.389 32.5461 214.162 33.3463 215.146 33.9092C216.129 34.4721 217.24 34.7535 218.477 34.7535C219.715 34.7535 220.825 34.4721 221.809 33.9092C222.792 33.3463 223.56 32.5461 224.112 31.5086C224.665 30.4711 224.941 29.2901 224.941 27.9657C224.941 26.6412 224.665 25.4602 224.112 24.4227C223.56 23.3852 222.792 22.5851 221.809 22.0222C220.825 21.4593 219.715 21.1778 218.477 21.1778ZM175.62 21.1778C174.36 21.1778 173.228 21.4427 172.222 21.9725C171.216 22.5023 170.432 23.2528 169.868 24.2241C169.305 25.1953 169.023 26.2991 169.023 27.5352C169.023 28.7714 169.305 29.8751 169.868 30.8464C170.432 31.8176 171.216 32.5737 172.222 33.1145C173.228 33.6553 174.36 33.9257 175.62 33.9257C176.879 33.9257 178.018 33.6553 179.034 33.1145C180.051 32.5737 180.841 31.8176 181.404 30.8464C181.968 29.8751 182.25 28.7714 182.25 27.5352C182.25 26.2991 181.968 25.2009 181.404 24.2406C180.841 23.2804 180.056 22.5299 179.051 21.989C178.045 21.4482 176.902 21.1778 175.62 21.1778Z" fill="white"/>
</svg>
